<svg width="404" height="326" viewBox="0 0 404 326" fill="none" xmlns="http://www.w3.org/2000/svg">
<g filter="url(#filter0_d)">
<path d="M20 54C20 49.5817 23.5817 46 28 46H112C116.418 46 120 49.5817 120 54V108C120 112.418 116.418 116 112 116H28C23.5817 116 20 112.418 20 108V54Z" fill="#1F1F1F"/>
</g>
<path d="M24.7706 138.84H27.3626L27.9226 135.912H29.2666L28.7066 138.84H30.1146V140.024H28.4666L27.9226 142.888H30.1146V144.072H27.6986L27.1386 147H25.7946L26.3546 144.072H23.7626L23.2026 147H21.8586L22.4186 144.072H21.0106V142.888H22.6426L23.1866 140.024H21.0106V138.84H23.4266L23.9866 135.912H25.3306L24.7706 138.84ZM23.9866 142.888H26.5786L27.1386 140.024H24.5466L23.9866 142.888ZM32.3864 138.2C32.9944 137.965 33.5864 137.667 34.1624 137.304C34.7384 136.931 35.2664 136.467 35.7464 135.912H36.8024V147H35.3144V137.976C35.1864 138.093 35.0264 138.216 34.8344 138.344C34.6531 138.472 34.4504 138.595 34.2264 138.712C34.0131 138.829 33.7838 138.941 33.5384 139.048C33.3038 139.155 33.0744 139.245 32.8504 139.32L32.3864 138.2ZM41.3057 147V135.912H47.9937V137.24H42.8577V140.584H47.4177V141.896H42.8577V147H41.3057ZM50.0114 138.2C50.6194 137.965 51.2114 137.667 51.7874 137.304C52.3634 136.931 52.8914 136.467 53.3714 135.912H54.4274V147H52.9394V137.976C52.8114 138.093 52.6514 138.216 52.4594 138.344C52.2781 138.472 52.0754 138.595 51.8514 138.712C51.6381 138.829 51.4088 138.941 51.1634 139.048C50.9288 139.155 50.6994 139.245 50.4754 139.32L50.0114 138.2ZM58.9307 147V135.912H65.6187V137.24H60.4827V140.584H65.0427V141.896H60.4827V147H58.9307ZM67.6364 138.2C68.2444 137.965 68.8364 137.667 69.4124 137.304C69.9884 136.931 70.5164 136.467 70.9964 135.912H72.0524V147H70.5644V137.976C70.4364 138.093 70.2764 138.216 70.0844 138.344C69.9031 138.472 69.7004 138.595 69.4764 138.712C69.2631 138.829 69.0338 138.941 68.7884 139.048C68.5538 139.155 68.3244 139.245 68.1004 139.32L67.6364 138.2ZM76.5557 147V135.912H83.2437V137.24H78.1077V140.584H82.6677V141.896H78.1077V147H76.5557Z" fill="#8D9399"/>
<g filter="url(#filter1_d)">
<path d="M152 54C152 49.5817 155.582 46 160 46H244C248.418 46 252 49.5817 252 54V108C252 112.418 248.418 116 244 116H160C155.582 116 152 112.418 152 108V54Z" fill="#00BFBF"/>
</g>
<path d="M156.802 138.84H159.394L159.954 135.912H161.298L160.738 138.84H162.146V140.024H160.498L159.954 142.888H162.146V144.072H159.73L159.17 147H157.826L158.386 144.072H155.794L155.234 147H153.89L154.45 144.072H153.042V142.888H154.674L155.218 140.024H153.042V138.84H155.458L156.018 135.912H157.362L156.802 138.84ZM156.018 142.888H158.61L159.17 140.024H156.578L156.018 142.888ZM163.73 141.448C163.73 139.592 164.055 138.163 164.706 137.16C165.367 136.157 166.279 135.656 167.442 135.656C168.604 135.656 169.511 136.157 170.162 137.16C170.823 138.163 171.154 139.592 171.154 141.448C171.154 143.304 170.823 144.733 170.162 145.736C169.511 146.739 168.604 147.24 167.442 147.24C166.279 147.24 165.367 146.739 164.706 145.736C164.055 144.733 163.73 143.304 163.73 141.448ZM169.586 141.448C169.586 140.84 169.548 140.264 169.474 139.72C169.41 139.176 169.292 138.701 169.122 138.296C168.962 137.891 168.743 137.571 168.466 137.336C168.188 137.091 167.847 136.968 167.442 136.968C167.036 136.968 166.695 137.091 166.418 137.336C166.14 137.571 165.916 137.891 165.746 138.296C165.586 138.701 165.468 139.176 165.394 139.72C165.33 140.264 165.298 140.84 165.298 141.448C165.298 142.056 165.33 142.632 165.394 143.176C165.468 143.72 165.586 144.195 165.746 144.6C165.916 145.005 166.14 145.331 166.418 145.576C166.695 145.811 167.036 145.928 167.442 145.928C167.847 145.928 168.188 145.811 168.466 145.576C168.743 145.331 168.962 145.005 169.122 144.6C169.292 144.195 169.41 143.72 169.474 143.176C169.548 142.632 169.586 142.056 169.586 141.448ZM172.761 141.448C172.761 139.592 173.086 138.163 173.737 137.16C174.398 136.157 175.31 135.656 176.473 135.656C177.636 135.656 178.542 136.157 179.193 137.16C179.854 138.163 180.185 139.592 180.185 141.448C180.185 143.304 179.854 144.733 179.193 145.736C178.542 146.739 177.636 147.24 176.473 147.24C175.31 147.24 174.398 146.739 173.737 145.736C173.086 144.733 172.761 143.304 172.761 141.448ZM178.617 141.448C178.617 140.84 178.58 140.264 178.505 139.72C178.441 139.176 178.324 138.701 178.153 138.296C177.993 137.891 177.774 137.571 177.497 137.336C177.22 137.091 176.878 136.968 176.473 136.968C176.068 136.968 175.726 137.091 175.449 137.336C175.172 137.571 174.948 137.891 174.777 138.296C174.617 138.701 174.5 139.176 174.425 139.72C174.361 140.264 174.329 140.84 174.329 141.448C174.329 142.056 174.361 142.632 174.425 143.176C174.5 143.72 174.617 144.195 174.777 144.6C174.948 145.005 175.172 145.331 175.449 145.576C175.726 145.811 176.068 145.928 176.473 145.928C176.878 145.928 177.22 145.811 177.497 145.576C177.774 145.331 177.993 145.005 178.153 144.6C178.324 144.195 178.441 143.72 178.505 143.176C178.58 142.632 178.617 142.056 178.617 141.448ZM185.36 147.096C185.136 147.096 184.891 147.091 184.624 147.08C184.368 147.069 184.107 147.053 183.84 147.032C183.584 147.011 183.328 146.984 183.072 146.952C182.816 146.92 182.582 146.877 182.368 146.824V136.072C182.582 136.019 182.816 135.976 183.072 135.944C183.328 135.912 183.584 135.885 183.84 135.864C184.107 135.843 184.368 135.827 184.624 135.816C184.88 135.805 185.12 135.8 185.344 135.8C185.984 135.8 186.582 135.848 187.136 135.944C187.702 136.04 188.187 136.205 188.592 136.44C189.008 136.664 189.334 136.963 189.568 137.336C189.803 137.709 189.92 138.168 189.92 138.712C189.92 139.32 189.776 139.821 189.488 140.216C189.2 140.6 188.816 140.888 188.336 141.08C188.987 141.272 189.504 141.576 189.888 141.992C190.272 142.408 190.464 142.995 190.464 143.752C190.464 144.861 190.054 145.699 189.232 146.264C188.422 146.819 187.131 147.096 185.36 147.096ZM183.904 141.832V145.736C184.022 145.747 184.16 145.757 184.32 145.768C184.459 145.779 184.619 145.789 184.8 145.8C184.992 145.8 185.211 145.8 185.456 145.8C185.915 145.8 186.347 145.773 186.752 145.72C187.168 145.656 187.531 145.549 187.84 145.4C188.15 145.251 188.395 145.043 188.576 144.776C188.768 144.509 188.864 144.173 188.864 143.768C188.864 143.405 188.795 143.101 188.656 142.856C188.518 142.6 188.315 142.397 188.048 142.248C187.792 142.099 187.483 141.992 187.12 141.928C186.758 141.864 186.352 141.832 185.904 141.832H183.904ZM183.904 140.584H185.536C185.92 140.584 186.283 140.557 186.624 140.504C186.966 140.451 187.259 140.355 187.504 140.216C187.76 140.077 187.958 139.896 188.096 139.672C188.246 139.448 188.32 139.165 188.32 138.824C188.32 138.504 188.246 138.237 188.096 138.024C187.947 137.8 187.739 137.624 187.472 137.496C187.216 137.357 186.912 137.256 186.56 137.192C186.208 137.128 185.835 137.096 185.44 137.096C185.046 137.096 184.736 137.101 184.512 137.112C184.288 137.123 184.086 137.139 183.904 137.16V140.584ZM192.649 147V135.912H199.337V137.24H194.201V140.584H198.761V141.896H194.201V147H192.649ZM204.235 147.096C204.011 147.096 203.766 147.091 203.499 147.08C203.243 147.069 202.982 147.053 202.715 147.032C202.459 147.011 202.203 146.984 201.947 146.952C201.691 146.92 201.457 146.877 201.243 146.824V136.072C201.457 136.019 201.691 135.976 201.947 135.944C202.203 135.912 202.459 135.885 202.715 135.864C202.982 135.843 203.243 135.827 203.499 135.816C203.755 135.805 203.995 135.8 204.219 135.8C204.859 135.8 205.457 135.848 206.011 135.944C206.577 136.04 207.062 136.205 207.467 136.44C207.883 136.664 208.209 136.963 208.443 137.336C208.678 137.709 208.795 138.168 208.795 138.712C208.795 139.32 208.651 139.821 208.363 140.216C208.075 140.6 207.691 140.888 207.211 141.08C207.862 141.272 208.379 141.576 208.763 141.992C209.147 142.408 209.339 142.995 209.339 143.752C209.339 144.861 208.929 145.699 208.107 146.264C207.297 146.819 206.006 147.096 204.235 147.096ZM202.779 141.832V145.736C202.897 145.747 203.035 145.757 203.195 145.768C203.334 145.779 203.494 145.789 203.675 145.8C203.867 145.8 204.086 145.8 204.331 145.8C204.79 145.8 205.222 145.773 205.627 145.72C206.043 145.656 206.406 145.549 206.715 145.4C207.025 145.251 207.27 145.043 207.451 144.776C207.643 144.509 207.739 144.173 207.739 143.768C207.739 143.405 207.67 143.101 207.531 142.856C207.393 142.6 207.19 142.397 206.923 142.248C206.667 142.099 206.358 141.992 205.995 141.928C205.633 141.864 205.227 141.832 204.779 141.832H202.779ZM202.779 140.584H204.411C204.795 140.584 205.158 140.557 205.499 140.504C205.841 140.451 206.134 140.355 206.379 140.216C206.635 140.077 206.833 139.896 206.971 139.672C207.121 139.448 207.195 139.165 207.195 138.824C207.195 138.504 207.121 138.237 206.971 138.024C206.822 137.8 206.614 137.624 206.347 137.496C206.091 137.357 205.787 137.256 205.435 137.192C205.083 137.128 204.71 137.096 204.315 137.096C203.921 137.096 203.611 137.101 203.387 137.112C203.163 137.123 202.961 137.139 202.779 137.16V140.584ZM211.524 147V135.912H218.212V137.24H213.076V140.584H217.636V141.896H213.076V147H211.524Z" fill="#8D9399"/>
<path d="M25.4 8C27.3467 8 28.84 8.37333 29.88 9.12C30.9333 9.85333 31.46 10.9533 31.46 12.42C31.46 13.22 31.3133 13.9067 31.02 14.48C30.74 15.04 30.3267 15.5 29.78 15.86C29.2467 16.2067 28.5933 16.46 27.82 16.62C27.0467 16.78 26.1733 16.86 25.2 16.86H23.66V22H21.72V8.34C22.2667 8.20667 22.8733 8.12 23.54 8.08C24.22 8.02667 24.84 8 25.4 8ZM25.56 9.7C24.7333 9.7 24.1 9.72 23.66 9.76V15.2H25.12C25.7867 15.2 26.3867 15.16 26.92 15.08C27.4533 14.9867 27.9 14.84 28.26 14.64C28.6333 14.4267 28.92 14.14 29.12 13.78C29.32 13.42 29.42 12.96 29.42 12.4C29.42 11.8667 29.3133 11.4267 29.1 11.08C28.9 10.7333 28.62 10.46 28.26 10.26C27.9133 10.0467 27.5067 9.9 27.04 9.82C26.5733 9.74 26.08 9.7 25.56 9.7ZM37.608 11.38C37.768 11.38 37.948 11.3933 38.148 11.42C38.3613 11.4333 38.568 11.46 38.768 11.5C38.968 11.5267 39.148 11.56 39.308 11.6C39.4813 11.6267 39.608 11.6533 39.688 11.68L39.368 13.3C39.2213 13.2467 38.9746 13.1867 38.628 13.12C38.2946 13.04 37.8613 13 37.328 13C36.9813 13 36.6346 13.04 36.288 13.12C35.9546 13.1867 35.7346 13.2333 35.628 13.26V22H33.768V12.04C34.208 11.88 34.7546 11.7333 35.408 11.6C36.0613 11.4533 36.7946 11.38 37.608 11.38ZM43.3428 22H41.4828V11.6H43.3428V22ZM42.4028 9.72C42.0695 9.72 41.7828 9.61333 41.5428 9.4C41.3161 9.17333 41.2028 8.87333 41.2028 8.5C41.2028 8.12667 41.3161 7.83333 41.5428 7.62C41.7828 7.39333 42.0695 7.28 42.4028 7.28C42.7361 7.28 43.0161 7.39333 43.2428 7.62C43.4828 7.83333 43.6028 8.12667 43.6028 8.5C43.6028 8.87333 43.4828 9.17333 43.2428 9.4C43.0161 9.61333 42.7361 9.72 42.4028 9.72ZM46.5414 11.9C46.9681 11.7933 47.5281 11.68 48.2214 11.56C48.9281 11.44 49.7414 11.38 50.6614 11.38C51.3281 11.38 51.8881 11.4733 52.3414 11.66C52.7947 11.8333 53.1747 12.0933 53.4814 12.44C53.5747 12.3733 53.7214 12.28 53.9214 12.16C54.1214 12.04 54.3681 11.9267 54.6614 11.82C54.9547 11.7 55.2814 11.6 55.6414 11.52C56.0014 11.4267 56.3881 11.38 56.8014 11.38C57.6014 11.38 58.2547 11.5 58.7614 11.74C59.2681 11.9667 59.6614 12.2933 59.9414 12.72C60.2347 13.1467 60.4281 13.6533 60.5214 14.24C60.6281 14.8267 60.6814 15.4667 60.6814 16.16V22H58.8214V16.56C58.8214 15.9467 58.7881 15.42 58.7214 14.98C58.6681 14.54 58.5547 14.1733 58.3814 13.88C58.2214 13.5867 57.9947 13.3733 57.7014 13.24C57.4214 13.0933 57.0547 13.02 56.6014 13.02C55.9747 13.02 55.4547 13.1067 55.0414 13.28C54.6414 13.44 54.3681 13.5867 54.2214 13.72C54.3281 14.0667 54.4081 14.4467 54.4614 14.86C54.5147 15.2733 54.5414 15.7067 54.5414 16.16V22H52.6814V16.56C52.6814 15.9467 52.6481 15.42 52.5814 14.98C52.5147 14.54 52.3947 14.1733 52.2214 13.88C52.0614 13.5867 51.8347 13.3733 51.5414 13.24C51.2614 13.0933 50.9014 13.02 50.4614 13.02C50.2747 13.02 50.0747 13.0267 49.8614 13.04C49.6481 13.0533 49.4414 13.0733 49.2414 13.1C49.0547 13.1133 48.8814 13.1333 48.7214 13.16C48.5614 13.1867 48.4547 13.2067 48.4014 13.22V22H46.5414V11.9ZM67.288 20.66C67.728 20.66 68.1146 20.6533 68.448 20.64C68.7946 20.6133 69.0813 20.5733 69.308 20.52V17.42C69.1746 17.3533 68.9546 17.3 68.648 17.26C68.3546 17.2067 67.9946 17.18 67.568 17.18C67.288 17.18 66.988 17.2 66.668 17.24C66.3613 17.28 66.0746 17.3667 65.808 17.5C65.5546 17.62 65.3413 17.7933 65.168 18.02C64.9946 18.2333 64.908 18.52 64.908 18.88C64.908 19.5467 65.1213 20.0133 65.548 20.28C65.9746 20.5333 66.5546 20.66 67.288 20.66ZM67.128 11.34C67.8746 11.34 68.5013 11.44 69.008 11.64C69.528 11.8267 69.9413 12.1 70.248 12.46C70.568 12.8067 70.7946 13.2267 70.928 13.72C71.0613 14.2 71.128 14.7333 71.128 15.32V21.82C70.968 21.8467 70.7413 21.8867 70.448 21.94C70.168 21.98 69.848 22.02 69.488 22.06C69.128 22.1 68.7346 22.1333 68.308 22.16C67.8946 22.2 67.4813 22.22 67.068 22.22C66.4813 22.22 65.9413 22.16 65.448 22.04C64.9546 21.92 64.528 21.7333 64.168 21.48C63.808 21.2133 63.528 20.8667 63.328 20.44C63.128 20.0133 63.028 19.5 63.028 18.9C63.028 18.3267 63.1413 17.8333 63.368 17.42C63.608 17.0067 63.928 16.6733 64.328 16.42C64.728 16.1667 65.1946 15.98 65.728 15.86C66.2613 15.74 66.8213 15.68 67.408 15.68C67.5946 15.68 67.788 15.6933 67.988 15.72C68.188 15.7333 68.3746 15.76 68.548 15.8C68.7346 15.8267 68.8946 15.8533 69.028 15.88C69.1613 15.9067 69.2546 15.9267 69.308 15.94V15.42C69.308 15.1133 69.2746 14.8133 69.208 14.52C69.1413 14.2133 69.0213 13.9467 68.848 13.72C68.6746 13.48 68.4346 13.2933 68.128 13.16C67.8346 13.0133 67.448 12.94 66.968 12.94C66.3546 12.94 65.8146 12.9867 65.348 13.08C64.8946 13.16 64.5546 13.2467 64.328 13.34L64.108 11.8C64.348 11.6933 64.748 11.5933 65.308 11.5C65.868 11.3933 66.4746 11.34 67.128 11.34ZM78.0572 11.38C78.2172 11.38 78.3972 11.3933 78.5972 11.42C78.8105 11.4333 79.0172 11.46 79.2172 11.5C79.4172 11.5267 79.5972 11.56 79.7572 11.6C79.9305 11.6267 80.0572 11.6533 80.1372 11.68L79.8172 13.3C79.6705 13.2467 79.4239 13.1867 79.0772 13.12C78.7439 13.04 78.3105 13 77.7772 13C77.4305 13 77.0839 13.04 76.7372 13.12C76.4039 13.1867 76.1839 13.2333 76.0772 13.26V22H74.2172V12.04C74.6572 11.88 75.2039 11.7333 75.8572 11.6C76.5105 11.4533 77.2439 11.38 78.0572 11.38ZM81.1417 23.94C81.2884 24.0067 81.4751 24.0667 81.7017 24.12C81.9417 24.1867 82.1751 24.22 82.4017 24.22C83.1351 24.22 83.7084 24.0533 84.1217 23.72C84.5351 23.4 84.9084 22.8733 85.2417 22.14C84.4017 20.54 83.6151 18.8467 82.8817 17.06C82.1617 15.26 81.5617 13.44 81.0817 11.6H83.0817C83.2284 12.2 83.4017 12.8467 83.6017 13.54C83.8151 14.2333 84.0484 14.9467 84.3017 15.68C84.5551 16.4133 84.8284 17.1467 85.1217 17.88C85.4151 18.6133 85.7217 19.32 86.0417 20C86.5484 18.6 86.9884 17.2133 87.3617 15.84C87.7351 14.4667 88.0884 13.0533 88.4217 11.6H90.3417C89.8617 13.56 89.3284 15.4467 88.7417 17.26C88.1551 19.06 87.5217 20.7467 86.8417 22.32C86.5751 22.92 86.2951 23.4333 86.0017 23.86C85.7217 24.3 85.4084 24.66 85.0617 24.94C84.7151 25.22 84.3217 25.4267 83.8817 25.56C83.4551 25.6933 82.9684 25.76 82.4217 25.76C82.2751 25.76 82.1217 25.7467 81.9617 25.72C81.8017 25.7067 81.6417 25.68 81.4817 25.64C81.3351 25.6133 81.1951 25.58 81.0617 25.54C80.9417 25.5 80.8551 25.4667 80.8017 25.44L81.1417 23.94Z" fill="#2C2C2C"/>
<g filter="url(#filter2_d)">
<path d="M20 230C20 225.582 23.5817 222 28 222H112C116.418 222 120 225.582 120 230V284C120 288.418 116.418 292 112 292H28C23.5817 292 20 288.418 20 284V230Z" fill="#999999"/>
</g>
<g filter="url(#filter3_d)">
<path d="M152 230C152 225.582 155.582 222 160 222H244C248.418 222 252 225.582 252 230V284C252 288.418 248.418 292 244 292H160C155.582 292 152 288.418 152 284V230Z" fill="#D9D9D9"/>
</g>
<g filter="url(#filter4_d)">
<path d="M284 230C284 225.582 287.582 222 292 222H376C380.418 222 384 225.582 384 230V284C384 288.418 380.418 292 376 292H292C287.582 292 284 288.418 284 284V230Z" fill="#F2F2F2"/>
</g>
<path d="M24.6143 314.84H27.2063L27.7663 311.912H29.1103L28.5503 314.84H29.9583V316.024H28.3103L27.7663 318.888H29.9583V320.072H27.5423L26.9823 323H25.6383L26.1983 320.072H23.6063L23.0463 323H21.7023L22.2623 320.072H20.8543V318.888H22.4863L23.0303 316.024H20.8543V314.84H23.2703L23.8303 311.912H25.1743L24.6143 314.84ZM23.8303 318.888H26.4223L26.9823 316.024H24.3903L23.8303 318.888ZM38.7582 316.344C38.7582 318.541 38.2089 320.205 37.1102 321.336C36.0222 322.456 34.4009 323.021 32.2462 323.032L32.1982 321.784C32.8702 321.784 33.4729 321.72 34.0062 321.592C34.5502 321.464 35.0249 321.261 35.4302 320.984C35.8355 320.696 36.1715 320.328 36.4382 319.88C36.7155 319.432 36.9182 318.883 37.0462 318.232C36.7689 318.36 36.4542 318.467 36.1022 318.552C35.7502 318.627 35.3875 318.664 35.0142 318.664C34.3849 318.664 33.8515 318.573 33.4142 318.392C32.9769 318.2 32.6195 317.949 32.3422 317.64C32.0649 317.32 31.8622 316.957 31.7342 316.552C31.6169 316.136 31.5582 315.704 31.5582 315.256C31.5582 314.861 31.6275 314.451 31.7662 314.024C31.9049 313.597 32.1129 313.208 32.3902 312.856C32.6782 312.504 33.0409 312.216 33.4782 311.992C33.9155 311.768 34.4329 311.656 35.0302 311.656C35.6382 311.656 36.1715 311.763 36.6302 311.976C37.0995 312.189 37.4889 312.499 37.7982 312.904C38.1182 313.309 38.3582 313.805 38.5182 314.392C38.6782 314.968 38.7582 315.619 38.7582 316.344ZM35.1742 317.448C35.5475 317.448 35.8995 317.416 36.2302 317.352C36.5609 317.277 36.8809 317.171 37.1902 317.032C37.2009 316.915 37.2062 316.803 37.2062 316.696C37.2062 316.579 37.2062 316.461 37.2062 316.344C37.2062 315.885 37.1742 315.448 37.1102 315.032C37.0462 314.605 36.9289 314.237 36.7582 313.928C36.5982 313.608 36.3795 313.357 36.1022 313.176C35.8249 312.984 35.4729 312.888 35.0462 312.888C34.6942 312.888 34.3955 312.963 34.1502 313.112C33.9049 313.261 33.7022 313.453 33.5422 313.688C33.3822 313.912 33.2649 314.163 33.1902 314.44C33.1262 314.707 33.0942 314.968 33.0942 315.224C33.0942 315.949 33.2649 316.504 33.6062 316.888C33.9582 317.261 34.4809 317.448 35.1742 317.448ZM47.7894 316.344C47.7894 318.541 47.2401 320.205 46.1414 321.336C45.0534 322.456 43.4321 323.021 41.2774 323.032L41.2294 321.784C41.9014 321.784 42.5041 321.72 43.0374 321.592C43.5814 321.464 44.0561 321.261 44.4614 320.984C44.8668 320.696 45.2028 320.328 45.4694 319.88C45.7468 319.432 45.9494 318.883 46.0774 318.232C45.8001 318.36 45.4854 318.467 45.1334 318.552C44.7814 318.627 44.4188 318.664 44.0454 318.664C43.4161 318.664 42.8828 318.573 42.4454 318.392C42.0081 318.2 41.6508 317.949 41.3734 317.64C41.0961 317.32 40.8934 316.957 40.7654 316.552C40.6481 316.136 40.5894 315.704 40.5894 315.256C40.5894 314.861 40.6588 314.451 40.7974 314.024C40.9361 313.597 41.1441 313.208 41.4214 312.856C41.7094 312.504 42.0721 312.216 42.5094 311.992C42.9468 311.768 43.4641 311.656 44.0614 311.656C44.6694 311.656 45.2028 311.763 45.6614 311.976C46.1308 312.189 46.5201 312.499 46.8294 312.904C47.1494 313.309 47.3894 313.805 47.5494 314.392C47.7094 314.968 47.7894 315.619 47.7894 316.344ZM44.2054 317.448C44.5788 317.448 44.9308 317.416 45.2614 317.352C45.5921 317.277 45.9121 317.171 46.2214 317.032C46.2321 316.915 46.2374 316.803 46.2374 316.696C46.2374 316.579 46.2374 316.461 46.2374 316.344C46.2374 315.885 46.2054 315.448 46.1414 315.032C46.0774 314.605 45.9601 314.237 45.7894 313.928C45.6294 313.608 45.4108 313.357 45.1334 313.176C44.8561 312.984 44.5041 312.888 44.0774 312.888C43.7254 312.888 43.4268 312.963 43.1814 313.112C42.9361 313.261 42.7334 313.453 42.5734 313.688C42.4134 313.912 42.2961 314.163 42.2214 314.44C42.1574 314.707 42.1254 314.968 42.1254 315.224C42.1254 315.949 42.2961 316.504 42.6374 316.888C42.9894 317.261 43.5121 317.448 44.2054 317.448ZM56.8207 316.344C56.8207 318.541 56.2714 320.205 55.1727 321.336C54.0847 322.456 52.4634 323.021 50.3087 323.032L50.2607 321.784C50.9327 321.784 51.5354 321.72 52.0687 321.592C52.6127 321.464 53.0874 321.261 53.4927 320.984C53.898 320.696 54.234 320.328 54.5007 319.88C54.778 319.432 54.9807 318.883 55.1087 318.232C54.8314 318.36 54.5167 318.467 54.1647 318.552C53.8127 318.627 53.45 318.664 53.0767 318.664C52.4474 318.664 51.914 318.573 51.4767 318.392C51.0394 318.2 50.682 317.949 50.4047 317.64C50.1274 317.32 49.9247 316.957 49.7967 316.552C49.6794 316.136 49.6207 315.704 49.6207 315.256C49.6207 314.861 49.69 314.451 49.8287 314.024C49.9674 313.597 50.1754 313.208 50.4527 312.856C50.7407 312.504 51.1034 312.216 51.5407 311.992C51.978 311.768 52.4954 311.656 53.0927 311.656C53.7007 311.656 54.234 311.763 54.6927 311.976C55.162 312.189 55.5514 312.499 55.8607 312.904C56.1807 313.309 56.4207 313.805 56.5807 314.392C56.7407 314.968 56.8207 315.619 56.8207 316.344ZM53.2367 317.448C53.61 317.448 53.962 317.416 54.2927 317.352C54.6234 317.277 54.9434 317.171 55.2527 317.032C55.2634 316.915 55.2687 316.803 55.2687 316.696C55.2687 316.579 55.2687 316.461 55.2687 316.344C55.2687 315.885 55.2367 315.448 55.1727 315.032C55.1087 314.605 54.9914 314.237 54.8207 313.928C54.6607 313.608 54.442 313.357 54.1647 313.176C53.8874 312.984 53.5354 312.888 53.1087 312.888C52.7567 312.888 52.458 312.963 52.2127 313.112C51.9674 313.261 51.7647 313.453 51.6047 313.688C51.4447 313.912 51.3274 314.163 51.2527 314.44C51.1887 314.707 51.1567 314.968 51.1567 315.224C51.1567 315.949 51.3274 316.504 51.6687 316.888C52.0207 317.261 52.5434 317.448 53.2367 317.448ZM65.8519 316.344C65.8519 318.541 65.3026 320.205 64.2039 321.336C63.1159 322.456 61.4946 323.021 59.3399 323.032L59.2919 321.784C59.9639 321.784 60.5666 321.72 61.0999 321.592C61.6439 321.464 62.1186 321.261 62.5239 320.984C62.9293 320.696 63.2653 320.328 63.5319 319.88C63.8093 319.432 64.0119 318.883 64.1399 318.232C63.8626 318.36 63.5479 318.467 63.1959 318.552C62.8439 318.627 62.4813 318.664 62.1079 318.664C61.4786 318.664 60.9453 318.573 60.5079 318.392C60.0706 318.2 59.7133 317.949 59.4359 317.64C59.1586 317.32 58.9559 316.957 58.8279 316.552C58.7106 316.136 58.6519 315.704 58.6519 315.256C58.6519 314.861 58.7213 314.451 58.8599 314.024C58.9986 313.597 59.2066 313.208 59.4839 312.856C59.7719 312.504 60.1346 312.216 60.5719 311.992C61.0093 311.768 61.5266 311.656 62.1239 311.656C62.7319 311.656 63.2653 311.763 63.7239 311.976C64.1933 312.189 64.5826 312.499 64.8919 312.904C65.2119 313.309 65.4519 313.805 65.6119 314.392C65.7719 314.968 65.8519 315.619 65.8519 316.344ZM62.2679 317.448C62.6413 317.448 62.9933 317.416 63.3239 317.352C63.6546 317.277 63.9746 317.171 64.2839 317.032C64.2946 316.915 64.2999 316.803 64.2999 316.696C64.2999 316.579 64.2999 316.461 64.2999 316.344C64.2999 315.885 64.2679 315.448 64.2039 315.032C64.1399 314.605 64.0226 314.237 63.8519 313.928C63.6919 313.608 63.4733 313.357 63.1959 313.176C62.9186 312.984 62.5666 312.888 62.1399 312.888C61.7879 312.888 61.4893 312.963 61.2439 313.112C60.9986 313.261 60.7959 313.453 60.6359 313.688C60.4759 313.912 60.3586 314.163 60.2839 314.44C60.2199 314.707 60.1879 314.968 60.1879 315.224C60.1879 315.949 60.3586 316.504 60.6999 316.888C61.0519 317.261 61.5746 317.448 62.2679 317.448ZM74.8832 316.344C74.8832 318.541 74.3339 320.205 73.2352 321.336C72.1472 322.456 70.5259 323.021 68.3712 323.032L68.3232 321.784C68.9952 321.784 69.5979 321.72 70.1312 321.592C70.6752 321.464 71.1499 321.261 71.5552 320.984C71.9605 320.696 72.2965 320.328 72.5632 319.88C72.8405 319.432 73.0432 318.883 73.1712 318.232C72.8939 318.36 72.5792 318.467 72.2272 318.552C71.8752 318.627 71.5125 318.664 71.1392 318.664C70.5099 318.664 69.9765 318.573 69.5392 318.392C69.1019 318.2 68.7445 317.949 68.4672 317.64C68.1899 317.32 67.9872 316.957 67.8592 316.552C67.7419 316.136 67.6832 315.704 67.6832 315.256C67.6832 314.861 67.7525 314.451 67.8912 314.024C68.0299 313.597 68.2379 313.208 68.5152 312.856C68.8032 312.504 69.1659 312.216 69.6032 311.992C70.0405 311.768 70.5579 311.656 71.1552 311.656C71.7632 311.656 72.2965 311.763 72.7552 311.976C73.2245 312.189 73.6139 312.499 73.9232 312.904C74.2432 313.309 74.4832 313.805 74.6432 314.392C74.8032 314.968 74.8832 315.619 74.8832 316.344ZM71.2992 317.448C71.6725 317.448 72.0245 317.416 72.3552 317.352C72.6859 317.277 73.0059 317.171 73.3152 317.032C73.3259 316.915 73.3312 316.803 73.3312 316.696C73.3312 316.579 73.3312 316.461 73.3312 316.344C73.3312 315.885 73.2992 315.448 73.2352 315.032C73.1712 314.605 73.0539 314.237 72.8832 313.928C72.7232 313.608 72.5045 313.357 72.2272 313.176C71.9499 312.984 71.5979 312.888 71.1712 312.888C70.8192 312.888 70.5205 312.963 70.2752 313.112C70.0299 313.261 69.8272 313.453 69.6672 313.688C69.5072 313.912 69.3899 314.163 69.3152 314.44C69.2512 314.707 69.2192 314.968 69.2192 315.224C69.2192 315.949 69.3899 316.504 69.7312 316.888C70.0832 317.261 70.6059 317.448 71.2992 317.448ZM83.9144 316.344C83.9144 318.541 83.3651 320.205 82.2664 321.336C81.1784 322.456 79.5571 323.021 77.4024 323.032L77.3544 321.784C78.0264 321.784 78.6291 321.72 79.1624 321.592C79.7064 321.464 80.1811 321.261 80.5864 320.984C80.9918 320.696 81.3278 320.328 81.5944 319.88C81.8718 319.432 82.0744 318.883 82.2024 318.232C81.9251 318.36 81.6104 318.467 81.2584 318.552C80.9064 318.627 80.5438 318.664 80.1704 318.664C79.5411 318.664 79.0078 318.573 78.5704 318.392C78.1331 318.2 77.7758 317.949 77.4984 317.64C77.2211 317.32 77.0184 316.957 76.8904 316.552C76.7731 316.136 76.7144 315.704 76.7144 315.256C76.7144 314.861 76.7838 314.451 76.9224 314.024C77.0611 313.597 77.2691 313.208 77.5464 312.856C77.8344 312.504 78.1971 312.216 78.6344 311.992C79.0718 311.768 79.5891 311.656 80.1864 311.656C80.7944 311.656 81.3278 311.763 81.7864 311.976C82.2558 312.189 82.6451 312.499 82.9544 312.904C83.2744 313.309 83.5144 313.805 83.6744 314.392C83.8344 314.968 83.9144 315.619 83.9144 316.344ZM80.3304 317.448C80.7038 317.448 81.0558 317.416 81.3864 317.352C81.7171 317.277 82.0371 317.171 82.3464 317.032C82.3571 316.915 82.3624 316.803 82.3624 316.696C82.3624 316.579 82.3624 316.461 82.3624 316.344C82.3624 315.885 82.3304 315.448 82.2664 315.032C82.2024 314.605 82.0851 314.237 81.9144 313.928C81.7544 313.608 81.5358 313.357 81.2584 313.176C80.9811 312.984 80.6291 312.888 80.2024 312.888C79.8504 312.888 79.5518 312.963 79.3064 313.112C79.0611 313.261 78.8584 313.453 78.6984 313.688C78.5384 313.912 78.4211 314.163 78.3464 314.44C78.2824 314.707 78.2504 314.968 78.2504 315.224C78.2504 315.949 78.4211 316.504 78.7624 316.888C79.1144 317.261 79.6371 317.448 80.3304 317.448Z" fill="#8D9399"/>
<path d="M156.552 314.84H159.144L159.704 311.912H161.048L160.488 314.84H161.896V316.024H160.248L159.704 318.888H161.896V320.072H159.48L158.92 323H157.576L158.136 320.072H155.544L154.984 323H153.64L154.2 320.072H152.792V318.888H154.424L154.968 316.024H152.792V314.84H155.208L155.768 311.912H157.112L156.552 314.84ZM155.768 318.888H158.36L158.92 316.024H156.328L155.768 318.888ZM173.16 317.448C173.16 318.408 173.01 319.245 172.712 319.96C172.413 320.664 171.992 321.251 171.448 321.72C170.904 322.179 170.253 322.525 169.496 322.76C168.738 322.984 167.906 323.096 167 323.096C166.552 323.096 166.056 323.075 165.512 323.032C164.978 323 164.493 322.931 164.056 322.824V312.072C164.493 311.965 164.978 311.896 165.512 311.864C166.056 311.821 166.552 311.8 167 311.8C167.906 311.8 168.738 311.917 169.496 312.152C170.253 312.376 170.904 312.723 171.448 313.192C171.992 313.651 172.413 314.237 172.712 314.952C173.01 315.656 173.16 316.488 173.16 317.448ZM167.128 321.736C168.6 321.736 169.698 321.363 170.424 320.616C171.149 319.859 171.512 318.803 171.512 317.448C171.512 316.093 171.149 315.043 170.424 314.296C169.698 313.539 168.6 313.16 167.128 313.16C166.69 313.16 166.349 313.165 166.104 313.176C165.869 313.187 165.704 313.197 165.608 313.208V321.688C165.704 321.699 165.869 321.709 166.104 321.72C166.349 321.731 166.69 321.736 167.128 321.736ZM182.102 316.344C182.102 318.541 181.553 320.205 180.454 321.336C179.366 322.456 177.745 323.021 175.59 323.032L175.542 321.784C176.214 321.784 176.817 321.72 177.35 321.592C177.894 321.464 178.369 321.261 178.774 320.984C179.179 320.696 179.515 320.328 179.782 319.88C180.059 319.432 180.262 318.883 180.39 318.232C180.113 318.36 179.798 318.467 179.446 318.552C179.094 318.627 178.731 318.664 178.358 318.664C177.729 318.664 177.195 318.573 176.758 318.392C176.321 318.2 175.963 317.949 175.686 317.64C175.409 317.32 175.206 316.957 175.078 316.552C174.961 316.136 174.902 315.704 174.902 315.256C174.902 314.861 174.971 314.451 175.11 314.024C175.249 313.597 175.457 313.208 175.734 312.856C176.022 312.504 176.385 312.216 176.822 311.992C177.259 311.768 177.777 311.656 178.374 311.656C178.982 311.656 179.515 311.763 179.974 311.976C180.443 312.189 180.833 312.499 181.142 312.904C181.462 313.309 181.702 313.805 181.862 314.392C182.022 314.968 182.102 315.619 182.102 316.344ZM178.518 317.448C178.891 317.448 179.243 317.416 179.574 317.352C179.905 317.277 180.225 317.171 180.534 317.032C180.545 316.915 180.55 316.803 180.55 316.696C180.55 316.579 180.55 316.461 180.55 316.344C180.55 315.885 180.518 315.448 180.454 315.032C180.39 314.605 180.273 314.237 180.102 313.928C179.942 313.608 179.723 313.357 179.446 313.176C179.169 312.984 178.817 312.888 178.39 312.888C178.038 312.888 177.739 312.963 177.494 313.112C177.249 313.261 177.046 313.453 176.886 313.688C176.726 313.912 176.609 314.163 176.534 314.44C176.47 314.707 176.438 314.968 176.438 315.224C176.438 315.949 176.609 316.504 176.95 316.888C177.302 317.261 177.825 317.448 178.518 317.448ZM193.597 317.448C193.597 318.408 193.448 319.245 193.149 319.96C192.851 320.664 192.429 321.251 191.885 321.72C191.341 322.179 190.691 322.525 189.933 322.76C189.176 322.984 188.344 323.096 187.437 323.096C186.989 323.096 186.493 323.075 185.949 323.032C185.416 323 184.931 322.931 184.493 322.824V312.072C184.931 311.965 185.416 311.896 185.949 311.864C186.493 311.821 186.989 311.8 187.437 311.8C188.344 311.8 189.176 311.917 189.933 312.152C190.691 312.376 191.341 312.723 191.885 313.192C192.429 313.651 192.851 314.237 193.149 314.952C193.448 315.656 193.597 316.488 193.597 317.448ZM187.565 321.736C189.037 321.736 190.136 321.363 190.861 320.616C191.587 319.859 191.949 318.803 191.949 317.448C191.949 316.093 191.587 315.043 190.861 314.296C190.136 313.539 189.037 313.16 187.565 313.16C187.128 313.16 186.787 313.165 186.541 313.176C186.307 313.187 186.141 313.197 186.045 313.208V321.688C186.141 321.699 186.307 321.709 186.541 321.72C186.787 321.731 187.128 321.736 187.565 321.736ZM202.539 316.344C202.539 318.541 201.99 320.205 200.891 321.336C199.803 322.456 198.182 323.021 196.027 323.032L195.979 321.784C196.651 321.784 197.254 321.72 197.787 321.592C198.331 321.464 198.806 321.261 199.211 320.984C199.617 320.696 199.953 320.328 200.219 319.88C200.497 319.432 200.699 318.883 200.827 318.232C200.55 318.36 200.235 318.467 199.883 318.552C199.531 318.627 199.169 318.664 198.795 318.664C198.166 318.664 197.633 318.573 197.195 318.392C196.758 318.2 196.401 317.949 196.123 317.64C195.846 317.32 195.643 316.957 195.515 316.552C195.398 316.136 195.339 315.704 195.339 315.256C195.339 314.861 195.409 314.451 195.547 314.024C195.686 313.597 195.894 313.208 196.171 312.856C196.459 312.504 196.822 312.216 197.259 311.992C197.697 311.768 198.214 311.656 198.811 311.656C199.419 311.656 199.953 311.763 200.411 311.976C200.881 312.189 201.27 312.499 201.579 312.904C201.899 313.309 202.139 313.805 202.299 314.392C202.459 314.968 202.539 315.619 202.539 316.344ZM198.955 317.448C199.329 317.448 199.681 317.416 200.011 317.352C200.342 317.277 200.662 317.171 200.971 317.032C200.982 316.915 200.987 316.803 200.987 316.696C200.987 316.579 200.987 316.461 200.987 316.344C200.987 315.885 200.955 315.448 200.891 315.032C200.827 314.605 200.71 314.237 200.539 313.928C200.379 313.608 200.161 313.357 199.883 313.176C199.606 312.984 199.254 312.888 198.827 312.888C198.475 312.888 198.177 312.963 197.931 313.112C197.686 313.261 197.483 313.453 197.323 313.688C197.163 313.912 197.046 314.163 196.971 314.44C196.907 314.707 196.875 314.968 196.875 315.224C196.875 315.949 197.046 316.504 197.387 316.888C197.739 317.261 198.262 317.448 198.955 317.448ZM214.035 317.448C214.035 318.408 213.885 319.245 213.587 319.96C213.288 320.664 212.867 321.251 212.323 321.72C211.779 322.179 211.128 322.525 210.371 322.76C209.613 322.984 208.781 323.096 207.875 323.096C207.427 323.096 206.931 323.075 206.387 323.032C205.853 323 205.368 322.931 204.931 322.824V312.072C205.368 311.965 205.853 311.896 206.387 311.864C206.931 311.821 207.427 311.8 207.875 311.8C208.781 311.8 209.613 311.917 210.371 312.152C211.128 312.376 211.779 312.723 212.323 313.192C212.867 313.651 213.288 314.237 213.587 314.952C213.885 315.656 214.035 316.488 214.035 317.448ZM208.003 321.736C209.475 321.736 210.573 321.363 211.299 320.616C212.024 319.859 212.387 318.803 212.387 317.448C212.387 316.093 212.024 315.043 211.299 314.296C210.573 313.539 209.475 313.16 208.003 313.16C207.565 313.16 207.224 313.165 206.979 313.176C206.744 313.187 206.579 313.197 206.483 313.208V321.688C206.579 321.699 206.744 321.709 206.979 321.72C207.224 321.731 207.565 321.736 208.003 321.736ZM222.977 316.344C222.977 318.541 222.428 320.205 221.329 321.336C220.241 322.456 218.62 323.021 216.465 323.032L216.417 321.784C217.089 321.784 217.692 321.72 218.225 321.592C218.769 321.464 219.244 321.261 219.649 320.984C220.054 320.696 220.39 320.328 220.657 319.88C220.934 319.432 221.137 318.883 221.265 318.232C220.988 318.36 220.673 318.467 220.321 318.552C219.969 318.627 219.606 318.664 219.233 318.664C218.604 318.664 218.07 318.573 217.633 318.392C217.196 318.2 216.838 317.949 216.561 317.64C216.284 317.32 216.081 316.957 215.953 316.552C215.836 316.136 215.777 315.704 215.777 315.256C215.777 314.861 215.846 314.451 215.985 314.024C216.124 313.597 216.332 313.208 216.609 312.856C216.897 312.504 217.26 312.216 217.697 311.992C218.134 311.768 218.652 311.656 219.249 311.656C219.857 311.656 220.39 311.763 220.849 311.976C221.318 312.189 221.708 312.499 222.017 312.904C222.337 313.309 222.577 313.805 222.737 314.392C222.897 314.968 222.977 315.619 222.977 316.344ZM219.393 317.448C219.766 317.448 220.118 317.416 220.449 317.352C220.78 317.277 221.1 317.171 221.409 317.032C221.42 316.915 221.425 316.803 221.425 316.696C221.425 316.579 221.425 316.461 221.425 316.344C221.425 315.885 221.393 315.448 221.329 315.032C221.265 314.605 221.148 314.237 220.977 313.928C220.817 313.608 220.598 313.357 220.321 313.176C220.044 312.984 219.692 312.888 219.265 312.888C218.913 312.888 218.614 312.963 218.369 313.112C218.124 313.261 217.921 313.453 217.761 313.688C217.601 313.912 217.484 314.163 217.409 314.44C217.345 314.707 217.313 314.968 217.313 315.224C217.313 315.949 217.484 316.504 217.825 316.888C218.177 317.261 218.7 317.448 219.393 317.448Z" fill="#8D9399"/>
<path d="M288.771 314.84H291.363L291.923 311.912H293.267L292.707 314.84H294.115V316.024H292.467L291.923 318.888H294.115V320.072H291.699L291.139 323H289.795L290.355 320.072H287.763L287.203 323H285.859L286.419 320.072H285.011V318.888H286.643L287.187 316.024H285.011V314.84H287.427L287.987 311.912H289.331L288.771 314.84ZM287.987 318.888H290.579L291.139 316.024H288.547L287.987 318.888ZM296.274 323V311.912H302.962V313.24H297.826V316.584H302.386V317.896H297.826V323H296.274ZM310.964 314.744C310.964 315.128 310.884 315.501 310.724 315.864C310.575 316.216 310.372 316.568 310.116 316.92C309.86 317.261 309.572 317.603 309.252 317.944C308.932 318.275 308.612 318.6 308.292 318.92C308.111 319.101 307.898 319.315 307.652 319.56C307.418 319.805 307.194 320.061 306.98 320.328C306.767 320.595 306.586 320.851 306.436 321.096C306.298 321.341 306.228 321.555 306.228 321.736H311.332V323H304.612C304.602 322.936 304.596 322.872 304.596 322.808C304.596 322.744 304.596 322.685 304.596 322.632C304.596 322.131 304.676 321.667 304.836 321.24C305.007 320.803 305.226 320.392 305.492 320.008C305.759 319.624 306.058 319.261 306.388 318.92C306.719 318.579 307.044 318.248 307.364 317.928C307.631 317.672 307.882 317.421 308.116 317.176C308.362 316.92 308.575 316.669 308.756 316.424C308.948 316.168 309.098 315.907 309.204 315.64C309.322 315.373 309.38 315.091 309.38 314.792C309.38 314.472 309.327 314.2 309.22 313.976C309.124 313.752 308.991 313.565 308.82 313.416C308.65 313.267 308.447 313.16 308.212 313.096C307.988 313.021 307.748 312.984 307.492 312.984C307.183 312.984 306.9 313.027 306.644 313.112C306.388 313.197 306.159 313.299 305.956 313.416C305.754 313.523 305.583 313.64 305.444 313.768C305.306 313.885 305.199 313.976 305.124 314.04L304.388 312.984C304.484 312.877 304.628 312.749 304.82 312.6C305.012 312.44 305.242 312.291 305.508 312.152C305.775 312.013 306.074 311.896 306.404 311.8C306.735 311.704 307.092 311.656 307.476 311.656C308.639 311.656 309.508 311.928 310.084 312.472C310.671 313.005 310.964 313.763 310.964 314.744ZM313.899 323V311.912H320.587V313.24H315.451V316.584H320.011V317.896H315.451V323H313.899ZM328.589 314.744C328.589 315.128 328.509 315.501 328.349 315.864C328.2 316.216 327.997 316.568 327.741 316.92C327.485 317.261 327.197 317.603 326.877 317.944C326.557 318.275 326.237 318.6 325.917 318.92C325.736 319.101 325.523 319.315 325.277 319.56C325.043 319.805 324.819 320.061 324.605 320.328C324.392 320.595 324.211 320.851 324.061 321.096C323.923 321.341 323.853 321.555 323.853 321.736H328.957V323H322.237C322.227 322.936 322.221 322.872 322.221 322.808C322.221 322.744 322.221 322.685 322.221 322.632C322.221 322.131 322.301 321.667 322.461 321.24C322.632 320.803 322.851 320.392 323.117 320.008C323.384 319.624 323.683 319.261 324.013 318.92C324.344 318.579 324.669 318.248 324.989 317.928C325.256 317.672 325.507 317.421 325.741 317.176C325.987 316.92 326.2 316.669 326.381 316.424C326.573 316.168 326.723 315.907 326.829 315.64C326.947 315.373 327.005 315.091 327.005 314.792C327.005 314.472 326.952 314.2 326.845 313.976C326.749 313.752 326.616 313.565 326.445 313.416C326.275 313.267 326.072 313.16 325.837 313.096C325.613 313.021 325.373 312.984 325.117 312.984C324.808 312.984 324.525 313.027 324.269 313.112C324.013 313.197 323.784 313.299 323.581 313.416C323.379 313.523 323.208 313.64 323.069 313.768C322.931 313.885 322.824 313.976 322.749 314.04L322.013 312.984C322.109 312.877 322.253 312.749 322.445 312.6C322.637 312.44 322.867 312.291 323.133 312.152C323.4 312.013 323.699 311.896 324.029 311.8C324.36 311.704 324.717 311.656 325.101 311.656C326.264 311.656 327.133 311.928 327.709 312.472C328.296 313.005 328.589 313.763 328.589 314.744ZM331.524 323V311.912H338.212V313.24H333.076V316.584H337.636V317.896H333.076V323H331.524ZM346.214 314.744C346.214 315.128 346.134 315.501 345.974 315.864C345.825 316.216 345.622 316.568 345.366 316.92C345.11 317.261 344.822 317.603 344.502 317.944C344.182 318.275 343.862 318.6 343.542 318.92C343.361 319.101 343.148 319.315 342.902 319.56C342.668 319.805 342.444 320.061 342.23 320.328C342.017 320.595 341.836 320.851 341.686 321.096C341.548 321.341 341.478 321.555 341.478 321.736H346.582V323H339.862C339.852 322.936 339.846 322.872 339.846 322.808C339.846 322.744 339.846 322.685 339.846 322.632C339.846 322.131 339.926 321.667 340.086 321.24C340.257 320.803 340.476 320.392 340.742 320.008C341.009 319.624 341.308 319.261 341.638 318.92C341.969 318.579 342.294 318.248 342.614 317.928C342.881 317.672 343.132 317.421 343.366 317.176C343.612 316.92 343.825 316.669 344.006 316.424C344.198 316.168 344.348 315.907 344.454 315.64C344.572 315.373 344.63 315.091 344.63 314.792C344.63 314.472 344.577 314.2 344.47 313.976C344.374 313.752 344.241 313.565 344.07 313.416C343.9 313.267 343.697 313.16 343.462 313.096C343.238 313.021 342.998 312.984 342.742 312.984C342.433 312.984 342.15 313.027 341.894 313.112C341.638 313.197 341.409 313.299 341.206 313.416C341.004 313.523 340.833 313.64 340.694 313.768C340.556 313.885 340.449 313.976 340.374 314.04L339.638 312.984C339.734 312.877 339.878 312.749 340.07 312.6C340.262 312.44 340.492 312.291 340.758 312.152C341.025 312.013 341.324 311.896 341.654 311.8C341.985 311.704 342.342 311.656 342.726 311.656C343.889 311.656 344.758 311.928 345.334 312.472C345.921 313.005 346.214 313.763 346.214 314.744Z" fill="#8D9399"/>
<path d="M31.22 198C30.9267 197.507 30.5867 196.953 30.2 196.34C29.8267 195.727 29.42 195.093 28.98 194.44C28.54 193.773 28.08 193.1 27.6 192.42C27.1333 191.74 26.6667 191.087 26.2 190.46C25.7333 189.82 25.28 189.22 24.84 188.66C24.4 188.1 23.9933 187.607 23.62 187.18V198H21.72V184.14H23.26C23.8867 184.807 24.5533 185.587 25.26 186.48C25.98 187.36 26.6867 188.273 27.38 189.22C28.0867 190.153 28.7467 191.073 29.36 191.98C29.9867 192.887 30.5133 193.693 30.94 194.4V184.14H32.84V198H31.22ZM44.4308 197.7C44.0041 197.807 43.4374 197.92 42.7308 198.04C42.0374 198.16 41.2308 198.22 40.3108 198.22C39.5108 198.22 38.8374 198.107 38.2908 197.88C37.7441 197.64 37.3041 197.307 36.9708 196.88C36.6374 196.453 36.3974 195.953 36.2508 195.38C36.1041 194.793 36.0308 194.147 36.0308 193.44V187.6H37.8908V193.04C37.8908 194.307 38.0908 195.213 38.4908 195.76C38.8908 196.307 39.5641 196.58 40.5108 196.58C40.7108 196.58 40.9174 196.573 41.1308 196.56C41.3441 196.547 41.5441 196.533 41.7308 196.52C41.9174 196.493 42.0841 196.473 42.2308 196.46C42.3908 196.433 42.5041 196.407 42.5708 196.38V187.6H44.4308V197.7ZM49.3752 187.6H53.3152V189.16H49.3752V193.96C49.3752 194.48 49.4152 194.913 49.4952 195.26C49.5752 195.593 49.6952 195.86 49.8552 196.06C50.0152 196.247 50.2152 196.38 50.4552 196.46C50.6952 196.54 50.9752 196.58 51.2952 196.58C51.8552 196.58 52.3018 196.52 52.6352 196.4C52.9818 196.267 53.2218 196.173 53.3552 196.12L53.7152 197.66C53.5285 197.753 53.2018 197.867 52.7352 198C52.2685 198.147 51.7352 198.22 51.1352 198.22C50.4285 198.22 49.8418 198.133 49.3752 197.96C48.9218 197.773 48.5552 197.5 48.2752 197.14C47.9952 196.78 47.7952 196.34 47.6752 195.82C47.5685 195.287 47.5152 194.673 47.5152 193.98V184.7L49.3752 184.38V187.6ZM59.522 187.38C59.682 187.38 59.862 187.393 60.062 187.42C60.2754 187.433 60.482 187.46 60.682 187.5C60.882 187.527 61.062 187.56 61.222 187.6C61.3954 187.627 61.522 187.653 61.602 187.68L61.282 189.3C61.1354 189.247 60.8887 189.187 60.542 189.12C60.2087 189.04 59.7754 189 59.242 189C58.8954 189 58.5487 189.04 58.202 189.12C57.8687 189.187 57.6487 189.233 57.542 189.26V198H55.682V188.04C56.122 187.88 56.6687 187.733 57.322 187.6C57.9754 187.453 58.7087 187.38 59.522 187.38ZM66.9169 196.66C67.3569 196.66 67.7435 196.653 68.0769 196.64C68.4235 196.613 68.7102 196.573 68.9369 196.52V193.42C68.8035 193.353 68.5835 193.3 68.2769 193.26C67.9835 193.207 67.6235 193.18 67.1969 193.18C66.9169 193.18 66.6169 193.2 66.2969 193.24C65.9902 193.28 65.7035 193.367 65.4369 193.5C65.1835 193.62 64.9702 193.793 64.7969 194.02C64.6235 194.233 64.5369 194.52 64.5369 194.88C64.5369 195.547 64.7502 196.013 65.1769 196.28C65.6035 196.533 66.1835 196.66 66.9169 196.66ZM66.7569 187.34C67.5035 187.34 68.1302 187.44 68.6369 187.64C69.1569 187.827 69.5702 188.1 69.8769 188.46C70.1969 188.807 70.4235 189.227 70.5569 189.72C70.6902 190.2 70.7569 190.733 70.7569 191.32V197.82C70.5969 197.847 70.3702 197.887 70.0769 197.94C69.7969 197.98 69.4769 198.02 69.1169 198.06C68.7569 198.1 68.3635 198.133 67.9369 198.16C67.5235 198.2 67.1102 198.22 66.6969 198.22C66.1102 198.22 65.5702 198.16 65.0769 198.04C64.5835 197.92 64.1569 197.733 63.7969 197.48C63.4369 197.213 63.1569 196.867 62.9569 196.44C62.7569 196.013 62.6569 195.5 62.6569 194.9C62.6569 194.327 62.7702 193.833 62.9969 193.42C63.2369 193.007 63.5569 192.673 63.9569 192.42C64.3569 192.167 64.8235 191.98 65.3569 191.86C65.8902 191.74 66.4502 191.68 67.0369 191.68C67.2235 191.68 67.4169 191.693 67.6169 191.72C67.8169 191.733 68.0035 191.76 68.1769 191.8C68.3635 191.827 68.5235 191.853 68.6569 191.88C68.7902 191.907 68.8835 191.927 68.9369 191.94V191.42C68.9369 191.113 68.9035 190.813 68.8369 190.52C68.7702 190.213 68.6502 189.947 68.4769 189.72C68.3035 189.48 68.0635 189.293 67.7569 189.16C67.4635 189.013 67.0769 188.94 66.5969 188.94C65.9835 188.94 65.4435 188.987 64.9769 189.08C64.5235 189.16 64.1835 189.247 63.9569 189.34L63.7369 187.8C63.9769 187.693 64.3769 187.593 64.9369 187.5C65.4969 187.393 66.1035 187.34 66.7569 187.34ZM76.9661 198.2C75.8194 198.173 75.0061 197.927 74.5261 197.46C74.0461 196.993 73.8061 196.267 73.8061 195.28V182.8L75.6661 182.48V194.98C75.6661 195.287 75.6928 195.54 75.7461 195.74C75.7994 195.94 75.8861 196.1 76.0061 196.22C76.1261 196.34 76.2861 196.433 76.4861 196.5C76.6861 196.553 76.9328 196.6 77.2261 196.64L76.9661 198.2Z" fill="#2C2C2C"/>
<defs>
<filter id="filter0_d" x="0" y="36" width="140" height="110" filterUnits="userSpaceOnUse" color-interpolation-filters="sRGB">
<feFlood flood-opacity="0" result="BackgroundImageFix"/>
<feColorMatrix in="SourceAlpha" type="matrix" values="0 0 0 0 0 0 0 0 0 0 0 0 0 0 0 0 0 0 127 0" result="hardAlpha"/>
<feOffset dy="10"/>
<feGaussianBlur stdDeviation="10"/>
<feColorMatrix type="matrix" values="0 0 0 0 0 0 0 0 0 0 0 0 0 0 0 0 0 0 0.15 0"/>
<feBlend mode="normal" in2="BackgroundImageFix" result="effect1_dropShadow"/>
<feBlend mode="normal" in="SourceGraphic" in2="effect1_dropShadow" result="shape"/>
</filter>
<filter id="filter1_d" x="132" y="36" width="140" height="110" filterUnits="userSpaceOnUse" color-interpolation-filters="sRGB">
<feFlood flood-opacity="0" result="BackgroundImageFix"/>
<feColorMatrix in="SourceAlpha" type="matrix" values="0 0 0 0 0 0 0 0 0 0 0 0 0 0 0 0 0 0 127 0" result="hardAlpha"/>
<feOffset dy="10"/>
<feGaussianBlur stdDeviation="10"/>
<feColorMatrix type="matrix" values="0 0 0 0 0 0 0 0 0 0 0 0 0 0 0 0 0 0 0.15 0"/>
<feBlend mode="normal" in2="BackgroundImageFix" result="effect1_dropShadow"/>
<feBlend mode="normal" in="SourceGraphic" in2="effect1_dropShadow" result="shape"/>
</filter>
<filter id="filter2_d" x="0" y="212" width="140" height="110" filterUnits="userSpaceOnUse" color-interpolation-filters="sRGB">
<feFlood flood-opacity="0" result="BackgroundImageFix"/>
<feColorMatrix in="SourceAlpha" type="matrix" values="0 0 0 0 0 0 0 0 0 0 0 0 0 0 0 0 0 0 127 0" result="hardAlpha"/>
<feOffset dy="10"/>
<feGaussianBlur stdDeviation="10"/>
<feColorMatrix type="matrix" values="0 0 0 0 0 0 0 0 0 0 0 0 0 0 0 0 0 0 0.15 0"/>
<feBlend mode="normal" in2="BackgroundImageFix" result="effect1_dropShadow"/>
<feBlend mode="normal" in="SourceGraphic" in2="effect1_dropShadow" result="shape"/>
</filter>
<filter id="filter3_d" x="132" y="212" width="140" height="110" filterUnits="userSpaceOnUse" color-interpolation-filters="sRGB">
<feFlood flood-opacity="0" result="BackgroundImageFix"/>
<feColorMatrix in="SourceAlpha" type="matrix" values="0 0 0 0 0 0 0 0 0 0 0 0 0 0 0 0 0 0 127 0" result="hardAlpha"/>
<feOffset dy="10"/>
<feGaussianBlur stdDeviation="10"/>
<feColorMatrix type="matrix" values="0 0 0 0 0 0 0 0 0 0 0 0 0 0 0 0 0 0 0.15 0"/>
<feBlend mode="normal" in2="BackgroundImageFix" result="effect1_dropShadow"/>
<feBlend mode="normal" in="SourceGraphic" in2="effect1_dropShadow" result="shape"/>
</filter>
<filter id="filter4_d" x="264" y="212" width="140" height="110" filterUnits="userSpaceOnUse" color-interpolation-filters="sRGB">
<feFlood flood-opacity="0" result="BackgroundImageFix"/>
<feColorMatrix in="SourceAlpha" type="matrix" values="0 0 0 0 0 0 0 0 0 0 0 0 0 0 0 0 0 0 127 0" result="hardAlpha"/>
<feOffset dy="10"/>
<feGaussianBlur stdDeviation="10"/>
<feColorMatrix type="matrix" values="0 0 0 0 0 0 0 0 0 0 0 0 0 0 0 0 0 0 0.15 0"/>
<feBlend mode="normal" in2="BackgroundImageFix" result="effect1_dropShadow"/>
<feBlend mode="normal" in="SourceGraphic" in2="effect1_dropShadow" result="shape"/>
</filter>
</defs>
</svg>
