<svg width="364" height="334" viewBox="0 0 364 334" fill="none" xmlns="http://www.w3.org/2000/svg">
<rect x="26" y="8" width="48" height="48" rx="8" fill="white"/>
<path fill-rule="evenodd" clip-rule="evenodd" d="M38 19.5556C38 18.6964 38.6716 18 39.5 18H60.5C61.0885 18 61.6227 18.357 61.8659 18.9128C62.1091 19.4686 62.0164 20.1206 61.6288 20.5799L42.8057 42.8889H60.5C61.3284 42.8889 62 43.5853 62 44.4444C62 45.3036 61.3284 46 60.5 46H39.5C38.9115 46 38.3773 45.643 38.1341 45.0872C37.8909 44.5314 37.9836 43.8795 38.3712 43.4201L57.1943 21.1111H39.5C38.6716 21.1111 38 20.4147 38 19.5556Z" fill="#2C2C2C"/>
<path d="M27.1278 79C26.9464 78.52 26.7758 78.0507 26.6158 77.592C26.4558 77.1227 26.2904 76.648 26.1198 76.168H21.0958L20.0878 79H18.4718C18.8984 77.8267 19.2984 76.744 19.6718 75.752C20.0451 74.7493 20.4078 73.8 20.7598 72.904C21.1224 72.008 21.4798 71.1547 21.8318 70.344C22.1838 69.5227 22.5518 68.712 22.9358 67.912H24.3598C24.7438 68.712 25.1118 69.5227 25.4638 70.344C25.8158 71.1547 26.1678 72.008 26.5198 72.904C26.8824 73.8 27.2504 74.7493 27.6238 75.752C27.9971 76.744 28.3971 77.8267 28.8238 79H27.1278ZM25.6718 74.888C25.3304 73.96 24.9891 73.064 24.6478 72.2C24.3171 71.3253 23.9704 70.488 23.6078 69.688C23.2344 70.488 22.8771 71.3253 22.5358 72.2C22.2051 73.064 21.8744 73.96 21.5438 74.888H25.6718ZM36.0091 74.856C36.0091 73.8853 35.7691 73.1387 35.2891 72.616C34.8091 72.0933 34.1691 71.832 33.3691 71.832C32.9211 71.832 32.5691 71.848 32.3131 71.88C32.0678 71.912 31.8705 71.9493 31.7211 71.992V77.24C31.9025 77.3893 32.1638 77.5333 32.5051 77.672C32.8465 77.8107 33.2198 77.88 33.6251 77.88C34.0518 77.88 34.4145 77.8053 34.7131 77.656C35.0225 77.496 35.2731 77.2827 35.4651 77.016C35.6571 76.7387 35.7958 76.4187 35.8811 76.056C35.9665 75.6827 36.0091 75.2827 36.0091 74.856ZM37.5611 74.856C37.5611 75.4853 37.4758 76.0667 37.3051 76.6C37.1451 77.1333 36.9051 77.592 36.5851 77.976C36.2651 78.36 35.8705 78.6587 35.4011 78.872C34.9425 79.0853 34.4145 79.192 33.8171 79.192C33.3371 79.192 32.9105 79.128 32.5371 79C32.1745 78.872 31.9025 78.7493 31.7211 78.632V81.96H30.2331V70.936C30.5851 70.8507 31.0225 70.76 31.5451 70.664C32.0785 70.5573 32.6918 70.504 33.3851 70.504C34.0251 70.504 34.6011 70.6053 35.1131 70.808C35.6251 71.0107 36.0625 71.2987 36.4251 71.672C36.7878 72.0453 37.0651 72.504 37.2571 73.048C37.4598 73.5813 37.5611 74.184 37.5611 74.856ZM45.431 74.856C45.431 73.8853 45.191 73.1387 44.711 72.616C44.231 72.0933 43.591 71.832 42.791 71.832C42.343 71.832 41.991 71.848 41.735 71.88C41.4897 71.912 41.2923 71.9493 41.143 71.992V77.24C41.3243 77.3893 41.5857 77.5333 41.927 77.672C42.2683 77.8107 42.6417 77.88 43.047 77.88C43.4737 77.88 43.8363 77.8053 44.135 77.656C44.4443 77.496 44.695 77.2827 44.887 77.016C45.079 76.7387 45.2177 76.4187 45.303 76.056C45.3883 75.6827 45.431 75.2827 45.431 74.856ZM46.983 74.856C46.983 75.4853 46.8977 76.0667 46.727 76.6C46.567 77.1333 46.327 77.592 46.007 77.976C45.687 78.36 45.2923 78.6587 44.823 78.872C44.3643 79.0853 43.8363 79.192 43.239 79.192C42.759 79.192 42.3323 79.128 41.959 79C41.5963 78.872 41.3243 78.7493 41.143 78.632V81.96H39.655V70.936C40.007 70.8507 40.4443 70.76 40.967 70.664C41.5003 70.5573 42.1137 70.504 42.807 70.504C43.447 70.504 44.023 70.6053 44.535 70.808C45.047 71.0107 45.4843 71.2987 45.847 71.672C46.2097 72.0453 46.487 72.504 46.679 73.048C46.8817 73.5813 46.983 74.184 46.983 74.856ZM52.876 67.912H54.428V79H52.876V67.912ZM60.6929 79.192C60.0209 79.192 59.4289 79.0853 58.9169 78.872C58.4155 78.6587 57.9889 78.36 57.6369 77.976C57.2955 77.592 57.0395 77.1387 56.8689 76.616C56.6982 76.0827 56.6129 75.496 56.6129 74.856C56.6129 74.216 56.7035 73.6293 56.8849 73.096C57.0769 72.5627 57.3435 72.104 57.6849 71.72C58.0262 71.3253 58.4422 71.0213 58.9329 70.808C59.4342 70.584 59.9889 70.472 60.5969 70.472C60.9702 70.472 61.3435 70.504 61.7169 70.568C62.0902 70.632 62.4475 70.7333 62.7889 70.872L62.4529 72.136C62.2289 72.0293 61.9675 71.944 61.6689 71.88C61.3809 71.816 61.0715 71.784 60.7409 71.784C59.9089 71.784 59.2689 72.0453 58.8209 72.568C58.3835 73.0907 58.1649 73.8533 58.1649 74.856C58.1649 75.304 58.2129 75.7147 58.3089 76.088C58.4155 76.4613 58.5755 76.7813 58.7889 77.048C59.0129 77.3147 59.2955 77.5227 59.6369 77.672C59.9782 77.8107 60.3942 77.88 60.8849 77.88C61.2795 77.88 61.6369 77.8427 61.9569 77.768C62.2769 77.6933 62.5275 77.6133 62.7089 77.528L62.9169 78.776C62.8315 78.8293 62.7089 78.8827 62.5489 78.936C62.3889 78.9787 62.2075 79.016 62.0049 79.048C61.8022 79.0907 61.5835 79.1227 61.3489 79.144C61.1249 79.176 60.9062 79.192 60.6929 79.192ZM71.6553 74.84C71.6553 75.5013 71.5593 76.0987 71.3673 76.632C71.1753 77.1653 70.9033 77.624 70.5513 78.008C70.2099 78.392 69.7993 78.6907 69.3193 78.904C68.8393 79.1067 68.3166 79.208 67.7513 79.208C67.1859 79.208 66.6633 79.1067 66.1833 78.904C65.7033 78.6907 65.2873 78.392 64.9353 78.008C64.5939 77.624 64.3273 77.1653 64.1353 76.632C63.9433 76.0987 63.8473 75.5013 63.8473 74.84C63.8473 74.1893 63.9433 73.5973 64.1353 73.064C64.3273 72.52 64.5939 72.056 64.9353 71.672C65.2873 71.288 65.7033 70.9947 66.1833 70.792C66.6633 70.5787 67.1859 70.472 67.7513 70.472C68.3166 70.472 68.8393 70.5787 69.3193 70.792C69.7993 70.9947 70.2099 71.288 70.5513 71.672C70.9033 72.056 71.1753 72.52 71.3673 73.064C71.5593 73.5973 71.6553 74.1893 71.6553 74.84ZM70.1033 74.84C70.1033 73.9013 69.8899 73.16 69.4633 72.616C69.0473 72.0613 68.4766 71.784 67.7513 71.784C67.0259 71.784 66.4499 72.0613 66.0233 72.616C65.6073 73.16 65.3993 73.9013 65.3993 74.84C65.3993 75.7787 65.6073 76.5253 66.0233 77.08C66.4499 77.624 67.0259 77.896 67.7513 77.896C68.4766 77.896 69.0473 77.624 69.4633 77.08C69.8899 76.5253 70.1033 75.7787 70.1033 74.84ZM73.7488 70.92C74.0901 70.8347 74.5434 70.744 75.1088 70.648C75.6741 70.552 76.3248 70.504 77.0608 70.504C77.7221 70.504 78.2714 70.6 78.7088 70.792C79.1461 70.9733 79.4928 71.2347 79.7488 71.576C80.0154 71.9067 80.2021 72.3067 80.3088 72.776C80.4154 73.2453 80.4688 73.7627 80.4688 74.328V79H78.9808V74.648C78.9808 74.136 78.9434 73.6987 78.8688 73.336C78.8048 72.9733 78.6928 72.68 78.5328 72.456C78.3728 72.232 78.1594 72.072 77.8928 71.976C77.6261 71.8693 77.2954 71.816 76.9008 71.816C76.7408 71.816 76.5754 71.8213 76.4048 71.832C76.2341 71.8427 76.0688 71.8587 75.9088 71.88C75.7594 71.8907 75.6208 71.9067 75.4928 71.928C75.3754 71.9493 75.2901 71.9653 75.2368 71.976V79H73.7488V70.92Z" fill="#2C2C2C"/>
<rect x="158" y="8" width="48" height="48" rx="8" fill="white"/>
<path d="M171.818 32C171.818 33.5955 170.516 34.8889 168.909 34.8889C167.302 34.8889 166 33.5955 166 32C166 30.4045 167.302 29.1111 168.909 29.1111C170.516 29.1111 171.818 30.4045 171.818 32Z" fill="#2C2C2C"/>
<path d="M171.818 21.8889C171.818 23.4844 170.516 24.7778 168.909 24.7778C167.302 24.7778 166 23.4844 166 21.8889C166 20.2934 167.302 19 168.909 19C170.516 19 171.818 20.2934 171.818 21.8889Z" fill="#2C2C2C"/>
<path d="M171.818 42.1111C171.818 43.7066 170.516 45 168.909 45C167.302 45 166 43.7066 166 42.1111C166 40.5156 167.302 39.2222 168.909 39.2222C170.516 39.2222 171.818 40.5156 171.818 42.1111Z" fill="#2C2C2C"/>
<path d="M176.182 32C176.182 31.2023 176.833 30.5556 177.636 30.5556H196.545C197.349 30.5556 198 31.2023 198 32C198 32.7977 197.349 33.4444 196.545 33.4444H177.636C176.833 33.4444 176.182 32.7977 176.182 32Z" fill="#2C2C2C"/>
<path d="M176.182 21.8889C176.182 21.0911 176.833 20.4444 177.636 20.4444H196.545C197.349 20.4444 198 21.0911 198 21.8889C198 22.6866 197.349 23.3333 196.545 23.3333H177.636C176.833 23.3333 176.182 22.6866 176.182 21.8889Z" fill="#2C2C2C"/>
<path d="M176.182 42.1111C176.182 41.3134 176.833 40.6667 177.636 40.6667H196.545C197.349 40.6667 198 41.3134 198 42.1111C198 42.9089 197.349 43.5556 196.545 43.5556H177.636C176.833 43.5556 176.182 42.9089 176.182 42.1111Z" fill="#2C2C2C"/>
<path d="M148.402 79.24C147.623 79.24 146.914 79.112 146.274 78.856C145.634 78.6 145.084 78.2267 144.626 77.736C144.167 77.2453 143.81 76.6427 143.554 75.928C143.308 75.2027 143.186 74.376 143.186 73.448C143.186 72.52 143.324 71.6987 143.602 70.984C143.89 70.2587 144.274 69.6507 144.754 69.16C145.234 68.6693 145.794 68.296 146.434 68.04C147.074 67.784 147.756 67.656 148.482 67.656C148.94 67.656 149.351 67.688 149.714 67.752C150.087 67.816 150.407 67.8907 150.674 67.976C150.951 68.0613 151.175 68.1467 151.346 68.232C151.516 68.3173 151.634 68.3813 151.698 68.424L151.25 69.704C151.154 69.64 151.015 69.5707 150.834 69.496C150.652 69.4213 150.444 69.3467 150.21 69.272C149.986 69.1973 149.735 69.1387 149.458 69.096C149.191 69.0427 148.919 69.016 148.642 69.016C148.055 69.016 147.527 69.1173 147.058 69.32C146.588 69.5227 146.188 69.816 145.858 70.2C145.527 70.584 145.271 71.0533 145.09 71.608C144.919 72.152 144.834 72.7653 144.834 73.448C144.834 74.1093 144.908 74.712 145.058 75.256C145.218 75.8 145.452 76.2693 145.762 76.664C146.071 77.048 146.455 77.3467 146.914 77.56C147.383 77.7733 147.927 77.88 148.546 77.88C149.26 77.88 149.852 77.8053 150.322 77.656C150.791 77.5067 151.143 77.3733 151.378 77.256L151.778 78.536C151.703 78.5893 151.57 78.6587 151.378 78.744C151.186 78.8187 150.946 78.8933 150.658 78.968C150.37 79.0427 150.034 79.1067 149.65 79.16C149.266 79.2133 148.85 79.24 148.402 79.24ZM156.276 77.928C156.628 77.928 156.937 77.9227 157.204 77.912C157.481 77.8907 157.71 77.8587 157.892 77.816V75.336C157.785 75.2827 157.609 75.24 157.364 75.208C157.129 75.1653 156.841 75.144 156.5 75.144C156.276 75.144 156.036 75.16 155.78 75.192C155.534 75.224 155.305 75.2933 155.092 75.4C154.889 75.496 154.718 75.6347 154.58 75.816C154.441 75.9867 154.372 76.216 154.372 76.504C154.372 77.0373 154.542 77.4107 154.884 77.624C155.225 77.8267 155.689 77.928 156.276 77.928ZM156.148 70.472C156.745 70.472 157.246 70.552 157.652 70.712C158.068 70.8613 158.398 71.08 158.644 71.368C158.9 71.6453 159.081 71.9813 159.188 72.376C159.294 72.76 159.348 73.1867 159.348 73.656V78.856C159.22 78.8773 159.038 78.9093 158.804 78.952C158.58 78.984 158.324 79.016 158.036 79.048C157.748 79.08 157.433 79.1067 157.092 79.128C156.761 79.16 156.43 79.176 156.1 79.176C155.63 79.176 155.198 79.128 154.804 79.032C154.409 78.936 154.068 78.7867 153.78 78.584C153.492 78.3707 153.268 78.0933 153.108 77.752C152.948 77.4107 152.868 77 152.868 76.52C152.868 76.0613 152.958 75.6667 153.14 75.336C153.332 75.0053 153.588 74.7387 153.908 74.536C154.228 74.3333 154.601 74.184 155.028 74.088C155.454 73.992 155.902 73.944 156.372 73.944C156.521 73.944 156.676 73.9547 156.836 73.976C156.996 73.9867 157.145 74.008 157.284 74.04C157.433 74.0613 157.561 74.0827 157.668 74.104C157.774 74.1253 157.849 74.1413 157.892 74.152V73.736C157.892 73.4907 157.865 73.2507 157.812 73.016C157.758 72.7707 157.662 72.5573 157.524 72.376C157.385 72.184 157.193 72.0347 156.948 71.928C156.713 71.8107 156.404 71.752 156.02 71.752C155.529 71.752 155.097 71.7893 154.724 71.864C154.361 71.928 154.089 71.9973 153.908 72.072L153.732 70.84C153.924 70.7547 154.244 70.6747 154.692 70.6C155.14 70.5147 155.625 70.472 156.148 70.472ZM163.211 70.68H166.363V71.928H163.211V75.768C163.211 76.184 163.243 76.5307 163.307 76.808C163.371 77.0747 163.467 77.288 163.595 77.448C163.723 77.5973 163.883 77.704 164.075 77.768C164.267 77.832 164.491 77.864 164.747 77.864C165.195 77.864 165.552 77.816 165.819 77.72C166.096 77.6133 166.288 77.5387 166.395 77.496L166.683 78.728C166.534 78.8027 166.272 78.8933 165.899 79C165.526 79.1173 165.099 79.176 164.619 79.176C164.054 79.176 163.584 79.1067 163.211 78.968C162.848 78.8187 162.555 78.6 162.331 78.312C162.107 78.024 161.947 77.672 161.851 77.256C161.766 76.8293 161.723 76.3387 161.723 75.784V68.36L163.211 68.104V70.68ZM167.636 74.856C167.636 74.12 167.743 73.48 167.956 72.936C168.17 72.3813 168.452 71.9227 168.804 71.56C169.156 71.1973 169.562 70.9253 170.02 70.744C170.479 70.5627 170.948 70.472 171.428 70.472C172.548 70.472 173.407 70.824 174.004 71.528C174.602 72.2213 174.9 73.2827 174.9 74.712C174.9 74.776 174.9 74.8613 174.9 74.968C174.9 75.064 174.895 75.1547 174.884 75.24H169.188C169.252 76.104 169.503 76.76 169.94 77.208C170.378 77.656 171.06 77.88 171.988 77.88C172.511 77.88 172.948 77.8373 173.3 77.752C173.663 77.656 173.935 77.5653 174.116 77.48L174.324 78.728C174.143 78.824 173.823 78.9253 173.364 79.032C172.916 79.1387 172.404 79.192 171.828 79.192C171.103 79.192 170.474 79.0853 169.94 78.872C169.418 78.648 168.986 78.344 168.644 77.96C168.303 77.576 168.047 77.1227 167.876 76.6C167.716 76.0667 167.636 75.4853 167.636 74.856ZM173.348 74.04C173.359 73.368 173.188 72.8187 172.836 72.392C172.495 71.9547 172.02 71.736 171.412 71.736C171.071 71.736 170.767 71.8053 170.5 71.944C170.244 72.072 170.026 72.2427 169.844 72.456C169.663 72.6693 169.519 72.9147 169.412 73.192C169.316 73.4693 169.252 73.752 169.22 74.04H173.348ZM182.254 78.168C182.126 78.2533 181.875 78.3653 181.502 78.504C181.139 78.632 180.712 78.696 180.222 78.696C179.72 78.696 179.246 78.616 178.798 78.456C178.36 78.296 177.976 78.0507 177.646 77.72C177.315 77.3787 177.054 76.9573 176.862 76.456C176.67 75.9547 176.574 75.3573 176.574 74.664C176.574 74.056 176.664 73.5013 176.846 73C177.027 72.488 177.288 72.0507 177.63 71.688C177.982 71.3147 178.408 71.0267 178.91 70.824C179.411 70.6107 179.976 70.504 180.606 70.504C181.299 70.504 181.902 70.5573 182.414 70.664C182.936 70.76 183.374 70.8507 183.726 70.936V78.36C183.726 79.64 183.395 80.568 182.734 81.144C182.072 81.72 181.07 82.008 179.726 82.008C179.203 82.008 178.707 81.9653 178.238 81.88C177.779 81.7947 177.379 81.6933 177.038 81.576L177.31 80.28C177.608 80.3973 177.971 80.4987 178.398 80.584C178.835 80.68 179.288 80.728 179.758 80.728C180.643 80.728 181.278 80.552 181.662 80.2C182.056 79.848 182.254 79.288 182.254 78.52V78.168ZM182.238 71.992C182.088 71.9493 181.886 71.912 181.63 71.88C181.384 71.8373 181.048 71.816 180.622 71.816C179.822 71.816 179.203 72.0773 178.766 72.6C178.339 73.1227 178.126 73.816 178.126 74.68C178.126 75.16 178.184 75.5707 178.302 75.912C178.43 76.2533 178.595 76.536 178.798 76.76C179.011 76.984 179.251 77.1493 179.518 77.256C179.795 77.3627 180.078 77.416 180.366 77.416C180.76 77.416 181.123 77.3627 181.454 77.256C181.784 77.1387 182.046 77.0053 182.238 76.856V71.992ZM193.632 74.84C193.632 75.5013 193.536 76.0987 193.344 76.632C193.152 77.1653 192.88 77.624 192.528 78.008C192.186 78.392 191.776 78.6907 191.296 78.904C190.816 79.1067 190.293 79.208 189.728 79.208C189.162 79.208 188.64 79.1067 188.16 78.904C187.68 78.6907 187.264 78.392 186.912 78.008C186.57 77.624 186.304 77.1653 186.112 76.632C185.92 76.0987 185.824 75.5013 185.824 74.84C185.824 74.1893 185.92 73.5973 186.112 73.064C186.304 72.52 186.57 72.056 186.912 71.672C187.264 71.288 187.68 70.9947 188.16 70.792C188.64 70.5787 189.162 70.472 189.728 70.472C190.293 70.472 190.816 70.5787 191.296 70.792C191.776 70.9947 192.186 71.288 192.528 71.672C192.88 72.056 193.152 72.52 193.344 73.064C193.536 73.5973 193.632 74.1893 193.632 74.84ZM192.08 74.84C192.08 73.9013 191.866 73.16 191.44 72.616C191.024 72.0613 190.453 71.784 189.728 71.784C189.002 71.784 188.426 72.0613 188 72.616C187.584 73.16 187.376 73.9013 187.376 74.84C187.376 75.7787 187.584 76.5253 188 77.08C188.426 77.624 189.002 77.896 189.728 77.896C190.453 77.896 191.024 77.624 191.44 77.08C191.866 76.5253 192.08 75.7787 192.08 74.84ZM198.797 70.504C198.925 70.504 199.069 70.5147 199.229 70.536C199.4 70.5467 199.565 70.568 199.725 70.6C199.885 70.6213 200.029 70.648 200.157 70.68C200.296 70.7013 200.397 70.7227 200.461 70.744L200.205 72.04C200.088 71.9973 199.891 71.9493 199.613 71.896C199.347 71.832 199 71.8 198.573 71.8C198.296 71.8 198.019 71.832 197.741 71.896C197.475 71.9493 197.299 71.9867 197.213 72.008V79H195.725V71.032C196.077 70.904 196.515 70.7867 197.037 70.68C197.56 70.5627 198.147 70.504 198.797 70.504ZM203.385 79H201.897V70.68H203.385V79ZM202.633 69.176C202.367 69.176 202.137 69.0907 201.945 68.92C201.764 68.7387 201.673 68.4987 201.673 68.2C201.673 67.9013 201.764 67.6667 201.945 67.496C202.137 67.3147 202.367 67.224 202.633 67.224C202.9 67.224 203.124 67.3147 203.305 67.496C203.497 67.6667 203.593 67.9013 203.593 68.2C203.593 68.4987 203.497 68.7387 203.305 68.92C203.124 69.0907 202.9 69.176 202.633 69.176ZM205.48 74.856C205.48 74.12 205.587 73.48 205.8 72.936C206.013 72.3813 206.296 71.9227 206.648 71.56C207 71.1973 207.405 70.9253 207.864 70.744C208.323 70.5627 208.792 70.472 209.272 70.472C210.392 70.472 211.251 70.824 211.848 71.528C212.445 72.2213 212.744 73.2827 212.744 74.712C212.744 74.776 212.744 74.8613 212.744 74.968C212.744 75.064 212.739 75.1547 212.728 75.24H207.032C207.096 76.104 207.347 76.76 207.784 77.208C208.221 77.656 208.904 77.88 209.832 77.88C210.355 77.88 210.792 77.8373 211.144 77.752C211.507 77.656 211.779 77.5653 211.96 77.48L212.168 78.728C211.987 78.824 211.667 78.9253 211.208 79.032C210.76 79.1387 210.248 79.192 209.672 79.192C208.947 79.192 208.317 79.0853 207.784 78.872C207.261 78.648 206.829 78.344 206.488 77.96C206.147 77.576 205.891 77.1227 205.72 76.6C205.56 76.0667 205.48 75.4853 205.48 74.856ZM211.192 74.04C211.203 73.368 211.032 72.8187 210.68 72.392C210.339 71.9547 209.864 71.736 209.256 71.736C208.915 71.736 208.611 71.8053 208.344 71.944C208.088 72.072 207.869 72.2427 207.688 72.456C207.507 72.6693 207.363 72.9147 207.256 73.192C207.16 73.4693 207.096 73.752 207.064 74.04H211.192ZM216.818 77.928C217.426 77.928 217.874 77.848 218.162 77.688C218.46 77.528 218.61 77.272 218.61 76.92C218.61 76.5573 218.466 76.2693 218.178 76.056C217.89 75.8427 217.415 75.6027 216.754 75.336C216.434 75.208 216.124 75.08 215.826 74.952C215.538 74.8133 215.287 74.6533 215.074 74.472C214.86 74.2907 214.69 74.072 214.562 73.816C214.434 73.56 214.37 73.2453 214.37 72.872C214.37 72.136 214.642 71.5547 215.186 71.128C215.73 70.6907 216.471 70.472 217.41 70.472C217.644 70.472 217.879 70.488 218.114 70.52C218.348 70.5413 218.567 70.5733 218.77 70.616C218.972 70.648 219.148 70.6853 219.298 70.728C219.458 70.7707 219.58 70.808 219.666 70.84L219.394 72.12C219.234 72.0347 218.983 71.9493 218.642 71.864C218.3 71.768 217.89 71.72 217.41 71.72C216.994 71.72 216.631 71.8053 216.322 71.976C216.012 72.136 215.858 72.392 215.858 72.744C215.858 72.9253 215.89 73.0853 215.954 73.224C216.028 73.3627 216.135 73.4907 216.274 73.608C216.423 73.7147 216.604 73.816 216.818 73.912C217.031 74.008 217.287 74.1093 217.586 74.216C217.98 74.3653 218.332 74.5147 218.642 74.664C218.951 74.8027 219.212 74.968 219.426 75.16C219.65 75.352 219.82 75.5867 219.938 75.864C220.055 76.1307 220.114 76.4613 220.114 76.856C220.114 77.624 219.826 78.2053 219.25 78.6C218.684 78.9947 217.874 79.192 216.818 79.192C216.082 79.192 215.506 79.128 215.09 79C214.674 78.8827 214.391 78.792 214.242 78.728L214.514 77.448C214.684 77.512 214.956 77.608 215.33 77.736C215.703 77.864 216.199 77.928 216.818 77.928Z" fill="#2C2C2C"/>
<rect x="290" y="8" width="48" height="48" rx="8" fill="white"/>
<path fill-rule="evenodd" clip-rule="evenodd" d="M297 20.5435C297 19.691 297.682 19 298.524 19H304.111C304.81 19 305.42 19.482 305.589 20.1691L305.809 21.0579H327.476C327.945 21.0579 328.388 21.2769 328.677 21.6515C328.966 22.0262 329.068 22.5147 328.954 22.9758L325.907 36.4316C325.737 37.1187 325.128 37.6007 324.429 37.6007H307.413L306.651 39.2827H325.952C326.794 39.2827 327.476 39.9737 327.476 40.8262C327.476 41.6786 326.794 42.3696 325.952 42.3696H325.921C325.93 42.4443 325.937 42.5193 325.942 42.5947C325.995 43.3498 325.841 44.1049 325.497 44.7771C325.389 44.9883 325.264 45.1888 325.123 45.3766C324.815 45.7863 324.432 46.1356 323.994 46.4045C323.355 46.7967 322.621 47.0027 321.874 47C321.127 46.9972 320.395 46.7858 319.758 46.3889C319.322 46.1167 318.942 45.7646 318.637 45.3526C318.498 45.1638 318.374 44.9624 318.267 44.7504C317.928 44.0757 317.78 43.3194 317.838 42.5648C317.843 42.4995 317.849 42.4344 317.857 42.3696H312.714C312.723 42.4443 312.731 42.5193 312.736 42.5947C312.789 43.3498 312.634 44.1049 312.291 44.7771C312.183 44.9883 312.057 45.1888 311.916 45.3766C311.608 45.7863 311.226 46.1356 310.788 46.4045C310.149 46.7967 309.415 47.0027 308.668 47C307.92 46.9972 307.188 46.7858 306.552 46.3889C306.116 46.1167 305.736 45.7646 305.431 45.3526C305.291 45.1638 305.167 44.9624 305.061 44.7504C304.722 44.0757 304.573 43.3194 304.631 42.5648C304.636 42.4995 304.643 42.4344 304.651 42.3696H303.603C303.026 42.3696 302.498 42.0393 302.24 41.5164C301.982 40.9935 302.038 40.3678 302.384 39.9001L305.041 35.6595L303.126 22.916L302.921 22.0869H298.524C297.682 22.0869 297 21.3959 297 20.5435ZM307.587 42.3696C307.527 42.5013 307.49 42.6433 307.479 42.7892C307.474 42.8496 307.474 42.9101 307.478 42.9701C307.49 43.1328 307.533 43.2921 307.606 43.4386C307.634 43.4926 307.665 43.5443 307.699 43.5933C307.792 43.7261 307.911 43.8393 308.05 43.9254C308.239 44.0433 308.456 44.1062 308.678 44.107C308.9 44.1078 309.118 44.0466 309.308 43.9301C309.447 43.8449 309.567 43.7327 309.661 43.6005C309.696 43.5518 309.727 43.5003 309.755 43.4465C309.829 43.3006 309.874 43.1416 309.886 42.979C309.891 42.919 309.891 42.8586 309.887 42.7981C309.876 42.6491 309.839 42.504 309.778 42.3696H307.587ZM320.794 42.3696H322.984C323.046 42.504 323.083 42.6491 323.093 42.7981C323.097 42.8586 323.097 42.919 323.093 42.979C323.08 43.1416 323.036 43.3006 322.961 43.4465C322.933 43.5003 322.902 43.5518 322.867 43.6005C322.773 43.7327 322.653 43.8449 322.514 43.9301C322.324 44.0466 322.107 44.1078 321.884 44.107C321.662 44.1062 321.445 44.0433 321.256 43.9254C321.118 43.8393 320.999 43.7261 320.905 43.5933C320.871 43.5443 320.84 43.4926 320.813 43.4386C320.739 43.2921 320.696 43.1328 320.685 42.9701C320.68 42.9101 320.681 42.8496 320.685 42.7892C320.696 42.6433 320.733 42.5013 320.794 42.3696ZM306.418 24.1449L307.942 34.5138H323.239L325.525 24.1449H306.418Z" fill="#2C2C2C"/>
<path d="M303.423 79.096C303.199 79.096 302.953 79.0907 302.687 79.08C302.431 79.0693 302.169 79.0533 301.903 79.032C301.647 79.0107 301.391 78.984 301.135 78.952C300.879 78.92 300.644 78.8773 300.431 78.824V68.072C300.644 68.0187 300.879 67.976 301.135 67.944C301.391 67.912 301.647 67.8853 301.903 67.864C302.169 67.8427 302.431 67.8267 302.687 67.816C302.943 67.8053 303.183 67.8 303.407 67.8C304.047 67.8 304.644 67.848 305.199 67.944C305.764 68.04 306.249 68.2053 306.655 68.44C307.071 68.664 307.396 68.9627 307.631 69.336C307.865 69.7093 307.983 70.168 307.983 70.712C307.983 71.32 307.839 71.8213 307.551 72.216C307.263 72.6 306.879 72.888 306.399 73.08C307.049 73.272 307.567 73.576 307.951 73.992C308.335 74.408 308.527 74.9947 308.527 75.752C308.527 76.8613 308.116 77.6987 307.295 78.264C306.484 78.8187 305.193 79.096 303.423 79.096ZM301.967 73.832V77.736C302.084 77.7467 302.223 77.7573 302.383 77.768C302.521 77.7787 302.681 77.7893 302.863 77.8C303.055 77.8 303.273 77.8 303.519 77.8C303.977 77.8 304.409 77.7733 304.815 77.72C305.231 77.656 305.593 77.5493 305.903 77.4C306.212 77.2507 306.457 77.0427 306.639 76.776C306.831 76.5093 306.927 76.1733 306.927 75.768C306.927 75.4053 306.857 75.1013 306.719 74.856C306.58 74.6 306.377 74.3973 306.111 74.248C305.855 74.0987 305.545 73.992 305.183 73.928C304.82 73.864 304.415 73.832 303.967 73.832H301.967ZM301.967 72.584H303.599C303.983 72.584 304.345 72.5573 304.687 72.504C305.028 72.4507 305.321 72.3547 305.567 72.216C305.823 72.0773 306.02 71.896 306.159 71.672C306.308 71.448 306.383 71.1653 306.383 70.824C306.383 70.504 306.308 70.2373 306.159 70.024C306.009 69.8 305.801 69.624 305.535 69.496C305.279 69.3573 304.975 69.256 304.623 69.192C304.271 69.128 303.897 69.096 303.503 69.096C303.108 69.096 302.799 69.1013 302.575 69.112C302.351 69.1227 302.148 69.1387 301.967 69.16V72.584ZM313.432 77.928C313.784 77.928 314.093 77.9227 314.36 77.912C314.637 77.8907 314.867 77.8587 315.048 77.816V75.336C314.941 75.2827 314.765 75.24 314.52 75.208C314.285 75.1653 313.997 75.144 313.656 75.144C313.432 75.144 313.192 75.16 312.936 75.192C312.691 75.224 312.461 75.2933 312.248 75.4C312.045 75.496 311.875 75.6347 311.736 75.816C311.597 75.9867 311.528 76.216 311.528 76.504C311.528 77.0373 311.699 77.4107 312.04 77.624C312.381 77.8267 312.845 77.928 313.432 77.928ZM313.304 70.472C313.901 70.472 314.403 70.552 314.808 70.712C315.224 70.8613 315.555 71.08 315.8 71.368C316.056 71.6453 316.237 71.9813 316.344 72.376C316.451 72.76 316.504 73.1867 316.504 73.656V78.856C316.376 78.8773 316.195 78.9093 315.96 78.952C315.736 78.984 315.48 79.016 315.192 79.048C314.904 79.08 314.589 79.1067 314.248 79.128C313.917 79.16 313.587 79.176 313.256 79.176C312.787 79.176 312.355 79.128 311.96 79.032C311.565 78.936 311.224 78.7867 310.936 78.584C310.648 78.3707 310.424 78.0933 310.264 77.752C310.104 77.4107 310.024 77 310.024 76.52C310.024 76.0613 310.115 75.6667 310.296 75.336C310.488 75.0053 310.744 74.7387 311.064 74.536C311.384 74.3333 311.757 74.184 312.184 74.088C312.611 73.992 313.059 73.944 313.528 73.944C313.677 73.944 313.832 73.9547 313.992 73.976C314.152 73.9867 314.301 74.008 314.44 74.04C314.589 74.0613 314.717 74.0827 314.824 74.104C314.931 74.1253 315.005 74.1413 315.048 74.152V73.736C315.048 73.4907 315.021 73.2507 314.968 73.016C314.915 72.7707 314.819 72.5573 314.68 72.376C314.541 72.184 314.349 72.0347 314.104 71.928C313.869 71.8107 313.56 71.752 313.176 71.752C312.685 71.752 312.253 71.7893 311.88 71.864C311.517 71.928 311.245 71.9973 311.064 72.072L310.888 70.84C311.08 70.7547 311.4 70.6747 311.848 70.6C312.296 70.5147 312.781 70.472 313.304 70.472ZM324.191 78.168C324.063 78.2533 323.813 78.3653 323.439 78.504C323.077 78.632 322.65 78.696 322.159 78.696C321.658 78.696 321.183 78.616 320.735 78.456C320.298 78.296 319.914 78.0507 319.583 77.72C319.253 77.3787 318.991 76.9573 318.799 76.456C318.607 75.9547 318.511 75.3573 318.511 74.664C318.511 74.056 318.602 73.5013 318.783 73C318.965 72.488 319.226 72.0507 319.567 71.688C319.919 71.3147 320.346 71.0267 320.847 70.824C321.349 70.6107 321.914 70.504 322.543 70.504C323.237 70.504 323.839 70.5573 324.351 70.664C324.874 70.76 325.311 70.8507 325.663 70.936V78.36C325.663 79.64 325.333 80.568 324.671 81.144C324.01 81.72 323.007 82.008 321.663 82.008C321.141 82.008 320.645 81.9653 320.175 81.88C319.717 81.7947 319.317 81.6933 318.975 81.576L319.247 80.28C319.546 80.3973 319.909 80.4987 320.335 80.584C320.773 80.68 321.226 80.728 321.695 80.728C322.581 80.728 323.215 80.552 323.599 80.2C323.994 79.848 324.191 79.288 324.191 78.52V78.168ZM324.175 71.992C324.026 71.9493 323.823 71.912 323.567 71.88C323.322 71.8373 322.986 71.816 322.559 71.816C321.759 71.816 321.141 72.0773 320.703 72.6C320.277 73.1227 320.063 73.816 320.063 74.68C320.063 75.16 320.122 75.5707 320.239 75.912C320.367 76.2533 320.533 76.536 320.735 76.76C320.949 76.984 321.189 77.1493 321.455 77.256C321.733 77.3627 322.015 77.416 322.303 77.416C322.698 77.416 323.061 77.3627 323.391 77.256C323.722 77.1387 323.983 77.0053 324.175 76.856V71.992Z" fill="#2C2C2C"/>
<rect x="26" y="130" width="48" height="48" rx="8" fill="white"/>
<path fill-rule="evenodd" clip-rule="evenodd" d="M42.1705 143.02C39.9341 143.214 37.5944 144.893 37.1491 148.953C36.709 152.966 39.1386 156.965 42.3616 160.105C43.9442 161.646 45.6448 162.906 47.1122 163.77C47.8462 164.203 48.5008 164.524 49.0348 164.732C49.533 164.927 49.8328 164.986 49.9588 164.998C49.9788 164.993 50.0105 164.985 50.055 164.972C50.1862 164.932 50.3724 164.864 50.6136 164.758C51.0948 164.546 51.7192 164.219 52.4401 163.781C53.8803 162.906 55.6254 161.635 57.2781 160.085C60.6618 156.911 63.2905 152.922 62.8552 148.953C62.4194 144.98 59.898 143.224 57.4538 143.021C54.9165 142.809 52.3092 144.223 51.4958 147.107C51.321 147.727 50.7585 148.17 50.0967 148.209C49.435 148.248 48.8209 147.875 48.5695 147.281C47.2635 144.194 44.5243 142.816 42.1705 143.02ZM49.8579 143.521C47.8151 141.032 44.8165 139.779 41.8943 140.032C37.9607 140.373 34.6461 143.381 34.0697 148.636C33.4818 153.997 36.7065 158.85 40.1659 162.22C41.9244 163.933 43.822 165.343 45.503 166.333C46.3432 166.828 47.1504 167.231 47.8774 167.515C48.5689 167.785 49.3189 168 50.0022 168C50.36 168 50.706 167.917 50.9729 167.837C51.2628 167.75 51.5736 167.63 51.8926 167.49C52.5319 167.209 53.2809 166.812 54.0859 166.322C55.6978 165.343 57.6152 163.944 59.4322 162.24C62.9879 158.905 66.5274 154.041 65.9346 148.636C65.3486 143.294 61.7017 140.363 57.719 140.032C54.7664 139.786 51.7051 140.996 49.8579 143.521Z" fill="#2C2C2C"/>
<path d="M28.8463 193.48C28.3983 194.909 27.9449 196.232 27.4863 197.448C27.0276 198.664 26.5689 199.848 26.1102 201H24.5583C23.9929 199.368 23.4916 197.645 23.0543 195.832C22.6276 194.019 22.2276 192.045 21.8543 189.912H23.4863C23.6356 190.744 23.7903 191.576 23.9503 192.408C24.1103 193.24 24.2756 194.051 24.4463 194.84C24.6169 195.619 24.7876 196.365 24.9583 197.08C25.1289 197.795 25.3049 198.456 25.4863 199.064C25.9129 197.944 26.3663 196.717 26.8463 195.384C27.3263 194.04 27.7743 192.653 28.1903 191.224H29.5343C29.9503 192.653 30.4036 194.04 30.8943 195.384C31.3849 196.717 31.8436 197.944 32.2703 199.064C32.4409 198.467 32.6116 197.811 32.7823 197.096C32.9529 196.381 33.1183 195.635 33.2783 194.856C33.4489 194.067 33.6143 193.256 33.7743 192.424C33.9343 191.581 34.0889 190.744 34.2383 189.912H35.8223C35.4383 192.045 35.0276 194.019 34.5903 195.832C34.1636 197.645 33.6729 199.368 33.1183 201H31.5663C31.0969 199.848 30.6383 198.664 30.1903 197.448C29.7423 196.232 29.2943 194.909 28.8463 193.48ZM39.0336 201H37.5456V192.68H39.0336V201ZM38.2816 191.176C38.015 191.176 37.7856 191.091 37.5936 190.92C37.4123 190.739 37.3216 190.499 37.3216 190.2C37.3216 189.901 37.4123 189.667 37.5936 189.496C37.7856 189.315 38.015 189.224 38.2816 189.224C38.5483 189.224 38.7723 189.315 38.9536 189.496C39.1456 189.667 39.2416 189.901 39.2416 190.2C39.2416 190.499 39.1456 190.739 38.9536 190.92C38.7723 191.091 38.5483 191.176 38.2816 191.176ZM43.5285 199.928C44.1365 199.928 44.5845 199.848 44.8725 199.688C45.1712 199.528 45.3205 199.272 45.3205 198.92C45.3205 198.557 45.1765 198.269 44.8885 198.056C44.6005 197.843 44.1258 197.603 43.4645 197.336C43.1445 197.208 42.8352 197.08 42.5365 196.952C42.2485 196.813 41.9978 196.653 41.7845 196.472C41.5712 196.291 41.4005 196.072 41.2725 195.816C41.1445 195.56 41.0805 195.245 41.0805 194.872C41.0805 194.136 41.3525 193.555 41.8965 193.128C42.4405 192.691 43.1818 192.472 44.1205 192.472C44.3552 192.472 44.5898 192.488 44.8245 192.52C45.0592 192.541 45.2778 192.573 45.4805 192.616C45.6832 192.648 45.8592 192.685 46.0085 192.728C46.1685 192.771 46.2912 192.808 46.3765 192.84L46.1045 194.12C45.9445 194.035 45.6938 193.949 45.3525 193.864C45.0112 193.768 44.6005 193.72 44.1205 193.72C43.7045 193.72 43.3418 193.805 43.0325 193.976C42.7232 194.136 42.5685 194.392 42.5685 194.744C42.5685 194.925 42.6005 195.085 42.6645 195.224C42.7392 195.363 42.8458 195.491 42.9845 195.608C43.1338 195.715 43.3152 195.816 43.5285 195.912C43.7418 196.008 43.9978 196.109 44.2965 196.216C44.6912 196.365 45.0432 196.515 45.3525 196.664C45.6618 196.803 45.9232 196.968 46.1365 197.16C46.3605 197.352 46.5312 197.587 46.6485 197.864C46.7658 198.131 46.8245 198.461 46.8245 198.856C46.8245 199.624 46.5365 200.205 45.9605 200.6C45.3952 200.995 44.5845 201.192 43.5285 201.192C42.7925 201.192 42.2165 201.128 41.8005 201C41.3845 200.883 41.1018 200.792 40.9525 200.728L41.2245 199.448C41.3952 199.512 41.6672 199.608 42.0405 199.736C42.4138 199.864 42.9098 199.928 43.5285 199.928ZM48.7331 201V188.84L50.2211 188.584V192.84C50.4985 192.733 50.7918 192.653 51.1011 192.6C51.4211 192.536 51.7358 192.504 52.0451 192.504C52.7065 192.504 53.2558 192.6 53.6931 192.792C54.1305 192.973 54.4771 193.235 54.7331 193.576C54.9998 193.907 55.1865 194.307 55.2931 194.776C55.3998 195.245 55.4531 195.763 55.4531 196.328V201H53.9651V196.648C53.9651 196.136 53.9278 195.699 53.8531 195.336C53.7891 194.973 53.6771 194.68 53.5171 194.456C53.3571 194.232 53.1438 194.072 52.8771 193.976C52.6105 193.869 52.2798 193.816 51.8851 193.816C51.7251 193.816 51.5598 193.827 51.3891 193.848C51.2185 193.869 51.0531 193.896 50.8931 193.928C50.7438 193.949 50.6051 193.976 50.4771 194.008C50.3598 194.04 50.2745 194.067 50.2211 194.088V201H48.7331ZM60.3698 201.16C59.4524 201.139 58.8018 200.941 58.4178 200.568C58.0338 200.195 57.8418 199.613 57.8418 198.824V188.84L59.3298 188.584V198.584C59.3298 198.829 59.3511 199.032 59.3938 199.192C59.4364 199.352 59.5058 199.48 59.6018 199.576C59.6978 199.672 59.8258 199.747 59.9858 199.8C60.1458 199.843 60.3431 199.88 60.5778 199.912L60.3698 201.16ZM63.7368 201H62.2488V192.68H63.7368V201ZM62.9848 191.176C62.7181 191.176 62.4888 191.091 62.2968 190.92C62.1154 190.739 62.0247 190.499 62.0247 190.2C62.0247 189.901 62.1154 189.667 62.2968 189.496C62.4888 189.315 62.7181 189.224 62.9848 189.224C63.2514 189.224 63.4754 189.315 63.6568 189.496C63.8488 189.667 63.9448 189.901 63.9448 190.2C63.9448 190.499 63.8488 190.739 63.6568 190.92C63.4754 191.091 63.2514 191.176 62.9848 191.176ZM68.2316 199.928C68.8396 199.928 69.2876 199.848 69.5756 199.688C69.8743 199.528 70.0236 199.272 70.0236 198.92C70.0236 198.557 69.8796 198.269 69.5916 198.056C69.3036 197.843 68.829 197.603 68.1676 197.336C67.8476 197.208 67.5383 197.08 67.2396 196.952C66.9516 196.813 66.701 196.653 66.4876 196.472C66.2743 196.291 66.1036 196.072 65.9756 195.816C65.8476 195.56 65.7836 195.245 65.7836 194.872C65.7836 194.136 66.0556 193.555 66.5996 193.128C67.1436 192.691 67.885 192.472 68.8236 192.472C69.0583 192.472 69.293 192.488 69.5276 192.52C69.7623 192.541 69.981 192.573 70.1836 192.616C70.3863 192.648 70.5623 192.685 70.7116 192.728C70.8716 192.771 70.9943 192.808 71.0796 192.84L70.8076 194.12C70.6476 194.035 70.397 193.949 70.0556 193.864C69.7143 193.768 69.3036 193.72 68.8236 193.72C68.4076 193.72 68.045 193.805 67.7356 193.976C67.4263 194.136 67.2716 194.392 67.2716 194.744C67.2716 194.925 67.3036 195.085 67.3676 195.224C67.4423 195.363 67.549 195.491 67.6876 195.608C67.837 195.715 68.0183 195.816 68.2316 195.912C68.445 196.008 68.701 196.109 68.9996 196.216C69.3943 196.365 69.7463 196.515 70.0556 196.664C70.365 196.803 70.6263 196.968 70.8396 197.16C71.0636 197.352 71.2343 197.587 71.3516 197.864C71.469 198.131 71.5276 198.461 71.5276 198.856C71.5276 199.624 71.2396 200.205 70.6636 200.6C70.0983 200.995 69.2876 201.192 68.2316 201.192C67.4956 201.192 66.9196 201.128 66.5036 201C66.0876 200.883 65.805 200.792 65.6556 200.728L65.9276 199.448C66.0983 199.512 66.3703 199.608 66.7436 199.736C67.117 199.864 67.613 199.928 68.2316 199.928ZM74.8283 192.68H77.9803V193.928H74.8283V197.768C74.8283 198.184 74.8603 198.531 74.9243 198.808C74.9883 199.075 75.0843 199.288 75.2123 199.448C75.3403 199.597 75.5003 199.704 75.6923 199.768C75.8843 199.832 76.1083 199.864 76.3643 199.864C76.8123 199.864 77.1696 199.816 77.4363 199.72C77.7136 199.613 77.9056 199.539 78.0123 199.496L78.3003 200.728C78.1509 200.803 77.8896 200.893 77.5163 201C77.1429 201.117 76.7163 201.176 76.2363 201.176C75.6709 201.176 75.2016 201.107 74.8283 200.968C74.4656 200.819 74.1723 200.6 73.9483 200.312C73.7243 200.024 73.5643 199.672 73.4683 199.256C73.3829 198.829 73.3403 198.339 73.3403 197.784V190.36L74.8283 190.104V192.68Z" fill="#2C2C2C"/>
<rect x="158" y="130" width="48" height="48" rx="8" fill="white"/>
<path fill-rule="evenodd" clip-rule="evenodd" d="M188.4 149C188.4 152.682 185.535 155.666 182 155.666C178.465 155.666 175.6 152.682 175.6 149C175.6 145.318 178.465 142.333 182 142.333C185.535 142.333 188.4 145.318 188.4 149ZM188.013 156.796C190.2 154.963 191.6 152.152 191.6 149C191.6 143.477 187.302 139 182 139C176.698 139 172.4 143.477 172.4 149C172.4 152.152 173.8 154.963 175.987 156.796C175.798 156.869 175.611 156.946 175.424 157.026C173.34 157.923 171.445 159.239 169.849 160.898C168.253 162.557 166.987 164.526 166.123 166.694C165.784 167.544 166.171 168.519 166.987 168.872C167.803 169.225 168.739 168.822 169.078 167.972C169.781 166.209 170.811 164.607 172.109 163.257C173.408 161.908 174.949 160.837 176.647 160.106C178.344 159.376 180.163 159 182 159C183.837 159 185.656 159.376 187.353 160.106C189.051 160.837 190.592 161.908 191.891 163.257C193.189 164.607 194.219 166.209 194.922 167.972C195.261 168.822 196.197 169.225 197.013 168.872C197.829 168.519 198.216 167.544 197.877 166.694C197.013 164.526 195.747 162.557 194.151 160.898C192.555 159.239 190.66 157.923 188.576 157.026C188.389 156.946 188.202 156.869 188.013 156.796Z" fill="#2C2C2C"/>
<path d="M160.12 201C159.939 200.52 159.768 200.051 159.608 199.592C159.448 199.123 159.283 198.648 159.112 198.168H154.088L153.08 201H151.464C151.891 199.827 152.291 198.744 152.664 197.752C153.037 196.749 153.4 195.8 153.752 194.904C154.115 194.008 154.472 193.155 154.824 192.344C155.176 191.523 155.544 190.712 155.928 189.912H157.352C157.736 190.712 158.104 191.523 158.456 192.344C158.808 193.155 159.16 194.008 159.512 194.904C159.875 195.8 160.243 196.749 160.616 197.752C160.989 198.744 161.389 199.827 161.816 201H160.12ZM158.664 196.888C158.323 195.96 157.981 195.064 157.64 194.2C157.309 193.325 156.963 192.488 156.6 191.688C156.227 192.488 155.869 193.325 155.528 194.2C155.197 195.064 154.867 195.96 154.536 196.888H158.664ZM166.638 201.192C165.966 201.192 165.374 201.085 164.862 200.872C164.361 200.659 163.934 200.36 163.582 199.976C163.241 199.592 162.985 199.139 162.814 198.616C162.644 198.083 162.558 197.496 162.558 196.856C162.558 196.216 162.649 195.629 162.83 195.096C163.022 194.563 163.289 194.104 163.63 193.72C163.972 193.325 164.388 193.021 164.878 192.808C165.38 192.584 165.934 192.472 166.542 192.472C166.916 192.472 167.289 192.504 167.662 192.568C168.036 192.632 168.393 192.733 168.734 192.872L168.398 194.136C168.174 194.029 167.913 193.944 167.614 193.88C167.326 193.816 167.017 193.784 166.686 193.784C165.854 193.784 165.214 194.045 164.766 194.568C164.329 195.091 164.11 195.853 164.11 196.856C164.11 197.304 164.158 197.715 164.254 198.088C164.361 198.461 164.521 198.781 164.734 199.048C164.958 199.315 165.241 199.523 165.582 199.672C165.924 199.811 166.34 199.88 166.83 199.88C167.225 199.88 167.582 199.843 167.902 199.768C168.222 199.693 168.473 199.613 168.654 199.528L168.862 200.776C168.777 200.829 168.654 200.883 168.494 200.936C168.334 200.979 168.153 201.016 167.95 201.048C167.748 201.091 167.529 201.123 167.294 201.144C167.07 201.176 166.852 201.192 166.638 201.192ZM174.076 201.192C173.404 201.192 172.812 201.085 172.3 200.872C171.798 200.659 171.372 200.36 171.02 199.976C170.678 199.592 170.422 199.139 170.252 198.616C170.081 198.083 169.996 197.496 169.996 196.856C169.996 196.216 170.086 195.629 170.268 195.096C170.46 194.563 170.726 194.104 171.068 193.72C171.409 193.325 171.825 193.021 172.316 192.808C172.817 192.584 173.372 192.472 173.98 192.472C174.353 192.472 174.726 192.504 175.1 192.568C175.473 192.632 175.83 192.733 176.172 192.872L175.836 194.136C175.612 194.029 175.35 193.944 175.052 193.88C174.764 193.816 174.454 193.784 174.124 193.784C173.292 193.784 172.652 194.045 172.204 194.568C171.766 195.091 171.548 195.853 171.548 196.856C171.548 197.304 171.596 197.715 171.692 198.088C171.798 198.461 171.958 198.781 172.172 199.048C172.396 199.315 172.678 199.523 173.02 199.672C173.361 199.811 173.777 199.88 174.268 199.88C174.662 199.88 175.02 199.843 175.34 199.768C175.66 199.693 175.91 199.613 176.092 199.528L176.3 200.776C176.214 200.829 176.092 200.883 175.932 200.936C175.772 200.979 175.59 201.016 175.388 201.048C175.185 201.091 174.966 201.123 174.732 201.144C174.508 201.176 174.289 201.192 174.076 201.192ZM185.038 196.84C185.038 197.501 184.942 198.099 184.75 198.632C184.558 199.165 184.286 199.624 183.934 200.008C183.593 200.392 183.182 200.691 182.702 200.904C182.222 201.107 181.699 201.208 181.134 201.208C180.569 201.208 180.046 201.107 179.566 200.904C179.086 200.691 178.67 200.392 178.318 200.008C177.977 199.624 177.71 199.165 177.518 198.632C177.326 198.099 177.23 197.501 177.23 196.84C177.23 196.189 177.326 195.597 177.518 195.064C177.71 194.52 177.977 194.056 178.318 193.672C178.67 193.288 179.086 192.995 179.566 192.792C180.046 192.579 180.569 192.472 181.134 192.472C181.699 192.472 182.222 192.579 182.702 192.792C183.182 192.995 183.593 193.288 183.934 193.672C184.286 194.056 184.558 194.52 184.75 195.064C184.942 195.597 185.038 196.189 185.038 196.84ZM183.486 196.84C183.486 195.901 183.273 195.16 182.846 194.616C182.43 194.061 181.859 193.784 181.134 193.784C180.409 193.784 179.833 194.061 179.406 194.616C178.99 195.16 178.782 195.901 178.782 196.84C178.782 197.779 178.99 198.525 179.406 199.08C179.833 199.624 180.409 199.896 181.134 199.896C181.859 199.896 182.43 199.624 182.846 199.08C183.273 198.525 183.486 197.779 183.486 196.84ZM193.756 200.76C193.414 200.845 192.961 200.936 192.396 201.032C191.841 201.128 191.196 201.176 190.46 201.176C189.82 201.176 189.281 201.085 188.844 200.904C188.406 200.712 188.054 200.445 187.788 200.104C187.521 199.763 187.329 199.363 187.212 198.904C187.094 198.435 187.036 197.917 187.036 197.352V192.68H188.524V197.032C188.524 198.045 188.684 198.771 189.004 199.208C189.324 199.645 189.862 199.864 190.62 199.864C190.78 199.864 190.945 199.859 191.116 199.848C191.286 199.837 191.446 199.827 191.596 199.816C191.745 199.795 191.878 199.779 191.996 199.768C192.124 199.747 192.214 199.725 192.268 199.704V192.68H193.756V200.76ZM196.319 192.92C196.66 192.835 197.114 192.744 197.679 192.648C198.244 192.552 198.895 192.504 199.631 192.504C200.292 192.504 200.842 192.6 201.279 192.792C201.716 192.973 202.063 193.235 202.319 193.576C202.586 193.907 202.772 194.307 202.879 194.776C202.986 195.245 203.039 195.763 203.039 196.328V201H201.551V196.648C201.551 196.136 201.514 195.699 201.439 195.336C201.375 194.973 201.263 194.68 201.103 194.456C200.943 194.232 200.73 194.072 200.463 193.976C200.196 193.869 199.866 193.816 199.471 193.816C199.311 193.816 199.146 193.821 198.975 193.832C198.804 193.843 198.639 193.859 198.479 193.88C198.33 193.891 198.191 193.907 198.063 193.928C197.946 193.949 197.86 193.965 197.807 193.976V201H196.319V192.92ZM206.899 192.68H210.051V193.928H206.899V197.768C206.899 198.184 206.931 198.531 206.995 198.808C207.059 199.075 207.155 199.288 207.283 199.448C207.411 199.597 207.571 199.704 207.763 199.768C207.955 199.832 208.179 199.864 208.435 199.864C208.883 199.864 209.24 199.816 209.507 199.72C209.784 199.613 209.976 199.539 210.083 199.496L210.371 200.728C210.221 200.803 209.96 200.893 209.587 201C209.213 201.117 208.787 201.176 208.307 201.176C207.741 201.176 207.272 201.107 206.899 200.968C206.536 200.819 206.243 200.6 206.019 200.312C205.795 200.024 205.635 199.672 205.539 199.256C205.453 198.829 205.411 198.339 205.411 197.784V190.36L206.899 190.104V192.68Z" fill="#2C2C2C"/>
<rect x="290" y="130" width="48" height="48" rx="8" fill="white"/>
<path d="M316.182 161.901C315.108 163.366 312.892 163.366 311.818 161.901L302.514 149.202C301.229 147.449 302.501 145 304.696 145L323.304 145C325.499 145 326.771 147.449 325.486 149.202L316.182 161.901Z" fill="#2C2C2C"/>
<path d="M286.621 195.448C286.621 196.408 286.471 197.245 286.173 197.96C285.874 198.664 285.453 199.251 284.909 199.72C284.365 200.179 283.714 200.525 282.957 200.76C282.199 200.984 281.367 201.096 280.461 201.096C280.013 201.096 279.517 201.075 278.973 201.032C278.439 201 277.954 200.931 277.517 200.824V190.072C277.954 189.965 278.439 189.896 278.973 189.864C279.517 189.821 280.013 189.8 280.461 189.8C281.367 189.8 282.199 189.917 282.957 190.152C283.714 190.376 284.365 190.723 284.909 191.192C285.453 191.651 285.874 192.237 286.173 192.952C286.471 193.656 286.621 194.488 286.621 195.448ZM280.589 199.736C282.061 199.736 283.159 199.363 283.885 198.616C284.61 197.859 284.973 196.803 284.973 195.448C284.973 194.093 284.61 193.043 283.885 192.296C283.159 191.539 282.061 191.16 280.589 191.16C280.151 191.16 279.81 191.165 279.565 191.176C279.33 191.187 279.165 191.197 279.069 191.208V199.688C279.165 199.699 279.33 199.709 279.565 199.72C279.81 199.731 280.151 199.736 280.589 199.736ZM291.899 192.504C292.027 192.504 292.171 192.515 292.331 192.536C292.502 192.547 292.667 192.568 292.827 192.6C292.987 192.621 293.131 192.648 293.259 192.68C293.398 192.701 293.499 192.723 293.563 192.744L293.307 194.04C293.19 193.997 292.992 193.949 292.715 193.896C292.448 193.832 292.102 193.8 291.675 193.8C291.398 193.8 291.12 193.832 290.843 193.896C290.576 193.949 290.4 193.987 290.315 194.008V201H288.827V193.032C289.179 192.904 289.616 192.787 290.139 192.68C290.662 192.563 291.248 192.504 291.899 192.504ZM302.343 196.84C302.343 197.501 302.247 198.099 302.055 198.632C301.863 199.165 301.591 199.624 301.239 200.008C300.897 200.392 300.487 200.691 300.007 200.904C299.527 201.107 299.004 201.208 298.439 201.208C297.873 201.208 297.351 201.107 296.871 200.904C296.391 200.691 295.975 200.392 295.623 200.008C295.281 199.624 295.015 199.165 294.823 198.632C294.631 198.099 294.535 197.501 294.535 196.84C294.535 196.189 294.631 195.597 294.823 195.064C295.015 194.52 295.281 194.056 295.623 193.672C295.975 193.288 296.391 192.995 296.871 192.792C297.351 192.579 297.873 192.472 298.439 192.472C299.004 192.472 299.527 192.579 300.007 192.792C300.487 192.995 300.897 193.288 301.239 193.672C301.591 194.056 301.863 194.52 302.055 195.064C302.247 195.597 302.343 196.189 302.343 196.84ZM300.791 196.84C300.791 195.901 300.577 195.16 300.151 194.616C299.735 194.061 299.164 193.784 298.439 193.784C297.713 193.784 297.137 194.061 296.711 194.616C296.295 195.16 296.087 195.901 296.087 196.84C296.087 197.779 296.295 198.525 296.711 199.08C297.137 199.624 297.713 199.896 298.439 199.896C299.164 199.896 299.735 199.624 300.151 199.08C300.577 198.525 300.791 197.779 300.791 196.84ZM310.212 196.856C310.212 195.885 309.972 195.139 309.492 194.616C309.012 194.093 308.372 193.832 307.572 193.832C307.124 193.832 306.772 193.848 306.516 193.88C306.271 193.912 306.074 193.949 305.924 193.992V199.24C306.106 199.389 306.367 199.533 306.708 199.672C307.05 199.811 307.423 199.88 307.828 199.88C308.255 199.88 308.618 199.805 308.916 199.656C309.226 199.496 309.476 199.283 309.668 199.016C309.86 198.739 309.999 198.419 310.084 198.056C310.17 197.683 310.212 197.283 310.212 196.856ZM311.764 196.856C311.764 197.485 311.679 198.067 311.508 198.6C311.348 199.133 311.108 199.592 310.788 199.976C310.468 200.36 310.074 200.659 309.604 200.872C309.146 201.085 308.618 201.192 308.02 201.192C307.54 201.192 307.114 201.128 306.74 201C306.378 200.872 306.106 200.749 305.924 200.632V203.96H304.436V192.936C304.788 192.851 305.226 192.76 305.748 192.664C306.282 192.557 306.895 192.504 307.588 192.504C308.228 192.504 308.804 192.605 309.316 192.808C309.828 193.011 310.266 193.299 310.628 193.672C310.991 194.045 311.268 194.504 311.46 195.048C311.663 195.581 311.764 196.184 311.764 196.856ZM319.234 194.44C319.053 194.291 318.791 194.147 318.45 194.008C318.109 193.869 317.735 193.8 317.33 193.8C316.903 193.8 316.535 193.88 316.226 194.04C315.927 194.189 315.682 194.403 315.49 194.68C315.298 194.947 315.159 195.267 315.074 195.64C314.989 196.013 314.946 196.413 314.946 196.84C314.946 197.811 315.186 198.563 315.666 199.096C316.146 199.619 316.786 199.88 317.586 199.88C317.991 199.88 318.327 199.864 318.594 199.832C318.871 199.789 319.085 199.747 319.234 199.704V194.44ZM319.234 188.84L320.722 188.584V200.76C320.381 200.856 319.943 200.952 319.41 201.048C318.877 201.144 318.263 201.192 317.57 201.192C316.93 201.192 316.354 201.091 315.842 200.888C315.33 200.685 314.893 200.397 314.53 200.024C314.167 199.651 313.885 199.197 313.682 198.664C313.49 198.12 313.394 197.512 313.394 196.84C313.394 196.2 313.474 195.613 313.634 195.08C313.805 194.547 314.05 194.088 314.37 193.704C314.69 193.32 315.079 193.021 315.538 192.808C316.007 192.595 316.541 192.488 317.138 192.488C317.618 192.488 318.039 192.552 318.402 192.68C318.775 192.808 319.053 192.931 319.234 193.048V188.84ZM330.624 196.84C330.624 197.501 330.528 198.099 330.336 198.632C330.144 199.165 329.872 199.624 329.52 200.008C329.179 200.392 328.768 200.691 328.288 200.904C327.808 201.107 327.285 201.208 326.72 201.208C326.155 201.208 325.632 201.107 325.152 200.904C324.672 200.691 324.256 200.392 323.904 200.008C323.563 199.624 323.296 199.165 323.104 198.632C322.912 198.099 322.816 197.501 322.816 196.84C322.816 196.189 322.912 195.597 323.104 195.064C323.296 194.52 323.563 194.056 323.904 193.672C324.256 193.288 324.672 192.995 325.152 192.792C325.632 192.579 326.155 192.472 326.72 192.472C327.285 192.472 327.808 192.579 328.288 192.792C328.768 192.995 329.179 193.288 329.52 193.672C329.872 194.056 330.144 194.52 330.336 195.064C330.528 195.597 330.624 196.189 330.624 196.84ZM329.072 196.84C329.072 195.901 328.859 195.16 328.432 194.616C328.016 194.061 327.445 193.784 326.72 193.784C325.995 193.784 325.419 194.061 324.992 194.616C324.576 195.16 324.368 195.901 324.368 196.84C324.368 197.779 324.576 198.525 324.992 199.08C325.419 199.624 325.995 199.896 326.72 199.896C327.445 199.896 328.016 199.624 328.432 199.08C328.859 198.525 329.072 197.779 329.072 196.84ZM339.314 201C339.016 200.232 338.696 199.357 338.354 198.376C338.024 197.384 337.72 196.355 337.442 195.288C337.165 196.355 336.861 197.384 336.53 198.376C336.2 199.357 335.885 200.232 335.586 201H334.29C333.8 199.901 333.32 198.648 332.85 197.24C332.381 195.832 331.938 194.312 331.522 192.68H333.122C333.229 193.181 333.357 193.725 333.506 194.312C333.656 194.899 333.81 195.485 333.97 196.072C334.141 196.659 334.317 197.224 334.498 197.768C334.68 198.312 334.85 198.787 335.01 199.192C335.192 198.691 335.368 198.163 335.538 197.608C335.72 197.043 335.89 196.477 336.05 195.912C336.21 195.336 336.36 194.776 336.498 194.232C336.648 193.677 336.776 193.16 336.882 192.68H338.114C338.21 193.16 338.328 193.677 338.466 194.232C338.605 194.776 338.754 195.336 338.914 195.912C339.074 196.477 339.24 197.043 339.41 197.608C339.592 198.163 339.773 198.691 339.954 199.192C340.114 198.787 340.28 198.312 340.45 197.768C340.632 197.224 340.808 196.659 340.978 196.072C341.149 195.485 341.309 194.899 341.458 194.312C341.608 193.725 341.736 193.181 341.842 192.68H343.378C342.962 194.312 342.52 195.832 342.05 197.24C341.581 198.648 341.101 199.901 340.61 201H339.314ZM344.952 192.92C345.293 192.835 345.747 192.744 346.312 192.648C346.877 192.552 347.528 192.504 348.264 192.504C348.925 192.504 349.475 192.6 349.912 192.792C350.349 192.973 350.696 193.235 350.952 193.576C351.219 193.907 351.405 194.307 351.512 194.776C351.619 195.245 351.672 195.763 351.672 196.328V201H350.184V196.648C350.184 196.136 350.147 195.699 350.072 195.336C350.008 194.973 349.896 194.68 349.736 194.456C349.576 194.232 349.363 194.072 349.096 193.976C348.829 193.869 348.499 193.816 348.104 193.816C347.944 193.816 347.779 193.821 347.608 193.832C347.437 193.843 347.272 193.859 347.112 193.88C346.963 193.891 346.824 193.907 346.696 193.928C346.579 193.949 346.493 193.965 346.44 193.976V201H344.952V192.92Z" fill="#2C2C2C"/>
<rect x="26" y="252" width="48" height="48" rx="8" fill="white"/>
<path d="M35 265.5C35 264.672 35.6716 264 36.5 264H60.5C61.3284 264 62 264.672 62 265.5C62 266.328 61.3284 267 60.5 267H36.5C35.6716 267 35 266.328 35 265.5Z" fill="#2C2C2C"/>
<path d="M35 276C35 275.172 35.6716 274.5 36.5 274.5H63.5C64.3284 274.5 65 275.172 65 276C65 276.828 64.3284 277.5 63.5 277.5H36.5C35.6716 277.5 35 276.828 35 276Z" fill="#2C2C2C"/>
<path d="M35 286.5C35 285.672 35.6716 285 36.5 285H57.5C58.3284 285 59 285.672 59 286.5C59 287.328 58.3284 288 57.5 288H36.5C35.6716 288 35 287.328 35 286.5Z" fill="#2C2C2C"/>
<path d="M44.0871 321.656V323H37.4151V311.912H38.9671V321.656H44.0871ZM47.1039 323H45.6159V314.68H47.1039V323ZM46.3519 313.176C46.0853 313.176 45.8559 313.091 45.6639 312.92C45.4826 312.739 45.3919 312.499 45.3919 312.2C45.3919 311.901 45.4826 311.667 45.6639 311.496C45.8559 311.315 46.0853 311.224 46.3519 311.224C46.6186 311.224 46.8426 311.315 47.0239 311.496C47.2159 311.667 47.3119 311.901 47.3119 312.2C47.3119 312.499 47.2159 312.739 47.0239 312.92C46.8426 313.091 46.6186 313.176 46.3519 313.176ZM51.5988 321.928C52.2068 321.928 52.6548 321.848 52.9428 321.688C53.2415 321.528 53.3908 321.272 53.3908 320.92C53.3908 320.557 53.2468 320.269 52.9588 320.056C52.6708 319.843 52.1961 319.603 51.5348 319.336C51.2148 319.208 50.9055 319.08 50.6068 318.952C50.3188 318.813 50.0681 318.653 49.8548 318.472C49.6415 318.291 49.4708 318.072 49.3428 317.816C49.2148 317.56 49.1508 317.245 49.1508 316.872C49.1508 316.136 49.4228 315.555 49.9668 315.128C50.5108 314.691 51.2521 314.472 52.1908 314.472C52.4255 314.472 52.6601 314.488 52.8948 314.52C53.1295 314.541 53.3481 314.573 53.5508 314.616C53.7535 314.648 53.9295 314.685 54.0788 314.728C54.2388 314.771 54.3615 314.808 54.4468 314.84L54.1748 316.12C54.0148 316.035 53.7641 315.949 53.4228 315.864C53.0815 315.768 52.6708 315.72 52.1908 315.72C51.7748 315.72 51.4121 315.805 51.1028 315.976C50.7935 316.136 50.6388 316.392 50.6388 316.744C50.6388 316.925 50.6708 317.085 50.7348 317.224C50.8095 317.363 50.9161 317.491 51.0548 317.608C51.2041 317.715 51.3855 317.816 51.5988 317.912C51.8121 318.008 52.0681 318.109 52.3668 318.216C52.7615 318.365 53.1135 318.515 53.4228 318.664C53.7321 318.803 53.9935 318.968 54.2068 319.16C54.4308 319.352 54.6015 319.587 54.7188 319.864C54.8361 320.131 54.8948 320.461 54.8948 320.856C54.8948 321.624 54.6068 322.205 54.0308 322.6C53.4655 322.995 52.6548 323.192 51.5988 323.192C50.8628 323.192 50.2868 323.128 49.8708 323C49.4548 322.883 49.1721 322.792 49.0228 322.728L49.2948 321.448C49.4655 321.512 49.7375 321.608 50.1108 321.736C50.4841 321.864 50.9801 321.928 51.5988 321.928ZM58.1954 314.68H61.3474V315.928H58.1954V319.768C58.1954 320.184 58.2274 320.531 58.2914 320.808C58.3554 321.075 58.4514 321.288 58.5794 321.448C58.7074 321.597 58.8674 321.704 59.0594 321.768C59.2514 321.832 59.4754 321.864 59.7314 321.864C60.1794 321.864 60.5368 321.816 60.8034 321.72C61.0808 321.613 61.2728 321.539 61.3794 321.496L61.6674 322.728C61.5181 322.803 61.2568 322.893 60.8834 323C60.5101 323.117 60.0834 323.176 59.6034 323.176C59.0381 323.176 58.5688 323.107 58.1954 322.968C57.8328 322.819 57.5394 322.6 57.3154 322.312C57.0914 322.024 56.9314 321.672 56.8354 321.256C56.7501 320.829 56.7074 320.339 56.7074 319.784V312.36L58.1954 312.104V314.68Z" fill="#2C2C2C"/>
<rect x="158" y="252" width="48" height="48" rx="8" fill="white"/>
<path d="M171.5 261C170.672 261 170 261.672 170 262.5V286.5C170 287.328 170.672 288 171.5 288C172.328 288 173 287.328 173 286.5V262.5C173 261.672 172.328 261 171.5 261Z" fill="#2C2C2C"/>
<path d="M182 261C181.172 261 180.5 261.672 180.5 262.5V289.5C180.5 290.328 181.172 291 182 291C182.828 291 183.5 290.328 183.5 289.5V262.5C183.5 261.672 182.828 261 182 261Z" fill="#2C2C2C"/>
<path d="M192.5 261C191.672 261 191 261.672 191 262.5V283.5C191 284.328 191.672 285 192.5 285C193.328 285 194 284.328 194 283.5V262.5C194 261.672 193.328 261 192.5 261Z" fill="#2C2C2C"/>
<path d="M159.316 323.24C158.537 323.24 157.828 323.112 157.188 322.856C156.548 322.6 155.999 322.227 155.54 321.736C155.081 321.245 154.724 320.643 154.468 319.928C154.223 319.203 154.1 318.376 154.1 317.448C154.1 316.52 154.239 315.699 154.516 314.984C154.804 314.259 155.188 313.651 155.668 313.16C156.148 312.669 156.708 312.296 157.348 312.04C157.988 311.784 158.671 311.656 159.396 311.656C159.855 311.656 160.265 311.688 160.628 311.752C161.001 311.816 161.321 311.891 161.588 311.976C161.865 312.061 162.089 312.147 162.26 312.232C162.431 312.317 162.548 312.381 162.612 312.424L162.164 313.704C162.068 313.64 161.929 313.571 161.748 313.496C161.567 313.421 161.359 313.347 161.124 313.272C160.9 313.197 160.649 313.139 160.372 313.096C160.105 313.043 159.833 313.016 159.556 313.016C158.969 313.016 158.441 313.117 157.972 313.32C157.503 313.523 157.103 313.816 156.772 314.2C156.441 314.584 156.185 315.053 156.004 315.608C155.833 316.152 155.748 316.765 155.748 317.448C155.748 318.109 155.823 318.712 155.972 319.256C156.132 319.8 156.367 320.269 156.676 320.664C156.985 321.048 157.369 321.347 157.828 321.56C158.297 321.773 158.841 321.88 159.46 321.88C160.175 321.88 160.767 321.805 161.236 321.656C161.705 321.507 162.057 321.373 162.292 321.256L162.692 322.536C162.617 322.589 162.484 322.659 162.292 322.744C162.1 322.819 161.86 322.893 161.572 322.968C161.284 323.043 160.948 323.107 160.564 323.16C160.18 323.213 159.764 323.24 159.316 323.24ZM171.483 318.84C171.483 319.501 171.387 320.099 171.195 320.632C171.003 321.165 170.731 321.624 170.379 322.008C170.038 322.392 169.627 322.691 169.147 322.904C168.667 323.107 168.145 323.208 167.579 323.208C167.014 323.208 166.491 323.107 166.011 322.904C165.531 322.691 165.115 322.392 164.763 322.008C164.422 321.624 164.155 321.165 163.963 320.632C163.771 320.099 163.675 319.501 163.675 318.84C163.675 318.189 163.771 317.597 163.963 317.064C164.155 316.52 164.422 316.056 164.763 315.672C165.115 315.288 165.531 314.995 166.011 314.792C166.491 314.579 167.014 314.472 167.579 314.472C168.145 314.472 168.667 314.579 169.147 314.792C169.627 314.995 170.038 315.288 170.379 315.672C170.731 316.056 171.003 316.52 171.195 317.064C171.387 317.597 171.483 318.189 171.483 318.84ZM169.931 318.84C169.931 317.901 169.718 317.16 169.291 316.616C168.875 316.061 168.305 315.784 167.579 315.784C166.854 315.784 166.278 316.061 165.851 316.616C165.435 317.16 165.227 317.901 165.227 318.84C165.227 319.779 165.435 320.525 165.851 321.08C166.278 321.624 166.854 321.896 167.579 321.896C168.305 321.896 168.875 321.624 169.291 321.08C169.718 320.525 169.931 319.779 169.931 318.84ZM176.073 323.16C175.156 323.139 174.505 322.941 174.121 322.568C173.737 322.195 173.545 321.613 173.545 320.824V310.84L175.033 310.584V320.584C175.033 320.829 175.054 321.032 175.097 321.192C175.14 321.352 175.209 321.48 175.305 321.576C175.401 321.672 175.529 321.747 175.689 321.8C175.849 321.843 176.046 321.88 176.281 321.912L176.073 323.16ZM184.576 322.76C184.235 322.845 183.781 322.936 183.216 323.032C182.661 323.128 182.016 323.176 181.28 323.176C180.64 323.176 180.101 323.085 179.664 322.904C179.227 322.712 178.875 322.445 178.608 322.104C178.341 321.763 178.149 321.363 178.032 320.904C177.915 320.435 177.856 319.917 177.856 319.352V314.68H179.344V319.032C179.344 320.045 179.504 320.771 179.824 321.208C180.144 321.645 180.683 321.864 181.44 321.864C181.6 321.864 181.765 321.859 181.936 321.848C182.107 321.837 182.267 321.827 182.416 321.816C182.565 321.795 182.699 321.779 182.816 321.768C182.944 321.747 183.035 321.725 183.088 321.704V314.68H184.576V322.76ZM187.139 314.92C187.481 314.835 187.929 314.744 188.483 314.648C189.049 314.552 189.699 314.504 190.435 314.504C190.969 314.504 191.417 314.579 191.779 314.728C192.142 314.867 192.446 315.075 192.691 315.352C192.766 315.299 192.883 315.224 193.043 315.128C193.203 315.032 193.401 314.941 193.635 314.856C193.87 314.76 194.131 314.68 194.419 314.616C194.707 314.541 195.017 314.504 195.347 314.504C195.987 314.504 196.51 314.6 196.915 314.792C197.321 314.973 197.635 315.235 197.859 315.576C198.094 315.917 198.249 316.323 198.323 316.792C198.409 317.261 198.451 317.773 198.451 318.328V323H196.963V318.648C196.963 318.157 196.937 317.736 196.883 317.384C196.841 317.032 196.75 316.739 196.611 316.504C196.483 316.269 196.302 316.099 196.067 315.992C195.843 315.875 195.55 315.816 195.187 315.816C194.686 315.816 194.27 315.885 193.939 316.024C193.619 316.152 193.401 316.269 193.283 316.376C193.369 316.653 193.433 316.957 193.475 317.288C193.518 317.619 193.539 317.965 193.539 318.328V323H192.051V318.648C192.051 318.157 192.025 317.736 191.971 317.384C191.918 317.032 191.822 316.739 191.683 316.504C191.555 316.269 191.374 316.099 191.139 315.992C190.915 315.875 190.627 315.816 190.275 315.816C190.126 315.816 189.966 315.821 189.795 315.832C189.625 315.843 189.459 315.859 189.299 315.88C189.15 315.891 189.011 315.907 188.883 315.928C188.755 315.949 188.67 315.965 188.627 315.976V323H187.139V314.92ZM200.921 314.92C201.262 314.835 201.715 314.744 202.281 314.648C202.846 314.552 203.497 314.504 204.233 314.504C204.894 314.504 205.443 314.6 205.881 314.792C206.318 314.973 206.665 315.235 206.921 315.576C207.187 315.907 207.374 316.307 207.481 316.776C207.587 317.245 207.641 317.763 207.641 318.328V323H206.153V318.648C206.153 318.136 206.115 317.699 206.041 317.336C205.977 316.973 205.865 316.68 205.705 316.456C205.545 316.232 205.331 316.072 205.065 315.976C204.798 315.869 204.467 315.816 204.073 315.816C203.913 315.816 203.747 315.821 203.577 315.832C203.406 315.843 203.241 315.859 203.081 315.88C202.931 315.891 202.793 315.907 202.665 315.928C202.547 315.949 202.462 315.965 202.409 315.976V323H200.921V314.92Z" fill="#2C2C2C"/>
<rect x="290" y="252" width="48" height="48" rx="8" fill="white"/>
<path d="M312.714 268.298C312.714 267.588 313.29 267.013 314 267.013C314.71 267.013 315.286 267.588 315.286 268.298V274.727H321.714C322.424 274.727 323 275.303 323 276.013C323 276.723 322.424 277.298 321.714 277.298H315.286V283.727C315.286 284.437 314.71 285.013 314 285.013C313.29 285.013 312.714 284.437 312.714 283.727V277.298H306.286C305.576 277.298 305 276.723 305 276.013C305 275.303 305.576 274.727 306.286 274.727H312.714V268.298Z" fill="#2C2C2C"/>
<path fill-rule="evenodd" clip-rule="evenodd" d="M314 294.013C323.941 294.013 332 285.954 332 276.013C332 266.072 323.941 258.013 314 258.013C304.059 258.013 296 266.072 296 276.013C296 285.954 304.059 294.013 314 294.013ZM314 291.441C322.521 291.441 329.429 284.534 329.429 276.013C329.429 267.492 322.521 260.584 314 260.584C305.479 260.584 298.571 267.492 298.571 276.013C298.571 284.534 305.479 291.441 314 291.441Z" fill="#2C2C2C"/>
<path d="M307.159 323C306.978 322.52 306.807 322.051 306.647 321.592C306.487 321.123 306.322 320.648 306.151 320.168H301.127L300.119 323H298.503C298.93 321.827 299.33 320.744 299.703 319.752C300.076 318.749 300.439 317.8 300.791 316.904C301.154 316.008 301.511 315.155 301.863 314.344C302.215 313.523 302.583 312.712 302.967 311.912H304.391C304.775 312.712 305.143 313.523 305.495 314.344C305.847 315.155 306.199 316.008 306.551 316.904C306.914 317.8 307.282 318.749 307.655 319.752C308.028 320.744 308.428 321.827 308.855 323H307.159ZM305.703 318.888C305.362 317.96 305.02 317.064 304.679 316.2C304.348 315.325 304.002 314.488 303.639 313.688C303.266 314.488 302.908 315.325 302.567 316.2C302.236 317.064 301.906 317.96 301.575 318.888H305.703ZM315.437 316.44C315.256 316.291 314.995 316.147 314.653 316.008C314.312 315.869 313.939 315.8 313.533 315.8C313.107 315.8 312.739 315.88 312.429 316.04C312.131 316.189 311.885 316.403 311.693 316.68C311.501 316.947 311.363 317.267 311.277 317.64C311.192 318.013 311.149 318.413 311.149 318.84C311.149 319.811 311.389 320.563 311.869 321.096C312.349 321.619 312.989 321.88 313.789 321.88C314.195 321.88 314.531 321.864 314.797 321.832C315.075 321.789 315.288 321.747 315.437 321.704V316.44ZM315.437 310.84L316.925 310.584V322.76C316.584 322.856 316.147 322.952 315.613 323.048C315.08 323.144 314.467 323.192 313.773 323.192C313.133 323.192 312.557 323.091 312.045 322.888C311.533 322.685 311.096 322.397 310.733 322.024C310.371 321.651 310.088 321.197 309.885 320.664C309.693 320.12 309.597 319.512 309.597 318.84C309.597 318.2 309.677 317.613 309.837 317.08C310.008 316.547 310.253 316.088 310.573 315.704C310.893 315.32 311.283 315.021 311.741 314.808C312.211 314.595 312.744 314.488 313.341 314.488C313.821 314.488 314.243 314.552 314.605 314.68C314.979 314.808 315.256 314.931 315.437 315.048V310.84ZM324.859 316.44C324.678 316.291 324.416 316.147 324.075 316.008C323.734 315.869 323.36 315.8 322.955 315.8C322.528 315.8 322.16 315.88 321.851 316.04C321.552 316.189 321.307 316.403 321.115 316.68C320.923 316.947 320.784 317.267 320.699 317.64C320.614 318.013 320.571 318.413 320.571 318.84C320.571 319.811 320.811 320.563 321.291 321.096C321.771 321.619 322.411 321.88 323.211 321.88C323.616 321.88 323.952 321.864 324.219 321.832C324.496 321.789 324.71 321.747 324.859 321.704V316.44ZM324.859 310.84L326.347 310.584V322.76C326.006 322.856 325.568 322.952 325.035 323.048C324.502 323.144 323.888 323.192 323.195 323.192C322.555 323.192 321.979 323.091 321.467 322.888C320.955 322.685 320.518 322.397 320.155 322.024C319.792 321.651 319.51 321.197 319.307 320.664C319.115 320.12 319.019 319.512 319.019 318.84C319.019 318.2 319.099 317.613 319.259 317.08C319.43 316.547 319.675 316.088 319.995 315.704C320.315 315.32 320.704 315.021 321.163 314.808C321.632 314.595 322.166 314.488 322.763 314.488C323.243 314.488 323.664 314.552 324.027 314.68C324.4 314.808 324.678 314.931 324.859 315.048V310.84Z" fill="#2C2C2C"/>
</svg>
