<svg width="450" height="288" viewBox="0 0 450 288" fill="none" xmlns="http://www.w3.org/2000/svg">
<path d="M15.66 164.21H18.57V185H15.66V175.4H5.49V185H2.58V164.21H5.49V172.88H15.66V164.21ZM22.6823 177.23C22.6823 175.85 22.8823 174.65 23.2823 173.63C23.6823 172.59 24.2123 171.73 24.8723 171.05C25.5323 170.37 26.2923 169.86 27.1523 169.52C28.0123 169.18 28.8923 169.01 29.7923 169.01C31.8923 169.01 33.5023 169.67 34.6223 170.99C35.7423 172.29 36.3023 174.28 36.3023 176.96C36.3023 177.08 36.3023 177.24 36.3023 177.44C36.3023 177.62 36.2923 177.79 36.2723 177.95H25.5923C25.7123 179.57 26.1823 180.8 27.0023 181.64C27.8223 182.48 29.1023 182.9 30.8423 182.9C31.8223 182.9 32.6423 182.82 33.3023 182.66C33.9823 182.48 34.4923 182.31 34.8323 182.15L35.2223 184.49C34.8823 184.67 34.2823 184.86 33.4223 185.06C32.5823 185.26 31.6223 185.36 30.5423 185.36C29.1823 185.36 28.0023 185.16 27.0023 184.76C26.0223 184.34 25.2123 183.77 24.5723 183.05C23.9323 182.33 23.4523 181.48 23.1323 180.5C22.8323 179.5 22.6823 178.41 22.6823 177.23ZM33.3923 175.7C33.4123 174.44 33.0923 173.41 32.4323 172.61C31.7923 171.79 30.9023 171.38 29.7623 171.38C29.1223 171.38 28.5523 171.51 28.0523 171.77C27.5723 172.01 27.1623 172.33 26.8223 172.73C26.4823 173.13 26.2123 173.59 26.0123 174.11C25.8323 174.63 25.7123 175.16 25.6523 175.7H33.3923ZM45.5902 182.99C46.2502 182.99 46.8302 182.98 47.3302 182.96C47.8502 182.92 48.2802 182.86 48.6202 182.78V178.13C48.4202 178.03 48.0902 177.95 47.6302 177.89C47.1902 177.81 46.6502 177.77 46.0102 177.77C45.5902 177.77 45.1402 177.8 44.6602 177.86C44.2002 177.92 43.7702 178.05 43.3702 178.25C42.9902 178.43 42.6702 178.69 42.4102 179.03C42.1502 179.35 42.0202 179.78 42.0202 180.32C42.0202 181.32 42.3402 182.02 42.9802 182.42C43.6202 182.8 44.4902 182.99 45.5902 182.99ZM45.3502 169.01C46.4702 169.01 47.4102 169.16 48.1702 169.46C48.9502 169.74 49.5702 170.15 50.0302 170.69C50.5102 171.21 50.8502 171.84 51.0502 172.58C51.2502 173.3 51.3502 174.1 51.3502 174.98V184.73C51.1102 184.77 50.7702 184.83 50.3302 184.91C49.9102 184.97 49.4302 185.03 48.8902 185.09C48.3502 185.15 47.7602 185.2 47.1202 185.24C46.5002 185.3 45.8802 185.33 45.2602 185.33C44.3802 185.33 43.5702 185.24 42.8302 185.06C42.0902 184.88 41.4502 184.6 40.9102 184.22C40.3702 183.82 39.9502 183.3 39.6502 182.66C39.3502 182.02 39.2002 181.25 39.2002 180.35C39.2002 179.49 39.3702 178.75 39.7102 178.13C40.0702 177.51 40.5502 177.01 41.1502 176.63C41.7502 176.25 42.4502 175.97 43.2502 175.79C44.0502 175.61 44.8902 175.52 45.7702 175.52C46.0502 175.52 46.3402 175.54 46.6402 175.58C46.9402 175.6 47.2202 175.64 47.4802 175.7C47.7602 175.74 48.0002 175.78 48.2002 175.82C48.4002 175.86 48.5402 175.89 48.6202 175.91V175.13C48.6202 174.67 48.5702 174.22 48.4702 173.78C48.3702 173.32 48.1902 172.92 47.9302 172.58C47.6702 172.22 47.3102 171.94 46.8502 171.74C46.4102 171.52 45.8302 171.41 45.1102 171.41C44.1902 171.41 43.3802 171.48 42.6802 171.62C42.0002 171.74 41.4902 171.87 41.1502 172.01L40.8202 169.7C41.1802 169.54 41.7802 169.39 42.6202 169.25C43.4602 169.09 44.3702 169.01 45.3502 169.01ZM66.064 172.7C65.724 172.42 65.234 172.15 64.594 171.89C63.954 171.63 63.254 171.5 62.494 171.5C61.694 171.5 61.004 171.65 60.424 171.95C59.864 172.23 59.404 172.63 59.044 173.15C58.684 173.65 58.424 174.25 58.264 174.95C58.104 175.65 58.024 176.4 58.024 177.2C58.024 179.02 58.474 180.43 59.374 181.43C60.274 182.41 61.474 182.9 62.974 182.9C63.734 182.9 64.364 182.87 64.864 182.81C65.384 182.73 65.784 182.65 66.064 182.57V172.7ZM66.064 162.2L68.854 161.72V184.55C68.214 184.73 67.394 184.91 66.394 185.09C65.394 185.27 64.244 185.36 62.944 185.36C61.744 185.36 60.664 185.17 59.704 184.79C58.744 184.41 57.924 183.87 57.244 183.17C56.564 182.47 56.034 181.62 55.654 180.62C55.294 179.6 55.114 178.46 55.114 177.2C55.114 176 55.264 174.9 55.564 173.9C55.884 172.9 56.344 172.04 56.944 171.32C57.544 170.6 58.274 170.04 59.134 169.64C60.014 169.24 61.014 169.04 62.134 169.04C63.034 169.04 63.824 169.16 64.504 169.4C65.204 169.64 65.724 169.87 66.064 170.09V162.2ZM76.44 185H73.65V169.4H76.44V185ZM75.03 166.58C74.53 166.58 74.1 166.42 73.74 166.1C73.4 165.76 73.23 165.31 73.23 164.75C73.23 164.19 73.4 163.75 73.74 163.43C74.1 163.09 74.53 162.92 75.03 162.92C75.53 162.92 75.95 163.09 76.29 163.43C76.65 163.75 76.83 164.19 76.83 164.75C76.83 165.31 76.65 165.76 76.29 166.1C75.95 166.42 75.53 166.58 75.03 166.58ZM81.2379 169.85C81.8779 169.69 82.7279 169.52 83.7879 169.34C84.8479 169.16 86.0679 169.07 87.4479 169.07C88.6879 169.07 89.7179 169.25 90.5379 169.61C91.3579 169.95 92.0079 170.44 92.4879 171.08C92.9879 171.7 93.3379 172.45 93.5379 173.33C93.7379 174.21 93.8379 175.18 93.8379 176.24V185H91.0479V176.84C91.0479 175.88 90.9779 175.06 90.8379 174.38C90.7179 173.7 90.5079 173.15 90.2079 172.73C89.9079 172.31 89.5079 172.01 89.0079 171.83C88.5079 171.63 87.8879 171.53 87.1479 171.53C86.8479 171.53 86.5379 171.54 86.2179 171.56C85.8979 171.58 85.5879 171.61 85.2879 171.65C85.0079 171.67 84.7479 171.7 84.5079 171.74C84.2879 171.78 84.1279 171.81 84.0279 171.83V185H81.2379V169.85ZM108.244 183.44C108.004 183.6 107.534 183.81 106.834 184.07C106.154 184.31 105.354 184.43 104.434 184.43C103.494 184.43 102.604 184.28 101.764 183.98C100.944 183.68 100.224 183.22 99.6045 182.6C98.9845 181.96 98.4945 181.17 98.1345 180.23C97.7745 179.29 97.5945 178.17 97.5945 176.87C97.5945 175.73 97.7645 174.69 98.1045 173.75C98.4445 172.79 98.9345 171.97 99.5745 171.29C100.234 170.59 101.034 170.05 101.974 169.67C102.914 169.27 103.974 169.07 105.154 169.07C106.454 169.07 107.584 169.17 108.544 169.37C109.524 169.55 110.344 169.72 111.004 169.88V183.8C111.004 186.2 110.384 187.94 109.144 189.02C107.904 190.1 106.024 190.64 103.504 190.64C102.524 190.64 101.594 190.56 100.714 190.4C99.8545 190.24 99.1045 190.05 98.4645 189.83L98.9745 187.4C99.5345 187.62 100.214 187.81 101.014 187.97C101.834 188.15 102.684 188.24 103.564 188.24C105.224 188.24 106.414 187.91 107.134 187.25C107.874 186.59 108.244 185.54 108.244 184.1V183.44ZM108.214 171.86C107.934 171.78 107.554 171.71 107.074 171.65C106.614 171.57 105.984 171.53 105.184 171.53C103.684 171.53 102.524 172.02 101.704 173C100.904 173.98 100.504 175.28 100.504 176.9C100.504 177.8 100.614 178.57 100.834 179.21C101.074 179.85 101.384 180.38 101.764 180.8C102.164 181.22 102.614 181.53 103.114 181.73C103.634 181.93 104.164 182.03 104.704 182.03C105.444 182.03 106.124 181.93 106.744 181.73C107.364 181.51 107.854 181.26 108.214 180.98V171.86ZM134.362 169.52C134.362 170.24 134.212 170.94 133.912 171.62C133.632 172.28 133.252 172.94 132.772 173.6C132.292 174.24 131.752 174.88 131.152 175.52C130.552 176.14 129.952 176.75 129.352 177.35C129.012 177.69 128.612 178.09 128.152 178.55C127.712 179.01 127.292 179.49 126.892 179.99C126.492 180.49 126.152 180.97 125.872 181.43C125.612 181.89 125.482 182.29 125.482 182.63H135.052V185H122.452C122.432 184.88 122.422 184.76 122.422 184.64C122.422 184.52 122.422 184.41 122.422 184.31C122.422 183.37 122.572 182.5 122.872 181.7C123.192 180.88 123.602 180.11 124.102 179.39C124.602 178.67 125.162 177.99 125.782 177.35C126.402 176.71 127.012 176.09 127.612 175.49C128.112 175.01 128.582 174.54 129.022 174.08C129.482 173.6 129.882 173.13 130.222 172.67C130.582 172.19 130.862 171.7 131.062 171.2C131.282 170.7 131.392 170.17 131.392 169.61C131.392 169.01 131.292 168.5 131.092 168.08C130.912 167.66 130.662 167.31 130.342 167.03C130.022 166.75 129.642 166.55 129.202 166.43C128.782 166.29 128.332 166.22 127.852 166.22C127.272 166.22 126.742 166.3 126.262 166.46C125.782 166.62 125.352 166.81 124.972 167.03C124.592 167.23 124.272 167.45 124.012 167.69C123.752 167.91 123.552 168.08 123.412 168.2L122.032 166.22C122.212 166.02 122.482 165.78 122.842 165.5C123.202 165.2 123.632 164.92 124.132 164.66C124.632 164.4 125.192 164.18 125.812 164C126.432 163.82 127.102 163.73 127.822 163.73C130.002 163.73 131.632 164.24 132.712 165.26C133.812 166.26 134.362 167.68 134.362 169.52ZM149.359 176.03C149.359 178.59 149.729 180.96 150.469 183.14C151.209 185.32 152.299 187.34 153.739 189.2L151.759 190.55C150.199 188.65 148.939 186.47 147.979 184.01C147.039 181.53 146.569 178.87 146.569 176.03C146.569 173.19 147.039 170.54 147.979 168.08C148.939 165.6 150.199 163.41 151.759 161.51L153.739 162.86C152.299 164.72 151.209 166.74 150.469 168.92C149.729 171.1 149.359 173.47 149.359 176.03ZM160.735 182.96C162.515 182.96 163.785 182.61 164.545 181.91C165.325 181.21 165.715 180.27 165.715 179.09C165.715 178.33 165.555 177.69 165.235 177.17C164.915 176.65 164.495 176.24 163.975 175.94C163.455 175.62 162.845 175.4 162.145 175.28C161.465 175.14 160.765 175.07 160.045 175.07H159.325V172.79H160.315C160.815 172.79 161.325 172.74 161.845 172.64C162.385 172.54 162.875 172.36 163.315 172.1C163.755 171.84 164.115 171.49 164.395 171.05C164.675 170.59 164.815 170.02 164.815 169.34C164.815 168.78 164.715 168.3 164.515 167.9C164.315 167.5 164.045 167.17 163.705 166.91C163.385 166.65 163.005 166.47 162.565 166.37C162.145 166.25 161.695 166.19 161.215 166.19C160.255 166.19 159.435 166.33 158.755 166.61C158.095 166.89 157.535 167.18 157.075 167.48L155.995 165.35C156.235 165.19 156.535 165.02 156.895 164.84C157.275 164.64 157.695 164.46 158.155 164.3C158.615 164.14 159.105 164.01 159.625 163.91C160.165 163.79 160.725 163.73 161.305 163.73C162.405 163.73 163.355 163.87 164.155 164.15C164.955 164.41 165.615 164.79 166.135 165.29C166.655 165.77 167.045 166.35 167.305 167.03C167.565 167.69 167.695 168.41 167.695 169.19C167.695 170.27 167.385 171.2 166.765 171.98C166.145 172.74 165.395 173.32 164.515 173.72C165.055 173.88 165.575 174.11 166.075 174.41C166.575 174.71 167.005 175.09 167.365 175.55C167.745 176.01 168.045 176.54 168.265 177.14C168.505 177.74 168.625 178.41 168.625 179.15C168.625 180.05 168.465 180.89 168.145 181.67C167.845 182.43 167.365 183.09 166.705 183.65C166.065 184.21 165.255 184.65 164.275 184.97C163.295 185.29 162.135 185.45 160.795 185.45C160.275 185.45 159.735 185.41 159.175 185.33C158.635 185.25 158.125 185.15 157.645 185.03C157.165 184.91 156.745 184.79 156.385 184.67C156.025 184.55 155.765 184.45 155.605 184.37L156.145 181.94C156.485 182.1 157.045 182.31 157.825 182.57C158.625 182.83 159.595 182.96 160.735 182.96ZM172.389 174.59C172.389 171.11 172.999 168.43 174.219 166.55C175.459 164.67 177.169 163.73 179.349 163.73C181.529 163.73 183.229 164.67 184.449 166.55C185.689 168.43 186.309 171.11 186.309 174.59C186.309 178.07 185.689 180.75 184.449 182.63C183.229 184.51 181.529 185.45 179.349 185.45C177.169 185.45 175.459 184.51 174.219 182.63C172.999 180.75 172.389 178.07 172.389 174.59ZM183.369 174.59C183.369 173.45 183.299 172.37 183.159 171.35C183.039 170.33 182.819 169.44 182.499 168.68C182.199 167.92 181.789 167.32 181.269 166.88C180.749 166.42 180.109 166.19 179.349 166.19C178.589 166.19 177.949 166.42 177.429 166.88C176.909 167.32 176.489 167.92 176.169 168.68C175.869 169.44 175.649 170.33 175.509 171.35C175.389 172.37 175.329 173.45 175.329 174.59C175.329 175.73 175.389 176.81 175.509 177.83C175.649 178.85 175.869 179.74 176.169 180.5C176.489 181.26 176.909 181.87 177.429 182.33C177.949 182.77 178.589 182.99 179.349 182.99C180.109 182.99 180.749 182.77 181.269 182.33C181.789 181.87 182.199 181.26 182.499 180.5C182.819 179.74 183.039 178.85 183.159 177.83C183.299 176.81 183.369 175.73 183.369 174.59ZM201.052 177.23C201.052 175.41 200.602 174.01 199.702 173.03C198.802 172.05 197.602 171.56 196.102 171.56C195.262 171.56 194.602 171.59 194.122 171.65C193.662 171.71 193.292 171.78 193.012 171.86V181.7C193.352 181.98 193.842 182.25 194.482 182.51C195.122 182.77 195.822 182.9 196.582 182.9C197.382 182.9 198.062 182.76 198.622 182.48C199.202 182.18 199.672 181.78 200.032 181.28C200.392 180.76 200.652 180.16 200.812 179.48C200.972 178.78 201.052 178.03 201.052 177.23ZM203.962 177.23C203.962 178.41 203.802 179.5 203.482 180.5C203.182 181.5 202.732 182.36 202.132 183.08C201.532 183.8 200.792 184.36 199.912 184.76C199.052 185.16 198.062 185.36 196.942 185.36C196.042 185.36 195.242 185.24 194.542 185C193.862 184.76 193.352 184.53 193.012 184.31V190.55H190.222V169.88C190.882 169.72 191.702 169.55 192.682 169.37C193.682 169.17 194.832 169.07 196.132 169.07C197.332 169.07 198.412 169.26 199.372 169.64C200.332 170.02 201.152 170.56 201.832 171.26C202.512 171.96 203.032 172.82 203.392 173.84C203.772 174.84 203.962 175.97 203.962 177.23ZM210.498 169.4H216.408V171.74H210.498V178.94C210.498 179.72 210.558 180.37 210.678 180.89C210.798 181.39 210.978 181.79 211.218 182.09C211.458 182.37 211.758 182.57 212.118 182.69C212.478 182.81 212.898 182.87 213.378 182.87C214.218 182.87 214.888 182.78 215.388 182.6C215.908 182.4 216.268 182.26 216.468 182.18L217.008 184.49C216.728 184.63 216.238 184.8 215.538 185C214.838 185.22 214.038 185.33 213.138 185.33C212.078 185.33 211.198 185.2 210.498 184.94C209.818 184.66 209.268 184.25 208.848 183.71C208.428 183.17 208.128 182.51 207.948 181.73C207.788 180.93 207.708 180.01 207.708 178.97V165.05L210.498 164.57V169.4ZM222.149 176.03C222.149 173.47 221.779 171.1 221.039 168.92C220.299 166.74 219.209 164.72 217.769 162.86L219.749 161.51C221.309 163.41 222.559 165.6 223.499 168.08C224.459 170.54 224.939 173.19 224.939 176.03C224.939 178.87 224.459 181.53 223.499 184.01C222.559 186.47 221.309 188.65 219.749 190.55L217.769 189.2C219.209 187.34 220.299 185.32 221.039 183.14C221.779 180.96 222.149 178.59 222.149 176.03Z" fill="#403F3D"/>
<path d="M31.32 59.42H37.14V101H31.32V81.8H10.98V101H5.16V59.42H10.98V76.76H31.32V59.42ZM45.3647 85.46C45.3647 82.7 45.7647 80.3 46.5647 78.26C47.3647 76.18 48.4247 74.46 49.7447 73.1C51.0647 71.74 52.5847 70.72 54.3047 70.04C56.0247 69.36 57.7847 69.02 59.5847 69.02C63.7847 69.02 67.0047 70.34 69.2447 72.98C71.4847 75.58 72.6047 79.56 72.6047 84.92C72.6047 85.16 72.6047 85.48 72.6047 85.88C72.6047 86.24 72.5847 86.58 72.5447 86.9H51.1847C51.4247 90.14 52.3647 92.6 54.0047 94.28C55.6447 95.96 58.2047 96.8 61.6847 96.8C63.6447 96.8 65.2847 96.64 66.6047 96.32C67.9647 95.96 68.9847 95.62 69.6647 95.3L70.4447 99.98C69.7647 100.34 68.5647 100.72 66.8447 101.12C65.1647 101.52 63.2447 101.72 61.0847 101.72C58.3647 101.72 56.0047 101.32 54.0047 100.52C52.0447 99.68 50.4247 98.54 49.1447 97.1C47.8647 95.66 46.9047 93.96 46.2647 92C45.6647 90 45.3647 87.82 45.3647 85.46ZM66.7847 82.4C66.8247 79.88 66.1847 77.82 64.8647 76.22C63.5847 74.58 61.8047 73.76 59.5247 73.76C58.2447 73.76 57.1047 74.02 56.1047 74.54C55.1447 75.02 54.3247 75.66 53.6447 76.46C52.9647 77.26 52.4247 78.18 52.0247 79.22C51.6647 80.26 51.4247 81.32 51.3047 82.4H66.7847ZM91.1803 96.98C92.5003 96.98 93.6603 96.96 94.6603 96.92C95.7003 96.84 96.5603 96.72 97.2403 96.56V87.26C96.8403 87.06 96.1803 86.9 95.2603 86.78C94.3803 86.62 93.3003 86.54 92.0203 86.54C91.1803 86.54 90.2803 86.6 89.3203 86.72C88.4003 86.84 87.5403 87.1 86.7403 87.5C85.9803 87.86 85.3403 88.38 84.8203 89.06C84.3003 89.7 84.0403 90.56 84.0403 91.64C84.0403 93.64 84.6803 95.04 85.9603 95.84C87.2403 96.6 88.9803 96.98 91.1803 96.98ZM90.7003 69.02C92.9403 69.02 94.8203 69.32 96.3403 69.92C97.9003 70.48 99.1403 71.3 100.06 72.38C101.02 73.42 101.7 74.68 102.1 76.16C102.5 77.6 102.7 79.2 102.7 80.96V100.46C102.22 100.54 101.54 100.66 100.66 100.82C99.8203 100.94 98.8603 101.06 97.7803 101.18C96.7003 101.3 95.5203 101.4 94.2403 101.48C93.0003 101.6 91.7603 101.66 90.5203 101.66C88.7603 101.66 87.1403 101.48 85.6603 101.12C84.1803 100.76 82.9003 100.2 81.8203 99.44C80.7403 98.64 79.9003 97.6 79.3003 96.32C78.7003 95.04 78.4003 93.5 78.4003 91.7C78.4003 89.98 78.7403 88.5 79.4203 87.26C80.1403 86.02 81.1003 85.02 82.3003 84.26C83.5003 83.5 84.9003 82.94 86.5003 82.58C88.1003 82.22 89.7803 82.04 91.5403 82.04C92.1003 82.04 92.6803 82.08 93.2803 82.16C93.8803 82.2 94.4403 82.28 94.9603 82.4C95.5203 82.48 96.0003 82.56 96.4003 82.64C96.8003 82.72 97.0803 82.78 97.2403 82.82V81.26C97.2403 80.34 97.1403 79.44 96.9403 78.56C96.7403 77.64 96.3803 76.84 95.8603 76.16C95.3403 75.44 94.6203 74.88 93.7003 74.48C92.8203 74.04 91.6603 73.82 90.2203 73.82C88.3803 73.82 86.7603 73.96 85.3603 74.24C84.0003 74.48 82.9803 74.74 82.3003 75.02L81.6403 70.4C82.3603 70.08 83.5603 69.78 85.2403 69.5C86.9203 69.18 88.7403 69.02 90.7003 69.02ZM132.128 76.4C131.448 75.84 130.468 75.3 129.188 74.78C127.908 74.26 126.508 74 124.988 74C123.388 74 122.008 74.3 120.848 74.9C119.728 75.46 118.808 76.26 118.088 77.3C117.368 78.3 116.848 79.5 116.528 80.9C116.208 82.3 116.048 83.8 116.048 85.4C116.048 89.04 116.948 91.86 118.748 93.86C120.548 95.82 122.948 96.8 125.948 96.8C127.468 96.8 128.728 96.74 129.728 96.62C130.768 96.46 131.568 96.3 132.128 96.14V76.4ZM132.128 55.4L137.708 54.44V100.1C136.428 100.46 134.788 100.82 132.788 101.18C130.788 101.54 128.488 101.72 125.888 101.72C123.488 101.72 121.328 101.34 119.408 100.58C117.488 99.82 115.848 98.74 114.488 97.34C113.128 95.94 112.068 94.24 111.308 92.24C110.588 90.2 110.228 87.92 110.228 85.4C110.228 83 110.528 80.8 111.128 78.8C111.768 76.8 112.688 75.08 113.888 73.64C115.088 72.2 116.548 71.08 118.268 70.28C120.028 69.48 122.028 69.08 124.268 69.08C126.068 69.08 127.648 69.32 129.008 69.8C130.408 70.28 131.448 70.74 132.128 71.18V55.4ZM152.88 101H147.3V69.8H152.88V101ZM150.06 64.16C149.06 64.16 148.2 63.84 147.48 63.2C146.8 62.52 146.46 61.62 146.46 60.5C146.46 59.38 146.8 58.5 147.48 57.86C148.2 57.18 149.06 56.84 150.06 56.84C151.06 56.84 151.9 57.18 152.58 57.86C153.3 58.5 153.66 59.38 153.66 60.5C153.66 61.62 153.3 62.52 152.58 63.2C151.9 63.84 151.06 64.16 150.06 64.16ZM162.476 70.7C163.756 70.38 165.456 70.04 167.576 69.68C169.696 69.32 172.136 69.14 174.896 69.14C177.376 69.14 179.436 69.5 181.076 70.22C182.716 70.9 184.016 71.88 184.976 73.16C185.976 74.4 186.676 75.9 187.076 77.66C187.476 79.42 187.676 81.36 187.676 83.48V101H182.096V84.68C182.096 82.76 181.956 81.12 181.676 79.76C181.436 78.4 181.016 77.3 180.416 76.46C179.816 75.62 179.016 75.02 178.016 74.66C177.016 74.26 175.776 74.06 174.296 74.06C173.696 74.06 173.076 74.08 172.436 74.12C171.796 74.16 171.176 74.22 170.576 74.3C170.016 74.34 169.496 74.4 169.016 74.48C168.576 74.56 168.256 74.62 168.056 74.66V101H162.476V70.7ZM216.489 97.88C216.009 98.2 215.069 98.62 213.669 99.14C212.309 99.62 210.709 99.86 208.869 99.86C206.989 99.86 205.209 99.56 203.529 98.96C201.889 98.36 200.449 97.44 199.209 96.2C197.969 94.92 196.989 93.34 196.269 91.46C195.549 89.58 195.189 87.34 195.189 84.74C195.189 82.46 195.529 80.38 196.209 78.5C196.889 76.58 197.869 74.94 199.149 73.58C200.469 72.18 202.069 71.1 203.949 70.34C205.829 69.54 207.949 69.14 210.309 69.14C212.909 69.14 215.169 69.34 217.089 69.74C219.049 70.1 220.689 70.44 222.009 70.76V98.6C222.009 103.4 220.769 106.88 218.289 109.04C215.809 111.2 212.049 112.28 207.009 112.28C205.049 112.28 203.189 112.12 201.429 111.8C199.709 111.48 198.209 111.1 196.929 110.66L197.949 105.8C199.069 106.24 200.429 106.62 202.029 106.94C203.669 107.3 205.369 107.48 207.129 107.48C210.449 107.48 212.829 106.82 214.269 105.5C215.749 104.18 216.489 102.08 216.489 99.2V97.88ZM216.429 74.72C215.869 74.56 215.109 74.42 214.149 74.3C213.229 74.14 211.969 74.06 210.369 74.06C207.369 74.06 205.049 75.04 203.409 77C201.809 78.96 201.009 81.56 201.009 84.8C201.009 86.6 201.229 88.14 201.669 89.42C202.149 90.7 202.769 91.76 203.529 92.6C204.329 93.44 205.229 94.06 206.229 94.46C207.269 94.86 208.329 95.06 209.409 95.06C210.889 95.06 212.249 94.86 213.489 94.46C214.729 94.02 215.709 93.52 216.429 92.96V74.72ZM246.283 68C248.563 67.12 250.783 66 252.943 64.64C255.103 63.24 257.083 61.5 258.883 59.42H262.843V101H257.263V67.16C256.783 67.6 256.183 68.06 255.463 68.54C254.783 69.02 254.023 69.48 253.183 69.92C252.383 70.36 251.523 70.78 250.603 71.18C249.723 71.58 248.863 71.92 248.023 72.2L246.283 68Z" fill="#403F3D"/>
<path d="M6.8 129.36C6.97067 129.573 7.184 129.856 7.44 130.208C7.70667 130.549 7.97867 130.933 8.256 131.36C8.53333 131.776 8.80533 132.213 9.072 132.672C9.34933 133.131 9.584 133.573 9.776 134H8.08C7.86667 133.595 7.632 133.184 7.376 132.768C7.13067 132.352 6.88 131.957 6.624 131.584C6.368 131.2 6.112 130.843 5.856 130.512C5.61067 130.181 5.38667 129.893 5.184 129.648C5.04533 129.659 4.90133 129.664 4.752 129.664C4.61333 129.664 4.46933 129.664 4.32 129.664H2.928V134H1.376V123.072C1.81333 122.965 2.29867 122.896 2.832 122.864C3.376 122.821 3.872 122.8 4.32 122.8C5.87733 122.8 7.06133 123.093 7.872 123.68C8.69333 124.267 9.104 125.141 9.104 126.304C9.104 127.04 8.90667 127.669 8.512 128.192C8.128 128.715 7.55733 129.104 6.8 129.36ZM4.448 124.16C3.78667 124.16 3.28 124.176 2.928 124.208V128.384H4.032C4.56533 128.384 5.04533 128.357 5.472 128.304C5.89867 128.251 6.256 128.149 6.544 128C6.84267 127.851 7.072 127.643 7.232 127.376C7.392 127.099 7.472 126.736 7.472 126.288C7.472 125.872 7.392 125.525 7.232 125.248C7.072 124.971 6.85333 124.752 6.576 124.592C6.30933 124.432 5.98933 124.32 5.616 124.256C5.25333 124.192 4.864 124.16 4.448 124.16ZM10.8785 129.856C10.8785 129.12 10.9852 128.48 11.1985 127.936C11.4118 127.381 11.6945 126.923 12.0465 126.56C12.3985 126.197 12.8038 125.925 13.2625 125.744C13.7212 125.563 14.1905 125.472 14.6705 125.472C15.7905 125.472 16.6492 125.824 17.2465 126.528C17.8438 127.221 18.1425 128.283 18.1425 129.712C18.1425 129.776 18.1425 129.861 18.1425 129.968C18.1425 130.064 18.1372 130.155 18.1265 130.24H12.4305C12.4945 131.104 12.7452 131.76 13.1825 132.208C13.6198 132.656 14.3025 132.88 15.2305 132.88C15.7532 132.88 16.1905 132.837 16.5425 132.752C16.9052 132.656 17.1772 132.565 17.3585 132.48L17.5665 133.728C17.3852 133.824 17.0652 133.925 16.6065 134.032C16.1585 134.139 15.6465 134.192 15.0705 134.192C14.3452 134.192 13.7158 134.085 13.1825 133.872C12.6598 133.648 12.2278 133.344 11.8865 132.96C11.5452 132.576 11.2892 132.123 11.1185 131.6C10.9585 131.067 10.8785 130.485 10.8785 129.856ZM16.5905 129.04C16.6012 128.368 16.4305 127.819 16.0785 127.392C15.7372 126.955 15.2625 126.736 14.6545 126.736C14.3132 126.736 14.0092 126.805 13.7425 126.944C13.4865 127.072 13.2678 127.243 13.0865 127.456C12.9052 127.669 12.7612 127.915 12.6545 128.192C12.5585 128.469 12.4945 128.752 12.4625 129.04H16.5905ZM25.496 133.168C25.368 133.253 25.1173 133.365 24.744 133.504C24.3813 133.632 23.9547 133.696 23.464 133.696C22.9627 133.696 22.488 133.616 22.04 133.456C21.6027 133.296 21.2187 133.051 20.888 132.72C20.5573 132.379 20.296 131.957 20.104 131.456C19.912 130.955 19.816 130.357 19.816 129.664C19.816 129.056 19.9067 128.501 20.088 128C20.2693 127.488 20.5307 127.051 20.872 126.688C21.224 126.315 21.6507 126.027 22.152 125.824C22.6533 125.611 23.2187 125.504 23.848 125.504C24.5413 125.504 25.144 125.557 25.656 125.664C26.1787 125.76 26.616 125.851 26.968 125.936V133.36C26.968 134.64 26.6373 135.568 25.976 136.144C25.3147 136.72 24.312 137.008 22.968 137.008C22.4453 137.008 21.9493 136.965 21.48 136.88C21.0213 136.795 20.6213 136.693 20.28 136.576L20.552 135.28C20.8507 135.397 21.2133 135.499 21.64 135.584C22.0773 135.68 22.5307 135.728 23 135.728C23.8853 135.728 24.52 135.552 24.904 135.2C25.2987 134.848 25.496 134.288 25.496 133.52V133.168ZM25.48 126.992C25.3307 126.949 25.128 126.912 24.872 126.88C24.6267 126.837 24.2907 126.816 23.864 126.816C23.064 126.816 22.4453 127.077 22.008 127.6C21.5813 128.123 21.368 128.816 21.368 129.68C21.368 130.16 21.4267 130.571 21.544 130.912C21.672 131.253 21.8373 131.536 22.04 131.76C22.2533 131.984 22.4933 132.149 22.76 132.256C23.0373 132.363 23.32 132.416 23.608 132.416C24.0027 132.416 24.3653 132.363 24.696 132.256C25.0267 132.139 25.288 132.005 25.48 131.856V126.992ZM36.154 133.76C35.8127 133.845 35.3593 133.936 34.794 134.032C34.2393 134.128 33.594 134.176 32.858 134.176C32.218 134.176 31.6793 134.085 31.242 133.904C30.8047 133.712 30.4527 133.445 30.186 133.104C29.9193 132.763 29.7273 132.363 29.61 131.904C29.4927 131.435 29.434 130.917 29.434 130.352V125.68H30.922V130.032C30.922 131.045 31.082 131.771 31.402 132.208C31.722 132.645 32.2607 132.864 33.018 132.864C33.178 132.864 33.3433 132.859 33.514 132.848C33.6847 132.837 33.8447 132.827 33.994 132.816C34.1433 132.795 34.2767 132.779 34.394 132.768C34.522 132.747 34.6127 132.725 34.666 132.704V125.68H36.154V133.76ZM41.2135 134.16C40.2962 134.139 39.6455 133.941 39.2615 133.568C38.8775 133.195 38.6855 132.613 38.6855 131.824V121.84L40.1735 121.584V131.584C40.1735 131.829 40.1948 132.032 40.2375 132.192C40.2802 132.352 40.3495 132.48 40.4455 132.576C40.5415 132.672 40.6695 132.747 40.8295 132.8C40.9895 132.843 41.1868 132.88 41.4215 132.912L41.2135 134.16ZM45.9085 132.928C46.2605 132.928 46.5698 132.923 46.8365 132.912C47.1138 132.891 47.3432 132.859 47.5245 132.816V130.336C47.4178 130.283 47.2418 130.24 46.9965 130.208C46.7618 130.165 46.4738 130.144 46.1325 130.144C45.9085 130.144 45.6685 130.16 45.4125 130.192C45.1672 130.224 44.9378 130.293 44.7245 130.4C44.5218 130.496 44.3512 130.635 44.2125 130.816C44.0738 130.987 44.0045 131.216 44.0045 131.504C44.0045 132.037 44.1752 132.411 44.5165 132.624C44.8578 132.827 45.3218 132.928 45.9085 132.928ZM45.7805 125.472C46.3778 125.472 46.8792 125.552 47.2845 125.712C47.7005 125.861 48.0312 126.08 48.2765 126.368C48.5325 126.645 48.7138 126.981 48.8205 127.376C48.9272 127.76 48.9805 128.187 48.9805 128.656V133.856C48.8525 133.877 48.6712 133.909 48.4365 133.952C48.2125 133.984 47.9565 134.016 47.6685 134.048C47.3805 134.08 47.0658 134.107 46.7245 134.128C46.3938 134.16 46.0632 134.176 45.7325 134.176C45.2632 134.176 44.8312 134.128 44.4365 134.032C44.0418 133.936 43.7005 133.787 43.4125 133.584C43.1245 133.371 42.9005 133.093 42.7405 132.752C42.5805 132.411 42.5005 132 42.5005 131.52C42.5005 131.061 42.5912 130.667 42.7725 130.336C42.9645 130.005 43.2205 129.739 43.5405 129.536C43.8605 129.333 44.2338 129.184 44.6605 129.088C45.0872 128.992 45.5352 128.944 46.0045 128.944C46.1538 128.944 46.3085 128.955 46.4685 128.976C46.6285 128.987 46.7778 129.008 46.9165 129.04C47.0658 129.061 47.1938 129.083 47.3005 129.104C47.4072 129.125 47.4818 129.141 47.5245 129.152V128.736C47.5245 128.491 47.4978 128.251 47.4445 128.016C47.3912 127.771 47.2952 127.557 47.1565 127.376C47.0178 127.184 46.8258 127.035 46.5805 126.928C46.3458 126.811 46.0365 126.752 45.6525 126.752C45.1618 126.752 44.7298 126.789 44.3565 126.864C43.9938 126.928 43.7218 126.997 43.5405 127.072L43.3645 125.84C43.5565 125.755 43.8765 125.675 44.3245 125.6C44.7725 125.515 45.2578 125.472 45.7805 125.472ZM54.5239 125.504C54.6519 125.504 54.7959 125.515 54.9559 125.536C55.1265 125.547 55.2919 125.568 55.4519 125.6C55.6119 125.621 55.7559 125.648 55.8839 125.68C56.0225 125.701 56.1239 125.723 56.1879 125.744L55.9319 127.04C55.8145 126.997 55.6172 126.949 55.3399 126.896C55.0732 126.832 54.7265 126.8 54.2999 126.8C54.0225 126.8 53.7452 126.832 53.4679 126.896C53.2012 126.949 53.0252 126.987 52.9399 127.008V134H51.4519V126.032C51.8039 125.904 52.2412 125.787 52.7639 125.68C53.2865 125.563 53.8732 125.504 54.5239 125.504ZM58.3168 132.176C58.3274 132.261 58.3328 132.347 58.3328 132.432C58.3328 132.507 58.3328 132.587 58.3328 132.672C58.3328 133.344 58.2314 134.005 58.0288 134.656C57.8368 135.317 57.5701 135.947 57.2288 136.544L56.0768 136.176C56.3434 135.632 56.5194 135.077 56.6048 134.512C56.6901 133.957 56.7328 133.435 56.7328 132.944C56.7328 132.805 56.7274 132.672 56.7168 132.544C56.7168 132.416 56.7114 132.293 56.7008 132.176H58.3168ZM64.1174 129.552C64.1174 128.475 64.2667 127.525 64.5654 126.704C64.864 125.872 65.2854 125.173 65.8294 124.608C66.384 124.043 67.0507 123.616 67.8294 123.328C68.6187 123.029 69.504 122.875 70.4854 122.864L70.5974 124.112C69.968 124.123 69.392 124.192 68.8694 124.32C68.3574 124.448 67.8987 124.651 67.4934 124.928C67.088 125.205 66.7467 125.568 66.4694 126.016C66.192 126.453 65.984 126.997 65.8454 127.648C66.1227 127.52 66.432 127.413 66.7734 127.328C67.1254 127.243 67.488 127.2 67.8614 127.2C68.4907 127.2 69.024 127.296 69.4614 127.488C69.8987 127.68 70.256 127.936 70.5334 128.256C70.8107 128.565 71.008 128.928 71.1254 129.344C71.2534 129.749 71.3174 130.176 71.3174 130.624C71.3174 131.029 71.248 131.445 71.1094 131.872C70.9707 132.299 70.7574 132.688 70.4694 133.04C70.192 133.392 69.8347 133.68 69.3974 133.904C68.96 134.128 68.4427 134.24 67.8454 134.24C66.6294 134.24 65.7014 133.824 65.0614 132.992C64.432 132.16 64.1174 131.013 64.1174 129.552ZM67.7014 128.416C67.328 128.416 66.9814 128.453 66.6614 128.528C66.3414 128.592 66.0214 128.693 65.7014 128.832C65.6907 128.949 65.68 129.072 65.6694 129.2C65.6694 129.317 65.6694 129.435 65.6694 129.552C65.6694 130.021 65.7014 130.464 65.7654 130.88C65.8294 131.296 65.9414 131.664 66.1014 131.984C66.272 132.293 66.496 132.544 66.7734 132.736C67.0507 132.917 67.4027 133.008 67.8294 133.008C68.1814 133.008 68.48 132.933 68.7254 132.784C68.9707 132.635 69.1734 132.443 69.3334 132.208C69.4934 131.973 69.6054 131.723 69.6694 131.456C69.744 131.179 69.7814 130.912 69.7814 130.656C69.7814 129.931 69.6054 129.376 69.2534 128.992C68.912 128.608 68.3947 128.416 67.7014 128.416ZM72.9406 128.448C72.9406 126.592 73.266 125.163 73.9166 124.16C74.578 123.157 75.49 122.656 76.6526 122.656C77.8153 122.656 78.722 123.157 79.3726 124.16C80.034 125.163 80.3646 126.592 80.3646 128.448C80.3646 130.304 80.034 131.733 79.3726 132.736C78.722 133.739 77.8153 134.24 76.6526 134.24C75.49 134.24 74.578 133.739 73.9166 132.736C73.266 131.733 72.9406 130.304 72.9406 128.448ZM78.7966 128.448C78.7966 127.84 78.7593 127.264 78.6846 126.72C78.6206 126.176 78.5033 125.701 78.3326 125.296C78.1726 124.891 77.954 124.571 77.6766 124.336C77.3993 124.091 77.058 123.968 76.6526 123.968C76.2473 123.968 75.906 124.091 75.6286 124.336C75.3513 124.571 75.1273 124.891 74.9566 125.296C74.7966 125.701 74.6793 126.176 74.6046 126.72C74.5406 127.264 74.5086 127.84 74.5086 128.448C74.5086 129.056 74.5406 129.632 74.6046 130.176C74.6793 130.72 74.7966 131.195 74.9566 131.6C75.1273 132.005 75.3513 132.331 75.6286 132.576C75.906 132.811 76.2473 132.928 76.6526 132.928C77.058 132.928 77.3993 132.811 77.6766 132.576C77.954 132.331 78.1726 132.005 78.3326 131.6C78.5033 131.195 78.6206 130.72 78.6846 130.176C78.7593 129.632 78.7966 129.056 78.7966 128.448ZM88.2279 129.856C88.2279 128.885 87.9879 128.139 87.5079 127.616C87.0279 127.093 86.3879 126.832 85.5879 126.832C85.1399 126.832 84.7879 126.848 84.5319 126.88C84.2865 126.912 84.0892 126.949 83.9399 126.992V132.24C84.1212 132.389 84.3825 132.533 84.7239 132.672C85.0652 132.811 85.4385 132.88 85.8439 132.88C86.2705 132.88 86.6332 132.805 86.9319 132.656C87.2412 132.496 87.4919 132.283 87.6839 132.016C87.8759 131.739 88.0145 131.419 88.0999 131.056C88.1852 130.683 88.2279 130.283 88.2279 129.856ZM89.7799 129.856C89.7799 130.485 89.6945 131.067 89.5239 131.6C89.3639 132.133 89.1239 132.592 88.8039 132.976C88.4839 133.36 88.0892 133.659 87.6199 133.872C87.1612 134.085 86.6332 134.192 86.0359 134.192C85.5559 134.192 85.1292 134.128 84.7559 134C84.3932 133.872 84.1212 133.749 83.9399 133.632V136.96H82.4519V125.936C82.8039 125.851 83.2412 125.76 83.7639 125.664C84.2972 125.557 84.9105 125.504 85.6039 125.504C86.2439 125.504 86.8199 125.605 87.3319 125.808C87.8439 126.011 88.2812 126.299 88.6439 126.672C89.0065 127.045 89.2839 127.504 89.4759 128.048C89.6785 128.581 89.7799 129.184 89.7799 129.856ZM93.2658 125.68H96.4178V126.928H93.2658V130.768C93.2658 131.184 93.2978 131.531 93.3618 131.808C93.4258 132.075 93.5218 132.288 93.6498 132.448C93.7778 132.597 93.9378 132.704 94.1298 132.768C94.3218 132.832 94.5458 132.864 94.8018 132.864C95.2498 132.864 95.6071 132.816 95.8738 132.72C96.1511 132.613 96.3431 132.539 96.4498 132.496L96.7378 133.728C96.5884 133.803 96.3271 133.893 95.9538 134C95.5804 134.117 95.1538 134.176 94.6738 134.176C94.1084 134.176 93.6391 134.107 93.2658 133.968C92.9031 133.819 92.6098 133.6 92.3858 133.312C92.1618 133.024 92.0018 132.672 91.9058 132.256C91.8204 131.829 91.7778 131.339 91.7778 130.784V123.36L93.2658 123.104V125.68Z" fill="#8D9399"/>
<path d="M6.8 207.36C6.97067 207.573 7.184 207.856 7.44 208.208C7.70667 208.549 7.97867 208.933 8.256 209.36C8.53333 209.776 8.80533 210.213 9.072 210.672C9.34933 211.131 9.584 211.573 9.776 212H8.08C7.86667 211.595 7.632 211.184 7.376 210.768C7.13067 210.352 6.88 209.957 6.624 209.584C6.368 209.2 6.112 208.843 5.856 208.512C5.61067 208.181 5.38667 207.893 5.184 207.648C5.04533 207.659 4.90133 207.664 4.752 207.664C4.61333 207.664 4.46933 207.664 4.32 207.664H2.928V212H1.376V201.072C1.81333 200.965 2.29867 200.896 2.832 200.864C3.376 200.821 3.872 200.8 4.32 200.8C5.87733 200.8 7.06133 201.093 7.872 201.68C8.69333 202.267 9.104 203.141 9.104 204.304C9.104 205.04 8.90667 205.669 8.512 206.192C8.128 206.715 7.55733 207.104 6.8 207.36ZM4.448 202.16C3.78667 202.16 3.28 202.176 2.928 202.208V206.384H4.032C4.56533 206.384 5.04533 206.357 5.472 206.304C5.89867 206.251 6.256 206.149 6.544 206C6.84267 205.851 7.072 205.643 7.232 205.376C7.392 205.099 7.472 204.736 7.472 204.288C7.472 203.872 7.392 203.525 7.232 203.248C7.072 202.971 6.85333 202.752 6.576 202.592C6.30933 202.432 5.98933 202.32 5.616 202.256C5.25333 202.192 4.864 202.16 4.448 202.16ZM10.8785 207.856C10.8785 207.12 10.9852 206.48 11.1985 205.936C11.4118 205.381 11.6945 204.923 12.0465 204.56C12.3985 204.197 12.8038 203.925 13.2625 203.744C13.7212 203.563 14.1905 203.472 14.6705 203.472C15.7905 203.472 16.6492 203.824 17.2465 204.528C17.8438 205.221 18.1425 206.283 18.1425 207.712C18.1425 207.776 18.1425 207.861 18.1425 207.968C18.1425 208.064 18.1372 208.155 18.1265 208.24H12.4305C12.4945 209.104 12.7452 209.76 13.1825 210.208C13.6198 210.656 14.3025 210.88 15.2305 210.88C15.7532 210.88 16.1905 210.837 16.5425 210.752C16.9052 210.656 17.1772 210.565 17.3585 210.48L17.5665 211.728C17.3852 211.824 17.0652 211.925 16.6065 212.032C16.1585 212.139 15.6465 212.192 15.0705 212.192C14.3452 212.192 13.7158 212.085 13.1825 211.872C12.6598 211.648 12.2278 211.344 11.8865 210.96C11.5452 210.576 11.2892 210.123 11.1185 209.6C10.9585 209.067 10.8785 208.485 10.8785 207.856ZM16.5905 207.04C16.6012 206.368 16.4305 205.819 16.0785 205.392C15.7372 204.955 15.2625 204.736 14.6545 204.736C14.3132 204.736 14.0092 204.805 13.7425 204.944C13.4865 205.072 13.2678 205.243 13.0865 205.456C12.9052 205.669 12.7612 205.915 12.6545 206.192C12.5585 206.469 12.4945 206.752 12.4625 207.04H16.5905ZM25.496 211.168C25.368 211.253 25.1173 211.365 24.744 211.504C24.3813 211.632 23.9547 211.696 23.464 211.696C22.9627 211.696 22.488 211.616 22.04 211.456C21.6027 211.296 21.2187 211.051 20.888 210.72C20.5573 210.379 20.296 209.957 20.104 209.456C19.912 208.955 19.816 208.357 19.816 207.664C19.816 207.056 19.9067 206.501 20.088 206C20.2693 205.488 20.5307 205.051 20.872 204.688C21.224 204.315 21.6507 204.027 22.152 203.824C22.6533 203.611 23.2187 203.504 23.848 203.504C24.5413 203.504 25.144 203.557 25.656 203.664C26.1787 203.76 26.616 203.851 26.968 203.936V211.36C26.968 212.64 26.6373 213.568 25.976 214.144C25.3147 214.72 24.312 215.008 22.968 215.008C22.4453 215.008 21.9493 214.965 21.48 214.88C21.0213 214.795 20.6213 214.693 20.28 214.576L20.552 213.28C20.8507 213.397 21.2133 213.499 21.64 213.584C22.0773 213.68 22.5307 213.728 23 213.728C23.8853 213.728 24.52 213.552 24.904 213.2C25.2987 212.848 25.496 212.288 25.496 211.52V211.168ZM25.48 204.992C25.3307 204.949 25.128 204.912 24.872 204.88C24.6267 204.837 24.2907 204.816 23.864 204.816C23.064 204.816 22.4453 205.077 22.008 205.6C21.5813 206.123 21.368 206.816 21.368 207.68C21.368 208.16 21.4267 208.571 21.544 208.912C21.672 209.253 21.8373 209.536 22.04 209.76C22.2533 209.984 22.4933 210.149 22.76 210.256C23.0373 210.363 23.32 210.416 23.608 210.416C24.0027 210.416 24.3653 210.363 24.696 210.256C25.0267 210.139 25.288 210.005 25.48 209.856V204.992ZM36.154 211.76C35.8127 211.845 35.3593 211.936 34.794 212.032C34.2393 212.128 33.594 212.176 32.858 212.176C32.218 212.176 31.6793 212.085 31.242 211.904C30.8047 211.712 30.4527 211.445 30.186 211.104C29.9193 210.763 29.7273 210.363 29.61 209.904C29.4927 209.435 29.434 208.917 29.434 208.352V203.68H30.922V208.032C30.922 209.045 31.082 209.771 31.402 210.208C31.722 210.645 32.2607 210.864 33.018 210.864C33.178 210.864 33.3433 210.859 33.514 210.848C33.6847 210.837 33.8447 210.827 33.994 210.816C34.1433 210.795 34.2767 210.779 34.394 210.768C34.522 210.747 34.6127 210.725 34.666 210.704V203.68H36.154V211.76ZM41.2135 212.16C40.2962 212.139 39.6455 211.941 39.2615 211.568C38.8775 211.195 38.6855 210.613 38.6855 209.824V199.84L40.1735 199.584V209.584C40.1735 209.829 40.1948 210.032 40.2375 210.192C40.2802 210.352 40.3495 210.48 40.4455 210.576C40.5415 210.672 40.6695 210.747 40.8295 210.8C40.9895 210.843 41.1868 210.88 41.4215 210.912L41.2135 212.16ZM45.9085 210.928C46.2605 210.928 46.5698 210.923 46.8365 210.912C47.1138 210.891 47.3432 210.859 47.5245 210.816V208.336C47.4178 208.283 47.2418 208.24 46.9965 208.208C46.7618 208.165 46.4738 208.144 46.1325 208.144C45.9085 208.144 45.6685 208.16 45.4125 208.192C45.1672 208.224 44.9378 208.293 44.7245 208.4C44.5218 208.496 44.3512 208.635 44.2125 208.816C44.0738 208.987 44.0045 209.216 44.0045 209.504C44.0045 210.037 44.1752 210.411 44.5165 210.624C44.8578 210.827 45.3218 210.928 45.9085 210.928ZM45.7805 203.472C46.3778 203.472 46.8792 203.552 47.2845 203.712C47.7005 203.861 48.0312 204.08 48.2765 204.368C48.5325 204.645 48.7138 204.981 48.8205 205.376C48.9272 205.76 48.9805 206.187 48.9805 206.656V211.856C48.8525 211.877 48.6712 211.909 48.4365 211.952C48.2125 211.984 47.9565 212.016 47.6685 212.048C47.3805 212.08 47.0658 212.107 46.7245 212.128C46.3938 212.16 46.0632 212.176 45.7325 212.176C45.2632 212.176 44.8312 212.128 44.4365 212.032C44.0418 211.936 43.7005 211.787 43.4125 211.584C43.1245 211.371 42.9005 211.093 42.7405 210.752C42.5805 210.411 42.5005 210 42.5005 209.52C42.5005 209.061 42.5912 208.667 42.7725 208.336C42.9645 208.005 43.2205 207.739 43.5405 207.536C43.8605 207.333 44.2338 207.184 44.6605 207.088C45.0872 206.992 45.5352 206.944 46.0045 206.944C46.1538 206.944 46.3085 206.955 46.4685 206.976C46.6285 206.987 46.7778 207.008 46.9165 207.04C47.0658 207.061 47.1938 207.083 47.3005 207.104C47.4072 207.125 47.4818 207.141 47.5245 207.152V206.736C47.5245 206.491 47.4978 206.251 47.4445 206.016C47.3912 205.771 47.2952 205.557 47.1565 205.376C47.0178 205.184 46.8258 205.035 46.5805 204.928C46.3458 204.811 46.0365 204.752 45.6525 204.752C45.1618 204.752 44.7298 204.789 44.3565 204.864C43.9938 204.928 43.7218 204.997 43.5405 205.072L43.3645 203.84C43.5565 203.755 43.8765 203.675 44.3245 203.6C44.7725 203.515 45.2578 203.472 45.7805 203.472ZM54.5239 203.504C54.6519 203.504 54.7959 203.515 54.9559 203.536C55.1265 203.547 55.2919 203.568 55.4519 203.6C55.6119 203.621 55.7559 203.648 55.8839 203.68C56.0225 203.701 56.1239 203.723 56.1879 203.744L55.9319 205.04C55.8145 204.997 55.6172 204.949 55.3399 204.896C55.0732 204.832 54.7265 204.8 54.2999 204.8C54.0225 204.8 53.7452 204.832 53.4679 204.896C53.2012 204.949 53.0252 204.987 52.9399 205.008V212H51.4519V204.032C51.8039 203.904 52.2412 203.787 52.7639 203.68C53.2865 203.563 53.8732 203.504 54.5239 203.504ZM58.3168 210.176C58.3274 210.261 58.3328 210.347 58.3328 210.432C58.3328 210.507 58.3328 210.587 58.3328 210.672C58.3328 211.344 58.2314 212.005 58.0288 212.656C57.8368 213.317 57.5701 213.947 57.2288 214.544L56.0768 214.176C56.3434 213.632 56.5194 213.077 56.6048 212.512C56.6901 211.957 56.7328 211.435 56.7328 210.944C56.7328 210.805 56.7274 210.672 56.7168 210.544C56.7168 210.416 56.7114 210.293 56.7008 210.176H58.3168ZM66.7254 210.912C67.6747 210.912 68.352 210.725 68.7574 210.352C69.1734 209.979 69.3814 209.477 69.3814 208.848C69.3814 208.443 69.296 208.101 69.1254 207.824C68.9547 207.547 68.7307 207.328 68.4534 207.168C68.176 206.997 67.8507 206.88 67.4774 206.816C67.1147 206.741 66.7414 206.704 66.3574 206.704H65.9734V205.488H66.5014C66.768 205.488 67.04 205.461 67.3174 205.408C67.6054 205.355 67.8667 205.259 68.1014 205.12C68.336 204.981 68.528 204.795 68.6774 204.56C68.8267 204.315 68.9014 204.011 68.9014 203.648C68.9014 203.349 68.848 203.093 68.7414 202.88C68.6347 202.667 68.4907 202.491 68.3094 202.352C68.1387 202.213 67.936 202.117 67.7014 202.064C67.4774 202 67.2374 201.968 66.9814 201.968C66.4694 201.968 66.032 202.043 65.6694 202.192C65.3174 202.341 65.0187 202.496 64.7734 202.656L64.1974 201.52C64.3254 201.435 64.4854 201.344 64.6774 201.248C64.88 201.141 65.104 201.045 65.3494 200.96C65.5947 200.875 65.856 200.805 66.1334 200.752C66.4214 200.688 66.72 200.656 67.0294 200.656C67.616 200.656 68.1227 200.731 68.5494 200.88C68.976 201.019 69.328 201.221 69.6054 201.488C69.8827 201.744 70.0907 202.053 70.2294 202.416C70.368 202.768 70.4374 203.152 70.4374 203.568C70.4374 204.144 70.272 204.64 69.9414 205.056C69.6107 205.461 69.2107 205.771 68.7414 205.984C69.0294 206.069 69.3067 206.192 69.5734 206.352C69.84 206.512 70.0694 206.715 70.2614 206.96C70.464 207.205 70.624 207.488 70.7414 207.808C70.8694 208.128 70.9334 208.485 70.9334 208.88C70.9334 209.36 70.848 209.808 70.6774 210.224C70.5174 210.629 70.2614 210.981 69.9094 211.28C69.568 211.579 69.136 211.813 68.6134 211.984C68.0907 212.155 67.472 212.24 66.7574 212.24C66.48 212.24 66.192 212.219 65.8934 212.176C65.6054 212.133 65.3334 212.08 65.0774 212.016C64.8214 211.952 64.5974 211.888 64.4054 211.824C64.2134 211.76 64.0747 211.707 63.9894 211.664L64.2774 210.368C64.4587 210.453 64.7574 210.565 65.1734 210.704C65.6 210.843 66.1174 210.912 66.7254 210.912ZM72.9406 206.448C72.9406 204.592 73.266 203.163 73.9166 202.16C74.578 201.157 75.49 200.656 76.6526 200.656C77.8153 200.656 78.722 201.157 79.3726 202.16C80.034 203.163 80.3646 204.592 80.3646 206.448C80.3646 208.304 80.034 209.733 79.3726 210.736C78.722 211.739 77.8153 212.24 76.6526 212.24C75.49 212.24 74.578 211.739 73.9166 210.736C73.266 209.733 72.9406 208.304 72.9406 206.448ZM78.7966 206.448C78.7966 205.84 78.7593 205.264 78.6846 204.72C78.6206 204.176 78.5033 203.701 78.3326 203.296C78.1726 202.891 77.954 202.571 77.6766 202.336C77.3993 202.091 77.058 201.968 76.6526 201.968C76.2473 201.968 75.906 202.091 75.6286 202.336C75.3513 202.571 75.1273 202.891 74.9566 203.296C74.7966 203.701 74.6793 204.176 74.6046 204.72C74.5406 205.264 74.5086 205.84 74.5086 206.448C74.5086 207.056 74.5406 207.632 74.6046 208.176C74.6793 208.72 74.7966 209.195 74.9566 209.6C75.1273 210.005 75.3513 210.331 75.6286 210.576C75.906 210.811 76.2473 210.928 76.6526 210.928C77.058 210.928 77.3993 210.811 77.6766 210.576C77.954 210.331 78.1726 210.005 78.3326 209.6C78.5033 209.195 78.6206 208.72 78.6846 208.176C78.7593 207.632 78.7966 207.056 78.7966 206.448ZM88.2279 207.856C88.2279 206.885 87.9879 206.139 87.5079 205.616C87.0279 205.093 86.3879 204.832 85.5879 204.832C85.1399 204.832 84.7879 204.848 84.5319 204.88C84.2865 204.912 84.0892 204.949 83.9399 204.992V210.24C84.1212 210.389 84.3825 210.533 84.7239 210.672C85.0652 210.811 85.4385 210.88 85.8439 210.88C86.2705 210.88 86.6332 210.805 86.9319 210.656C87.2412 210.496 87.4919 210.283 87.6839 210.016C87.8759 209.739 88.0145 209.419 88.0999 209.056C88.1852 208.683 88.2279 208.283 88.2279 207.856ZM89.7799 207.856C89.7799 208.485 89.6945 209.067 89.5239 209.6C89.3639 210.133 89.1239 210.592 88.8039 210.976C88.4839 211.36 88.0892 211.659 87.6199 211.872C87.1612 212.085 86.6332 212.192 86.0359 212.192C85.5559 212.192 85.1292 212.128 84.7559 212C84.3932 211.872 84.1212 211.749 83.9399 211.632V214.96H82.4519V203.936C82.8039 203.851 83.2412 203.76 83.7639 203.664C84.2972 203.557 84.9105 203.504 85.6039 203.504C86.2439 203.504 86.8199 203.605 87.3319 203.808C87.8439 204.011 88.2812 204.299 88.6439 204.672C89.0065 205.045 89.2839 205.504 89.4759 206.048C89.6785 206.581 89.7799 207.184 89.7799 207.856ZM93.2658 203.68H96.4178V204.928H93.2658V208.768C93.2658 209.184 93.2978 209.531 93.3618 209.808C93.4258 210.075 93.5218 210.288 93.6498 210.448C93.7778 210.597 93.9378 210.704 94.1298 210.768C94.3218 210.832 94.5458 210.864 94.8018 210.864C95.2498 210.864 95.6071 210.816 95.8738 210.72C96.1511 210.613 96.3431 210.539 96.4498 210.496L96.7378 211.728C96.5884 211.803 96.3271 211.893 95.9538 212C95.5804 212.117 95.1538 212.176 94.6738 212.176C94.1084 212.176 93.6391 212.107 93.2658 211.968C92.9031 211.819 92.6098 211.6 92.3858 211.312C92.1618 211.024 92.0018 210.672 91.9058 210.256C91.8204 209.829 91.7778 209.339 91.7778 208.784V201.36L93.2658 201.104V203.68Z" fill="#8D9399"/>
<path d="M6.8 279.36C6.97067 279.573 7.184 279.856 7.44 280.208C7.70667 280.549 7.97867 280.933 8.256 281.36C8.53333 281.776 8.80533 282.213 9.072 282.672C9.34933 283.131 9.584 283.573 9.776 284H8.08C7.86667 283.595 7.632 283.184 7.376 282.768C7.13067 282.352 6.88 281.957 6.624 281.584C6.368 281.2 6.112 280.843 5.856 280.512C5.61067 280.181 5.38667 279.893 5.184 279.648C5.04533 279.659 4.90133 279.664 4.752 279.664C4.61333 279.664 4.46933 279.664 4.32 279.664H2.928V284H1.376V273.072C1.81333 272.965 2.29867 272.896 2.832 272.864C3.376 272.821 3.872 272.8 4.32 272.8C5.87733 272.8 7.06133 273.093 7.872 273.68C8.69333 274.267 9.104 275.141 9.104 276.304C9.104 277.04 8.90667 277.669 8.512 278.192C8.128 278.715 7.55733 279.104 6.8 279.36ZM4.448 274.16C3.78667 274.16 3.28 274.176 2.928 274.208V278.384H4.032C4.56533 278.384 5.04533 278.357 5.472 278.304C5.89867 278.251 6.256 278.149 6.544 278C6.84267 277.851 7.072 277.643 7.232 277.376C7.392 277.099 7.472 276.736 7.472 276.288C7.472 275.872 7.392 275.525 7.232 275.248C7.072 274.971 6.85333 274.752 6.576 274.592C6.30933 274.432 5.98933 274.32 5.616 274.256C5.25333 274.192 4.864 274.16 4.448 274.16ZM10.8785 279.856C10.8785 279.12 10.9852 278.48 11.1985 277.936C11.4118 277.381 11.6945 276.923 12.0465 276.56C12.3985 276.197 12.8038 275.925 13.2625 275.744C13.7212 275.563 14.1905 275.472 14.6705 275.472C15.7905 275.472 16.6492 275.824 17.2465 276.528C17.8438 277.221 18.1425 278.283 18.1425 279.712C18.1425 279.776 18.1425 279.861 18.1425 279.968C18.1425 280.064 18.1372 280.155 18.1265 280.24H12.4305C12.4945 281.104 12.7452 281.76 13.1825 282.208C13.6198 282.656 14.3025 282.88 15.2305 282.88C15.7532 282.88 16.1905 282.837 16.5425 282.752C16.9052 282.656 17.1772 282.565 17.3585 282.48L17.5665 283.728C17.3852 283.824 17.0652 283.925 16.6065 284.032C16.1585 284.139 15.6465 284.192 15.0705 284.192C14.3452 284.192 13.7158 284.085 13.1825 283.872C12.6598 283.648 12.2278 283.344 11.8865 282.96C11.5452 282.576 11.2892 282.123 11.1185 281.6C10.9585 281.067 10.8785 280.485 10.8785 279.856ZM16.5905 279.04C16.6012 278.368 16.4305 277.819 16.0785 277.392C15.7372 276.955 15.2625 276.736 14.6545 276.736C14.3132 276.736 14.0092 276.805 13.7425 276.944C13.4865 277.072 13.2678 277.243 13.0865 277.456C12.9052 277.669 12.7612 277.915 12.6545 278.192C12.5585 278.469 12.4945 278.752 12.4625 279.04H16.5905ZM25.496 283.168C25.368 283.253 25.1173 283.365 24.744 283.504C24.3813 283.632 23.9547 283.696 23.464 283.696C22.9627 283.696 22.488 283.616 22.04 283.456C21.6027 283.296 21.2187 283.051 20.888 282.72C20.5573 282.379 20.296 281.957 20.104 281.456C19.912 280.955 19.816 280.357 19.816 279.664C19.816 279.056 19.9067 278.501 20.088 278C20.2693 277.488 20.5307 277.051 20.872 276.688C21.224 276.315 21.6507 276.027 22.152 275.824C22.6533 275.611 23.2187 275.504 23.848 275.504C24.5413 275.504 25.144 275.557 25.656 275.664C26.1787 275.76 26.616 275.851 26.968 275.936V283.36C26.968 284.64 26.6373 285.568 25.976 286.144C25.3147 286.72 24.312 287.008 22.968 287.008C22.4453 287.008 21.9493 286.965 21.48 286.88C21.0213 286.795 20.6213 286.693 20.28 286.576L20.552 285.28C20.8507 285.397 21.2133 285.499 21.64 285.584C22.0773 285.68 22.5307 285.728 23 285.728C23.8853 285.728 24.52 285.552 24.904 285.2C25.2987 284.848 25.496 284.288 25.496 283.52V283.168ZM25.48 276.992C25.3307 276.949 25.128 276.912 24.872 276.88C24.6267 276.837 24.2907 276.816 23.864 276.816C23.064 276.816 22.4453 277.077 22.008 277.6C21.5813 278.123 21.368 278.816 21.368 279.68C21.368 280.16 21.4267 280.571 21.544 280.912C21.672 281.253 21.8373 281.536 22.04 281.76C22.2533 281.984 22.4933 282.149 22.76 282.256C23.0373 282.363 23.32 282.416 23.608 282.416C24.0027 282.416 24.3653 282.363 24.696 282.256C25.0267 282.139 25.288 282.005 25.48 281.856V276.992ZM36.154 283.76C35.8127 283.845 35.3593 283.936 34.794 284.032C34.2393 284.128 33.594 284.176 32.858 284.176C32.218 284.176 31.6793 284.085 31.242 283.904C30.8047 283.712 30.4527 283.445 30.186 283.104C29.9193 282.763 29.7273 282.363 29.61 281.904C29.4927 281.435 29.434 280.917 29.434 280.352V275.68H30.922V280.032C30.922 281.045 31.082 281.771 31.402 282.208C31.722 282.645 32.2607 282.864 33.018 282.864C33.178 282.864 33.3433 282.859 33.514 282.848C33.6847 282.837 33.8447 282.827 33.994 282.816C34.1433 282.795 34.2767 282.779 34.394 282.768C34.522 282.747 34.6127 282.725 34.666 282.704V275.68H36.154V283.76ZM41.2135 284.16C40.2962 284.139 39.6455 283.941 39.2615 283.568C38.8775 283.195 38.6855 282.613 38.6855 281.824V271.84L40.1735 271.584V281.584C40.1735 281.829 40.1948 282.032 40.2375 282.192C40.2802 282.352 40.3495 282.48 40.4455 282.576C40.5415 282.672 40.6695 282.747 40.8295 282.8C40.9895 282.843 41.1868 282.88 41.4215 282.912L41.2135 284.16ZM45.9085 282.928C46.2605 282.928 46.5698 282.923 46.8365 282.912C47.1138 282.891 47.3432 282.859 47.5245 282.816V280.336C47.4178 280.283 47.2418 280.24 46.9965 280.208C46.7618 280.165 46.4738 280.144 46.1325 280.144C45.9085 280.144 45.6685 280.16 45.4125 280.192C45.1672 280.224 44.9378 280.293 44.7245 280.4C44.5218 280.496 44.3512 280.635 44.2125 280.816C44.0738 280.987 44.0045 281.216 44.0045 281.504C44.0045 282.037 44.1752 282.411 44.5165 282.624C44.8578 282.827 45.3218 282.928 45.9085 282.928ZM45.7805 275.472C46.3778 275.472 46.8792 275.552 47.2845 275.712C47.7005 275.861 48.0312 276.08 48.2765 276.368C48.5325 276.645 48.7138 276.981 48.8205 277.376C48.9272 277.76 48.9805 278.187 48.9805 278.656V283.856C48.8525 283.877 48.6712 283.909 48.4365 283.952C48.2125 283.984 47.9565 284.016 47.6685 284.048C47.3805 284.08 47.0658 284.107 46.7245 284.128C46.3938 284.16 46.0632 284.176 45.7325 284.176C45.2632 284.176 44.8312 284.128 44.4365 284.032C44.0418 283.936 43.7005 283.787 43.4125 283.584C43.1245 283.371 42.9005 283.093 42.7405 282.752C42.5805 282.411 42.5005 282 42.5005 281.52C42.5005 281.061 42.5912 280.667 42.7725 280.336C42.9645 280.005 43.2205 279.739 43.5405 279.536C43.8605 279.333 44.2338 279.184 44.6605 279.088C45.0872 278.992 45.5352 278.944 46.0045 278.944C46.1538 278.944 46.3085 278.955 46.4685 278.976C46.6285 278.987 46.7778 279.008 46.9165 279.04C47.0658 279.061 47.1938 279.083 47.3005 279.104C47.4072 279.125 47.4818 279.141 47.5245 279.152V278.736C47.5245 278.491 47.4978 278.251 47.4445 278.016C47.3912 277.771 47.2952 277.557 47.1565 277.376C47.0178 277.184 46.8258 277.035 46.5805 276.928C46.3458 276.811 46.0365 276.752 45.6525 276.752C45.1618 276.752 44.7298 276.789 44.3565 276.864C43.9938 276.928 43.7218 276.997 43.5405 277.072L43.3645 275.84C43.5565 275.755 43.8765 275.675 44.3245 275.6C44.7725 275.515 45.2578 275.472 45.7805 275.472ZM54.5239 275.504C54.6519 275.504 54.7959 275.515 54.9559 275.536C55.1265 275.547 55.2919 275.568 55.4519 275.6C55.6119 275.621 55.7559 275.648 55.8839 275.68C56.0225 275.701 56.1239 275.723 56.1879 275.744L55.9319 277.04C55.8145 276.997 55.6172 276.949 55.3399 276.896C55.0732 276.832 54.7265 276.8 54.2999 276.8C54.0225 276.8 53.7452 276.832 53.4679 276.896C53.2012 276.949 53.0252 276.987 52.9399 277.008V284H51.4519V276.032C51.8039 275.904 52.2412 275.787 52.7639 275.68C53.2865 275.563 53.8732 275.504 54.5239 275.504ZM58.3168 282.176C58.3274 282.261 58.3328 282.347 58.3328 282.432C58.3328 282.507 58.3328 282.587 58.3328 282.672C58.3328 283.344 58.2314 284.005 58.0288 284.656C57.8368 285.317 57.5701 285.947 57.2288 286.544L56.0768 286.176C56.3434 285.632 56.5194 285.077 56.6048 284.512C56.6901 283.957 56.7328 283.435 56.7328 282.944C56.7328 282.805 56.7274 282.672 56.7168 282.544C56.7168 282.416 56.7114 282.293 56.7008 282.176H58.3168ZM70.5814 275.744C70.5814 276.128 70.5014 276.501 70.3414 276.864C70.192 277.216 69.9894 277.568 69.7334 277.92C69.4774 278.261 69.1894 278.603 68.8694 278.944C68.5494 279.275 68.2294 279.6 67.9094 279.92C67.728 280.101 67.5147 280.315 67.2694 280.56C67.0347 280.805 66.8107 281.061 66.5974 281.328C66.384 281.595 66.2027 281.851 66.0534 282.096C65.9147 282.341 65.8454 282.555 65.8454 282.736H70.9494V284H64.2294C64.2187 283.936 64.2134 283.872 64.2134 283.808C64.2134 283.744 64.2134 283.685 64.2134 283.632C64.2134 283.131 64.2934 282.667 64.4534 282.24C64.624 281.803 64.8427 281.392 65.1094 281.008C65.376 280.624 65.6747 280.261 66.0054 279.92C66.336 279.579 66.6614 279.248 66.9814 278.928C67.248 278.672 67.4987 278.421 67.7334 278.176C67.9787 277.92 68.192 277.669 68.3734 277.424C68.5654 277.168 68.7147 276.907 68.8214 276.64C68.9387 276.373 68.9974 276.091 68.9974 275.792C68.9974 275.472 68.944 275.2 68.8374 274.976C68.7414 274.752 68.608 274.565 68.4374 274.416C68.2667 274.267 68.064 274.16 67.8294 274.096C67.6054 274.021 67.3654 273.984 67.1094 273.984C66.8 273.984 66.5174 274.027 66.2614 274.112C66.0054 274.197 65.776 274.299 65.5734 274.416C65.3707 274.523 65.2 274.64 65.0614 274.768C64.9227 274.885 64.816 274.976 64.7414 275.04L64.0054 273.984C64.1014 273.877 64.2454 273.749 64.4374 273.6C64.6294 273.44 64.8587 273.291 65.1254 273.152C65.392 273.013 65.6907 272.896 66.0214 272.8C66.352 272.704 66.7094 272.656 67.0934 272.656C68.256 272.656 69.1254 272.928 69.7014 273.472C70.288 274.005 70.5814 274.763 70.5814 275.744ZM72.7806 280.16C72.9833 279.691 73.2606 279.147 73.6126 278.528C73.9646 277.899 74.3593 277.253 74.7966 276.592C75.2446 275.931 75.7193 275.28 76.2206 274.64C76.7326 274 77.2446 273.424 77.7566 272.912H79.1806V279.952H80.4926V281.168H79.1806V284H77.7406V281.168H72.7806V280.16ZM77.7406 274.672C77.4206 275.013 77.0953 275.397 76.7646 275.824C76.4446 276.24 76.13 276.677 75.8206 277.136C75.5113 277.595 75.218 278.064 74.9406 278.544C74.674 279.024 74.434 279.493 74.2206 279.952H77.7406V274.672ZM88.2279 279.856C88.2279 278.885 87.9879 278.139 87.5079 277.616C87.0279 277.093 86.3879 276.832 85.5879 276.832C85.1399 276.832 84.7879 276.848 84.5319 276.88C84.2865 276.912 84.0892 276.949 83.9399 276.992V282.24C84.1212 282.389 84.3825 282.533 84.7239 282.672C85.0652 282.811 85.4385 282.88 85.8439 282.88C86.2705 282.88 86.6332 282.805 86.9319 282.656C87.2412 282.496 87.4919 282.283 87.6839 282.016C87.8759 281.739 88.0145 281.419 88.0999 281.056C88.1852 280.683 88.2279 280.283 88.2279 279.856ZM89.7799 279.856C89.7799 280.485 89.6945 281.067 89.5239 281.6C89.3639 282.133 89.1239 282.592 88.8039 282.976C88.4839 283.36 88.0892 283.659 87.6199 283.872C87.1612 284.085 86.6332 284.192 86.0359 284.192C85.5559 284.192 85.1292 284.128 84.7559 284C84.3932 283.872 84.1212 283.749 83.9399 283.632V286.96H82.4519V275.936C82.8039 275.851 83.2412 275.76 83.7639 275.664C84.2972 275.557 84.9105 275.504 85.6039 275.504C86.2439 275.504 86.8199 275.605 87.3319 275.808C87.8439 276.011 88.2812 276.299 88.6439 276.672C89.0065 277.045 89.2839 277.504 89.4759 278.048C89.6785 278.581 89.7799 279.184 89.7799 279.856ZM93.2658 275.68H96.4178V276.928H93.2658V280.768C93.2658 281.184 93.2978 281.531 93.3618 281.808C93.4258 282.075 93.5218 282.288 93.6498 282.448C93.7778 282.597 93.9378 282.704 94.1298 282.768C94.3218 282.832 94.5458 282.864 94.8018 282.864C95.2498 282.864 95.6071 282.816 95.8738 282.72C96.1511 282.613 96.3431 282.539 96.4498 282.496L96.7378 283.728C96.5884 283.803 96.3271 283.893 95.9538 284C95.5804 284.117 95.1538 284.176 94.6738 284.176C94.1084 284.176 93.6391 284.107 93.2658 283.968C92.9031 283.819 92.6098 283.6 92.3858 283.312C92.1618 283.024 92.0018 282.672 91.9058 282.256C91.8204 281.829 91.7778 281.339 91.7778 280.784V273.36L93.2658 273.104V275.68Z" fill="#8D9399"/>
<path d="M12.528 241.368H14.856V258H12.528V250.32H4.392V258H2.064V241.368H4.392V248.304H12.528V241.368ZM18.1459 251.784C18.1459 250.68 18.3059 249.72 18.6259 248.904C18.9459 248.072 19.3699 247.384 19.8979 246.84C20.4259 246.296 21.0339 245.888 21.7219 245.616C22.4099 245.344 23.1139 245.208 23.8339 245.208C25.5139 245.208 26.8019 245.736 27.6979 246.792C28.5939 247.832 29.0419 249.424 29.0419 251.568C29.0419 251.664 29.0419 251.792 29.0419 251.952C29.0419 252.096 29.0339 252.232 29.0179 252.36H20.4739C20.5699 253.656 20.9459 254.64 21.6019 255.312C22.2579 255.984 23.2819 256.32 24.6739 256.32C25.4579 256.32 26.1139 256.256 26.6419 256.128C27.1859 255.984 27.5939 255.848 27.8659 255.72L28.1779 257.592C27.9059 257.736 27.4259 257.888 26.7379 258.048C26.0659 258.208 25.2979 258.288 24.4339 258.288C23.3459 258.288 22.4019 258.128 21.6019 257.808C20.8179 257.472 20.1699 257.016 19.6579 256.44C19.1459 255.864 18.7619 255.184 18.5059 254.4C18.2659 253.6 18.1459 252.728 18.1459 251.784ZM26.7139 250.56C26.7299 249.552 26.4739 248.728 25.9459 248.088C25.4339 247.432 24.7219 247.104 23.8099 247.104C23.2979 247.104 22.8419 247.208 22.4419 247.416C22.0579 247.608 21.7299 247.864 21.4579 248.184C21.1859 248.504 20.9699 248.872 20.8099 249.288C20.6659 249.704 20.5699 250.128 20.5219 250.56H26.7139ZM36.4721 256.392C37.0001 256.392 37.4641 256.384 37.8641 256.368C38.2801 256.336 38.6241 256.288 38.8961 256.224V252.504C38.7361 252.424 38.4721 252.36 38.1041 252.312C37.7521 252.248 37.3201 252.216 36.8081 252.216C36.4721 252.216 36.1121 252.24 35.7281 252.288C35.3601 252.336 35.0161 252.44 34.6961 252.6C34.3921 252.744 34.1361 252.952 33.9281 253.224C33.7201 253.48 33.6161 253.824 33.6161 254.256C33.6161 255.056 33.8721 255.616 34.3841 255.936C34.8961 256.24 35.5921 256.392 36.4721 256.392ZM36.2801 245.208C37.1761 245.208 37.9281 245.328 38.5361 245.568C39.1601 245.792 39.6561 246.12 40.0241 246.552C40.4081 246.968 40.6801 247.472 40.8401 248.064C41.0001 248.64 41.0801 249.28 41.0801 249.984V257.784C40.8881 257.816 40.6161 257.864 40.2641 257.928C39.9281 257.976 39.5441 258.024 39.1121 258.072C38.6801 258.12 38.2081 258.16 37.6961 258.192C37.2001 258.24 36.7041 258.264 36.2081 258.264C35.5041 258.264 34.8561 258.192 34.2641 258.048C33.6721 257.904 33.1601 257.68 32.7281 257.376C32.2961 257.056 31.9601 256.64 31.7201 256.128C31.4801 255.616 31.3601 255 31.3601 254.28C31.3601 253.592 31.4961 253 31.7681 252.504C32.0561 252.008 32.4401 251.608 32.9201 251.304C33.4001 251 33.9601 250.776 34.6001 250.632C35.2401 250.488 35.9121 250.416 36.6161 250.416C36.8401 250.416 37.0721 250.432 37.3121 250.464C37.5521 250.48 37.7761 250.512 37.9841 250.56C38.2081 250.592 38.4001 250.624 38.5601 250.656C38.7201 250.688 38.8321 250.712 38.8961 250.728V250.104C38.8961 249.736 38.8561 249.376 38.7761 249.024C38.6961 248.656 38.5521 248.336 38.3441 248.064C38.1361 247.776 37.8481 247.552 37.4801 247.392C37.1281 247.216 36.6641 247.128 36.0881 247.128C35.3521 247.128 34.7041 247.184 34.1441 247.296C33.6001 247.392 33.1921 247.496 32.9201 247.608L32.6561 245.76C32.9441 245.632 33.4241 245.512 34.0961 245.4C34.7681 245.272 35.4961 245.208 36.2801 245.208ZM52.8512 248.16C52.5792 247.936 52.1872 247.72 51.6752 247.512C51.1632 247.304 50.6032 247.2 49.9952 247.2C49.3552 247.2 48.8032 247.32 48.3392 247.56C47.8912 247.784 47.5232 248.104 47.2352 248.52C46.9472 248.92 46.7392 249.4 46.6112 249.96C46.4832 250.52 46.4192 251.12 46.4192 251.76C46.4192 253.216 46.7792 254.344 47.4992 255.144C48.2192 255.928 49.1792 256.32 50.3792 256.32C50.9872 256.32 51.4912 256.296 51.8912 256.248C52.3072 256.184 52.6272 256.12 52.8512 256.056V248.16ZM52.8512 239.76L55.0832 239.376V257.64C54.5712 257.784 53.9152 257.928 53.1152 258.072C52.3152 258.216 51.3952 258.288 50.3552 258.288C49.3952 258.288 48.5312 258.136 47.7632 257.832C46.9952 257.528 46.3392 257.096 45.7952 256.536C45.2512 255.976 44.8272 255.296 44.5232 254.496C44.2352 253.68 44.0912 252.768 44.0912 251.76C44.0912 250.8 44.2112 249.92 44.4512 249.12C44.7072 248.32 45.0752 247.632 45.5552 247.056C46.0352 246.48 46.6192 246.032 47.3072 245.712C48.0112 245.392 48.8112 245.232 49.7072 245.232C50.4272 245.232 51.0592 245.328 51.6032 245.52C52.1632 245.712 52.5792 245.896 52.8512 246.072V239.76ZM61.152 258H58.92V245.52H61.152V258ZM60.024 243.264C59.624 243.264 59.28 243.136 58.992 242.88C58.72 242.608 58.584 242.248 58.584 241.8C58.584 241.352 58.72 241 58.992 240.744C59.28 240.472 59.624 240.336 60.024 240.336C60.424 240.336 60.76 240.472 61.032 240.744C61.32 241 61.464 241.352 61.464 241.8C61.464 242.248 61.32 242.608 61.032 242.88C60.76 243.136 60.424 243.264 60.024 243.264ZM64.9903 245.88C65.5023 245.752 66.1823 245.616 67.0303 245.472C67.8783 245.328 68.8543 245.256 69.9583 245.256C70.9503 245.256 71.7743 245.4 72.4303 245.688C73.0863 245.96 73.6063 246.352 73.9903 246.864C74.3903 247.36 74.6703 247.96 74.8303 248.664C74.9903 249.368 75.0703 250.144 75.0703 250.992V258H72.8383V251.472C72.8383 250.704 72.7823 250.048 72.6703 249.504C72.5743 248.96 72.4063 248.52 72.1663 248.184C71.9263 247.848 71.6063 247.608 71.2063 247.464C70.8063 247.304 70.3103 247.224 69.7183 247.224C69.4783 247.224 69.2303 247.232 68.9743 247.248C68.7183 247.264 68.4703 247.288 68.2303 247.32C68.0063 247.336 67.7983 247.36 67.6063 247.392C67.4303 247.424 67.3023 247.448 67.2223 247.464V258H64.9903V245.88ZM86.5956 256.752C86.4036 256.88 86.0276 257.048 85.4676 257.256C84.9236 257.448 84.2836 257.544 83.5476 257.544C82.7956 257.544 82.0836 257.424 81.4116 257.184C80.7556 256.944 80.1796 256.576 79.6836 256.08C79.1876 255.568 78.7956 254.936 78.5076 254.184C78.2196 253.432 78.0756 252.536 78.0756 251.496C78.0756 250.584 78.2116 249.752 78.4836 249C78.7556 248.232 79.1476 247.576 79.6596 247.032C80.1876 246.472 80.8276 246.04 81.5796 245.736C82.3316 245.416 83.1796 245.256 84.1236 245.256C85.1636 245.256 86.0676 245.336 86.8356 245.496C87.6196 245.64 88.2756 245.776 88.8036 245.904V257.04C88.8036 258.96 88.3076 260.352 87.3156 261.216C86.3236 262.08 84.8196 262.512 82.8036 262.512C82.0196 262.512 81.2756 262.448 80.5716 262.32C79.8836 262.192 79.2836 262.04 78.7716 261.864L79.1796 259.92C79.6276 260.096 80.1716 260.248 80.8116 260.376C81.4676 260.52 82.1476 260.592 82.8516 260.592C84.1796 260.592 85.1316 260.328 85.7076 259.8C86.2996 259.272 86.5956 258.432 86.5956 257.28V256.752ZM86.5716 247.488C86.3476 247.424 86.0436 247.368 85.6596 247.32C85.2916 247.256 84.7876 247.224 84.1476 247.224C82.9476 247.224 82.0196 247.616 81.3636 248.4C80.7236 249.184 80.4036 250.224 80.4036 251.52C80.4036 252.24 80.4916 252.856 80.6676 253.368C80.8596 253.88 81.1076 254.304 81.4116 254.64C81.7316 254.976 82.0916 255.224 82.4916 255.384C82.9076 255.544 83.3316 255.624 83.7636 255.624C84.3556 255.624 84.8996 255.544 85.3956 255.384C85.8916 255.208 86.2836 255.008 86.5716 254.784V247.488ZM101.705 256.368C103.129 256.368 104.145 256.088 104.753 255.528C105.377 254.968 105.689 254.216 105.689 253.272C105.689 252.664 105.561 252.152 105.305 251.736C105.049 251.32 104.713 250.992 104.297 250.752C103.881 250.496 103.393 250.32 102.833 250.224C102.289 250.112 101.729 250.056 101.153 250.056H100.577V248.232H101.369C101.769 248.232 102.177 248.192 102.593 248.112C103.025 248.032 103.417 247.888 103.769 247.68C104.121 247.472 104.409 247.192 104.633 246.84C104.857 246.472 104.969 246.016 104.969 245.472C104.969 245.024 104.889 244.64 104.729 244.32C104.569 244 104.353 243.736 104.081 243.528C103.825 243.32 103.521 243.176 103.169 243.096C102.833 243 102.473 242.952 102.089 242.952C101.321 242.952 100.665 243.064 100.121 243.288C99.5933 243.512 99.1453 243.744 98.7773 243.984L97.9133 242.28C98.1053 242.152 98.3453 242.016 98.6333 241.872C98.9373 241.712 99.2733 241.568 99.6413 241.44C100.009 241.312 100.401 241.208 100.817 241.128C101.249 241.032 101.697 240.984 102.161 240.984C103.041 240.984 103.801 241.096 104.441 241.32C105.081 241.528 105.609 241.832 106.025 242.232C106.441 242.616 106.753 243.08 106.961 243.624C107.169 244.152 107.273 244.728 107.273 245.352C107.273 246.216 107.025 246.96 106.529 247.584C106.033 248.192 105.433 248.656 104.729 248.976C105.161 249.104 105.577 249.288 105.977 249.528C106.377 249.768 106.721 250.072 107.009 250.44C107.313 250.808 107.553 251.232 107.729 251.712C107.921 252.192 108.017 252.728 108.017 253.32C108.017 254.04 107.889 254.712 107.633 255.336C107.393 255.944 107.009 256.472 106.481 256.92C105.969 257.368 105.321 257.72 104.537 257.976C103.753 258.232 102.825 258.36 101.753 258.36C101.337 258.36 100.905 258.328 100.457 258.264C100.025 258.2 99.6173 258.12 99.2333 258.024C98.8493 257.928 98.5133 257.832 98.2253 257.736C97.9373 257.64 97.7293 257.56 97.6013 257.496L98.0333 255.552C98.3053 255.68 98.7533 255.848 99.3773 256.056C100.017 256.264 100.793 256.368 101.705 256.368ZM119.487 250.824C119.487 252.872 119.783 254.768 120.375 256.512C120.967 258.256 121.839 259.872 122.991 261.36L121.407 262.44C120.159 260.92 119.151 259.176 118.383 257.208C117.631 255.224 117.255 253.096 117.255 250.824C117.255 248.552 117.631 246.432 118.383 244.464C119.151 242.48 120.159 240.728 121.407 239.208L122.991 240.288C121.839 241.776 120.967 243.392 120.375 245.136C119.783 246.88 119.487 248.776 119.487 250.824ZM134.372 245.616C134.372 246.192 134.252 246.752 134.012 247.296C133.788 247.824 133.484 248.352 133.1 248.88C132.716 249.392 132.284 249.904 131.804 250.416C131.324 250.912 130.844 251.4 130.364 251.88C130.092 252.152 129.772 252.472 129.404 252.84C129.052 253.208 128.716 253.592 128.396 253.992C128.076 254.392 127.804 254.776 127.58 255.144C127.372 255.512 127.268 255.832 127.268 256.104H134.924V258H124.844C124.828 257.904 124.82 257.808 124.82 257.712C124.82 257.616 124.82 257.528 124.82 257.448C124.82 256.696 124.94 256 125.18 255.36C125.436 254.704 125.764 254.088 126.164 253.512C126.564 252.936 127.012 252.392 127.508 251.88C128.004 251.368 128.492 250.872 128.972 250.392C129.372 250.008 129.748 249.632 130.1 249.264C130.468 248.88 130.788 248.504 131.06 248.136C131.348 247.752 131.572 247.36 131.732 246.96C131.908 246.56 131.996 246.136 131.996 245.688C131.996 245.208 131.916 244.8 131.756 244.464C131.612 244.128 131.412 243.848 131.156 243.624C130.9 243.4 130.596 243.24 130.244 243.144C129.908 243.032 129.548 242.976 129.164 242.976C128.7 242.976 128.276 243.04 127.892 243.168C127.508 243.296 127.164 243.448 126.86 243.624C126.556 243.784 126.3 243.96 126.092 244.152C125.884 244.328 125.724 244.464 125.612 244.56L124.508 242.976C124.652 242.816 124.868 242.624 125.156 242.4C125.444 242.16 125.788 241.936 126.188 241.728C126.588 241.52 127.036 241.344 127.532 241.2C128.028 241.056 128.564 240.984 129.14 240.984C130.884 240.984 132.188 241.392 133.052 242.208C133.932 243.008 134.372 244.144 134.372 245.616ZM137.671 252.24C137.975 251.536 138.391 250.72 138.919 249.792C139.447 248.848 140.039 247.88 140.695 246.888C141.367 245.896 142.079 244.92 142.831 243.96C143.599 243 144.367 242.136 145.135 241.368H147.271V251.928H149.239V253.752H147.271V258H145.111V253.752H137.671V252.24ZM145.111 244.008C144.631 244.52 144.143 245.096 143.647 245.736C143.167 246.36 142.695 247.016 142.231 247.704C141.767 248.392 141.327 249.096 140.911 249.816C140.511 250.536 140.151 251.24 139.831 251.928H145.111V244.008ZM160.842 251.784C160.842 250.328 160.482 249.208 159.762 248.424C159.042 247.64 158.082 247.248 156.882 247.248C156.21 247.248 155.682 247.272 155.298 247.32C154.93 247.368 154.634 247.424 154.41 247.488V255.36C154.682 255.584 155.074 255.8 155.586 256.008C156.098 256.216 156.658 256.32 157.266 256.32C157.906 256.32 158.45 256.208 158.898 255.984C159.362 255.744 159.738 255.424 160.026 255.024C160.314 254.608 160.522 254.128 160.65 253.584C160.778 253.024 160.842 252.424 160.842 251.784ZM163.17 251.784C163.17 252.728 163.042 253.6 162.786 254.4C162.546 255.2 162.186 255.888 161.706 256.464C161.226 257.04 160.634 257.488 159.93 257.808C159.242 258.128 158.45 258.288 157.554 258.288C156.834 258.288 156.194 258.192 155.634 258C155.09 257.808 154.682 257.624 154.41 257.448V262.44H152.178V245.904C152.706 245.776 153.362 245.64 154.146 245.496C154.946 245.336 155.866 245.256 156.906 245.256C157.866 245.256 158.73 245.408 159.498 245.712C160.266 246.016 160.922 246.448 161.466 247.008C162.01 247.568 162.426 248.256 162.714 249.072C163.018 249.872 163.17 250.776 163.17 251.784ZM168.399 245.52H173.127V247.392H168.399V253.152C168.399 253.776 168.447 254.296 168.543 254.712C168.639 255.112 168.783 255.432 168.975 255.672C169.167 255.896 169.407 256.056 169.695 256.152C169.983 256.248 170.319 256.296 170.703 256.296C171.375 256.296 171.911 256.224 172.311 256.08C172.727 255.92 173.015 255.808 173.175 255.744L173.607 257.592C173.383 257.704 172.991 257.84 172.431 258C171.871 258.176 171.231 258.264 170.511 258.264C169.663 258.264 168.959 258.16 168.399 257.952C167.855 257.728 167.415 257.4 167.079 256.968C166.743 256.536 166.503 256.008 166.359 255.384C166.231 254.744 166.167 254.008 166.167 253.176V242.04L168.399 241.656V245.52ZM177.719 250.824C177.719 248.776 177.423 246.88 176.831 245.136C176.239 243.392 175.367 241.776 174.215 240.288L175.799 239.208C177.047 240.728 178.047 242.48 178.799 244.464C179.567 246.432 179.951 248.552 179.951 250.824C179.951 253.096 179.567 255.224 178.799 257.208C178.047 259.176 177.047 260.92 175.799 262.44L174.215 261.36C175.367 259.872 176.239 258.256 176.831 256.512C177.423 254.768 177.719 252.872 177.719 250.824Z" fill="#403F3D"/>
<path d="M12.24 6.368H15.264V23H12.24V15.632H5.016V23H1.992V6.368H5.016V13.016H12.24V6.368ZM18.402 16.784C18.402 15.68 18.562 14.712 18.882 13.88C19.218 13.048 19.658 12.36 20.202 11.816C20.746 11.256 21.37 10.84 22.074 10.568C22.778 10.28 23.498 10.136 24.234 10.136C25.962 10.136 27.306 10.672 28.266 11.744C29.242 12.816 29.73 14.416 29.73 16.544C29.73 16.704 29.722 16.888 29.706 17.096C29.706 17.288 29.698 17.464 29.682 17.624H21.402C21.482 18.632 21.834 19.416 22.458 19.976C23.098 20.52 24.018 20.792 25.218 20.792C25.922 20.792 26.562 20.728 27.138 20.6C27.73 20.472 28.194 20.336 28.53 20.192L28.914 22.568C28.754 22.648 28.53 22.736 28.242 22.832C27.97 22.912 27.65 22.984 27.282 23.048C26.93 23.128 26.546 23.192 26.13 23.24C25.714 23.288 25.29 23.312 24.858 23.312C23.754 23.312 22.794 23.152 21.978 22.832C21.162 22.496 20.49 22.04 19.962 21.464C19.434 20.872 19.042 20.184 18.786 19.4C18.53 18.6 18.402 17.728 18.402 16.784ZM26.826 15.488C26.826 15.088 26.77 14.712 26.658 14.36C26.546 13.992 26.378 13.68 26.154 13.424C25.946 13.152 25.682 12.944 25.362 12.8C25.058 12.64 24.69 12.56 24.258 12.56C23.81 12.56 23.418 12.648 23.082 12.824C22.746 12.984 22.458 13.2 22.218 13.472C21.994 13.744 21.818 14.056 21.69 14.408C21.562 14.76 21.474 15.12 21.426 15.488H26.826ZM37.2249 20.96C38.1209 20.96 38.8009 20.912 39.2649 20.816V17.6C39.1049 17.552 38.8729 17.504 38.5689 17.456C38.2649 17.408 37.9289 17.384 37.5609 17.384C37.2409 17.384 36.9129 17.408 36.5769 17.456C36.2569 17.504 35.9609 17.592 35.6889 17.72C35.4329 17.848 35.2249 18.032 35.0649 18.272C34.9049 18.496 34.8249 18.784 34.8249 19.136C34.8249 19.824 35.0409 20.304 35.4729 20.576C35.9049 20.832 36.4889 20.96 37.2249 20.96ZM36.9849 10.136C37.9449 10.136 38.7529 10.256 39.4089 10.496C40.0649 10.736 40.5849 11.072 40.9689 11.504C41.3689 11.936 41.6489 12.464 41.8089 13.088C41.9849 13.696 42.0729 14.368 42.0729 15.104V22.712C41.6249 22.808 40.9449 22.92 40.0329 23.048C39.1369 23.192 38.1209 23.264 36.9849 23.264C36.2329 23.264 35.5449 23.192 34.9209 23.048C34.2969 22.904 33.7609 22.672 33.3129 22.352C32.8809 22.032 32.5369 21.616 32.2809 21.104C32.0409 20.592 31.9209 19.96 31.9209 19.208C31.9209 18.488 32.0569 17.88 32.3289 17.384C32.6169 16.888 33.0009 16.488 33.4809 16.184C33.9609 15.864 34.5129 15.64 35.1369 15.512C35.7769 15.368 36.4409 15.296 37.1289 15.296C37.4489 15.296 37.7849 15.32 38.1369 15.368C38.4889 15.4 38.8649 15.464 39.2649 15.56V15.08C39.2649 14.744 39.2249 14.424 39.1449 14.12C39.0649 13.816 38.9209 13.552 38.7129 13.328C38.5209 13.088 38.2569 12.904 37.9209 12.776C37.6009 12.648 37.1929 12.584 36.6969 12.584C36.0249 12.584 35.4089 12.632 34.8489 12.728C34.2889 12.824 33.8329 12.936 33.4809 13.064L33.1209 10.712C33.4889 10.584 34.0249 10.456 34.7289 10.328C35.4329 10.2 36.1849 10.136 36.9849 10.136ZM47.9093 16.688C47.9093 17.968 48.2133 18.976 48.8213 19.712C49.4293 20.432 50.2693 20.792 51.3413 20.792C51.8053 20.792 52.1973 20.776 52.5173 20.744C52.8533 20.696 53.1253 20.648 53.3333 20.6V13.4C53.0773 13.224 52.7333 13.064 52.3013 12.92C51.8853 12.76 51.4373 12.68 50.9573 12.68C49.9013 12.68 49.1253 13.04 48.6293 13.76C48.1493 14.48 47.9093 15.456 47.9093 16.688ZM56.2373 22.616C55.6613 22.792 54.9333 22.952 54.0533 23.096C53.1893 23.24 52.2773 23.312 51.3173 23.312C50.3253 23.312 49.4373 23.16 48.6533 22.856C47.8693 22.552 47.1973 22.12 46.6373 21.56C46.0933 20.984 45.6693 20.296 45.3652 19.496C45.0773 18.68 44.9333 17.768 44.9333 16.76C44.9333 15.768 45.0533 14.872 45.2933 14.072C45.5493 13.256 45.9173 12.56 46.3973 11.984C46.8773 11.408 47.4613 10.968 48.1493 10.664C48.8373 10.344 49.6293 10.184 50.5253 10.184C51.1333 10.184 51.6693 10.256 52.1333 10.4C52.5973 10.544 52.9973 10.704 53.3333 10.88V4.856L56.2373 4.376V22.616ZM62.8541 23H59.9501V10.448H62.8541V23ZM63.1661 6.776C63.1661 7.32 62.9901 7.752 62.6381 8.072C62.2861 8.392 61.8701 8.552 61.3901 8.552C60.8941 8.552 60.4701 8.392 60.1181 8.072C59.7661 7.752 59.5901 7.32 59.5901 6.776C59.5901 6.216 59.7661 5.776 60.1181 5.456C60.4701 5.136 60.8941 4.976 61.3901 4.976C61.8701 4.976 62.2861 5.136 62.6381 5.456C62.9901 5.776 63.1661 6.216 63.1661 6.776ZM66.5589 10.856C67.1189 10.696 67.8469 10.544 68.7429 10.4C69.6389 10.256 70.6309 10.184 71.7189 10.184C72.7429 10.184 73.5989 10.328 74.2869 10.616C74.9749 10.888 75.5189 11.28 75.9189 11.792C76.3349 12.288 76.6229 12.896 76.7829 13.616C76.9589 14.32 77.0469 15.096 77.0469 15.944V23H74.1429V16.4C74.1429 15.728 74.0949 15.16 73.9989 14.696C73.9189 14.216 73.7749 13.832 73.5669 13.544C73.3749 13.24 73.1029 13.024 72.7509 12.896C72.4149 12.752 71.9989 12.68 71.5029 12.68C71.1349 12.68 70.7509 12.704 70.3509 12.752C69.9509 12.8 69.6549 12.84 69.4629 12.872V23H66.5589V10.856ZM82.878 16.4C82.878 17.632 83.142 18.536 83.67 19.112C84.214 19.672 84.91 19.952 85.758 19.952C86.222 19.952 86.654 19.888 87.054 19.76C87.47 19.632 87.806 19.48 88.062 19.304V12.8C87.854 12.752 87.598 12.712 87.294 12.68C86.99 12.632 86.606 12.608 86.142 12.608C85.086 12.608 84.278 12.96 83.718 13.664C83.158 14.352 82.878 15.264 82.878 16.4ZM90.966 21.728C90.966 23.728 90.454 25.192 89.43 26.12C88.422 27.048 86.87 27.512 84.774 27.512C84.006 27.512 83.254 27.448 82.518 27.32C81.798 27.192 81.142 27.024 80.55 26.816L81.078 24.344C81.574 24.552 82.134 24.72 82.758 24.848C83.398 24.976 84.086 25.04 84.822 25.04C85.99 25.04 86.822 24.8 87.318 24.32C87.814 23.84 88.062 23.128 88.062 22.184V21.704C87.774 21.848 87.39 21.992 86.91 22.136C86.446 22.28 85.91 22.352 85.302 22.352C84.502 22.352 83.766 22.224 83.094 21.968C82.438 21.712 81.87 21.336 81.39 20.84C80.926 20.344 80.558 19.728 80.286 18.992C80.03 18.24 79.902 17.376 79.902 16.4C79.902 15.488 80.038 14.648 80.31 13.88C80.598 13.112 81.006 12.456 81.534 11.912C82.078 11.368 82.734 10.944 83.502 10.64C84.27 10.336 85.142 10.184 86.118 10.184C87.062 10.184 87.958 10.256 88.806 10.4C89.654 10.544 90.374 10.696 90.966 10.856V21.728ZM97.8045 20.912C98.5725 20.912 99.1325 20.824 99.4845 20.648C99.8365 20.456 100.013 20.136 100.013 19.688C100.013 19.272 99.8205 18.928 99.4365 18.656C99.0685 18.384 98.4525 18.088 97.5885 17.768C97.0605 17.576 96.5725 17.376 96.1245 17.168C95.6925 16.944 95.3165 16.688 94.9965 16.4C94.6765 16.112 94.4205 15.768 94.2285 15.368C94.0525 14.952 93.9645 14.448 93.9645 13.856C93.9645 12.704 94.3885 11.8 95.2365 11.144C96.0845 10.472 97.2365 10.136 98.6925 10.136C99.4285 10.136 100.133 10.208 100.805 10.352C101.477 10.48 101.981 10.608 102.317 10.736L101.789 13.088C101.469 12.944 101.061 12.816 100.565 12.704C100.069 12.576 99.4925 12.512 98.8365 12.512C98.2445 12.512 97.7645 12.616 97.3965 12.824C97.0285 13.016 96.8445 13.32 96.8445 13.736C96.8445 13.944 96.8765 14.128 96.9405 14.288C97.0205 14.448 97.1485 14.6 97.3245 14.744C97.5005 14.872 97.7325 15.008 98.0205 15.152C98.3085 15.28 98.6605 15.416 99.0765 15.56C99.7645 15.816 100.349 16.072 100.829 16.328C101.309 16.568 101.701 16.848 102.005 17.168C102.325 17.472 102.557 17.824 102.701 18.224C102.845 18.624 102.917 19.104 102.917 19.664C102.917 20.864 102.469 21.776 101.573 22.4C100.693 23.008 99.4285 23.312 97.7805 23.312C96.6765 23.312 95.7885 23.216 95.1165 23.024C94.4445 22.848 93.9725 22.704 93.7005 22.592L94.2045 20.168C94.6365 20.344 95.1485 20.512 95.7405 20.672C96.3485 20.832 97.0365 20.912 97.8045 20.912Z" fill="#E6B795"/>
</svg>
