<svg width="18" height="23" viewBox="0 0 18 23" fill="none" xmlns="http://www.w3.org/2000/svg">
<path d="M9 23C7.47025 23 6.13597 22.7704 4.99716 22.3111C3.87535 21.8518 2.94051 21.2039 2.19263 20.3673C1.46175 19.5308 0.909347 18.5302 0.53541 17.3656C0.178468 16.2009 -2.58837e-07 14.9215 -1.97892e-07 13.5272C-1.67778e-07 12.8383 0.0339926 12.0756 0.10198 11.239C0.152973 10.4189 0.263454 9.67252 0.433426 9L17.5666 9C17.7365 9.67252 17.847 10.4189 17.898 11.239C17.966 12.0756 18 12.8383 18 13.5272C18 14.9215 17.813 16.2009 17.4391 17.3656C17.0822 18.5302 16.5297 19.5308 15.7819 20.3673C15.051 21.2039 14.1161 21.8518 12.9773 22.3111C11.8555 22.7704 10.5297 23 9 23ZM2.16714 13.7241C2.16714 15.9877 2.76204 17.6772 3.95184 18.7926C5.15864 19.908 6.84136 20.4657 9 20.4657C11.1586 20.4657 12.8329 19.908 14.0227 18.7926C15.2295 17.6772 15.8329 15.9877 15.8329 13.7241C15.8329 13.0516 15.8244 12.5267 15.8074 12.1494C15.7904 11.7885 15.7734 11.5343 15.7564 11.3866L2.24362 11.3866C2.22663 11.5343 2.20963 11.7885 2.19263 12.1494C2.17564 12.5267 2.16714 13.0516 2.16714 13.7241Z" fill="#2C2C2C"/>
<circle cx="3" cy="2" r="2" fill="#2C2C2C"/>
<circle cx="15" cy="2" r="2" fill="#2C2C2C"/>
</svg>
