<svg width="680" height="756" fill="none" xmlns="http://www.w3.org/2000/svg">
  <g filter="url(#filter0_d)">
    <path fill-rule="evenodd" clip-rule="evenodd" d="M351.376 123.679c-67.436-10.816-141.72-51.294-196.801-11.154-56.212 40.965-55.38 123.727-52.678 192.963 2.389 61.205 30.361 114.363 66.608 163.905 41.515 56.743 82.038 125.271 151.962 134.834 72.419 9.904 140.919-35.435 191.521-87.859 46.46-48.132 67.601-113.734 67.458-180.442-.132-62.192-22.517-123.685-68.197-166.195-42.106-39.185-102.932-36.92-159.873-46.052z" fill="#F2F2F2"/>
  </g>
  <g filter="url(#filter1_d)">
    <path d="M494.035 486.217c-.007 8.285 3.774 11.427 6.181 14.999 2.407 3.572 5.291.37 4.171-1.084-1.12-1.454-1.937-3.133-2.475-4.891a20.074 20.074 0 01-.868-5.778c-.001-3.334.867-6.652 2.758-9.482l.141-.209c3.811-5.563 9.537-9.337 15.504-12.307 7.861-3.913 15.904-7.565 21.782-14.284 5.898-6.74 8.86-15.361 10.025-24.118.437-3.296.712-6.67.711-10.02-.004-7.788-1.505-15.459-5.954-21.783-9.713-13.837-25.618-18.405-45.545-17.59-19.926.815-50.225-3.261-69.879-14.673-19.653-11.413-37.669-52.172-40.125-57.063-2.457 6.522-17.361 27.227-57.323 44.835-25.385 7.337-54.046 13.043-72.881 2.446 2.353 30.985 31.344 80.041 68.503 97.966 13.922 6.716 58.96 19.876 94.992 0 15.705-8.664 34.676-22.97 46.942-33.194 8.762-7.303 24.974-13.428 38.658-13.428 1.982 0 3.963.123 5.95.379 5.148.67 10.37 2.333 14.031 5.996 3.803 3.809 5.213 8.848 5.213 14.217 0 5.781-1.638 11.945-3.683 17.366-2.21 5.858-5.97 11.273-10.805 15.38-5.318 4.52-12.137 6.443-17.488 10.918-2.956 2.446-5.691 5.502-7.242 9.123a15.746 15.746 0 00-1.294 6.279z" fill="#3A70A6"/>
    <path fill-rule="evenodd" clip-rule="evenodd" d="M605.242 559.068c-5.981-1.404-14.315 10.26-17.386 14.94-1.017-3.912-2.667-9.897-4.688-15.938-2.236-6.739-4.948-13.545-7.778-17.635 1.677-.38 4.098-1.145 5.711-2.605 2.692-2.43 4.933-14.509 3.064-15.425-1.869-.918-8.258 3.19-10.775 7.795-1.616 2.965-1.115 6.475-.542 8.611-3.593.09-14.037.251-22.159-.801-3.114-.396-5.891-.968-7.806-1.806-4.353-1.886-12.756-11.222-20.793-20.151-6.807-7.563-13.352-14.833-16.948-17.036-2.846-.494-5.249-.456-8.225.255a360.492 360.492 0 014.611 5.683c4.076 5.163 7.902 10.786 11.074 16.649 1.832 3.39 3.364 6.914 4.896 10.44 1.212 2.789 2.425 5.579 3.786 8.303 5.342 10.698 11.761 22.825 20.838 31.41-2.176-.056-5.95.154-8.574 1.929 0 0-4.717-2.175-6.148-.649-1.427 1.513.26 9.525 15.66 18.58 15.39 9.048 21.553 4.93 21.535 2.853-.006-1.993-4.294-5.113-4.294-5.113s.069-4.466-.544-7.576l-.004-.022c5.668 1.377 11.164 1.275 15.833.605 7.664-1.096 13.092-3.732 13.377-3.872l.004-.001c2.754-.632 7.865.26 13.539 1.251 10.237 1.788 22.304 3.896 25.657-2.055 5.231-9.254-15.461-16.866-22.921-18.619zm-.382 3.729c-5.3-1.562-15.153 13.093-15.153 13.093 1.396-.47 6.102.02 11.549.586 9.251.963 20.641 2.147 21.592-.767 1.518-4.641-12.681-11.362-17.988-12.912z" fill="#FFBF40"/>
    <path fill-rule="evenodd" clip-rule="evenodd" d="M560.301 589.357s-5.916-.92-13.695-5.403c-4.047-2.333-8.584-5.625-13.058-10.268 2.394-1.621 5.747-1.937 7.969-1.937.256 0 .497.003.719.011 2.172 1.523 11.529 7.953 17.435 9.985l.086.036c.5 2.54.546 5.983.546 7.162 0 .264-.002.414-.002.414z" fill="#FF9F40"/>
    <path d="M572.848 538.811c-1.172.029-3.074.065-5.388.065-4.774 0-11.299-.158-16.771-.865 4.147 4.584 15.154 16.238 32.479 20.059-2.236-6.739-4.948-13.545-7.778-17.635 1.677-.38 4.098-1.145 5.711-2.605 2.001-1.807 3.752-8.94 3.752-12.862 0-1.355-.208-2.328-.688-2.563a1.467 1.467 0 00-.65-.129c-2.401 0-7.848 3.758-10.125 7.923-.815 1.496-1.092 3.128-1.092 4.652-.002 1.503.265 2.9.55 3.96z" fill="#FF9F40"/>
    <path fill-rule="evenodd" clip-rule="evenodd" d="M438.498 270.748l46.395 45.055c13.499 5.732 24.56 12.061 33.182 18.988 1.939 2.328 4.05 6.789-5.073 4.793-9.123-1.996-18.809-3.688-20.523-.734-1.715 2.953 3.337 7.479.169 11.344-2.113 2.577-9.218-5.62-21.315-24.589l-48.244-28.315 15.409-26.542zm-226.87-40.776l35.863.134c-27.315 88.094-41.814 134.219-43.498 138.374-3.79 9.349 4.229 23.588 7.659 31.24-11.17 4.976-9.98-13.451-24.07-6.925-12.861 5.956-22.644 16.749-37.503 7.622-1.827-1.122-3.829-5.347 1.008-8.649 12.05-8.225 29.416-22.621 31.762-27.36 3.199-6.461 12.792-51.274 28.779-134.436z" fill="#E6B795"/>
    <path fill-rule="evenodd" clip-rule="evenodd" d="M320.909 128.698l14.162-2.418c22.31 78.504 136.936 132.016 143.972 161.363 2.581 10.763-5.2 16.203-1.181 19.481l-18.408 13.414c-3.117-3.62-9.769 3.003-23.661-1.63-13.892-4.633-114.884-97.254-114.884-190.21z" fill="#C2C7CC"/>
    <path fill-rule="evenodd" clip-rule="evenodd" d="M348.878 44.938c8.552 19.697 22.497 64.727 16.111 73.02l-47.011 6.737-.05-.247c-17.702.578-33.38-12.186-35.963-30.043l-4.9-33.889c-2.772-19.161 10.586-36.93 29.835-39.69l3.242-.464c17.481-2.505 33.808 8.231 38.736 24.576z" fill="#333230"/>
    <path fill-rule="evenodd" clip-rule="evenodd" d="M299.286 85.317c-8.732-7.657-15.334-17.63-16.223-29.736-2.56-34.883 46.831-34.207 58.745-18.123 11.915 16.084 17.192 60.456 5.502 65.311-4.662 1.937-15.416.371-26.824-4.423l13.299 45.46-38.905 5.575 4.406-64.064z" fill="#E6B795"/>
    <path fill-rule="evenodd" clip-rule="evenodd" d="M344.731 139.135c-1.632 103.934 58.723 130.446 45.279 172.14-11.101 34.431-117.363 71.443-135.751 37.693-7.443-13.661-10.82-30.184-11.203-48.148-4.7 13.801-8.416 25.682-11.151 35.643-4.716 17.184-23.002 19.915-23.002 26.535l-24.091-6.62c1.634-8.993-9.723-13.372-6.678-33.464 13.644-90.024 50.303-155.28 109.977-195.767l.618-8.789c.252-3.592 3.382-6.301 6.992-6.05l44.112 3.07c3.609.252 6.331 3.368 6.078 6.961l-1.18 16.796z" fill="#DAE0E6"/>
    <path fill-rule="evenodd" clip-rule="evenodd" d="M308.96 77.976c4.564 18.911 7.012 40.903 2.421 46.865l-47.011 6.737c-9.171-44.928 18.68-31.012 12.512-73.666 1.356-1.761 2.628-3.495 3.914-5.016l-.234-1.247c5.742-17.757 14.87-27.532 27.384-29.325 18.772-2.69 25.955 5.156 32.068 11.815-1.909 13.427-16.273 17.435-28.12 27.332a9.005 9.005 0 00-5.905-1.179c-4.924.706-8.341 5.252-7.633 10.153.709 4.902 5.276 8.304 10.2 7.598.136-.02.27-.042.404-.067z" fill="#333230"/>
  </g>
  <defs>
    <filter id="filter0_d" x=".937" y="45.142" width="678.51" height="710.453" filterUnits="userSpaceOnUse" color-interpolation-filters="sRGB">
      <feFlood flood-opacity="0" result="BackgroundImageFix"/>
      <feColorMatrix in="SourceAlpha" values="0 0 0 0 0 0 0 0 0 0 0 0 0 0 0 0 0 0 127 0"/>
      <feOffset dy="50"/>
      <feGaussianBlur stdDeviation="50"/>
      <feColorMatrix values="0 0 0 0 0 0 0 0 0 0 0 0 0 0 0 0 0 0 0.1 0"/>
      <feBlend in2="BackgroundImageFix" result="effect1_dropShadow"/>
      <feBlend in="SourceGraphic" in2="effect1_dropShadow" result="shape"/>
    </filter>
    <filter id="filter1_d" x="108.07" y="0" width="560.93" height="657.228" filterUnits="userSpaceOnUse" color-interpolation-filters="sRGB">
      <feFlood flood-opacity="0" result="BackgroundImageFix"/>
      <feColorMatrix in="SourceAlpha" values="0 0 0 0 0 0 0 0 0 0 0 0 0 0 0 0 0 0 127 0"/>
      <feOffset dy="20"/>
      <feGaussianBlur stdDeviation="20"/>
      <feColorMatrix values="0 0 0 0 0 0 0 0 0 0 0 0 0 0 0 0 0 0 0.15 0"/>
      <feBlend in2="BackgroundImageFix" result="effect1_dropShadow"/>
      <feBlend in="SourceGraphic" in2="effect1_dropShadow" result="shape"/>
    </filter>
  </defs>
</svg>
