<svg width="1440" height="1260" viewBox="0 0 1440 1260" fill="none"
  xmlns="http://www.w3.org/2000/svg">
  <path d="M521.585 359.712C521.897 358.817 523.162 358.817 523.474 359.712L524.412 362.406C524.508 362.681 524.719 362.901 524.99 363.007L527.692 364.069C528.537 364.402 528.537 365.598 527.692 365.931L524.99 366.993C524.719 367.099 524.508 367.319 524.412 367.594L523.474 370.288C523.162 371.183 521.897 371.183 521.585 370.288L520.647 367.594C520.551 367.319 520.34 367.099 520.068 366.993L517.367 365.931C516.522 365.598 516.522 364.402 517.367 364.069L520.068 363.007C520.34 362.901 520.551 362.681 520.647 362.406L521.585 359.712Z" fill="#DADEE4"/>
  <path d="M164.534 915.615C164.798 914.626 166.202 914.626 166.466 915.615L167.141 918.14C167.214 918.413 167.399 918.643 167.651 918.772L170.263 920.11C170.988 920.482 170.988 921.518 170.263 921.89L167.651 923.228C167.399 923.357 167.214 923.587 167.141 923.86L166.466 926.385C166.202 927.374 164.798 927.374 164.534 926.385L163.859 923.86C163.786 923.587 163.601 923.357 163.349 923.228L160.737 921.89C160.012 921.518 160.012 920.482 160.737 920.11L163.349 918.772C163.601 918.643 163.786 918.413 163.859 918.14L164.534 915.615Z" fill="#DADEE4"/>
  <path d="M967.534 591.615C967.798 590.626 969.202 590.626 969.466 591.615L970.141 594.14C970.214 594.413 970.399 594.643 970.651 594.772L973.263 596.11C973.988 596.482 973.988 597.518 973.263 597.89L970.651 599.228C970.399 599.357 970.214 599.587 970.141 599.86L969.466 602.385C969.202 603.374 967.798 603.374 967.534 602.385L966.859 599.86C966.786 599.587 966.601 599.357 966.349 599.228L963.737 597.89C963.012 597.518 963.012 596.482 963.737 596.11L966.349 594.772C966.601 594.643 966.786 594.413 966.859 594.14L967.534 591.615Z" fill="#DADEE4"/>
  <path d="M735.534 160.615C735.798 159.626 737.202 159.626 737.466 160.615L738.141 163.14C738.214 163.413 738.399 163.643 738.651 163.772L741.263 165.11C741.988 165.482 741.988 166.518 741.263 166.89L738.651 168.228C738.399 168.357 738.214 168.587 738.141 168.86L737.466 171.385C737.202 172.374 735.798 172.374 735.534 171.385L734.859 168.86C734.786 168.587 734.601 168.357 734.349 168.228L731.737 166.89C731.012 166.518 731.012 165.482 731.737 165.11L734.349 163.772C734.601 163.643 734.786 163.413 734.859 163.14L735.534 160.615Z" fill="#DADEE4"/>
  <path d="M1344.53 813.615C1344.8 812.626 1346.2 812.626 1346.47 813.615L1347.14 816.14C1347.21 816.413 1347.4 816.643 1347.65 816.772L1350.26 818.11C1350.99 818.482 1350.99 819.518 1350.26 819.89L1347.65 821.228C1347.4 821.357 1347.21 821.587 1347.14 821.86L1346.47 824.385C1346.2 825.374 1344.8 825.374 1344.53 824.385L1343.86 821.86C1343.79 821.587 1343.6 821.357 1343.35 821.228L1340.74 819.89C1340.01 819.518 1340.01 818.482 1340.74 818.11L1343.35 816.772C1343.6 816.643 1343.79 816.413 1343.86 816.14L1344.53 813.615Z" fill="#DADEE4"/>
  <path d="M646.534 967.615C646.798 966.626 648.202 966.626 648.466 967.615L649.141 970.14C649.214 970.413 649.399 970.643 649.651 970.772L652.263 972.11C652.988 972.482 652.988 973.518 652.263 973.89L649.651 975.228C649.399 975.357 649.214 975.587 649.141 975.86L648.466 978.385C648.202 979.374 646.798 979.374 646.534 978.385L645.859 975.86C645.786 975.587 645.601 975.357 645.349 975.228L642.737 973.89C642.012 973.518 642.012 972.482 642.737 972.11L645.349 970.772C645.601 970.643 645.786 970.413 645.859 970.14L646.534 967.615Z" fill="#DADEE4"/>
  <path d="M840.602 743.698C841.21 741.874 843.79 741.874 844.398 743.698L845.857 748.079C846.041 748.631 846.456 749.076 846.994 749.297L851.501 751.15C853.154 751.83 853.154 754.17 851.501 754.85L846.994 756.703C846.456 756.924 846.041 757.369 845.857 757.921L844.398 762.302C843.79 764.126 841.21 764.126 840.602 762.302L839.143 757.921C838.959 757.369 838.544 756.924 838.006 756.703L833.499 754.85C831.846 754.17 831.846 751.83 833.499 751.15L838.006 749.297C838.544 749.076 838.959 748.631 839.143 748.079L840.602 743.698Z" fill="#DADEE4"/>
  <path d="M1180.56 692.433C1181.08 690.438 1183.92 690.438 1184.44 692.433L1184.84 693.999C1184.99 694.543 1185.35 695.003 1185.85 695.265L1188.63 696.73C1190.06 697.479 1190.06 699.521 1188.63 700.27L1185.85 701.735C1185.35 701.997 1184.99 702.457 1184.84 703.001L1184.44 704.567C1183.92 706.562 1181.08 706.562 1180.56 704.567L1180.16 703.001C1180.01 702.457 1179.65 701.997 1179.15 701.735L1176.37 700.27C1174.94 699.521 1174.94 697.479 1176.37 696.73L1179.15 695.265C1179.65 695.003 1180.01 694.543 1180.16 693.999L1180.56 692.433Z" fill="#DADEE4"/>
  <path d="M1077.57 99.2096C1078.1 97.2331 1080.9 97.2331 1081.43 99.2096L1082.11 101.725C1082.25 102.272 1082.62 102.731 1083.13 102.988L1086.51 104.719C1087.97 105.462 1087.97 107.538 1086.51 108.281L1083.13 110.012C1082.62 110.269 1082.25 110.728 1082.11 111.275L1081.43 113.79C1080.9 115.767 1078.1 115.767 1077.57 113.79L1076.89 111.275C1076.75 110.728 1076.38 110.269 1075.87 110.012L1072.49 108.281C1071.03 107.538 1071.03 105.462 1072.49 104.719L1075.87 102.988C1076.38 102.731 1076.75 102.272 1076.89 101.725L1077.57 99.2096Z" fill="#DADEE4"/>
  <path d="M153.571 247.025C154.11 245.064 156.89 245.064 157.429 247.025L158.37 250.452C158.52 251 158.897 251.459 159.406 251.712L163.411 253.71C164.888 254.447 164.888 256.553 163.411 257.29L159.406 259.288C158.897 259.541 158.52 260 158.37 260.548L157.429 263.975C156.89 265.936 154.11 265.936 153.571 263.975L152.63 260.548C152.48 260 152.103 259.541 151.594 259.288L147.589 257.29C146.112 256.553 146.112 254.447 147.589 253.71L151.594 251.712C152.103 251.459 152.48 251 152.63 250.452L153.571 247.025Z" fill="#DADEE4"/>
</svg>
