<svg width="1392" height="899" viewBox="0 0 1392 899" fill="white" xmlns="http://www.w3.org/2000/svg">
  <path d="M45 0H46V1H45V0Z"/>
  <path d="M243 0H244V1H243V0Z"/>
  <path d="M80 35H81V36H80V35Z"/>
  <path d="M137 14H138V15H137V14Z"/>
  <path d="M15 62H16V63H15V62Z"/>
  <path d="M214 62H213V63H214V62Z"/>
  <path d="M127 65H128V66H127V65Z"/>
  <path d="M110 104H111V105H110V104Z"/>
  <path d="M59 141H57V143H59V141Z"/>
  <path d="M13 113H15V115H13V113Z"/>
  <path d="M257 141H255V143H257V141Z"/>
  <path d="M150 148H149V149H150V148Z"/>
  <path d="M216 118H214V120H216V118Z"/>
  <path d="M10 188H9V189H10V188Z"/>
  <path d="M207 188H208V189H207V188Z"/>
  <path d="M163 204H162V205H163V204Z"/>
  <path d="M220 241H219V242H220V241Z"/>
  <path d="M0 250H2V252H0V250Z"/>
  <path d="M89 219V217H87V219H89Z"/>
  <path d="M198 250H200V252H198V250Z"/>
  <path d="M610 0H609V1H610V0Z"/>
  <path d="M368 5H369V6H368V5Z"/>
  <path d="M271.5 65H273.5V67H271.5V65Z"/>
  <path d="M431 15H433V17H431V15Z"/>
  <path d="M579 62H580V63H579V62Z"/>
  <path d="M396 62H397V63H396V62Z"/>
  <path d="M455 83.5H456V84.5H455V83.5Z"/>
  <path d="M325 65H326V66H325V65Z"/>
  <path d="M508 65H509V66H508V65Z"/>
  <path d="M509 25H510V26H509V25Z"/>
  <path d="M308 104H309V105H308V104Z"/>
  <path d="M491 104H492V105H491V104Z"/>
  <path d="M621 141H623V143H621V141Z"/>
  <path d="M552.5 129.5H554.5V131.5H552.5V129.5Z"/>
  <path d="M438 141H440V143H438V141Z"/>
  <path d="M300 151H301V152H300V151Z"/>
  <path d="M483 151H484V152H483V151Z"/>
  <path d="M347 148H348V149H347V148Z"/>
  <path d="M573 188H574V189H573V188Z"/>
  <path d="M390 188H391V189H390V188Z"/>
  <path d="M311 208H312V209H311V208Z"/>
  <path d="M514 208H515V209H514V208Z"/>
  <path d="M402 241H403V242H402V241Z"/>
  <path d="M271.5 201V203H269.5V201H271.5Z"/>
  <path d="M493 217H495V219H493V217Z"/>
  <path d="M564 250H566V252H564V250Z"/>
  <path d="M350 275H348V277H350V275Z"/>
  <path d="M629 217H626V220H629V217Z"/>
  <path d="M997 15H995V17H997V15Z"/>
  <path d="M744.5 75.5H745.5V76.5H744.5V75.5Z"/>
  <path d="M948 40H947V41H948V40Z"/>
  <path d="M961 62H960V63H961V62Z"/>
  <path d="M651 77H652V78H651V77Z"/>
  <path d="M800 34.5H799V35.5H800V34.5Z"/>
  <path d="M1046 66H1047V67H1046V66Z"/>
  <path d="M695 24H696V25H695V24Z"/>
  <path d="M863 24H864V25H863V24Z"/>
  <path d="M674 104H675V105H674V104Z"/>
  <path d="M899 98H898V99H899V98Z"/>
  <path d="M1069 93H1070V94H1069V93Z"/>
  <path d="M967 109H965V111H967V109Z"/>
  <path d="M847 140H846V141H847V140Z"/>
  <path d="M1047 151H1048V152H1047V151Z"/>
  <path d="M912 182H914V184H912V182Z"/>
  <path d="M783 113H781V115H783V113Z"/>
  <path d="M708 155.5H707V156.5H708V155.5Z"/>
  <path d="M809 195.5H810V196.5H809V195.5Z"/>
  <path d="M975.5 164.5H974.5V165.5H975.5V164.5Z"/>
  <path d="M996 204H997V205H996V204Z"/>
  <path d="M718 208H717V209H718V208Z"/>
  <path d="M868 243H869V244H868V243Z"/>
  <path d="M1083 208H1082V209H1083V208Z"/>
  <path d="M966 277H965V278H966V277Z"/>
  <path d="M701.5 261H703.5V263H701.5V261Z"/>
  <path d="M849 252H847V254H849V252Z"/>
  <path d="M1061 217H1063V219H1061V217Z"/>
  <path d="M764 250H762V252H764V250Z"/>
  <path d="M1258 3H1257V4H1258V3Z"/>
  <path d="M1371 20H1370V21H1371V20Z"/>
  <path d="M1304.5 97H1306.5V99H1304.5V97Z"/>
  <path d="M1249 108H1251V110H1249V108Z"/>
  <path d="M1229 40H1230V41H1229V40Z"/>
  <path d="M1124 104H1123V105H1124V104Z"/>
  <path d="M1329 36H1328V37H1329V36Z"/>
  <path d="M1172 65H1171V66H1172V65Z"/>
  <path d="M1114 16H1113V17H1114V16Z"/>
  <path d="M1115 58H1114V59H1115V58Z"/>
  <path d="M1355 65H1354V66H1355V65Z"/>
  <path d="M1139 184H1138V185H1139V184Z"/>
  <path d="M1131 231H1130V232H1131V231Z"/>
  <path d="M1330 151H1329V152H1330V151Z"/>
  <path d="M1377 148H1376V149H1377V148Z"/>
  <path d="M1192 189H1190V191H1192V189Z"/>
  <path d="M1392 141H1390V143H1392V141Z"/>
  <path d="M1270 190H1269V191H1270V190Z"/>
  <path d="M1194.5 130H1193.5V131H1194.5V130Z"/>
  <path d="M1295.5 266H1294.5V267H1295.5V266Z"/>
  <path d="M1339 235H1338V236H1339V235Z"/>
  <path d="M1275.5 277V275H1273.5V277H1275.5Z"/>
  <path d="M1363 211H1361V213H1363V211Z"/>
  <path d="M1229 250H1227V252H1229V250Z"/>
  <path d="M808 332H807V333H808V332Z"/>
  <path d="M991 332H990V333H991V332Z"/>
  <path d="M1272 332H1273V333H1272V332Z"/>
  <path d="M431 299H433V301H431V299Z"/>
  <path d="M1040 356V354H1038V356H1040Z"/>
  <path d="M1277 347H1279V349H1277V347Z"/>
  <path d="M1251 440H1249V442H1251V440Z"/>
  <path d="M2 324H3V325H2V324Z"/>
  <path d="M567 324H566V325H567V324Z"/>
  <path d="M200 324H201V325H200V324Z"/>
  <path d="M765 372H764V373H765V372Z"/>
  <path d="M383 324H384V325H383V324Z"/>
  <path d="M948 372H947V373H948V372Z"/>
  <path d="M1229 372H1230V373H1229V372Z"/>
  <path d="M16 346H15V347H16V346Z"/>
  <path d="M579 346H580V347H579V346Z"/>
  <path d="M214 346H213V347H214V346Z"/>
  <path d="M397 346H396V347H397V346Z"/>
  <path d="M1243 394H1242V395H1243V394Z"/>
  <path d="M652 409H651V410H652V409Z"/>
  <path d="M285 361H286V362H285V361Z"/>
  <path d="M849 409H850V410H849V409Z"/>
  <path d="M469 361H468V362H469V361Z"/>
  <path d="M1032 409H1033V410H1032V409Z"/>
  <path d="M1124 436H1123V437H1124V436Z"/>
  <path d="M1314 409H1315V410H1314V409Z"/>
  <path d="M1329 368H1328V369H1329V368Z"/>
  <path d="M127 349H128V350H127V349Z"/>
  <path d="M138 298H137V299H138V298Z"/>
  <path d="M691 397H692V398H691V397Z"/>
  <path d="M696 356H695V357H696V356Z"/>
  <path d="M325 349H326V350H325V349Z"/>
  <path d="M890 397H889V398H890V397Z"/>
  <path d="M884 363H885V364H884V363Z"/>
  <path d="M1172 397H1171V398H1172V397Z"/>
  <path d="M1113 348H1114V349H1113V348Z"/>
  <path d="M509 309H510V310H509V309Z"/>
  <path d="M1073 397H1072V398H1073V397Z"/>
  <path d="M1114 390H1115V391H1114V390Z"/>
  <path d="M1355 397H1354V398H1355V397Z"/>
  <path d="M110 388H111V389H110V388Z"/>
  <path d="M308 388H309V389H308V388Z"/>
  <path d="M280.5 285H279.5V286H280.5V285Z"/>
  <path d="M492 388H491V389H492V388Z"/>
  <path d="M1055 436H1056V437H1055V436Z"/>
  <path d="M1338 436H1337V437H1338V436Z"/>
  <path d="M15 397H13V399H15V397Z"/>
  <path d="M587 397V395H585V397H587Z"/>
  <path d="M821 473H819V475H821V473Z"/>
  <path d="M438 493H440V495H438V493Z"/>
  <path d="M1002 473H1004V475H1002V473Z"/>
  <path d="M967 443V441H965V443H967Z"/>
  <path d="M1284 473H1286V475H1284V473Z"/>
  <path d="M1263 495H1261V497H1263V495Z"/>
  <path d="M864 483H865V484H864V483Z"/>
  <path d="M1330 483H1329V484H1330V483Z"/>
  <path d="M714 480H713V481H714V480Z"/>
  <path d="M912 480H911V481H912V480Z"/>
  <path d="M1161 306H1162V307H1161V306Z"/>
  <path d="M1194 480H1193V481H1194V480Z"/>
  <path d="M1095 480H1094V481H1095V480Z"/>
  <path d="M1376 480H1377V481H1376V480Z"/>
  <path d="M390 398H388V400H390V398Z"/>
  <path d="M1339 286H1341V288H1339V286Z"/>
  <path d="M546 427V425H544V427H546Z"/>
  <path d="M484 292H486V294H484V292Z"/>
  <path d="M783 445H781V447H783V445Z"/>
  <path d="M1108 473H1110V475H1108V473Z"/>
  <path d="M1392 473H1390V475H1392V473Z"/>
  <path d="M656 505H657V506H656V505Z"/>
  <path d="M854 505H855V506H854V505Z"/>
  <path d="M900 304H899V305H900V304Z"/>
  <path d="M473 457H474V458H473V457Z"/>
  <path d="M1038 505H1037V506H1038V505Z"/>
  <path d="M1319 505H1320V506H1319V505Z"/>
  <path d="M574 472H573V473H574V472Z"/>
  <path d="M391 472H390V473H391V472Z"/>
  <path d="M771 305H774V308H771V305Z"/>
  <path d="M922 433H925V436H922V433Z"/>
  <path d="M106 274H103V277H106V274Z"/>
  <path d="M1060 289H1063V292H1060V289Z"/>
  <path d="M651 320H647V324H651V320Z"/>
  <path d="M879 568H877V570H879V568Z"/>
  <path d="M1139 516H1138V517H1139V516Z"/>
  <path d="M807 647H808V648H807V647Z"/>
  <path d="M990 647H991V648H990V647Z"/>
  <path d="M1273 647H1272V648H1273V647Z"/>
  <path d="M1292 758H1290V760H1292V758Z"/>
  <path d="M1024 734.5H1023V735.5H1024V734.5Z"/>
  <path d="M1229 687H1230V688H1229V687Z"/>
  <path d="M818 735.5H817V736.5H818V735.5Z"/>
  <path d="M885 678H884V679H885V678Z"/>
  <path d="M1114 663H1113V664H1114V663Z"/>
  <path d="M1115 724H1114V725H1115V724Z"/>
  <path d="M1344 696H1345V697H1344V696Z"/>
  <path d="M873 751H872V752H873V751Z"/>
  <path d="M1138 831H1139V832H1138V831Z"/>
  <path d="M674 584H672V586H674V584Z"/>
  <path d="M965 758V756H967V758H965Z"/>
  <path d="M1130 563H1131V564H1130V563Z"/>
  <path d="M1131 878H1130V879H1131V878Z"/>
  <path d="M942 710H941V711H942V710Z"/>
  <path d="M1161 621H1162V622H1161V621Z"/>
  <path d="M1178 765.5H1177V766.5H1178V765.5Z"/>
  <path d="M1178 560H1177V561H1178V560Z"/>
  <path d="M1377 795H1376V796H1377V795Z"/>
  <path d="M955 703H957V705H955V703Z"/>
  <path d="M1192 836V838H1190V836H1192Z"/>
  <path d="M1392 788H1390V790H1392V788Z"/>
  <path d="M899 619H900V620H899V619Z"/>
  <path d="M1064 783.5H1063V784.5H1064V783.5Z"/>
  <path d="M954 520H955V521H954V520Z"/>
  <path d="M899 829H898V830H899V829Z"/>
  <path d="M996 536H997V537H996V536Z"/>
  <path d="M997 851H996V852H997V851Z"/>
  <path d="M1231 752H1230V753H1231V752Z"/>
  <path d="M807 594H808V595H807V594Z"/>
  <path d="M1082 540H1083V541H1082V540Z"/>
  <path d="M1084 830H1083V831H1084V830Z"/>
  <path d="M1290 835H1289V836H1290V835Z"/>
  <path d="M967 573H966V574H967V573Z"/>
  <path d="M966 888H967V889H966V888Z"/>
  <path d="M1346 628H1345V629H1346V628Z"/>
  <path d="M1299 563H1298V564H1299V563Z"/>
  <path d="M1338 882H1339V883H1338V882Z"/>
  <path d="M731.5 546H729.5V548H731.5V546Z"/>
  <path d="M1061 864H1063V866H1061V864Z"/>
  <path d="M1390 571H1388V573H1390V571Z"/>
  <path d="M1361 858H1363V860H1361V858Z"/>
  <path d="M740 626H738V628H740V626Z"/>
  <path d="M805 538H807V540H805V538Z"/>
  <path d="M1227 582H1229V584H1227V582Z"/>
  <path d="M1229 897H1227V899H1229V897Z"/>
  <path d="M1067 622H1064V625H1067V622Z"/>
</svg>
