<svg width="64" height="64" viewBox="0 0 64 64" fill="none"
  xmlns="http://www.w3.org/2000/svg">
  <path d="M24.4802 18.7562H20.4703C23.8119 15.9104 27.8218 14.3781 32.2772 14.3781C32.9455 14.3781 33.6139 14.3781 34.2822 14.597C35.396 14.8159 36.5099 13.9403 36.7327 12.6269C36.9554 11.5323 36.0644 10.4378 34.7277 10.2189C33.8366 10 33.1683 10 32.2772 10C26.9307 10 21.8069 11.9701 17.797 15.2537V12.1891C17.797 10.8756 16.9059 10 15.5693 10C14.2327 10 13.3416 10.8756 13.3416 12.1891V20.9453C13.3416 22.2587 14.2327 23.1343 15.5693 23.1343H24.4802C25.8168 23.1343 26.7079 22.2587 26.7079 20.9453C26.7079 19.6318 25.8168 18.7562 24.4802 18.7562ZM21.1386 37.3632C19.802 37.3632 18.9109 38.2388 18.9109 39.5522V43.4925C16.0149 40.209 14.4554 36.2687 14.4554 31.8905C14.4554 31.2338 14.4554 30.5771 14.6782 29.9204C14.901 28.8259 14.0099 27.7313 12.6733 27.5124C11.5594 27.2935 10.4455 28.1692 10.2228 29.4826C10 30.3582 10 31.0149 10 31.8905C10 37.1443 12.005 42.1791 15.3465 46.1194H12.2277C10.8911 46.1194 10 46.995 10 48.3085C10 49.6219 10.8911 50.4975 12.2277 50.4975H21.1386C21.8069 50.4975 22.4752 50.0597 22.9208 49.6219C22.9208 49.403 23.1436 49.1841 23.1436 48.9652V39.5522C23.3663 38.2388 22.4752 37.3632 21.1386 37.3632ZM52.3267 17.6617C53.6634 17.6617 54.5545 16.7861 54.5545 15.4726C54.5545 14.1592 53.6634 13.2836 52.3267 13.2836H42.9703C42.7475 13.2836 42.5247 13.5025 42.302 13.5025C42.0792 13.7214 41.8564 13.7214 41.8564 13.9403C41.8564 14.1592 41.6337 14.3781 41.6337 14.3781V23.791C41.6337 25.1045 42.5248 25.9801 43.8614 25.9801C45.198 25.9801 46.0891 25.1045 46.0891 23.791V20.2886C48.9851 23.3532 50.5446 27.5124 50.5446 31.8905C50.5446 32.5473 50.5446 33.204 50.3218 33.8607C50.099 34.9552 50.9901 36.0498 52.3267 36.2687H52.5495C53.6634 36.2687 54.5545 35.393 54.7772 34.2985C54.7772 33.4229 55 32.7662 55 31.8905C55 26.6368 52.995 21.602 49.6535 17.6617H52.3267ZM50.7673 41.7413L50.099 41.0846C49.8762 40.8657 49.6535 40.8657 49.4307 40.8657H40.0743C38.7376 40.8657 37.8465 41.7413 37.8465 43.0547C37.8465 44.3682 38.7376 45.2438 40.0743 45.2438H44.0842C40.9653 48.0896 36.7327 49.6219 32.2772 49.6219C31.6089 49.6219 30.9406 49.6219 30.2723 49.403C29.1584 49.1841 28.0446 50.0597 27.8218 51.3731C27.599 52.6866 28.4901 53.5622 29.8267 53.7811C30.7178 53.7811 31.3861 54 32.2772 54C37.6238 54 42.7475 52.0299 46.7574 48.7463V51.592C46.7574 52.9055 47.6485 53.7811 48.9851 53.7811C50.3218 53.7811 51.2129 52.9055 51.2129 51.592V42.8358C51.2129 42.398 50.9901 41.9602 50.7673 41.7413Z" fill="#2C2C2C"/>
</svg>
