<svg width="64" height="64" viewBox="0 0 64 64" fill="none"
  xmlns="http://www.w3.org/2000/svg">
  <path d="M53.3334 45.3333V18.6667C53.3334 12.8853 43.5654 8 32.0001 8C20.4347 8 10.6667 12.8853 10.6667 18.6667V45.3333C10.6667 51.1147 20.4347 56 32.0001 56C43.5654 56 53.3334 51.1147 53.3334 45.3333ZM32.0001 13.3333C41.8427 13.3333 47.8161 17.352 48.0001 18.6507C47.8161 19.9813 41.8427 24 32.0001 24C22.1574 24 16.1841 19.9813 16.0001 18.6827C16.1841 17.352 22.1574 13.3333 32.0001 13.3333ZM16.0001 25.6187C19.9441 27.8773 25.6987 29.3333 32.0001 29.3333C38.3014 29.3333 44.0561 27.8773 48.0001 25.6187V31.984C47.8161 33.3147 41.8427 37.3333 32.0001 37.3333C22.1574 37.3333 16.1841 33.3147 16.0001 32V25.6187ZM16.0001 45.3333V38.952C19.9441 41.2107 25.6987 42.6667 32.0001 42.6667C38.3014 42.6667 44.0561 41.2107 48.0001 38.952V45.3173C47.8161 46.648 41.8427 50.6667 32.0001 50.6667C22.1574 50.6667 16.1841 46.648 16.0001 45.3333Z" fill="#2C2C2C"/>
</svg>
