<svg width="64" height="64" viewBox="0 0 64 64" fill="none"
  xmlns="http://www.w3.org/2000/svg">
  <path d="M28.0188 14.075C26.8563 14.075 26.0188 14.9125 26.0188 16.0688C26.0188 17.225 26.8626 18.0625 28.0188 18.0625C29.1813 18.0625 30.0188 17.225 30.0188 16.0688C30.0251 14.9188 29.1813 14.075 28.0188 14.075ZM52.6376 20.1C51.7751 19.2375 50.5938 18.7563 49.3126 18.7563C49.0688 18.7563 48.8501 18.7812 48.6438 18.8188V18.7563H48.4188C48.0751 16.8438 47.2563 14.975 46.0376 13.2937C44.8688 11.6875 43.3501 10.3 41.6126 9.2375L43.1814 7V6.79375C43.1814 6.74375 43.2063 6.65 43.2251 6.55625C43.2626 6.40625 43.3126 6.2125 43.3126 6C43.3126 4.84375 42.4688 4.00625 41.3126 4.00625C40.7001 4.00625 40.0938 4.3625 39.6938 4.96875L37.8626 7.6C35.9876 6.9875 33.9626 6.6625 32.0001 6.6625C30.0438 6.6625 28.0188 6.9875 26.1376 7.6L24.3126 4.9625C23.9001 4.3625 23.3063 4 22.6876 4C21.5251 4 20.6876 4.8375 20.6876 5.99375C20.6876 6.38125 20.8438 6.79375 21.1063 7.08125L22.5188 9.1C20.7251 10.1625 19.1751 11.5625 18.0063 13.1687C16.7938 14.85 16.0063 16.7188 15.7126 18.6313H15.3688V18.6938C15.1688 18.6562 14.9501 18.6313 14.7001 18.6313C13.4313 18.6313 12.2501 19.1 11.3813 19.9625C10.5188 20.825 10.0376 22 10.0376 23.275V37.9625C10.0376 39.2313 10.5063 40.4062 11.3751 41.2687C12.2376 42.1312 13.4251 42.6125 14.7001 42.6125C14.9438 42.6125 15.1626 42.5875 15.3688 42.55V48.3937C15.3688 50.2188 16.8626 51.7125 18.6938 51.7125H20.6876V55.3563C20.6876 56.625 21.1563 57.8 22.0251 58.6625C22.8876 59.525 24.0751 60.0062 25.3501 60.0062C26.6188 60.0062 27.8001 59.5375 28.6688 58.675C29.5313 57.8125 30.0126 56.6375 30.0126 55.3625V51.725H34.0001V55.3563C34.0001 56.625 34.4688 57.8 35.3376 58.6625C36.2001 59.525 37.3876 60.0062 38.6626 60.0062C39.9376 60.0062 41.1126 59.5375 41.9813 58.6562C42.8438 57.7938 43.3251 56.6188 43.3251 55.3438V51.7062H45.3188C47.1501 51.7062 48.6438 50.2188 48.6438 48.3875V42.675C48.8438 42.7125 49.0626 42.7375 49.3126 42.7375C50.5813 42.7375 51.7626 42.2687 52.6313 41.4062C53.4938 40.5438 53.9751 39.3688 53.9751 38.0938V23.4062C53.9688 22.1375 53.5001 20.9688 52.6376 20.1ZM15.3751 38.1C15.3751 38.525 15.1313 38.7625 14.7063 38.7625C14.2813 38.7625 14.0376 38.525 14.0376 38.1V23.4062C14.0376 22.9813 14.2813 22.7437 14.7063 22.7437C15.1313 22.7437 15.3751 22.9813 15.3751 23.4062V38.1ZM23.5688 13.3C25.9126 11.5938 28.9001 10.6562 32.0063 10.6562C35.1126 10.6562 38.1001 11.6 40.4438 13.3125C42.4688 14.7937 43.8313 16.7 44.3626 18.7812H19.6501C20.1813 16.6938 21.5563 14.7812 23.5688 13.3ZM26.0251 55.4688C25.9876 55.8187 25.7501 56.0125 25.3688 56.0125C24.9438 56.0125 24.7001 55.775 24.7001 55.35V51.7125H26.0251V55.4688ZM38.6688 56.0125C38.2438 56.0125 38.0001 55.775 38.0001 55.35V51.7125H39.3251V55.4688C39.2876 55.8187 39.0563 56.0125 38.6688 56.0125ZM44.6563 47.725H19.3688V22.75H44.6563V47.725ZM49.9813 38.1C49.9813 38.525 49.7376 38.7625 49.3126 38.7625C48.8876 38.7625 48.6438 38.525 48.6438 38.1V23.4062C48.6438 22.9813 48.8876 22.7437 49.3126 22.7437C49.7376 22.7437 49.9813 22.9813 49.9813 23.4062V38.1ZM36.0063 14.075C34.8438 14.075 34.0063 14.9125 34.0063 16.0688C34.0063 17.225 34.8501 18.0625 36.0063 18.0625C37.1688 18.0625 38.0126 17.225 38.0126 16.0625C38.0063 14.9 37.1751 14.075 36.0063 14.075Z" fill="#222222"/>
</svg>
