<svg width="528" height="186" viewBox="0 0 528 186" fill="none"
  xmlns="http://www.w3.org/2000/svg">
  <path d="M1.72 6.02C2.10667 5.91333 2.62667 5.79333 3.28 5.66C3.93333 5.52667 4.73333 5.46 5.68 5.46C6.46667 5.46 7.12 5.57333 7.64 5.8C8.17333 6.02667 8.59333 6.35333 8.9 6.78C9.22 7.19333 9.44667 7.69333 9.58 8.28C9.71333 8.86667 9.78 9.51333 9.78 10.22V16H8.48V10.64C8.48 9.90667 8.42667 9.28667 8.32 8.78C8.22667 8.27333 8.06 7.86 7.82 7.54C7.59333 7.22 7.28667 6.99333 6.9 6.86C6.52667 6.71333 6.05333 6.64 5.48 6.64C4.86667 6.64 4.33333 6.67333 3.88 6.74C3.44 6.80667 3.15333 6.86667 3.02 6.92V16H1.72V6.02ZM12.4867 10.82C12.4867 9.91333 12.6134 9.12667 12.8667 8.46C13.1334 7.78 13.4734 7.21333 13.8867 6.76C14.3134 6.30667 14.7934 5.97333 15.3267 5.76C15.8734 5.53333 16.4334 5.42 17.0067 5.42C18.2734 5.42 19.2801 5.83333 20.0267 6.66C20.7867 7.48667 21.1667 8.76 21.1667 10.48C21.1667 10.5867 21.1601 10.6933 21.1467 10.8C21.1467 10.9067 21.1401 11.0067 21.1267 11.1H13.8667C13.9067 12.3667 14.2201 13.34 14.8067 14.02C15.3934 14.7 16.3267 15.04 17.6067 15.04C18.3134 15.04 18.8734 14.9733 19.2867 14.84C19.7001 14.7067 20.0001 14.5933 20.1867 14.5L20.4267 15.62C20.2401 15.7267 19.8867 15.8533 19.3667 16C18.8601 16.1467 18.2601 16.22 17.5667 16.22C16.6601 16.22 15.8867 16.0867 15.2467 15.82C14.6067 15.5533 14.0801 15.18 13.6667 14.7C13.2534 14.22 12.9534 13.6533 12.7667 13C12.5801 12.3333 12.4867 11.6067 12.4867 10.82ZM19.8267 10C19.8001 8.92 19.5467 8.08 19.0667 7.48C18.5867 6.88 17.9067 6.58 17.0267 6.58C16.5601 6.58 16.1401 6.67333 15.7667 6.86C15.4067 7.04667 15.0867 7.3 14.8067 7.62C14.5401 7.92667 14.3267 8.28667 14.1667 8.7C14.0201 9.11333 13.9334 9.54667 13.9067 10H19.8267ZM30.7238 5.66C30.8438 6.32667 30.9971 7.04 31.1838 7.8C31.3838 8.54667 31.5971 9.31333 31.8238 10.1C32.0638 10.8733 32.3104 11.64 32.5638 12.4C32.8304 13.16 33.0971 13.8733 33.3637 14.54C33.5904 14.0333 33.8304 13.42 34.0838 12.7C34.3371 11.9667 34.5904 11.2 34.8438 10.4C35.0971 9.58667 35.3304 8.77333 35.5438 7.96C35.7704 7.13333 35.9571 6.36667 36.1038 5.66H37.3838C36.9038 7.68667 36.3771 9.54 35.8038 11.22C35.2438 12.9 34.6238 14.4933 33.9438 16H32.7238C32.5238 15.5333 32.3104 15.0133 32.0838 14.44C31.8704 13.8533 31.6438 13.2333 31.4038 12.58C31.1771 11.9133 30.9504 11.22 30.7238 10.5C30.5104 9.76667 30.3038 9.02 30.1038 8.26C29.9038 9.02 29.6904 9.76667 29.4638 10.5C29.2504 11.22 29.0238 11.9133 28.7838 12.58C28.5571 13.2333 28.3304 13.8533 28.1038 14.44C27.8904 15.0133 27.6838 15.5333 27.4837 16H26.2438C25.5638 14.4933 24.9371 12.9 24.3638 11.22C23.8038 9.54 23.2838 7.68667 22.8038 5.66H24.1838C24.3304 6.36667 24.5104 7.13333 24.7238 7.96C24.9504 8.77333 25.1904 9.58667 25.4438 10.4C25.6971 11.2 25.9504 11.96 26.2038 12.68C26.4704 13.4 26.7171 14.0133 26.9438 14.52C27.1971 13.8533 27.4504 13.14 27.7038 12.38C27.9704 11.62 28.2171 10.8533 28.4438 10.08C28.6704 9.30667 28.8838 8.54667 29.0838 7.8C29.2838 7.04 29.4571 6.32667 29.6038 5.66H30.7238ZM45.4223 16H44.1223V5.66H45.4223V16ZM45.7223 2.54C45.7223 2.84667 45.629 3.09333 45.4423 3.28C45.2557 3.45333 45.029 3.54 44.7623 3.54C44.4957 3.54 44.269 3.45333 44.0823 3.28C43.8957 3.09333 43.8023 2.84667 43.8023 2.54C43.8023 2.23333 43.8957 1.99333 44.0823 1.82C44.269 1.63333 44.4957 1.54 44.7623 1.54C45.029 1.54 45.2557 1.63333 45.4423 1.82C45.629 1.99333 45.7223 2.23333 45.7223 2.54ZM50.0884 5.66H54.2084V6.76H50.0884V12.26C50.0884 12.8467 50.1351 13.3267 50.2284 13.7C50.3351 14.06 50.4818 14.34 50.6684 14.54C50.8551 14.74 51.0818 14.8733 51.3484 14.94C51.6151 15.0067 51.9084 15.04 52.2284 15.04C52.7751 15.04 53.2151 14.98 53.5484 14.86C53.8818 14.7267 54.1418 14.6067 54.3284 14.5L54.6484 15.58C54.4618 15.7 54.1351 15.84 53.6684 16C53.2018 16.1467 52.6951 16.22 52.1484 16.22C51.5084 16.22 50.9684 16.14 50.5284 15.98C50.1018 15.8067 49.7551 15.5533 49.4884 15.22C49.2351 14.8733 49.0551 14.4467 48.9484 13.94C48.8418 13.4333 48.7884 12.8333 48.7884 12.14V2.62L50.0884 2.38V5.66ZM55.9828 10.82C55.9828 9.91333 56.1095 9.12667 56.3628 8.46C56.6295 7.78 56.9695 7.21333 57.3828 6.76C57.8095 6.30667 58.2895 5.97333 58.8228 5.76C59.3695 5.53333 59.9295 5.42 60.5028 5.42C61.7695 5.42 62.7761 5.83333 63.5228 6.66C64.2828 7.48667 64.6628 8.76 64.6628 10.48C64.6628 10.5867 64.6561 10.6933 64.6428 10.8C64.6428 10.9067 64.6361 11.0067 64.6228 11.1H57.3628C57.4028 12.3667 57.7161 13.34 58.3028 14.02C58.8895 14.7 59.8228 15.04 61.1028 15.04C61.8095 15.04 62.3695 14.9733 62.7828 14.84C63.1961 14.7067 63.4961 14.5933 63.6828 14.5L63.9228 15.62C63.7361 15.7267 63.3828 15.8533 62.8628 16C62.3561 16.1467 61.7561 16.22 61.0628 16.22C60.1561 16.22 59.3828 16.0867 58.7428 15.82C58.1028 15.5533 57.5761 15.18 57.1628 14.7C56.7495 14.22 56.4495 13.6533 56.2628 13C56.0761 12.3333 55.9828 11.6067 55.9828 10.82ZM63.3228 10C63.2961 8.92 63.0428 8.08 62.5628 7.48C62.0828 6.88 61.4028 6.58 60.5228 6.58C60.0561 6.58 59.6361 6.67333 59.2628 6.86C58.9028 7.04667 58.5828 7.3 58.3028 7.62C58.0361 7.92667 57.8228 8.28667 57.6628 8.7C57.5161 9.11333 57.4295 9.54667 57.4028 10H63.3228ZM67.5598 6.02C67.9465 5.91333 68.4465 5.79333 69.0598 5.66C69.6865 5.52667 70.4932 5.46 71.4798 5.46C72.7865 5.46 73.7332 5.84 74.3198 6.6C74.3865 6.54667 74.5132 6.46 74.6998 6.34C74.8998 6.20667 75.1465 6.07333 75.4398 5.94C75.7332 5.80667 76.0732 5.69333 76.4598 5.6C76.8598 5.50667 77.2998 5.46 77.7798 5.46C78.5665 5.46 79.1998 5.58 79.6798 5.82C80.1732 6.04667 80.5532 6.37333 80.8198 6.8C81.0865 7.21333 81.2665 7.71333 81.3598 8.3C81.4532 8.88667 81.4998 9.52667 81.4998 10.22V16H80.1998V10.64C80.1998 9.96 80.1665 9.37333 80.0998 8.88C80.0465 8.37333 79.9265 7.96 79.7398 7.64C79.5665 7.30667 79.3132 7.06 78.9798 6.9C78.6465 6.72667 78.2132 6.64 77.6798 6.64C77.2798 6.64 76.9132 6.68 76.5798 6.76C76.2598 6.82667 75.9798 6.91333 75.7398 7.02C75.4998 7.12667 75.2998 7.23333 75.1398 7.34C74.9932 7.44667 74.8865 7.52667 74.8198 7.58C74.9398 7.92667 75.0265 8.32 75.0798 8.76C75.1465 9.18667 75.1798 9.64 75.1798 10.12V16H73.8798V10.64C73.8798 9.96 73.8465 9.37333 73.7798 8.88C73.7265 8.37333 73.6065 7.96 73.4198 7.64C73.2332 7.30667 72.9665 7.06 72.6198 6.9C72.2865 6.72667 71.8398 6.64 71.2798 6.64C70.6532 6.64 70.1198 6.67333 69.6798 6.74C69.2532 6.80667 68.9798 6.86667 68.8598 6.92V16H67.5598V6.02ZM92.6363 15.06C93.1429 15.06 93.5829 15.0467 93.9563 15.02C94.3429 14.98 94.6696 14.9333 94.9363 14.88V11.24C94.7896 11.1733 94.5563 11.1067 94.2363 11.04C93.9163 10.96 93.4763 10.92 92.9163 10.92C92.5963 10.92 92.2629 10.9467 91.9163 11C91.5696 11.04 91.2496 11.14 90.9563 11.3C90.6629 11.4467 90.4229 11.6533 90.2363 11.92C90.0496 12.1867 89.9563 12.54 89.9563 12.98C89.9563 13.3667 90.0163 13.6933 90.1363 13.96C90.2696 14.2267 90.4496 14.44 90.6763 14.6C90.9163 14.76 91.1963 14.88 91.5163 14.96C91.8496 15.0267 92.2229 15.06 92.6363 15.06ZM92.5163 5.42C93.1963 5.42 93.7696 5.52 94.2363 5.72C94.7163 5.90667 95.1029 6.17333 95.3963 6.52C95.6896 6.85333 95.9029 7.25333 96.0363 7.72C96.1696 8.18667 96.2363 8.69333 96.2363 9.24V15.76C96.1029 15.8 95.9096 15.8467 95.6563 15.9C95.4029 15.94 95.1096 15.9867 94.7763 16.04C94.4429 16.0933 94.0696 16.1333 93.6563 16.16C93.2563 16.2 92.8429 16.22 92.4163 16.22C91.8696 16.22 91.3629 16.16 90.8963 16.04C90.4429 15.92 90.0429 15.7333 89.6963 15.48C89.3629 15.2133 89.0963 14.88 88.8963 14.48C88.7096 14.0667 88.6163 13.5667 88.6163 12.98C88.6163 12.42 88.7229 11.94 88.9363 11.54C89.1496 11.14 89.4496 10.8133 89.8363 10.56C90.2229 10.2933 90.6829 10.1 91.2163 9.98C91.7496 9.86 92.3296 9.8 92.9563 9.8C93.1429 9.8 93.3363 9.81333 93.5362 9.84C93.7496 9.85333 93.9496 9.88 94.1363 9.92C94.3363 9.94667 94.5029 9.98 94.6363 10.02C94.7829 10.0467 94.8829 10.0733 94.9363 10.1V9.46C94.9363 9.1 94.9096 8.75333 94.8563 8.42C94.8029 8.07333 94.6829 7.76667 94.4963 7.5C94.3229 7.22 94.0696 7 93.7363 6.84C93.4163 6.66667 92.9896 6.58 92.4563 6.58C91.6963 6.58 91.1296 6.63333 90.7563 6.74C90.3829 6.84667 90.1096 6.93333 89.9363 7L89.7563 5.86C89.9829 5.75333 90.3296 5.65333 90.7963 5.56C91.2763 5.46667 91.8496 5.42 92.5163 5.42ZM100.852 14.14C100.972 14.2333 101.119 14.3333 101.292 14.44C101.479 14.5467 101.692 14.6467 101.932 14.74C102.172 14.8333 102.432 14.9133 102.712 14.98C102.992 15.0333 103.285 15.06 103.592 15.06C104.232 15.06 104.765 14.9533 105.192 14.74C105.632 14.5133 105.985 14.2133 106.252 13.84C106.519 13.4533 106.712 13.0067 106.832 12.5C106.952 11.98 107.012 11.4333 107.012 10.86C107.012 9.5 106.672 8.46 105.992 7.74C105.312 7.00667 104.412 6.64 103.292 6.64C102.652 6.64 102.132 6.67333 101.732 6.74C101.345 6.79333 101.052 6.85333 100.852 6.92V14.14ZM100.852 19.7H99.552V6.02C99.9387 5.88667 100.432 5.76 101.032 5.64C101.632 5.52 102.392 5.46 103.312 5.46C104.072 5.46 104.759 5.58667 105.372 5.84C105.999 6.08 106.532 6.43333 106.972 6.9C107.425 7.36667 107.772 7.93333 108.012 8.6C108.265 9.26667 108.392 10.02 108.392 10.86C108.392 11.6467 108.285 12.3733 108.072 13.04C107.872 13.6933 107.572 14.26 107.172 14.74C106.772 15.2067 106.279 15.5733 105.692 15.84C105.119 16.1067 104.459 16.24 103.712 16.24C103.032 16.24 102.439 16.1467 101.932 15.96C101.439 15.76 101.079 15.5733 100.852 15.4V19.7ZM112.512 14.14C112.632 14.2333 112.779 14.3333 112.952 14.44C113.139 14.5467 113.352 14.6467 113.592 14.74C113.832 14.8333 114.092 14.9133 114.372 14.98C114.652 15.0333 114.946 15.06 115.252 15.06C115.892 15.06 116.426 14.9533 116.852 14.74C117.292 14.5133 117.646 14.2133 117.912 13.84C118.179 13.4533 118.372 13.0067 118.492 12.5C118.612 11.98 118.672 11.4333 118.672 10.86C118.672 9.5 118.332 8.46 117.652 7.74C116.972 7.00667 116.072 6.64 114.952 6.64C114.312 6.64 113.792 6.67333 113.392 6.74C113.006 6.79333 112.712 6.85333 112.512 6.92V14.14ZM112.512 19.7H111.212V6.02C111.599 5.88667 112.092 5.76 112.692 5.64C113.292 5.52 114.052 5.46 114.972 5.46C115.732 5.46 116.419 5.58667 117.032 5.84C117.659 6.08 118.192 6.43333 118.632 6.9C119.086 7.36667 119.432 7.93333 119.672 8.6C119.926 9.26667 120.052 10.02 120.052 10.86C120.052 11.6467 119.946 12.3733 119.732 13.04C119.532 13.6933 119.232 14.26 118.832 14.74C118.432 15.2067 117.939 15.5733 117.352 15.84C116.779 16.1067 116.119 16.24 115.372 16.24C114.692 16.24 114.099 16.1467 113.592 15.96C113.099 15.76 112.739 15.5733 112.512 15.4V19.7ZM125.492 16.18C125.052 16.1667 124.666 16.1067 124.332 16C124.012 15.9067 123.739 15.76 123.512 15.56C123.299 15.3467 123.132 15.08 123.012 14.76C122.906 14.4267 122.852 14.0133 122.852 13.52V0.719999L124.152 0.48V13.48C124.152 13.8 124.179 14.06 124.232 14.26C124.299 14.4467 124.392 14.6 124.512 14.72C124.632 14.8267 124.786 14.9067 124.972 14.96C125.172 15.0133 125.406 15.06 125.672 15.1L125.492 16.18ZM129.27 16H127.97V5.66H129.27V16ZM129.57 2.54C129.57 2.84667 129.477 3.09333 129.29 3.28C129.103 3.45333 128.877 3.54 128.61 3.54C128.343 3.54 128.117 3.45333 127.93 3.28C127.743 3.09333 127.65 2.84667 127.65 2.54C127.65 2.23333 127.743 1.99333 127.93 1.82C128.117 1.63333 128.343 1.54 128.61 1.54C128.877 1.54 129.103 1.63333 129.29 1.82C129.477 1.99333 129.57 2.23333 129.57 2.54ZM136.996 16.22C136.196 16.22 135.489 16.0933 134.876 15.84C134.263 15.5867 133.749 15.2267 133.336 14.76C132.936 14.28 132.629 13.7133 132.416 13.06C132.203 12.3933 132.096 11.66 132.096 10.86C132.096 10.0467 132.203 9.30667 132.416 8.64C132.643 7.97333 132.963 7.4 133.376 6.92C133.789 6.44 134.289 6.07333 134.876 5.82C135.463 5.55333 136.123 5.42 136.856 5.42C137.416 5.42 137.936 5.46667 138.416 5.56C138.909 5.65333 139.289 5.77333 139.556 5.92L139.216 7.04C138.949 6.90667 138.649 6.8 138.316 6.72C137.983 6.64 137.536 6.6 136.976 6.6C135.829 6.6 134.956 6.97333 134.356 7.72C133.769 8.45333 133.476 9.5 133.476 10.86C133.476 11.4733 133.543 12.04 133.676 12.56C133.809 13.0667 134.023 13.5067 134.316 13.88C134.623 14.24 135.009 14.5267 135.476 14.74C135.956 14.94 136.536 15.04 137.216 15.04C137.776 15.04 138.243 14.98 138.616 14.86C139.003 14.7267 139.283 14.6133 139.456 14.52L139.736 15.64C139.496 15.7733 139.116 15.9 138.596 16.02C138.089 16.1533 137.556 16.22 136.996 16.22ZM145.175 15.06C145.682 15.06 146.122 15.0467 146.495 15.02C146.882 14.98 147.209 14.9333 147.475 14.88V11.24C147.329 11.1733 147.095 11.1067 146.775 11.04C146.455 10.96 146.015 10.92 145.455 10.92C145.135 10.92 144.802 10.9467 144.455 11C144.109 11.04 143.789 11.14 143.495 11.3C143.202 11.4467 142.962 11.6533 142.775 11.92C142.589 12.1867 142.495 12.54 142.495 12.98C142.495 13.3667 142.555 13.6933 142.675 13.96C142.809 14.2267 142.989 14.44 143.215 14.6C143.455 14.76 143.735 14.88 144.055 14.96C144.389 15.0267 144.762 15.06 145.175 15.06ZM145.055 5.42C145.735 5.42 146.309 5.52 146.775 5.72C147.255 5.90667 147.642 6.17333 147.935 6.52C148.229 6.85333 148.442 7.25333 148.575 7.72C148.709 8.18667 148.775 8.69333 148.775 9.24V15.76C148.642 15.8 148.449 15.8467 148.195 15.9C147.942 15.94 147.649 15.9867 147.315 16.04C146.982 16.0933 146.609 16.1333 146.195 16.16C145.795 16.2 145.382 16.22 144.955 16.22C144.409 16.22 143.902 16.16 143.435 16.04C142.982 15.92 142.582 15.7333 142.235 15.48C141.902 15.2133 141.635 14.88 141.435 14.48C141.249 14.0667 141.155 13.5667 141.155 12.98C141.155 12.42 141.262 11.94 141.475 11.54C141.689 11.14 141.989 10.8133 142.375 10.56C142.762 10.2933 143.222 10.1 143.755 9.98C144.289 9.86 144.869 9.8 145.495 9.8C145.682 9.8 145.875 9.81333 146.075 9.84C146.289 9.85333 146.489 9.88 146.675 9.92C146.875 9.94667 147.042 9.98 147.175 10.02C147.322 10.0467 147.422 10.0733 147.475 10.1V9.46C147.475 9.1 147.449 8.75333 147.395 8.42C147.342 8.07333 147.222 7.76667 147.035 7.5C146.862 7.22 146.609 7 146.275 6.84C145.955 6.66667 145.529 6.58 144.995 6.58C144.235 6.58 143.669 6.63333 143.295 6.74C142.922 6.84667 142.649 6.93333 142.475 7L142.295 5.86C142.522 5.75333 142.869 5.65333 143.335 5.56C143.815 5.46667 144.389 5.42 145.055 5.42ZM153.311 5.66H157.431V6.76H153.311V12.26C153.311 12.8467 153.358 13.3267 153.451 13.7C153.558 14.06 153.704 14.34 153.891 14.54C154.078 14.74 154.304 14.8733 154.571 14.94C154.838 15.0067 155.131 15.04 155.451 15.04C155.998 15.04 156.438 14.98 156.771 14.86C157.104 14.7267 157.364 14.6067 157.551 14.5L157.871 15.58C157.684 15.7 157.358 15.84 156.891 16C156.424 16.1467 155.918 16.22 155.371 16.22C154.731 16.22 154.191 16.14 153.751 15.98C153.324 15.8067 152.978 15.5533 152.711 15.22C152.458 14.8733 152.278 14.4467 152.171 13.94C152.064 13.4333 152.011 12.8333 152.011 12.14V2.62L153.311 2.38V5.66ZM161.125 16H159.825V5.66H161.125V16ZM161.425 2.54C161.425 2.84667 161.332 3.09333 161.145 3.28C160.959 3.45333 160.732 3.54 160.465 3.54C160.199 3.54 159.972 3.45333 159.785 3.28C159.599 3.09333 159.505 2.84667 159.505 2.54C159.505 2.23333 159.599 1.99333 159.785 1.82C159.972 1.63333 160.199 1.54 160.465 1.54C160.732 1.54 160.959 1.63333 161.145 1.82C161.332 1.99333 161.425 2.23333 161.425 2.54ZM173.392 10.84C173.392 11.6533 173.272 12.3933 173.032 13.06C172.805 13.7267 172.478 14.2933 172.052 14.76C171.638 15.2267 171.145 15.5933 170.572 15.86C169.998 16.1133 169.365 16.24 168.672 16.24C167.978 16.24 167.345 16.1133 166.772 15.86C166.198 15.5933 165.698 15.2267 165.272 14.76C164.858 14.2933 164.532 13.7267 164.292 13.06C164.065 12.3933 163.952 11.6533 163.952 10.84C163.952 10.0267 164.065 9.28667 164.292 8.62C164.532 7.95333 164.858 7.38667 165.272 6.92C165.698 6.44 166.198 6.07333 166.772 5.82C167.345 5.55333 167.978 5.42 168.672 5.42C169.365 5.42 169.998 5.55333 170.572 5.82C171.145 6.07333 171.638 6.44 172.052 6.92C172.478 7.38667 172.805 7.95333 173.032 8.62C173.272 9.28667 173.392 10.0267 173.392 10.84ZM172.012 10.84C172.012 9.54667 171.712 8.52 171.112 7.76C170.512 6.98667 169.698 6.6 168.672 6.6C167.645 6.6 166.832 6.98667 166.232 7.76C165.632 8.52 165.332 9.54667 165.332 10.84C165.332 12.1333 165.632 13.16 166.232 13.92C166.832 14.68 167.645 15.06 168.672 15.06C169.698 15.06 170.512 14.68 171.112 13.92C171.712 13.16 172.012 12.1333 172.012 10.84ZM176.212 6.02C176.599 5.91333 177.119 5.79333 177.772 5.66C178.426 5.52667 179.226 5.46 180.172 5.46C180.959 5.46 181.612 5.57333 182.132 5.8C182.666 6.02667 183.086 6.35333 183.392 6.78C183.712 7.19333 183.939 7.69333 184.072 8.28C184.206 8.86667 184.272 9.51333 184.272 10.22V16H182.972V10.64C182.972 9.90667 182.919 9.28667 182.812 8.78C182.719 8.27333 182.552 7.86 182.312 7.54C182.086 7.22 181.779 6.99333 181.392 6.86C181.019 6.71333 180.546 6.64 179.972 6.64C179.359 6.64 178.826 6.67333 178.372 6.74C177.932 6.80667 177.646 6.86667 177.512 6.92V16H176.212V6.02ZM191.53 10.82C191.53 9.91333 191.656 9.12667 191.91 8.46C192.176 7.78 192.516 7.21333 192.93 6.76C193.356 6.30667 193.836 5.97333 194.37 5.76C194.916 5.53333 195.476 5.42 196.05 5.42C197.316 5.42 198.323 5.83333 199.07 6.66C199.83 7.48667 200.21 8.76 200.21 10.48C200.21 10.5867 200.203 10.6933 200.19 10.8C200.19 10.9067 200.183 11.0067 200.17 11.1H192.91C192.95 12.3667 193.263 13.34 193.85 14.02C194.436 14.7 195.37 15.04 196.65 15.04C197.356 15.04 197.916 14.9733 198.33 14.84C198.743 14.7067 199.043 14.5933 199.23 14.5L199.47 15.62C199.283 15.7267 198.93 15.8533 198.41 16C197.903 16.1467 197.303 16.22 196.61 16.22C195.703 16.22 194.93 16.0867 194.29 15.82C193.65 15.5533 193.123 15.18 192.71 14.7C192.296 14.22 191.996 13.6533 191.81 13C191.623 12.3333 191.53 11.6067 191.53 10.82ZM198.87 10C198.843 8.92 198.59 8.08 198.11 7.48C197.63 6.88 196.95 6.58 196.07 6.58C195.603 6.58 195.183 6.67333 194.81 6.86C194.45 7.04667 194.13 7.3 193.85 7.62C193.583 7.92667 193.37 8.28667 193.21 8.7C193.063 9.11333 192.976 9.54667 192.95 10H198.87ZM206.347 11.32C206.053 11.7067 205.76 12.1133 205.467 12.54C205.173 12.9667 204.887 13.3867 204.607 13.8C204.34 14.2133 204.093 14.6133 203.867 15C203.64 15.3733 203.447 15.7067 203.287 16H201.947C202.493 14.9733 203.067 14.02 203.667 13.14C204.267 12.2467 204.88 11.3733 205.507 10.52L202.147 5.66H203.667L206.347 9.62L209.067 5.66H210.487L207.187 10.44C207.467 10.8133 207.767 11.22 208.087 11.66C208.407 12.1 208.727 12.56 209.047 13.04C209.367 13.5067 209.673 13.9933 209.967 14.5C210.273 15.0067 210.553 15.5067 210.807 16H209.407C209.247 15.7067 209.053 15.3733 208.827 15C208.6 14.6133 208.347 14.2133 208.067 13.8C207.8 13.3867 207.513 12.9667 207.207 12.54C206.913 12.1133 206.627 11.7067 206.347 11.32ZM214.387 14.14C214.507 14.2333 214.654 14.3333 214.827 14.44C215.014 14.5467 215.227 14.6467 215.467 14.74C215.707 14.8333 215.967 14.9133 216.247 14.98C216.527 15.0333 216.821 15.06 217.127 15.06C217.767 15.06 218.301 14.9533 218.727 14.74C219.167 14.5133 219.521 14.2133 219.787 13.84C220.054 13.4533 220.247 13.0067 220.367 12.5C220.487 11.98 220.547 11.4333 220.547 10.86C220.547 9.5 220.207 8.46 219.527 7.74C218.847 7.00667 217.947 6.64 216.827 6.64C216.187 6.64 215.667 6.67333 215.267 6.74C214.881 6.79333 214.587 6.85333 214.387 6.92V14.14ZM214.387 19.7H213.087V6.02C213.474 5.88667 213.967 5.76 214.567 5.64C215.167 5.52 215.927 5.46 216.847 5.46C217.607 5.46 218.294 5.58667 218.907 5.84C219.534 6.08 220.067 6.43333 220.507 6.9C220.961 7.36667 221.307 7.93333 221.547 8.6C221.801 9.26667 221.927 10.02 221.927 10.86C221.927 11.6467 221.821 12.3733 221.607 13.04C221.407 13.6933 221.107 14.26 220.707 14.74C220.307 15.2067 219.814 15.5733 219.227 15.84C218.654 16.1067 217.994 16.24 217.247 16.24C216.567 16.24 215.974 16.1467 215.467 15.96C214.974 15.76 214.614 15.5733 214.387 15.4V19.7ZM224.127 10.82C224.127 9.91333 224.254 9.12667 224.507 8.46C224.774 7.78 225.114 7.21333 225.527 6.76C225.954 6.30667 226.434 5.97333 226.967 5.76C227.514 5.53333 228.074 5.42 228.647 5.42C229.914 5.42 230.921 5.83333 231.667 6.66C232.427 7.48667 232.807 8.76 232.807 10.48C232.807 10.5867 232.801 10.6933 232.787 10.8C232.787 10.9067 232.781 11.0067 232.767 11.1H225.507C225.547 12.3667 225.861 13.34 226.447 14.02C227.034 14.7 227.967 15.04 229.247 15.04C229.954 15.04 230.514 14.9733 230.927 14.84C231.341 14.7067 231.641 14.5933 231.827 14.5L232.067 15.62C231.881 15.7267 231.527 15.8533 231.007 16C230.501 16.1467 229.901 16.22 229.207 16.22C228.301 16.22 227.527 16.0867 226.887 15.82C226.247 15.5533 225.721 15.18 225.307 14.7C224.894 14.22 224.594 13.6533 224.407 13C224.221 12.3333 224.127 11.6067 224.127 10.82ZM231.467 10C231.441 8.92 231.187 8.08 230.707 7.48C230.227 6.88 229.547 6.58 228.667 6.58C228.201 6.58 227.781 6.67333 227.407 6.86C227.047 7.04667 226.727 7.3 226.447 7.62C226.181 7.92667 225.967 8.28667 225.807 8.7C225.661 9.11333 225.574 9.54667 225.547 10H231.467ZM239.224 5.46C239.651 5.46 240.051 5.49333 240.424 5.56C240.811 5.62667 241.078 5.69333 241.224 5.76L240.964 6.88C240.858 6.82667 240.638 6.77333 240.304 6.72C239.984 6.65333 239.558 6.62 239.024 6.62C238.464 6.62 238.011 6.66 237.664 6.74C237.331 6.82 237.111 6.88667 237.004 6.94V16H235.704V6.14C236.038 5.99333 236.498 5.84667 237.084 5.7C237.671 5.54 238.384 5.46 239.224 5.46ZM244.485 16H243.185V5.66H244.485V16ZM244.785 2.54C244.785 2.84667 244.692 3.09333 244.505 3.28C244.318 3.45333 244.092 3.54 243.825 3.54C243.558 3.54 243.332 3.45333 243.145 3.28C242.958 3.09333 242.865 2.84667 242.865 2.54C242.865 2.23333 242.958 1.99333 243.145 1.82C243.332 1.63333 243.558 1.54 243.825 1.54C244.092 1.54 244.318 1.63333 244.505 1.82C244.692 1.99333 244.785 2.23333 244.785 2.54ZM247.311 10.82C247.311 9.91333 247.438 9.12667 247.691 8.46C247.958 7.78 248.298 7.21333 248.711 6.76C249.138 6.30667 249.618 5.97333 250.151 5.76C250.698 5.53333 251.258 5.42 251.831 5.42C253.098 5.42 254.104 5.83333 254.851 6.66C255.611 7.48667 255.991 8.76 255.991 10.48C255.991 10.5867 255.984 10.6933 255.971 10.8C255.971 10.9067 255.964 11.0067 255.951 11.1H248.691C248.731 12.3667 249.044 13.34 249.631 14.02C250.218 14.7 251.151 15.04 252.431 15.04C253.138 15.04 253.698 14.9733 254.111 14.84C254.524 14.7067 254.824 14.5933 255.011 14.5L255.251 15.62C255.064 15.7267 254.711 15.8533 254.191 16C253.684 16.1467 253.084 16.22 252.391 16.22C251.484 16.22 250.711 16.0867 250.071 15.82C249.431 15.5533 248.904 15.18 248.491 14.7C248.078 14.22 247.778 13.6533 247.591 13C247.404 12.3333 247.311 11.6067 247.311 10.82ZM254.651 10C254.624 8.92 254.371 8.08 253.891 7.48C253.411 6.88 252.731 6.58 251.851 6.58C251.384 6.58 250.964 6.67333 250.591 6.86C250.231 7.04667 249.911 7.3 249.631 7.62C249.364 7.92667 249.151 8.28667 248.991 8.7C248.844 9.11333 248.758 9.54667 248.731 10H254.651ZM258.888 6.02C259.275 5.91333 259.795 5.79333 260.448 5.66C261.101 5.52667 261.901 5.46 262.848 5.46C263.635 5.46 264.288 5.57333 264.808 5.8C265.341 6.02667 265.761 6.35333 266.068 6.78C266.388 7.19333 266.615 7.69333 266.748 8.28C266.881 8.86667 266.948 9.51333 266.948 10.22V16H265.648V10.64C265.648 9.90667 265.595 9.28667 265.488 8.78C265.395 8.27333 265.228 7.86 264.988 7.54C264.761 7.22 264.455 6.99333 264.068 6.86C263.695 6.71333 263.221 6.64 262.648 6.64C262.035 6.64 261.501 6.67333 261.048 6.74C260.608 6.80667 260.321 6.86667 260.188 6.92V16H258.888V6.02ZM274.555 16.22C273.755 16.22 273.048 16.0933 272.435 15.84C271.821 15.5867 271.308 15.2267 270.895 14.76C270.495 14.28 270.188 13.7133 269.975 13.06C269.761 12.3933 269.655 11.66 269.655 10.86C269.655 10.0467 269.761 9.30667 269.975 8.64C270.201 7.97333 270.521 7.4 270.935 6.92C271.348 6.44 271.848 6.07333 272.435 5.82C273.021 5.55333 273.681 5.42 274.415 5.42C274.975 5.42 275.495 5.46667 275.975 5.56C276.468 5.65333 276.848 5.77333 277.115 5.92L276.775 7.04C276.508 6.90667 276.208 6.8 275.875 6.72C275.541 6.64 275.095 6.6 274.535 6.6C273.388 6.6 272.515 6.97333 271.915 7.72C271.328 8.45333 271.035 9.5 271.035 10.86C271.035 11.4733 271.101 12.04 271.235 12.56C271.368 13.0667 271.581 13.5067 271.875 13.88C272.181 14.24 272.568 14.5267 273.035 14.74C273.515 14.94 274.095 15.04 274.775 15.04C275.335 15.04 275.801 14.98 276.175 14.86C276.561 14.7267 276.841 14.6133 277.015 14.52L277.295 15.64C277.055 15.7733 276.675 15.9 276.155 16.02C275.648 16.1533 275.115 16.22 274.555 16.22ZM278.854 10.82C278.854 9.91333 278.981 9.12667 279.234 8.46C279.501 7.78 279.841 7.21333 280.254 6.76C280.681 6.30667 281.161 5.97333 281.694 5.76C282.241 5.53333 282.801 5.42 283.374 5.42C284.641 5.42 285.647 5.83333 286.394 6.66C287.154 7.48667 287.534 8.76 287.534 10.48C287.534 10.5867 287.527 10.6933 287.514 10.8C287.514 10.9067 287.507 11.0067 287.494 11.1H280.234C280.274 12.3667 280.587 13.34 281.174 14.02C281.761 14.7 282.694 15.04 283.974 15.04C284.681 15.04 285.241 14.9733 285.654 14.84C286.067 14.7067 286.367 14.5933 286.554 14.5L286.794 15.62C286.607 15.7267 286.254 15.8533 285.734 16C285.227 16.1467 284.627 16.22 283.934 16.22C283.027 16.22 282.254 16.0867 281.614 15.82C280.974 15.5533 280.447 15.18 280.034 14.7C279.621 14.22 279.321 13.6533 279.134 13C278.947 12.3333 278.854 11.6067 278.854 10.82ZM286.194 10C286.167 8.92 285.914 8.08 285.434 7.48C284.954 6.88 284.274 6.58 283.394 6.58C282.927 6.58 282.507 6.67333 282.134 6.86C281.774 7.04667 281.454 7.3 281.174 7.62C280.907 7.92667 280.694 8.28667 280.534 8.7C280.387 9.11333 280.301 9.54667 280.274 10H286.194Z" fill="#2C2C2C"/>
  <rect y="66" width="158" height="120" rx="8" fill="#3A70A6"/>
  <rect x="185" y="66" width="158" height="120" rx="8" fill="#3A70A6"/>
  <rect x="370" y="66" width="158" height="120" rx="8" fill="#3A70A6"/>
  <path d="M212.514 55.24C211.682 55.24 210.935 55.112 210.274 54.856C209.612 54.6 209.052 54.2267 208.594 53.736C208.135 53.2347 207.783 52.6267 207.538 51.912C207.292 51.1973 207.17 50.376 207.17 49.448C207.17 48.52 207.308 47.6987 207.586 46.984C207.874 46.2693 208.263 45.6667 208.754 45.176C209.244 44.6747 209.82 44.296 210.482 44.04C211.143 43.784 211.852 43.656 212.61 43.656C213.068 43.656 213.484 43.6933 213.858 43.768C214.231 43.832 214.556 43.9067 214.834 43.992C215.111 44.0773 215.34 44.168 215.522 44.264C215.703 44.36 215.831 44.4293 215.906 44.472L215.314 46.12C215.058 45.96 214.69 45.8107 214.21 45.672C213.74 45.5227 213.228 45.448 212.674 45.448C212.194 45.448 211.746 45.5333 211.33 45.704C210.914 45.864 210.551 46.1093 210.242 46.44C209.943 46.7707 209.708 47.1867 209.538 47.688C209.367 48.1893 209.282 48.7707 209.282 49.432C209.282 50.0187 209.346 50.5573 209.474 51.048C209.612 51.5387 209.82 51.9653 210.098 52.328C210.375 52.68 210.727 52.9573 211.154 53.16C211.58 53.352 212.092 53.448 212.69 53.448C213.404 53.448 213.986 53.3787 214.434 53.24C214.882 53.0907 215.228 52.952 215.474 52.824L216.018 54.472C215.89 54.5573 215.714 54.6427 215.49 54.728C215.276 54.8133 215.02 54.8987 214.722 54.984C214.423 55.0587 214.087 55.1173 213.714 55.16C213.34 55.2133 212.94 55.24 212.514 55.24ZM225.058 50.808C225.058 51.4693 224.962 52.072 224.77 52.616C224.578 53.16 224.306 53.624 223.954 54.008C223.602 54.392 223.175 54.6907 222.674 54.904C222.183 55.1173 221.639 55.224 221.042 55.224C220.444 55.224 219.9 55.1173 219.41 54.904C218.919 54.6907 218.498 54.392 218.146 54.008C217.794 53.624 217.516 53.16 217.314 52.616C217.122 52.072 217.026 51.4693 217.026 50.808C217.026 50.1467 217.122 49.5493 217.314 49.016C217.516 48.472 217.794 48.008 218.146 47.624C218.508 47.24 218.935 46.9467 219.426 46.744C219.916 46.5307 220.455 46.424 221.042 46.424C221.628 46.424 222.167 46.5307 222.658 46.744C223.159 46.9467 223.586 47.24 223.938 47.624C224.29 48.008 224.562 48.472 224.754 49.016C224.956 49.5493 225.058 50.1467 225.058 50.808ZM223.074 50.808C223.074 49.976 222.892 49.32 222.53 48.84C222.178 48.3493 221.682 48.104 221.042 48.104C220.402 48.104 219.9 48.3493 219.538 48.84C219.186 49.32 219.01 49.976 219.01 50.808C219.01 51.6507 219.186 52.3173 219.538 52.808C219.9 53.2987 220.402 53.544 221.042 53.544C221.682 53.544 222.178 53.2987 222.53 52.808C222.892 52.3173 223.074 51.6507 223.074 50.808ZM231.82 50.6C231.82 49.7253 231.708 49.096 231.484 48.712C231.271 48.3173 230.866 48.12 230.268 48.12C230.055 48.12 229.82 48.136 229.564 48.168C229.308 48.2 229.116 48.2267 228.988 48.248V55H227.052V46.904C227.426 46.7973 227.911 46.696 228.508 46.6C229.116 46.504 229.756 46.456 230.428 46.456C231.004 46.456 231.474 46.5307 231.836 46.68C232.21 46.8293 232.519 47.0267 232.764 47.272C232.882 47.1867 233.031 47.096 233.212 47C233.394 46.904 233.596 46.8187 233.82 46.744C234.044 46.6587 234.279 46.5893 234.524 46.536C234.78 46.4827 235.036 46.456 235.292 46.456C235.943 46.456 236.476 46.552 236.892 46.744C237.319 46.9253 237.65 47.1867 237.884 47.528C238.13 47.8587 238.295 48.264 238.38 48.744C238.476 49.2133 238.524 49.7307 238.524 50.296V55H236.588V50.6C236.588 49.7253 236.482 49.096 236.268 48.712C236.055 48.3173 235.644 48.12 235.036 48.12C234.727 48.12 234.434 48.1733 234.156 48.28C233.879 48.376 233.671 48.472 233.532 48.568C233.618 48.8347 233.676 49.1173 233.708 49.416C233.74 49.7147 233.756 50.0347 233.756 50.376V55H231.82V50.6ZM245.664 50.6C245.664 49.7253 245.552 49.096 245.328 48.712C245.115 48.3173 244.709 48.12 244.112 48.12C243.899 48.12 243.664 48.136 243.408 48.168C243.152 48.2 242.96 48.2267 242.832 48.248V55H240.896V46.904C241.269 46.7973 241.755 46.696 242.352 46.6C242.96 46.504 243.6 46.456 244.272 46.456C244.848 46.456 245.317 46.5307 245.68 46.68C246.053 46.8293 246.363 47.0267 246.608 47.272C246.725 47.1867 246.875 47.096 247.056 47C247.237 46.904 247.44 46.8187 247.664 46.744C247.888 46.6587 248.123 46.5893 248.368 46.536C248.624 46.4827 248.88 46.456 249.136 46.456C249.787 46.456 250.32 46.552 250.736 46.744C251.163 46.9253 251.493 47.1867 251.728 47.528C251.973 47.8587 252.139 48.264 252.224 48.744C252.32 49.2133 252.368 49.7307 252.368 50.296V55H250.432V50.6C250.432 49.7253 250.325 49.096 250.112 48.712C249.899 48.3173 249.488 48.12 248.88 48.12C248.571 48.12 248.277 48.1733 248 48.28C247.723 48.376 247.515 48.472 247.376 48.568C247.461 48.8347 247.52 49.1173 247.552 49.416C247.584 49.7147 247.6 50.0347 247.6 50.376V55H245.664V50.6ZM261.604 54.744C261.23 54.84 260.745 54.936 260.148 55.032C259.55 55.1387 258.894 55.192 258.18 55.192C257.508 55.192 256.942 55.096 256.484 54.904C256.036 54.712 255.673 54.4453 255.396 54.104C255.129 53.7627 254.937 53.3573 254.82 52.888C254.702 52.408 254.644 51.8853 254.644 51.32V46.632H256.58V51.016C256.58 51.912 256.708 52.552 256.964 52.936C257.23 53.32 257.689 53.512 258.34 53.512C258.574 53.512 258.82 53.5013 259.076 53.48C259.342 53.4587 259.54 53.432 259.668 53.4V46.632H261.604V54.744ZM264.068 46.904C264.441 46.7973 264.927 46.696 265.524 46.6C266.121 46.504 266.783 46.456 267.508 46.456C268.191 46.456 268.761 46.552 269.22 46.744C269.679 46.9253 270.041 47.1867 270.308 47.528C270.585 47.8587 270.777 48.264 270.884 48.744C271.001 49.2133 271.06 49.7307 271.06 50.296V55H269.124V50.6C269.124 50.152 269.092 49.7733 269.028 49.464C268.975 49.144 268.879 48.888 268.74 48.696C268.612 48.4933 268.431 48.3493 268.196 48.264C267.972 48.168 267.695 48.12 267.364 48.12C267.119 48.12 266.863 48.136 266.596 48.168C266.329 48.2 266.132 48.2267 266.004 48.248V55H264.068V46.904ZM275.379 55H273.443V46.632H275.379V55ZM275.587 44.184C275.587 44.5467 275.47 44.8347 275.235 45.048C275.001 45.2613 274.723 45.368 274.403 45.368C274.073 45.368 273.79 45.2613 273.555 45.048C273.321 44.8347 273.203 44.5467 273.203 44.184C273.203 43.8107 273.321 43.5173 273.555 43.304C273.79 43.0907 274.073 42.984 274.403 42.984C274.723 42.984 275.001 43.0907 275.235 43.304C275.47 43.5173 275.587 43.8107 275.587 44.184ZM277.385 50.824C277.385 50.2053 277.481 49.6293 277.673 49.096C277.865 48.552 278.137 48.0827 278.489 47.688C278.852 47.2933 279.289 46.984 279.801 46.76C280.313 46.536 280.889 46.424 281.529 46.424C282.319 46.424 283.065 46.568 283.769 46.856L283.353 48.44C283.129 48.344 282.873 48.264 282.585 48.2C282.308 48.136 282.009 48.104 281.689 48.104C280.932 48.104 280.356 48.344 279.961 48.824C279.567 49.2933 279.369 49.96 279.369 50.824C279.369 51.656 279.556 52.3173 279.929 52.808C280.303 53.288 280.932 53.528 281.817 53.528C282.148 53.528 282.473 53.496 282.793 53.432C283.113 53.368 283.391 53.288 283.625 53.192L283.897 54.792C283.684 54.8987 283.359 54.9947 282.921 55.08C282.495 55.1653 282.052 55.208 281.593 55.208C280.879 55.208 280.255 55.1013 279.721 54.888C279.199 54.664 278.761 54.36 278.409 53.976C278.068 53.5813 277.812 53.1173 277.641 52.584C277.471 52.04 277.385 51.4533 277.385 50.824ZM288.34 53.64C288.937 53.64 289.391 53.608 289.7 53.544V51.4C289.593 51.368 289.439 51.336 289.236 51.304C289.033 51.272 288.809 51.256 288.564 51.256C288.351 51.256 288.132 51.272 287.908 51.304C287.695 51.336 287.497 51.3947 287.316 51.48C287.145 51.5653 287.007 51.688 286.9 51.848C286.793 51.9973 286.74 52.1893 286.74 52.424C286.74 52.8827 286.884 53.2027 287.172 53.384C287.46 53.5547 287.849 53.64 288.34 53.64ZM288.18 46.424C288.82 46.424 289.359 46.504 289.796 46.664C290.233 46.824 290.58 47.048 290.836 47.336C291.103 47.624 291.289 47.976 291.396 48.392C291.513 48.7973 291.572 49.2453 291.572 49.736V54.808C291.273 54.872 290.82 54.9467 290.212 55.032C289.615 55.128 288.937 55.176 288.18 55.176C287.679 55.176 287.22 55.128 286.804 55.032C286.388 54.936 286.031 54.7813 285.732 54.568C285.444 54.3547 285.215 54.0773 285.044 53.736C284.884 53.3947 284.804 52.9733 284.804 52.472C284.804 51.992 284.895 51.5867 285.076 51.256C285.268 50.9253 285.524 50.6587 285.844 50.456C286.164 50.2427 286.532 50.0933 286.948 50.008C287.375 49.912 287.817 49.864 288.276 49.864C288.489 49.864 288.713 49.88 288.948 49.912C289.183 49.9333 289.433 49.976 289.7 50.04V49.72C289.7 49.496 289.673 49.2827 289.62 49.08C289.567 48.8773 289.471 48.7013 289.332 48.552C289.204 48.392 289.028 48.2693 288.804 48.184C288.591 48.0987 288.319 48.056 287.988 48.056C287.54 48.056 287.129 48.088 286.756 48.152C286.383 48.216 286.079 48.2907 285.844 48.376L285.604 46.808C285.849 46.7227 286.207 46.6373 286.676 46.552C287.145 46.4667 287.647 46.424 288.18 46.424ZM293.847 44.424L295.783 44.104V46.632H298.759V48.248H295.783V51.656C295.783 52.328 295.89 52.808 296.103 53.096C296.316 53.384 296.679 53.528 297.191 53.528C297.543 53.528 297.852 53.4907 298.119 53.416C298.396 53.3413 298.615 53.272 298.775 53.208L299.095 54.744C298.871 54.84 298.578 54.936 298.215 55.032C297.852 55.1387 297.426 55.192 296.935 55.192C296.338 55.192 295.836 55.112 295.431 54.952C295.036 54.792 294.722 54.5627 294.487 54.264C294.252 53.9547 294.087 53.5867 293.991 53.16C293.895 52.7227 293.847 52.2267 293.847 51.672V44.424ZM302.582 55H300.646V46.632H302.582V55ZM302.79 44.184C302.79 44.5467 302.673 44.8347 302.438 45.048C302.204 45.2613 301.926 45.368 301.606 45.368C301.276 45.368 300.993 45.2613 300.758 45.048C300.524 44.8347 300.406 44.5467 300.406 44.184C300.406 43.8107 300.524 43.5173 300.758 43.304C300.993 43.0907 301.276 42.984 301.606 42.984C301.926 42.984 302.204 43.0907 302.438 43.304C302.673 43.5173 302.79 43.8107 302.79 44.184ZM312.62 50.808C312.62 51.4693 312.524 52.072 312.332 52.616C312.14 53.16 311.868 53.624 311.516 54.008C311.164 54.392 310.738 54.6907 310.236 54.904C309.746 55.1173 309.202 55.224 308.604 55.224C308.007 55.224 307.463 55.1173 306.972 54.904C306.482 54.6907 306.06 54.392 305.708 54.008C305.356 53.624 305.079 53.16 304.876 52.616C304.684 52.072 304.588 51.4693 304.588 50.808C304.588 50.1467 304.684 49.5493 304.876 49.016C305.079 48.472 305.356 48.008 305.708 47.624C306.071 47.24 306.498 46.9467 306.988 46.744C307.479 46.5307 308.018 46.424 308.604 46.424C309.191 46.424 309.73 46.5307 310.22 46.744C310.722 46.9467 311.148 47.24 311.5 47.624C311.852 48.008 312.124 48.472 312.316 49.016C312.519 49.5493 312.62 50.1467 312.62 50.808ZM310.636 50.808C310.636 49.976 310.455 49.32 310.092 48.84C309.74 48.3493 309.244 48.104 308.604 48.104C307.964 48.104 307.463 48.3493 307.1 48.84C306.748 49.32 306.572 49.976 306.572 50.808C306.572 51.6507 306.748 52.3173 307.1 52.808C307.463 53.2987 307.964 53.544 308.604 53.544C309.244 53.544 309.74 53.2987 310.092 52.808C310.455 52.3173 310.636 51.6507 310.636 50.808ZM314.615 46.904C314.988 46.7973 315.473 46.696 316.071 46.6C316.668 46.504 317.329 46.456 318.055 46.456C318.737 46.456 319.308 46.552 319.767 46.744C320.225 46.9253 320.588 47.1867 320.855 47.528C321.132 47.8587 321.324 48.264 321.431 48.744C321.548 49.2133 321.607 49.7307 321.607 50.296V55H319.671V50.6C319.671 50.152 319.639 49.7733 319.575 49.464C319.521 49.144 319.425 48.888 319.287 48.696C319.159 48.4933 318.977 48.3493 318.743 48.264C318.519 48.168 318.241 48.12 317.911 48.12C317.665 48.12 317.409 48.136 317.143 48.168C316.876 48.2 316.679 48.2267 316.551 48.248V55H314.615V46.904Z" fill="#2C2C2C"/>
  <path d="M40.9417 45.432C39.8004 45.432 38.9257 45.7893 38.3177 46.504C37.7204 47.208 37.4217 48.1893 37.4217 49.448C37.4217 50.0453 37.491 50.5947 37.6297 51.096C37.779 51.5867 37.9924 52.008 38.2697 52.36C38.5577 52.712 38.9097 52.9893 39.3257 53.192C39.7524 53.384 40.2484 53.48 40.8137 53.48C41.1657 53.48 41.4697 53.4693 41.7257 53.448C41.9817 53.416 42.1844 53.3787 42.3337 53.336V49.352H44.3497V54.68C44.0724 54.7867 43.603 54.904 42.9417 55.032C42.2804 55.16 41.5177 55.224 40.6537 55.224C39.8537 55.224 39.123 55.096 38.4617 54.84C37.8004 54.584 37.235 54.2107 36.7657 53.72C36.307 53.2293 35.9497 52.6267 35.6937 51.912C35.4377 51.1973 35.3097 50.376 35.3097 49.448C35.3097 48.52 35.4484 47.6987 35.7257 46.984C36.0137 46.2693 36.403 45.6667 36.8937 45.176C37.3844 44.6747 37.9604 44.296 38.6217 44.04C39.283 43.784 39.987 43.656 40.7337 43.656C41.2457 43.656 41.699 43.6933 42.0937 43.768C42.499 43.832 42.8457 43.9067 43.1337 43.992C43.4217 44.0773 43.6564 44.168 43.8377 44.264C44.0297 44.36 44.163 44.4293 44.2377 44.472L43.6297 46.12C43.3097 45.928 42.9097 45.768 42.4297 45.64C41.9604 45.5013 41.4644 45.432 40.9417 45.432ZM46.1196 50.856C46.1196 50.12 46.2262 49.4747 46.4396 48.92C46.6636 48.3653 46.9569 47.9067 47.3196 47.544C47.6822 47.1707 48.0982 46.8933 48.5676 46.712C49.0369 46.52 49.5169 46.424 50.0076 46.424C51.1596 46.424 52.0556 46.7813 52.6956 47.496C53.3462 48.2107 53.6716 49.2773 53.6716 50.696C53.6716 50.8027 53.6662 50.9253 53.6556 51.064C53.6556 51.192 53.6502 51.3093 53.6396 51.416H48.1196C48.1729 52.088 48.4076 52.6107 48.8236 52.984C49.2502 53.3467 49.8636 53.528 50.6636 53.528C51.1329 53.528 51.5596 53.4853 51.9436 53.4C52.3382 53.3147 52.6476 53.224 52.8716 53.128L53.1276 54.712C53.0209 54.7653 52.8716 54.824 52.6796 54.888C52.4982 54.9413 52.2849 54.9893 52.0396 55.032C51.8049 55.0853 51.5489 55.128 51.2716 55.16C50.9942 55.192 50.7116 55.208 50.4236 55.208C49.6876 55.208 49.0476 55.1013 48.5036 54.888C47.9596 54.664 47.5116 54.36 47.1596 53.976C46.8076 53.5813 46.5462 53.1227 46.3756 52.6C46.2049 52.0667 46.1196 51.4853 46.1196 50.856ZM51.7356 49.992C51.7356 49.7253 51.6982 49.4747 51.6236 49.24C51.5489 48.9947 51.4369 48.7867 51.2876 48.616C51.1489 48.4347 50.9729 48.296 50.7596 48.2C50.5569 48.0933 50.3116 48.04 50.0236 48.04C49.7249 48.04 49.4636 48.0987 49.2396 48.216C49.0156 48.3227 48.8236 48.4667 48.6636 48.648C48.5142 48.8293 48.3969 49.0373 48.3116 49.272C48.2262 49.5067 48.1676 49.7467 48.1356 49.992H51.7356ZM55.6282 44.424L57.5642 44.104V46.632H60.5402V48.248H57.5642V51.656C57.5642 52.328 57.6709 52.808 57.8842 53.096C58.0975 53.384 58.4602 53.528 58.9722 53.528C59.3242 53.528 59.6335 53.4907 59.9002 53.416C60.1775 53.3413 60.3962 53.272 60.5562 53.208L60.8762 54.744C60.6522 54.84 60.3589 54.936 59.9962 55.032C59.6335 55.1387 59.2069 55.192 58.7162 55.192C58.1189 55.192 57.6175 55.112 57.2122 54.952C56.8175 54.792 56.5029 54.5627 56.2682 54.264C56.0335 53.9547 55.8682 53.5867 55.7722 53.16C55.6762 52.7227 55.6282 52.2267 55.6282 51.672V44.424ZM68.0981 55H66.1621V46.632H68.0981V55ZM68.3061 44.184C68.3061 44.5467 68.1887 44.8347 67.9541 45.048C67.7194 45.2613 67.4421 45.368 67.1221 45.368C66.7914 45.368 66.5087 45.2613 66.2741 45.048C66.0394 44.8347 65.9221 44.5467 65.9221 44.184C65.9221 43.8107 66.0394 43.5173 66.2741 43.304C66.5087 43.0907 66.7914 42.984 67.1221 42.984C67.4421 42.984 67.7194 43.0907 67.9541 43.304C68.1887 43.5173 68.3061 43.8107 68.3061 44.184ZM70.5679 46.904C70.9413 46.7973 71.4266 46.696 72.0239 46.6C72.6213 46.504 73.2826 46.456 74.0079 46.456C74.6906 46.456 75.2613 46.552 75.7199 46.744C76.1786 46.9253 76.5413 47.1867 76.8079 47.528C77.0853 47.8587 77.2773 48.264 77.3839 48.744C77.5013 49.2133 77.5599 49.7307 77.5599 50.296V55H75.6239V50.6C75.6239 50.152 75.5919 49.7733 75.5279 49.464C75.4746 49.144 75.3786 48.888 75.2399 48.696C75.1119 48.4933 74.9306 48.3493 74.6959 48.264C74.4719 48.168 74.1946 48.12 73.8639 48.12C73.6186 48.12 73.3626 48.136 73.0959 48.168C72.8293 48.2 72.6319 48.2267 72.5039 48.248V55H70.5679V46.904ZM91.4857 43.912V45.656H88.0777V55H86.0457V45.656H82.6377V43.912H91.4857ZM99.6203 50.808C99.6203 51.4693 99.5243 52.072 99.3323 52.616C99.1403 53.16 98.8683 53.624 98.5163 54.008C98.1643 54.392 97.7376 54.6907 97.2363 54.904C96.7456 55.1173 96.2016 55.224 95.6043 55.224C95.007 55.224 94.463 55.1173 93.9723 54.904C93.4816 54.6907 93.0603 54.392 92.7083 54.008C92.3563 53.624 92.079 53.16 91.8763 52.616C91.6843 52.072 91.5883 51.4693 91.5883 50.808C91.5883 50.1467 91.6843 49.5493 91.8763 49.016C92.079 48.472 92.3563 48.008 92.7083 47.624C93.071 47.24 93.4976 46.9467 93.9883 46.744C94.479 46.5307 95.0176 46.424 95.6043 46.424C96.191 46.424 96.7296 46.5307 97.2203 46.744C97.7216 46.9467 98.1483 47.24 98.5003 47.624C98.8523 48.008 99.1243 48.472 99.3163 49.016C99.519 49.5493 99.6203 50.1467 99.6203 50.808ZM97.6363 50.808C97.6363 49.976 97.455 49.32 97.0923 48.84C96.7403 48.3493 96.2443 48.104 95.6043 48.104C94.9643 48.104 94.463 48.3493 94.1003 48.84C93.7483 49.32 93.5723 49.976 93.5723 50.808C93.5723 51.6507 93.7483 52.3173 94.1003 52.808C94.463 53.2987 94.9643 53.544 95.6043 53.544C96.2443 53.544 96.7403 53.2987 97.0923 52.808C97.455 52.3173 97.6363 51.6507 97.6363 50.808ZM108.479 54.744C108.105 54.84 107.62 54.936 107.023 55.032C106.425 55.1387 105.769 55.192 105.055 55.192C104.383 55.192 103.817 55.096 103.359 54.904C102.911 54.712 102.548 54.4453 102.271 54.104C102.004 53.7627 101.812 53.3573 101.695 52.888C101.577 52.408 101.519 51.8853 101.519 51.32V46.632H103.455V51.016C103.455 51.912 103.583 52.552 103.839 52.936C104.105 53.32 104.564 53.512 105.215 53.512C105.449 53.512 105.695 53.5013 105.951 53.48C106.217 53.4587 106.415 53.432 106.543 53.4V46.632H108.479V54.744ZM110.479 50.824C110.479 50.2053 110.575 49.6293 110.767 49.096C110.959 48.552 111.231 48.0827 111.583 47.688C111.946 47.2933 112.383 46.984 112.895 46.76C113.407 46.536 113.983 46.424 114.623 46.424C115.412 46.424 116.159 46.568 116.863 46.856L116.447 48.44C116.223 48.344 115.967 48.264 115.679 48.2C115.402 48.136 115.103 48.104 114.783 48.104C114.026 48.104 113.45 48.344 113.055 48.824C112.66 49.2933 112.463 49.96 112.463 50.824C112.463 51.656 112.65 52.3173 113.023 52.808C113.396 53.288 114.026 53.528 114.911 53.528C115.242 53.528 115.567 53.496 115.887 53.432C116.207 53.368 116.484 53.288 116.719 53.192L116.991 54.792C116.778 54.8987 116.452 54.9947 116.015 55.08C115.588 55.1653 115.146 55.208 114.687 55.208C113.972 55.208 113.348 55.1013 112.815 54.888C112.292 54.664 111.855 54.36 111.503 53.976C111.162 53.5813 110.906 53.1173 110.735 52.584C110.564 52.04 110.479 51.4533 110.479 50.824ZM118.49 55V42.904L120.426 42.584V46.728C120.639 46.6533 120.884 46.5893 121.162 46.536C121.45 46.4827 121.732 46.456 122.01 46.456C122.682 46.456 123.236 46.552 123.674 46.744C124.122 46.9253 124.479 47.1867 124.746 47.528C125.012 47.8587 125.199 48.2587 125.306 48.728C125.423 49.1973 125.482 49.72 125.482 50.296V55H123.546V50.6C123.546 50.152 123.514 49.7733 123.45 49.464C123.396 49.144 123.3 48.888 123.162 48.696C123.034 48.4933 122.858 48.3493 122.634 48.264C122.41 48.168 122.132 48.12 121.802 48.12C121.546 48.12 121.284 48.1467 121.018 48.2C120.751 48.2533 120.554 48.3013 120.426 48.344V55H118.49Z" fill="#2C2C2C"/>
  <path d="M198.335 111.92C198.676 111.835 199.129 111.744 199.695 111.648C200.26 111.552 200.911 111.504 201.647 111.504C202.308 111.504 202.857 111.6 203.295 111.792C203.732 111.973 204.079 112.235 204.335 112.576C204.601 112.907 204.788 113.307 204.895 113.776C205.001 114.245 205.055 114.763 205.055 115.328V120H203.567V115.648C203.567 115.136 203.529 114.699 203.455 114.336C203.391 113.973 203.279 113.68 203.119 113.456C202.959 113.232 202.745 113.072 202.479 112.976C202.212 112.869 201.881 112.816 201.487 112.816C201.327 112.816 201.161 112.821 200.991 112.832C200.82 112.843 200.655 112.859 200.495 112.88C200.345 112.891 200.207 112.907 200.079 112.928C199.961 112.949 199.876 112.965 199.823 112.976V120H198.335V111.92ZM214.866 115.84C214.866 116.501 214.77 117.099 214.578 117.632C214.386 118.165 214.114 118.624 213.762 119.008C213.421 119.392 213.01 119.691 212.53 119.904C212.05 120.107 211.528 120.208 210.962 120.208C210.397 120.208 209.874 120.107 209.394 119.904C208.914 119.691 208.498 119.392 208.146 119.008C207.805 118.624 207.538 118.165 207.346 117.632C207.154 117.099 207.058 116.501 207.058 115.84C207.058 115.189 207.154 114.597 207.346 114.064C207.538 113.52 207.805 113.056 208.146 112.672C208.498 112.288 208.914 111.995 209.394 111.792C209.874 111.579 210.397 111.472 210.962 111.472C211.528 111.472 212.05 111.579 212.53 111.792C213.01 111.995 213.421 112.288 213.762 112.672C214.114 113.056 214.386 113.52 214.578 114.064C214.77 114.597 214.866 115.189 214.866 115.84ZM213.314 115.84C213.314 114.901 213.101 114.16 212.674 113.616C212.258 113.061 211.688 112.784 210.962 112.784C210.237 112.784 209.661 113.061 209.234 113.616C208.818 114.16 208.61 114.901 208.61 115.84C208.61 116.779 208.818 117.525 209.234 118.08C209.661 118.624 210.237 118.896 210.962 118.896C211.688 118.896 212.258 118.624 212.674 118.08C213.101 117.525 213.314 116.779 213.314 115.84ZM224.279 120.192C223.607 120.192 223.015 120.085 222.503 119.872C222.001 119.659 221.575 119.36 221.223 118.976C220.881 118.592 220.625 118.139 220.455 117.616C220.284 117.083 220.199 116.496 220.199 115.856C220.199 115.216 220.289 114.629 220.471 114.096C220.663 113.563 220.929 113.104 221.271 112.72C221.612 112.325 222.028 112.021 222.519 111.808C223.02 111.584 223.575 111.472 224.183 111.472C224.556 111.472 224.929 111.504 225.303 111.568C225.676 111.632 226.033 111.733 226.375 111.872L226.039 113.136C225.815 113.029 225.553 112.944 225.255 112.88C224.967 112.816 224.657 112.784 224.327 112.784C223.495 112.784 222.855 113.045 222.407 113.568C221.969 114.091 221.751 114.853 221.751 115.856C221.751 116.304 221.799 116.715 221.895 117.088C222.001 117.461 222.161 117.781 222.375 118.048C222.599 118.315 222.881 118.523 223.223 118.672C223.564 118.811 223.98 118.88 224.471 118.88C224.865 118.88 225.223 118.843 225.543 118.768C225.863 118.693 226.113 118.613 226.295 118.528L226.503 119.776C226.417 119.829 226.295 119.883 226.135 119.936C225.975 119.979 225.793 120.016 225.591 120.048C225.388 120.091 225.169 120.123 224.935 120.144C224.711 120.176 224.492 120.192 224.279 120.192ZM235.241 115.84C235.241 116.501 235.145 117.099 234.953 117.632C234.761 118.165 234.489 118.624 234.137 119.008C233.796 119.392 233.385 119.691 232.905 119.904C232.425 120.107 231.903 120.208 231.337 120.208C230.772 120.208 230.249 120.107 229.769 119.904C229.289 119.691 228.873 119.392 228.521 119.008C228.18 118.624 227.913 118.165 227.721 117.632C227.529 117.099 227.433 116.501 227.433 115.84C227.433 115.189 227.529 114.597 227.721 114.064C227.913 113.52 228.18 113.056 228.521 112.672C228.873 112.288 229.289 111.995 229.769 111.792C230.249 111.579 230.772 111.472 231.337 111.472C231.903 111.472 232.425 111.579 232.905 111.792C233.385 111.995 233.796 112.288 234.137 112.672C234.489 113.056 234.761 113.52 234.953 114.064C235.145 114.597 235.241 115.189 235.241 115.84ZM233.689 115.84C233.689 114.901 233.476 114.16 233.049 113.616C232.633 113.061 232.063 112.784 231.337 112.784C230.612 112.784 230.036 113.061 229.609 113.616C229.193 114.16 228.985 114.901 228.985 115.84C228.985 116.779 229.193 117.525 229.609 118.08C230.036 118.624 230.612 118.896 231.337 118.896C232.063 118.896 232.633 118.624 233.049 118.08C233.476 117.525 233.689 116.779 233.689 115.84ZM237.335 111.92C237.676 111.835 238.124 111.744 238.679 111.648C239.244 111.552 239.895 111.504 240.631 111.504C241.164 111.504 241.612 111.579 241.975 111.728C242.337 111.867 242.641 112.075 242.887 112.352C242.961 112.299 243.079 112.224 243.239 112.128C243.399 112.032 243.596 111.941 243.831 111.856C244.065 111.76 244.327 111.68 244.615 111.616C244.903 111.541 245.212 111.504 245.543 111.504C246.183 111.504 246.705 111.6 247.111 111.792C247.516 111.973 247.831 112.235 248.055 112.576C248.289 112.917 248.444 113.323 248.519 113.792C248.604 114.261 248.647 114.773 248.647 115.328V120H247.159V115.648C247.159 115.157 247.132 114.736 247.079 114.384C247.036 114.032 246.945 113.739 246.807 113.504C246.679 113.269 246.497 113.099 246.263 112.992C246.039 112.875 245.745 112.816 245.383 112.816C244.881 112.816 244.465 112.885 244.135 113.024C243.815 113.152 243.596 113.269 243.479 113.376C243.564 113.653 243.628 113.957 243.671 114.288C243.713 114.619 243.735 114.965 243.735 115.328V120H242.247V115.648C242.247 115.157 242.22 114.736 242.167 114.384C242.113 114.032 242.017 113.739 241.879 113.504C241.751 113.269 241.569 113.099 241.335 112.992C241.111 112.875 240.823 112.816 240.471 112.816C240.321 112.816 240.161 112.821 239.991 112.832C239.82 112.843 239.655 112.859 239.495 112.88C239.345 112.891 239.207 112.907 239.079 112.928C238.951 112.949 238.865 112.965 238.823 112.976V120H237.335V111.92ZM251.116 111.92C251.457 111.835 251.905 111.744 252.46 111.648C253.025 111.552 253.676 111.504 254.412 111.504C254.945 111.504 255.393 111.579 255.756 111.728C256.119 111.867 256.423 112.075 256.668 112.352C256.743 112.299 256.86 112.224 257.02 112.128C257.18 112.032 257.377 111.941 257.612 111.856C257.847 111.76 258.108 111.68 258.396 111.616C258.684 111.541 258.993 111.504 259.324 111.504C259.964 111.504 260.487 111.6 260.892 111.792C261.297 111.973 261.612 112.235 261.836 112.576C262.071 112.917 262.225 113.323 262.3 113.792C262.385 114.261 262.428 114.773 262.428 115.328V120H260.94V115.648C260.94 115.157 260.913 114.736 260.86 114.384C260.817 114.032 260.727 113.739 260.588 113.504C260.46 113.269 260.279 113.099 260.044 112.992C259.82 112.875 259.527 112.816 259.164 112.816C258.663 112.816 258.247 112.885 257.916 113.024C257.596 113.152 257.377 113.269 257.26 113.376C257.345 113.653 257.409 113.957 257.452 114.288C257.495 114.619 257.516 114.965 257.516 115.328V120H256.028V115.648C256.028 115.157 256.001 114.736 255.948 114.384C255.895 114.032 255.799 113.739 255.66 113.504C255.532 113.269 255.351 113.099 255.116 112.992C254.892 112.875 254.604 112.816 254.252 112.816C254.103 112.816 253.943 112.821 253.772 112.832C253.601 112.843 253.436 112.859 253.276 112.88C253.127 112.891 252.988 112.907 252.86 112.928C252.732 112.949 252.647 112.965 252.604 112.976V120H251.116V111.92ZM271.521 119.76C271.18 119.845 270.727 119.936 270.161 120.032C269.607 120.128 268.961 120.176 268.225 120.176C267.585 120.176 267.047 120.085 266.609 119.904C266.172 119.712 265.82 119.445 265.553 119.104C265.287 118.763 265.095 118.363 264.977 117.904C264.86 117.435 264.801 116.917 264.801 116.352V111.68H266.289V116.032C266.289 117.045 266.449 117.771 266.769 118.208C267.089 118.645 267.628 118.864 268.385 118.864C268.545 118.864 268.711 118.859 268.881 118.848C269.052 118.837 269.212 118.827 269.361 118.816C269.511 118.795 269.644 118.779 269.761 118.768C269.889 118.747 269.98 118.725 270.033 118.704V111.68H271.521V119.76ZM274.085 111.92C274.426 111.835 274.879 111.744 275.445 111.648C276.01 111.552 276.661 111.504 277.397 111.504C278.058 111.504 278.607 111.6 279.045 111.792C279.482 111.973 279.829 112.235 280.085 112.576C280.351 112.907 280.538 113.307 280.645 113.776C280.751 114.245 280.805 114.763 280.805 115.328V120H279.317V115.648C279.317 115.136 279.279 114.699 279.205 114.336C279.141 113.973 279.029 113.68 278.869 113.456C278.709 113.232 278.495 113.072 278.229 112.976C277.962 112.869 277.631 112.816 277.237 112.816C277.077 112.816 276.911 112.821 276.741 112.832C276.57 112.843 276.405 112.859 276.245 112.88C276.095 112.891 275.957 112.907 275.829 112.928C275.711 112.949 275.626 112.965 275.573 112.976V120H274.085V111.92ZM284.76 120H283.272V111.68H284.76V120ZM284.008 110.176C283.742 110.176 283.512 110.091 283.32 109.92C283.139 109.739 283.048 109.499 283.048 109.2C283.048 108.901 283.139 108.667 283.32 108.496C283.512 108.315 283.742 108.224 284.008 108.224C284.275 108.224 284.499 108.315 284.68 108.496C284.872 108.667 284.968 108.901 284.968 109.2C284.968 109.499 284.872 109.739 284.68 109.92C284.499 110.091 284.275 110.176 284.008 110.176ZM290.935 120.192C290.263 120.192 289.671 120.085 289.159 119.872C288.658 119.659 288.231 119.36 287.879 118.976C287.538 118.592 287.282 118.139 287.111 117.616C286.94 117.083 286.855 116.496 286.855 115.856C286.855 115.216 286.946 114.629 287.127 114.096C287.319 113.563 287.586 113.104 287.927 112.72C288.268 112.325 288.684 112.021 289.175 111.808C289.676 111.584 290.231 111.472 290.839 111.472C291.212 111.472 291.586 111.504 291.959 111.568C292.332 111.632 292.69 111.733 293.031 111.872L292.695 113.136C292.471 113.029 292.21 112.944 291.911 112.88C291.623 112.816 291.314 112.784 290.983 112.784C290.151 112.784 289.511 113.045 289.063 113.568C288.626 114.091 288.407 114.853 288.407 115.856C288.407 116.304 288.455 116.715 288.551 117.088C288.658 117.461 288.818 117.781 289.031 118.048C289.255 118.315 289.538 118.523 289.879 118.672C290.22 118.811 290.636 118.88 291.127 118.88C291.522 118.88 291.879 118.843 292.199 118.768C292.519 118.693 292.77 118.613 292.951 118.528L293.159 119.776C293.074 119.829 292.951 119.883 292.791 119.936C292.631 119.979 292.45 120.016 292.247 120.048C292.044 120.091 291.826 120.123 291.591 120.144C291.367 120.176 291.148 120.192 290.935 120.192ZM297.573 118.928C297.925 118.928 298.234 118.923 298.501 118.912C298.778 118.891 299.007 118.859 299.189 118.816V116.336C299.082 116.283 298.906 116.24 298.661 116.208C298.426 116.165 298.138 116.144 297.797 116.144C297.573 116.144 297.333 116.16 297.077 116.192C296.831 116.224 296.602 116.293 296.389 116.4C296.186 116.496 296.015 116.635 295.877 116.816C295.738 116.987 295.669 117.216 295.669 117.504C295.669 118.037 295.839 118.411 296.181 118.624C296.522 118.827 296.986 118.928 297.573 118.928ZM297.445 111.472C298.042 111.472 298.543 111.552 298.949 111.712C299.365 111.861 299.695 112.08 299.941 112.368C300.197 112.645 300.378 112.981 300.485 113.376C300.591 113.76 300.645 114.187 300.645 114.656V119.856C300.517 119.877 300.335 119.909 300.101 119.952C299.877 119.984 299.621 120.016 299.333 120.048C299.045 120.08 298.73 120.107 298.389 120.128C298.058 120.16 297.727 120.176 297.397 120.176C296.927 120.176 296.495 120.128 296.101 120.032C295.706 119.936 295.365 119.787 295.077 119.584C294.789 119.371 294.565 119.093 294.405 118.752C294.245 118.411 294.165 118 294.165 117.52C294.165 117.061 294.255 116.667 294.437 116.336C294.629 116.005 294.885 115.739 295.205 115.536C295.525 115.333 295.898 115.184 296.325 115.088C296.751 114.992 297.199 114.944 297.669 114.944C297.818 114.944 297.973 114.955 298.133 114.976C298.293 114.987 298.442 115.008 298.581 115.04C298.73 115.061 298.858 115.083 298.965 115.104C299.071 115.125 299.146 115.141 299.189 115.152V114.736C299.189 114.491 299.162 114.251 299.109 114.016C299.055 113.771 298.959 113.557 298.821 113.376C298.682 113.184 298.49 113.035 298.245 112.928C298.01 112.811 297.701 112.752 297.317 112.752C296.826 112.752 296.394 112.789 296.021 112.864C295.658 112.928 295.386 112.997 295.205 113.072L295.029 111.84C295.221 111.755 295.541 111.675 295.989 111.6C296.437 111.515 296.922 111.472 297.445 111.472ZM304.508 111.68H307.66V112.928H304.508V116.768C304.508 117.184 304.54 117.531 304.604 117.808C304.668 118.075 304.764 118.288 304.892 118.448C305.02 118.597 305.18 118.704 305.372 118.768C305.564 118.832 305.788 118.864 306.044 118.864C306.492 118.864 306.849 118.816 307.116 118.72C307.393 118.613 307.585 118.539 307.692 118.496L307.98 119.728C307.831 119.803 307.569 119.893 307.196 120C306.823 120.117 306.396 120.176 305.916 120.176C305.351 120.176 304.881 120.107 304.508 119.968C304.145 119.819 303.852 119.6 303.628 119.312C303.404 119.024 303.244 118.672 303.148 118.256C303.063 117.829 303.02 117.339 303.02 116.784V109.36L304.508 109.104V111.68ZM311.041 120H309.553V111.68H311.041V120ZM310.289 110.176C310.023 110.176 309.793 110.091 309.601 109.92C309.42 109.739 309.329 109.499 309.329 109.2C309.329 108.901 309.42 108.667 309.601 108.496C309.793 108.315 310.023 108.224 310.289 108.224C310.556 108.224 310.78 108.315 310.961 108.496C311.153 108.667 311.249 108.901 311.249 109.2C311.249 109.499 311.153 109.739 310.961 109.92C310.78 110.091 310.556 110.176 310.289 110.176ZM320.944 115.84C320.944 116.501 320.848 117.099 320.656 117.632C320.464 118.165 320.192 118.624 319.84 119.008C319.499 119.392 319.088 119.691 318.608 119.904C318.128 120.107 317.606 120.208 317.04 120.208C316.475 120.208 315.952 120.107 315.472 119.904C314.992 119.691 314.576 119.392 314.224 119.008C313.883 118.624 313.616 118.165 313.424 117.632C313.232 117.099 313.136 116.501 313.136 115.84C313.136 115.189 313.232 114.597 313.424 114.064C313.616 113.52 313.883 113.056 314.224 112.672C314.576 112.288 314.992 111.995 315.472 111.792C315.952 111.579 316.475 111.472 317.04 111.472C317.606 111.472 318.128 111.579 318.608 111.792C319.088 111.995 319.499 112.288 319.84 112.672C320.192 113.056 320.464 113.52 320.656 114.064C320.848 114.597 320.944 115.189 320.944 115.84ZM319.392 115.84C319.392 114.901 319.179 114.16 318.752 113.616C318.336 113.061 317.766 112.784 317.04 112.784C316.315 112.784 315.739 113.061 315.312 113.616C314.896 114.16 314.688 114.901 314.688 115.84C314.688 116.779 314.896 117.525 315.312 118.08C315.739 118.624 316.315 118.896 317.04 118.896C317.766 118.896 318.336 118.624 318.752 118.08C319.179 117.525 319.392 116.779 319.392 115.84ZM323.038 111.92C323.379 111.835 323.832 111.744 324.398 111.648C324.963 111.552 325.614 111.504 326.35 111.504C327.011 111.504 327.56 111.6 327.998 111.792C328.435 111.973 328.782 112.235 329.038 112.576C329.304 112.907 329.491 113.307 329.598 113.776C329.704 114.245 329.758 114.763 329.758 115.328V120H328.27V115.648C328.27 115.136 328.232 114.699 328.158 114.336C328.094 113.973 327.982 113.68 327.822 113.456C327.662 113.232 327.448 113.072 327.182 112.976C326.915 112.869 326.584 112.816 326.19 112.816C326.03 112.816 325.864 112.821 325.694 112.832C325.523 112.843 325.358 112.859 325.198 112.88C325.048 112.891 324.91 112.907 324.782 112.928C324.664 112.949 324.579 112.965 324.526 112.976V120H323.038V111.92ZM237.204 135.504C237.332 135.504 237.476 135.515 237.636 135.536C237.806 135.547 237.972 135.568 238.132 135.6C238.292 135.621 238.436 135.648 238.564 135.68C238.702 135.701 238.804 135.723 238.868 135.744L238.612 137.04C238.494 136.997 238.297 136.949 238.02 136.896C237.753 136.832 237.406 136.8 236.98 136.8C236.702 136.8 236.425 136.832 236.148 136.896C235.881 136.949 235.705 136.987 235.62 137.008V144H234.132V136.032C234.484 135.904 234.921 135.787 235.444 135.68C235.966 135.563 236.553 135.504 237.204 135.504ZM239.839 139.856C239.839 139.12 239.946 138.48 240.159 137.936C240.373 137.381 240.655 136.923 241.007 136.56C241.359 136.197 241.765 135.925 242.223 135.744C242.682 135.563 243.151 135.472 243.631 135.472C244.751 135.472 245.61 135.824 246.207 136.528C246.805 137.221 247.103 138.283 247.103 139.712C247.103 139.776 247.103 139.861 247.103 139.968C247.103 140.064 247.098 140.155 247.087 140.24H241.391C241.455 141.104 241.706 141.76 242.143 142.208C242.581 142.656 243.263 142.88 244.191 142.88C244.714 142.88 245.151 142.837 245.503 142.752C245.866 142.656 246.138 142.565 246.319 142.48L246.527 143.728C246.346 143.824 246.026 143.925 245.567 144.032C245.119 144.139 244.607 144.192 244.031 144.192C243.306 144.192 242.677 144.085 242.143 143.872C241.621 143.648 241.189 143.344 240.847 142.96C240.506 142.576 240.25 142.123 240.079 141.6C239.919 141.067 239.839 140.485 239.839 139.856ZM245.551 139.04C245.562 138.368 245.391 137.819 245.039 137.392C244.698 136.955 244.223 136.736 243.615 136.736C243.274 136.736 242.97 136.805 242.703 136.944C242.447 137.072 242.229 137.243 242.047 137.456C241.866 137.669 241.722 137.915 241.615 138.192C241.519 138.469 241.455 138.752 241.423 139.04H245.551ZM250.329 139.856C250.329 140.283 250.372 140.683 250.457 141.056C250.542 141.419 250.681 141.739 250.873 142.016C251.065 142.283 251.31 142.496 251.609 142.656C251.918 142.805 252.286 142.88 252.713 142.88C253.118 142.88 253.492 142.811 253.833 142.672C254.174 142.533 254.436 142.389 254.617 142.24V136.992C254.468 136.949 254.265 136.912 254.009 136.88C253.764 136.848 253.417 136.832 252.969 136.832C252.169 136.832 251.529 137.093 251.049 137.616C250.569 138.139 250.329 138.885 250.329 139.856ZM248.777 139.856C248.777 139.184 248.873 138.581 249.065 138.048C249.268 137.504 249.55 137.045 249.913 136.672C250.276 136.299 250.713 136.011 251.225 135.808C251.737 135.605 252.313 135.504 252.953 135.504C253.646 135.504 254.254 135.557 254.777 135.664C255.31 135.76 255.753 135.851 256.105 135.936V146.96H254.617V143.632C254.436 143.749 254.158 143.872 253.785 144C253.422 144.128 253.001 144.192 252.521 144.192C251.924 144.192 251.39 144.085 250.921 143.872C250.462 143.659 250.073 143.36 249.753 142.976C249.433 142.592 249.188 142.133 249.017 141.6C248.857 141.067 248.777 140.485 248.777 139.856ZM265.287 143.76C264.945 143.845 264.492 143.936 263.927 144.032C263.372 144.128 262.727 144.176 261.991 144.176C261.351 144.176 260.812 144.085 260.375 143.904C259.937 143.712 259.585 143.445 259.319 143.104C259.052 142.763 258.86 142.363 258.743 141.904C258.625 141.435 258.567 140.917 258.567 140.352V135.68H260.055V140.032C260.055 141.045 260.215 141.771 260.535 142.208C260.855 142.645 261.393 142.864 262.151 142.864C262.311 142.864 262.476 142.859 262.647 142.848C262.817 142.837 262.977 142.827 263.127 142.816C263.276 142.795 263.409 142.779 263.527 142.768C263.655 142.747 263.745 142.725 263.799 142.704V135.68H265.287V143.76ZM269.338 144H267.85V135.68H269.338V144ZM268.586 134.176C268.32 134.176 268.09 134.091 267.898 133.92C267.717 133.739 267.626 133.499 267.626 133.2C267.626 132.901 267.717 132.667 267.898 132.496C268.09 132.315 268.32 132.224 268.586 132.224C268.853 132.224 269.077 132.315 269.258 132.496C269.45 132.667 269.546 132.901 269.546 133.2C269.546 133.499 269.45 133.739 269.258 133.92C269.077 134.091 268.853 134.176 268.586 134.176ZM274.969 135.504C275.097 135.504 275.241 135.515 275.401 135.536C275.572 135.547 275.737 135.568 275.897 135.6C276.057 135.621 276.201 135.648 276.329 135.68C276.468 135.701 276.569 135.723 276.633 135.744L276.377 137.04C276.26 136.997 276.063 136.949 275.785 136.896C275.519 136.832 275.172 136.8 274.745 136.8C274.468 136.8 274.191 136.832 273.913 136.896C273.647 136.949 273.471 136.987 273.385 137.008V144H271.897V136.032C272.249 135.904 272.687 135.787 273.209 135.68C273.732 135.563 274.319 135.504 274.969 135.504ZM277.605 139.856C277.605 139.12 277.712 138.48 277.925 137.936C278.138 137.381 278.421 136.923 278.773 136.56C279.125 136.197 279.53 135.925 279.989 135.744C280.448 135.563 280.917 135.472 281.397 135.472C282.517 135.472 283.376 135.824 283.973 136.528C284.57 137.221 284.869 138.283 284.869 139.712C284.869 139.776 284.869 139.861 284.869 139.968C284.869 140.064 284.864 140.155 284.853 140.24H279.157C279.221 141.104 279.472 141.76 279.909 142.208C280.346 142.656 281.029 142.88 281.957 142.88C282.48 142.88 282.917 142.837 283.269 142.752C283.632 142.656 283.904 142.565 284.085 142.48L284.293 143.728C284.112 143.824 283.792 143.925 283.333 144.032C282.885 144.139 282.373 144.192 281.797 144.192C281.072 144.192 280.442 144.085 279.909 143.872C279.386 143.648 278.954 143.344 278.613 142.96C278.272 142.576 278.016 142.123 277.845 141.6C277.685 141.067 277.605 140.485 277.605 139.856ZM283.317 139.04C283.328 138.368 283.157 137.819 282.805 137.392C282.464 136.955 281.989 136.736 281.381 136.736C281.04 136.736 280.736 136.805 280.469 136.944C280.213 137.072 279.994 137.243 279.813 137.456C279.632 137.669 279.488 137.915 279.381 138.192C279.285 138.469 279.221 138.752 279.189 139.04H283.317ZM292.383 137.44C292.201 137.291 291.94 137.147 291.599 137.008C291.257 136.869 290.884 136.8 290.479 136.8C290.052 136.8 289.684 136.88 289.375 137.04C289.076 137.189 288.831 137.403 288.639 137.68C288.447 137.947 288.308 138.267 288.223 138.64C288.137 139.013 288.095 139.413 288.095 139.84C288.095 140.811 288.335 141.563 288.815 142.096C289.295 142.619 289.935 142.88 290.735 142.88C291.14 142.88 291.476 142.864 291.743 142.832C292.02 142.789 292.233 142.747 292.383 142.704V137.44ZM292.383 131.84L293.871 131.584V143.76C293.529 143.856 293.092 143.952 292.559 144.048C292.025 144.144 291.412 144.192 290.719 144.192C290.079 144.192 289.503 144.091 288.991 143.888C288.479 143.685 288.041 143.397 287.679 143.024C287.316 142.651 287.033 142.197 286.831 141.664C286.639 141.12 286.543 140.512 286.543 139.84C286.543 139.2 286.623 138.613 286.783 138.08C286.953 137.547 287.199 137.088 287.519 136.704C287.839 136.32 288.228 136.021 288.687 135.808C289.156 135.595 289.689 135.488 290.287 135.488C290.767 135.488 291.188 135.552 291.551 135.68C291.924 135.808 292.201 135.931 292.383 136.048V131.84Z" fill="white"/>
  <path d="M415.04 55C414.89 54.5627 414.736 54.1307 414.576 53.704C414.416 53.2773 414.261 52.84 414.112 52.392H409.44C409.29 52.84 409.136 53.2827 408.976 53.72C408.826 54.1467 408.677 54.5733 408.528 55H406.432C406.848 53.816 407.242 52.7227 407.616 51.72C407.989 50.7173 408.352 49.768 408.704 48.872C409.066 47.976 409.424 47.1227 409.776 46.312C410.128 45.5013 410.49 44.7013 410.864 43.912H412.768C413.141 44.7013 413.504 45.5013 413.856 46.312C414.208 47.1227 414.56 47.976 414.912 48.872C415.274 49.768 415.642 50.7173 416.016 51.72C416.4 52.7227 416.8 53.816 417.216 55H415.04ZM411.776 46.056C411.53 46.6213 411.248 47.3093 410.928 48.12C410.618 48.9307 410.293 49.8107 409.952 50.76H413.6C413.258 49.8107 412.928 48.9253 412.608 48.104C412.288 47.2827 412.01 46.6 411.776 46.056ZM424.073 50.856C424.073 49.992 423.876 49.32 423.481 48.84C423.097 48.36 422.473 48.12 421.609 48.12C421.428 48.12 421.236 48.1307 421.033 48.152C420.841 48.1627 420.649 48.1947 420.457 48.248V53.032C420.628 53.1493 420.852 53.2613 421.129 53.368C421.417 53.464 421.721 53.512 422.041 53.512C422.745 53.512 423.257 53.272 423.577 52.792C423.908 52.312 424.073 51.6667 424.073 50.856ZM426.057 50.824C426.057 51.464 425.972 52.0507 425.801 52.584C425.641 53.1173 425.406 53.576 425.097 53.96C424.788 54.344 424.398 54.6427 423.929 54.856C423.47 55.0693 422.948 55.176 422.361 55.176C421.966 55.176 421.604 55.128 421.273 55.032C420.942 54.936 420.67 54.8293 420.457 54.712V57.96H418.521V46.904C418.916 46.7973 419.401 46.696 419.977 46.6C420.553 46.504 421.161 46.456 421.801 46.456C422.462 46.456 423.054 46.5573 423.577 46.76C424.1 46.9627 424.542 47.256 424.905 47.64C425.278 48.0133 425.561 48.472 425.753 49.016C425.956 49.5493 426.057 50.152 426.057 50.824ZM433.604 50.856C433.604 49.992 433.407 49.32 433.012 48.84C432.628 48.36 432.004 48.12 431.14 48.12C430.959 48.12 430.767 48.1307 430.564 48.152C430.372 48.1627 430.18 48.1947 429.988 48.248V53.032C430.159 53.1493 430.383 53.2613 430.66 53.368C430.948 53.464 431.252 53.512 431.572 53.512C432.276 53.512 432.788 53.272 433.108 52.792C433.439 52.312 433.604 51.6667 433.604 50.856ZM435.588 50.824C435.588 51.464 435.503 52.0507 435.332 52.584C435.172 53.1173 434.938 53.576 434.628 53.96C434.319 54.344 433.93 54.6427 433.46 54.856C433.002 55.0693 432.479 55.176 431.892 55.176C431.498 55.176 431.135 55.128 430.804 55.032C430.474 54.936 430.202 54.8293 429.988 54.712V57.96H428.052V46.904C428.447 46.7973 428.932 46.696 429.508 46.6C430.084 46.504 430.692 46.456 431.332 46.456C431.994 46.456 432.586 46.5573 433.108 46.76C433.631 46.9627 434.074 47.256 434.436 47.64C434.81 48.0133 435.092 48.472 435.284 49.016C435.487 49.5493 435.588 50.152 435.588 50.824ZM440.496 55.16C439.92 55.1493 439.44 55.0853 439.056 54.968C438.682 54.8507 438.384 54.6853 438.16 54.472C437.936 54.248 437.776 53.976 437.68 53.656C437.594 53.3253 437.552 52.952 437.552 52.536V42.904L439.488 42.584V52.168C439.488 52.4027 439.504 52.6 439.536 52.76C439.578 52.92 439.648 53.0587 439.744 53.176C439.84 53.2827 439.968 53.368 440.128 53.432C440.298 53.4853 440.512 53.528 440.768 53.56L440.496 55.16ZM444.286 55H442.35V46.632H444.286V55ZM444.494 44.184C444.494 44.5467 444.376 44.8347 444.142 45.048C443.907 45.2613 443.63 45.368 443.31 45.368C442.979 45.368 442.696 45.2613 442.462 45.048C442.227 44.8347 442.11 44.5467 442.11 44.184C442.11 43.8107 442.227 43.5173 442.462 43.304C442.696 43.0907 442.979 42.984 443.31 42.984C443.63 42.984 443.907 43.0907 444.142 43.304C444.376 43.5173 444.494 43.8107 444.494 44.184ZM446.291 50.824C446.291 50.2053 446.387 49.6293 446.579 49.096C446.771 48.552 447.043 48.0827 447.395 47.688C447.758 47.2933 448.195 46.984 448.707 46.76C449.219 46.536 449.795 46.424 450.435 46.424C451.225 46.424 451.971 46.568 452.675 46.856L452.259 48.44C452.035 48.344 451.779 48.264 451.491 48.2C451.214 48.136 450.915 48.104 450.595 48.104C449.838 48.104 449.262 48.344 448.867 48.824C448.473 49.2933 448.275 49.96 448.275 50.824C448.275 51.656 448.462 52.3173 448.835 52.808C449.209 53.288 449.838 53.528 450.723 53.528C451.054 53.528 451.379 53.496 451.699 53.432C452.019 53.368 452.297 53.288 452.531 53.192L452.803 54.792C452.59 54.8987 452.265 54.9947 451.827 55.08C451.401 55.1653 450.958 55.208 450.499 55.208C449.785 55.208 449.161 55.1013 448.627 54.888C448.105 54.664 447.667 54.36 447.315 53.976C446.974 53.5813 446.718 53.1173 446.547 52.584C446.377 52.04 446.291 51.4533 446.291 50.824ZM457.246 53.64C457.844 53.64 458.297 53.608 458.606 53.544V51.4C458.5 51.368 458.345 51.336 458.142 51.304C457.94 51.272 457.716 51.256 457.47 51.256C457.257 51.256 457.038 51.272 456.814 51.304C456.601 51.336 456.404 51.3947 456.222 51.48C456.052 51.5653 455.913 51.688 455.806 51.848C455.7 51.9973 455.646 52.1893 455.646 52.424C455.646 52.8827 455.79 53.2027 456.078 53.384C456.366 53.5547 456.756 53.64 457.246 53.64ZM457.086 46.424C457.726 46.424 458.265 46.504 458.702 46.664C459.14 46.824 459.486 47.048 459.742 47.336C460.009 47.624 460.196 47.976 460.302 48.392C460.42 48.7973 460.478 49.2453 460.478 49.736V54.808C460.18 54.872 459.726 54.9467 459.118 55.032C458.521 55.128 457.844 55.176 457.086 55.176C456.585 55.176 456.126 55.128 455.71 55.032C455.294 54.936 454.937 54.7813 454.638 54.568C454.35 54.3547 454.121 54.0773 453.95 53.736C453.79 53.3947 453.71 52.9733 453.71 52.472C453.71 51.992 453.801 51.5867 453.982 51.256C454.174 50.9253 454.43 50.6587 454.75 50.456C455.07 50.2427 455.438 50.0933 455.854 50.008C456.281 49.912 456.724 49.864 457.182 49.864C457.396 49.864 457.62 49.88 457.854 49.912C458.089 49.9333 458.34 49.976 458.606 50.04V49.72C458.606 49.496 458.58 49.2827 458.526 49.08C458.473 48.8773 458.377 48.7013 458.238 48.552C458.11 48.392 457.934 48.2693 457.71 48.184C457.497 48.0987 457.225 48.056 456.894 48.056C456.446 48.056 456.036 48.088 455.662 48.152C455.289 48.216 454.985 48.2907 454.75 48.376L454.51 46.808C454.756 46.7227 455.113 46.6373 455.582 46.552C456.052 46.4667 456.553 46.424 457.086 46.424ZM462.753 44.424L464.689 44.104V46.632H467.665V48.248H464.689V51.656C464.689 52.328 464.796 52.808 465.009 53.096C465.223 53.384 465.585 53.528 466.097 53.528C466.449 53.528 466.759 53.4907 467.025 53.416C467.303 53.3413 467.521 53.272 467.681 53.208L468.001 54.744C467.777 54.84 467.484 54.936 467.121 55.032C466.759 55.1387 466.332 55.192 465.841 55.192C465.244 55.192 464.743 55.112 464.337 54.952C463.943 54.792 463.628 54.5627 463.393 54.264C463.159 53.9547 462.993 53.5867 462.897 53.16C462.801 52.7227 462.753 52.2267 462.753 51.672V44.424ZM471.489 55H469.553V46.632H471.489V55ZM471.697 44.184C471.697 44.5467 471.579 44.8347 471.345 45.048C471.11 45.2613 470.833 45.368 470.513 45.368C470.182 45.368 469.899 45.2613 469.665 45.048C469.43 44.8347 469.313 44.5467 469.313 44.184C469.313 43.8107 469.43 43.5173 469.665 43.304C469.899 43.0907 470.182 42.984 470.513 42.984C470.833 42.984 471.11 43.0907 471.345 43.304C471.579 43.5173 471.697 43.8107 471.697 44.184ZM481.527 50.808C481.527 51.4693 481.431 52.072 481.239 52.616C481.047 53.16 480.775 53.624 480.423 54.008C480.071 54.392 479.644 54.6907 479.143 54.904C478.652 55.1173 478.108 55.224 477.511 55.224C476.913 55.224 476.369 55.1173 475.879 54.904C475.388 54.6907 474.967 54.392 474.615 54.008C474.263 53.624 473.985 53.16 473.783 52.616C473.591 52.072 473.495 51.4693 473.495 50.808C473.495 50.1467 473.591 49.5493 473.783 49.016C473.985 48.472 474.263 48.008 474.615 47.624C474.977 47.24 475.404 46.9467 475.895 46.744C476.385 46.5307 476.924 46.424 477.511 46.424C478.097 46.424 478.636 46.5307 479.127 46.744C479.628 46.9467 480.055 47.24 480.407 47.624C480.759 48.008 481.031 48.472 481.223 49.016C481.425 49.5493 481.527 50.1467 481.527 50.808ZM479.543 50.808C479.543 49.976 479.361 49.32 478.999 48.84C478.647 48.3493 478.151 48.104 477.511 48.104C476.871 48.104 476.369 48.3493 476.007 48.84C475.655 49.32 475.479 49.976 475.479 50.808C475.479 51.6507 475.655 52.3173 476.007 52.808C476.369 53.2987 476.871 53.544 477.511 53.544C478.151 53.544 478.647 53.2987 478.999 52.808C479.361 52.3173 479.543 51.6507 479.543 50.808ZM483.521 46.904C483.894 46.7973 484.38 46.696 484.977 46.6C485.574 46.504 486.236 46.456 486.961 46.456C487.644 46.456 488.214 46.552 488.673 46.744C489.132 46.9253 489.494 47.1867 489.761 47.528C490.038 47.8587 490.23 48.264 490.337 48.744C490.454 49.2133 490.513 49.7307 490.513 50.296V55H488.577V50.6C488.577 50.152 488.545 49.7733 488.481 49.464C488.428 49.144 488.332 48.888 488.193 48.696C488.065 48.4933 487.884 48.3493 487.649 48.264C487.425 48.168 487.148 48.12 486.817 48.12C486.572 48.12 486.316 48.136 486.049 48.168C485.782 48.2 485.585 48.2267 485.457 48.248V55H483.521V46.904Z" fill="#2C2C2C"/>
  <path d="M49.7185 111.44C49.5372 111.291 49.2758 111.147 48.9345 111.008C48.5932 110.869 48.2198 110.8 47.8145 110.8C47.3878 110.8 47.0198 110.88 46.7105 111.04C46.4118 111.189 46.1665 111.403 45.9745 111.68C45.7825 111.947 45.6438 112.267 45.5585 112.64C45.4732 113.013 45.4305 113.413 45.4305 113.84C45.4305 114.811 45.6705 115.563 46.1505 116.096C46.6305 116.619 47.2705 116.88 48.0705 116.88C48.4758 116.88 48.8118 116.864 49.0785 116.832C49.3558 116.789 49.5692 116.747 49.7185 116.704V111.44ZM49.7185 105.84L51.2065 105.584V117.76C50.8652 117.856 50.4278 117.952 49.8945 118.048C49.3612 118.144 48.7478 118.192 48.0545 118.192C47.4145 118.192 46.8385 118.091 46.3265 117.888C45.8145 117.685 45.3772 117.397 45.0145 117.024C44.6518 116.651 44.3692 116.197 44.1665 115.664C43.9745 115.12 43.8785 114.512 43.8785 113.84C43.8785 113.2 43.9585 112.613 44.1185 112.08C44.2892 111.547 44.5345 111.088 44.8545 110.704C45.1745 110.32 45.5638 110.021 46.0225 109.808C46.4918 109.595 47.0252 109.488 47.6225 109.488C48.1025 109.488 48.5238 109.552 48.8865 109.68C49.2598 109.808 49.5372 109.931 49.7185 110.048V105.84ZM61.1084 113.84C61.1084 114.501 61.0124 115.099 60.8204 115.632C60.6284 116.165 60.3564 116.624 60.0044 117.008C59.663 117.392 59.2524 117.691 58.7724 117.904C58.2924 118.107 57.7697 118.208 57.2044 118.208C56.639 118.208 56.1164 118.107 55.6364 117.904C55.1564 117.691 54.7404 117.392 54.3884 117.008C54.047 116.624 53.7804 116.165 53.5884 115.632C53.3964 115.099 53.3004 114.501 53.3004 113.84C53.3004 113.189 53.3964 112.597 53.5884 112.064C53.7804 111.52 54.047 111.056 54.3884 110.672C54.7404 110.288 55.1564 109.995 55.6364 109.792C56.1164 109.579 56.639 109.472 57.2044 109.472C57.7697 109.472 58.2924 109.579 58.7724 109.792C59.2524 109.995 59.663 110.288 60.0044 110.672C60.3564 111.056 60.6284 111.52 60.8204 112.064C61.0124 112.597 61.1084 113.189 61.1084 113.84ZM59.5564 113.84C59.5564 112.901 59.343 112.16 58.9164 111.616C58.5004 111.061 57.9297 110.784 57.2044 110.784C56.479 110.784 55.903 111.061 55.4764 111.616C55.0604 112.16 54.8524 112.901 54.8524 113.84C54.8524 114.779 55.0604 115.525 55.4764 116.08C55.903 116.624 56.479 116.896 57.2044 116.896C57.9297 116.896 58.5004 116.624 58.9164 116.08C59.343 115.525 59.5564 114.779 59.5564 113.84ZM69.7987 118C69.5001 117.232 69.1801 116.357 68.8388 115.376C68.5081 114.384 68.2041 113.355 67.9268 112.288C67.6494 113.355 67.3454 114.384 67.0148 115.376C66.6841 116.357 66.3694 117.232 66.0708 118H64.7748C64.2841 116.901 63.8041 115.648 63.3348 114.24C62.8654 112.832 62.4228 111.312 62.0068 109.68H63.6068C63.7134 110.181 63.8414 110.725 63.9908 111.312C64.1401 111.899 64.2948 112.485 64.4548 113.072C64.6254 113.659 64.8014 114.224 64.9828 114.768C65.1641 115.312 65.3348 115.787 65.4948 116.192C65.6761 115.691 65.8521 115.163 66.0228 114.608C66.2041 114.043 66.3748 113.477 66.5348 112.912C66.6948 112.336 66.8441 111.776 66.9828 111.232C67.1321 110.677 67.2601 110.16 67.3668 109.68H68.5988C68.6948 110.16 68.8121 110.677 68.9508 111.232C69.0894 111.776 69.2388 112.336 69.3988 112.912C69.5588 113.477 69.7241 114.043 69.8948 114.608C70.0761 115.163 70.2574 115.691 70.4388 116.192C70.5988 115.787 70.7641 115.312 70.9348 114.768C71.1161 114.224 71.2921 113.659 71.4628 113.072C71.6334 112.485 71.7934 111.899 71.9428 111.312C72.0921 110.725 72.2201 110.181 72.3268 109.68H73.8628C73.4468 111.312 73.0041 112.832 72.5348 114.24C72.0654 115.648 71.5854 116.901 71.0948 118H69.7987ZM75.4363 109.92C75.7776 109.835 76.2309 109.744 76.7963 109.648C77.3616 109.552 78.0123 109.504 78.7483 109.504C79.4096 109.504 79.9589 109.6 80.3963 109.792C80.8336 109.973 81.1803 110.235 81.4363 110.576C81.7029 110.907 81.8896 111.307 81.9963 111.776C82.1029 112.245 82.1562 112.763 82.1562 113.328V118H80.6683V113.648C80.6683 113.136 80.6309 112.699 80.5563 112.336C80.4923 111.973 80.3803 111.68 80.2203 111.456C80.0603 111.232 79.8469 111.072 79.5803 110.976C79.3136 110.869 78.9829 110.816 78.5883 110.816C78.4283 110.816 78.2629 110.821 78.0923 110.832C77.9216 110.843 77.7563 110.859 77.5963 110.88C77.4469 110.891 77.3083 110.907 77.1803 110.928C77.0629 110.949 76.9776 110.965 76.9243 110.976V118H75.4363V109.92ZM87.1198 118.16C86.2024 118.139 85.5518 117.941 85.1678 117.568C84.7838 117.195 84.5918 116.613 84.5918 115.824V105.84L86.0798 105.584V115.584C86.0798 115.829 86.1011 116.032 86.1438 116.192C86.1864 116.352 86.2558 116.48 86.3518 116.576C86.4478 116.672 86.5758 116.747 86.7358 116.8C86.8958 116.843 87.0931 116.88 87.3278 116.912L87.1198 118.16ZM96.3428 113.84C96.3428 114.501 96.2468 115.099 96.0548 115.632C95.8628 116.165 95.5908 116.624 95.2388 117.008C94.8974 117.392 94.4868 117.691 94.0068 117.904C93.5268 118.107 93.0041 118.208 92.4388 118.208C91.8734 118.208 91.3508 118.107 90.8708 117.904C90.3908 117.691 89.9748 117.392 89.6228 117.008C89.2814 116.624 89.0148 116.165 88.8228 115.632C88.6308 115.099 88.5348 114.501 88.5348 113.84C88.5348 113.189 88.6308 112.597 88.8228 112.064C89.0148 111.52 89.2814 111.056 89.6228 110.672C89.9748 110.288 90.3908 109.995 90.8708 109.792C91.3508 109.579 91.8734 109.472 92.4388 109.472C93.0041 109.472 93.5268 109.579 94.0068 109.792C94.4868 109.995 94.8974 110.288 95.2388 110.672C95.5908 111.056 95.8628 111.52 96.0548 112.064C96.2468 112.597 96.3428 113.189 96.3428 113.84ZM94.7908 113.84C94.7908 112.901 94.5774 112.16 94.1508 111.616C93.7348 111.061 93.1641 110.784 92.4388 110.784C91.7134 110.784 91.1374 111.061 90.7108 111.616C90.2948 112.16 90.0868 112.901 90.0868 113.84C90.0868 114.779 90.2948 115.525 90.7108 116.08C91.1374 116.624 91.7134 116.896 92.4388 116.896C93.1641 116.896 93.7348 116.624 94.1508 116.08C94.5774 115.525 94.7908 114.779 94.7908 113.84ZM101.252 116.928C101.604 116.928 101.914 116.923 102.18 116.912C102.458 116.891 102.687 116.859 102.868 116.816V114.336C102.762 114.283 102.586 114.24 102.34 114.208C102.106 114.165 101.818 114.144 101.476 114.144C101.252 114.144 101.012 114.16 100.756 114.192C100.511 114.224 100.282 114.293 100.068 114.4C99.8656 114.496 99.6949 114.635 99.5563 114.816C99.4176 114.987 99.3483 115.216 99.3483 115.504C99.3483 116.037 99.5189 116.411 99.8603 116.624C100.202 116.827 100.666 116.928 101.252 116.928ZM101.124 109.472C101.722 109.472 102.223 109.552 102.628 109.712C103.044 109.861 103.375 110.08 103.62 110.368C103.876 110.645 104.058 110.981 104.164 111.376C104.271 111.76 104.324 112.187 104.324 112.656V117.856C104.196 117.877 104.015 117.909 103.78 117.952C103.556 117.984 103.3 118.016 103.012 118.048C102.724 118.08 102.41 118.107 102.068 118.128C101.738 118.16 101.407 118.176 101.076 118.176C100.607 118.176 100.175 118.128 99.7803 118.032C99.3856 117.936 99.0443 117.787 98.7563 117.584C98.4683 117.371 98.2443 117.093 98.0843 116.752C97.9243 116.411 97.8443 116 97.8443 115.52C97.8443 115.061 97.9349 114.667 98.1163 114.336C98.3083 114.005 98.5643 113.739 98.8843 113.536C99.2043 113.333 99.5776 113.184 100.004 113.088C100.431 112.992 100.879 112.944 101.348 112.944C101.498 112.944 101.652 112.955 101.812 112.976C101.972 112.987 102.122 113.008 102.26 113.04C102.41 113.061 102.538 113.083 102.644 113.104C102.751 113.125 102.826 113.141 102.868 113.152V112.736C102.868 112.491 102.842 112.251 102.788 112.016C102.735 111.771 102.639 111.557 102.5 111.376C102.362 111.184 102.17 111.035 101.924 110.928C101.69 110.811 101.38 110.752 100.996 110.752C100.506 110.752 100.074 110.789 99.7003 110.864C99.3376 110.928 99.0656 110.997 98.8843 111.072L98.7083 109.84C98.9003 109.755 99.2203 109.675 99.6683 109.6C100.116 109.515 100.602 109.472 101.124 109.472ZM112.172 111.44C111.99 111.291 111.729 111.147 111.388 111.008C111.046 110.869 110.673 110.8 110.268 110.8C109.841 110.8 109.473 110.88 109.164 111.04C108.865 111.189 108.62 111.403 108.428 111.68C108.236 111.947 108.097 112.267 108.012 112.64C107.926 113.013 107.884 113.413 107.884 113.84C107.884 114.811 108.124 115.563 108.604 116.096C109.084 116.619 109.724 116.88 110.524 116.88C110.929 116.88 111.265 116.864 111.532 116.832C111.809 116.789 112.022 116.747 112.172 116.704V111.44ZM112.172 105.84L113.66 105.584V117.76C113.318 117.856 112.881 117.952 112.348 118.048C111.814 118.144 111.201 118.192 110.508 118.192C109.868 118.192 109.292 118.091 108.78 117.888C108.268 117.685 107.83 117.397 107.468 117.024C107.105 116.651 106.822 116.197 106.62 115.664C106.428 115.12 106.332 114.512 106.332 113.84C106.332 113.2 106.412 112.613 106.572 112.08C106.742 111.547 106.988 111.088 107.308 110.704C107.628 110.32 108.017 110.021 108.476 109.808C108.945 109.595 109.478 109.488 110.076 109.488C110.556 109.488 110.977 109.552 111.34 109.68C111.713 109.808 111.99 109.931 112.172 110.048V105.84ZM69.4944 144.928C69.8464 144.928 70.1558 144.923 70.4224 144.912C70.6998 144.891 70.9291 144.859 71.1104 144.816V142.336C71.0038 142.283 70.8278 142.24 70.5824 142.208C70.3478 142.165 70.0598 142.144 69.7184 142.144C69.4944 142.144 69.2544 142.16 68.9984 142.192C68.7531 142.224 68.5238 142.293 68.3104 142.4C68.1078 142.496 67.9371 142.635 67.7984 142.816C67.6598 142.987 67.5904 143.216 67.5904 143.504C67.5904 144.037 67.7611 144.411 68.1024 144.624C68.4438 144.827 68.9078 144.928 69.4944 144.928ZM69.3664 137.472C69.9638 137.472 70.4651 137.552 70.8704 137.712C71.2864 137.861 71.6171 138.08 71.8624 138.368C72.1184 138.645 72.2998 138.981 72.4064 139.376C72.5131 139.76 72.5664 140.187 72.5664 140.656V145.856C72.4384 145.877 72.2571 145.909 72.0224 145.952C71.7984 145.984 71.5424 146.016 71.2544 146.048C70.9664 146.08 70.6518 146.107 70.3104 146.128C69.9798 146.16 69.6491 146.176 69.3184 146.176C68.8491 146.176 68.4171 146.128 68.0224 146.032C67.6278 145.936 67.2864 145.787 66.9984 145.584C66.7104 145.371 66.4864 145.093 66.3264 144.752C66.1664 144.411 66.0864 144 66.0864 143.52C66.0864 143.061 66.1771 142.667 66.3584 142.336C66.5504 142.005 66.8064 141.739 67.1264 141.536C67.4464 141.333 67.8198 141.184 68.2464 141.088C68.6731 140.992 69.1211 140.944 69.5904 140.944C69.7398 140.944 69.8944 140.955 70.0544 140.976C70.2144 140.987 70.3638 141.008 70.5024 141.04C70.6518 141.061 70.7798 141.083 70.8864 141.104C70.9931 141.125 71.0678 141.141 71.1104 141.152V140.736C71.1104 140.491 71.0838 140.251 71.0304 140.016C70.9771 139.771 70.8811 139.557 70.7424 139.376C70.6038 139.184 70.4118 139.035 70.1664 138.928C69.9318 138.811 69.6224 138.752 69.2384 138.752C68.7478 138.752 68.3158 138.789 67.9424 138.864C67.5798 138.928 67.3078 138.997 67.1264 139.072L66.9504 137.84C67.1424 137.755 67.4624 137.675 67.9104 137.6C68.3584 137.515 68.8438 137.472 69.3664 137.472ZM80.8138 141.856C80.8138 140.885 80.5738 140.139 80.0938 139.616C79.6138 139.093 78.9738 138.832 78.1738 138.832C77.7258 138.832 77.3738 138.848 77.1178 138.88C76.8725 138.912 76.6751 138.949 76.5258 138.992V144.24C76.7071 144.389 76.9685 144.533 77.3098 144.672C77.6511 144.811 78.0245 144.88 78.4298 144.88C78.8565 144.88 79.2191 144.805 79.5178 144.656C79.8271 144.496 80.0778 144.283 80.2698 144.016C80.4618 143.739 80.6005 143.419 80.6858 143.056C80.7711 142.683 80.8138 142.283 80.8138 141.856ZM82.3658 141.856C82.3658 142.485 82.2805 143.067 82.1098 143.6C81.9498 144.133 81.7098 144.592 81.3898 144.976C81.0698 145.36 80.6751 145.659 80.2058 145.872C79.7471 146.085 79.2191 146.192 78.6218 146.192C78.1418 146.192 77.7151 146.128 77.3418 146C76.9791 145.872 76.7071 145.749 76.5258 145.632V148.96H75.0378V137.936C75.3898 137.851 75.8271 137.76 76.3498 137.664C76.8831 137.557 77.4965 137.504 78.1898 137.504C78.8298 137.504 79.4058 137.605 79.9178 137.808C80.4298 138.011 80.8671 138.299 81.2298 138.672C81.5925 139.045 81.8698 139.504 82.0618 140.048C82.2645 140.581 82.3658 141.184 82.3658 141.856ZM90.2357 141.856C90.2357 140.885 89.9957 140.139 89.5157 139.616C89.0357 139.093 88.3957 138.832 87.5957 138.832C87.1477 138.832 86.7957 138.848 86.5397 138.88C86.2944 138.912 86.097 138.949 85.9477 138.992V144.24C86.129 144.389 86.3904 144.533 86.7317 144.672C87.073 144.811 87.4464 144.88 87.8517 144.88C88.2784 144.88 88.641 144.805 88.9397 144.656C89.249 144.496 89.4997 144.283 89.6917 144.016C89.8837 143.739 90.0224 143.419 90.1077 143.056C90.193 142.683 90.2357 142.283 90.2357 141.856ZM91.7877 141.856C91.7877 142.485 91.7024 143.067 91.5317 143.6C91.3717 144.133 91.1317 144.592 90.8117 144.976C90.4917 145.36 90.097 145.659 89.6277 145.872C89.169 146.085 88.641 146.192 88.0437 146.192C87.5637 146.192 87.137 146.128 86.7637 146C86.401 145.872 86.129 145.749 85.9477 145.632V148.96H84.4597V137.936C84.8117 137.851 85.249 137.76 85.7717 137.664C86.305 137.557 86.9184 137.504 87.6117 137.504C88.2517 137.504 88.8277 137.605 89.3397 137.808C89.8517 138.011 90.289 138.299 90.6517 138.672C91.0144 139.045 91.2917 139.504 91.4837 140.048C91.6864 140.581 91.7877 141.184 91.7877 141.856Z" fill="white"/>
  <path d="M429.63 105.584C430.003 105.584 430.323 105.611 430.59 105.664C430.856 105.707 431.048 105.749 431.166 105.792L430.958 107.072C430.84 107.029 430.68 106.987 430.478 106.944C430.275 106.891 430.03 106.864 429.742 106.864C429.048 106.864 428.563 107.056 428.286 107.44C428.008 107.813 427.87 108.32 427.87 108.96V109.68H431.07V110.928H427.87V118H426.382V108.928C426.382 107.861 426.643 107.04 427.166 106.464C427.688 105.877 428.51 105.584 429.63 105.584ZM434.11 118H432.622V109.68H434.11V118ZM433.358 108.176C433.091 108.176 432.862 108.091 432.67 107.92C432.488 107.739 432.398 107.499 432.398 107.2C432.398 106.901 432.488 106.667 432.67 106.496C432.862 106.315 433.091 106.224 433.358 106.224C433.624 106.224 433.848 106.315 434.03 106.496C434.222 106.667 434.318 106.901 434.318 107.2C434.318 107.499 434.222 107.739 434.03 107.92C433.848 108.091 433.624 108.176 433.358 108.176ZM439.159 118.16C438.241 118.139 437.591 117.941 437.207 117.568C436.823 117.195 436.631 116.613 436.631 115.824V105.84L438.119 105.584V115.584C438.119 115.829 438.14 116.032 438.183 116.192C438.225 116.352 438.295 116.48 438.391 116.576C438.487 116.672 438.615 116.747 438.775 116.8C438.935 116.843 439.132 116.88 439.367 116.912L439.159 118.16ZM443.534 118.16C442.616 118.139 441.966 117.941 441.582 117.568C441.198 117.195 441.006 116.613 441.006 115.824V105.84L442.494 105.584V115.584C442.494 115.829 442.515 116.032 442.558 116.192C442.6 116.352 442.67 116.48 442.766 116.576C442.862 116.672 442.99 116.747 443.15 116.8C443.31 116.843 443.507 116.88 443.742 116.912L443.534 118.16ZM456.46 113.84C456.46 114.501 456.364 115.099 456.172 115.632C455.98 116.165 455.708 116.624 455.356 117.008C455.015 117.392 454.604 117.691 454.124 117.904C453.644 118.107 453.121 118.208 452.556 118.208C451.991 118.208 451.468 118.107 450.988 117.904C450.508 117.691 450.092 117.392 449.74 117.008C449.399 116.624 449.132 116.165 448.94 115.632C448.748 115.099 448.652 114.501 448.652 113.84C448.652 113.189 448.748 112.597 448.94 112.064C449.132 111.52 449.399 111.056 449.74 110.672C450.092 110.288 450.508 109.995 450.988 109.792C451.468 109.579 451.991 109.472 452.556 109.472C453.121 109.472 453.644 109.579 454.124 109.792C454.604 109.995 455.015 110.288 455.356 110.672C455.708 111.056 455.98 111.52 456.172 112.064C456.364 112.597 456.46 113.189 456.46 113.84ZM454.908 113.84C454.908 112.901 454.695 112.16 454.268 111.616C453.852 111.061 453.281 110.784 452.556 110.784C451.831 110.784 451.255 111.061 450.828 111.616C450.412 112.16 450.204 112.901 450.204 113.84C450.204 114.779 450.412 115.525 450.828 116.08C451.255 116.624 451.831 116.896 452.556 116.896C453.281 116.896 453.852 116.624 454.268 116.08C454.695 115.525 454.908 114.779 454.908 113.84ZM465.177 117.76C464.836 117.845 464.383 117.936 463.817 118.032C463.263 118.128 462.617 118.176 461.881 118.176C461.241 118.176 460.703 118.085 460.265 117.904C459.828 117.712 459.476 117.445 459.209 117.104C458.943 116.763 458.751 116.363 458.633 115.904C458.516 115.435 458.457 114.917 458.457 114.352V109.68H459.945V114.032C459.945 115.045 460.105 115.771 460.425 116.208C460.745 116.645 461.284 116.864 462.041 116.864C462.201 116.864 462.367 116.859 462.537 116.848C462.708 116.837 462.868 116.827 463.017 116.816C463.167 116.795 463.3 116.779 463.417 116.768C463.545 116.747 463.636 116.725 463.689 116.704V109.68H465.177V117.76ZM469.133 109.68H472.285V110.928H469.133V114.768C469.133 115.184 469.165 115.531 469.229 115.808C469.293 116.075 469.389 116.288 469.517 116.448C469.645 116.597 469.805 116.704 469.997 116.768C470.189 116.832 470.413 116.864 470.669 116.864C471.117 116.864 471.474 116.816 471.741 116.72C472.018 116.613 472.21 116.539 472.317 116.496L472.605 117.728C472.456 117.803 472.194 117.893 471.821 118C471.448 118.117 471.021 118.176 470.541 118.176C469.976 118.176 469.506 118.107 469.133 117.968C468.77 117.819 468.477 117.6 468.253 117.312C468.029 117.024 467.869 116.672 467.773 116.256C467.688 115.829 467.645 115.339 467.645 114.784V107.36L469.133 107.104V109.68ZM419.781 137.68H422.933V138.928H419.781V142.768C419.781 143.184 419.813 143.531 419.877 143.808C419.941 144.075 420.037 144.288 420.165 144.448C420.293 144.597 420.453 144.704 420.645 144.768C420.837 144.832 421.061 144.864 421.317 144.864C421.765 144.864 422.123 144.816 422.389 144.72C422.667 144.613 422.859 144.539 422.965 144.496L423.253 145.728C423.104 145.803 422.843 145.893 422.469 146C422.096 146.117 421.669 146.176 421.189 146.176C420.624 146.176 420.155 146.107 419.781 145.968C419.419 145.819 419.125 145.6 418.901 145.312C418.677 145.024 418.517 144.672 418.421 144.256C418.336 143.829 418.293 143.339 418.293 142.784V135.36L419.781 135.104V137.68ZM424.827 146V133.84L426.315 133.584V137.84C426.592 137.733 426.886 137.653 427.195 137.6C427.515 137.536 427.83 137.504 428.139 137.504C428.8 137.504 429.35 137.6 429.787 137.792C430.224 137.973 430.571 138.235 430.827 138.576C431.094 138.907 431.28 139.307 431.387 139.776C431.494 140.245 431.547 140.763 431.547 141.328V146H430.059V141.648C430.059 141.136 430.022 140.699 429.947 140.336C429.883 139.973 429.771 139.68 429.611 139.456C429.451 139.232 429.238 139.072 428.971 138.976C428.704 138.869 428.374 138.816 427.979 138.816C427.819 138.816 427.654 138.827 427.483 138.848C427.312 138.869 427.147 138.896 426.987 138.928C426.838 138.949 426.699 138.976 426.571 139.008C426.454 139.04 426.368 139.067 426.315 139.088V146H424.827ZM433.504 141.856C433.504 141.12 433.61 140.48 433.824 139.936C434.037 139.381 434.32 138.923 434.672 138.56C435.024 138.197 435.429 137.925 435.888 137.744C436.346 137.563 436.816 137.472 437.296 137.472C438.416 137.472 439.274 137.824 439.872 138.528C440.469 139.221 440.767 140.283 440.767 141.712C440.767 141.776 440.767 141.861 440.767 141.968C440.767 142.064 440.762 142.155 440.752 142.24H435.056C435.12 143.104 435.37 143.76 435.808 144.208C436.245 144.656 436.928 144.88 437.856 144.88C438.378 144.88 438.816 144.837 439.168 144.752C439.53 144.656 439.802 144.565 439.984 144.48L440.192 145.728C440.01 145.824 439.69 145.925 439.232 146.032C438.784 146.139 438.272 146.192 437.696 146.192C436.97 146.192 436.341 146.085 435.808 145.872C435.285 145.648 434.853 145.344 434.512 144.96C434.17 144.576 433.914 144.123 433.743 143.6C433.584 143.067 433.504 142.485 433.504 141.856ZM439.216 141.04C439.226 140.368 439.056 139.819 438.704 139.392C438.362 138.955 437.888 138.736 437.28 138.736C436.938 138.736 436.634 138.805 436.368 138.944C436.112 139.072 435.893 139.243 435.712 139.456C435.53 139.669 435.386 139.915 435.28 140.192C435.184 140.469 435.12 140.752 435.088 141.04H439.216ZM449.856 133.584C450.293 133.584 450.667 133.616 450.976 133.68C451.296 133.744 451.52 133.803 451.648 133.856L451.376 135.136C451.248 135.072 451.067 135.013 450.832 134.96C450.597 134.896 450.309 134.864 449.968 134.864C449.275 134.864 448.789 135.056 448.512 135.44C448.235 135.813 448.096 136.32 448.096 136.96V137.68H451.296V138.928H448.096V146H446.608V136.928C446.608 135.861 446.869 135.04 447.392 134.464C447.915 133.877 448.736 133.584 449.856 133.584ZM460.124 141.84C460.124 142.501 460.028 143.099 459.836 143.632C459.644 144.165 459.372 144.624 459.02 145.008C458.679 145.392 458.268 145.691 457.788 145.904C457.308 146.107 456.785 146.208 456.22 146.208C455.655 146.208 455.132 146.107 454.652 145.904C454.172 145.691 453.756 145.392 453.404 145.008C453.063 144.624 452.796 144.165 452.604 143.632C452.412 143.099 452.316 142.501 452.316 141.84C452.316 141.189 452.412 140.597 452.604 140.064C452.796 139.52 453.063 139.056 453.404 138.672C453.756 138.288 454.172 137.995 454.652 137.792C455.132 137.579 455.655 137.472 456.22 137.472C456.785 137.472 457.308 137.579 457.788 137.792C458.268 137.995 458.679 138.288 459.02 138.672C459.372 139.056 459.644 139.52 459.836 140.064C460.028 140.597 460.124 141.189 460.124 141.84ZM458.572 141.84C458.572 140.901 458.359 140.16 457.932 139.616C457.516 139.061 456.945 138.784 456.22 138.784C455.495 138.784 454.919 139.061 454.492 139.616C454.076 140.16 453.868 140.901 453.868 141.84C453.868 142.779 454.076 143.525 454.492 144.08C454.919 144.624 455.495 144.896 456.22 144.896C456.945 144.896 457.516 144.624 457.932 144.08C458.359 143.525 458.572 142.779 458.572 141.84ZM465.29 137.504C465.418 137.504 465.562 137.515 465.722 137.536C465.892 137.547 466.058 137.568 466.218 137.6C466.378 137.621 466.522 137.648 466.65 137.68C466.788 137.701 466.89 137.723 466.954 137.744L466.698 139.04C466.58 138.997 466.383 138.949 466.106 138.896C465.839 138.832 465.492 138.8 465.066 138.8C464.788 138.8 464.511 138.832 464.234 138.896C463.967 138.949 463.791 138.987 463.706 139.008V146H462.218V138.032C462.57 137.904 463.007 137.787 463.53 137.68C464.052 137.563 464.639 137.504 465.29 137.504ZM468.389 137.92C468.731 137.835 469.179 137.744 469.733 137.648C470.299 137.552 470.949 137.504 471.685 137.504C472.219 137.504 472.667 137.579 473.029 137.728C473.392 137.867 473.696 138.075 473.941 138.352C474.016 138.299 474.133 138.224 474.293 138.128C474.453 138.032 474.651 137.941 474.885 137.856C475.12 137.76 475.381 137.68 475.669 137.616C475.957 137.541 476.267 137.504 476.597 137.504C477.237 137.504 477.76 137.6 478.165 137.792C478.571 137.973 478.885 138.235 479.109 138.576C479.344 138.917 479.499 139.323 479.573 139.792C479.659 140.261 479.701 140.773 479.701 141.328V146H478.213V141.648C478.213 141.157 478.187 140.736 478.133 140.384C478.091 140.032 478 139.739 477.861 139.504C477.733 139.269 477.552 139.099 477.317 138.992C477.093 138.875 476.8 138.816 476.437 138.816C475.936 138.816 475.52 138.885 475.189 139.024C474.869 139.152 474.651 139.269 474.533 139.376C474.619 139.653 474.683 139.957 474.725 140.288C474.768 140.619 474.789 140.965 474.789 141.328V146H473.301V141.648C473.301 141.157 473.275 140.736 473.221 140.384C473.168 140.032 473.072 139.739 472.933 139.504C472.805 139.269 472.624 139.099 472.389 138.992C472.165 138.875 471.877 138.816 471.525 138.816C471.376 138.816 471.216 138.821 471.045 138.832C470.875 138.843 470.709 138.859 470.549 138.88C470.4 138.891 470.261 138.907 470.133 138.928C470.005 138.949 469.92 138.965 469.877 138.976V146H468.389V137.92Z" fill="white"/>
  <path d="M170.045 132.92L176.466 126.5L170.045 120.08L168.455 121.67L173.284 126.5L168.455 131.33L170.045 132.92Z" fill="#3A70A6"/>
  <path d="M355.045 132.92L361.466 126.5L355.045 120.08L353.455 121.67L358.284 126.5L353.455 131.33L355.045 132.92Z" fill="#3A70A6"/>
</svg>
