<svg width="1311" height="34" viewBox="0 0 1311 34" fill="none"
  xmlns="http://www.w3.org/2000/svg">
  <path d="M672.4 0L673.48 1.68C666.04 6.56 662.32 11.44 662.32 16.32C662.32 18.8 663.4 20.24 665.56 20.64L670.6 15.96C672.2 16.52 673.64 17.56 674.92 19.08C676.28 20.52 676.96 22.4 676.96 24.72C676.96 27.04 676.04 29.04 674.2 30.72C672.36 32.32 669.92 33.12 666.88 33.12C663.92 33.12 661.44 32.12 659.44 30.12C657.52 28.04 656.56 25.2 656.56 21.6C656.56 13.76 661.84 6.56 672.4 0ZM649.84 0L650.92 1.68C643.48 6.56 639.76 11.44 639.76 16.32C639.76 18.8 640.84 20.24 643 20.64L648.04 15.96C649.64 16.52 651.08 17.56 652.36 19.08C653.72 20.52 654.4 22.4 654.4 24.72C654.4 27.04 653.48 29.04 651.64 30.72C649.8 32.32 647.36 33.12 644.32 33.12C641.36 33.12 638.88 32.12 636.88 30.12C634.96 28.04 634 25.2 634 21.6C634 13.76 639.28 6.56 649.84 0Z" fill="#8D9399"/>
  <line x1="1" y1="16" x2="601" y2="15.9999" stroke="#8D9399" stroke-width="2" stroke-linecap="round"/>
  <line x1="709" y1="16" x2="1310" y2="16.0001" stroke="#8D9399" stroke-width="2" stroke-linecap="round"/>
</svg>
