<svg width="64" height="64" viewBox="0 0 64 64" fill="none"
  xmlns="http://www.w3.org/2000/svg">
  <path d="M29.0001 32C29.0001 32.7956 29.3162 33.5587 29.8788 34.1213C30.4414 34.6839 31.2045 35 32.0001 35C32.7958 35 33.5588 34.6839 34.1214 34.1213C34.684 33.5587 35.0001 32.7956 35.0001 32C35.0001 31.2044 34.684 30.4413 34.1214 29.8787C33.5588 29.3161 32.7958 29 32.0001 29C31.2045 29 30.4414 29.3161 29.8788 29.8787C29.3162 30.4413 29.0001 31.2044 29.0001 32ZM41.5001 32C41.5001 32.7956 41.8162 33.5587 42.3788 34.1213C42.9414 34.6839 43.7045 35 44.5001 35C45.2958 35 46.0588 34.6839 46.6214 34.1213C47.184 33.5587 47.5001 32.7956 47.5001 32C47.5001 31.2044 47.184 30.4413 46.6214 29.8787C46.0588 29.3161 45.2958 29 44.5001 29C43.7045 29 42.9414 29.3161 42.3788 29.8787C41.8162 30.4413 41.5001 31.2044 41.5001 32ZM16.5001 32C16.5001 32.7956 16.8162 33.5587 17.3788 34.1213C17.9414 34.6839 18.7045 35 19.5001 35C20.2958 35 21.0588 34.6839 21.6214 34.1213C22.184 33.5587 22.5001 32.7956 22.5001 32C22.5001 31.2044 22.184 30.4413 21.6214 29.8787C21.0588 29.3161 20.2958 29 19.5001 29C18.7045 29 17.9414 29.3161 17.3788 29.8787C16.8162 30.4413 16.5001 31.2044 16.5001 32ZM57.8251 21.15C56.4126 17.7937 54.3876 14.7812 51.8064 12.1938C49.2432 9.62123 46.2003 7.57639 42.8501 6.175C39.4126 4.73125 35.7626 4 32.0001 4H31.8751C28.0876 4.01875 24.4189 4.76875 20.9689 6.24375C17.6473 7.65951 14.633 9.70798 12.0939 12.275C9.53761 14.8562 7.53136 17.8563 6.14386 21.2C4.70636 24.6625 3.98136 28.3437 4.00011 32.1312C4.02132 36.4717 5.04818 40.7482 7.00011 44.625V54.125C7.00011 54.8875 7.30301 55.6188 7.84218 56.1579C8.38135 56.6971 9.11261 57 9.87511 57H19.3814C23.2582 58.9519 27.5347 59.9788 31.8751 60H32.0064C35.7501 60 39.3814 59.275 42.8001 57.8563C46.1334 56.4716 49.1649 54.4506 51.7251 51.9062C54.3064 49.35 56.3376 46.3625 57.7564 43.0312C59.2314 39.5812 59.9814 35.9125 60.0001 32.125C60.0189 28.3188 59.2814 24.625 57.8251 21.15ZM48.3814 48.525C44.0001 52.8625 38.1876 55.25 32.0001 55.25H31.8939C28.1251 55.2313 24.3814 54.2938 21.0751 52.5312L20.5501 52.25H11.7501V43.45L11.4689 42.925C9.70636 39.6187 8.76886 35.875 8.75011 32.1063C8.72511 25.875 11.1064 20.025 15.4751 15.6187C19.8376 11.2125 25.6689 8.775 31.9001 8.75H32.0064C35.1314 8.75 38.1626 9.35625 41.0189 10.5562C43.8064 11.725 46.3064 13.4062 48.4564 15.5562C50.6001 17.7 52.2876 20.2062 53.4564 22.9937C54.6689 25.8813 55.2751 28.9438 55.2626 32.1063C55.2251 38.3312 52.7814 44.1625 48.3814 48.525Z" fill="#222222"/>
</svg>
