<svg width="64" height="64" viewBox="0 0 64 64" fill="none"
  xmlns="http://www.w3.org/2000/svg">
  <mask id="mask0_1453_4640" style="mask-type:alpha" maskUnits="userSpaceOnUse" x="4" y="2" width="56" height="58">
    <path d="M18.0002 52.4929C21.9894 55.6354 26.9219 57.3406 32.0002 57.3329C37.2842 57.3329 42.1468 55.5249 46.0002 52.4929M25.3335 12.9956C16.0682 15.8423 9.3335 24.4676 9.3335 34.6663C9.3335 37.2329 9.76016 39.6996 10.5468 41.9996M38.6668 12.9956C47.9322 15.8423 54.6668 24.4676 54.6668 34.6663C54.6668 37.2329 54.2402 39.6996 53.4535 41.9996" stroke="white" stroke-width="5.33333"/>
    <path d="M57.3334 47.9998C57.3334 49.7892 56.6294 51.4132 55.4827 52.6105C54.4119 53.7292 52.9851 54.4402 51.4471 54.6215C49.9092 54.8028 48.3561 54.443 47.0545 53.6039C45.753 52.7648 44.7841 51.4988 44.3143 50.0232C43.8445 48.5476 43.903 46.9545 44.4799 45.5173C45.0567 44.0802 46.1159 42.8887 47.4755 42.1474C48.8352 41.4061 50.4105 41.1613 51.931 41.455C53.4515 41.7486 54.8223 42.5625 55.8081 43.7567C56.7939 44.951 57.3332 46.4512 57.3334 47.9998ZM20.0001 47.9998C20.0001 49.7892 19.2961 51.4132 18.1494 52.6105C17.0786 53.7292 15.6517 54.4402 14.1138 54.6215C12.5758 54.8028 11.0228 54.443 9.7212 53.6039C8.41963 52.7648 7.45077 51.4988 6.98095 50.0232C6.51114 48.5476 6.56969 46.9545 7.14654 45.5173C7.72339 44.0802 8.78256 42.8887 10.1422 42.1474C11.5019 41.4061 13.0771 41.1613 14.5976 41.455C16.1181 41.7486 17.489 42.5625 18.4748 43.7567C19.4606 44.951 19.9999 46.4512 20.0001 47.9998ZM38.6667 11.9998C38.6667 13.7892 37.9627 15.4132 36.8161 16.6105C35.7453 17.7292 34.3184 18.4402 32.7805 18.6215C31.2425 18.8028 29.6894 18.443 28.3879 17.6039C27.0863 16.7648 26.1174 15.4988 25.6476 14.0232C25.1778 12.5476 25.2364 10.9545 25.8132 9.51732C26.3901 8.08018 27.4492 6.88869 28.8089 6.14741C30.1685 5.40612 31.7438 5.1613 33.2643 5.45496C34.7848 5.74863 36.1556 6.56246 37.1414 7.75674C38.1273 8.95102 38.6666 10.4512 38.6667 11.9998Z" fill="white" stroke="white" stroke-width="5.33333" stroke-linecap="round" stroke-linejoin="round"/>
  </mask>
  <g mask="url(#mask0_1453_4640)">
    <path d="M0 0H64V64H0V0Z" fill="#222222"/>
  </g>
</svg>
