<svg width="74" height="100" viewBox="0 0 74 100" fill="none" xmlns="http://www.w3.org/2000/svg">
<path fill-rule="evenodd" clip-rule="evenodd" d="M71.0077 39.6702C71.1375 30.1378 67.9515 19.1848 60.0089 6.82467L62.5191 5.19434C70.6982 17.9225 74.1357 29.4491 73.9959 39.7113C73.856 49.9862 70.1311 58.8573 64.2256 66.2569C52.7544 80.6304 33.0412 89.4922 15.0051 92.7342L15.6225 100.001L0 92.6376L14.154 82.7174L14.7496 89.7276C32.2755 86.525 51.0827 77.9241 61.8946 64.3767C67.4401 57.4283 70.878 49.1898 71.0077 39.6702Z" fill="#FF9F40"/>
<path d="M67.2406 6.00888C67.2406 9.3275 64.5646 12.0178 61.2636 12.0178C57.9626 12.0178 55.2866 9.3275 55.2866 6.00888C55.2866 2.69027 57.9626 0 61.2636 0C64.5646 0 67.2406 2.69027 67.2406 6.00888Z" fill="white"/>
<path fill-rule="evenodd" clip-rule="evenodd" d="M61.2636 9.01333C62.9141 9.01333 64.2521 7.66819 64.2521 6.00888C64.2521 4.34958 62.9141 3.00444 61.2636 3.00444C59.6131 3.00444 58.2751 4.34958 58.2751 6.00888C58.2751 7.66819 59.6131 9.01333 61.2636 9.01333ZM61.2636 12.0178C64.5646 12.0178 67.2406 9.3275 67.2406 6.00888C67.2406 2.69027 64.5646 0 61.2636 0C57.9626 0 55.2866 2.69027 55.2866 6.00888C55.2866 9.3275 57.9626 12.0178 61.2636 12.0178Z" fill="#FF9F40"/>
</svg>
