<svg width="121" height="84" viewBox="0 0 121 84" fill="none" xmlns="http://www.w3.org/2000/svg">
<path fill-rule="evenodd" clip-rule="evenodd" d="M82.3043 15.7329C89.0026 9.47829 98.8036 5.52539 115.025 5.52539V8.53945C99.307 8.53945 90.3208 12.3544 84.3337 17.9449C78.7797 23.131 75.6559 29.9504 72.2467 37.3931C71.9254 38.0946 71.6015 38.8016 71.2728 39.5133C67.4967 47.6903 63.1382 56.3186 54.6122 63.248C46.2773 70.0219 34.1175 75.0534 14.9803 76.7431L15.2425 83.9996L0 75.8535L14.6142 66.6095L14.8714 73.7271C33.5152 72.0602 45.0128 67.1792 52.7379 60.9008C60.6886 54.4391 64.8094 46.3722 68.5647 38.2405C68.8993 37.5159 69.2314 36.7894 69.5637 36.0626C72.9214 28.7184 76.2914 21.3474 82.3043 15.7329Z" fill="#FF9F40"/>
<path d="M121 6.02812C121 9.35736 118.325 12.0562 115.025 12.0562C111.725 12.0562 109.049 9.35736 109.049 6.02812C109.049 2.69888 111.725 0 115.025 0C118.325 0 121 2.69888 121 6.02812Z" fill="white"/>
<path fill-rule="evenodd" clip-rule="evenodd" d="M115.025 9.04218C116.675 9.04218 118.012 7.69274 118.012 6.02812C118.012 4.3635 116.675 3.01406 115.025 3.01406C113.375 3.01406 112.037 4.3635 112.037 6.02812C112.037 7.69274 113.375 9.04218 115.025 9.04218ZM115.025 12.0562C118.325 12.0562 121 9.35736 121 6.02812C121 2.69888 118.325 0 115.025 0C111.725 0 109.049 2.69888 109.049 6.02812C109.049 9.35736 111.725 12.0562 115.025 12.0562Z" fill="#FF9F40"/>
</svg>
