<svg width="192" height="58" viewBox="0 0 192 58" fill="none" xmlns="http://www.w3.org/2000/svg">
<path fill-rule="evenodd" clip-rule="evenodd" d="M15.1569 0L0 8.32567L14.838 17.2L14.9692 10.1248C36.6946 11.0865 49.4119 14.2073 58.3347 18.2869C65.2536 21.4502 69.9069 25.1774 74.8432 29.1313C76.4541 30.4215 78.0951 31.7359 79.8548 33.0627C94.2225 43.8959 114.846 54.0145 185.5 54.0145V51.0348C115.114 51.0348 95.2734 40.9473 81.6688 30.6895C80.0371 29.4592 78.4716 28.2046 76.9035 26.9478C71.9039 22.941 66.8771 18.9123 59.5892 15.5802C50.176 11.2764 37.015 8.11193 15.0244 7.14463L15.1569 0Z" fill="#FF9F40"/>
<path d="M180 52.0403C180 55.3315 182.686 57.9996 186 57.9996C189.314 57.9996 192 55.3315 192 52.0403C192 48.7491 189.314 46.0811 186 46.0811C182.686 46.0811 180 48.7491 180 52.0403Z" fill="white"/>
<path fill-rule="evenodd" clip-rule="evenodd" d="M186 55.02C184.343 55.02 183 53.6859 183 52.0403C183 50.3947 184.343 49.0607 186 49.0607C187.657 49.0607 189 50.3947 189 52.0403C189 53.6859 187.657 55.02 186 55.02ZM186 57.9996C182.686 57.9996 180 55.3315 180 52.0403C180 48.7491 182.686 46.0811 186 46.0811C189.314 46.0811 192 48.7491 192 52.0403C192 55.3315 189.314 57.9996 186 57.9996Z" fill="#FF9F40"/>
</svg>
