<svg width="584" height="135" viewBox="0 0 584 135" fill="none" xmlns="http://www.w3.org/2000/svg">
<g filter="url(#filter0_d)">
<rect x="20" y="41" width="100" height="60" rx="8" fill="#B6E3F2"/>
</g>
<path d="M24.544 123.84H27.136L27.696 120.912H29.04L28.48 123.84H29.888V125.024H28.24L27.696 127.888H29.888V129.072H27.472L26.912 132H25.568L26.128 129.072H23.536L22.976 132H21.632L22.192 129.072H20.784V127.888H22.416L22.96 125.024H20.784V123.84H23.2L23.76 120.912H25.104L24.544 123.84ZM23.76 127.888H26.352L26.912 125.024H24.32L23.76 127.888ZM35.0399 132.096C34.8159 132.096 34.5705 132.091 34.3039 132.08C34.0479 132.069 33.7865 132.053 33.5199 132.032C33.2639 132.011 33.0079 131.984 32.7519 131.952C32.4959 131.92 32.2612 131.877 32.0479 131.824V121.072C32.2612 121.019 32.4959 120.976 32.7519 120.944C33.0079 120.912 33.2639 120.885 33.5199 120.864C33.7865 120.843 34.0479 120.827 34.3039 120.816C34.5599 120.805 34.7999 120.8 35.0239 120.8C35.6639 120.8 36.2612 120.848 36.8159 120.944C37.3812 121.04 37.8665 121.205 38.2719 121.44C38.6879 121.664 39.0132 121.963 39.2479 122.336C39.4825 122.709 39.5999 123.168 39.5999 123.712C39.5999 124.32 39.4559 124.821 39.1679 125.216C38.8799 125.6 38.4959 125.888 38.0159 126.08C38.6665 126.272 39.1839 126.576 39.5679 126.992C39.9519 127.408 40.1439 127.995 40.1439 128.752C40.1439 129.861 39.7332 130.699 38.9119 131.264C38.1012 131.819 36.8105 132.096 35.0399 132.096ZM33.5839 126.832V130.736C33.7012 130.747 33.8399 130.757 33.9999 130.768C34.1385 130.779 34.2985 130.789 34.4799 130.8C34.6719 130.8 34.8905 130.8 35.1359 130.8C35.5945 130.8 36.0265 130.773 36.4319 130.72C36.8479 130.656 37.2105 130.549 37.5199 130.4C37.8292 130.251 38.0745 130.043 38.2559 129.776C38.4479 129.509 38.5439 129.173 38.5439 128.768C38.5439 128.405 38.4745 128.101 38.3359 127.856C38.1972 127.6 37.9945 127.397 37.7279 127.248C37.4719 127.099 37.1625 126.992 36.7999 126.928C36.4372 126.864 36.0319 126.832 35.5839 126.832H33.5839ZM33.5839 125.584H35.2159C35.5999 125.584 35.9625 125.557 36.3039 125.504C36.6452 125.451 36.9385 125.355 37.1839 125.216C37.4399 125.077 37.6372 124.896 37.7759 124.672C37.9252 124.448 37.9999 124.165 37.9999 123.824C37.9999 123.504 37.9252 123.237 37.7759 123.024C37.6265 122.8 37.4185 122.624 37.1519 122.496C36.8959 122.357 36.5919 122.256 36.2399 122.192C35.8879 122.128 35.5145 122.096 35.1199 122.096C34.7252 122.096 34.4159 122.101 34.1919 122.112C33.9679 122.123 33.7652 122.139 33.5839 122.16V125.584ZM41.9611 127.552C41.9611 126.475 42.1105 125.525 42.4091 124.704C42.7078 123.872 43.1291 123.173 43.6731 122.608C44.2278 122.043 44.8945 121.616 45.6731 121.328C46.4625 121.029 47.3478 120.875 48.3291 120.864L48.4411 122.112C47.8118 122.123 47.2358 122.192 46.7131 122.32C46.2011 122.448 45.7425 122.651 45.3371 122.928C44.9318 123.205 44.5905 123.568 44.3131 124.016C44.0358 124.453 43.8278 124.997 43.6891 125.648C43.9665 125.52 44.2758 125.413 44.6171 125.328C44.9691 125.243 45.3318 125.2 45.7051 125.2C46.3345 125.2 46.8678 125.296 47.3051 125.488C47.7425 125.68 48.0998 125.936 48.3771 126.256C48.6545 126.565 48.8518 126.928 48.9691 127.344C49.0971 127.749 49.1611 128.176 49.1611 128.624C49.1611 129.029 49.0918 129.445 48.9531 129.872C48.8145 130.299 48.6011 130.688 48.3131 131.04C48.0358 131.392 47.6785 131.68 47.2411 131.904C46.8038 132.128 46.2865 132.24 45.6891 132.24C44.4731 132.24 43.5451 131.824 42.9051 130.992C42.2758 130.16 41.9611 129.013 41.9611 127.552ZM45.5451 126.416C45.1718 126.416 44.8251 126.453 44.5051 126.528C44.1851 126.592 43.8651 126.693 43.5451 126.832C43.5345 126.949 43.5238 127.072 43.5131 127.2C43.5131 127.317 43.5131 127.435 43.5131 127.552C43.5131 128.021 43.5451 128.464 43.6091 128.88C43.6731 129.296 43.7851 129.664 43.9451 129.984C44.1158 130.293 44.3398 130.544 44.6171 130.736C44.8945 130.917 45.2465 131.008 45.6731 131.008C46.0251 131.008 46.3238 130.933 46.5691 130.784C46.8145 130.635 47.0171 130.443 47.1771 130.208C47.3371 129.973 47.4491 129.723 47.5131 129.456C47.5878 129.179 47.6251 128.912 47.6251 128.656C47.6251 127.931 47.4491 127.376 47.0971 126.992C46.7558 126.608 46.2385 126.416 45.5451 126.416ZM51.3604 132V120.912H58.1284V122.24H52.9124V125.536H57.5524V126.832H52.9124V130.672H58.5284V132H51.3604ZM62.741 130.912C63.6903 130.912 64.3677 130.725 64.773 130.352C65.189 129.979 65.397 129.477 65.397 128.848C65.397 128.443 65.3117 128.101 65.141 127.824C64.9703 127.547 64.7463 127.328 64.469 127.168C64.1917 126.997 63.8663 126.88 63.493 126.816C63.1303 126.741 62.757 126.704 62.373 126.704H61.989V125.488H62.517C62.7837 125.488 63.0557 125.461 63.333 125.408C63.621 125.355 63.8823 125.259 64.117 125.12C64.3517 124.981 64.5437 124.795 64.693 124.56C64.8423 124.315 64.917 124.011 64.917 123.648C64.917 123.349 64.8637 123.093 64.757 122.88C64.6503 122.667 64.5063 122.491 64.325 122.352C64.1543 122.213 63.9517 122.117 63.717 122.064C63.493 122 63.253 121.968 62.997 121.968C62.485 121.968 62.0477 122.043 61.685 122.192C61.333 122.341 61.0343 122.496 60.789 122.656L60.213 121.52C60.341 121.435 60.501 121.344 60.693 121.248C60.8957 121.141 61.1197 121.045 61.365 120.96C61.6103 120.875 61.8717 120.805 62.149 120.752C62.437 120.688 62.7357 120.656 63.045 120.656C63.6317 120.656 64.1383 120.731 64.565 120.88C64.9917 121.019 65.3437 121.221 65.621 121.488C65.8983 121.744 66.1063 122.053 66.245 122.416C66.3837 122.768 66.453 123.152 66.453 123.568C66.453 124.144 66.2877 124.64 65.957 125.056C65.6263 125.461 65.2263 125.771 64.757 125.984C65.045 126.069 65.3223 126.192 65.589 126.352C65.8557 126.512 66.085 126.715 66.277 126.96C66.4797 127.205 66.6397 127.488 66.757 127.808C66.885 128.128 66.949 128.485 66.949 128.88C66.949 129.36 66.8637 129.808 66.693 130.224C66.533 130.629 66.277 130.981 65.925 131.28C65.5837 131.579 65.1517 131.813 64.629 131.984C64.1063 132.155 63.4877 132.24 62.773 132.24C62.4957 132.24 62.2077 132.219 61.909 132.176C61.621 132.133 61.349 132.08 61.093 132.016C60.837 131.952 60.613 131.888 60.421 131.824C60.229 131.76 60.0903 131.707 60.005 131.664L60.293 130.368C60.4743 130.453 60.773 130.565 61.189 130.704C61.6157 130.843 62.133 130.912 62.741 130.912ZM69.5323 132V120.912H76.2203V122.24H71.0843V125.584H75.6443V126.896H71.0843V132H69.5323ZM84.222 123.744C84.222 124.128 84.142 124.501 83.982 124.864C83.8327 125.216 83.63 125.568 83.374 125.92C83.118 126.261 82.83 126.603 82.51 126.944C82.19 127.275 81.87 127.6 81.55 127.92C81.3687 128.101 81.1553 128.315 80.91 128.56C80.6753 128.805 80.4513 129.061 80.238 129.328C80.0247 129.595 79.8433 129.851 79.694 130.096C79.5553 130.341 79.486 130.555 79.486 130.736H84.59V132H77.87C77.8593 131.936 77.854 131.872 77.854 131.808C77.854 131.744 77.854 131.685 77.854 131.632C77.854 131.131 77.934 130.667 78.094 130.24C78.2647 129.803 78.4833 129.392 78.75 129.008C79.0167 128.624 79.3153 128.261 79.646 127.92C79.9767 127.579 80.302 127.248 80.622 126.928C80.8887 126.672 81.1393 126.421 81.374 126.176C81.6193 125.92 81.8327 125.669 82.014 125.424C82.206 125.168 82.3553 124.907 82.462 124.64C82.5793 124.373 82.638 124.091 82.638 123.792C82.638 123.472 82.5847 123.2 82.478 122.976C82.382 122.752 82.2487 122.565 82.078 122.416C81.9073 122.267 81.7047 122.16 81.47 122.096C81.246 122.021 81.006 121.984 80.75 121.984C80.4407 121.984 80.158 122.027 79.902 122.112C79.646 122.197 79.4167 122.299 79.214 122.416C79.0113 122.523 78.8407 122.64 78.702 122.768C78.5633 122.885 78.4567 122.976 78.382 123.04L77.646 121.984C77.742 121.877 77.886 121.749 78.078 121.6C78.27 121.44 78.4993 121.291 78.766 121.152C79.0327 121.013 79.3313 120.896 79.662 120.8C79.9927 120.704 80.35 120.656 80.734 120.656C81.8967 120.656 82.766 120.928 83.342 121.472C83.9287 122.005 84.222 122.763 84.222 123.744Z" fill="#8D9399"/>
<g filter="url(#filter1_d)">
<rect x="464" y="41" width="100" height="60" rx="8" fill="#F0AFA9"/>
</g>
<path d="M468.544 123.84H471.136L471.696 120.912H473.04L472.48 123.84H473.888V125.024H472.24L471.696 127.888H473.888V129.072H471.472L470.912 132H469.568L470.128 129.072H467.536L466.976 132H465.632L466.192 129.072H464.784V127.888H466.416L466.96 125.024H464.784V123.84H467.2L467.76 120.912H469.104L468.544 123.84ZM467.76 127.888H470.352L470.912 125.024H468.32L467.76 127.888ZM476.048 132V120.912H482.736V122.24H477.6V125.584H482.16V126.896H477.6V132H476.048ZM484.066 126.448C484.066 124.592 484.391 123.163 485.042 122.16C485.703 121.157 486.615 120.656 487.778 120.656C488.94 120.656 489.847 121.157 490.498 122.16C491.159 123.163 491.49 124.592 491.49 126.448C491.49 128.304 491.159 129.733 490.498 130.736C489.847 131.739 488.94 132.24 487.778 132.24C486.615 132.24 485.703 131.739 485.042 130.736C484.391 129.733 484.066 128.304 484.066 126.448ZM489.922 126.448C489.922 125.84 489.884 125.264 489.81 124.72C489.746 124.176 489.628 123.701 489.458 123.296C489.298 122.891 489.079 122.571 488.802 122.336C488.524 122.091 488.183 121.968 487.778 121.968C487.372 121.968 487.031 122.091 486.754 122.336C486.476 122.571 486.252 122.891 486.082 123.296C485.922 123.701 485.804 124.176 485.73 124.72C485.666 125.264 485.634 125.84 485.634 126.448C485.634 127.056 485.666 127.632 485.73 128.176C485.804 128.72 485.922 129.195 486.082 129.6C486.252 130.005 486.476 130.331 486.754 130.576C487.031 130.811 487.372 130.928 487.778 130.928C488.183 130.928 488.524 130.811 488.802 130.576C489.079 130.331 489.298 130.005 489.458 129.6C489.628 129.195 489.746 128.72 489.81 128.176C489.884 127.632 489.922 127.056 489.922 126.448ZM501.081 132C500.9 131.52 500.729 131.051 500.569 130.592C500.409 130.123 500.244 129.648 500.073 129.168H495.049L494.041 132H492.425C492.852 130.827 493.252 129.744 493.625 128.752C493.998 127.749 494.361 126.8 494.713 125.904C495.076 125.008 495.433 124.155 495.785 123.344C496.137 122.523 496.505 121.712 496.889 120.912H498.313C498.697 121.712 499.065 122.523 499.417 123.344C499.769 124.155 500.121 125.008 500.473 125.904C500.836 126.8 501.204 127.749 501.577 128.752C501.95 129.744 502.35 130.827 502.777 132H501.081ZM499.625 127.888C499.284 126.96 498.942 126.064 498.601 125.2C498.27 124.325 497.924 123.488 497.561 122.688C497.188 123.488 496.83 124.325 496.489 125.2C496.158 126.064 495.828 126.96 495.497 127.888H499.625ZM504.282 132V120.912H510.97V122.24H505.834V125.584H510.394V126.896H505.834V132H504.282ZM519.55 132C519.368 131.52 519.198 131.051 519.038 130.592C518.878 130.123 518.712 129.648 518.542 129.168H513.518L512.51 132H510.894C511.32 130.827 511.72 129.744 512.094 128.752C512.467 127.749 512.83 126.8 513.182 125.904C513.544 125.008 513.902 124.155 514.254 123.344C514.606 122.523 514.974 121.712 515.358 120.912H516.782C517.166 121.712 517.534 122.523 517.886 123.344C518.238 124.155 518.59 125.008 518.942 125.904C519.304 126.8 519.672 127.749 520.046 128.752C520.419 129.744 520.819 130.827 521.246 132H519.55ZM518.094 127.888C517.752 126.96 517.411 126.064 517.07 125.2C516.739 124.325 516.392 123.488 516.03 122.688C515.656 123.488 515.299 124.325 514.958 125.2C514.627 126.064 514.296 126.96 513.966 127.888H518.094ZM529.391 125.344C529.391 127.541 528.842 129.205 527.743 130.336C526.655 131.456 525.034 132.021 522.879 132.032L522.831 130.784C523.503 130.784 524.106 130.72 524.639 130.592C525.183 130.464 525.658 130.261 526.063 129.984C526.468 129.696 526.804 129.328 527.071 128.88C527.348 128.432 527.551 127.883 527.679 127.232C527.402 127.36 527.087 127.467 526.735 127.552C526.383 127.627 526.02 127.664 525.647 127.664C525.018 127.664 524.484 127.573 524.047 127.392C523.61 127.2 523.252 126.949 522.975 126.64C522.698 126.32 522.495 125.957 522.367 125.552C522.25 125.136 522.191 124.704 522.191 124.256C522.191 123.861 522.26 123.451 522.399 123.024C522.538 122.597 522.746 122.208 523.023 121.856C523.311 121.504 523.674 121.216 524.111 120.992C524.548 120.768 525.066 120.656 525.663 120.656C526.271 120.656 526.804 120.763 527.263 120.976C527.732 121.189 528.122 121.499 528.431 121.904C528.751 122.309 528.991 122.805 529.151 123.392C529.311 123.968 529.391 124.619 529.391 125.344ZM525.807 126.448C526.18 126.448 526.532 126.416 526.863 126.352C527.194 126.277 527.514 126.171 527.823 126.032C527.834 125.915 527.839 125.803 527.839 125.696C527.839 125.579 527.839 125.461 527.839 125.344C527.839 124.885 527.807 124.448 527.743 124.032C527.679 123.605 527.562 123.237 527.391 122.928C527.231 122.608 527.012 122.357 526.735 122.176C526.458 121.984 526.106 121.888 525.679 121.888C525.327 121.888 525.028 121.963 524.783 122.112C524.538 122.261 524.335 122.453 524.175 122.688C524.015 122.912 523.898 123.163 523.823 123.44C523.759 123.707 523.727 123.968 523.727 124.224C523.727 124.949 523.898 125.504 524.239 125.888C524.591 126.261 525.114 126.448 525.807 126.448Z" fill="#8D9399"/>
<g filter="url(#filter2_d)">
<rect x="168" y="41" width="100" height="60" rx="8" fill="#C5D9C3"/>
</g>
<g filter="url(#filter3_d)">
<rect x="316" y="41" width="100" height="60" rx="8" fill="#F2D1A3"/>
</g>
<path d="M172.544 123.84H175.136L175.696 120.912H177.04L176.48 123.84H177.888V125.024H176.24L175.696 127.888H177.888V129.072H175.472L174.912 132H173.568L174.128 129.072H171.536L170.976 132H169.632L170.192 129.072H168.784V127.888H170.416L170.96 125.024H168.784V123.84H171.2L171.76 120.912H173.104L172.544 123.84ZM171.76 127.888H174.352L174.912 125.024H172.32L171.76 127.888ZM184.816 132.24C184.037 132.24 183.328 132.112 182.688 131.856C182.048 131.6 181.499 131.227 181.04 130.736C180.581 130.245 180.224 129.643 179.968 128.928C179.723 128.203 179.6 127.376 179.6 126.448C179.6 125.52 179.739 124.699 180.016 123.984C180.304 123.259 180.688 122.651 181.168 122.16C181.648 121.669 182.208 121.296 182.848 121.04C183.488 120.784 184.171 120.656 184.896 120.656C185.355 120.656 185.765 120.688 186.128 120.752C186.501 120.816 186.821 120.891 187.088 120.976C187.365 121.061 187.589 121.147 187.76 121.232C187.931 121.317 188.048 121.381 188.112 121.424L187.664 122.704C187.568 122.64 187.429 122.571 187.248 122.496C187.067 122.421 186.859 122.347 186.624 122.272C186.4 122.197 186.149 122.139 185.872 122.096C185.605 122.043 185.333 122.016 185.056 122.016C184.469 122.016 183.941 122.117 183.472 122.32C183.003 122.523 182.603 122.816 182.272 123.2C181.941 123.584 181.685 124.053 181.504 124.608C181.333 125.152 181.248 125.765 181.248 126.448C181.248 127.109 181.323 127.712 181.472 128.256C181.632 128.8 181.867 129.269 182.176 129.664C182.485 130.048 182.869 130.347 183.328 130.56C183.797 130.773 184.341 130.88 184.96 130.88C185.675 130.88 186.267 130.805 186.736 130.656C187.205 130.507 187.557 130.373 187.792 130.256L188.192 131.536C188.117 131.589 187.984 131.659 187.792 131.744C187.6 131.819 187.36 131.893 187.072 131.968C186.784 132.043 186.448 132.107 186.064 132.16C185.68 132.213 185.264 132.24 184.816 132.24ZM191.778 125.184C193.388 125.248 194.567 125.6 195.314 126.24C196.071 126.88 196.45 127.749 196.45 128.848C196.45 129.339 196.364 129.792 196.194 130.208C196.034 130.624 195.783 130.981 195.442 131.28C195.111 131.579 194.69 131.813 194.178 131.984C193.666 132.155 193.058 132.24 192.354 132.24C192.076 132.24 191.794 132.219 191.506 132.176C191.218 132.133 190.951 132.08 190.706 132.016C190.46 131.952 190.242 131.888 190.05 131.824C189.858 131.76 189.719 131.707 189.634 131.664L189.922 130.368C190.103 130.453 190.396 130.565 190.802 130.704C191.218 130.843 191.724 130.912 192.322 130.912C192.802 130.912 193.202 130.859 193.522 130.752C193.852 130.645 194.119 130.501 194.322 130.32C194.524 130.139 194.668 129.931 194.754 129.696C194.85 129.451 194.898 129.195 194.898 128.928C194.898 128.523 194.828 128.165 194.69 127.856C194.551 127.536 194.306 127.269 193.954 127.056C193.602 126.843 193.132 126.683 192.546 126.576C191.959 126.459 191.218 126.4 190.322 126.4C190.386 125.877 190.434 125.387 190.466 124.928C190.508 124.469 190.546 124.021 190.578 123.584C190.61 123.147 190.636 122.715 190.658 122.288C190.679 121.851 190.7 121.392 190.722 120.912H196.066V122.176H192.018C192.007 122.336 191.991 122.555 191.97 122.832C191.948 123.099 191.927 123.381 191.906 123.68C191.884 123.968 191.863 124.251 191.842 124.528C191.82 124.805 191.799 125.024 191.778 125.184ZM208.105 126.448C208.105 127.408 207.956 128.245 207.657 128.96C207.358 129.664 206.937 130.251 206.393 130.72C205.849 131.179 205.198 131.525 204.441 131.76C203.684 131.984 202.852 132.096 201.945 132.096C201.497 132.096 201.001 132.075 200.457 132.032C199.924 132 199.438 131.931 199.001 131.824V121.072C199.438 120.965 199.924 120.896 200.457 120.864C201.001 120.821 201.497 120.8 201.945 120.8C202.852 120.8 203.684 120.917 204.441 121.152C205.198 121.376 205.849 121.723 206.393 122.192C206.937 122.651 207.358 123.237 207.657 123.952C207.956 124.656 208.105 125.488 208.105 126.448ZM202.073 130.736C203.545 130.736 204.644 130.363 205.369 129.616C206.094 128.859 206.457 127.803 206.457 126.448C206.457 125.093 206.094 124.043 205.369 123.296C204.644 122.539 203.545 122.16 202.073 122.16C201.636 122.16 201.294 122.165 201.049 122.176C200.814 122.187 200.649 122.197 200.553 122.208V130.688C200.649 130.699 200.814 130.709 201.049 130.72C201.294 130.731 201.636 130.736 202.073 130.736ZM217.047 125.344C217.047 127.541 216.498 129.205 215.399 130.336C214.311 131.456 212.69 132.021 210.535 132.032L210.487 130.784C211.159 130.784 211.762 130.72 212.295 130.592C212.839 130.464 213.314 130.261 213.719 129.984C214.125 129.696 214.461 129.328 214.727 128.88C215.005 128.432 215.207 127.883 215.335 127.232C215.058 127.36 214.743 127.467 214.391 127.552C214.039 127.627 213.677 127.664 213.303 127.664C212.674 127.664 212.141 127.573 211.703 127.392C211.266 127.2 210.909 126.949 210.631 126.64C210.354 126.32 210.151 125.957 210.023 125.552C209.906 125.136 209.847 124.704 209.847 124.256C209.847 123.861 209.917 123.451 210.055 123.024C210.194 122.597 210.402 122.208 210.679 121.856C210.967 121.504 211.33 121.216 211.767 120.992C212.205 120.768 212.722 120.656 213.319 120.656C213.927 120.656 214.461 120.763 214.919 120.976C215.389 121.189 215.778 121.499 216.087 121.904C216.407 122.309 216.647 122.805 216.807 123.392C216.967 123.968 217.047 124.619 217.047 125.344ZM213.463 126.448C213.837 126.448 214.189 126.416 214.519 126.352C214.85 126.277 215.17 126.171 215.479 126.032C215.49 125.915 215.495 125.803 215.495 125.696C215.495 125.579 215.495 125.461 215.495 125.344C215.495 124.885 215.463 124.448 215.399 124.032C215.335 123.605 215.218 123.237 215.047 122.928C214.887 122.608 214.669 122.357 214.391 122.176C214.114 121.984 213.762 121.888 213.335 121.888C212.983 121.888 212.685 121.963 212.439 122.112C212.194 122.261 211.991 122.453 211.831 122.688C211.671 122.912 211.554 123.163 211.479 123.44C211.415 123.707 211.383 123.968 211.383 124.224C211.383 124.949 211.554 125.504 211.895 125.888C212.247 126.261 212.77 126.448 213.463 126.448ZM224.207 132.24C223.428 132.24 222.719 132.112 222.079 131.856C221.439 131.6 220.889 131.227 220.431 130.736C219.972 130.245 219.615 129.643 219.359 128.928C219.113 128.203 218.991 127.376 218.991 126.448C218.991 125.52 219.129 124.699 219.407 123.984C219.695 123.259 220.079 122.651 220.559 122.16C221.039 121.669 221.599 121.296 222.239 121.04C222.879 120.784 223.561 120.656 224.287 120.656C224.745 120.656 225.156 120.688 225.519 120.752C225.892 120.816 226.212 120.891 226.479 120.976C226.756 121.061 226.98 121.147 227.151 121.232C227.321 121.317 227.439 121.381 227.503 121.424L227.055 122.704C226.959 122.64 226.82 122.571 226.639 122.496C226.457 122.421 226.249 122.347 226.015 122.272C225.791 122.197 225.54 122.139 225.263 122.096C224.996 122.043 224.724 122.016 224.447 122.016C223.86 122.016 223.332 122.117 222.863 122.32C222.393 122.523 221.993 122.816 221.663 123.2C221.332 123.584 221.076 124.053 220.895 124.608C220.724 125.152 220.639 125.765 220.639 126.448C220.639 127.109 220.713 127.712 220.863 128.256C221.023 128.8 221.257 129.269 221.567 129.664C221.876 130.048 222.26 130.347 222.719 130.56C223.188 130.773 223.732 130.88 224.351 130.88C225.065 130.88 225.657 130.805 226.127 130.656C226.596 130.507 226.948 130.373 227.183 130.256L227.583 131.536C227.508 131.589 227.375 131.659 227.183 131.744C226.991 131.819 226.751 131.893 226.463 131.968C226.175 132.043 225.839 132.107 225.455 132.16C225.071 132.213 224.655 132.24 224.207 132.24ZM231.6 130.912C232.55 130.912 233.227 130.725 233.632 130.352C234.048 129.979 234.256 129.477 234.256 128.848C234.256 128.443 234.171 128.101 234 127.824C233.83 127.547 233.606 127.328 233.328 127.168C233.051 126.997 232.726 126.88 232.352 126.816C231.99 126.741 231.616 126.704 231.232 126.704H230.848V125.488H231.376C231.643 125.488 231.915 125.461 232.192 125.408C232.48 125.355 232.742 125.259 232.976 125.12C233.211 124.981 233.403 124.795 233.552 124.56C233.702 124.315 233.776 124.011 233.776 123.648C233.776 123.349 233.723 123.093 233.616 122.88C233.51 122.667 233.366 122.491 233.184 122.352C233.014 122.213 232.811 122.117 232.576 122.064C232.352 122 232.112 121.968 231.856 121.968C231.344 121.968 230.907 122.043 230.544 122.192C230.192 122.341 229.894 122.496 229.648 122.656L229.072 121.52C229.2 121.435 229.36 121.344 229.552 121.248C229.755 121.141 229.979 121.045 230.224 120.96C230.47 120.875 230.731 120.805 231.008 120.752C231.296 120.688 231.595 120.656 231.904 120.656C232.491 120.656 232.998 120.731 233.424 120.88C233.851 121.019 234.203 121.221 234.48 121.488C234.758 121.744 234.966 122.053 235.104 122.416C235.243 122.768 235.312 123.152 235.312 123.568C235.312 124.144 235.147 124.64 234.816 125.056C234.486 125.461 234.086 125.771 233.616 125.984C233.904 126.069 234.182 126.192 234.448 126.352C234.715 126.512 234.944 126.715 235.136 126.96C235.339 127.205 235.499 127.488 235.616 127.808C235.744 128.128 235.808 128.485 235.808 128.88C235.808 129.36 235.723 129.808 235.552 130.224C235.392 130.629 235.136 130.981 234.784 131.28C234.443 131.579 234.011 131.813 233.488 131.984C232.966 132.155 232.347 132.24 231.632 132.24C231.355 132.24 231.067 132.219 230.768 132.176C230.48 132.133 230.208 132.08 229.952 132.016C229.696 131.952 229.472 131.888 229.28 131.824C229.088 131.76 228.95 131.707 228.864 131.664L229.152 130.368C229.334 130.453 229.632 130.565 230.048 130.704C230.475 130.843 230.992 130.912 231.6 130.912Z" fill="#8D9399"/>
<path d="M320.544 123.84H323.136L323.696 120.912H325.04L324.48 123.84H325.888V125.024H324.24L323.696 127.888H325.888V129.072H323.472L322.912 132H321.568L322.128 129.072H319.536L318.976 132H317.632L318.192 129.072H316.784V127.888H318.416L318.96 125.024H316.784V123.84H319.2L319.76 120.912H321.104L320.544 123.84ZM319.76 127.888H322.352L322.912 125.024H320.32L319.76 127.888ZM328.048 132V120.912H334.736V122.24H329.6V125.584H334.16V126.896H329.6V132H328.048ZM342.738 123.744C342.738 124.128 342.658 124.501 342.498 124.864C342.348 125.216 342.146 125.568 341.89 125.92C341.634 126.261 341.346 126.603 341.026 126.944C340.706 127.275 340.386 127.6 340.066 127.92C339.884 128.101 339.671 128.315 339.426 128.56C339.191 128.805 338.967 129.061 338.754 129.328C338.54 129.595 338.359 129.851 338.21 130.096C338.071 130.341 338.002 130.555 338.002 130.736H343.106V132H336.386C336.375 131.936 336.37 131.872 336.37 131.808C336.37 131.744 336.37 131.685 336.37 131.632C336.37 131.131 336.45 130.667 336.61 130.24C336.78 129.803 336.999 129.392 337.266 129.008C337.532 128.624 337.831 128.261 338.162 127.92C338.492 127.579 338.818 127.248 339.138 126.928C339.404 126.672 339.655 126.421 339.89 126.176C340.135 125.92 340.348 125.669 340.53 125.424C340.722 125.168 340.871 124.907 340.978 124.64C341.095 124.373 341.154 124.091 341.154 123.792C341.154 123.472 341.1 123.2 340.994 122.976C340.898 122.752 340.764 122.565 340.594 122.416C340.423 122.267 340.22 122.16 339.986 122.096C339.762 122.021 339.522 121.984 339.266 121.984C338.956 121.984 338.674 122.027 338.418 122.112C338.162 122.197 337.932 122.299 337.73 122.416C337.527 122.523 337.356 122.64 337.218 122.768C337.079 122.885 336.972 122.976 336.898 123.04L336.162 121.984C336.258 121.877 336.402 121.749 336.594 121.6C336.786 121.44 337.015 121.291 337.282 121.152C337.548 121.013 337.847 120.896 338.178 120.8C338.508 120.704 338.866 120.656 339.25 120.656C340.412 120.656 341.282 120.928 341.858 121.472C342.444 122.005 342.738 122.763 342.738 123.744ZM354.777 126.448C354.777 127.408 354.628 128.245 354.329 128.96C354.03 129.664 353.609 130.251 353.065 130.72C352.521 131.179 351.87 131.525 351.113 131.76C350.356 131.984 349.524 132.096 348.617 132.096C348.169 132.096 347.673 132.075 347.129 132.032C346.596 132 346.11 131.931 345.673 131.824V121.072C346.11 120.965 346.596 120.896 347.129 120.864C347.673 120.821 348.169 120.8 348.617 120.8C349.524 120.8 350.356 120.917 351.113 121.152C351.87 121.376 352.521 121.723 353.065 122.192C353.609 122.651 354.03 123.237 354.329 123.952C354.628 124.656 354.777 125.488 354.777 126.448ZM348.745 130.736C350.217 130.736 351.316 130.363 352.041 129.616C352.766 128.859 353.129 127.803 353.129 126.448C353.129 125.093 352.766 124.043 352.041 123.296C351.316 122.539 350.217 122.16 348.745 122.16C348.308 122.16 347.966 122.165 347.721 122.176C347.486 122.187 347.321 122.197 347.225 122.208V130.688C347.321 130.699 347.486 130.709 347.721 130.72C347.966 130.731 348.308 130.736 348.745 130.736ZM357.191 123.2C357.799 122.965 358.391 122.667 358.967 122.304C359.543 121.931 360.071 121.467 360.551 120.912H361.607V132H360.119V122.976C359.991 123.093 359.831 123.216 359.639 123.344C359.458 123.472 359.255 123.595 359.031 123.712C358.818 123.829 358.588 123.941 358.343 124.048C358.108 124.155 357.879 124.245 357.655 124.32L357.191 123.2ZM373.518 132C373.337 131.52 373.166 131.051 373.006 130.592C372.846 130.123 372.681 129.648 372.51 129.168H367.486L366.478 132H364.862C365.289 130.827 365.689 129.744 366.062 128.752C366.436 127.749 366.798 126.8 367.15 125.904C367.513 125.008 367.87 124.155 368.222 123.344C368.574 122.523 368.942 121.712 369.326 120.912H370.75C371.134 121.712 371.502 122.523 371.854 123.344C372.206 124.155 372.558 125.008 372.91 125.904C373.273 126.8 373.641 127.749 374.014 128.752C374.388 129.744 374.788 130.827 375.214 132H373.518ZM372.062 127.888C371.721 126.96 371.38 126.064 371.038 125.2C370.708 124.325 370.361 123.488 369.998 122.688C369.625 123.488 369.268 124.325 368.926 125.2C368.596 126.064 368.265 126.96 367.934 127.888H372.062ZM378.96 130.912C379.909 130.912 380.586 130.725 380.992 130.352C381.408 129.979 381.616 129.477 381.616 128.848C381.616 128.443 381.53 128.101 381.36 127.824C381.189 127.547 380.965 127.328 380.688 127.168C380.41 126.997 380.085 126.88 379.712 126.816C379.349 126.741 378.976 126.704 378.592 126.704H378.208V125.488H378.736C379.002 125.488 379.274 125.461 379.552 125.408C379.84 125.355 380.101 125.259 380.336 125.12C380.57 124.981 380.762 124.795 380.912 124.56C381.061 124.315 381.136 124.011 381.136 123.648C381.136 123.349 381.082 123.093 380.976 122.88C380.869 122.667 380.725 122.491 380.544 122.352C380.373 122.213 380.17 122.117 379.936 122.064C379.712 122 379.472 121.968 379.216 121.968C378.704 121.968 378.266 122.043 377.904 122.192C377.552 122.341 377.253 122.496 377.008 122.656L376.432 121.52C376.56 121.435 376.72 121.344 376.912 121.248C377.114 121.141 377.338 121.045 377.584 120.96C377.829 120.875 378.09 120.805 378.368 120.752C378.656 120.688 378.954 120.656 379.264 120.656C379.85 120.656 380.357 120.731 380.784 120.88C381.21 121.019 381.562 121.221 381.84 121.488C382.117 121.744 382.325 122.053 382.464 122.416C382.602 122.768 382.672 123.152 382.672 123.568C382.672 124.144 382.506 124.64 382.176 125.056C381.845 125.461 381.445 125.771 380.976 125.984C381.264 126.069 381.541 126.192 381.808 126.352C382.074 126.512 382.304 126.715 382.496 126.96C382.698 127.205 382.858 127.488 382.976 127.808C383.104 128.128 383.168 128.485 383.168 128.88C383.168 129.36 383.082 129.808 382.912 130.224C382.752 130.629 382.496 130.981 382.144 131.28C381.802 131.579 381.37 131.813 380.848 131.984C380.325 132.155 379.706 132.24 378.992 132.24C378.714 132.24 378.426 132.219 378.128 132.176C377.84 132.133 377.568 132.08 377.312 132.016C377.056 131.952 376.832 131.888 376.64 131.824C376.448 131.76 376.309 131.707 376.224 131.664L376.512 130.368C376.693 130.453 376.992 130.565 377.408 130.704C377.834 130.843 378.352 130.912 378.96 130.912Z" fill="#8D9399"/>
<path d="M21.66 20V6.14H30.56V8.28H24.18V11.7H29.86V13.8H24.18V17.86H31.04V20H21.66ZM37.175 12.96L39.395 9.54H41.935L38.495 14.48C39.215 15.4133 39.9017 16.36 40.555 17.32C41.2217 18.2667 41.7683 19.16 42.195 20H39.575C39.455 19.7467 39.295 19.46 39.095 19.14C38.9083 18.8067 38.7017 18.4667 38.475 18.12C38.2617 17.76 38.035 17.4067 37.795 17.06C37.555 16.7133 37.3217 16.3867 37.095 16.08C36.6283 16.68 36.1683 17.3467 35.715 18.08C35.275 18.8 34.9083 19.44 34.615 20H32.135C32.335 19.6 32.575 19.1733 32.855 18.72C33.135 18.2667 33.435 17.8067 33.755 17.34C34.075 16.86 34.4017 16.3867 34.735 15.92C35.0817 15.44 35.4217 14.9867 35.755 14.56L32.295 9.54H34.955L37.175 12.96ZM43.8809 6.78L46.3009 6.38V9.54H50.0209V11.56H46.3009V15.82C46.3009 16.66 46.4343 17.26 46.7009 17.62C46.9676 17.98 47.4209 18.16 48.0609 18.16C48.5009 18.16 48.8876 18.1133 49.2209 18.02C49.5676 17.9267 49.8409 17.84 50.0409 17.76L50.4409 19.68C50.1609 19.8 49.7943 19.92 49.3409 20.04C48.8876 20.1733 48.3543 20.24 47.7409 20.24C46.9943 20.24 46.3676 20.14 45.8609 19.94C45.3676 19.74 44.9743 19.4533 44.6809 19.08C44.3876 18.6933 44.1809 18.2333 44.0609 17.7C43.9409 17.1533 43.8809 16.5333 43.8809 15.84V6.78ZM51.6045 14.82C51.6045 13.9 51.7379 13.0933 52.0045 12.4C52.2845 11.7067 52.6512 11.1333 53.1045 10.68C53.5579 10.2133 54.0779 9.86667 54.6645 9.64C55.2512 9.4 55.8512 9.28 56.4645 9.28C57.9045 9.28 59.0245 9.72667 59.8245 10.62C60.6379 11.5133 61.0445 12.8467 61.0445 14.62C61.0445 14.7533 61.0379 14.9067 61.0245 15.08C61.0245 15.24 61.0179 15.3867 61.0045 15.52H54.1045C54.1712 16.36 54.4645 17.0133 54.9845 17.48C55.5179 17.9333 56.2845 18.16 57.2845 18.16C57.8712 18.16 58.4045 18.1067 58.8845 18C59.3779 17.8933 59.7645 17.78 60.0445 17.66L60.3645 19.64C60.2312 19.7067 60.0445 19.78 59.8045 19.86C59.5779 19.9267 59.3112 19.9867 59.0045 20.04C58.7112 20.1067 58.3912 20.16 58.0445 20.2C57.6979 20.24 57.3445 20.26 56.9845 20.26C56.0645 20.26 55.2645 20.1267 54.5845 19.86C53.9045 19.58 53.3445 19.2 52.9045 18.72C52.4645 18.2267 52.1379 17.6533 51.9245 17C51.7112 16.3333 51.6045 15.6067 51.6045 14.82ZM58.6245 13.74C58.6245 13.4067 58.5779 13.0933 58.4845 12.8C58.3912 12.4933 58.2512 12.2333 58.0645 12.02C57.8912 11.7933 57.6712 11.62 57.4045 11.5C57.1512 11.3667 56.8445 11.3 56.4845 11.3C56.1112 11.3 55.7845 11.3733 55.5045 11.52C55.2245 11.6533 54.9845 11.8333 54.7845 12.06C54.5979 12.2867 54.4512 12.5467 54.3445 12.84C54.2379 13.1333 54.1645 13.4333 54.1245 13.74H58.6245ZM63.6103 9.88C64.077 9.74667 64.6836 9.62 65.4303 9.5C66.177 9.38 67.0036 9.32 67.9103 9.32C68.7636 9.32 69.477 9.44 70.0503 9.68C70.6236 9.90667 71.077 10.2333 71.4103 10.66C71.757 11.0733 71.997 11.58 72.1303 12.18C72.277 12.7667 72.3503 13.4133 72.3503 14.12V20H69.9303V14.5C69.9303 13.94 69.8903 13.4667 69.8103 13.08C69.7436 12.68 69.6236 12.36 69.4503 12.12C69.2903 11.8667 69.0636 11.6867 68.7703 11.58C68.4903 11.46 68.1436 11.4 67.7303 11.4C67.4236 11.4 67.1036 11.42 66.7703 11.46C66.437 11.5 66.1903 11.5333 66.0303 11.56V20H63.6103V9.88ZM77.2095 14.74C77.2095 15.8067 77.4629 16.6467 77.9695 17.26C78.4762 17.86 79.1762 18.16 80.0695 18.16C80.4562 18.16 80.7829 18.1467 81.0495 18.12C81.3295 18.08 81.5562 18.04 81.7295 18V12C81.5162 11.8533 81.2295 11.72 80.8695 11.6C80.5229 11.4667 80.1495 11.4 79.7495 11.4C78.8695 11.4 78.2229 11.7 77.8095 12.3C77.4095 12.9 77.2095 13.7133 77.2095 14.74ZM84.1495 19.68C83.6695 19.8267 83.0629 19.96 82.3295 20.08C81.6095 20.2 80.8495 20.26 80.0495 20.26C79.2229 20.26 78.4829 20.1333 77.8295 19.88C77.1762 19.6267 76.6162 19.2667 76.1495 18.8C75.6962 18.32 75.3429 17.7467 75.0895 17.08C74.8495 16.4 74.7295 15.64 74.7295 14.8C74.7295 13.9733 74.8295 13.2267 75.0295 12.56C75.2429 11.88 75.5495 11.3 75.9495 10.82C76.3495 10.34 76.8362 9.97333 77.4095 9.72C77.9829 9.45333 78.6429 9.32 79.3895 9.32C79.8962 9.32 80.3429 9.38 80.7295 9.5C81.1162 9.62 81.4495 9.75333 81.7295 9.9V4.88L84.1495 4.48V19.68ZM86.6436 14.82C86.6436 13.9 86.7769 13.0933 87.0436 12.4C87.3236 11.7067 87.6903 11.1333 88.1436 10.68C88.5969 10.2133 89.1169 9.86667 89.7036 9.64C90.2903 9.4 90.8903 9.28 91.5036 9.28C92.9436 9.28 94.0636 9.72667 94.8636 10.62C95.6769 11.5133 96.0836 12.8467 96.0836 14.62C96.0836 14.7533 96.0769 14.9067 96.0636 15.08C96.0636 15.24 96.0569 15.3867 96.0436 15.52H89.1436C89.2103 16.36 89.5036 17.0133 90.0236 17.48C90.5569 17.9333 91.3236 18.16 92.3236 18.16C92.9103 18.16 93.4436 18.1067 93.9236 18C94.4169 17.8933 94.8036 17.78 95.0836 17.66L95.4036 19.64C95.2703 19.7067 95.0836 19.78 94.8436 19.86C94.6169 19.9267 94.3503 19.9867 94.0436 20.04C93.7503 20.1067 93.4303 20.16 93.0836 20.2C92.7369 20.24 92.3836 20.26 92.0236 20.26C91.1036 20.26 90.3036 20.1267 89.6236 19.86C88.9436 19.58 88.3836 19.2 87.9436 18.72C87.5036 18.2267 87.1769 17.6533 86.9636 17C86.7503 16.3333 86.6436 15.6067 86.6436 14.82ZM93.6636 13.74C93.6636 13.4067 93.6169 13.0933 93.5236 12.8C93.4303 12.4933 93.2903 12.2333 93.1036 12.02C92.9303 11.7933 92.7103 11.62 92.4436 11.5C92.1903 11.3667 91.8836 11.3 91.5236 11.3C91.1503 11.3 90.8236 11.3733 90.5436 11.52C90.2636 11.6533 90.0236 11.8333 89.8236 12.06C89.6369 12.2867 89.4903 12.5467 89.3836 12.84C89.2769 13.1333 89.2036 13.4333 89.1636 13.74H93.6636ZM100.549 14.74C100.549 15.8067 100.803 16.6467 101.309 17.26C101.816 17.86 102.516 18.16 103.409 18.16C103.796 18.16 104.123 18.1467 104.389 18.12C104.669 18.08 104.896 18.04 105.069 18V12C104.856 11.8533 104.569 11.72 104.209 11.6C103.863 11.4667 103.489 11.4 103.089 11.4C102.209 11.4 101.563 11.7 101.149 12.3C100.749 12.9 100.549 13.7133 100.549 14.74ZM107.489 19.68C107.009 19.8267 106.403 19.96 105.669 20.08C104.949 20.2 104.189 20.26 103.389 20.26C102.563 20.26 101.823 20.1333 101.169 19.88C100.516 19.6267 99.956 19.2667 99.4894 18.8C99.036 18.32 98.6827 17.7467 98.4294 17.08C98.1894 16.4 98.0694 15.64 98.0694 14.8C98.0694 13.9733 98.1694 13.2267 98.3694 12.56C98.5827 11.88 98.8894 11.3 99.2894 10.82C99.6894 10.34 100.176 9.97333 100.749 9.72C101.323 9.45333 101.983 9.32 102.729 9.32C103.236 9.32 103.683 9.38 104.069 9.5C104.456 9.62 104.789 9.75333 105.069 9.9V4.88L107.489 4.48V19.68ZM119.271 6C121.285 6 122.825 6.36667 123.891 7.1C124.971 7.83333 125.511 8.98 125.511 10.54C125.511 11.3533 125.365 12.0533 125.071 12.64C124.791 13.2133 124.378 13.6867 123.831 14.06C123.285 14.42 122.618 14.6867 121.831 14.86C121.045 15.0333 120.145 15.12 119.131 15.12H117.871V20H115.351V6.34C115.938 6.20667 116.585 6.12 117.291 6.08C118.011 6.02667 118.671 6 119.271 6ZM119.451 8.18C118.811 8.18 118.285 8.2 117.871 8.24V12.96H119.091C120.305 12.96 121.238 12.7933 121.891 12.46C122.545 12.1133 122.871 11.4667 122.871 10.52C122.871 10.0667 122.785 9.68667 122.611 9.38C122.438 9.07333 122.198 8.83333 121.891 8.66C121.585 8.48667 121.218 8.36667 120.791 8.3C120.378 8.22 119.931 8.18 119.451 8.18ZM131.04 18.3C131.787 18.3 132.354 18.26 132.74 18.18V15.5C132.607 15.46 132.414 15.42 132.16 15.38C131.907 15.34 131.627 15.32 131.32 15.32C131.054 15.32 130.78 15.34 130.5 15.38C130.234 15.42 129.987 15.4933 129.76 15.6C129.547 15.7067 129.374 15.86 129.24 16.06C129.107 16.2467 129.04 16.4867 129.04 16.78C129.04 17.3533 129.22 17.7533 129.58 17.98C129.94 18.1933 130.427 18.3 131.04 18.3ZM130.84 9.28C131.64 9.28 132.314 9.38 132.86 9.58C133.407 9.78 133.84 10.06 134.16 10.42C134.494 10.78 134.727 11.22 134.86 11.74C135.007 12.2467 135.08 12.8067 135.08 13.42V19.76C134.707 19.84 134.14 19.9333 133.38 20.04C132.634 20.16 131.787 20.22 130.84 20.22C130.214 20.22 129.64 20.16 129.12 20.04C128.6 19.92 128.154 19.7267 127.78 19.46C127.42 19.1933 127.134 18.8467 126.92 18.42C126.72 17.9933 126.62 17.4667 126.62 16.84C126.62 16.24 126.734 15.7333 126.96 15.32C127.2 14.9067 127.52 14.5733 127.92 14.32C128.32 14.0533 128.78 13.8667 129.3 13.76C129.834 13.64 130.387 13.58 130.96 13.58C131.227 13.58 131.507 13.6 131.8 13.64C132.094 13.6667 132.407 13.72 132.74 13.8V13.4C132.74 13.12 132.707 12.8533 132.64 12.6C132.574 12.3467 132.454 12.1267 132.28 11.94C132.12 11.74 131.9 11.5867 131.62 11.48C131.354 11.3733 131.014 11.32 130.6 11.32C130.04 11.32 129.527 11.36 129.06 11.44C128.594 11.52 128.214 11.6133 127.92 11.72L127.62 9.76C127.927 9.65333 128.374 9.54667 128.96 9.44C129.547 9.33333 130.174 9.28 130.84 9.28ZM141.684 20.2C140.964 20.1867 140.364 20.1067 139.884 19.96C139.417 19.8133 139.044 19.6067 138.764 19.34C138.484 19.06 138.284 18.72 138.164 18.32C138.057 17.9067 138.004 17.44 138.004 16.92V4.88L140.424 4.48V16.46C140.424 16.7533 140.444 17 140.484 17.2C140.537 17.4 140.624 17.5733 140.744 17.72C140.864 17.8533 141.024 17.96 141.224 18.04C141.437 18.1067 141.704 18.16 142.024 18.2L141.684 20.2ZM143.401 14.82C143.401 13.9 143.535 13.0933 143.801 12.4C144.081 11.7067 144.448 11.1333 144.901 10.68C145.355 10.2133 145.875 9.86667 146.461 9.64C147.048 9.4 147.648 9.28 148.261 9.28C149.701 9.28 150.821 9.72667 151.621 10.62C152.435 11.5133 152.841 12.8467 152.841 14.62C152.841 14.7533 152.835 14.9067 152.821 15.08C152.821 15.24 152.815 15.3867 152.801 15.52H145.901C145.968 16.36 146.261 17.0133 146.781 17.48C147.315 17.9333 148.081 18.16 149.081 18.16C149.668 18.16 150.201 18.1067 150.681 18C151.175 17.8933 151.561 17.78 151.841 17.66L152.161 19.64C152.028 19.7067 151.841 19.78 151.601 19.86C151.375 19.9267 151.108 19.9867 150.801 20.04C150.508 20.1067 150.188 20.16 149.841 20.2C149.495 20.24 149.141 20.26 148.781 20.26C147.861 20.26 147.061 20.1267 146.381 19.86C145.701 19.58 145.141 19.2 144.701 18.72C144.261 18.2267 143.935 17.6533 143.721 17C143.508 16.3333 143.401 15.6067 143.401 14.82ZM150.421 13.74C150.421 13.4067 150.375 13.0933 150.281 12.8C150.188 12.4933 150.048 12.2333 149.861 12.02C149.688 11.7933 149.468 11.62 149.201 11.5C148.948 11.3667 148.641 11.3 148.281 11.3C147.908 11.3 147.581 11.3733 147.301 11.52C147.021 11.6533 146.781 11.8333 146.581 12.06C146.395 12.2867 146.248 12.5467 146.141 12.84C146.035 13.1333 145.961 13.4333 145.921 13.74H150.421ZM155.287 6.78L157.707 6.38V9.54H161.427V11.56H157.707V15.82C157.707 16.66 157.841 17.26 158.107 17.62C158.374 17.98 158.827 18.16 159.467 18.16C159.907 18.16 160.294 18.1133 160.627 18.02C160.974 17.9267 161.247 17.84 161.447 17.76L161.847 19.68C161.567 19.8 161.201 19.92 160.747 20.04C160.294 20.1733 159.761 20.24 159.147 20.24C158.401 20.24 157.774 20.14 157.267 19.94C156.774 19.74 156.381 19.4533 156.087 19.08C155.794 18.6933 155.587 18.2333 155.467 17.7C155.347 17.1533 155.287 16.5333 155.287 15.84V6.78ZM163.647 6.78L166.067 6.38V9.54H169.787V11.56H166.067V15.82C166.067 16.66 166.2 17.26 166.467 17.62C166.733 17.98 167.187 18.16 167.827 18.16C168.267 18.16 168.653 18.1133 168.987 18.02C169.333 17.9267 169.607 17.84 169.807 17.76L170.207 19.68C169.927 19.8 169.56 19.92 169.107 20.04C168.653 20.1733 168.12 20.24 167.507 20.24C166.76 20.24 166.133 20.14 165.627 19.94C165.133 19.74 164.74 19.4533 164.447 19.08C164.153 18.6933 163.947 18.2333 163.827 17.7C163.707 17.1533 163.647 16.5333 163.647 15.84V6.78ZM171.37 14.82C171.37 13.9 171.503 13.0933 171.77 12.4C172.05 11.7067 172.417 11.1333 172.87 10.68C173.323 10.2133 173.843 9.86667 174.43 9.64C175.017 9.4 175.617 9.28 176.23 9.28C177.67 9.28 178.79 9.72667 179.59 10.62C180.403 11.5133 180.81 12.8467 180.81 14.62C180.81 14.7533 180.803 14.9067 180.79 15.08C180.79 15.24 180.783 15.3867 180.77 15.52H173.87C173.937 16.36 174.23 17.0133 174.75 17.48C175.283 17.9333 176.05 18.16 177.05 18.16C177.637 18.16 178.17 18.1067 178.65 18C179.143 17.8933 179.53 17.78 179.81 17.66L180.13 19.64C179.997 19.7067 179.81 19.78 179.57 19.86C179.343 19.9267 179.077 19.9867 178.77 20.04C178.477 20.1067 178.157 20.16 177.81 20.2C177.463 20.24 177.11 20.26 176.75 20.26C175.83 20.26 175.03 20.1267 174.35 19.86C173.67 19.58 173.11 19.2 172.67 18.72C172.23 18.2267 171.903 17.6533 171.69 17C171.477 16.3333 171.37 15.6067 171.37 14.82ZM178.39 13.74C178.39 13.4067 178.343 13.0933 178.25 12.8C178.157 12.4933 178.017 12.2333 177.83 12.02C177.657 11.7933 177.437 11.62 177.17 11.5C176.917 11.3667 176.61 11.3 176.25 11.3C175.877 11.3 175.55 11.3733 175.27 11.52C174.99 11.6533 174.75 11.8333 174.55 12.06C174.363 12.2867 174.217 12.5467 174.11 12.84C174.003 13.1333 173.93 13.4333 173.89 13.74H178.39ZM186.964 13.18H192.344V15.4H186.964V13.18ZM202.5 18.12C203.407 18.12 204.067 17.9667 204.48 17.66C204.894 17.3533 205.1 16.92 205.1 16.36C205.1 16.0267 205.027 15.74 204.88 15.5C204.747 15.26 204.547 15.0467 204.28 14.86C204.027 14.66 203.714 14.48 203.34 14.32C202.967 14.1467 202.54 13.98 202.06 13.82C201.58 13.6467 201.114 13.46 200.66 13.26C200.22 13.0467 199.827 12.7867 199.48 12.48C199.147 12.1733 198.874 11.8067 198.66 11.38C198.46 10.9533 198.36 10.44 198.36 9.84C198.36 8.58667 198.794 7.60667 199.66 6.9C200.527 6.18 201.707 5.82 203.2 5.82C204.067 5.82 204.834 5.92 205.5 6.12C206.18 6.30667 206.714 6.51333 207.1 6.74L206.32 8.78C205.867 8.52667 205.367 8.33333 204.82 8.2C204.287 8.06667 203.734 8 203.16 8C202.48 8 201.947 8.14 201.56 8.42C201.187 8.7 201 9.09333 201 9.6C201 9.90667 201.06 10.1733 201.18 10.4C201.314 10.6133 201.494 10.8067 201.72 10.98C201.96 11.1533 202.234 11.3133 202.54 11.46C202.86 11.6067 203.207 11.7467 203.58 11.88C204.234 12.12 204.814 12.3667 205.32 12.62C205.84 12.86 206.274 13.1533 206.62 13.5C206.98 13.8333 207.254 14.2333 207.44 14.7C207.627 15.1533 207.72 15.7067 207.72 16.36C207.72 17.6133 207.274 18.5867 206.38 19.28C205.5 19.96 204.207 20.3 202.5 20.3C201.927 20.3 201.4 20.26 200.92 20.18C200.454 20.1133 200.034 20.0267 199.66 19.92C199.3 19.8133 198.987 19.7067 198.72 19.6C198.454 19.48 198.24 19.3733 198.08 19.28L198.82 17.22C199.18 17.42 199.667 17.62 200.28 17.82C200.894 18.02 201.634 18.12 202.5 18.12ZM219.281 14.76C219.281 15.5867 219.161 16.34 218.921 17.02C218.681 17.7 218.341 18.28 217.901 18.76C217.461 19.24 216.928 19.6133 216.301 19.88C215.688 20.1467 215.008 20.28 214.261 20.28C213.515 20.28 212.835 20.1467 212.221 19.88C211.608 19.6133 211.081 19.24 210.641 18.76C210.201 18.28 209.855 17.7 209.601 17.02C209.361 16.34 209.241 15.5867 209.241 14.76C209.241 13.9333 209.361 13.1867 209.601 12.52C209.855 11.84 210.201 11.26 210.641 10.78C211.095 10.3 211.628 9.93333 212.241 9.68C212.855 9.41333 213.528 9.28 214.261 9.28C214.995 9.28 215.668 9.41333 216.281 9.68C216.908 9.93333 217.441 10.3 217.881 10.78C218.321 11.26 218.661 11.84 218.901 12.52C219.155 13.1867 219.281 13.9333 219.281 14.76ZM216.801 14.76C216.801 13.72 216.575 12.9 216.121 12.3C215.681 11.6867 215.061 11.38 214.261 11.38C213.461 11.38 212.835 11.6867 212.381 12.3C211.941 12.9 211.721 13.72 211.721 14.76C211.721 15.8133 211.941 16.6467 212.381 17.26C212.835 17.8733 213.461 18.18 214.261 18.18C215.061 18.18 215.681 17.8733 216.121 17.26C216.575 16.6467 216.801 15.8133 216.801 14.76ZM226.034 4.48C226.594 4.48 227.088 4.53333 227.514 4.64C227.941 4.73333 228.261 4.82 228.474 4.9L228.014 6.9C227.788 6.79333 227.521 6.70667 227.214 6.64C226.921 6.57333 226.601 6.54 226.254 6.54C225.868 6.54 225.541 6.6 225.274 6.72C225.008 6.82667 224.794 6.98 224.634 7.18C224.474 7.38 224.361 7.62667 224.294 7.92C224.228 8.2 224.194 8.50667 224.194 8.84V9.54H227.994V11.56H224.194V20H221.774V8.8C221.774 7.45333 222.128 6.4 222.834 5.64C223.541 4.86667 224.608 4.48 226.034 4.48ZM229.662 6.78L232.082 6.38V9.54H235.802V11.56H232.082V15.82C232.082 16.66 232.216 17.26 232.482 17.62C232.749 17.98 233.202 18.16 233.842 18.16C234.282 18.16 234.669 18.1133 235.002 18.02C235.349 17.9267 235.622 17.84 235.822 17.76L236.222 19.68C235.942 19.8 235.576 19.92 235.122 20.04C234.669 20.1733 234.136 20.24 233.522 20.24C232.776 20.24 232.149 20.14 231.642 19.94C231.149 19.74 230.756 19.4533 230.462 19.08C230.169 18.6933 229.962 18.2333 229.842 17.7C229.722 17.1533 229.662 16.5333 229.662 15.84V6.78Z" fill="#403F3D"/>
<defs>
<filter id="filter0_d" x="0" y="31" width="140" height="100" filterUnits="userSpaceOnUse" color-interpolation-filters="sRGB">
<feFlood flood-opacity="0" result="BackgroundImageFix"/>
<feColorMatrix in="SourceAlpha" type="matrix" values="0 0 0 0 0 0 0 0 0 0 0 0 0 0 0 0 0 0 127 0" result="hardAlpha"/>
<feOffset dy="10"/>
<feGaussianBlur stdDeviation="10"/>
<feColorMatrix type="matrix" values="0 0 0 0 0 0 0 0 0 0 0 0 0 0 0 0 0 0 0.08 0"/>
<feBlend mode="normal" in2="BackgroundImageFix" result="effect1_dropShadow"/>
<feBlend mode="normal" in="SourceGraphic" in2="effect1_dropShadow" result="shape"/>
</filter>
<filter id="filter1_d" x="444" y="31" width="140" height="100" filterUnits="userSpaceOnUse" color-interpolation-filters="sRGB">
<feFlood flood-opacity="0" result="BackgroundImageFix"/>
<feColorMatrix in="SourceAlpha" type="matrix" values="0 0 0 0 0 0 0 0 0 0 0 0 0 0 0 0 0 0 127 0" result="hardAlpha"/>
<feOffset dy="10"/>
<feGaussianBlur stdDeviation="10"/>
<feColorMatrix type="matrix" values="0 0 0 0 0 0 0 0 0 0 0 0 0 0 0 0 0 0 0.08 0"/>
<feBlend mode="normal" in2="BackgroundImageFix" result="effect1_dropShadow"/>
<feBlend mode="normal" in="SourceGraphic" in2="effect1_dropShadow" result="shape"/>
</filter>
<filter id="filter2_d" x="148" y="31" width="140" height="100" filterUnits="userSpaceOnUse" color-interpolation-filters="sRGB">
<feFlood flood-opacity="0" result="BackgroundImageFix"/>
<feColorMatrix in="SourceAlpha" type="matrix" values="0 0 0 0 0 0 0 0 0 0 0 0 0 0 0 0 0 0 127 0" result="hardAlpha"/>
<feOffset dy="10"/>
<feGaussianBlur stdDeviation="10"/>
<feColorMatrix type="matrix" values="0 0 0 0 0 0 0 0 0 0 0 0 0 0 0 0 0 0 0.08 0"/>
<feBlend mode="normal" in2="BackgroundImageFix" result="effect1_dropShadow"/>
<feBlend mode="normal" in="SourceGraphic" in2="effect1_dropShadow" result="shape"/>
</filter>
<filter id="filter3_d" x="296" y="31" width="140" height="100" filterUnits="userSpaceOnUse" color-interpolation-filters="sRGB">
<feFlood flood-opacity="0" result="BackgroundImageFix"/>
<feColorMatrix in="SourceAlpha" type="matrix" values="0 0 0 0 0 0 0 0 0 0 0 0 0 0 0 0 0 0 127 0" result="hardAlpha"/>
<feOffset dy="10"/>
<feGaussianBlur stdDeviation="10"/>
<feColorMatrix type="matrix" values="0 0 0 0 0 0 0 0 0 0 0 0 0 0 0 0 0 0 0.08 0"/>
<feBlend mode="normal" in2="BackgroundImageFix" result="effect1_dropShadow"/>
<feBlend mode="normal" in="SourceGraphic" in2="effect1_dropShadow" result="shape"/>
</filter>
</defs>
</svg>
