<svg width="584" height="135" viewBox="0 0 584 135" fill="none" xmlns="http://www.w3.org/2000/svg">
<g filter="url(#filter0_d)">
<rect x="20" y="41" width="100" height="60" rx="8" fill="#1FA1CC"/>
</g>
<path d="M24.544 123.84H27.136L27.696 120.912H29.04L28.48 123.84H29.888V125.024H28.24L27.696 127.888H29.888V129.072H27.472L26.912 132H25.568L26.128 129.072H23.536L22.976 132H21.632L22.192 129.072H20.784V127.888H22.416L22.96 125.024H20.784V123.84H23.2L23.76 120.912H25.104L24.544 123.84ZM23.76 127.888H26.352L26.912 125.024H24.32L23.76 127.888ZM32.1599 123.2C32.7679 122.965 33.3599 122.667 33.9359 122.304C34.5119 121.931 35.0399 121.467 35.5199 120.912H36.5759V132H35.0879V122.976C34.9599 123.093 34.7999 123.216 34.6079 123.344C34.4265 123.472 34.2239 123.595 33.9999 123.712C33.7865 123.829 33.5572 123.941 33.3119 124.048C33.0772 124.155 32.8479 124.245 32.6239 124.32L32.1599 123.2ZM41.0791 132V120.912H47.7671V122.24H42.6311V125.584H47.1911V126.896H42.6311V132H41.0791ZM56.3465 132C56.1652 131.52 55.9945 131.051 55.8345 130.592C55.6745 130.123 55.5092 129.648 55.3385 129.168H50.3145L49.3065 132H47.6905C48.1172 130.827 48.5172 129.744 48.8905 128.752C49.2638 127.749 49.6265 126.8 49.9785 125.904C50.3412 125.008 50.6985 124.155 51.0505 123.344C51.4025 122.523 51.7705 121.712 52.1545 120.912H53.5785C53.9625 121.712 54.3305 122.523 54.6825 123.344C55.0345 124.155 55.3865 125.008 55.7385 125.904C56.1012 126.8 56.4692 127.749 56.8425 128.752C57.2158 129.744 57.6158 130.827 58.0425 132H56.3465ZM54.8905 127.888C54.5492 126.96 54.2078 126.064 53.8665 125.2C53.5358 124.325 53.1892 123.488 52.8265 122.688C52.4532 123.488 52.0958 124.325 51.7545 125.2C51.4238 126.064 51.0932 126.96 50.7625 127.888H54.8905ZM59.6599 123.2C60.2679 122.965 60.8599 122.667 61.4359 122.304C62.0119 121.931 62.5399 121.467 63.0199 120.912H64.0759V132H62.5879V122.976C62.4599 123.093 62.2999 123.216 62.1079 123.344C61.9265 123.472 61.7239 123.595 61.4999 123.712C61.2865 123.829 61.0572 123.941 60.8119 124.048C60.5772 124.155 60.3479 124.245 60.1239 124.32L59.6599 123.2ZM73.3471 132.24C72.5685 132.24 71.8591 132.112 71.2191 131.856C70.5791 131.6 70.0298 131.227 69.5711 130.736C69.1125 130.245 68.7551 129.643 68.4991 128.928C68.2538 128.203 68.1311 127.376 68.1311 126.448C68.1311 125.52 68.2698 124.699 68.5471 123.984C68.8351 123.259 69.2191 122.651 69.6991 122.16C70.1791 121.669 70.7391 121.296 71.3791 121.04C72.0191 120.784 72.7018 120.656 73.4271 120.656C73.8858 120.656 74.2965 120.688 74.6591 120.752C75.0325 120.816 75.3525 120.891 75.6191 120.976C75.8965 121.061 76.1205 121.147 76.2911 121.232C76.4618 121.317 76.5791 121.381 76.6431 121.424L76.1951 122.704C76.0991 122.64 75.9605 122.571 75.7791 122.496C75.5978 122.421 75.3898 122.347 75.1551 122.272C74.9311 122.197 74.6805 122.139 74.4031 122.096C74.1365 122.043 73.8645 122.016 73.5871 122.016C73.0005 122.016 72.4725 122.117 72.0031 122.32C71.5338 122.523 71.1338 122.816 70.8031 123.2C70.4725 123.584 70.2165 124.053 70.0351 124.608C69.8645 125.152 69.7791 125.765 69.7791 126.448C69.7791 127.109 69.8538 127.712 70.0031 128.256C70.1631 128.8 70.3978 129.269 70.7071 129.664C71.0165 130.048 71.4005 130.347 71.8591 130.56C72.3285 130.773 72.8725 130.88 73.4911 130.88C74.2058 130.88 74.7978 130.805 75.2671 130.656C75.7365 130.507 76.0885 130.373 76.3231 130.256L76.7231 131.536C76.6485 131.589 76.5151 131.659 76.3231 131.744C76.1311 131.819 75.8911 131.893 75.6031 131.968C75.3151 132.043 74.9791 132.107 74.5951 132.16C74.2111 132.213 73.7951 132.24 73.3471 132.24ZM82.9565 132.24C82.1778 132.24 81.4685 132.112 80.8285 131.856C80.1885 131.6 79.6392 131.227 79.1805 130.736C78.7218 130.245 78.3645 129.643 78.1085 128.928C77.8632 128.203 77.7405 127.376 77.7405 126.448C77.7405 125.52 77.8792 124.699 78.1565 123.984C78.4445 123.259 78.8285 122.651 79.3085 122.16C79.7885 121.669 80.3485 121.296 80.9885 121.04C81.6285 120.784 82.3112 120.656 83.0365 120.656C83.4952 120.656 83.9058 120.688 84.2685 120.752C84.6418 120.816 84.9618 120.891 85.2285 120.976C85.5058 121.061 85.7298 121.147 85.9005 121.232C86.0712 121.317 86.1885 121.381 86.2525 121.424L85.8045 122.704C85.7085 122.64 85.5698 122.571 85.3885 122.496C85.2072 122.421 84.9992 122.347 84.7645 122.272C84.5405 122.197 84.2898 122.139 84.0125 122.096C83.7458 122.043 83.4738 122.016 83.1965 122.016C82.6098 122.016 82.0818 122.117 81.6125 122.32C81.1432 122.523 80.7432 122.816 80.4125 123.2C80.0818 123.584 79.8258 124.053 79.6445 124.608C79.4738 125.152 79.3885 125.765 79.3885 126.448C79.3885 127.109 79.4632 127.712 79.6125 128.256C79.7725 128.8 80.0072 129.269 80.3165 129.664C80.6258 130.048 81.0098 130.347 81.4685 130.56C81.9378 130.773 82.4818 130.88 83.1005 130.88C83.8152 130.88 84.4072 130.805 84.8765 130.656C85.3458 130.507 85.6978 130.373 85.9325 130.256L86.3325 131.536C86.2578 131.589 86.1245 131.659 85.9325 131.744C85.7405 131.819 85.5005 131.893 85.2125 131.968C84.9245 132.043 84.5885 132.107 84.2045 132.16C83.8205 132.213 83.4045 132.24 82.9565 132.24Z" fill="#8D9399"/>
<g filter="url(#filter1_d)">
<rect x="464" y="41" width="100" height="60" rx="8" fill="#CC493D"/>
</g>
<path d="M468.544 123.84H471.136L471.696 120.912H473.04L472.48 123.84H473.888V125.024H472.24L471.696 127.888H473.888V129.072H471.472L470.912 132H469.568L470.128 129.072H467.536L466.976 132H465.632L466.192 129.072H464.784V127.888H466.416L466.96 125.024H464.784V123.84H467.2L467.76 120.912H469.104L468.544 123.84ZM467.76 127.888H470.352L470.912 125.024H468.32L467.76 127.888ZM480.816 132.24C480.037 132.24 479.328 132.112 478.688 131.856C478.048 131.6 477.499 131.227 477.04 130.736C476.581 130.245 476.224 129.643 475.968 128.928C475.723 128.203 475.6 127.376 475.6 126.448C475.6 125.52 475.739 124.699 476.016 123.984C476.304 123.259 476.688 122.651 477.168 122.16C477.648 121.669 478.208 121.296 478.848 121.04C479.488 120.784 480.171 120.656 480.896 120.656C481.355 120.656 481.765 120.688 482.128 120.752C482.501 120.816 482.821 120.891 483.088 120.976C483.365 121.061 483.589 121.147 483.76 121.232C483.931 121.317 484.048 121.381 484.112 121.424L483.664 122.704C483.568 122.64 483.429 122.571 483.248 122.496C483.067 122.421 482.859 122.347 482.624 122.272C482.4 122.197 482.149 122.139 481.872 122.096C481.605 122.043 481.333 122.016 481.056 122.016C480.469 122.016 479.941 122.117 479.472 122.32C479.003 122.523 478.603 122.816 478.272 123.2C477.941 123.584 477.685 124.053 477.504 124.608C477.333 125.152 477.248 125.765 477.248 126.448C477.248 127.109 477.323 127.712 477.472 128.256C477.632 128.8 477.867 129.269 478.176 129.664C478.485 130.048 478.869 130.347 479.328 130.56C479.797 130.773 480.341 130.88 480.96 130.88C481.675 130.88 482.267 130.805 482.736 130.656C483.205 130.507 483.557 130.373 483.792 130.256L484.192 131.536C484.117 131.589 483.984 131.659 483.792 131.744C483.6 131.819 483.36 131.893 483.072 131.968C482.784 132.043 482.448 132.107 482.064 132.16C481.68 132.213 481.264 132.24 480.816 132.24ZM490.425 132.24C489.647 132.24 488.937 132.112 488.297 131.856C487.657 131.6 487.108 131.227 486.649 130.736C486.191 130.245 485.833 129.643 485.577 128.928C485.332 128.203 485.209 127.376 485.209 126.448C485.209 125.52 485.348 124.699 485.625 123.984C485.913 123.259 486.297 122.651 486.777 122.16C487.257 121.669 487.817 121.296 488.457 121.04C489.097 120.784 489.78 120.656 490.505 120.656C490.964 120.656 491.375 120.688 491.737 120.752C492.111 120.816 492.431 120.891 492.697 120.976C492.975 121.061 493.199 121.147 493.369 121.232C493.54 121.317 493.657 121.381 493.721 121.424L493.273 122.704C493.177 122.64 493.039 122.571 492.857 122.496C492.676 122.421 492.468 122.347 492.233 122.272C492.009 122.197 491.759 122.139 491.481 122.096C491.215 122.043 490.943 122.016 490.665 122.016C490.079 122.016 489.551 122.117 489.081 122.32C488.612 122.523 488.212 122.816 487.881 123.2C487.551 123.584 487.295 124.053 487.113 124.608C486.943 125.152 486.857 125.765 486.857 126.448C486.857 127.109 486.932 127.712 487.081 128.256C487.241 128.8 487.476 129.269 487.785 129.664C488.095 130.048 488.479 130.347 488.937 130.56C489.407 130.773 489.951 130.88 490.569 130.88C491.284 130.88 491.876 130.805 492.345 130.656C492.815 130.507 493.167 130.373 493.401 130.256L493.801 131.536C493.727 131.589 493.593 131.659 493.401 131.744C493.209 131.819 492.969 131.893 492.681 131.968C492.393 132.043 492.057 132.107 491.673 132.16C491.289 132.213 490.873 132.24 490.425 132.24ZM494.843 128.16C495.046 127.691 495.323 127.147 495.675 126.528C496.027 125.899 496.422 125.253 496.859 124.592C497.307 123.931 497.782 123.28 498.283 122.64C498.795 122 499.307 121.424 499.819 120.912H501.243V127.952H502.555V129.168H501.243V132H499.803V129.168H494.843V128.16ZM499.803 122.672C499.483 123.013 499.158 123.397 498.827 123.824C498.507 124.24 498.192 124.677 497.883 125.136C497.574 125.595 497.28 126.064 497.003 126.544C496.736 127.024 496.496 127.493 496.283 127.952H499.803V122.672ZM511.25 125.344C511.25 127.541 510.701 129.205 509.602 130.336C508.514 131.456 506.893 132.021 504.738 132.032L504.69 130.784C505.362 130.784 505.965 130.72 506.498 130.592C507.042 130.464 507.517 130.261 507.922 129.984C508.328 129.696 508.664 129.328 508.93 128.88C509.208 128.432 509.41 127.883 509.538 127.232C509.261 127.36 508.946 127.467 508.594 127.552C508.242 127.627 507.88 127.664 507.506 127.664C506.877 127.664 506.344 127.573 505.906 127.392C505.469 127.2 505.112 126.949 504.834 126.64C504.557 126.32 504.354 125.957 504.226 125.552C504.109 125.136 504.05 124.704 504.05 124.256C504.05 123.861 504.12 123.451 504.258 123.024C504.397 122.597 504.605 122.208 504.882 121.856C505.17 121.504 505.533 121.216 505.97 120.992C506.408 120.768 506.925 120.656 507.522 120.656C508.13 120.656 508.664 120.763 509.122 120.976C509.592 121.189 509.981 121.499 510.29 121.904C510.61 122.309 510.85 122.805 511.01 123.392C511.17 123.968 511.25 124.619 511.25 125.344ZM507.666 126.448C508.04 126.448 508.392 126.416 508.722 126.352C509.053 126.277 509.373 126.171 509.682 126.032C509.693 125.915 509.698 125.803 509.698 125.696C509.698 125.579 509.698 125.461 509.698 125.344C509.698 124.885 509.666 124.448 509.602 124.032C509.538 123.605 509.421 123.237 509.25 122.928C509.09 122.608 508.872 122.357 508.594 122.176C508.317 121.984 507.965 121.888 507.538 121.888C507.186 121.888 506.888 121.963 506.642 122.112C506.397 122.261 506.194 122.453 506.034 122.688C505.874 122.912 505.757 123.163 505.682 123.44C505.618 123.707 505.586 123.968 505.586 124.224C505.586 124.949 505.757 125.504 506.098 125.888C506.45 126.261 506.973 126.448 507.666 126.448ZM515.882 130.912C516.831 130.912 517.508 130.725 517.914 130.352C518.33 129.979 518.538 129.477 518.538 128.848C518.538 128.443 518.452 128.101 518.282 127.824C518.111 127.547 517.887 127.328 517.61 127.168C517.332 126.997 517.007 126.88 516.634 126.816C516.271 126.741 515.898 126.704 515.514 126.704H515.13V125.488H515.658C515.924 125.488 516.196 125.461 516.474 125.408C516.762 125.355 517.023 125.259 517.258 125.12C517.492 124.981 517.684 124.795 517.834 124.56C517.983 124.315 518.058 124.011 518.058 123.648C518.058 123.349 518.004 123.093 517.898 122.88C517.791 122.667 517.647 122.491 517.466 122.352C517.295 122.213 517.092 122.117 516.858 122.064C516.634 122 516.394 121.968 516.138 121.968C515.626 121.968 515.188 122.043 514.826 122.192C514.474 122.341 514.175 122.496 513.93 122.656L513.354 121.52C513.482 121.435 513.642 121.344 513.834 121.248C514.036 121.141 514.26 121.045 514.506 120.96C514.751 120.875 515.012 120.805 515.29 120.752C515.578 120.688 515.876 120.656 516.186 120.656C516.772 120.656 517.279 120.731 517.706 120.88C518.132 121.019 518.484 121.221 518.762 121.488C519.039 121.744 519.247 122.053 519.386 122.416C519.524 122.768 519.594 123.152 519.594 123.568C519.594 124.144 519.428 124.64 519.098 125.056C518.767 125.461 518.367 125.771 517.898 125.984C518.186 126.069 518.463 126.192 518.73 126.352C518.996 126.512 519.226 126.715 519.418 126.96C519.62 127.205 519.78 127.488 519.898 127.808C520.026 128.128 520.09 128.485 520.09 128.88C520.09 129.36 520.004 129.808 519.834 130.224C519.674 130.629 519.418 130.981 519.066 131.28C518.724 131.579 518.292 131.813 517.77 131.984C517.247 132.155 516.628 132.24 515.914 132.24C515.636 132.24 515.348 132.219 515.05 132.176C514.762 132.133 514.49 132.08 514.234 132.016C513.978 131.952 513.754 131.888 513.562 131.824C513.37 131.76 513.231 131.707 513.146 131.664L513.434 130.368C513.615 130.453 513.914 130.565 514.33 130.704C514.756 130.843 515.274 130.912 515.882 130.912ZM531.777 126.448C531.777 127.408 531.628 128.245 531.329 128.96C531.03 129.664 530.609 130.251 530.065 130.72C529.521 131.179 528.87 131.525 528.113 131.76C527.356 131.984 526.524 132.096 525.617 132.096C525.169 132.096 524.673 132.075 524.129 132.032C523.596 132 523.11 131.931 522.673 131.824V121.072C523.11 120.965 523.596 120.896 524.129 120.864C524.673 120.821 525.169 120.8 525.617 120.8C526.524 120.8 527.356 120.917 528.113 121.152C528.87 121.376 529.521 121.723 530.065 122.192C530.609 122.651 531.03 123.237 531.329 123.952C531.628 124.656 531.777 125.488 531.777 126.448ZM525.745 130.736C527.217 130.736 528.316 130.363 529.041 129.616C529.766 128.859 530.129 127.803 530.129 126.448C530.129 125.093 529.766 124.043 529.041 123.296C528.316 122.539 527.217 122.16 525.745 122.16C525.308 122.16 524.966 122.165 524.721 122.176C524.486 122.187 524.321 122.197 524.225 122.208V130.688C524.321 130.699 524.486 130.709 524.721 130.72C524.966 130.731 525.308 130.736 525.745 130.736Z" fill="#8D9399"/>
<g filter="url(#filter2_d)">
<rect x="168" y="41" width="100" height="60" rx="8" fill="#829881"/>
</g>
<g filter="url(#filter3_d)">
<rect x="316" y="41" width="100" height="60" rx="8" fill="#FF9500"/>
</g>
<path d="M172.544 123.84H175.136L175.696 120.912H177.04L176.48 123.84H177.888V125.024H176.24L175.696 127.888H177.888V129.072H175.472L174.912 132H173.568L174.128 129.072H171.536L170.976 132H169.632L170.192 129.072H168.784V127.888H170.416L170.96 125.024H168.784V123.84H171.2L171.76 120.912H173.104L172.544 123.84ZM171.76 127.888H174.352L174.912 125.024H172.32L171.76 127.888ZM186.816 129.12C186.816 129.568 186.736 129.984 186.576 130.368C186.427 130.741 186.197 131.072 185.888 131.36C185.589 131.637 185.211 131.851 184.752 132C184.293 132.16 183.765 132.24 183.168 132.24C182.475 132.24 181.893 132.144 181.424 131.952C180.965 131.749 180.597 131.499 180.32 131.2C180.043 130.901 179.845 130.576 179.728 130.224C179.611 129.861 179.552 129.52 179.552 129.2C179.552 128.891 179.6 128.597 179.696 128.32C179.803 128.032 179.936 127.765 180.096 127.52C180.267 127.275 180.459 127.056 180.672 126.864C180.896 126.661 181.131 126.485 181.376 126.336C180.331 125.739 179.808 124.859 179.808 123.696C179.808 123.291 179.888 122.907 180.048 122.544C180.208 122.171 180.432 121.845 180.72 121.568C181.019 121.291 181.376 121.072 181.792 120.912C182.208 120.741 182.672 120.656 183.184 120.656C183.781 120.656 184.293 120.747 184.72 120.928C185.147 121.109 185.493 121.344 185.76 121.632C186.037 121.909 186.235 122.219 186.352 122.56C186.48 122.901 186.544 123.232 186.544 123.552C186.544 123.861 186.496 124.155 186.4 124.432C186.315 124.699 186.192 124.949 186.032 125.184C185.883 125.419 185.707 125.627 185.504 125.808C185.312 125.989 185.109 126.149 184.896 126.288C186.155 126.885 186.795 127.829 186.816 129.12ZM181.056 129.216C181.056 129.408 181.088 129.611 181.152 129.824C181.227 130.027 181.349 130.219 181.52 130.4C181.691 130.571 181.909 130.715 182.176 130.832C182.443 130.949 182.779 131.008 183.184 131.008C183.547 131.008 183.861 130.955 184.128 130.848C184.405 130.741 184.629 130.608 184.8 130.448C184.971 130.277 185.099 130.085 185.184 129.872C185.269 129.659 185.312 129.44 185.312 129.216C185.312 128.875 185.248 128.576 185.12 128.32C184.992 128.064 184.805 127.84 184.56 127.648C184.325 127.456 184.037 127.296 183.696 127.168C183.365 127.029 182.987 126.912 182.56 126.816C182.08 127.083 181.707 127.413 181.44 127.808C181.184 128.203 181.056 128.672 181.056 129.216ZM185.056 123.536C185.056 123.376 185.019 123.2 184.944 123.008C184.88 122.816 184.773 122.64 184.624 122.48C184.475 122.309 184.283 122.171 184.048 122.064C183.813 121.947 183.525 121.888 183.184 121.888C182.843 121.888 182.549 121.941 182.304 122.048C182.069 122.155 181.877 122.293 181.728 122.464C181.579 122.624 181.467 122.805 181.392 123.008C181.328 123.2 181.296 123.392 181.296 123.584C181.296 123.819 181.339 124.053 181.424 124.288C181.509 124.523 181.643 124.741 181.824 124.944C182.005 125.147 182.24 125.328 182.528 125.488C182.827 125.648 183.179 125.776 183.584 125.872C184.032 125.605 184.389 125.296 184.656 124.944C184.923 124.581 185.056 124.112 185.056 123.536ZM195.175 123.744C195.175 124.128 195.095 124.501 194.935 124.864C194.786 125.216 194.583 125.568 194.327 125.92C194.071 126.261 193.783 126.603 193.463 126.944C193.143 127.275 192.823 127.6 192.503 127.92C192.322 128.101 192.108 128.315 191.863 128.56C191.628 128.805 191.404 129.061 191.191 129.328C190.978 129.595 190.796 129.851 190.647 130.096C190.508 130.341 190.439 130.555 190.439 130.736H195.543V132H188.823C188.812 131.936 188.807 131.872 188.807 131.808C188.807 131.744 188.807 131.685 188.807 131.632C188.807 131.131 188.887 130.667 189.047 130.24C189.218 129.803 189.436 129.392 189.703 129.008C189.97 128.624 190.268 128.261 190.599 127.92C190.93 127.579 191.255 127.248 191.575 126.928C191.842 126.672 192.092 126.421 192.327 126.176C192.572 125.92 192.786 125.669 192.967 125.424C193.159 125.168 193.308 124.907 193.415 124.64C193.532 124.373 193.591 124.091 193.591 123.792C193.591 123.472 193.538 123.2 193.431 122.976C193.335 122.752 193.202 122.565 193.031 122.416C192.86 122.267 192.658 122.16 192.423 122.096C192.199 122.021 191.959 121.984 191.703 121.984C191.394 121.984 191.111 122.027 190.855 122.112C190.599 122.197 190.37 122.299 190.167 122.416C189.964 122.523 189.794 122.64 189.655 122.768C189.516 122.885 189.41 122.976 189.335 123.04L188.599 121.984C188.695 121.877 188.839 121.749 189.031 121.6C189.223 121.44 189.452 121.291 189.719 121.152C189.986 121.013 190.284 120.896 190.615 120.8C190.946 120.704 191.303 120.656 191.687 120.656C192.85 120.656 193.719 120.928 194.295 121.472C194.882 122.005 195.175 122.763 195.175 123.744ZM204.75 125.344C204.75 127.541 204.201 129.205 203.102 130.336C202.014 131.456 200.393 132.021 198.238 132.032L198.19 130.784C198.862 130.784 199.465 130.72 199.998 130.592C200.542 130.464 201.017 130.261 201.422 129.984C201.828 129.696 202.164 129.328 202.43 128.88C202.708 128.432 202.91 127.883 203.038 127.232C202.761 127.36 202.446 127.467 202.094 127.552C201.742 127.627 201.38 127.664 201.006 127.664C200.377 127.664 199.844 127.573 199.406 127.392C198.969 127.2 198.612 126.949 198.334 126.64C198.057 126.32 197.854 125.957 197.726 125.552C197.609 125.136 197.55 124.704 197.55 124.256C197.55 123.861 197.62 123.451 197.758 123.024C197.897 122.597 198.105 122.208 198.382 121.856C198.67 121.504 199.033 121.216 199.47 120.992C199.908 120.768 200.425 120.656 201.022 120.656C201.63 120.656 202.164 120.763 202.622 120.976C203.092 121.189 203.481 121.499 203.79 121.904C204.11 122.309 204.35 122.805 204.51 123.392C204.67 123.968 204.75 124.619 204.75 125.344ZM201.166 126.448C201.54 126.448 201.892 126.416 202.222 126.352C202.553 126.277 202.873 126.171 203.182 126.032C203.193 125.915 203.198 125.803 203.198 125.696C203.198 125.579 203.198 125.461 203.198 125.344C203.198 124.885 203.166 124.448 203.102 124.032C203.038 123.605 202.921 123.237 202.75 122.928C202.59 122.608 202.372 122.357 202.094 122.176C201.817 121.984 201.465 121.888 201.038 121.888C200.686 121.888 200.388 121.963 200.142 122.112C199.897 122.261 199.694 122.453 199.534 122.688C199.374 122.912 199.257 123.163 199.182 123.44C199.118 123.707 199.086 123.968 199.086 124.224C199.086 124.949 199.257 125.504 199.598 125.888C199.95 126.261 200.473 126.448 201.166 126.448ZM213.91 129.12C213.91 129.568 213.83 129.984 213.67 130.368C213.52 130.741 213.291 131.072 212.982 131.36C212.683 131.637 212.304 131.851 211.846 132C211.387 132.16 210.859 132.24 210.262 132.24C209.568 132.24 208.987 132.144 208.518 131.952C208.059 131.749 207.691 131.499 207.414 131.2C207.136 130.901 206.939 130.576 206.822 130.224C206.704 129.861 206.646 129.52 206.646 129.2C206.646 128.891 206.694 128.597 206.79 128.32C206.896 128.032 207.03 127.765 207.19 127.52C207.36 127.275 207.552 127.056 207.766 126.864C207.99 126.661 208.224 126.485 208.47 126.336C207.424 125.739 206.902 124.859 206.902 123.696C206.902 123.291 206.982 122.907 207.142 122.544C207.302 122.171 207.526 121.845 207.814 121.568C208.112 121.291 208.47 121.072 208.886 120.912C209.302 120.741 209.766 120.656 210.278 120.656C210.875 120.656 211.387 120.747 211.814 120.928C212.24 121.109 212.587 121.344 212.854 121.632C213.131 121.909 213.328 122.219 213.446 122.56C213.574 122.901 213.638 123.232 213.638 123.552C213.638 123.861 213.59 124.155 213.494 124.432C213.408 124.699 213.286 124.949 213.126 125.184C212.976 125.419 212.8 125.627 212.598 125.808C212.406 125.989 212.203 126.149 211.99 126.288C213.248 126.885 213.888 127.829 213.91 129.12ZM208.15 129.216C208.15 129.408 208.182 129.611 208.246 129.824C208.32 130.027 208.443 130.219 208.614 130.4C208.784 130.571 209.003 130.715 209.27 130.832C209.536 130.949 209.872 131.008 210.278 131.008C210.64 131.008 210.955 130.955 211.222 130.848C211.499 130.741 211.723 130.608 211.894 130.448C212.064 130.277 212.192 130.085 212.278 129.872C212.363 129.659 212.406 129.44 212.406 129.216C212.406 128.875 212.342 128.576 212.214 128.32C212.086 128.064 211.899 127.84 211.654 127.648C211.419 127.456 211.131 127.296 210.79 127.168C210.459 127.029 210.08 126.912 209.654 126.816C209.174 127.083 208.8 127.413 208.534 127.808C208.278 128.203 208.15 128.672 208.15 129.216ZM212.15 123.536C212.15 123.376 212.112 123.2 212.038 123.008C211.974 122.816 211.867 122.64 211.718 122.48C211.568 122.309 211.376 122.171 211.142 122.064C210.907 121.947 210.619 121.888 210.278 121.888C209.936 121.888 209.643 121.941 209.398 122.048C209.163 122.155 208.971 122.293 208.822 122.464C208.672 122.624 208.56 122.805 208.486 123.008C208.422 123.2 208.39 123.392 208.39 123.584C208.39 123.819 208.432 124.053 208.518 124.288C208.603 124.523 208.736 124.741 208.918 124.944C209.099 125.147 209.334 125.328 209.622 125.488C209.92 125.648 210.272 125.776 210.678 125.872C211.126 125.605 211.483 125.296 211.75 124.944C212.016 124.581 212.15 124.112 212.15 123.536ZM222.941 129.12C222.941 129.568 222.861 129.984 222.701 130.368C222.552 130.741 222.322 131.072 222.013 131.36C221.714 131.637 221.336 131.851 220.877 132C220.418 132.16 219.89 132.24 219.293 132.24C218.6 132.24 218.018 132.144 217.549 131.952C217.09 131.749 216.722 131.499 216.445 131.2C216.168 130.901 215.97 130.576 215.853 130.224C215.736 129.861 215.677 129.52 215.677 129.2C215.677 128.891 215.725 128.597 215.821 128.32C215.928 128.032 216.061 127.765 216.221 127.52C216.392 127.275 216.584 127.056 216.797 126.864C217.021 126.661 217.256 126.485 217.501 126.336C216.456 125.739 215.933 124.859 215.933 123.696C215.933 123.291 216.013 122.907 216.173 122.544C216.333 122.171 216.557 121.845 216.845 121.568C217.144 121.291 217.501 121.072 217.917 120.912C218.333 120.741 218.797 120.656 219.309 120.656C219.906 120.656 220.418 120.747 220.845 120.928C221.272 121.109 221.618 121.344 221.885 121.632C222.162 121.909 222.36 122.219 222.477 122.56C222.605 122.901 222.669 123.232 222.669 123.552C222.669 123.861 222.621 124.155 222.525 124.432C222.44 124.699 222.317 124.949 222.157 125.184C222.008 125.419 221.832 125.627 221.629 125.808C221.437 125.989 221.234 126.149 221.021 126.288C222.28 126.885 222.92 127.829 222.941 129.12ZM217.181 129.216C217.181 129.408 217.213 129.611 217.277 129.824C217.352 130.027 217.474 130.219 217.645 130.4C217.816 130.571 218.034 130.715 218.301 130.832C218.568 130.949 218.904 131.008 219.309 131.008C219.672 131.008 219.986 130.955 220.253 130.848C220.53 130.741 220.754 130.608 220.925 130.448C221.096 130.277 221.224 130.085 221.309 129.872C221.394 129.659 221.437 129.44 221.437 129.216C221.437 128.875 221.373 128.576 221.245 128.32C221.117 128.064 220.93 127.84 220.685 127.648C220.45 127.456 220.162 127.296 219.821 127.168C219.49 127.029 219.112 126.912 218.685 126.816C218.205 127.083 217.832 127.413 217.565 127.808C217.309 128.203 217.181 128.672 217.181 129.216ZM221.181 123.536C221.181 123.376 221.144 123.2 221.069 123.008C221.005 122.816 220.898 122.64 220.749 122.48C220.6 122.309 220.408 122.171 220.173 122.064C219.938 121.947 219.65 121.888 219.309 121.888C218.968 121.888 218.674 121.941 218.429 122.048C218.194 122.155 218.002 122.293 217.853 122.464C217.704 122.624 217.592 122.805 217.517 123.008C217.453 123.2 217.421 123.392 217.421 123.584C217.421 123.819 217.464 124.053 217.549 124.288C217.634 124.523 217.768 124.741 217.949 124.944C218.13 125.147 218.365 125.328 218.653 125.488C218.952 125.648 219.304 125.776 219.709 125.872C220.157 125.605 220.514 125.296 220.781 124.944C221.048 124.581 221.181 124.112 221.181 123.536ZM225.316 123.2C225.924 122.965 226.516 122.667 227.092 122.304C227.668 121.931 228.196 121.467 228.676 120.912H229.732V132H228.244V122.976C228.116 123.093 227.956 123.216 227.764 123.344C227.583 123.472 227.38 123.595 227.156 123.712C226.943 123.829 226.713 123.941 226.468 124.048C226.233 124.155 226.004 124.245 225.78 124.32L225.316 123.2Z" fill="#8D9399"/>
<path d="M320.544 123.84H323.136L323.696 120.912H325.04L324.48 123.84H325.888V125.024H324.24L323.696 127.888H325.888V129.072H323.472L322.912 132H321.568L322.128 129.072H319.536L318.976 132H317.632L318.192 129.072H316.784V127.888H318.416L318.96 125.024H316.784V123.84H319.2L319.76 120.912H321.104L320.544 123.84ZM319.76 127.888H322.352L322.912 125.024H320.32L319.76 127.888ZM328.048 132V120.912H334.736V122.24H329.6V125.584H334.16V126.896H329.6V132H328.048ZM336.642 132V120.912H343.33V122.24H338.194V125.584H342.754V126.896H338.194V132H336.642ZM351.875 125.344C351.875 127.541 351.326 129.205 350.227 130.336C349.139 131.456 347.518 132.021 345.363 132.032L345.315 130.784C345.987 130.784 346.59 130.72 347.123 130.592C347.667 130.464 348.142 130.261 348.547 129.984C348.953 129.696 349.289 129.328 349.555 128.88C349.833 128.432 350.035 127.883 350.163 127.232C349.886 127.36 349.571 127.467 349.219 127.552C348.867 127.627 348.505 127.664 348.131 127.664C347.502 127.664 346.969 127.573 346.531 127.392C346.094 127.2 345.737 126.949 345.459 126.64C345.182 126.32 344.979 125.957 344.851 125.552C344.734 125.136 344.675 124.704 344.675 124.256C344.675 123.861 344.745 123.451 344.883 123.024C345.022 122.597 345.23 122.208 345.507 121.856C345.795 121.504 346.158 121.216 346.595 120.992C347.033 120.768 347.55 120.656 348.147 120.656C348.755 120.656 349.289 120.763 349.747 120.976C350.217 121.189 350.606 121.499 350.915 121.904C351.235 122.309 351.475 122.805 351.635 123.392C351.795 123.968 351.875 124.619 351.875 125.344ZM348.291 126.448C348.665 126.448 349.017 126.416 349.347 126.352C349.678 126.277 349.998 126.171 350.307 126.032C350.318 125.915 350.323 125.803 350.323 125.696C350.323 125.579 350.323 125.461 350.323 125.344C350.323 124.885 350.291 124.448 350.227 124.032C350.163 123.605 350.046 123.237 349.875 122.928C349.715 122.608 349.497 122.357 349.219 122.176C348.942 121.984 348.59 121.888 348.163 121.888C347.811 121.888 347.513 121.963 347.267 122.112C347.022 122.261 346.819 122.453 346.659 122.688C346.499 122.912 346.382 123.163 346.307 123.44C346.243 123.707 346.211 123.968 346.211 124.224C346.211 124.949 346.382 125.504 346.723 125.888C347.075 126.261 347.598 126.448 348.291 126.448ZM356.075 125.184C357.685 125.248 358.864 125.6 359.611 126.24C360.368 126.88 360.747 127.749 360.747 128.848C360.747 129.339 360.661 129.792 360.491 130.208C360.331 130.624 360.08 130.981 359.739 131.28C359.408 131.579 358.987 131.813 358.475 131.984C357.963 132.155 357.355 132.24 356.651 132.24C356.373 132.24 356.091 132.219 355.803 132.176C355.515 132.133 355.248 132.08 355.003 132.016C354.757 131.952 354.539 131.888 354.347 131.824C354.155 131.76 354.016 131.707 353.931 131.664L354.219 130.368C354.4 130.453 354.693 130.565 355.099 130.704C355.515 130.843 356.021 130.912 356.619 130.912C357.099 130.912 357.499 130.859 357.819 130.752C358.149 130.645 358.416 130.501 358.619 130.32C358.821 130.139 358.965 129.931 359.051 129.696C359.147 129.451 359.195 129.195 359.195 128.928C359.195 128.523 359.125 128.165 358.987 127.856C358.848 127.536 358.603 127.269 358.251 127.056C357.899 126.843 357.429 126.683 356.843 126.576C356.256 126.459 355.515 126.4 354.619 126.4C354.683 125.877 354.731 125.387 354.763 124.928C354.805 124.469 354.843 124.021 354.875 123.584C354.907 123.147 354.933 122.715 354.955 122.288C354.976 121.851 354.997 121.392 355.019 120.912H360.363V122.176H356.315C356.304 122.336 356.288 122.555 356.267 122.832C356.245 123.099 356.224 123.381 356.203 123.68C356.181 123.968 356.16 124.251 356.139 124.528C356.117 124.805 356.096 125.024 356.075 125.184ZM362.722 126.448C362.722 124.592 363.047 123.163 363.698 122.16C364.359 121.157 365.271 120.656 366.434 120.656C367.597 120.656 368.503 121.157 369.154 122.16C369.815 123.163 370.146 124.592 370.146 126.448C370.146 128.304 369.815 129.733 369.154 130.736C368.503 131.739 367.597 132.24 366.434 132.24C365.271 132.24 364.359 131.739 363.698 130.736C363.047 129.733 362.722 128.304 362.722 126.448ZM368.578 126.448C368.578 125.84 368.541 125.264 368.466 124.72C368.402 124.176 368.285 123.701 368.114 123.296C367.954 122.891 367.735 122.571 367.458 122.336C367.181 122.091 366.839 121.968 366.434 121.968C366.029 121.968 365.687 122.091 365.41 122.336C365.133 122.571 364.909 122.891 364.738 123.296C364.578 123.701 364.461 124.176 364.386 124.72C364.322 125.264 364.29 125.84 364.29 126.448C364.29 127.056 364.322 127.632 364.386 128.176C364.461 128.72 364.578 129.195 364.738 129.6C364.909 130.005 365.133 130.331 365.41 130.576C365.687 130.811 366.029 130.928 366.434 130.928C366.839 130.928 367.181 130.811 367.458 130.576C367.735 130.331 367.954 130.005 368.114 129.6C368.285 129.195 368.402 128.72 368.466 128.176C368.541 127.632 368.578 127.056 368.578 126.448ZM371.753 126.448C371.753 124.592 372.078 123.163 372.729 122.16C373.39 121.157 374.302 120.656 375.465 120.656C376.628 120.656 377.534 121.157 378.185 122.16C378.846 123.163 379.177 124.592 379.177 126.448C379.177 128.304 378.846 129.733 378.185 130.736C377.534 131.739 376.628 132.24 375.465 132.24C374.302 132.24 373.39 131.739 372.729 130.736C372.078 129.733 371.753 128.304 371.753 126.448ZM377.609 126.448C377.609 125.84 377.572 125.264 377.497 124.72C377.433 124.176 377.316 123.701 377.145 123.296C376.985 122.891 376.766 122.571 376.489 122.336C376.212 122.091 375.87 121.968 375.465 121.968C375.06 121.968 374.718 122.091 374.441 122.336C374.164 122.571 373.94 122.891 373.769 123.296C373.609 123.701 373.492 124.176 373.417 124.72C373.353 125.264 373.321 125.84 373.321 126.448C373.321 127.056 373.353 127.632 373.417 128.176C373.492 128.72 373.609 129.195 373.769 129.6C373.94 130.005 374.164 130.331 374.441 130.576C374.718 130.811 375.06 130.928 375.465 130.928C375.87 130.928 376.212 130.811 376.489 130.576C376.766 130.331 376.985 130.005 377.145 129.6C377.316 129.195 377.433 128.72 377.497 128.176C377.572 127.632 377.609 127.056 377.609 126.448Z" fill="#8D9399"/>
<path d="M25.84 20.16C25.1067 20.16 24.3667 20.1333 23.62 20.08C22.8733 20.04 22.22 19.9467 21.66 19.8V6.34C21.9533 6.28667 22.2667 6.24 22.6 6.2C22.9333 6.14667 23.2733 6.10667 23.62 6.08C23.9667 6.05333 24.3067 6.03333 24.64 6.02C24.9867 6.00667 25.3133 6 25.62 6C26.46 6 27.24 6.06667 27.96 6.2C28.68 6.32 29.3 6.52667 29.82 6.82C30.3533 7.11333 30.7667 7.5 31.06 7.98C31.3533 8.46 31.5 9.05333 31.5 9.76C31.5 10.4133 31.34 10.9733 31.02 11.44C30.7133 11.9067 30.28 12.28 29.72 12.56C30.56 12.84 31.18 13.2533 31.58 13.8C31.98 14.3467 32.18 15.04 32.18 15.88C32.18 17.3067 31.66 18.38 30.62 19.1C29.58 19.8067 27.9867 20.16 25.84 20.16ZM24.14 13.76V17.98C24.42 18.0067 24.72 18.0267 25.04 18.04C25.36 18.0533 25.6533 18.06 25.92 18.06C26.44 18.06 26.92 18.0267 27.36 17.96C27.8133 17.8933 28.2 17.78 28.52 17.62C28.8533 17.4467 29.1133 17.22 29.3 16.94C29.5 16.66 29.6 16.3 29.6 15.86C29.6 15.0733 29.3133 14.5267 28.74 14.22C28.1667 13.9133 27.3733 13.76 26.36 13.76H24.14ZM24.14 11.78H25.92C26.88 11.78 27.6333 11.6467 28.18 11.38C28.7267 11.1 29 10.6067 29 9.9C29 9.23333 28.7133 8.76 28.14 8.48C27.58 8.2 26.8467 8.06 25.94 8.06C25.5533 8.06 25.2067 8.06667 24.9 8.08C24.6067 8.09333 24.3533 8.11333 24.14 8.14V11.78ZM38.3645 18.3C39.1112 18.3 39.6779 18.26 40.0645 18.18V15.5C39.9312 15.46 39.7379 15.42 39.4845 15.38C39.2312 15.34 38.9512 15.32 38.6445 15.32C38.3779 15.32 38.1045 15.34 37.8245 15.38C37.5579 15.42 37.3112 15.4933 37.0845 15.6C36.8712 15.7067 36.6979 15.86 36.5645 16.06C36.4312 16.2467 36.3645 16.4867 36.3645 16.78C36.3645 17.3533 36.5445 17.7533 36.9045 17.98C37.2645 18.1933 37.7512 18.3 38.3645 18.3ZM38.1645 9.28C38.9645 9.28 39.6379 9.38 40.1845 9.58C40.7312 9.78 41.1645 10.06 41.4845 10.42C41.8179 10.78 42.0512 11.22 42.1845 11.74C42.3312 12.2467 42.4045 12.8067 42.4045 13.42V19.76C42.0312 19.84 41.4645 19.9333 40.7045 20.04C39.9579 20.16 39.1112 20.22 38.1645 20.22C37.5379 20.22 36.9645 20.16 36.4445 20.04C35.9245 19.92 35.4779 19.7267 35.1045 19.46C34.7445 19.1933 34.4579 18.8467 34.2445 18.42C34.0445 17.9933 33.9445 17.4667 33.9445 16.84C33.9445 16.24 34.0579 15.7333 34.2845 15.32C34.5245 14.9067 34.8445 14.5733 35.2445 14.32C35.6445 14.0533 36.1045 13.8667 36.6245 13.76C37.1579 13.64 37.7112 13.58 38.2845 13.58C38.5512 13.58 38.8312 13.6 39.1245 13.64C39.4179 13.6667 39.7312 13.72 40.0645 13.8V13.4C40.0645 13.12 40.0312 12.8533 39.9645 12.6C39.8979 12.3467 39.7779 12.1267 39.6045 11.94C39.4445 11.74 39.2245 11.5867 38.9445 11.48C38.6779 11.3733 38.3379 11.32 37.9245 11.32C37.3645 11.32 36.8512 11.36 36.3845 11.44C35.9179 11.52 35.5379 11.6133 35.2445 11.72L34.9445 9.76C35.2512 9.65333 35.6979 9.54667 36.2845 9.44C36.8712 9.33333 37.4979 9.28 38.1645 9.28ZM47.9881 18.26C48.6281 18.26 49.0948 18.1867 49.3881 18.04C49.6815 17.88 49.8281 17.6133 49.8281 17.24C49.8281 16.8933 49.6681 16.6067 49.3481 16.38C49.0415 16.1533 48.5281 15.9067 47.8081 15.64C47.3681 15.48 46.9615 15.3133 46.5881 15.14C46.2281 14.9533 45.9148 14.74 45.6481 14.5C45.3815 14.26 45.1681 13.9733 45.0081 13.64C44.8615 13.2933 44.7881 12.8733 44.7881 12.38C44.7881 11.42 45.1415 10.6667 45.8481 10.12C46.5548 9.56 47.5148 9.28 48.7281 9.28C49.3415 9.28 49.9281 9.34 50.4881 9.46C51.0481 9.56667 51.4681 9.67333 51.7481 9.78L51.3081 11.74C51.0415 11.62 50.7015 11.5133 50.2881 11.42C49.8748 11.3133 49.3948 11.26 48.8481 11.26C48.3548 11.26 47.9548 11.3467 47.6481 11.52C47.3415 11.68 47.1881 11.9333 47.1881 12.28C47.1881 12.4533 47.2148 12.6067 47.2681 12.74C47.3348 12.8733 47.4415 13 47.5881 13.12C47.7348 13.2267 47.9281 13.34 48.1681 13.46C48.4081 13.5667 48.7015 13.68 49.0481 13.8C49.6215 14.0133 50.1081 14.2267 50.5081 14.44C50.9081 14.64 51.2348 14.8733 51.4881 15.14C51.7548 15.3933 51.9481 15.6867 52.0681 16.02C52.1881 16.3533 52.2481 16.7533 52.2481 17.22C52.2481 18.22 51.8748 18.98 51.1281 19.5C50.3948 20.0067 49.3415 20.26 47.9681 20.26C47.0481 20.26 46.3081 20.18 45.7481 20.02C45.1881 19.8733 44.7948 19.7533 44.5681 19.66L44.9881 17.64C45.3481 17.7867 45.7748 17.9267 46.2681 18.06C46.7748 18.1933 47.3481 18.26 47.9881 18.26ZM53.9288 14.82C53.9288 13.9 54.0621 13.0933 54.3288 12.4C54.6088 11.7067 54.9754 11.1333 55.4288 10.68C55.8821 10.2133 56.4021 9.86667 56.9888 9.64C57.5754 9.4 58.1754 9.28 58.7888 9.28C60.2288 9.28 61.3488 9.72667 62.1488 10.62C62.9621 11.5133 63.3688 12.8467 63.3688 14.62C63.3688 14.7533 63.3621 14.9067 63.3488 15.08C63.3488 15.24 63.3421 15.3867 63.3288 15.52H56.4288C56.4954 16.36 56.7888 17.0133 57.3088 17.48C57.8421 17.9333 58.6088 18.16 59.6088 18.16C60.1954 18.16 60.7288 18.1067 61.2088 18C61.7021 17.8933 62.0888 17.78 62.3688 17.66L62.6888 19.64C62.5554 19.7067 62.3688 19.78 62.1288 19.86C61.9021 19.9267 61.6354 19.9867 61.3288 20.04C61.0354 20.1067 60.7154 20.16 60.3688 20.2C60.0221 20.24 59.6688 20.26 59.3088 20.26C58.3888 20.26 57.5888 20.1267 56.9088 19.86C56.2288 19.58 55.6688 19.2 55.2288 18.72C54.7888 18.2267 54.4621 17.6533 54.2488 17C54.0354 16.3333 53.9288 15.6067 53.9288 14.82ZM60.9488 13.74C60.9488 13.4067 60.9021 13.0933 60.8088 12.8C60.7154 12.4933 60.5754 12.2333 60.3888 12.02C60.2154 11.7933 59.9954 11.62 59.7288 11.5C59.4754 11.3667 59.1688 11.3 58.8088 11.3C58.4354 11.3 58.1088 11.3733 57.8288 11.52C57.5488 11.6533 57.3088 11.8333 57.1088 12.06C56.9221 12.2867 56.7754 12.5467 56.6688 12.84C56.5621 13.1333 56.4888 13.4333 56.4488 13.74H60.9488ZM76.8825 20.3C75.8425 20.3 74.9092 20.14 74.0825 19.82C73.2558 19.5 72.5558 19.0333 71.9825 18.42C71.4092 17.7933 70.9692 17.0333 70.6625 16.14C70.3558 15.2467 70.2025 14.22 70.2025 13.06C70.2025 11.9 70.3758 10.8733 70.7225 9.98C71.0825 9.08667 71.5692 8.33333 72.1825 7.72C72.7958 7.09333 73.5158 6.62 74.3425 6.3C75.1692 5.98 76.0558 5.82 77.0025 5.82C77.5758 5.82 78.0958 5.86667 78.5625 5.96C79.0292 6.04 79.4358 6.13333 79.7825 6.24C80.1292 6.34667 80.4158 6.46 80.6425 6.58C80.8692 6.7 81.0292 6.78667 81.1225 6.84L80.3825 8.9C80.0625 8.7 79.6025 8.51333 79.0025 8.34C78.4158 8.15333 77.7758 8.06 77.0825 8.06C76.4825 8.06 75.9225 8.16667 75.4025 8.38C74.8825 8.58 74.4292 8.88667 74.0425 9.3C73.6692 9.71333 73.3758 10.2333 73.1625 10.86C72.9492 11.4867 72.8425 12.2133 72.8425 13.04C72.8425 13.7733 72.9225 14.4467 73.0825 15.06C73.2558 15.6733 73.5158 16.2067 73.8625 16.66C74.2092 17.1 74.6492 17.4467 75.1825 17.7C75.7158 17.94 76.3558 18.06 77.1025 18.06C77.9958 18.06 78.7225 17.9733 79.2825 17.8C79.8425 17.6133 80.2758 17.44 80.5825 17.28L81.2625 19.34C81.1025 19.4467 80.8825 19.5533 80.6025 19.66C80.3358 19.7667 80.0158 19.8733 79.6425 19.98C79.2692 20.0733 78.8492 20.1467 78.3825 20.2C77.9158 20.2667 77.4158 20.3 76.8825 20.3ZM92.5625 14.76C92.5625 15.5867 92.4425 16.34 92.2025 17.02C91.9625 17.7 91.6225 18.28 91.1825 18.76C90.7425 19.24 90.2092 19.6133 89.5825 19.88C88.9692 20.1467 88.2892 20.28 87.5425 20.28C86.7958 20.28 86.1158 20.1467 85.5025 19.88C84.8892 19.6133 84.3625 19.24 83.9225 18.76C83.4825 18.28 83.1358 17.7 82.8825 17.02C82.6425 16.34 82.5225 15.5867 82.5225 14.76C82.5225 13.9333 82.6425 13.1867 82.8825 12.52C83.1358 11.84 83.4825 11.26 83.9225 10.78C84.3758 10.3 84.9092 9.93333 85.5225 9.68C86.1358 9.41333 86.8092 9.28 87.5425 9.28C88.2758 9.28 88.9492 9.41333 89.5625 9.68C90.1892 9.93333 90.7225 10.3 91.1625 10.78C91.6025 11.26 91.9425 11.84 92.1825 12.52C92.4358 13.1867 92.5625 13.9333 92.5625 14.76ZM90.0825 14.76C90.0825 13.72 89.8558 12.9 89.4025 12.3C88.9625 11.6867 88.3425 11.38 87.5425 11.38C86.7425 11.38 86.1158 11.6867 85.6625 12.3C85.2225 12.9 85.0025 13.72 85.0025 14.76C85.0025 15.8133 85.2225 16.6467 85.6625 17.26C86.1158 17.8733 86.7425 18.18 87.5425 18.18C88.3425 18.18 88.9625 17.8733 89.4025 17.26C89.8558 16.6467 90.0825 15.8133 90.0825 14.76ZM98.6956 20.2C97.9756 20.1867 97.3756 20.1067 96.8956 19.96C96.429 19.8133 96.0556 19.6067 95.7756 19.34C95.4956 19.06 95.2956 18.72 95.1756 18.32C95.069 17.9067 95.0156 17.44 95.0156 16.92V4.88L97.4356 4.48V16.46C97.4356 16.7533 97.4556 17 97.4956 17.2C97.549 17.4 97.6356 17.5733 97.7556 17.72C97.8756 17.8533 98.0356 17.96 98.2356 18.04C98.449 18.1067 98.7156 18.16 99.0356 18.2L98.6956 20.2ZM110.453 14.76C110.453 15.5867 110.333 16.34 110.093 17.02C109.853 17.7 109.513 18.28 109.073 18.76C108.633 19.24 108.1 19.6133 107.473 19.88C106.86 20.1467 106.18 20.28 105.433 20.28C104.686 20.28 104.006 20.1467 103.393 19.88C102.78 19.6133 102.253 19.24 101.813 18.76C101.373 18.28 101.026 17.7 100.773 17.02C100.533 16.34 100.413 15.5867 100.413 14.76C100.413 13.9333 100.533 13.1867 100.773 12.52C101.026 11.84 101.373 11.26 101.813 10.78C102.266 10.3 102.8 9.93333 103.413 9.68C104.026 9.41333 104.7 9.28 105.433 9.28C106.166 9.28 106.84 9.41333 107.453 9.68C108.08 9.93333 108.613 10.3 109.053 10.78C109.493 11.26 109.833 11.84 110.073 12.52C110.326 13.1867 110.453 13.9333 110.453 14.76ZM107.973 14.76C107.973 13.72 107.746 12.9 107.293 12.3C106.853 11.6867 106.233 11.38 105.433 11.38C104.633 11.38 104.006 11.6867 103.553 12.3C103.113 12.9 102.893 13.72 102.893 14.76C102.893 15.8133 103.113 16.6467 103.553 17.26C104.006 17.8733 104.633 18.18 105.433 18.18C106.233 18.18 106.853 17.8733 107.293 17.26C107.746 16.6467 107.973 15.8133 107.973 14.76ZM121.526 19.68C121.06 19.8 120.453 19.92 119.706 20.04C118.96 20.1733 118.14 20.24 117.246 20.24C116.406 20.24 115.7 20.12 115.126 19.88C114.566 19.64 114.113 19.3067 113.766 18.88C113.433 18.4533 113.193 17.9467 113.046 17.36C112.9 16.76 112.826 16.1067 112.826 15.4V9.54H115.246V15.02C115.246 16.14 115.406 16.94 115.726 17.42C116.06 17.9 116.633 18.14 117.446 18.14C117.74 18.14 118.046 18.1267 118.366 18.1C118.7 18.0733 118.946 18.04 119.106 18V9.54H121.526V19.68ZM130.566 11.72C130.366 11.6533 130.086 11.5867 129.726 11.52C129.38 11.44 128.973 11.4 128.506 11.4C128.24 11.4 127.953 11.4267 127.646 11.48C127.353 11.5333 127.146 11.58 127.026 11.62V20H124.606V10.04C125.073 9.86667 125.653 9.70667 126.346 9.56C127.053 9.4 127.833 9.32 128.686 9.32C128.846 9.32 129.033 9.33333 129.246 9.36C129.46 9.37333 129.673 9.4 129.886 9.44C130.1 9.46667 130.306 9.50667 130.506 9.56C130.706 9.6 130.866 9.64 130.986 9.68L130.566 11.72Z" fill="#403F3D"/>
<defs>
<filter id="filter0_d" x="0" y="31" width="140" height="100" filterUnits="userSpaceOnUse" color-interpolation-filters="sRGB">
<feFlood flood-opacity="0" result="BackgroundImageFix"/>
<feColorMatrix in="SourceAlpha" type="matrix" values="0 0 0 0 0 0 0 0 0 0 0 0 0 0 0 0 0 0 127 0" result="hardAlpha"/>
<feOffset dy="10"/>
<feGaussianBlur stdDeviation="10"/>
<feColorMatrix type="matrix" values="0 0 0 0 0 0 0 0 0 0 0 0 0 0 0 0 0 0 0.08 0"/>
<feBlend mode="normal" in2="BackgroundImageFix" result="effect1_dropShadow"/>
<feBlend mode="normal" in="SourceGraphic" in2="effect1_dropShadow" result="shape"/>
</filter>
<filter id="filter1_d" x="444" y="31" width="140" height="100" filterUnits="userSpaceOnUse" color-interpolation-filters="sRGB">
<feFlood flood-opacity="0" result="BackgroundImageFix"/>
<feColorMatrix in="SourceAlpha" type="matrix" values="0 0 0 0 0 0 0 0 0 0 0 0 0 0 0 0 0 0 127 0" result="hardAlpha"/>
<feOffset dy="10"/>
<feGaussianBlur stdDeviation="10"/>
<feColorMatrix type="matrix" values="0 0 0 0 0 0 0 0 0 0 0 0 0 0 0 0 0 0 0.08 0"/>
<feBlend mode="normal" in2="BackgroundImageFix" result="effect1_dropShadow"/>
<feBlend mode="normal" in="SourceGraphic" in2="effect1_dropShadow" result="shape"/>
</filter>
<filter id="filter2_d" x="148" y="31" width="140" height="100" filterUnits="userSpaceOnUse" color-interpolation-filters="sRGB">
<feFlood flood-opacity="0" result="BackgroundImageFix"/>
<feColorMatrix in="SourceAlpha" type="matrix" values="0 0 0 0 0 0 0 0 0 0 0 0 0 0 0 0 0 0 127 0" result="hardAlpha"/>
<feOffset dy="10"/>
<feGaussianBlur stdDeviation="10"/>
<feColorMatrix type="matrix" values="0 0 0 0 0 0 0 0 0 0 0 0 0 0 0 0 0 0 0.08 0"/>
<feBlend mode="normal" in2="BackgroundImageFix" result="effect1_dropShadow"/>
<feBlend mode="normal" in="SourceGraphic" in2="effect1_dropShadow" result="shape"/>
</filter>
<filter id="filter3_d" x="296" y="31" width="140" height="100" filterUnits="userSpaceOnUse" color-interpolation-filters="sRGB">
<feFlood flood-opacity="0" result="BackgroundImageFix"/>
<feColorMatrix in="SourceAlpha" type="matrix" values="0 0 0 0 0 0 0 0 0 0 0 0 0 0 0 0 0 0 127 0" result="hardAlpha"/>
<feOffset dy="10"/>
<feGaussianBlur stdDeviation="10"/>
<feColorMatrix type="matrix" values="0 0 0 0 0 0 0 0 0 0 0 0 0 0 0 0 0 0 0.08 0"/>
<feBlend mode="normal" in2="BackgroundImageFix" result="effect1_dropShadow"/>
<feBlend mode="normal" in="SourceGraphic" in2="effect1_dropShadow" result="shape"/>
</filter>
</defs>
</svg>
