<svg width="732" height="135" viewBox="0 0 732 135" fill="none" xmlns="http://www.w3.org/2000/svg">
<g filter="url(#filter0_d)">
<rect x="20" y="41" width="100" height="60" rx="8" fill="#303133"/>
</g>
<g filter="url(#filter1_d)">
<rect x="612" y="41" width="100" height="60" rx="8" fill="white"/>
</g>
<path d="M24.544 123.84H27.136L27.696 120.912H29.04L28.48 123.84H29.888V125.024H28.24L27.696 127.888H29.888V129.072H27.472L26.912 132H25.568L26.128 129.072H23.536L22.976 132H21.632L22.192 129.072H20.784V127.888H22.416L22.96 125.024H20.784V123.84H23.2L23.76 120.912H25.104L24.544 123.84ZM23.76 127.888H26.352L26.912 125.024H24.32L23.76 127.888ZM34.2879 130.912C35.2372 130.912 35.9145 130.725 36.3199 130.352C36.7359 129.979 36.9439 129.477 36.9439 128.848C36.9439 128.443 36.8585 128.101 36.6879 127.824C36.5172 127.547 36.2932 127.328 36.0159 127.168C35.7385 126.997 35.4132 126.88 35.0399 126.816C34.6772 126.741 34.3039 126.704 33.9199 126.704H33.5359V125.488H34.0639C34.3305 125.488 34.6025 125.461 34.8799 125.408C35.1679 125.355 35.4292 125.259 35.6639 125.12C35.8985 124.981 36.0905 124.795 36.2399 124.56C36.3892 124.315 36.4639 124.011 36.4639 123.648C36.4639 123.349 36.4105 123.093 36.3039 122.88C36.1972 122.667 36.0532 122.491 35.8719 122.352C35.7012 122.213 35.4985 122.117 35.2639 122.064C35.0399 122 34.7999 121.968 34.5439 121.968C34.0319 121.968 33.5945 122.043 33.2319 122.192C32.8799 122.341 32.5812 122.496 32.3359 122.656L31.7599 121.52C31.8879 121.435 32.0479 121.344 32.2399 121.248C32.4425 121.141 32.6665 121.045 32.9119 120.96C33.1572 120.875 33.4185 120.805 33.6959 120.752C33.9839 120.688 34.2825 120.656 34.5919 120.656C35.1785 120.656 35.6852 120.731 36.1119 120.88C36.5385 121.019 36.8905 121.221 37.1679 121.488C37.4452 121.744 37.6532 122.053 37.7919 122.416C37.9305 122.768 37.9999 123.152 37.9999 123.568C37.9999 124.144 37.8345 124.64 37.5039 125.056C37.1732 125.461 36.7732 125.771 36.3039 125.984C36.5919 126.069 36.8692 126.192 37.1359 126.352C37.4025 126.512 37.6319 126.715 37.8239 126.96C38.0265 127.205 38.1865 127.488 38.3039 127.808C38.4319 128.128 38.4959 128.485 38.4959 128.88C38.4959 129.36 38.4105 129.808 38.2399 130.224C38.0799 130.629 37.8239 130.981 37.4719 131.28C37.1305 131.579 36.6985 131.813 36.1759 131.984C35.6532 132.155 35.0345 132.24 34.3199 132.24C34.0425 132.24 33.7545 132.219 33.4559 132.176C33.1679 132.133 32.8959 132.08 32.6399 132.016C32.3839 131.952 32.1599 131.888 31.9679 131.824C31.7759 131.76 31.6372 131.707 31.5519 131.664L31.8399 130.368C32.0212 130.453 32.3199 130.565 32.7359 130.704C33.1625 130.843 33.6799 130.912 34.2879 130.912ZM40.5031 126.448C40.5031 124.592 40.8285 123.163 41.4791 122.16C42.1405 121.157 43.0525 120.656 44.2151 120.656C45.3778 120.656 46.2845 121.157 46.9351 122.16C47.5965 123.163 47.9271 124.592 47.9271 126.448C47.9271 128.304 47.5965 129.733 46.9351 130.736C46.2845 131.739 45.3778 132.24 44.2151 132.24C43.0525 132.24 42.1405 131.739 41.4791 130.736C40.8285 129.733 40.5031 128.304 40.5031 126.448ZM46.3591 126.448C46.3591 125.84 46.3218 125.264 46.2471 124.72C46.1831 124.176 46.0658 123.701 45.8951 123.296C45.7351 122.891 45.5165 122.571 45.2391 122.336C44.9618 122.091 44.6205 121.968 44.2151 121.968C43.8098 121.968 43.4685 122.091 43.1911 122.336C42.9138 122.571 42.6898 122.891 42.5191 123.296C42.3591 123.701 42.2418 124.176 42.1671 124.72C42.1031 125.264 42.0711 125.84 42.0711 126.448C42.0711 127.056 42.1031 127.632 42.1671 128.176C42.2418 128.72 42.3591 129.195 42.5191 129.6C42.6898 130.005 42.9138 130.331 43.1911 130.576C43.4685 130.811 43.8098 130.928 44.2151 130.928C44.6205 130.928 44.9618 130.811 45.2391 130.576C45.5165 130.331 45.7351 130.005 45.8951 129.6C46.0658 129.195 46.1831 128.72 46.2471 128.176C46.3218 127.632 46.3591 127.056 46.3591 126.448ZM52.3504 130.912C53.2997 130.912 53.977 130.725 54.3824 130.352C54.7984 129.979 55.0064 129.477 55.0064 128.848C55.0064 128.443 54.921 128.101 54.7504 127.824C54.5797 127.547 54.3557 127.328 54.0784 127.168C53.801 126.997 53.4757 126.88 53.1024 126.816C52.7397 126.741 52.3664 126.704 51.9824 126.704H51.5984V125.488H52.1264C52.393 125.488 52.665 125.461 52.9424 125.408C53.2304 125.355 53.4917 125.259 53.7264 125.12C53.961 124.981 54.153 124.795 54.3024 124.56C54.4517 124.315 54.5264 124.011 54.5264 123.648C54.5264 123.349 54.473 123.093 54.3664 122.88C54.2597 122.667 54.1157 122.491 53.9344 122.352C53.7637 122.213 53.561 122.117 53.3264 122.064C53.1024 122 52.8624 121.968 52.6064 121.968C52.0944 121.968 51.657 122.043 51.2944 122.192C50.9424 122.341 50.6437 122.496 50.3984 122.656L49.8224 121.52C49.9504 121.435 50.1104 121.344 50.3024 121.248C50.505 121.141 50.729 121.045 50.9744 120.96C51.2197 120.875 51.481 120.805 51.7584 120.752C52.0464 120.688 52.345 120.656 52.6544 120.656C53.241 120.656 53.7477 120.731 54.1744 120.88C54.601 121.019 54.953 121.221 55.2304 121.488C55.5077 121.744 55.7157 122.053 55.8544 122.416C55.993 122.768 56.0624 123.152 56.0624 123.568C56.0624 124.144 55.897 124.64 55.5664 125.056C55.2357 125.461 54.8357 125.771 54.3664 125.984C54.6544 126.069 54.9317 126.192 55.1984 126.352C55.465 126.512 55.6944 126.715 55.8864 126.96C56.089 127.205 56.249 127.488 56.3664 127.808C56.4944 128.128 56.5584 128.485 56.5584 128.88C56.5584 129.36 56.473 129.808 56.3024 130.224C56.1424 130.629 55.8864 130.981 55.5344 131.28C55.193 131.579 54.761 131.813 54.2384 131.984C53.7157 132.155 53.097 132.24 52.3824 132.24C52.105 132.24 51.817 132.219 51.5184 132.176C51.2304 132.133 50.9584 132.08 50.7024 132.016C50.4464 131.952 50.2224 131.888 50.0304 131.824C49.8384 131.76 49.6997 131.707 49.6144 131.664L49.9024 130.368C50.0837 130.453 50.3824 130.565 50.7984 130.704C51.225 130.843 51.7424 130.912 52.3504 130.912ZM59.2536 123.2C59.8616 122.965 60.4536 122.667 61.0296 122.304C61.6056 121.931 62.1336 121.467 62.6136 120.912H63.6696V132H62.1816V122.976C62.0536 123.093 61.8936 123.216 61.7016 123.344C61.5203 123.472 61.3176 123.595 61.0936 123.712C60.8803 123.829 60.651 123.941 60.4056 124.048C60.171 124.155 59.9416 124.245 59.7176 124.32L59.2536 123.2ZM70.4129 130.912C71.3622 130.912 72.0395 130.725 72.4449 130.352C72.8609 129.979 73.0689 129.477 73.0689 128.848C73.0689 128.443 72.9835 128.101 72.8129 127.824C72.6422 127.547 72.4182 127.328 72.1409 127.168C71.8635 126.997 71.5382 126.88 71.1649 126.816C70.8022 126.741 70.4289 126.704 70.0449 126.704H69.6609V125.488H70.1889C70.4555 125.488 70.7275 125.461 71.0049 125.408C71.2929 125.355 71.5542 125.259 71.7889 125.12C72.0235 124.981 72.2155 124.795 72.3649 124.56C72.5142 124.315 72.5889 124.011 72.5889 123.648C72.5889 123.349 72.5355 123.093 72.4289 122.88C72.3222 122.667 72.1782 122.491 71.9969 122.352C71.8262 122.213 71.6235 122.117 71.3889 122.064C71.1649 122 70.9249 121.968 70.6689 121.968C70.1569 121.968 69.7195 122.043 69.3569 122.192C69.0049 122.341 68.7062 122.496 68.4609 122.656L67.8849 121.52C68.0129 121.435 68.1729 121.344 68.3649 121.248C68.5675 121.141 68.7915 121.045 69.0369 120.96C69.2822 120.875 69.5435 120.805 69.8209 120.752C70.1089 120.688 70.4075 120.656 70.7169 120.656C71.3035 120.656 71.8102 120.731 72.2369 120.88C72.6635 121.019 73.0155 121.221 73.2929 121.488C73.5702 121.744 73.7782 122.053 73.9169 122.416C74.0555 122.768 74.1249 123.152 74.1249 123.568C74.1249 124.144 73.9595 124.64 73.6289 125.056C73.2982 125.461 72.8982 125.771 72.4289 125.984C72.7169 126.069 72.9942 126.192 73.2609 126.352C73.5275 126.512 73.7569 126.715 73.9489 126.96C74.1515 127.205 74.3115 127.488 74.4289 127.808C74.5569 128.128 74.6209 128.485 74.6209 128.88C74.6209 129.36 74.5355 129.808 74.3649 130.224C74.2049 130.629 73.9489 130.981 73.5969 131.28C73.2555 131.579 72.8235 131.813 72.3009 131.984C71.7782 132.155 71.1595 132.24 70.4449 132.24C70.1675 132.24 69.8795 132.219 69.5809 132.176C69.2929 132.133 69.0209 132.08 68.7649 132.016C68.5089 131.952 68.2849 131.888 68.0929 131.824C67.9009 131.76 67.7622 131.707 67.6769 131.664L67.9649 130.368C68.1462 130.453 68.4449 130.565 68.8609 130.704C69.2875 130.843 69.8049 130.912 70.4129 130.912ZM79.4441 130.912C80.3935 130.912 81.0708 130.725 81.4761 130.352C81.8921 129.979 82.1001 129.477 82.1001 128.848C82.1001 128.443 82.0148 128.101 81.8441 127.824C81.6735 127.547 81.4495 127.328 81.1721 127.168C80.8948 126.997 80.5695 126.88 80.1961 126.816C79.8335 126.741 79.4601 126.704 79.0761 126.704H78.6921V125.488H79.2201C79.4868 125.488 79.7588 125.461 80.0361 125.408C80.3241 125.355 80.5855 125.259 80.8201 125.12C81.0548 124.981 81.2468 124.795 81.3961 124.56C81.5455 124.315 81.6201 124.011 81.6201 123.648C81.6201 123.349 81.5668 123.093 81.4601 122.88C81.3535 122.667 81.2095 122.491 81.0281 122.352C80.8575 122.213 80.6548 122.117 80.4201 122.064C80.1961 122 79.9561 121.968 79.7001 121.968C79.1881 121.968 78.7508 122.043 78.3881 122.192C78.0361 122.341 77.7375 122.496 77.4921 122.656L76.9161 121.52C77.0441 121.435 77.2041 121.344 77.3961 121.248C77.5988 121.141 77.8228 121.045 78.0681 120.96C78.3135 120.875 78.5748 120.805 78.8521 120.752C79.1401 120.688 79.4388 120.656 79.7481 120.656C80.3348 120.656 80.8415 120.731 81.2681 120.88C81.6948 121.019 82.0468 121.221 82.3241 121.488C82.6015 121.744 82.8095 122.053 82.9481 122.416C83.0868 122.768 83.1561 123.152 83.1561 123.568C83.1561 124.144 82.9908 124.64 82.6601 125.056C82.3295 125.461 81.9295 125.771 81.4601 125.984C81.7481 126.069 82.0255 126.192 82.2921 126.352C82.5588 126.512 82.7881 126.715 82.9801 126.96C83.1828 127.205 83.3428 127.488 83.4601 127.808C83.5881 128.128 83.6521 128.485 83.6521 128.88C83.6521 129.36 83.5668 129.808 83.3961 130.224C83.2361 130.629 82.9801 130.981 82.6281 131.28C82.2868 131.579 81.8548 131.813 81.3321 131.984C80.8095 132.155 80.1908 132.24 79.4761 132.24C79.1988 132.24 78.9108 132.219 78.6121 132.176C78.3241 132.133 78.0521 132.08 77.7961 132.016C77.5401 131.952 77.3161 131.888 77.1241 131.824C76.9321 131.76 76.7935 131.707 76.7081 131.664L76.9961 130.368C77.1775 130.453 77.4761 130.565 77.8921 130.704C78.3188 130.843 78.8361 130.912 79.4441 130.912Z" fill="#8D9399"/>
<path d="M616.544 123.84H619.136L619.696 120.912H621.04L620.48 123.84H621.888V125.024H620.24L619.696 127.888H621.888V129.072H619.472L618.912 132H617.568L618.128 129.072H615.536L614.976 132H613.632L614.192 129.072H612.784V127.888H614.416L614.96 125.024H612.784V123.84H615.2L615.76 120.912H617.104L616.544 123.84ZM615.76 127.888H618.352L618.912 125.024H616.32L615.76 127.888ZM624.048 132V120.912H630.736V122.24H625.6V125.584H630.16V126.896H625.6V132H624.048ZM632.642 132V120.912H639.33V122.24H634.194V125.584H638.754V126.896H634.194V132H632.642ZM641.235 132V120.912H647.923V122.24H642.787V125.584H647.347V126.896H642.787V132H641.235ZM649.829 132V120.912H656.517V122.24H651.381V125.584H655.941V126.896H651.381V132H649.829ZM658.423 132V120.912H665.111V122.24H659.975V125.584H664.535V126.896H659.975V132H658.423ZM667.017 132V120.912H673.705V122.24H668.569V125.584H673.129V126.896H668.569V132H667.017Z" fill="#8D9399"/>
<g filter="url(#filter2_d)">
<rect x="168" y="41" width="100" height="60" rx="8" fill="#808080"/>
</g>
<g filter="url(#filter3_d)">
<rect x="316" y="41" width="100" height="60" rx="8" fill="#B3B3B3"/>
</g>
<g filter="url(#filter4_d)">
<rect x="464" y="41" width="100" height="60" rx="8" fill="#F2F2F2"/>
</g>
<path d="M172.544 123.84H175.136L175.696 120.912H177.04L176.48 123.84H177.888V125.024H176.24L175.696 127.888H177.888V129.072H175.472L174.912 132H173.568L174.128 129.072H171.536L170.976 132H169.632L170.192 129.072H168.784V127.888H170.416L170.96 125.024H168.784V123.84H171.2L171.76 120.912H173.104L172.544 123.84ZM171.76 127.888H174.352L174.912 125.024H172.32L171.76 127.888ZM186.816 129.12C186.816 129.568 186.736 129.984 186.576 130.368C186.427 130.741 186.197 131.072 185.888 131.36C185.589 131.637 185.211 131.851 184.752 132C184.293 132.16 183.765 132.24 183.168 132.24C182.475 132.24 181.893 132.144 181.424 131.952C180.965 131.749 180.597 131.499 180.32 131.2C180.043 130.901 179.845 130.576 179.728 130.224C179.611 129.861 179.552 129.52 179.552 129.2C179.552 128.891 179.6 128.597 179.696 128.32C179.803 128.032 179.936 127.765 180.096 127.52C180.267 127.275 180.459 127.056 180.672 126.864C180.896 126.661 181.131 126.485 181.376 126.336C180.331 125.739 179.808 124.859 179.808 123.696C179.808 123.291 179.888 122.907 180.048 122.544C180.208 122.171 180.432 121.845 180.72 121.568C181.019 121.291 181.376 121.072 181.792 120.912C182.208 120.741 182.672 120.656 183.184 120.656C183.781 120.656 184.293 120.747 184.72 120.928C185.147 121.109 185.493 121.344 185.76 121.632C186.037 121.909 186.235 122.219 186.352 122.56C186.48 122.901 186.544 123.232 186.544 123.552C186.544 123.861 186.496 124.155 186.4 124.432C186.315 124.699 186.192 124.949 186.032 125.184C185.883 125.419 185.707 125.627 185.504 125.808C185.312 125.989 185.109 126.149 184.896 126.288C186.155 126.885 186.795 127.829 186.816 129.12ZM181.056 129.216C181.056 129.408 181.088 129.611 181.152 129.824C181.227 130.027 181.349 130.219 181.52 130.4C181.691 130.571 181.909 130.715 182.176 130.832C182.443 130.949 182.779 131.008 183.184 131.008C183.547 131.008 183.861 130.955 184.128 130.848C184.405 130.741 184.629 130.608 184.8 130.448C184.971 130.277 185.099 130.085 185.184 129.872C185.269 129.659 185.312 129.44 185.312 129.216C185.312 128.875 185.248 128.576 185.12 128.32C184.992 128.064 184.805 127.84 184.56 127.648C184.325 127.456 184.037 127.296 183.696 127.168C183.365 127.029 182.987 126.912 182.56 126.816C182.08 127.083 181.707 127.413 181.44 127.808C181.184 128.203 181.056 128.672 181.056 129.216ZM185.056 123.536C185.056 123.376 185.019 123.2 184.944 123.008C184.88 122.816 184.773 122.64 184.624 122.48C184.475 122.309 184.283 122.171 184.048 122.064C183.813 121.947 183.525 121.888 183.184 121.888C182.843 121.888 182.549 121.941 182.304 122.048C182.069 122.155 181.877 122.293 181.728 122.464C181.579 122.624 181.467 122.805 181.392 123.008C181.328 123.2 181.296 123.392 181.296 123.584C181.296 123.819 181.339 124.053 181.424 124.288C181.509 124.523 181.643 124.741 181.824 124.944C182.005 125.147 182.24 125.328 182.528 125.488C182.827 125.648 183.179 125.776 183.584 125.872C184.032 125.605 184.389 125.296 184.656 124.944C184.923 124.581 185.056 124.112 185.056 123.536ZM188.503 126.448C188.503 124.592 188.828 123.163 189.479 122.16C190.14 121.157 191.052 120.656 192.215 120.656C193.378 120.656 194.284 121.157 194.935 122.16C195.596 123.163 195.927 124.592 195.927 126.448C195.927 128.304 195.596 129.733 194.935 130.736C194.284 131.739 193.378 132.24 192.215 132.24C191.052 132.24 190.14 131.739 189.479 130.736C188.828 129.733 188.503 128.304 188.503 126.448ZM194.359 126.448C194.359 125.84 194.322 125.264 194.247 124.72C194.183 124.176 194.066 123.701 193.895 123.296C193.735 122.891 193.516 122.571 193.239 122.336C192.962 122.091 192.62 121.968 192.215 121.968C191.81 121.968 191.468 122.091 191.191 122.336C190.914 122.571 190.69 122.891 190.519 123.296C190.359 123.701 190.242 124.176 190.167 124.72C190.103 125.264 190.071 125.84 190.071 126.448C190.071 127.056 190.103 127.632 190.167 128.176C190.242 128.72 190.359 129.195 190.519 129.6C190.69 130.005 190.914 130.331 191.191 130.576C191.468 130.811 191.81 130.928 192.215 130.928C192.62 130.928 192.962 130.811 193.239 130.576C193.516 130.331 193.735 130.005 193.895 129.6C194.066 129.195 194.183 128.72 194.247 128.176C194.322 127.632 194.359 127.056 194.359 126.448ZM204.878 129.12C204.878 129.568 204.798 129.984 204.638 130.368C204.489 130.741 204.26 131.072 203.95 131.36C203.652 131.637 203.273 131.851 202.814 132C202.356 132.16 201.828 132.24 201.23 132.24C200.537 132.24 199.956 132.144 199.486 131.952C199.028 131.749 198.66 131.499 198.382 131.2C198.105 130.901 197.908 130.576 197.79 130.224C197.673 129.861 197.614 129.52 197.614 129.2C197.614 128.891 197.662 128.597 197.758 128.32C197.865 128.032 197.998 127.765 198.158 127.52C198.329 127.275 198.521 127.056 198.734 126.864C198.958 126.661 199.193 126.485 199.438 126.336C198.393 125.739 197.87 124.859 197.87 123.696C197.87 123.291 197.95 122.907 198.11 122.544C198.27 122.171 198.494 121.845 198.782 121.568C199.081 121.291 199.438 121.072 199.854 120.912C200.27 120.741 200.734 120.656 201.246 120.656C201.844 120.656 202.356 120.747 202.782 120.928C203.209 121.109 203.556 121.344 203.822 121.632C204.1 121.909 204.297 122.219 204.414 122.56C204.542 122.901 204.606 123.232 204.606 123.552C204.606 123.861 204.558 124.155 204.462 124.432C204.377 124.699 204.254 124.949 204.094 125.184C203.945 125.419 203.769 125.627 203.566 125.808C203.374 125.989 203.172 126.149 202.958 126.288C204.217 126.885 204.857 127.829 204.878 129.12ZM199.118 129.216C199.118 129.408 199.15 129.611 199.214 129.824C199.289 130.027 199.412 130.219 199.582 130.4C199.753 130.571 199.972 130.715 200.238 130.832C200.505 130.949 200.841 131.008 201.246 131.008C201.609 131.008 201.924 130.955 202.19 130.848C202.468 130.741 202.692 130.608 202.862 130.448C203.033 130.277 203.161 130.085 203.246 129.872C203.332 129.659 203.374 129.44 203.374 129.216C203.374 128.875 203.31 128.576 203.182 128.32C203.054 128.064 202.868 127.84 202.622 127.648C202.388 127.456 202.1 127.296 201.758 127.168C201.428 127.029 201.049 126.912 200.622 126.816C200.142 127.083 199.769 127.413 199.502 127.808C199.246 128.203 199.118 128.672 199.118 129.216ZM203.118 123.536C203.118 123.376 203.081 123.2 203.006 123.008C202.942 122.816 202.836 122.64 202.686 122.48C202.537 122.309 202.345 122.171 202.11 122.064C201.876 121.947 201.588 121.888 201.246 121.888C200.905 121.888 200.612 121.941 200.366 122.048C200.132 122.155 199.94 122.293 199.79 122.464C199.641 122.624 199.529 122.805 199.454 123.008C199.39 123.2 199.358 123.392 199.358 123.584C199.358 123.819 199.401 124.053 199.486 124.288C199.572 124.523 199.705 124.741 199.886 124.944C200.068 125.147 200.302 125.328 200.59 125.488C200.889 125.648 201.241 125.776 201.646 125.872C202.094 125.605 202.452 125.296 202.718 124.944C202.985 124.581 203.118 124.112 203.118 123.536ZM206.566 126.448C206.566 124.592 206.891 123.163 207.542 122.16C208.203 121.157 209.115 120.656 210.278 120.656C211.44 120.656 212.347 121.157 212.998 122.16C213.659 123.163 213.99 124.592 213.99 126.448C213.99 128.304 213.659 129.733 212.998 130.736C212.347 131.739 211.44 132.24 210.278 132.24C209.115 132.24 208.203 131.739 207.542 130.736C206.891 129.733 206.566 128.304 206.566 126.448ZM212.422 126.448C212.422 125.84 212.384 125.264 212.31 124.72C212.246 124.176 212.128 123.701 211.958 123.296C211.798 122.891 211.579 122.571 211.302 122.336C211.024 122.091 210.683 121.968 210.278 121.968C209.872 121.968 209.531 122.091 209.254 122.336C208.976 122.571 208.752 122.891 208.582 123.296C208.422 123.701 208.304 124.176 208.23 124.72C208.166 125.264 208.134 125.84 208.134 126.448C208.134 127.056 208.166 127.632 208.23 128.176C208.304 128.72 208.422 129.195 208.582 129.6C208.752 130.005 208.976 130.331 209.254 130.576C209.531 130.811 209.872 130.928 210.278 130.928C210.683 130.928 211.024 130.811 211.302 130.576C211.579 130.331 211.798 130.005 211.958 129.6C212.128 129.195 212.246 128.72 212.31 128.176C212.384 127.632 212.422 127.056 212.422 126.448ZM222.941 129.12C222.941 129.568 222.861 129.984 222.701 130.368C222.552 130.741 222.322 131.072 222.013 131.36C221.714 131.637 221.336 131.851 220.877 132C220.418 132.16 219.89 132.24 219.293 132.24C218.6 132.24 218.018 132.144 217.549 131.952C217.09 131.749 216.722 131.499 216.445 131.2C216.168 130.901 215.97 130.576 215.853 130.224C215.736 129.861 215.677 129.52 215.677 129.2C215.677 128.891 215.725 128.597 215.821 128.32C215.928 128.032 216.061 127.765 216.221 127.52C216.392 127.275 216.584 127.056 216.797 126.864C217.021 126.661 217.256 126.485 217.501 126.336C216.456 125.739 215.933 124.859 215.933 123.696C215.933 123.291 216.013 122.907 216.173 122.544C216.333 122.171 216.557 121.845 216.845 121.568C217.144 121.291 217.501 121.072 217.917 120.912C218.333 120.741 218.797 120.656 219.309 120.656C219.906 120.656 220.418 120.747 220.845 120.928C221.272 121.109 221.618 121.344 221.885 121.632C222.162 121.909 222.36 122.219 222.477 122.56C222.605 122.901 222.669 123.232 222.669 123.552C222.669 123.861 222.621 124.155 222.525 124.432C222.44 124.699 222.317 124.949 222.157 125.184C222.008 125.419 221.832 125.627 221.629 125.808C221.437 125.989 221.234 126.149 221.021 126.288C222.28 126.885 222.92 127.829 222.941 129.12ZM217.181 129.216C217.181 129.408 217.213 129.611 217.277 129.824C217.352 130.027 217.474 130.219 217.645 130.4C217.816 130.571 218.034 130.715 218.301 130.832C218.568 130.949 218.904 131.008 219.309 131.008C219.672 131.008 219.986 130.955 220.253 130.848C220.53 130.741 220.754 130.608 220.925 130.448C221.096 130.277 221.224 130.085 221.309 129.872C221.394 129.659 221.437 129.44 221.437 129.216C221.437 128.875 221.373 128.576 221.245 128.32C221.117 128.064 220.93 127.84 220.685 127.648C220.45 127.456 220.162 127.296 219.821 127.168C219.49 127.029 219.112 126.912 218.685 126.816C218.205 127.083 217.832 127.413 217.565 127.808C217.309 128.203 217.181 128.672 217.181 129.216ZM221.181 123.536C221.181 123.376 221.144 123.2 221.069 123.008C221.005 122.816 220.898 122.64 220.749 122.48C220.6 122.309 220.408 122.171 220.173 122.064C219.938 121.947 219.65 121.888 219.309 121.888C218.968 121.888 218.674 121.941 218.429 122.048C218.194 122.155 218.002 122.293 217.853 122.464C217.704 122.624 217.592 122.805 217.517 123.008C217.453 123.2 217.421 123.392 217.421 123.584C217.421 123.819 217.464 124.053 217.549 124.288C217.634 124.523 217.768 124.741 217.949 124.944C218.13 125.147 218.365 125.328 218.653 125.488C218.952 125.648 219.304 125.776 219.709 125.872C220.157 125.605 220.514 125.296 220.781 124.944C221.048 124.581 221.181 124.112 221.181 123.536ZM224.628 126.448C224.628 124.592 224.953 123.163 225.604 122.16C226.265 121.157 227.177 120.656 228.34 120.656C229.503 120.656 230.409 121.157 231.06 122.16C231.721 123.163 232.052 124.592 232.052 126.448C232.052 128.304 231.721 129.733 231.06 130.736C230.409 131.739 229.503 132.24 228.34 132.24C227.177 132.24 226.265 131.739 225.604 130.736C224.953 129.733 224.628 128.304 224.628 126.448ZM230.484 126.448C230.484 125.84 230.447 125.264 230.372 124.72C230.308 124.176 230.191 123.701 230.02 123.296C229.86 122.891 229.641 122.571 229.364 122.336C229.087 122.091 228.745 121.968 228.34 121.968C227.935 121.968 227.593 122.091 227.316 122.336C227.039 122.571 226.815 122.891 226.644 123.296C226.484 123.701 226.367 124.176 226.292 124.72C226.228 125.264 226.196 125.84 226.196 126.448C226.196 127.056 226.228 127.632 226.292 128.176C226.367 128.72 226.484 129.195 226.644 129.6C226.815 130.005 227.039 130.331 227.316 130.576C227.593 130.811 227.935 130.928 228.34 130.928C228.745 130.928 229.087 130.811 229.364 130.576C229.641 130.331 229.86 130.005 230.02 129.6C230.191 129.195 230.308 128.72 230.372 128.176C230.447 127.632 230.484 127.056 230.484 126.448Z" fill="#8D9399"/>
<path d="M320.544 123.84H323.136L323.696 120.912H325.04L324.48 123.84H325.888V125.024H324.24L323.696 127.888H325.888V129.072H323.472L322.912 132H321.568L322.128 129.072H319.536L318.976 132H317.632L318.192 129.072H316.784V127.888H318.416L318.96 125.024H316.784V123.84H319.2L319.76 120.912H321.104L320.544 123.84ZM319.76 127.888H322.352L322.912 125.024H320.32L319.76 127.888ZM331.04 132.096C330.816 132.096 330.571 132.091 330.304 132.08C330.048 132.069 329.787 132.053 329.52 132.032C329.264 132.011 329.008 131.984 328.752 131.952C328.496 131.92 328.261 131.877 328.048 131.824V121.072C328.261 121.019 328.496 120.976 328.752 120.944C329.008 120.912 329.264 120.885 329.52 120.864C329.787 120.843 330.048 120.827 330.304 120.816C330.56 120.805 330.8 120.8 331.024 120.8C331.664 120.8 332.261 120.848 332.816 120.944C333.381 121.04 333.867 121.205 334.272 121.44C334.688 121.664 335.013 121.963 335.248 122.336C335.483 122.709 335.6 123.168 335.6 123.712C335.6 124.32 335.456 124.821 335.168 125.216C334.88 125.6 334.496 125.888 334.016 126.08C334.667 126.272 335.184 126.576 335.568 126.992C335.952 127.408 336.144 127.995 336.144 128.752C336.144 129.861 335.733 130.699 334.912 131.264C334.101 131.819 332.811 132.096 331.04 132.096ZM329.584 126.832V130.736C329.701 130.747 329.84 130.757 330 130.768C330.139 130.779 330.299 130.789 330.48 130.8C330.672 130.8 330.891 130.8 331.136 130.8C331.595 130.8 332.027 130.773 332.432 130.72C332.848 130.656 333.211 130.549 333.52 130.4C333.829 130.251 334.075 130.043 334.256 129.776C334.448 129.509 334.544 129.173 334.544 128.768C334.544 128.405 334.475 128.101 334.336 127.856C334.197 127.6 333.995 127.397 333.728 127.248C333.472 127.099 333.163 126.992 332.8 126.928C332.437 126.864 332.032 126.832 331.584 126.832H329.584ZM329.584 125.584H331.216C331.6 125.584 331.963 125.557 332.304 125.504C332.645 125.451 332.939 125.355 333.184 125.216C333.44 125.077 333.637 124.896 333.776 124.672C333.925 124.448 334 124.165 334 123.824C334 123.504 333.925 123.237 333.776 123.024C333.627 122.8 333.419 122.624 333.152 122.496C332.896 122.357 332.592 122.256 332.24 122.192C331.888 122.128 331.515 122.096 331.12 122.096C330.725 122.096 330.416 122.101 330.192 122.112C329.968 122.123 329.765 122.139 329.584 122.16V125.584ZM340.569 130.912C341.518 130.912 342.196 130.725 342.601 130.352C343.017 129.979 343.225 129.477 343.225 128.848C343.225 128.443 343.14 128.101 342.969 127.824C342.798 127.547 342.574 127.328 342.297 127.168C342.02 126.997 341.694 126.88 341.321 126.816C340.958 126.741 340.585 126.704 340.201 126.704H339.817V125.488H340.345C340.612 125.488 340.884 125.461 341.161 125.408C341.449 125.355 341.71 125.259 341.945 125.12C342.18 124.981 342.372 124.795 342.521 124.56C342.67 124.315 342.745 124.011 342.745 123.648C342.745 123.349 342.692 123.093 342.585 122.88C342.478 122.667 342.334 122.491 342.153 122.352C341.982 122.213 341.78 122.117 341.545 122.064C341.321 122 341.081 121.968 340.825 121.968C340.313 121.968 339.876 122.043 339.513 122.192C339.161 122.341 338.862 122.496 338.617 122.656L338.041 121.52C338.169 121.435 338.329 121.344 338.521 121.248C338.724 121.141 338.948 121.045 339.193 120.96C339.438 120.875 339.7 120.805 339.977 120.752C340.265 120.688 340.564 120.656 340.873 120.656C341.46 120.656 341.966 120.731 342.393 120.88C342.82 121.019 343.172 121.221 343.449 121.488C343.726 121.744 343.934 122.053 344.073 122.416C344.212 122.768 344.281 123.152 344.281 123.568C344.281 124.144 344.116 124.64 343.785 125.056C343.454 125.461 343.054 125.771 342.585 125.984C342.873 126.069 343.15 126.192 343.417 126.352C343.684 126.512 343.913 126.715 344.105 126.96C344.308 127.205 344.468 127.488 344.585 127.808C344.713 128.128 344.777 128.485 344.777 128.88C344.777 129.36 344.692 129.808 344.521 130.224C344.361 130.629 344.105 130.981 343.753 131.28C343.412 131.579 342.98 131.813 342.457 131.984C341.934 132.155 341.316 132.24 340.601 132.24C340.324 132.24 340.036 132.219 339.737 132.176C339.449 132.133 339.177 132.08 338.921 132.016C338.665 131.952 338.441 131.888 338.249 131.824C338.057 131.76 337.918 131.707 337.833 131.664L338.121 130.368C338.302 130.453 338.601 130.565 339.017 130.704C339.444 130.843 339.961 130.912 340.569 130.912ZM350.352 132.096C350.128 132.096 349.883 132.091 349.616 132.08C349.36 132.069 349.099 132.053 348.832 132.032C348.576 132.011 348.32 131.984 348.064 131.952C347.808 131.92 347.574 131.877 347.36 131.824V121.072C347.574 121.019 347.808 120.976 348.064 120.944C348.32 120.912 348.576 120.885 348.832 120.864C349.099 120.843 349.36 120.827 349.616 120.816C349.872 120.805 350.112 120.8 350.336 120.8C350.976 120.8 351.574 120.848 352.128 120.944C352.694 121.04 353.179 121.205 353.584 121.44C354 121.664 354.326 121.963 354.56 122.336C354.795 122.709 354.912 123.168 354.912 123.712C354.912 124.32 354.768 124.821 354.48 125.216C354.192 125.6 353.808 125.888 353.328 126.08C353.979 126.272 354.496 126.576 354.88 126.992C355.264 127.408 355.456 127.995 355.456 128.752C355.456 129.861 355.046 130.699 354.224 131.264C353.414 131.819 352.123 132.096 350.352 132.096ZM348.896 126.832V130.736C349.014 130.747 349.152 130.757 349.312 130.768C349.451 130.779 349.611 130.789 349.792 130.8C349.984 130.8 350.203 130.8 350.448 130.8C350.907 130.8 351.339 130.773 351.744 130.72C352.16 130.656 352.523 130.549 352.832 130.4C353.142 130.251 353.387 130.043 353.568 129.776C353.76 129.509 353.856 129.173 353.856 128.768C353.856 128.405 353.787 128.101 353.648 127.856C353.51 127.6 353.307 127.397 353.04 127.248C352.784 127.099 352.475 126.992 352.112 126.928C351.75 126.864 351.344 126.832 350.896 126.832H348.896ZM348.896 125.584H350.528C350.912 125.584 351.275 125.557 351.616 125.504C351.958 125.451 352.251 125.355 352.496 125.216C352.752 125.077 352.95 124.896 353.088 124.672C353.238 124.448 353.312 124.165 353.312 123.824C353.312 123.504 353.238 123.237 353.088 123.024C352.939 122.8 352.731 122.624 352.464 122.496C352.208 122.357 351.904 122.256 351.552 122.192C351.2 122.128 350.827 122.096 350.432 122.096C350.038 122.096 349.728 122.101 349.504 122.112C349.28 122.123 349.078 122.139 348.896 122.16V125.584ZM359.882 130.912C360.831 130.912 361.508 130.725 361.914 130.352C362.33 129.979 362.538 129.477 362.538 128.848C362.538 128.443 362.452 128.101 362.282 127.824C362.111 127.547 361.887 127.328 361.61 127.168C361.332 126.997 361.007 126.88 360.634 126.816C360.271 126.741 359.898 126.704 359.514 126.704H359.13V125.488H359.658C359.924 125.488 360.196 125.461 360.474 125.408C360.762 125.355 361.023 125.259 361.258 125.12C361.492 124.981 361.684 124.795 361.834 124.56C361.983 124.315 362.058 124.011 362.058 123.648C362.058 123.349 362.004 123.093 361.898 122.88C361.791 122.667 361.647 122.491 361.466 122.352C361.295 122.213 361.092 122.117 360.858 122.064C360.634 122 360.394 121.968 360.138 121.968C359.626 121.968 359.188 122.043 358.826 122.192C358.474 122.341 358.175 122.496 357.93 122.656L357.354 121.52C357.482 121.435 357.642 121.344 357.834 121.248C358.036 121.141 358.26 121.045 358.506 120.96C358.751 120.875 359.012 120.805 359.29 120.752C359.578 120.688 359.876 120.656 360.186 120.656C360.772 120.656 361.279 120.731 361.706 120.88C362.132 121.019 362.484 121.221 362.762 121.488C363.039 121.744 363.247 122.053 363.386 122.416C363.524 122.768 363.594 123.152 363.594 123.568C363.594 124.144 363.428 124.64 363.098 125.056C362.767 125.461 362.367 125.771 361.898 125.984C362.186 126.069 362.463 126.192 362.73 126.352C362.996 126.512 363.226 126.715 363.418 126.96C363.62 127.205 363.78 127.488 363.898 127.808C364.026 128.128 364.09 128.485 364.09 128.88C364.09 129.36 364.004 129.808 363.834 130.224C363.674 130.629 363.418 130.981 363.066 131.28C362.724 131.579 362.292 131.813 361.77 131.984C361.247 132.155 360.628 132.24 359.914 132.24C359.636 132.24 359.348 132.219 359.05 132.176C358.762 132.133 358.49 132.08 358.234 132.016C357.978 131.952 357.754 131.888 357.562 131.824C357.37 131.76 357.231 131.707 357.146 131.664L357.434 130.368C357.615 130.453 357.914 130.565 358.33 130.704C358.756 130.843 359.274 130.912 359.882 130.912ZM369.665 132.096C369.441 132.096 369.196 132.091 368.929 132.08C368.673 132.069 368.412 132.053 368.145 132.032C367.889 132.011 367.633 131.984 367.377 131.952C367.121 131.92 366.886 131.877 366.673 131.824V121.072C366.886 121.019 367.121 120.976 367.377 120.944C367.633 120.912 367.889 120.885 368.145 120.864C368.412 120.843 368.673 120.827 368.929 120.816C369.185 120.805 369.425 120.8 369.649 120.8C370.289 120.8 370.886 120.848 371.441 120.944C372.006 121.04 372.492 121.205 372.897 121.44C373.313 121.664 373.638 121.963 373.873 122.336C374.108 122.709 374.225 123.168 374.225 123.712C374.225 124.32 374.081 124.821 373.793 125.216C373.505 125.6 373.121 125.888 372.641 126.08C373.292 126.272 373.809 126.576 374.193 126.992C374.577 127.408 374.769 127.995 374.769 128.752C374.769 129.861 374.358 130.699 373.537 131.264C372.726 131.819 371.436 132.096 369.665 132.096ZM368.209 126.832V130.736C368.326 130.747 368.465 130.757 368.625 130.768C368.764 130.779 368.924 130.789 369.105 130.8C369.297 130.8 369.516 130.8 369.761 130.8C370.22 130.8 370.652 130.773 371.057 130.72C371.473 130.656 371.836 130.549 372.145 130.4C372.454 130.251 372.7 130.043 372.881 129.776C373.073 129.509 373.169 129.173 373.169 128.768C373.169 128.405 373.1 128.101 372.961 127.856C372.822 127.6 372.62 127.397 372.353 127.248C372.097 127.099 371.788 126.992 371.425 126.928C371.062 126.864 370.657 126.832 370.209 126.832H368.209ZM368.209 125.584H369.841C370.225 125.584 370.588 125.557 370.929 125.504C371.27 125.451 371.564 125.355 371.809 125.216C372.065 125.077 372.262 124.896 372.401 124.672C372.55 124.448 372.625 124.165 372.625 123.824C372.625 123.504 372.55 123.237 372.401 123.024C372.252 122.8 372.044 122.624 371.777 122.496C371.521 122.357 371.217 122.256 370.865 122.192C370.513 122.128 370.14 122.096 369.745 122.096C369.35 122.096 369.041 122.101 368.817 122.112C368.593 122.123 368.39 122.139 368.209 122.16V125.584ZM379.194 130.912C380.143 130.912 380.821 130.725 381.226 130.352C381.642 129.979 381.85 129.477 381.85 128.848C381.85 128.443 381.765 128.101 381.594 127.824C381.423 127.547 381.199 127.328 380.922 127.168C380.645 126.997 380.319 126.88 379.946 126.816C379.583 126.741 379.21 126.704 378.826 126.704H378.442V125.488H378.97C379.237 125.488 379.509 125.461 379.786 125.408C380.074 125.355 380.335 125.259 380.57 125.12C380.805 124.981 380.997 124.795 381.146 124.56C381.295 124.315 381.37 124.011 381.37 123.648C381.37 123.349 381.317 123.093 381.21 122.88C381.103 122.667 380.959 122.491 380.778 122.352C380.607 122.213 380.405 122.117 380.17 122.064C379.946 122 379.706 121.968 379.45 121.968C378.938 121.968 378.501 122.043 378.138 122.192C377.786 122.341 377.487 122.496 377.242 122.656L376.666 121.52C376.794 121.435 376.954 121.344 377.146 121.248C377.349 121.141 377.573 121.045 377.818 120.96C378.063 120.875 378.325 120.805 378.602 120.752C378.89 120.688 379.189 120.656 379.498 120.656C380.085 120.656 380.591 120.731 381.018 120.88C381.445 121.019 381.797 121.221 382.074 121.488C382.351 121.744 382.559 122.053 382.698 122.416C382.837 122.768 382.906 123.152 382.906 123.568C382.906 124.144 382.741 124.64 382.41 125.056C382.079 125.461 381.679 125.771 381.21 125.984C381.498 126.069 381.775 126.192 382.042 126.352C382.309 126.512 382.538 126.715 382.73 126.96C382.933 127.205 383.093 127.488 383.21 127.808C383.338 128.128 383.402 128.485 383.402 128.88C383.402 129.36 383.317 129.808 383.146 130.224C382.986 130.629 382.73 130.981 382.378 131.28C382.037 131.579 381.605 131.813 381.082 131.984C380.559 132.155 379.941 132.24 379.226 132.24C378.949 132.24 378.661 132.219 378.362 132.176C378.074 132.133 377.802 132.08 377.546 132.016C377.29 131.952 377.066 131.888 376.874 131.824C376.682 131.76 376.543 131.707 376.458 131.664L376.746 130.368C376.927 130.453 377.226 130.565 377.642 130.704C378.069 130.843 378.586 130.912 379.194 130.912Z" fill="#8D9399"/>
<path d="M468.544 123.84H471.136L471.696 120.912H473.04L472.48 123.84H473.888V125.024H472.24L471.696 127.888H473.888V129.072H471.472L470.912 132H469.568L470.128 129.072H467.536L466.976 132H465.632L466.192 129.072H464.784V127.888H466.416L466.96 125.024H464.784V123.84H467.2L467.76 120.912H469.104L468.544 123.84ZM467.76 127.888H470.352L470.912 125.024H468.32L467.76 127.888ZM476.048 132V120.912H482.736V122.24H477.6V125.584H482.16V126.896H477.6V132H476.048ZM490.738 123.744C490.738 124.128 490.658 124.501 490.498 124.864C490.348 125.216 490.146 125.568 489.89 125.92C489.634 126.261 489.346 126.603 489.026 126.944C488.706 127.275 488.386 127.6 488.066 127.92C487.884 128.101 487.671 128.315 487.426 128.56C487.191 128.805 486.967 129.061 486.754 129.328C486.54 129.595 486.359 129.851 486.21 130.096C486.071 130.341 486.002 130.555 486.002 130.736H491.106V132H484.386C484.375 131.936 484.37 131.872 484.37 131.808C484.37 131.744 484.37 131.685 484.37 131.632C484.37 131.131 484.45 130.667 484.61 130.24C484.78 129.803 484.999 129.392 485.266 129.008C485.532 128.624 485.831 128.261 486.162 127.92C486.492 127.579 486.818 127.248 487.138 126.928C487.404 126.672 487.655 126.421 487.89 126.176C488.135 125.92 488.348 125.669 488.53 125.424C488.722 125.168 488.871 124.907 488.978 124.64C489.095 124.373 489.154 124.091 489.154 123.792C489.154 123.472 489.1 123.2 488.994 122.976C488.898 122.752 488.764 122.565 488.594 122.416C488.423 122.267 488.22 122.16 487.986 122.096C487.762 122.021 487.522 121.984 487.266 121.984C486.956 121.984 486.674 122.027 486.418 122.112C486.162 122.197 485.932 122.299 485.73 122.416C485.527 122.523 485.356 122.64 485.218 122.768C485.079 122.885 484.972 122.976 484.898 123.04L484.162 121.984C484.258 121.877 484.402 121.749 484.594 121.6C484.786 121.44 485.015 121.291 485.282 121.152C485.548 121.013 485.847 120.896 486.178 120.8C486.508 120.704 486.866 120.656 487.25 120.656C488.412 120.656 489.282 120.928 489.858 121.472C490.444 122.005 490.738 122.763 490.738 123.744ZM493.673 132V120.912H500.361V122.24H495.225V125.584H499.785V126.896H495.225V132H493.673ZM508.363 123.744C508.363 124.128 508.283 124.501 508.123 124.864C507.973 125.216 507.771 125.568 507.515 125.92C507.259 126.261 506.971 126.603 506.651 126.944C506.331 127.275 506.011 127.6 505.691 127.92C505.509 128.101 505.296 128.315 505.051 128.56C504.816 128.805 504.592 129.061 504.379 129.328C504.165 129.595 503.984 129.851 503.835 130.096C503.696 130.341 503.627 130.555 503.627 130.736H508.731V132H502.011C502 131.936 501.995 131.872 501.995 131.808C501.995 131.744 501.995 131.685 501.995 131.632C501.995 131.131 502.075 130.667 502.235 130.24C502.405 129.803 502.624 129.392 502.891 129.008C503.157 128.624 503.456 128.261 503.787 127.92C504.117 127.579 504.443 127.248 504.763 126.928C505.029 126.672 505.28 126.421 505.515 126.176C505.76 125.92 505.973 125.669 506.155 125.424C506.347 125.168 506.496 124.907 506.603 124.64C506.72 124.373 506.779 124.091 506.779 123.792C506.779 123.472 506.725 123.2 506.619 122.976C506.523 122.752 506.389 122.565 506.219 122.416C506.048 122.267 505.845 122.16 505.611 122.096C505.387 122.021 505.147 121.984 504.891 121.984C504.581 121.984 504.299 122.027 504.043 122.112C503.787 122.197 503.557 122.299 503.355 122.416C503.152 122.523 502.981 122.64 502.843 122.768C502.704 122.885 502.597 122.976 502.523 123.04L501.787 121.984C501.883 121.877 502.027 121.749 502.219 121.6C502.411 121.44 502.64 121.291 502.907 121.152C503.173 121.013 503.472 120.896 503.803 120.8C504.133 120.704 504.491 120.656 504.875 120.656C506.037 120.656 506.907 120.928 507.483 121.472C508.069 122.005 508.363 122.763 508.363 123.744ZM511.298 132V120.912H517.986V122.24H512.85V125.584H517.41V126.896H512.85V132H511.298ZM525.988 123.744C525.988 124.128 525.908 124.501 525.748 124.864C525.598 125.216 525.396 125.568 525.14 125.92C524.884 126.261 524.596 126.603 524.276 126.944C523.956 127.275 523.636 127.6 523.316 127.92C523.134 128.101 522.921 128.315 522.676 128.56C522.441 128.805 522.217 129.061 522.004 129.328C521.79 129.595 521.609 129.851 521.46 130.096C521.321 130.341 521.252 130.555 521.252 130.736H526.356V132H519.636C519.625 131.936 519.62 131.872 519.62 131.808C519.62 131.744 519.62 131.685 519.62 131.632C519.62 131.131 519.7 130.667 519.86 130.24C520.03 129.803 520.249 129.392 520.516 129.008C520.782 128.624 521.081 128.261 521.412 127.92C521.742 127.579 522.068 127.248 522.388 126.928C522.654 126.672 522.905 126.421 523.14 126.176C523.385 125.92 523.598 125.669 523.78 125.424C523.972 125.168 524.121 124.907 524.228 124.64C524.345 124.373 524.404 124.091 524.404 123.792C524.404 123.472 524.35 123.2 524.244 122.976C524.148 122.752 524.014 122.565 523.844 122.416C523.673 122.267 523.47 122.16 523.236 122.096C523.012 122.021 522.772 121.984 522.516 121.984C522.206 121.984 521.924 122.027 521.668 122.112C521.412 122.197 521.182 122.299 520.98 122.416C520.777 122.523 520.606 122.64 520.468 122.768C520.329 122.885 520.222 122.976 520.148 123.04L519.412 121.984C519.508 121.877 519.652 121.749 519.844 121.6C520.036 121.44 520.265 121.291 520.532 121.152C520.798 121.013 521.097 120.896 521.428 120.8C521.758 120.704 522.116 120.656 522.5 120.656C523.662 120.656 524.532 120.928 525.108 121.472C525.694 122.005 525.988 122.763 525.988 123.744Z" fill="#8D9399"/>
<path d="M31 20C30.5467 19.24 30.04 18.4267 29.48 17.56C28.92 16.68 28.34 15.8 27.74 14.92C27.14 14.0267 26.5267 13.1667 25.9 12.34C25.2867 11.5 24.7 10.7467 24.14 10.08V20H21.66V6.14H23.72C24.2533 6.7 24.8267 7.36667 25.44 8.14C26.0533 8.9 26.6667 9.69333 27.28 10.52C27.9067 11.3467 28.5067 12.18 29.08 13.02C29.6667 13.8467 30.1867 14.62 30.64 15.34V6.14H33.14V20H31ZM35.7647 14.82C35.7647 13.9 35.898 13.0933 36.1647 12.4C36.4447 11.7067 36.8114 11.1333 37.2647 10.68C37.718 10.2133 38.238 9.86667 38.8247 9.64C39.4114 9.4 40.0114 9.28 40.6247 9.28C42.0647 9.28 43.1847 9.72667 43.9847 10.62C44.798 11.5133 45.2047 12.8467 45.2047 14.62C45.2047 14.7533 45.198 14.9067 45.1847 15.08C45.1847 15.24 45.178 15.3867 45.1647 15.52H38.2647C38.3314 16.36 38.6247 17.0133 39.1447 17.48C39.678 17.9333 40.4447 18.16 41.4447 18.16C42.0314 18.16 42.5647 18.1067 43.0447 18C43.538 17.8933 43.9247 17.78 44.2047 17.66L44.5247 19.64C44.3914 19.7067 44.2047 19.78 43.9647 19.86C43.738 19.9267 43.4714 19.9867 43.1647 20.04C42.8714 20.1067 42.5514 20.16 42.2047 20.2C41.858 20.24 41.5047 20.26 41.1447 20.26C40.2247 20.26 39.4247 20.1267 38.7447 19.86C38.0647 19.58 37.5047 19.2 37.0647 18.72C36.6247 18.2267 36.298 17.6533 36.0847 17C35.8714 16.3333 35.7647 15.6067 35.7647 14.82ZM42.7847 13.74C42.7847 13.4067 42.738 13.0933 42.6447 12.8C42.5514 12.4933 42.4114 12.2333 42.2247 12.02C42.0514 11.7933 41.8314 11.62 41.5647 11.5C41.3114 11.3667 41.0047 11.3 40.6447 11.3C40.2714 11.3 39.9447 11.3733 39.6647 11.52C39.3847 11.6533 39.1447 11.8333 38.9447 12.06C38.758 12.2867 38.6114 12.5467 38.5047 12.84C38.398 13.1333 38.3247 13.4333 38.2847 13.74H42.7847ZM56.3505 19.68C55.8838 19.8 55.2771 19.92 54.5305 20.04C53.7838 20.1733 52.9638 20.24 52.0705 20.24C51.2305 20.24 50.5238 20.12 49.9505 19.88C49.3905 19.64 48.9371 19.3067 48.5905 18.88C48.2571 18.4533 48.0171 17.9467 47.8705 17.36C47.7238 16.76 47.6505 16.1067 47.6505 15.4V9.54H50.0705V15.02C50.0705 16.14 50.2305 16.94 50.5505 17.42C50.8838 17.9 51.4571 18.14 52.2705 18.14C52.5638 18.14 52.8705 18.1267 53.1905 18.1C53.5238 18.0733 53.7705 18.04 53.9305 18V9.54H56.3505V19.68ZM59.3106 6.78L61.7306 6.38V9.54H65.4506V11.56H61.7306V15.82C61.7306 16.66 61.864 17.26 62.1306 17.62C62.3973 17.98 62.8506 18.16 63.4906 18.16C63.9306 18.16 64.3173 18.1133 64.6506 18.02C64.9973 17.9267 65.2706 17.84 65.4706 17.76L65.8706 19.68C65.5906 19.8 65.224 19.92 64.7706 20.04C64.3173 20.1733 63.784 20.24 63.1706 20.24C62.424 20.24 61.7973 20.14 61.2906 19.94C60.7973 19.74 60.404 19.4533 60.1106 19.08C59.8173 18.6933 59.6106 18.2333 59.4906 17.7C59.3706 17.1533 59.3106 16.5333 59.3106 15.84V6.78ZM73.75 11.72C73.55 11.6533 73.27 11.5867 72.91 11.52C72.5633 11.44 72.1567 11.4 71.69 11.4C71.4233 11.4 71.1367 11.4267 70.83 11.48C70.5367 11.5333 70.33 11.58 70.21 11.62V20H67.79V10.04C68.2567 9.86667 68.8367 9.70667 69.53 9.56C70.2367 9.4 71.0167 9.32 71.87 9.32C72.03 9.32 72.2167 9.33333 72.43 9.36C72.6433 9.37333 72.8567 9.4 73.07 9.44C73.2833 9.46667 73.49 9.50667 73.69 9.56C73.89 9.6 74.05 9.64 74.17 9.68L73.75 11.72ZM79.5364 18.3C80.2831 18.3 80.8497 18.26 81.2364 18.18V15.5C81.1031 15.46 80.9097 15.42 80.6564 15.38C80.4031 15.34 80.1231 15.32 79.8164 15.32C79.5497 15.32 79.2764 15.34 78.9964 15.38C78.7297 15.42 78.4831 15.4933 78.2564 15.6C78.0431 15.7067 77.8697 15.86 77.7364 16.06C77.6031 16.2467 77.5364 16.4867 77.5364 16.78C77.5364 17.3533 77.7164 17.7533 78.0764 17.98C78.4364 18.1933 78.9231 18.3 79.5364 18.3ZM79.3364 9.28C80.1364 9.28 80.8097 9.38 81.3564 9.58C81.9031 9.78 82.3364 10.06 82.6564 10.42C82.9897 10.78 83.2231 11.22 83.3564 11.74C83.5031 12.2467 83.5764 12.8067 83.5764 13.42V19.76C83.2031 19.84 82.6364 19.9333 81.8764 20.04C81.1297 20.16 80.2831 20.22 79.3364 20.22C78.7097 20.22 78.1364 20.16 77.6164 20.04C77.0964 19.92 76.6497 19.7267 76.2764 19.46C75.9164 19.1933 75.6297 18.8467 75.4164 18.42C75.2164 17.9933 75.1164 17.4667 75.1164 16.84C75.1164 16.24 75.2297 15.7333 75.4564 15.32C75.6964 14.9067 76.0164 14.5733 76.4164 14.32C76.8164 14.0533 77.2764 13.8667 77.7964 13.76C78.3297 13.64 78.8831 13.58 79.4564 13.58C79.7231 13.58 80.0031 13.6 80.2964 13.64C80.5897 13.6667 80.9031 13.72 81.2364 13.8V13.4C81.2364 13.12 81.2031 12.8533 81.1364 12.6C81.0697 12.3467 80.9497 12.1267 80.7764 11.94C80.6164 11.74 80.3964 11.5867 80.1164 11.48C79.8497 11.3733 79.5097 11.32 79.0964 11.32C78.5364 11.32 78.0231 11.36 77.5564 11.44C77.0897 11.52 76.7097 11.6133 76.4164 11.72L76.1164 9.76C76.4231 9.65333 76.8697 9.54667 77.4564 9.44C78.0431 9.33333 78.6697 9.28 79.3364 9.28ZM90.18 20.2C89.46 20.1867 88.86 20.1067 88.38 19.96C87.9133 19.8133 87.54 19.6067 87.26 19.34C86.98 19.06 86.78 18.72 86.66 18.32C86.5533 17.9067 86.5 17.44 86.5 16.92V4.88L88.92 4.48V16.46C88.92 16.7533 88.94 17 88.98 17.2C89.0333 17.4 89.12 17.5733 89.24 17.72C89.36 17.8533 89.52 17.96 89.72 18.04C89.9333 18.1067 90.2 18.16 90.52 18.2L90.18 20.2ZM103.425 20.3C102.385 20.3 101.452 20.14 100.625 19.82C99.7988 19.5 99.0988 19.0333 98.5255 18.42C97.9521 17.7933 97.5121 17.0333 97.2055 16.14C96.8988 15.2467 96.7455 14.22 96.7455 13.06C96.7455 11.9 96.9188 10.8733 97.2655 9.98C97.6255 9.08667 98.1121 8.33333 98.7255 7.72C99.3388 7.09333 100.059 6.62 100.885 6.3C101.712 5.98 102.599 5.82 103.545 5.82C104.119 5.82 104.639 5.86667 105.105 5.96C105.572 6.04 105.979 6.13333 106.325 6.24C106.672 6.34667 106.959 6.46 107.185 6.58C107.412 6.7 107.572 6.78667 107.665 6.84L106.925 8.9C106.605 8.7 106.145 8.51333 105.545 8.34C104.959 8.15333 104.319 8.06 103.625 8.06C103.025 8.06 102.465 8.16667 101.945 8.38C101.425 8.58 100.972 8.88667 100.585 9.3C100.212 9.71333 99.9188 10.2333 99.7055 10.86C99.4921 11.4867 99.3855 12.2133 99.3855 13.04C99.3855 13.7733 99.4655 14.4467 99.6255 15.06C99.7988 15.6733 100.059 16.2067 100.405 16.66C100.752 17.1 101.192 17.4467 101.725 17.7C102.259 17.94 102.899 18.06 103.645 18.06C104.539 18.06 105.265 17.9733 105.825 17.8C106.385 17.6133 106.819 17.44 107.125 17.28L107.805 19.34C107.645 19.4467 107.425 19.5533 107.145 19.66C106.879 19.7667 106.559 19.8733 106.185 19.98C105.812 20.0733 105.392 20.1467 104.925 20.2C104.459 20.2667 103.959 20.3 103.425 20.3ZM119.105 14.76C119.105 15.5867 118.985 16.34 118.745 17.02C118.505 17.7 118.165 18.28 117.725 18.76C117.285 19.24 116.752 19.6133 116.125 19.88C115.512 20.1467 114.832 20.28 114.085 20.28C113.339 20.28 112.659 20.1467 112.045 19.88C111.432 19.6133 110.905 19.24 110.465 18.76C110.025 18.28 109.679 17.7 109.425 17.02C109.185 16.34 109.065 15.5867 109.065 14.76C109.065 13.9333 109.185 13.1867 109.425 12.52C109.679 11.84 110.025 11.26 110.465 10.78C110.919 10.3 111.452 9.93333 112.065 9.68C112.679 9.41333 113.352 9.28 114.085 9.28C114.819 9.28 115.492 9.41333 116.105 9.68C116.732 9.93333 117.265 10.3 117.705 10.78C118.145 11.26 118.485 11.84 118.725 12.52C118.979 13.1867 119.105 13.9333 119.105 14.76ZM116.625 14.76C116.625 13.72 116.399 12.9 115.945 12.3C115.505 11.6867 114.885 11.38 114.085 11.38C113.285 11.38 112.659 11.6867 112.205 12.3C111.765 12.9 111.545 13.72 111.545 14.76C111.545 15.8133 111.765 16.6467 112.205 17.26C112.659 17.8733 113.285 18.18 114.085 18.18C114.885 18.18 115.505 17.8733 115.945 17.26C116.399 16.6467 116.625 15.8133 116.625 14.76ZM125.239 20.2C124.519 20.1867 123.919 20.1067 123.439 19.96C122.972 19.8133 122.599 19.6067 122.319 19.34C122.039 19.06 121.839 18.72 121.719 18.32C121.612 17.9067 121.559 17.44 121.559 16.92V4.88L123.979 4.48V16.46C123.979 16.7533 123.999 17 124.039 17.2C124.092 17.4 124.179 17.5733 124.299 17.72C124.419 17.8533 124.579 17.96 124.779 18.04C124.992 18.1067 125.259 18.16 125.579 18.2L125.239 20.2ZM136.996 14.76C136.996 15.5867 136.876 16.34 136.636 17.02C136.396 17.7 136.056 18.28 135.616 18.76C135.176 19.24 134.643 19.6133 134.016 19.88C133.403 20.1467 132.723 20.28 131.976 20.28C131.229 20.28 130.549 20.1467 129.936 19.88C129.323 19.6133 128.796 19.24 128.356 18.76C127.916 18.28 127.569 17.7 127.316 17.02C127.076 16.34 126.956 15.5867 126.956 14.76C126.956 13.9333 127.076 13.1867 127.316 12.52C127.569 11.84 127.916 11.26 128.356 10.78C128.809 10.3 129.343 9.93333 129.956 9.68C130.569 9.41333 131.243 9.28 131.976 9.28C132.709 9.28 133.383 9.41333 133.996 9.68C134.623 9.93333 135.156 10.3 135.596 10.78C136.036 11.26 136.376 11.84 136.616 12.52C136.869 13.1867 136.996 13.9333 136.996 14.76ZM134.516 14.76C134.516 13.72 134.289 12.9 133.836 12.3C133.396 11.6867 132.776 11.38 131.976 11.38C131.176 11.38 130.549 11.6867 130.096 12.3C129.656 12.9 129.436 13.72 129.436 14.76C129.436 15.8133 129.656 16.6467 130.096 17.26C130.549 17.8733 131.176 18.18 131.976 18.18C132.776 18.18 133.396 17.8733 133.836 17.26C134.289 16.6467 134.516 15.8133 134.516 14.76ZM148.069 19.68C147.603 19.8 146.996 19.92 146.249 20.04C145.503 20.1733 144.683 20.24 143.789 20.24C142.949 20.24 142.243 20.12 141.669 19.88C141.109 19.64 140.656 19.3067 140.309 18.88C139.976 18.4533 139.736 17.9467 139.589 17.36C139.443 16.76 139.369 16.1067 139.369 15.4V9.54H141.789V15.02C141.789 16.14 141.949 16.94 142.269 17.42C142.603 17.9 143.176 18.14 143.989 18.14C144.283 18.14 144.589 18.1267 144.909 18.1C145.243 18.0733 145.489 18.04 145.649 18V9.54H148.069V19.68ZM157.109 11.72C156.909 11.6533 156.629 11.5867 156.269 11.52C155.923 11.44 155.516 11.4 155.049 11.4C154.783 11.4 154.496 11.4267 154.189 11.48C153.896 11.5333 153.689 11.58 153.569 11.62V20H151.149V10.04C151.616 9.86667 152.196 9.70667 152.889 9.56C153.596 9.4 154.376 9.32 155.229 9.32C155.389 9.32 155.576 9.33333 155.789 9.36C156.003 9.37333 156.216 9.4 156.429 9.44C156.643 9.46667 156.849 9.50667 157.049 9.56C157.249 9.6 157.409 9.64 157.529 9.68L157.109 11.72Z" fill="#403F3D"/>
<defs>
<filter id="filter0_d" x="0" y="31" width="140" height="100" filterUnits="userSpaceOnUse" color-interpolation-filters="sRGB">
<feFlood flood-opacity="0" result="BackgroundImageFix"/>
<feColorMatrix in="SourceAlpha" type="matrix" values="0 0 0 0 0 0 0 0 0 0 0 0 0 0 0 0 0 0 127 0" result="hardAlpha"/>
<feOffset dy="10"/>
<feGaussianBlur stdDeviation="10"/>
<feColorMatrix type="matrix" values="0 0 0 0 0 0 0 0 0 0 0 0 0 0 0 0 0 0 0.08 0"/>
<feBlend mode="normal" in2="BackgroundImageFix" result="effect1_dropShadow"/>
<feBlend mode="normal" in="SourceGraphic" in2="effect1_dropShadow" result="shape"/>
</filter>
<filter id="filter1_d" x="592" y="31" width="140" height="100" filterUnits="userSpaceOnUse" color-interpolation-filters="sRGB">
<feFlood flood-opacity="0" result="BackgroundImageFix"/>
<feColorMatrix in="SourceAlpha" type="matrix" values="0 0 0 0 0 0 0 0 0 0 0 0 0 0 0 0 0 0 127 0" result="hardAlpha"/>
<feOffset dy="10"/>
<feGaussianBlur stdDeviation="10"/>
<feColorMatrix type="matrix" values="0 0 0 0 0 0 0 0 0 0 0 0 0 0 0 0 0 0 0.08 0"/>
<feBlend mode="normal" in2="BackgroundImageFix" result="effect1_dropShadow"/>
<feBlend mode="normal" in="SourceGraphic" in2="effect1_dropShadow" result="shape"/>
</filter>
<filter id="filter2_d" x="148" y="31" width="140" height="100" filterUnits="userSpaceOnUse" color-interpolation-filters="sRGB">
<feFlood flood-opacity="0" result="BackgroundImageFix"/>
<feColorMatrix in="SourceAlpha" type="matrix" values="0 0 0 0 0 0 0 0 0 0 0 0 0 0 0 0 0 0 127 0" result="hardAlpha"/>
<feOffset dy="10"/>
<feGaussianBlur stdDeviation="10"/>
<feColorMatrix type="matrix" values="0 0 0 0 0 0 0 0 0 0 0 0 0 0 0 0 0 0 0.08 0"/>
<feBlend mode="normal" in2="BackgroundImageFix" result="effect1_dropShadow"/>
<feBlend mode="normal" in="SourceGraphic" in2="effect1_dropShadow" result="shape"/>
</filter>
<filter id="filter3_d" x="296" y="31" width="140" height="100" filterUnits="userSpaceOnUse" color-interpolation-filters="sRGB">
<feFlood flood-opacity="0" result="BackgroundImageFix"/>
<feColorMatrix in="SourceAlpha" type="matrix" values="0 0 0 0 0 0 0 0 0 0 0 0 0 0 0 0 0 0 127 0" result="hardAlpha"/>
<feOffset dy="10"/>
<feGaussianBlur stdDeviation="10"/>
<feColorMatrix type="matrix" values="0 0 0 0 0 0 0 0 0 0 0 0 0 0 0 0 0 0 0.08 0"/>
<feBlend mode="normal" in2="BackgroundImageFix" result="effect1_dropShadow"/>
<feBlend mode="normal" in="SourceGraphic" in2="effect1_dropShadow" result="shape"/>
</filter>
<filter id="filter4_d" x="444" y="31" width="140" height="100" filterUnits="userSpaceOnUse" color-interpolation-filters="sRGB">
<feFlood flood-opacity="0" result="BackgroundImageFix"/>
<feColorMatrix in="SourceAlpha" type="matrix" values="0 0 0 0 0 0 0 0 0 0 0 0 0 0 0 0 0 0 127 0" result="hardAlpha"/>
<feOffset dy="10"/>
<feGaussianBlur stdDeviation="10"/>
<feColorMatrix type="matrix" values="0 0 0 0 0 0 0 0 0 0 0 0 0 0 0 0 0 0 0.08 0"/>
<feBlend mode="normal" in2="BackgroundImageFix" result="effect1_dropShadow"/>
<feBlend mode="normal" in="SourceGraphic" in2="effect1_dropShadow" result="shape"/>
</filter>
</defs>
</svg>
