<svg width="1440" height="1321" viewBox="0 0 1440 1321" fill="none" xmlns="http://www.w3.org/2000/svg">
<rect width="1440" height="1320" fill="url(#paint0_linear)"/>
<path d="M1440.5 1266.5V1266.18L1440.2 1266.04C1364.64 1232.11 1225.07 1189.5 1015.5 1189.5C882.152 1189.5 764.884 1217.02 645.234 1245.1C612.06 1252.89 578.703 1260.71 544.77 1268.01C388.432 1301.63 219.757 1323.99 0.100308 1279.01L-0.5 1278.89V1279.5V1320V1320.5H0H1440H1440.5V1320V1266.5Z" fill="white" stroke="white"/>
<path fill-rule="evenodd" clip-rule="evenodd" d="M1263.85 0.609374C1263.65 0.969176 1263.2 1.25896 1262.83 1.25373C1262.43 1.24719 1262.5 0.99011 1263 0.609374C1264.08 -0.203125 1264.28 -0.203125 1263.85 0.609374ZM209.025 2.35078C208.639 2.53265 208.007 2.53265 207.621 2.35078C207.235 2.16957 207.55 2.02112 208.323 2.02112C209.096 2.02112 209.412 2.16957 209.025 2.35078ZM666.269 2.57193C666.269 2.93173 665.889 3.22611 665.426 3.22611C664.962 3.22611 664.583 2.93173 664.583 2.57193C664.583 2.21213 664.962 1.91774 665.426 1.91774C665.889 1.91774 666.269 2.21213 666.269 2.57193ZM181.493 5.62171C181.107 5.80357 180.474 5.80357 180.088 5.62171C179.702 5.4405 180.018 5.29205 180.79 5.29205C181.563 5.29205 181.879 5.4405 181.493 5.62171ZM708.973 7.15123C708.973 7.51103 708.578 7.80541 708.097 7.80541C707.615 7.80541 707.377 7.51103 707.568 7.15123C707.759 6.79143 708.153 6.49704 708.444 6.49704C708.735 6.49704 708.973 6.79143 708.973 7.15123ZM456.4 8.4596C456.209 8.8194 455.689 9.11378 455.243 9.11378C454.798 9.11378 454.434 8.8194 454.434 8.4596C454.434 8.0998 454.955 7.80541 455.591 7.80541C456.227 7.80541 456.591 8.0998 456.4 8.4596ZM1080.39 11.0063C1080.39 11.6357 1079.02 12.3978 1077.95 12.3638C1077.59 12.3526 1077.79 11.9111 1078.39 11.3825C1079.62 10.292 1080.39 10.1487 1080.39 11.0063ZM747.744 12.3847C747.744 12.7445 747.301 13.0343 746.76 13.0291C745.92 13.0206 745.899 12.9264 746.62 12.3847C747.68 11.5866 747.744 11.5866 747.744 12.3847ZM84.1159 12.9885C84.2547 13.0166 84.0822 13.3725 83.7321 13.7801C83.0078 14.6233 81.0946 14.0195 81.5823 13.1017C81.7576 12.7714 82.3425 12.5999 82.882 12.7203C83.4214 12.84 83.9771 12.961 84.1159 12.9885ZM641.826 13.0389C641.635 13.3987 641.226 13.6931 640.917 13.6931C640.608 13.6931 640.511 13.3987 640.702 13.0389C640.893 12.6791 641.302 12.3847 641.612 12.3847C641.921 12.3847 642.017 12.6791 641.826 13.0389ZM282.212 14.3473C282.021 14.7071 281.501 15.0015 281.056 15.0015C280.61 15.0015 280.246 14.7071 280.246 14.3473C280.246 13.9875 280.767 13.6931 281.403 13.6931C282.039 13.6931 282.404 13.9875 282.212 14.3473ZM399.216 15.3966C399.029 15.6138 398.544 15.6373 398.139 15.4483C397.691 15.2396 397.824 15.0845 398.478 15.0531C399.071 15.025 399.402 15.1794 399.216 15.3966ZM480.03 19.7312C479.504 20.074 478.909 20.1649 478.71 19.932C478.215 19.3563 479.816 18.2645 480.467 18.7329C480.753 18.939 480.556 19.3884 480.03 19.7312ZM966.321 19.5042C966.321 19.8222 965.816 20.2363 965.198 20.4247C964.579 20.6124 964.074 20.5214 964.074 20.2218C964.074 19.9222 964.516 19.5421 965.057 19.3773C965.598 19.2131 966.103 19.0443 966.181 19.0024C966.258 18.9605 966.321 19.187 966.321 19.5042ZM643.793 19.8378C643.793 19.9791 643.401 20.2702 642.921 20.4848C642.421 20.7079 642.195 20.598 642.392 20.2278C642.722 19.6056 643.793 19.3079 643.793 19.8378ZM683.968 22.8517C683.777 23.2115 683.32 23.5013 682.952 23.496C682.55 23.4895 682.619 23.2324 683.126 22.8517C684.205 22.0392 684.399 22.0392 683.968 22.8517ZM631.431 24.8142C631.431 25.174 630.989 25.4638 630.448 25.4586C629.607 25.4501 629.587 25.3559 630.307 24.8142C631.368 24.0161 631.431 24.0161 631.431 24.8142ZM562.88 25.7255C562.88 25.8668 562.5 26.1521 562.037 26.3595C561.573 26.5662 561.194 26.4503 561.194 26.1023C561.194 25.7536 561.573 25.4684 562.037 25.4684C562.5 25.4684 562.88 25.5842 562.88 25.7255ZM90.6058 28.7099C90.6058 29.7566 88.3605 30.6267 86.813 30.1792C85.6117 29.8319 85.5049 28.7393 86.6725 28.7393C87.1361 28.7393 87.5154 28.4253 87.5154 28.0419C87.5154 27.6579 88.211 27.4375 89.0606 27.5513C89.9568 27.671 90.6058 28.1577 90.6058 28.7099ZM688.745 30.959C688.745 31.1003 688.365 31.3856 687.902 31.5929C687.438 31.7997 687.059 31.6838 687.059 31.3358C687.059 30.9871 687.438 30.7019 687.902 30.7019C688.365 30.7019 688.745 30.8176 688.745 30.959ZM461.024 36.3305C460.838 36.5477 460.353 36.5712 459.948 36.3822C459.499 36.1735 459.632 36.0184 460.287 35.987C460.879 35.9589 461.211 36.1133 461.024 36.3305ZM649.131 37.2438C648.94 37.6036 648.404 37.8979 647.941 37.8979C647.477 37.8979 647.254 37.6036 647.445 37.2438C647.636 36.8839 648.172 36.5896 648.635 36.5896C649.099 36.5896 649.322 36.8839 649.131 37.2438ZM708.973 37.5008C708.973 37.6421 708.594 37.9274 708.13 38.1348C707.666 38.3415 707.287 38.2257 707.287 37.8777C707.287 37.529 707.666 37.2438 708.13 37.2438C708.594 37.2438 708.973 37.3595 708.973 37.5008ZM737.068 41.4259C737.068 41.5672 736.675 41.8584 736.196 42.0729C735.695 42.296 735.47 42.1861 735.667 41.8159C735.997 41.1937 737.068 40.896 737.068 41.4259ZM798.724 44.1807C798.537 44.3979 798.052 44.4215 797.647 44.2324C797.199 44.0237 797.332 43.8687 797.987 43.8373C798.579 43.8091 798.911 43.9636 798.724 44.1807ZM543.213 45.3825C543.213 46.0727 542.135 46.3631 541.814 45.7586C541.62 45.3929 541.856 45.094 542.337 45.094C542.819 45.094 543.213 45.2235 543.213 45.3825ZM287.398 46.1433C287.212 46.3605 286.727 46.384 286.322 46.195C285.873 45.9863 286.006 45.8312 286.661 45.7998C287.253 45.7717 287.585 45.9261 287.398 46.1433ZM1163.83 48.3649C1163.64 48.7247 1163.23 49.0191 1162.92 49.0191C1162.61 49.0191 1162.51 48.7247 1162.7 48.3649C1162.9 48.0051 1163.3 47.7107 1163.61 47.7107C1163.92 47.7107 1164.02 48.0051 1163.83 48.3649ZM845.923 49.4142C845.737 49.6314 845.252 49.655 844.847 49.4659C844.398 49.2572 844.531 49.1022 845.186 49.0708C845.778 49.0426 846.11 49.197 845.923 49.4142ZM806.029 50.7226C805.842 50.9398 805.357 50.9633 804.952 50.7743C804.504 50.5656 804.637 50.4105 805.291 50.3791C805.884 50.351 806.215 50.5054 806.029 50.7226ZM40.878 52.9442C40.878 53.304 40.3088 53.5775 39.6137 53.5526C38.4073 53.5088 38.4011 53.4806 39.4732 52.9442C40.0913 52.6348 40.66 52.3613 40.7375 52.3358C40.815 52.3109 40.878 52.5844 40.878 52.9442ZM497.138 52.5471C497.138 52.6884 496.746 52.9795 496.266 53.1941C495.766 53.4172 495.54 53.3073 495.737 52.937C496.067 52.3149 497.138 52.0172 497.138 52.5471ZM1083.2 53.5984C1083.2 53.9582 1082.75 54.248 1082.21 54.2427C1081.37 54.2342 1081.35 54.1401 1082.07 53.5984C1083.13 52.8003 1083.2 52.8003 1083.2 53.5984ZM963.512 57.1964C963.127 57.7361 962.401 58.1685 961.898 58.1567C961.129 58.1391 961.158 57.9827 962.074 57.1755C963.494 55.9253 964.409 55.9384 963.512 57.1964ZM351.607 58.1777C351.607 58.5375 351.086 58.8319 350.45 58.8319C349.814 58.8319 349.449 58.5375 349.64 58.1777C349.831 57.8179 350.351 57.5235 350.797 57.5235C351.243 57.5235 351.607 57.8179 351.607 58.1777ZM469.453 59.8812C469.266 60.0984 468.781 60.1219 468.376 59.9329C467.928 59.7242 468.061 59.5691 468.715 59.5377C469.308 59.5096 469.639 59.664 469.453 59.8812ZM453.158 61.1896C452.971 61.4068 452.486 61.4303 452.081 61.2412C451.633 61.0326 451.766 60.8775 452.42 60.8461C453.013 60.818 453.344 60.9724 453.158 61.1896ZM966.883 64.0654C966.883 64.4252 966.441 64.7149 965.9 64.7097C965.059 64.7012 965.039 64.607 965.759 64.0654C966.82 63.2672 966.883 63.2672 966.883 64.0654ZM362.692 65.7689C362.506 65.9861 362.021 66.0096 361.616 65.8205C361.167 65.6118 361.301 65.4568 361.955 65.4254C362.547 65.3973 362.879 65.5517 362.692 65.7689ZM276.722 66.423C276.536 66.6402 276.051 66.6638 275.646 66.4747C275.197 66.266 275.33 66.111 275.985 66.0796C276.577 66.0514 276.909 66.2059 276.722 66.423ZM382.359 66.423C382.172 66.6402 381.687 66.6638 381.282 66.4747C380.834 66.266 380.967 66.111 381.621 66.0796C382.214 66.0514 382.545 66.2059 382.359 66.423ZM1400.99 70.2938C1400.39 70.8185 1399.77 71.0881 1399.6 70.8918C1399.25 70.4816 1400.68 69.3139 1401.51 69.3296C1401.82 69.3354 1401.58 69.7698 1400.99 70.2938ZM1329.87 74.5323C1328.77 75.3605 1328.02 75.3605 1328.46 74.5323C1328.65 74.1725 1329.24 73.8827 1329.76 73.888C1330.58 73.8971 1330.59 73.9861 1329.87 74.5323ZM1118.31 75.1865C1118.12 75.5463 1117.54 75.8361 1117.02 75.8309C1116.2 75.8217 1116.18 75.7327 1116.91 75.1865C1118.01 74.3583 1118.75 74.3583 1118.31 75.1865ZM53.3802 75.6195C52.9941 75.8014 52.362 75.8014 51.9754 75.6195C51.5894 75.4383 51.9052 75.2898 52.6778 75.2898C53.4504 75.2898 53.7667 75.4383 53.3802 75.6195ZM493.345 76.2737C492.959 76.4556 492.327 76.4556 491.94 76.2737C491.554 76.0925 491.87 75.944 492.643 75.944C493.415 75.944 493.732 76.0925 493.345 76.2737ZM670.483 77.8032C670.292 78.163 669.883 78.4574 669.574 78.4574C669.265 78.4574 669.168 78.163 669.359 77.8032C669.55 77.4434 669.959 77.1491 670.268 77.1491C670.577 77.1491 670.674 77.4434 670.483 77.8032ZM164.905 78.1984C164.718 78.4156 164.233 78.4391 163.828 78.2501C163.38 78.0414 163.513 77.8863 164.168 77.8549C164.76 77.8268 165.091 77.9812 164.905 78.1984ZM495.862 78.8526C495.675 79.0698 495.19 79.0933 494.785 78.9042C494.337 78.6956 494.47 78.5405 495.125 78.5091C495.717 78.481 496.048 78.6354 495.862 78.8526ZM233.771 80.8092C233.614 81.5949 231.361 81.9867 231.361 81.2285C231.361 80.904 231.505 80.471 231.68 80.2663C232.173 79.6926 233.905 80.1426 233.771 80.8092ZM432.367 80.1609C432.181 80.3781 431.696 80.4017 431.291 80.2126C430.842 80.0039 430.976 79.8489 431.63 79.8175C432.223 79.7893 432.554 79.9438 432.367 80.1609ZM744.091 80.42C743.9 80.7798 743.316 81.0696 742.794 81.0643C741.975 81.0552 741.96 80.9662 742.687 80.42C743.787 79.5918 744.531 79.5918 744.091 80.42ZM789.043 81.0742C788.852 81.434 788.316 81.7284 787.853 81.7284C787.389 81.7284 787.166 81.434 787.357 81.0742C787.548 80.7144 788.084 80.42 788.547 80.42C789.011 80.42 789.234 80.7144 789.043 81.0742ZM485.08 83.6471C484.877 84.0311 484.282 84.3359 483.76 84.3242C482.925 84.3058 482.942 84.1875 483.892 83.3501C485.047 82.3328 485.692 82.4944 485.08 83.6471ZM1064.93 83.0367C1064.74 83.3965 1064.29 83.6863 1063.92 83.6811C1063.52 83.6745 1063.59 83.4175 1064.09 83.0367C1065.17 82.2242 1065.37 82.2242 1064.93 83.0367ZM1220.3 83.3638C1219.91 83.9035 1219.19 84.3346 1218.68 84.3222C1218.06 84.3058 1218.21 84.0069 1219.17 83.3638C1220.98 82.1634 1221.15 82.1634 1220.3 83.3638ZM710.98 85.3401C709.826 86.3574 709.181 86.1958 709.793 85.0431C709.996 84.6591 710.59 84.3542 711.113 84.366C711.947 84.3843 711.931 84.5027 710.98 85.3401ZM602.527 87.3098C601.307 88.3833 600.527 88.5456 600.527 87.7253C600.527 86.8094 601.218 86.3063 602.447 86.3286C603.597 86.3488 603.598 86.3658 602.527 87.3098ZM125.162 90.2327C125.162 90.5925 124.594 90.8823 123.898 90.8771C122.876 90.8686 122.795 90.7456 123.477 90.2327C124.566 89.413 125.162 89.413 125.162 90.2327ZM376.471 90.0116C376.085 90.1935 375.452 90.1935 375.066 90.0116C374.68 89.8304 374.996 89.6819 375.768 89.6819C376.541 89.6819 376.857 89.8304 376.471 90.0116ZM1005.09 89.8356C1005.09 89.9769 1004.7 90.268 1004.22 90.4826C1003.72 90.7057 1003.49 90.5958 1003.69 90.2255C1004.02 89.6034 1005.09 89.3057 1005.09 89.8356ZM403.149 94.553C402.962 94.7702 402.477 94.7937 402.072 94.6046C401.624 94.396 401.757 94.2409 402.412 94.2095C403.004 94.1814 403.335 94.3358 403.149 94.553ZM370.992 95.4662C370.801 95.826 370.266 96.1204 369.802 96.1204C369.338 96.1204 369.115 95.826 369.306 95.4662C369.497 95.1064 370.033 94.812 370.496 94.812C370.96 94.812 371.183 95.1064 370.992 95.4662ZM509.758 96.5475C508.427 97.6806 507.814 97.6643 507.814 96.4953C507.814 95.9824 508.257 95.4453 508.797 95.302C510.355 94.8905 510.89 95.5833 509.758 96.5475ZM391.501 96.1204C391.501 96.4802 390.996 96.7746 390.378 96.7746C389.759 96.7746 389.254 96.4802 389.254 96.1204C389.254 95.7606 389.759 95.4662 390.378 95.4662C390.996 95.4662 391.501 95.7606 391.501 96.1204ZM1186.34 96.4613C1185.75 96.9859 1185.12 97.2555 1184.96 97.0592C1184.6 96.6491 1186.03 95.4813 1186.87 95.497C1187.17 95.5029 1186.94 95.9373 1186.34 96.4613ZM277.717 99.3913C277.526 99.7511 277.117 100.045 276.808 100.045C276.499 100.045 276.402 99.7511 276.594 99.3913C276.785 99.0315 277.194 98.7371 277.503 98.7371C277.812 98.7371 277.908 99.0315 277.717 99.3913ZM486.31 99.7865C486.123 100.004 485.638 100.027 485.233 99.8381C484.785 99.6294 484.918 99.4744 485.572 99.443C486.165 99.4149 486.496 99.5693 486.31 99.7865ZM579.022 101.095C578.836 101.312 578.351 101.336 577.946 101.146C577.497 100.938 577.631 100.783 578.285 100.751C578.878 100.723 579.209 100.878 579.022 101.095ZM413.825 101.749C413.638 101.966 413.153 101.99 412.748 101.801C412.3 101.592 412.433 101.437 413.088 101.406C413.68 101.377 414.011 101.532 413.825 101.749ZM845.256 103.927C845.052 104.311 844.458 104.616 843.935 104.604C843.101 104.586 843.117 104.467 844.068 103.63C845.223 102.613 845.868 102.774 845.256 103.927ZM1139.95 103.316C1138.85 104.145 1138.1 104.145 1138.54 103.316C1138.73 102.957 1139.32 102.667 1139.84 102.672C1140.66 102.681 1140.67 102.77 1139.95 103.316ZM1024.2 104.298C1023.43 105.377 1021.95 105.628 1021.95 104.679C1021.95 104.027 1022.91 103.45 1024.12 103.368C1024.75 103.326 1024.76 103.506 1024.2 104.298ZM882.599 107.242C882.135 107.59 881.503 107.875 881.194 107.875C880.885 107.875 881.011 107.59 881.475 107.242C881.939 106.893 882.571 106.608 882.88 106.608C883.189 106.608 883.062 106.893 882.599 107.242ZM510.471 110.908C510.285 111.125 509.8 111.148 509.394 110.959C508.946 110.751 509.079 110.596 509.734 110.564C510.326 110.536 510.658 110.69 510.471 110.908ZM539.826 113.155C538.921 113.821 537.594 113.988 537.594 113.435C537.594 112.949 540.064 111.91 540.388 112.26C540.533 112.418 540.28 112.82 539.826 113.155ZM243.161 114.438C243.161 114.797 242.718 115.087 242.177 115.082C241.337 115.073 241.317 114.979 242.037 114.438C243.097 113.639 243.161 113.639 243.161 114.438ZM148.341 116.179C147.955 116.361 147.322 116.361 146.936 116.179C146.55 115.998 146.866 115.849 147.638 115.849C148.411 115.849 148.727 115.998 148.341 116.179ZM148.341 118.142C147.955 118.323 147.322 118.323 146.936 118.142C146.55 117.96 146.866 117.812 147.638 117.812C148.411 117.812 148.727 117.96 148.341 118.142ZM317.179 119.412C316.992 119.629 316.507 119.653 316.102 119.464C315.654 119.255 315.787 119.1 316.442 119.069C317.034 119.04 317.365 119.195 317.179 119.412ZM415.382 119.671C415.191 120.031 414.607 120.321 414.085 120.315C413.266 120.306 413.251 120.217 413.977 119.671C415.077 118.843 415.821 118.843 415.382 119.671ZM526.637 121.634C526.446 121.993 525.911 122.288 525.447 122.288C524.984 122.288 524.761 121.993 524.952 121.634C525.143 121.274 525.678 120.979 526.142 120.979C526.605 120.979 526.828 121.274 526.637 121.634ZM969.54 121.375C969.354 121.592 968.869 121.615 968.464 121.426C968.015 121.218 968.149 121.063 968.803 121.031C969.395 121.003 969.727 121.157 969.54 121.375ZM823.447 122.029C823.261 122.246 822.776 122.269 822.371 122.08C821.922 121.872 822.056 121.717 822.71 121.685C823.302 121.657 823.634 121.812 823.447 122.029ZM1365.03 125.245C1363.87 126.263 1363.23 126.101 1363.84 124.948C1364.04 124.564 1364.64 124.26 1365.16 124.271C1365.99 124.29 1365.98 124.408 1365.03 125.245ZM731.858 125.954C731.672 126.171 731.187 126.195 730.782 126.006C730.333 125.797 730.466 125.642 731.121 125.61C731.713 125.582 732.045 125.737 731.858 125.954ZM665.426 126.867C665.235 127.227 664.651 127.5 664.128 127.476C663.354 127.438 663.386 127.326 664.302 126.867C665.806 126.115 665.825 126.115 665.426 126.867ZM760.515 127.916C760.328 128.134 759.844 128.157 759.438 127.968C758.99 127.759 759.123 127.604 759.778 127.573C760.37 127.545 760.702 127.699 760.515 127.916ZM659.526 130.138C659.526 130.498 659.084 130.788 658.543 130.782C657.702 130.774 657.682 130.68 658.402 130.138C659.462 129.34 659.526 129.34 659.526 130.138ZM492.643 131.446C492.179 131.795 491.547 132.08 491.238 132.08C490.929 132.08 491.055 131.795 491.519 131.446C491.982 131.098 492.615 130.812 492.924 130.812C493.233 130.812 493.106 131.098 492.643 131.446ZM1252.89 135.301C1252.89 136.027 1251.16 136.848 1250.72 136.333C1250.54 136.124 1250.76 135.681 1251.22 135.346C1252.27 134.572 1252.89 134.556 1252.89 135.301ZM251.589 138.642C251.126 138.991 250.493 139.276 250.184 139.276C249.875 139.276 250.002 138.991 250.465 138.642C250.929 138.294 251.561 138.009 251.87 138.009C252.179 138.009 252.053 138.294 251.589 138.642ZM1123.97 139.677C1122.68 140.774 1121.97 140.863 1121.97 139.93C1121.97 139.195 1124.32 137.95 1124.78 138.445C1124.93 138.612 1124.56 139.167 1123.97 139.677ZM1039.65 140.605C1039.46 140.965 1038.87 141.238 1038.35 141.213C1037.58 141.176 1037.61 141.064 1038.53 140.605C1040.03 139.853 1040.05 139.853 1039.65 140.605ZM608.674 141.913C608.483 142.273 608.089 142.568 607.798 142.568C607.507 142.568 607.27 142.273 607.27 141.913C607.27 141.554 607.664 141.259 608.146 141.259C608.627 141.259 608.865 141.554 608.674 141.913ZM364.53 142.568C364.53 142.927 364.009 143.222 363.373 143.222C362.737 143.222 362.373 142.927 362.564 142.568C362.755 142.208 363.275 141.913 363.721 141.913C364.166 141.913 364.53 142.208 364.53 142.568ZM1158.92 145.301C1158.6 146.44 1156.93 147.507 1156.41 146.907C1156.16 146.62 1156.45 145.968 1157.05 145.458C1158.38 144.329 1159.22 144.259 1158.92 145.301ZM297.512 146.234C297.326 146.451 296.841 146.474 296.436 146.285C295.987 146.077 296.121 145.922 296.775 145.89C297.367 145.862 297.699 146.016 297.512 146.234ZM662.183 146.888C661.997 147.105 661.512 147.129 661.107 146.939C660.658 146.731 660.791 146.576 661.446 146.544C662.038 146.516 662.37 146.671 662.183 146.888ZM530.137 151.467C529.951 151.684 529.466 151.708 529.061 151.519C528.612 151.31 528.746 151.155 529.4 151.124C529.992 151.096 530.324 151.25 530.137 151.467ZM766.286 152.707C766.286 153.295 765.779 153.68 765.022 153.668C763.789 153.648 763.785 153.623 764.848 152.687C766.203 151.494 766.286 151.495 766.286 152.707ZM1015.21 152.964C1015.21 153.69 1013.48 154.511 1013.04 153.996C1012.86 153.787 1013.08 153.344 1013.54 153.009C1014.59 152.235 1015.21 152.219 1015.21 152.964ZM97.0676 155.067C97.0676 155.388 96.8355 155.651 96.5518 155.651C96.268 155.651 95.6359 155.83 95.147 156.048C94.5761 156.304 94.2581 156.089 94.2581 155.448C94.2581 154.9 94.5745 154.323 94.9605 154.167C95.864 153.8 97.0676 154.314 97.0676 155.067ZM202.454 155.594C201.9 156.636 199.895 156.462 199.895 155.372C199.895 154.327 201.597 153.651 202.346 154.399C202.613 154.665 202.661 155.203 202.454 155.594ZM756.486 154.691C755.24 155.787 754.486 155.923 754.486 155.051C754.486 154.376 755.476 153.807 756.734 153.761C757.362 153.738 757.299 153.975 756.486 154.691ZM964.388 155.345C963.142 156.442 962.388 156.578 962.388 155.706C962.388 155.03 963.378 154.461 964.636 154.415C965.264 154.393 965.2 154.629 964.388 155.345ZM1132.08 157.614C1131.64 157.934 1131.14 158.05 1130.99 157.87C1130.83 157.69 1131.07 157.28 1131.52 156.96C1131.96 156.639 1132.46 156.524 1132.61 156.704C1132.76 156.884 1132.53 157.293 1132.08 157.614ZM571.87 158.525C571.87 159.609 570.655 160.236 568.593 160.216L567.094 160.202L568.499 158.922C570.142 157.426 571.87 157.223 571.87 158.525ZM433.491 159.972C433.305 160.189 432.82 160.212 432.415 160.023C431.966 159.814 432.099 159.659 432.754 159.628C433.346 159.6 433.678 159.754 433.491 159.972ZM187.381 161.28C187.194 161.497 186.709 161.521 186.304 161.332C185.856 161.123 185.989 160.968 186.643 160.936C187.236 160.908 187.567 161.063 187.381 161.28ZM692.818 162.626C692.432 162.808 691.8 162.808 691.414 162.626C691.028 162.445 691.343 162.296 692.116 162.296C692.888 162.296 693.205 162.445 692.818 162.626ZM140.615 164.81C140.424 165.17 139.903 165.464 139.458 165.464C139.012 165.464 138.648 165.17 138.648 164.81C138.648 164.45 139.169 164.156 139.805 164.156C140.441 164.156 140.806 164.45 140.615 164.81ZM1027.85 165.464C1027.66 165.824 1027.25 166.118 1026.94 166.118C1026.63 166.118 1026.53 165.824 1026.73 165.464C1026.92 165.104 1027.33 164.81 1027.63 164.81C1027.94 164.81 1028.04 165.104 1027.85 165.464ZM1133.05 165.205C1132.87 165.422 1132.38 165.446 1131.98 165.257C1131.53 165.048 1131.66 164.893 1132.32 164.862C1132.91 164.833 1133.24 164.988 1133.05 165.205ZM837.085 167.684C837.085 167.825 836.706 168.11 836.242 168.318C835.779 168.524 835.399 168.409 835.399 168.061C835.399 167.712 835.779 167.427 836.242 167.427C836.706 167.427 837.085 167.542 837.085 167.684ZM264.091 169.168C263.705 169.35 263.073 169.35 262.687 169.168C262.301 168.987 262.616 168.838 263.389 168.838C264.162 168.838 264.478 168.987 264.091 169.168ZM947.217 172.584C947.217 172.902 946.711 173.316 946.093 173.504C944.875 173.874 944.521 172.979 945.672 172.439C946.779 171.919 947.217 171.96 947.217 172.584ZM1080.95 174.623C1080.5 174.943 1080.01 175.058 1079.86 174.878C1079.7 174.699 1079.94 174.289 1080.39 173.968C1080.83 173.648 1081.32 173.533 1081.48 173.713C1081.63 173.893 1081.39 174.302 1080.95 174.623ZM1159.61 174.95C1158.84 176.029 1157.37 176.28 1157.37 175.331C1157.37 174.679 1158.32 174.102 1159.54 174.02C1160.16 173.978 1160.18 174.158 1159.61 174.95ZM453.31 175.277C453.31 175.637 452.915 175.931 452.434 175.931C451.952 175.931 451.714 175.637 451.905 175.277C452.096 174.917 452.49 174.623 452.781 174.623C453.072 174.623 453.31 174.917 453.31 175.277ZM747.182 175.277C747.182 175.637 746.74 175.926 746.198 175.921C745.358 175.913 745.338 175.818 746.058 175.277C747.118 174.479 747.182 174.479 747.182 175.277ZM406.52 177.635C406.334 177.852 405.849 177.875 405.444 177.686C404.995 177.477 405.128 177.322 405.783 177.291C406.375 177.263 406.707 177.417 406.52 177.635ZM717.682 179.856C717.491 180.216 717.034 180.506 716.666 180.5C716.263 180.494 716.333 180.237 716.839 179.856C717.919 179.044 718.113 179.044 717.682 179.856ZM930.079 181.164C929.888 181.524 929.352 181.819 928.889 181.819C928.425 181.819 928.202 181.524 928.393 181.164C928.584 180.805 929.12 180.51 929.583 180.51C930.047 180.51 930.27 180.805 930.079 181.164ZM1261.88 182.793C1261.5 183.329 1260.94 183.586 1260.63 183.365C1260.29 183.121 1260.37 182.743 1260.84 182.401C1262.05 181.507 1262.64 181.729 1261.88 182.793ZM998.911 182.73C998.911 182.871 998.519 183.162 998.039 183.377C997.539 183.6 997.314 183.49 997.51 183.12C997.84 182.498 998.911 182.2 998.911 182.73ZM641.545 183.781C641.545 184.141 641.151 184.435 640.669 184.435C640.188 184.435 639.949 184.141 640.141 183.781C640.332 183.421 640.725 183.127 641.016 183.127C641.307 183.127 641.545 183.421 641.545 183.781ZM130.36 186.177C129.974 186.359 129.342 186.359 128.955 186.177C128.569 185.996 128.885 185.847 129.658 185.847C130.43 185.847 130.747 185.996 130.36 186.177ZM280.094 188.102C279.907 188.319 279.422 188.342 279.017 188.153C278.569 187.944 278.702 187.789 279.356 187.758C279.949 187.73 280.28 187.884 280.094 188.102ZM1274.24 190.58C1274.24 190.721 1273.85 191.013 1273.37 191.227C1272.87 191.45 1272.64 191.34 1272.84 190.97C1273.17 190.348 1274.24 190.05 1274.24 190.58ZM373.93 192.027C373.744 192.244 373.259 192.267 372.854 192.078C372.405 191.87 372.538 191.715 373.193 191.683C373.785 191.655 374.117 191.809 373.93 192.027ZM467.205 192.681C467.018 192.898 466.534 192.922 466.128 192.732C465.68 192.524 465.813 192.369 466.468 192.337C467.06 192.309 467.392 192.464 467.205 192.681ZM548.832 192.94C547.732 193.768 546.988 193.768 547.428 192.94C547.619 192.58 548.202 192.29 548.725 192.295C549.544 192.305 549.559 192.394 548.832 192.94ZM1036.98 193.103C1036.86 193.553 1036.14 194.004 1035.39 194.104C1034.07 194.281 1034.06 194.255 1035.12 193.286C1036.44 192.074 1037.3 191.991 1036.98 193.103ZM1119.72 196.224C1119.72 197.06 1117.03 198.536 1116.55 197.969C1116.35 197.739 1116.51 197.102 1116.9 196.554C1117.7 195.433 1119.72 195.197 1119.72 196.224ZM460.462 199.877C460.276 200.094 459.791 200.118 459.386 199.928C458.937 199.72 459.07 199.565 459.725 199.533C460.317 199.505 460.649 199.66 460.462 199.877ZM506.269 199.915C505.883 200.097 505.251 200.097 504.864 199.915C504.478 199.734 504.794 199.585 505.566 199.585C506.339 199.585 506.655 199.734 506.269 199.915ZM302.16 200.72C302.16 201.523 300.577 202.167 300.226 201.507C300.071 201.213 300.104 200.784 300.302 200.554C300.838 199.931 302.16 200.049 302.16 200.72ZM47.4684 201.185C47.2819 201.402 46.797 201.426 46.3919 201.237C45.9435 201.028 46.0766 200.873 46.7312 200.842C47.3235 200.814 47.655 200.968 47.4684 201.185ZM845.233 201.444C845.042 201.804 844.458 202.094 843.935 202.089C843.117 202.079 843.101 201.99 843.828 201.444C844.928 200.616 845.672 200.616 845.233 201.444ZM627.498 202.774C627.498 203.509 625.145 204.753 624.689 204.259C624.371 203.913 626.349 202.098 627.043 202.098C627.293 202.098 627.498 202.403 627.498 202.774ZM835.68 203.407C835.489 203.767 835.032 204.056 834.664 204.051C834.262 204.045 834.331 203.788 834.838 203.407C835.917 202.594 836.111 202.594 835.68 203.407ZM325.607 205.765C325.421 205.982 324.936 206.005 324.531 205.816C324.082 205.607 324.215 205.452 324.87 205.421C325.462 205.393 325.794 205.547 325.607 205.765ZM874.17 206.281C874.17 206.422 873.791 206.707 873.327 206.915C872.864 207.121 872.485 207.005 872.485 206.657C872.485 206.309 872.864 206.024 873.327 206.024C873.791 206.024 874.17 206.139 874.17 206.281ZM574.118 207.255C574.118 207.573 573.612 207.987 572.994 208.176C572.376 208.364 571.87 208.273 571.87 207.973C571.87 207.673 572.313 207.293 572.853 207.128C573.394 206.964 573.9 206.795 573.977 206.754C574.055 206.712 574.118 206.938 574.118 207.255ZM1017.45 210.004C1017.45 210.689 1014.65 212.132 1014.24 211.657C1014.1 211.497 1014.52 210.742 1015.18 209.979C1016.32 208.653 1017.45 208.665 1017.45 210.004ZM494.738 212.306C494.551 212.524 494.066 212.547 493.661 212.358C493.213 212.149 493.346 211.994 494.001 211.963C494.593 211.935 494.925 212.089 494.738 212.306ZM1030.66 213.22C1030.47 213.579 1030.01 213.869 1029.64 213.864C1029.24 213.857 1029.31 213.6 1029.82 213.22C1030.9 212.407 1031.09 212.407 1030.66 213.22ZM1183.21 214.528C1182.11 215.356 1181.37 215.356 1181.81 214.528C1182 214.168 1182.58 213.878 1183.11 213.884C1183.92 213.893 1183.94 213.982 1183.21 214.528ZM387.29 217.15C387.652 217.832 385.348 219.165 384.643 218.683C384.424 218.534 384.388 217.979 384.562 217.451C384.922 216.358 386.762 216.156 387.29 217.15ZM852.537 218.453C852.346 218.813 851.811 219.107 851.347 219.107C850.884 219.107 850.661 218.813 850.852 218.453C851.043 218.093 851.578 217.799 852.042 217.799C852.505 217.799 852.728 218.093 852.537 218.453ZM1164.67 219.761C1164.67 220.121 1164.1 220.395 1163.41 220.37C1162.2 220.326 1162.19 220.298 1163.27 219.761C1163.88 219.452 1164.45 219.179 1164.53 219.153C1164.61 219.128 1164.67 219.402 1164.67 219.761ZM1124.78 222.953C1124.78 223.843 1123.2 225.148 1122.47 224.864C1122.03 224.693 1122.13 224.244 1122.77 223.494C1123.81 222.29 1124.78 222.028 1124.78 222.953ZM399.777 223.428C399.591 223.645 399.106 223.668 398.701 223.479C398.253 223.27 398.386 223.115 399.04 223.084C399.633 223.056 399.964 223.21 399.777 223.428ZM458.367 223.944C458.367 224.085 457.988 224.37 457.524 224.578C457.061 224.784 456.681 224.668 456.681 224.32C456.681 223.972 457.061 223.687 457.524 223.687C457.988 223.687 458.367 223.802 458.367 223.944ZM725.268 224.598C725.268 224.739 724.888 225.024 724.425 225.232C723.961 225.438 723.582 225.323 723.582 224.975C723.582 224.626 723.961 224.341 724.425 224.341C724.888 224.341 725.268 224.456 725.268 224.598ZM1393.92 229.574C1393.46 229.923 1392.7 230.208 1392.24 230.208C1391.49 230.208 1391.49 230.138 1392.24 229.574C1392.7 229.226 1393.46 228.94 1393.92 228.94C1394.67 228.94 1394.67 229.01 1393.92 229.574ZM1288.29 230.813C1288.29 231.538 1286.56 232.359 1286.12 231.844C1285.94 231.636 1286.16 231.192 1286.62 230.857C1287.67 230.083 1288.29 230.067 1288.29 230.813ZM1216.37 232.191C1216.37 232.551 1215.92 232.841 1215.38 232.835C1214.54 232.827 1214.52 232.733 1215.24 232.191C1216.3 231.393 1216.37 231.393 1216.37 232.191ZM294.855 235.462C294.855 235.822 294.208 236.116 293.417 236.116C292.602 236.116 292.129 235.833 292.327 235.462C292.518 235.102 293.164 234.808 293.764 234.808C294.365 234.808 294.855 235.102 294.855 235.462ZM933.731 235.462C933.731 235.822 933.289 236.111 932.748 236.106C931.907 236.098 931.887 236.004 932.608 235.462C933.668 234.664 933.731 234.664 933.731 235.462ZM290.079 237.424C289.888 237.784 289.431 238.074 289.063 238.069C288.66 238.062 288.73 237.805 289.236 237.424C290.316 236.612 290.51 236.612 290.079 237.424ZM736.225 238.079C736.034 238.438 735.498 238.733 735.035 238.733C734.571 238.733 734.348 238.438 734.539 238.079C734.73 237.719 735.266 237.424 735.729 237.424C736.193 237.424 736.416 237.719 736.225 238.079ZM1220.58 241.35C1220.39 241.709 1219.8 241.983 1219.28 241.958C1218.51 241.92 1218.54 241.808 1219.46 241.35C1220.96 240.597 1220.98 240.597 1220.58 241.35ZM574.118 244.909C574.118 245.599 573.039 245.89 572.719 245.285C572.525 244.919 572.76 244.62 573.242 244.62C573.723 244.62 574.118 244.75 574.118 244.909ZM724.706 244.878C724.706 245.019 724.314 245.31 723.834 245.525C723.334 245.748 723.108 245.638 723.305 245.267C723.635 244.645 724.706 244.348 724.706 244.878ZM435.47 248.324C435.084 248.506 434.452 248.506 434.065 248.324C433.679 248.143 433.995 247.995 434.767 247.995C435.54 247.995 435.856 248.143 435.47 248.324ZM949.312 252.212C949.126 252.429 948.641 252.452 948.236 252.263C947.787 252.055 947.92 251.9 948.575 251.868C949.167 251.84 949.499 251.995 949.312 252.212ZM59.9824 254.433C59.9824 254.793 59.4767 255.087 58.8587 255.087C58.2406 255.087 57.7349 254.793 57.7349 254.433C57.7349 254.073 58.2406 253.779 58.8587 253.779C59.4767 253.779 59.9824 254.073 59.9824 254.433ZM617.793 256.137C617.607 256.354 617.122 256.378 616.717 256.188C616.268 255.98 616.401 255.825 617.056 255.793C617.648 255.765 617.98 255.92 617.793 256.137ZM1024.04 256.791C1023.86 257.008 1023.37 257.032 1022.97 256.843C1022.52 256.634 1022.65 256.479 1023.31 256.448C1023.9 256.419 1024.23 256.574 1024.04 256.791ZM450.219 257.704C450.028 258.064 449.571 258.354 449.203 258.349C448.801 258.342 448.87 258.085 449.377 257.704C450.456 256.892 450.65 256.892 450.219 257.704ZM561.604 258.099C561.417 258.317 560.932 258.34 560.527 258.151C560.079 257.942 560.212 257.787 560.866 257.756C561.459 257.728 561.79 257.882 561.604 258.099ZM502.195 260.321C502.195 260.681 501.5 260.971 500.65 260.965C499.446 260.957 499.29 260.815 499.947 260.321C501.047 259.494 502.195 259.494 502.195 260.321ZM329.693 262.283C328.603 263.103 328.007 263.103 328.007 262.283C328.007 261.924 328.576 261.634 329.271 261.639C330.293 261.648 330.374 261.771 329.693 262.283ZM980.088 263.592C979.897 263.952 979.313 264.241 978.79 264.236C977.972 264.227 977.957 264.138 978.683 263.592C979.783 262.764 980.527 262.764 980.088 263.592ZM39.1923 264.246C39.1923 264.606 38.7017 264.9 38.1016 264.9C37.5015 264.9 36.8548 264.606 36.6637 264.246C36.4665 263.875 36.9391 263.592 37.7544 263.592C38.545 263.592 39.1923 263.886 39.1923 264.246ZM321.674 263.987C321.487 264.204 321.002 264.228 320.597 264.039C320.149 263.83 320.282 263.675 320.937 263.644C321.529 263.615 321.86 263.77 321.674 263.987ZM879.227 264.246C878.764 264.595 878.132 264.88 877.823 264.88C877.514 264.88 877.64 264.595 878.104 264.246C878.567 263.897 879.199 263.612 879.508 263.612C879.817 263.612 879.691 263.897 879.227 264.246ZM819.104 264.856C819.104 265.619 816.901 266.478 816.41 265.906C815.988 265.415 817.371 264.271 818.402 264.256C818.789 264.251 819.104 264.521 819.104 264.856ZM753.363 265.554C752.899 265.903 752.267 266.188 751.958 266.188C751.649 266.188 751.775 265.903 752.239 265.554C752.702 265.206 753.335 264.921 753.644 264.921C753.953 264.921 753.826 265.206 753.363 265.554ZM322.308 267.589C321.889 267.898 321.166 268.146 320.702 268.14C320.054 268.132 320.106 267.913 320.925 267.19C321.512 266.673 322.234 266.425 322.531 266.638C322.842 266.862 322.747 267.264 322.308 267.589ZM597.155 268.171C597.155 268.531 596.586 268.821 595.891 268.815C594.869 268.807 594.788 268.684 595.47 268.171C596.559 267.351 597.155 267.351 597.155 268.171ZM276.722 269.875C276.536 270.092 276.051 270.115 275.646 269.926C275.197 269.718 275.33 269.563 275.985 269.531C276.577 269.503 276.909 269.658 276.722 269.875ZM598.769 272.162C597.716 272.939 596.594 272.894 596.594 272.075C596.594 271.139 599.065 270.117 599.331 270.943C599.446 271.301 599.193 271.849 598.769 272.162ZM785.11 272.096C784.919 272.456 784.461 272.746 784.093 272.741C783.691 272.734 783.761 272.477 784.267 272.096C785.346 271.284 785.541 271.284 785.11 272.096ZM396.968 273.146C396.781 273.363 396.297 273.386 395.891 273.197C395.443 272.989 395.576 272.834 396.231 272.802C396.823 272.774 397.155 272.928 396.968 273.146ZM1340.26 273.405C1340.07 273.764 1339.36 274.054 1338.68 274.049C1337.68 274.04 1337.61 273.92 1338.3 273.405C1339.4 272.572 1340.71 272.572 1340.26 273.405ZM712.625 275.367C712.434 275.727 712.025 276.021 711.716 276.021C711.407 276.021 711.31 275.727 711.501 275.367C711.692 275.007 712.102 274.713 712.411 274.713C712.72 274.713 712.816 275.007 712.625 275.367ZM185.133 277.725C184.947 277.942 184.462 277.966 184.056 277.777C183.608 277.568 183.741 277.413 184.396 277.381C184.988 277.353 185.32 277.508 185.133 277.725ZM1259.07 277.984C1257.97 278.812 1257.23 278.812 1257.66 277.984C1257.86 277.624 1258.44 277.334 1258.96 277.34C1259.78 277.349 1259.8 277.438 1259.07 277.984ZM322.388 279.216C322.388 279.534 321.882 279.948 321.264 280.136C320.047 280.507 319.693 279.612 320.843 279.071C321.95 278.551 322.388 278.592 322.388 279.216ZM478.033 281.255C478.033 281.615 477.464 281.888 476.769 281.863C475.563 281.82 475.557 281.791 476.629 281.255C477.247 280.945 477.815 280.672 477.893 280.646C477.97 280.622 478.033 280.895 478.033 281.255ZM1408.81 281.909C1408.62 282.269 1408.04 282.542 1407.52 282.518C1406.74 282.48 1406.78 282.368 1407.69 281.909C1409.19 281.157 1409.21 281.157 1408.81 281.909ZM959.86 285.834C959.669 286.194 959.085 286.484 958.562 286.479C957.743 286.469 957.728 286.38 958.455 285.834C959.555 285.006 960.299 285.006 959.86 285.834ZM485.9 288.451C485.9 288.811 485.505 289.105 485.024 289.105C484.542 289.105 484.304 288.811 484.495 288.451C484.686 288.091 485.08 287.797 485.371 287.797C485.662 287.797 485.9 288.091 485.9 288.451ZM777.243 295.647C777.052 296.007 776.468 296.297 775.946 296.291C775.127 296.282 775.112 296.193 775.839 295.647C776.939 294.819 777.683 294.819 777.243 295.647ZM742.406 296.955C742.215 297.315 741.757 297.605 741.389 297.6C740.987 297.593 741.057 297.336 741.563 296.955C742.642 296.143 742.837 296.143 742.406 296.955ZM1353.47 297.259C1353.47 297.426 1352.96 297.878 1352.34 298.264C1351.67 298.686 1351.22 298.714 1351.22 298.335C1351.22 297.988 1351.66 297.571 1352.2 297.406C1352.74 297.242 1353.25 297.073 1353.33 297.031C1353.4 296.989 1353.47 297.092 1353.47 297.259ZM56.6111 299.572C56.6111 299.932 55.9789 300.226 55.2063 300.226C54.4337 300.226 53.8016 299.932 53.8016 299.572C53.8016 299.212 54.4337 298.918 55.2063 298.918C55.9789 298.918 56.6111 299.212 56.6111 299.572ZM841.58 300.901C841.58 301.684 839.995 302.524 839.533 301.986C839.041 301.413 839.876 300.226 840.771 300.226C841.216 300.226 841.58 300.53 841.58 300.901ZM509.909 301.276C509.723 301.493 509.238 301.516 508.833 301.327C508.384 301.119 508.517 300.964 509.172 300.932C509.764 300.904 510.096 301.058 509.909 301.276ZM453.029 302.843C452.838 303.203 452.302 303.497 451.839 303.497C451.375 303.497 451.152 303.203 451.343 302.843C451.534 302.483 452.07 302.189 452.533 302.189C452.997 302.189 453.22 302.483 453.029 302.843ZM674.954 306.159C674.776 306.494 674.077 306.759 673.4 306.747C672.209 306.727 672.203 306.695 673.234 305.787C674.333 304.819 675.528 305.078 674.954 306.159ZM1210.7 309.116C1209.94 310.183 1207.94 310.363 1207.94 309.364C1207.94 308.58 1210.25 307.429 1210.91 307.884C1211.16 308.054 1211.07 308.608 1210.7 309.116ZM158.325 310.685C157.885 311.002 157.277 311.082 156.974 310.865C156.67 310.646 156.911 310.261 157.509 310.008C158.852 309.44 159.411 309.904 158.325 310.685ZM888.78 314.291C888.78 314.831 888.548 315.272 888.264 315.272C887.98 315.272 887.348 315.451 886.859 315.67C886.288 315.925 885.97 315.71 885.97 315.07C885.97 314.079 886.734 313.46 888.077 313.362C888.464 313.334 888.78 313.751 888.78 314.291ZM303.708 316.744C303.352 318.002 301.036 318.184 301.036 316.954C301.036 316.286 301.543 315.927 302.487 315.927C303.398 315.927 303.853 316.232 303.708 316.744ZM1080.67 318.543C1080.48 318.903 1079.89 319.193 1079.37 319.188C1078.55 319.179 1078.54 319.09 1079.26 318.543C1080.36 317.715 1081.11 317.715 1080.67 318.543ZM1176.47 318.794C1176.47 318.932 1175.96 319.199 1175.35 319.387C1174.73 319.576 1174.36 319.463 1174.54 319.137C1174.84 318.567 1176.47 318.278 1176.47 318.794ZM390.097 321.16C389.906 321.52 389.385 321.814 388.94 321.814C388.494 321.814 388.13 321.52 388.13 321.16C388.13 320.8 388.651 320.506 389.287 320.506C389.923 320.506 390.288 320.8 390.097 321.16ZM392.344 325.739C392.153 326.099 391.633 326.394 391.187 326.394C390.742 326.394 390.378 326.099 390.378 325.739C390.378 325.38 390.898 325.085 391.534 325.085C392.171 325.085 392.535 325.38 392.344 325.739ZM677.916 326.135C677.73 326.352 677.245 326.375 676.84 326.186C676.391 325.978 676.524 325.823 677.179 325.791C677.771 325.763 678.103 325.917 677.916 326.135ZM529.014 328.097C528.827 328.314 528.342 328.338 527.937 328.149C527.489 327.94 527.622 327.785 528.276 327.754C528.869 327.726 529.2 327.88 529.014 328.097ZM498.671 328.751C498.485 328.969 498 328.992 497.595 328.803C497.146 328.594 497.279 328.439 497.934 328.408C498.526 328.38 498.858 328.534 498.671 328.751ZM194.276 329.261C194.276 329.399 193.77 329.666 193.152 329.854C192.534 330.042 192.028 329.93 192.028 329.603C192.028 329.277 192.534 329.01 193.152 329.01C193.77 329.01 194.276 329.124 194.276 329.261ZM741.563 330.319C740.463 331.147 739.719 331.147 740.158 330.319C740.349 329.959 740.933 329.669 741.455 329.674C742.274 329.684 742.289 329.772 741.563 330.319ZM17.6879 330.714C17.5014 330.931 17.0165 330.955 16.6113 330.766C16.163 330.557 16.2961 330.402 16.9507 330.37C17.543 330.342 17.8745 330.497 17.6879 330.714ZM439.273 331.619C438.833 331.936 438.225 332.016 437.922 331.799C437.618 331.58 437.859 331.195 438.457 330.942C439.8 330.374 440.359 330.838 439.273 331.619ZM1277.33 330.973C1277.14 331.333 1276.56 331.606 1276.03 331.581C1275.26 331.543 1275.29 331.432 1276.21 330.973C1277.71 330.221 1277.73 330.221 1277.33 330.973ZM165.467 331.368C165.28 331.585 164.795 331.609 164.39 331.42C163.942 331.211 164.075 331.056 164.729 331.025C165.322 330.997 165.653 331.151 165.467 331.368ZM892.713 333.59C892.249 333.938 891.617 334.224 891.308 334.224C890.999 334.224 891.126 333.938 891.589 333.59C892.053 333.241 892.685 332.956 892.994 332.956C893.303 332.956 893.176 333.241 892.713 333.59ZM771.062 334.898C770.871 335.258 770.462 335.552 770.153 335.552C769.844 335.552 769.747 335.258 769.939 334.898C770.13 334.538 770.539 334.244 770.848 334.244C771.157 334.244 771.253 334.538 771.062 334.898ZM831.747 334.898C831.556 335.258 831.147 335.552 830.838 335.552C830.529 335.552 830.432 335.258 830.623 334.898C830.814 334.538 831.223 334.244 831.533 334.244C831.842 334.244 831.938 334.538 831.747 334.898ZM531.823 335.947C531.637 336.165 531.152 336.188 530.747 335.999C530.298 335.79 530.431 335.635 531.086 335.604C531.678 335.576 532.01 335.73 531.823 335.947ZM1339.14 336.206C1338.95 336.566 1338.36 336.856 1337.84 336.851C1337.02 336.842 1337.01 336.753 1337.73 336.206C1338.84 335.378 1339.58 335.378 1339.14 336.206ZM1346.73 336.784C1346.73 337.102 1346.22 337.516 1345.6 337.705C1344.98 337.892 1344.48 337.801 1344.48 337.502C1344.48 337.202 1344.92 336.822 1345.46 336.657C1346 336.493 1346.51 336.324 1346.58 336.282C1346.66 336.24 1346.73 336.467 1346.73 336.784ZM447.544 338.558C446.848 339.369 444.882 339.33 444.882 338.504C444.882 337.533 447.281 336.842 447.609 337.719C447.719 338.011 447.689 338.389 447.544 338.558ZM659.526 341.44C659.526 341.8 659.084 342.089 658.543 342.084C657.702 342.076 657.682 341.982 658.402 341.44C659.462 340.642 659.526 340.642 659.526 341.44ZM833.995 343.402C833.804 343.762 833.346 344.052 832.978 344.047C832.576 344.04 832.646 343.783 833.152 343.402C834.231 342.59 834.426 342.59 833.995 343.402ZM1052.85 343.332C1052.85 343.962 1051.49 344.724 1050.42 344.69C1050.06 344.679 1050.25 344.237 1050.85 343.709C1052.09 342.618 1052.85 342.475 1052.85 343.332ZM788.481 344.057C788.29 344.416 787.706 344.69 787.184 344.665C786.409 344.627 786.441 344.515 787.357 344.057C788.861 343.304 788.881 343.304 788.481 344.057ZM1420.9 344.711C1420.43 345.06 1419.8 345.345 1419.49 345.345C1419.18 345.345 1419.31 345.06 1419.77 344.711C1420.24 344.362 1420.87 344.077 1421.18 344.077C1421.49 344.077 1421.36 344.362 1420.9 344.711ZM714.014 346.045C712.953 346.825 712.344 346.834 712.344 346.067C712.344 345.446 714.1 344.759 714.575 345.194C714.721 345.327 714.468 345.71 714.014 346.045ZM806.029 345.106C805.842 345.323 805.357 345.347 804.952 345.158C804.504 344.949 804.637 344.794 805.291 344.763C805.884 344.734 806.215 344.889 806.029 345.106ZM682.564 347.578C682.564 347.716 682.057 347.983 681.439 348.172C680.821 348.36 680.456 348.247 680.63 347.921C680.932 347.351 682.564 347.062 682.564 347.578ZM544.747 348.377C544.56 348.594 544.075 348.618 543.67 348.429C543.222 348.22 543.355 348.065 544.01 348.033C544.602 348.005 544.933 348.16 544.747 348.377ZM427.872 350.34C427.686 350.557 427.201 350.58 426.796 350.391C426.347 350.182 426.48 350.027 427.135 349.996C427.727 349.968 428.059 350.122 427.872 350.34ZM1146.41 351.253C1146.22 351.612 1145.56 351.907 1144.94 351.907C1144.32 351.907 1143.97 351.612 1144.16 351.253C1144.35 350.893 1145.01 350.598 1145.63 350.598C1146.25 350.598 1146.6 350.893 1146.41 351.253ZM296.26 352.561C296.069 352.921 295.407 353.215 294.789 353.215C294.171 353.215 293.821 352.921 294.012 352.561C294.203 352.201 294.865 351.907 295.483 351.907C296.101 351.907 296.451 352.201 296.26 352.561ZM426.901 354.524C426.901 354.883 426.458 355.173 425.917 355.168C425.077 355.159 425.057 355.065 425.777 354.524C426.837 353.725 426.901 353.725 426.901 354.524ZM1386.34 355.832C1386.15 356.192 1385.74 356.486 1385.43 356.486C1385.12 356.486 1385.02 356.192 1385.22 355.832C1385.41 355.472 1385.82 355.178 1386.12 355.178C1386.43 355.178 1386.53 355.472 1386.34 355.832ZM1009.31 357.14C1009.12 357.5 1008.53 357.774 1008.01 357.749C1007.23 357.711 1007.27 357.599 1008.18 357.14C1009.69 356.388 1009.71 356.388 1009.31 357.14ZM1344.76 358.449C1344.57 358.809 1344.11 359.098 1343.74 359.093C1343.34 359.087 1343.41 358.829 1343.92 358.449C1345 357.636 1345.19 357.636 1344.76 358.449ZM693.024 359.635C692.463 360.691 690.43 361.031 690.43 360.069C690.43 359.588 690.999 359.088 691.694 358.959C693.202 358.678 693.461 358.811 693.024 359.635ZM562.318 359.36C562.318 359.501 561.939 359.787 561.475 359.994C561.011 360.201 560.632 360.085 560.632 359.737C560.632 359.388 561.011 359.103 561.475 359.103C561.939 359.103 562.318 359.219 562.318 359.36ZM1168.89 361.72C1168.69 362.079 1168.24 362.369 1167.87 362.364C1167.47 362.357 1167.54 362.1 1168.04 361.72C1169.12 360.907 1169.32 360.907 1168.89 361.72ZM107.226 363.791C106.527 364.092 105.664 364.13 105.309 363.875C104.913 363.589 105.203 363.251 106.064 362.995C107.912 362.446 108.853 363.09 107.226 363.791ZM519.461 362.769C519.275 362.986 518.79 363.01 518.385 362.821C517.936 362.612 518.07 362.457 518.724 362.426C519.316 362.397 519.648 362.552 519.461 362.769ZM699.421 363.028C699.421 363.388 698.9 363.682 698.264 363.682C697.628 363.682 697.263 363.388 697.454 363.028C697.645 362.668 698.165 362.374 698.611 362.374C699.056 362.374 699.421 362.668 699.421 363.028ZM317.179 364.077C316.992 364.295 316.507 364.318 316.102 364.129C315.654 363.92 315.787 363.765 316.442 363.734C317.034 363.706 317.365 363.86 317.179 364.077ZM875.856 364.991C874.766 365.81 874.17 365.81 874.17 364.991C874.17 364.631 874.74 364.341 875.435 364.346C876.457 364.355 876.538 364.478 875.856 364.991ZM970.032 366.626C969.445 367.143 968.703 367.377 968.383 367.146C968.047 366.905 968.26 366.518 968.887 366.232C970.644 365.431 971.178 365.615 970.032 366.626ZM1424.83 367.958C1424.83 369.398 1423.16 370.876 1421.85 370.59C1421.17 370.442 1420.3 370.299 1419.91 370.272C1419.53 370.246 1419.21 369.765 1419.21 369.204C1419.21 368.644 1419.45 368.354 1419.73 368.561C1420.02 368.768 1420.43 368.617 1420.63 368.226C1421.59 366.419 1424.83 366.213 1424.83 367.958ZM262.185 368.333C261.174 369.079 260.018 369.066 260.018 368.309C260.018 367.619 261.739 367.034 262.466 367.477C262.73 367.639 262.604 368.024 262.185 368.333ZM1127.59 367.858C1127.59 367.996 1127.08 368.263 1126.46 368.451C1125.84 368.64 1125.48 368.526 1125.65 368.201C1125.95 367.631 1127.59 367.342 1127.59 367.858ZM1218.89 369.57C1218.7 369.93 1218.12 370.203 1217.6 370.178C1216.82 370.14 1216.85 370.028 1217.77 369.57C1219.27 368.818 1219.29 368.818 1218.89 369.57ZM530.852 373.752C530.852 373.893 530.459 374.184 529.98 374.399C529.479 374.622 529.254 374.512 529.451 374.142C529.781 373.52 530.852 373.222 530.852 373.752ZM810.817 373.928C810.43 374.11 809.798 374.11 809.412 373.928C809.026 373.747 809.342 373.598 810.114 373.598C810.887 373.598 811.203 373.747 810.817 373.928ZM363.687 376.766C363.496 377.126 362.85 377.42 362.25 377.42C361.649 377.42 361.159 377.126 361.159 376.766C361.159 376.406 361.806 376.112 362.597 376.112C363.412 376.112 363.885 376.395 363.687 376.766ZM517.214 376.507C517.027 376.724 516.542 376.748 516.137 376.559C515.689 376.35 515.822 376.195 516.477 376.163C517.069 376.135 517.4 376.29 517.214 376.507ZM982.616 378.728C982.153 379.077 981.521 379.362 981.212 379.362C980.903 379.362 981.029 379.077 981.492 378.728C981.956 378.38 982.588 378.095 982.897 378.095C983.206 378.095 983.08 378.38 982.616 378.728ZM582.394 380.432C582.207 380.649 581.722 380.673 581.317 380.484C580.869 380.275 581.002 380.12 581.657 380.089C582.249 380.06 582.58 380.215 582.394 380.432ZM893.556 380.691C893.365 381.051 892.971 381.345 892.68 381.345C892.389 381.345 892.151 381.051 892.151 380.691C892.151 380.331 892.545 380.037 893.027 380.037C893.508 380.037 893.747 380.331 893.556 380.691ZM558.946 381.602C558.946 381.744 558.567 382.029 558.104 382.236C557.64 382.443 557.261 382.327 557.261 381.979C557.261 381.63 557.64 381.345 558.104 381.345C558.567 381.345 558.946 381.461 558.946 381.602ZM414.82 382.654C414.629 383.013 413.919 383.303 413.242 383.298C412.241 383.289 412.168 383.169 412.853 382.654C413.96 381.821 415.262 381.821 414.82 382.654ZM1060.16 383.231C1060.16 383.549 1059.65 383.963 1059.03 384.152C1058.42 384.339 1057.91 384.248 1057.91 383.949C1057.91 383.649 1058.35 383.269 1058.89 383.104C1059.43 382.94 1059.94 382.771 1060.02 382.729C1060.1 382.688 1060.16 382.914 1060.16 383.231ZM468.481 386.509C468.481 387.093 467.16 387.887 466.187 387.887C465.904 387.887 465.672 387.445 465.672 386.906C465.672 386.295 466.202 385.924 467.076 385.924C467.849 385.924 468.481 386.187 468.481 386.509ZM898.894 386.579C897.794 387.407 897.05 387.407 897.489 386.579C897.68 386.219 898.264 385.929 898.786 385.934C899.605 385.943 899.62 386.032 898.894 386.579ZM376.74 388.282C376.553 388.499 376.068 388.523 375.663 388.334C375.215 388.125 375.348 387.97 376.003 387.939C376.595 387.911 376.926 388.065 376.74 388.282ZM785.672 388.541C785.481 388.901 784.897 389.191 784.374 389.186C783.556 389.176 783.54 389.087 784.267 388.541C785.367 387.713 786.111 387.713 785.672 388.541ZM626.784 392.862C626.597 393.079 626.112 393.102 625.707 392.913C625.259 392.704 625.392 392.549 626.046 392.518C626.639 392.49 626.97 392.644 626.784 392.862ZM307.498 393.775C307.307 394.135 306.66 394.429 306.06 394.429C305.46 394.429 304.969 394.135 304.969 393.775C304.969 393.415 305.617 393.121 306.407 393.121C307.222 393.121 307.695 393.404 307.498 393.775ZM386.023 396.17C385.637 396.352 385.005 396.352 384.618 396.17C384.232 395.989 384.548 395.841 385.32 395.841C386.093 395.841 386.409 395.989 386.023 396.17ZM798.876 396.391C798.413 396.74 797.781 397.025 797.471 397.025C797.162 397.025 797.289 396.74 797.752 396.391C798.216 396.043 798.848 395.758 799.157 395.758C799.466 395.758 799.34 396.043 798.876 396.391ZM706.163 398.354C705.063 399.182 704.319 399.182 704.759 398.354C704.95 397.994 705.533 397.704 706.056 397.71C706.875 397.719 706.89 397.808 706.163 398.354ZM895.418 399.499C895.291 400.281 894.61 400.704 893.27 400.835L891.308 401.025L892.994 399.694C895.064 398.059 895.661 398.011 895.418 399.499ZM1005.94 399.008C1005.74 399.368 1005.21 399.662 1004.74 399.662C1004.28 399.662 1004.06 399.368 1004.25 399.008C1004.44 398.648 1004.98 398.354 1005.44 398.354C1005.9 398.354 1006.13 398.648 1005.94 399.008ZM152.695 400.278C152.695 401.246 151.608 401.781 150.577 401.321C149.767 400.959 149.752 400.816 150.464 400.292C151.536 399.502 152.695 399.495 152.695 400.278ZM372.806 404.637C372.62 404.854 372.135 404.878 371.73 404.689C371.281 404.48 371.415 404.325 372.069 404.293C372.661 404.265 372.993 404.42 372.806 404.637ZM794.662 404.896C794.471 405.256 793.887 405.529 793.365 405.504C792.59 405.466 792.622 405.354 793.538 404.896C795.042 404.144 795.062 404.144 794.662 404.896ZM595.317 409.87C595.131 410.088 594.646 410.111 594.241 409.922C593.792 409.713 593.926 409.558 594.58 409.527C595.172 409.499 595.504 409.653 595.317 409.87ZM974.469 410.784C974.278 411.143 973.694 411.417 973.171 411.392C972.397 411.354 972.429 411.242 973.345 410.784C974.849 410.031 974.868 410.031 974.469 410.784ZM776.4 411.072C776.4 411.231 776.148 411.542 775.839 411.765C775.529 411.987 775.277 411.857 775.277 411.476C775.277 411.096 775.529 410.784 775.839 410.784C776.148 410.784 776.4 410.913 776.4 411.072ZM651.097 415.363C651.097 415.723 650.528 415.996 649.833 415.971C648.627 415.927 648.621 415.899 649.693 415.363C650.311 415.053 650.879 414.78 650.957 414.754C651.034 414.73 651.097 415.003 651.097 415.363ZM152.836 417.104C152.45 417.286 151.818 417.286 151.431 417.104C151.045 416.923 151.361 416.775 152.133 416.775C152.906 416.775 153.222 416.923 152.836 417.104ZM640.983 418.634C640.983 418.994 640.541 419.283 640 419.278C639.159 419.27 639.139 419.175 639.859 418.634C640.92 417.836 640.983 417.836 640.983 418.634ZM634.241 421.501C634.241 421.639 633.735 421.906 633.117 422.094C632.499 422.282 631.993 422.17 631.993 421.843C631.993 421.517 632.499 421.251 633.117 421.251C633.735 421.251 634.241 421.364 634.241 421.501ZM396.558 422.559C395.458 423.387 394.714 423.387 395.154 422.559C395.345 422.199 395.929 421.909 396.451 421.915C397.27 421.924 397.285 422.013 396.558 422.559ZM1174.78 422.482C1174.78 422.8 1174.28 423.214 1173.66 423.403C1172.44 423.773 1172.09 422.878 1173.24 422.338C1174.35 421.818 1174.78 421.859 1174.78 422.482ZM624.688 425.176C623.599 425.995 623.003 425.995 623.003 425.176C623.003 424.816 623.572 424.526 624.267 424.531C625.289 424.54 625.37 424.663 624.688 425.176ZM837.928 425.83C837.737 426.19 837.201 426.484 836.738 426.484C836.274 426.484 836.051 426.19 836.242 425.83C836.433 425.47 836.969 425.176 837.432 425.176C837.896 425.176 838.119 425.47 837.928 425.83ZM269.148 426.263C268.762 426.445 268.13 426.445 267.744 426.263C267.358 426.082 267.673 425.933 268.446 425.933C269.219 425.933 269.535 426.082 269.148 426.263ZM636.488 426.811C635.716 427.894 634.241 428.14 634.241 427.186C634.241 426.649 635.233 426.132 636.697 425.906C636.967 425.864 636.873 426.271 636.488 426.811ZM615.698 426.741C615.698 426.882 615.319 427.168 614.855 427.375C614.392 427.582 614.012 427.466 614.012 427.118C614.012 426.769 614.392 426.484 614.855 426.484C615.319 426.484 615.698 426.6 615.698 426.741ZM556.547 427.533C556.36 427.751 555.875 427.774 555.47 427.585C555.022 427.376 555.155 427.221 555.809 427.19C556.402 427.162 556.733 427.316 556.547 427.533ZM685.935 427.395C685.935 427.537 685.556 427.822 685.092 428.029C684.629 428.236 684.249 428.12 684.249 427.772C684.249 427.423 684.629 427.138 685.092 427.138C685.556 427.138 685.935 427.254 685.935 427.395ZM838.619 429.496C838.432 429.713 837.947 429.737 837.542 429.548C837.094 429.339 837.227 429.184 837.881 429.152C838.474 429.124 838.805 429.279 838.619 429.496ZM355.388 432.767C355.201 432.984 354.716 433.008 354.311 432.818C353.863 432.61 353.996 432.455 354.65 432.423C355.243 432.395 355.574 432.55 355.388 432.767ZM635.926 434.334C635.926 434.694 635.357 434.984 634.662 434.979C633.64 434.97 633.559 434.847 634.241 434.334C635.33 433.515 635.926 433.515 635.926 434.334ZM642.669 435.573C642.669 436.236 640.957 437.139 640.566 436.683C640.424 436.519 640.475 436.07 640.679 435.686C641.128 434.842 642.669 434.754 642.669 435.573ZM197.647 441.53C196.547 442.358 195.803 442.358 196.242 441.53C196.433 441.17 197.017 440.881 197.54 440.886C198.358 440.895 198.374 440.984 197.647 441.53ZM971.659 441.53C971.468 441.89 971.059 442.184 970.75 442.184C970.441 442.184 970.345 441.89 970.536 441.53C970.727 441.17 971.136 440.876 971.445 440.876C971.754 440.876 971.85 441.17 971.659 441.53ZM543.916 442.618C543.53 442.799 542.898 442.799 542.511 442.618C542.125 442.436 542.441 442.288 543.213 442.288C543.986 442.288 544.302 442.436 543.916 442.618ZM901.422 444.147C901.231 444.507 900.647 444.78 900.125 444.755C899.35 444.717 899.383 444.606 900.299 444.147C901.802 443.395 901.822 443.395 901.422 444.147ZM1317.23 446.764C1317.03 447.124 1316.64 447.418 1316.35 447.418C1316.06 447.418 1315.82 447.124 1315.82 446.764C1315.82 446.404 1316.22 446.11 1316.7 446.11C1317.18 446.11 1317.42 446.404 1317.23 446.764ZM338.824 447.197C338.438 447.379 337.805 447.379 337.419 447.197C337.033 447.016 337.349 446.867 338.121 446.867C338.894 446.867 339.21 447.016 338.824 447.197ZM389.956 448.505C389.57 448.687 388.938 448.687 388.551 448.505C388.165 448.324 388.481 448.175 389.254 448.175C390.026 448.175 390.343 448.324 389.956 448.505ZM674.135 448.726C673.672 449.075 673.039 449.36 672.73 449.36C672.421 449.36 672.548 449.075 673.011 448.726C673.475 448.378 674.107 448.092 674.416 448.092C674.725 448.092 674.599 448.378 674.135 448.726ZM1053.98 451.997C1053.98 452.357 1053.58 452.651 1053.1 452.651C1052.62 452.651 1052.38 452.357 1052.57 451.997C1052.76 451.637 1053.16 451.343 1053.45 451.343C1053.74 451.343 1053.98 451.637 1053.98 451.997ZM1073.08 453.563C1073.08 453.704 1072.69 453.995 1072.21 454.21C1071.71 454.433 1071.48 454.323 1071.68 453.953C1072.01 453.33 1073.08 453.033 1073.08 453.563ZM435.891 454.614C435.891 454.974 435.322 455.247 434.627 455.222C433.42 455.179 433.414 455.15 434.486 454.614C435.104 454.305 435.673 454.031 435.751 454.006C435.828 453.981 435.891 454.254 435.891 454.614ZM585.093 455.888C584.568 456.876 582.546 457.152 582.546 456.236C582.546 455.757 582.988 455.247 583.529 455.104C584.722 454.789 585.476 455.167 585.093 455.888ZM828.82 457.303C828.487 457.691 827.745 457.878 827.171 457.719C826.268 457.469 826.316 457.339 827.533 456.753C829.118 455.988 829.725 456.248 828.82 457.303ZM711.782 458.539C710.682 459.367 709.938 459.367 710.378 458.539C710.569 458.179 711.152 457.889 711.675 457.895C712.494 457.904 712.509 457.993 711.782 458.539ZM1189.68 463.118C1189.48 463.478 1189.08 463.773 1188.77 463.773C1188.46 463.773 1188.36 463.478 1188.55 463.118C1188.74 462.759 1189.15 462.464 1189.46 462.464C1189.77 462.464 1189.87 462.759 1189.68 463.118ZM306.795 464.86C306.409 465.042 305.777 465.042 305.391 464.86C305.005 464.679 305.32 464.53 306.093 464.53C306.866 464.53 307.182 464.679 306.795 464.86ZM789.886 464.684C789.886 464.825 789.507 465.11 789.043 465.318C788.579 465.525 788.2 465.409 788.2 465.061C788.2 464.712 788.579 464.427 789.043 464.427C789.507 464.427 789.886 464.542 789.886 464.684ZM1114.94 470.314C1113.4 471.088 1112.85 471.088 1113.26 470.314C1113.45 469.955 1114.16 469.681 1114.84 469.706C1116.02 469.75 1116.03 469.772 1114.94 470.314ZM479.157 471.623C479.157 471.983 478.588 472.256 477.893 472.231C476.686 472.187 476.68 472.159 477.752 471.623C478.37 471.313 478.939 471.04 479.017 471.014C479.094 470.99 479.157 471.263 479.157 471.623ZM461.457 472.277C461.266 472.637 460.731 472.931 460.267 472.931C459.804 472.931 459.581 472.637 459.772 472.277C459.963 471.917 460.498 471.623 460.962 471.623C461.425 471.623 461.648 471.917 461.457 472.277ZM795.224 472.931C795.033 473.291 794.449 473.564 793.926 473.54C793.152 473.502 793.184 473.39 794.1 472.931C795.604 472.179 795.623 472.179 795.224 472.931ZM343.178 473.585C342.078 474.414 341.334 474.414 341.773 473.585C341.965 473.226 342.548 472.936 343.071 472.941C343.89 472.95 343.905 473.039 343.178 473.585ZM203.828 475.151C203.828 475.292 203.436 475.583 202.956 475.798C202.456 476.021 202.23 475.911 202.427 475.541C202.757 474.919 203.828 474.621 203.828 475.151ZM479.157 477.768C479.157 477.909 478.765 478.2 478.285 478.415C477.785 478.638 477.56 478.528 477.756 478.157C478.086 477.535 479.157 477.238 479.157 477.768ZM351.607 479.988C351.607 480.271 351.101 480.547 350.483 480.601C349.865 480.656 349.359 480.424 349.359 480.087C349.359 479.749 349.865 479.473 350.483 479.473C351.101 479.473 351.607 479.705 351.607 479.988ZM248.065 481.831C247.879 482.048 247.394 482.071 246.989 481.882C246.54 481.674 246.674 481.519 247.328 481.487C247.92 481.459 248.252 481.614 248.065 481.831ZM290.77 483.139C290.583 483.356 290.098 483.38 289.693 483.191C289.245 482.982 289.378 482.827 290.032 482.796C290.625 482.768 290.956 482.922 290.77 483.139ZM970.255 484.052C970.255 484.412 969.812 484.702 969.271 484.697C968.431 484.688 968.41 484.594 969.131 484.052C970.191 483.254 970.255 483.254 970.255 484.052ZM892.432 484.706C892.241 485.066 891.705 485.361 891.242 485.361C890.778 485.361 890.555 485.066 890.746 484.706C890.937 484.347 891.473 484.052 891.936 484.052C892.4 484.052 892.623 484.347 892.432 484.706ZM244.846 485.361C244.846 485.72 244.278 486.01 243.582 486.005C242.56 485.997 242.479 485.874 243.161 485.361C244.25 484.541 244.846 484.541 244.846 485.361ZM1300.65 487.247C1300.65 487.565 1300.14 487.979 1299.53 488.167C1298.91 488.355 1298.4 488.264 1298.4 487.964C1298.4 487.665 1298.84 487.285 1299.39 487.12C1299.93 486.956 1300.43 486.787 1300.51 486.745C1300.59 486.703 1300.65 486.929 1300.65 487.247ZM494.176 487.718C493.99 487.936 493.505 487.959 493.099 487.77C492.651 487.561 492.784 487.406 493.439 487.375C494.031 487.347 494.363 487.501 494.176 487.718ZM151.15 488.41C150.764 488.592 150.132 488.592 149.745 488.41C149.359 488.229 149.675 488.081 150.448 488.081C151.22 488.081 151.537 488.229 151.15 488.41ZM16.1545 489.94C16.1545 490.3 15.5072 490.594 14.7166 490.594C13.9013 490.594 13.4288 490.311 13.626 489.94C13.817 489.58 14.4638 489.286 15.0639 489.286C15.664 489.286 16.1545 489.58 16.1545 489.94ZM570.032 489.681C569.846 489.898 569.361 489.922 568.956 489.733C568.507 489.524 568.64 489.369 569.295 489.337C569.887 489.309 570.219 489.464 570.032 489.681ZM943.003 491.248C942.812 491.608 942.403 491.903 942.094 491.903C941.784 491.903 941.688 491.608 941.879 491.248C942.07 490.889 942.479 490.594 942.788 490.594C943.097 490.594 943.194 490.889 943.003 491.248ZM637.331 492.557C637.14 492.917 636.556 493.19 636.034 493.165C635.259 493.127 635.291 493.015 636.207 492.557C637.711 491.804 637.731 491.804 637.331 492.557ZM1213.56 493.865C1213.56 494.225 1212.99 494.515 1212.29 494.509C1211.27 494.501 1211.19 494.378 1211.87 493.865C1212.96 493.045 1213.56 493.045 1213.56 493.865ZM413.825 497.531C413.638 497.748 413.153 497.772 412.748 497.583C412.3 497.374 412.433 497.219 413.088 497.188C413.68 497.16 414.011 497.314 413.825 497.531ZM769.939 498.444C769.747 498.804 769.212 499.099 768.748 499.099C768.285 499.099 768.062 498.804 768.253 498.444C768.444 498.085 768.979 497.79 769.443 497.79C769.907 497.79 770.13 498.085 769.939 498.444ZM826.128 499.099C825.937 499.458 825.48 499.748 825.112 499.743C824.709 499.736 824.779 499.479 825.285 499.099C826.365 498.286 826.559 498.286 826.128 499.099ZM1118.88 499.099C1118.69 499.458 1118.28 499.753 1117.97 499.753C1117.66 499.753 1117.56 499.458 1117.75 499.099C1117.94 498.739 1118.35 498.444 1118.66 498.444C1118.97 498.444 1119.07 498.739 1118.88 499.099ZM674.416 499.753C674.225 500.113 673.641 500.386 673.119 500.361C672.344 500.323 672.376 500.211 673.292 499.753C674.796 499 674.816 499 674.416 499.753ZM764.881 500.407C764.69 500.767 764.233 501.057 763.865 501.051C763.463 501.045 763.532 500.788 764.039 500.407C765.118 499.594 765.312 499.594 764.881 500.407ZM1278.18 501.708C1277.74 502.024 1277.14 502.104 1276.83 501.887C1276.53 501.668 1276.77 501.283 1277.37 501.03C1278.71 500.463 1279.27 500.926 1278.18 501.708ZM797.038 502.765C796.852 502.982 796.367 503.005 795.962 502.816C795.513 502.608 795.646 502.453 796.301 502.421C796.893 502.393 797.225 502.547 797.038 502.765ZM385.802 505.712C384.791 506.458 383.635 506.445 383.635 505.688C383.635 504.998 385.356 504.413 386.083 504.856C386.348 505.018 386.221 505.403 385.802 505.712ZM494.664 507.084C494.151 507.418 493.297 507.569 492.766 507.42C491.988 507.201 492.073 507.016 493.205 506.471C494.84 505.683 496.04 506.187 494.664 507.084ZM635.212 509.961C635.026 510.178 634.541 510.201 634.135 510.012C633.687 509.804 633.82 509.649 634.475 509.617C635.067 509.589 635.399 509.743 635.212 509.961ZM739.596 510.22C739.405 510.58 739.011 510.874 738.72 510.874C738.429 510.874 738.191 510.58 738.191 510.22C738.191 509.86 738.586 509.566 739.067 509.566C739.549 509.566 739.787 509.86 739.596 510.22ZM156.967 511.201C155.894 512.147 154.943 511.976 154.943 510.835C154.943 510.497 155.639 510.229 156.488 510.241C157.952 510.26 157.977 510.311 156.967 511.201ZM430.272 512.199C430.272 512.934 427.472 514.375 427.035 513.864C426.884 513.69 426.911 513.093 427.095 512.538C427.461 511.425 430.272 511.126 430.272 512.199ZM187.673 513.27C187.287 513.451 186.655 513.451 186.269 513.27C185.883 513.088 186.198 512.94 186.971 512.94C187.744 512.94 188.06 513.088 187.673 513.27ZM540.685 517.416C540.494 517.776 539.91 518.049 539.387 518.024C538.613 517.986 538.645 517.874 539.561 517.416C541.065 516.663 541.084 516.663 540.685 517.416ZM1341.11 519.635C1341.11 519.777 1340.71 520.068 1340.23 520.282C1339.73 520.505 1339.51 520.396 1339.71 520.025C1340.04 519.403 1341.11 519.105 1341.11 519.635ZM1161.02 522.649C1160.83 523.009 1160.37 523.299 1160 523.294C1159.6 523.287 1159.67 523.03 1160.18 522.649C1161.26 521.837 1161.45 521.837 1161.02 522.649ZM210.149 523.082C209.763 523.264 209.131 523.264 208.745 523.082C208.359 522.901 208.674 522.753 209.447 522.753C210.219 522.753 210.536 522.901 210.149 523.082ZM507.814 525.233C507.814 526.198 506.085 527.093 504.912 526.736C503.905 526.429 503.902 526.372 504.851 525.534C506.008 524.511 507.814 524.328 507.814 525.233ZM557.505 529.122C557.841 529.754 556.581 530.499 555.18 530.499C554.474 530.499 554.443 530.318 555.013 529.518C555.793 528.424 557.03 528.227 557.505 529.122ZM785.672 529.191C785.481 529.551 785.023 529.841 784.655 529.835C784.253 529.829 784.323 529.572 784.829 529.191C785.908 528.379 786.103 528.379 785.672 529.191ZM474.381 529.845C474.19 530.205 473.606 530.495 473.084 530.49C472.265 530.48 472.25 530.392 472.976 529.845C474.077 529.017 474.82 529.017 474.381 529.845ZM795.645 530.278C795.259 530.46 794.627 530.46 794.241 530.278C793.855 530.097 794.17 529.949 794.943 529.949C795.716 529.949 796.032 530.097 795.645 530.278ZM662.09 533.736C662.513 533.327 663.184 533.134 663.581 533.307C664.646 533.771 661.745 534.948 660.483 534.563C659.67 534.316 659.602 534.12 660.181 533.7C660.612 533.389 661.014 533.439 661.126 533.819C661.251 534.243 661.596 534.213 662.09 533.736ZM1131.52 535.99C1131.52 536.131 1131.13 536.422 1130.65 536.637C1130.15 536.86 1129.92 536.75 1130.12 536.38C1130.45 535.758 1131.52 535.46 1131.52 535.99ZM726.801 538.745C726.615 538.962 726.13 538.986 725.725 538.797C725.276 538.588 725.409 538.433 726.064 538.401C726.656 538.373 726.988 538.528 726.801 538.745ZM222.218 540.053C222.032 540.27 221.547 540.294 221.142 540.105C220.693 539.896 220.826 539.741 221.481 539.71C222.073 539.682 222.405 539.836 222.218 540.053ZM834.276 540.232C834.276 540.548 833.886 541.183 833.409 541.644C832.42 542.599 831.072 541.583 831.717 540.369C832.167 539.522 834.276 539.409 834.276 540.232ZM884.284 540.312C883.821 540.661 883.189 540.946 882.88 540.946C882.571 540.946 882.697 540.661 883.161 540.312C883.624 539.964 884.256 539.678 884.565 539.678C884.875 539.678 884.748 539.964 884.284 540.312ZM721.744 542.016C721.558 542.233 721.073 542.257 720.668 542.067C720.219 541.859 720.352 541.704 721.007 541.672C721.599 541.644 721.931 541.799 721.744 542.016ZM246.111 543.362C245.725 543.544 245.092 543.544 244.706 543.362C244.32 543.181 244.636 543.032 245.408 543.032C246.181 543.032 246.497 543.181 246.111 543.362ZM1098.11 545.502C1097.91 545.886 1097.31 546.191 1096.79 546.179C1095.95 546.161 1095.97 546.042 1096.92 545.205C1098.08 544.188 1098.72 544.349 1098.11 545.502ZM553.552 550.387C553.253 551.295 551.076 552.301 550.603 551.751C550.468 551.594 550.678 551.016 551.069 550.468C551.979 549.19 553.968 549.126 553.552 550.387ZM572.432 552.742C571.968 553.091 571.336 553.376 571.027 553.376C570.718 553.376 570.845 553.091 571.308 552.742C571.772 552.393 572.404 552.108 572.713 552.108C573.022 552.108 572.896 552.393 572.432 552.742ZM403.301 556.013C403.301 556.373 402.732 556.646 402.037 556.621C400.83 556.577 400.824 556.549 401.896 556.013C402.514 555.703 403.083 555.43 403.161 555.404C403.238 555.379 403.301 555.653 403.301 556.013ZM218.285 557.062C218.098 557.279 217.613 557.303 217.208 557.114C216.76 556.905 216.893 556.75 217.548 556.719C218.14 556.69 218.472 556.845 218.285 557.062ZM889.756 559.735C889.234 560.343 888.618 560.622 888.388 560.354C888.158 560.086 888.341 559.593 888.796 559.258C890.164 558.251 890.772 558.553 889.756 559.735ZM492.081 560.195C492.081 560.336 491.701 560.622 491.238 560.829C490.774 561.036 490.395 560.92 490.395 560.572C490.395 560.223 490.774 559.938 491.238 559.938C491.701 559.938 492.081 560.054 492.081 560.195ZM143.284 561.679C142.898 561.861 142.265 561.861 141.879 561.679C141.493 561.498 141.809 561.35 142.581 561.35C143.354 561.35 143.67 561.498 143.284 561.679ZM817.419 565.428C817.419 565.57 817.039 565.855 816.576 566.062C816.112 566.269 815.733 566.153 815.733 565.805C815.733 565.457 816.112 565.171 816.576 565.171C817.039 565.171 817.419 565.287 817.419 565.428ZM218.016 566.259C217.63 566.44 216.998 566.44 216.611 566.259C216.225 566.077 216.541 565.929 217.313 565.929C218.086 565.929 218.402 566.077 218.016 566.259ZM921.932 566.083C921.932 566.224 921.552 566.509 921.089 566.717C920.625 566.923 920.246 566.807 920.246 566.459C920.246 566.111 920.625 565.826 921.089 565.826C921.552 565.826 921.932 565.941 921.932 566.083ZM774.434 573.676C774.243 574.036 773.785 574.325 773.417 574.32C773.015 574.314 773.085 574.056 773.591 573.676C774.67 572.863 774.865 572.863 774.434 573.676ZM745.496 574.984C745.496 575.344 745.054 575.634 744.513 575.628C743.672 575.62 743.652 575.526 744.372 574.984C745.433 574.186 745.496 574.186 745.496 574.984ZM1217.49 577.197C1217.49 577.335 1216.98 577.602 1216.36 577.791C1215.75 577.979 1215.38 577.866 1215.56 577.54C1215.86 576.97 1217.49 576.681 1217.49 577.197ZM581.968 578.935C580.899 579.722 579.737 579.732 579.737 578.955C579.737 578.356 582.012 577.661 582.53 578.101C582.675 578.225 582.422 578.6 581.968 578.935ZM731.787 578.582C731.201 579.099 730.501 579.363 730.233 579.17C729.422 578.587 730.308 577.599 731.622 577.622C732.813 577.642 732.819 577.673 731.787 578.582ZM846.637 578.909C846.637 579.269 846.117 579.563 845.48 579.563C844.844 579.563 844.48 579.269 844.671 578.909C844.862 578.549 845.382 578.255 845.828 578.255C846.273 578.255 846.637 578.549 846.637 578.909ZM567.515 579.342C567.129 579.524 566.497 579.524 566.111 579.342C565.725 579.161 566.04 579.013 566.813 579.013C567.586 579.013 567.902 579.161 567.515 579.342ZM602.353 579.342C601.967 579.524 601.335 579.524 600.948 579.342C600.562 579.161 600.878 579.013 601.651 579.013C602.423 579.013 602.74 579.161 602.353 579.342ZM426.62 582.834C426.429 583.194 425.971 583.484 425.603 583.479C425.201 583.472 425.271 583.215 425.777 582.834C426.856 582.022 427.051 582.022 426.62 582.834ZM779.21 584.797C779.21 585.157 778.768 585.446 778.227 585.441C777.386 585.433 777.366 585.339 778.086 584.797C779.146 583.999 779.21 583.999 779.21 584.797ZM1223.44 585.551C1223.92 586.449 1222.19 588.068 1220.75 588.068C1219.32 588.068 1219.49 586.445 1221 585.595C1222.67 584.66 1222.97 584.655 1223.44 585.551ZM427.744 586.105C427.553 586.465 427.017 586.759 426.554 586.759C426.09 586.759 425.867 586.465 426.058 586.105C426.249 585.745 426.784 585.451 427.248 585.451C427.712 585.451 427.935 585.745 427.744 586.105ZM232.332 587.809C232.146 588.026 231.661 588.049 231.256 587.86C230.807 587.652 230.941 587.497 231.595 587.465C232.187 587.437 232.519 587.592 232.332 587.809ZM1278.45 588.722C1278.26 589.082 1277.81 589.372 1277.44 589.366C1277.04 589.36 1277.11 589.103 1277.61 588.722C1278.69 587.909 1278.89 587.909 1278.45 588.722ZM562.166 589.771C561.979 589.988 561.494 590.012 561.089 589.823C560.641 589.614 560.774 589.459 561.428 589.428C562.021 589.4 562.352 589.554 562.166 589.771ZM846.356 590.03C846.165 590.39 845.519 590.685 844.919 590.685C844.318 590.685 843.828 590.39 843.828 590.03C843.828 589.671 844.475 589.376 845.266 589.376C846.081 589.376 846.554 589.659 846.356 590.03ZM871.923 594.61C871.459 594.958 870.827 595.244 870.518 595.244C870.209 595.244 870.335 594.958 870.799 594.61C871.263 594.261 871.895 593.976 872.204 593.976C872.513 593.976 872.386 594.261 871.923 594.61ZM804.178 596.504C804.349 596.827 804.045 597.729 803.502 598.509C802.64 599.75 802.306 599.837 800.865 599.199L799.216 598.469L800.872 597.198C802.681 595.81 803.696 595.597 804.178 596.504ZM727.515 599.773C727.515 600.599 725.927 601.21 725.563 600.525C725.397 600.211 725.579 599.806 725.967 599.623C727.08 599.101 727.515 599.143 727.515 599.773ZM681.44 602.46C680.34 603.288 679.596 603.288 680.035 602.46C680.226 602.1 680.81 601.81 681.333 601.816C682.151 601.825 682.166 601.914 681.44 602.46ZM597.717 605.077C597.717 605.436 597.275 605.726 596.734 605.721C595.893 605.712 595.873 605.618 596.594 605.077C597.654 604.279 597.717 604.279 597.717 605.077ZM445.724 608.348C445.533 608.707 444.871 609.002 444.253 609.002C443.635 609.002 443.286 608.707 443.477 608.348C443.668 607.988 444.33 607.693 444.948 607.693C445.566 607.693 445.915 607.988 445.724 608.348ZM1004.53 609.002C1003.43 609.83 1002.69 609.83 1003.13 609.002C1003.32 608.642 1003.9 608.352 1004.42 608.357C1005.24 608.367 1005.26 608.456 1004.53 609.002ZM402.739 609.656C402.739 610.016 402.218 610.31 401.582 610.31C400.946 610.31 400.582 610.016 400.773 609.656C400.964 609.296 401.484 609.002 401.93 609.002C402.375 609.002 402.739 609.296 402.739 609.656ZM1231.54 609.259C1231.54 609.4 1231.14 609.691 1230.66 609.906C1230.16 610.129 1229.94 610.019 1230.14 609.649C1230.47 609.027 1231.54 608.729 1231.54 609.259ZM458.086 610.31C457.895 610.67 457.233 610.964 456.615 610.964C455.997 610.964 455.647 610.67 455.838 610.31C456.03 609.95 456.691 609.656 457.309 609.656C457.928 609.656 458.277 609.95 458.086 610.31ZM289.798 611.618C288.691 612.451 287.389 612.451 287.831 611.618C288.022 611.259 288.733 610.969 289.41 610.974C290.411 610.983 290.483 611.103 289.798 611.618ZM1004.53 611.221C1004.53 611.363 1004.14 611.654 1003.66 611.868C1003.16 612.091 1002.93 611.982 1003.13 611.611C1003.46 610.989 1004.53 610.691 1004.53 611.221ZM1230.41 615.521C1230.41 616.104 1228.65 617.506 1227.92 617.506C1227.13 617.506 1227.71 615.607 1228.59 615.34C1230.22 614.844 1230.41 614.863 1230.41 615.521ZM443.044 619.864C442.857 620.081 442.372 620.105 441.967 619.916C441.519 619.707 441.652 619.552 442.306 619.52C442.899 619.492 443.23 619.647 443.044 619.864ZM1438.03 620.123C1437.84 620.483 1437.31 620.777 1436.84 620.777C1436.38 620.777 1436.16 620.483 1436.35 620.123C1436.54 619.763 1437.07 619.469 1437.54 619.469C1438 619.469 1438.22 619.763 1438.03 620.123ZM1024.76 620.777C1023.66 621.605 1022.91 621.605 1023.35 620.777C1023.54 620.417 1024.13 620.128 1024.65 620.133C1025.47 620.142 1025.49 620.231 1024.76 620.777ZM166.029 621.172C165.842 621.389 165.357 621.413 164.952 621.224C164.504 621.015 164.637 620.86 165.291 620.829C165.884 620.801 166.215 620.955 166.029 621.172ZM1060.01 621.826C1059.82 622.044 1059.33 622.067 1058.93 621.878C1058.48 621.669 1058.61 621.514 1059.27 621.483C1059.86 621.455 1060.19 621.609 1060.01 621.826ZM303.131 624.443C302.945 624.66 302.46 624.684 302.055 624.495C301.606 624.286 301.74 624.131 302.394 624.1C302.986 624.072 303.318 624.226 303.131 624.443ZM642.589 628.045C642.169 628.355 641.447 628.602 640.983 628.597C640.335 628.588 640.387 628.369 641.206 627.646C641.793 627.129 642.515 626.881 642.812 627.095C643.122 627.318 643.028 627.721 642.589 628.045ZM947.626 629.677C947.44 629.894 946.955 629.917 946.55 629.728C946.102 629.52 946.235 629.365 946.889 629.333C947.482 629.305 947.813 629.459 947.626 629.677ZM376.33 631.898C375.23 632.726 374.486 632.726 374.925 631.898C375.116 631.538 375.7 631.249 376.223 631.254C377.041 631.263 377.057 631.352 376.33 631.898ZM788.2 631.501C788.2 631.642 787.821 631.928 787.357 632.135C786.894 632.342 786.515 632.226 786.515 631.878C786.515 631.529 786.894 631.244 787.357 631.244C787.821 631.244 788.2 631.36 788.2 631.501ZM656.155 634.766C656.155 634.904 655.649 635.171 655.031 635.359C654.413 635.547 653.907 635.434 653.907 635.108C653.907 634.782 654.413 634.515 655.031 634.515C655.649 634.515 656.155 634.628 656.155 634.766ZM834.416 634.948C834.03 635.13 833.398 635.13 833.011 634.948C832.625 634.767 832.941 634.618 833.714 634.618C834.486 634.618 834.803 634.767 834.416 634.948ZM249.342 639.094C249.342 639.454 248.773 639.744 248.077 639.739C247.055 639.73 246.974 639.607 247.656 639.094C248.745 638.275 249.342 638.275 249.342 639.094ZM964.355 645.636C964.164 645.996 963.58 646.286 963.057 646.28C962.239 646.271 962.223 646.182 962.95 645.636C964.05 644.808 964.794 644.808 964.355 645.636ZM410.044 646.214C410.044 646.532 409.538 646.946 408.92 647.134C407.702 647.505 407.349 646.61 408.499 646.069C409.606 645.549 410.044 645.59 410.044 646.214ZM74.8727 646.945C74.6816 647.304 74.2243 647.594 73.8562 647.589C73.4539 647.582 73.5236 647.325 74.0298 646.945C75.1092 646.132 75.3037 646.132 74.8727 646.945ZM61.2467 650.648C60.8607 650.83 60.2285 650.83 59.842 650.648C59.4559 650.467 59.7717 650.319 60.5443 650.319C61.3169 650.319 61.6333 650.467 61.2467 650.648ZM146.362 651.919C146.176 652.136 145.691 652.16 145.286 651.971C144.837 651.762 144.97 651.607 145.625 651.576C146.217 651.547 146.549 651.702 146.362 651.919ZM476.067 654.795C475.876 655.155 475.292 655.428 474.769 655.403C473.994 655.365 474.027 655.253 474.943 654.795C476.447 654.042 476.466 654.042 476.067 654.795ZM139.21 655.045C139.21 655.183 138.704 655.45 138.086 655.639C137.468 655.826 136.962 655.714 136.962 655.387C136.962 655.062 137.468 654.795 138.086 654.795C138.704 654.795 139.21 654.908 139.21 655.045ZM340.216 656.498C340.03 656.715 339.545 656.739 339.14 656.55C338.691 656.341 338.825 656.186 339.479 656.155C340.072 656.127 340.403 656.281 340.216 656.498ZM917.284 661.732C917.098 661.949 916.613 661.972 916.207 661.783C915.759 661.575 915.892 661.42 916.547 661.388C917.139 661.36 917.471 661.514 917.284 661.732ZM1323.13 664.607C1323.13 664.967 1322.68 665.257 1322.14 665.252C1321.3 665.243 1321.28 665.149 1322 664.607C1323.06 663.809 1323.13 663.809 1323.13 664.607ZM1411.34 664.607C1411.34 664.967 1410.9 665.257 1410.36 665.252C1409.52 665.243 1409.5 665.149 1410.22 664.607C1411.28 663.809 1411.34 663.809 1411.34 664.607ZM1353.75 667.224C1353.56 667.584 1352.9 667.878 1352.28 667.878C1351.66 667.878 1351.31 667.584 1351.5 667.224C1351.69 666.864 1352.35 666.57 1352.97 666.57C1353.59 666.57 1353.94 666.864 1353.75 667.224ZM398.385 669.62C397.999 669.802 397.366 669.802 396.98 669.62C396.594 669.439 396.91 669.29 397.682 669.29C398.455 669.29 398.771 669.439 398.385 669.62ZM1299.24 672.458C1299.05 672.818 1298.6 673.107 1298.23 673.102C1297.83 673.096 1297.9 672.838 1298.4 672.458C1299.48 671.645 1299.68 671.645 1299.24 672.458ZM180.79 673.362C180.79 673.501 180.284 673.767 179.666 673.956C179.047 674.144 178.682 674.031 178.856 673.705C179.158 673.135 180.79 672.846 180.79 673.362ZM894.622 677.146C894.463 677.446 893.953 677.691 893.489 677.691C893.026 677.691 892.777 677.446 892.936 677.146C893.095 676.846 893.605 676.601 894.068 676.601C894.532 676.601 894.781 676.846 894.622 677.146ZM1296.71 685.56C1295.69 686.308 1294.3 686.393 1294.67 685.685C1294.82 685.403 1295.53 685.122 1296.24 685.059C1297.26 684.97 1297.36 685.081 1296.71 685.56ZM1026.44 688.178C1026.44 689.022 1024.84 689.783 1024.33 689.185C1024.12 688.941 1024.32 688.467 1024.77 688.133C1025.86 687.332 1026.44 687.348 1026.44 688.178ZM296.389 695.095C296.202 695.312 295.717 695.336 295.312 695.147C294.864 694.938 294.997 694.783 295.651 694.752C296.244 694.724 296.575 694.878 296.389 695.095ZM756.734 694.957C756.734 695.098 756.342 695.39 755.862 695.604C755.362 695.827 755.137 695.717 755.333 695.347C755.663 694.725 756.734 694.427 756.734 694.957ZM1108.48 696.586C1108.48 696.904 1107.98 697.318 1107.36 697.506C1106.25 697.843 1105.87 697.302 1106.61 696.445C1107.15 695.81 1108.48 695.91 1108.48 696.586ZM794.381 696.92C794.381 697.061 794.002 697.346 793.538 697.554C793.075 697.76 792.695 697.644 792.695 697.296C792.695 696.948 793.075 696.662 793.538 696.662C794.002 696.662 794.381 696.778 794.381 696.92ZM219.409 703.599C219.222 703.817 218.737 703.84 218.332 703.651C217.884 703.443 218.017 703.287 218.672 703.256C219.264 703.228 219.595 703.382 219.409 703.599ZM1159.86 705.098C1160.2 705.75 1158.9 706.486 1157.46 706.454C1156.65 706.437 1156.67 706.302 1157.61 705.473C1158.87 704.366 1159.42 704.275 1159.86 705.098ZM7.30465 707.563C6.91863 707.745 6.2865 707.745 5.89991 707.563C5.51389 707.381 5.82967 707.233 6.60228 707.233C7.37489 707.233 7.69124 707.381 7.30465 707.563ZM1001.38 708.547C1001.22 708.847 1000.71 709.092 1000.25 709.092C999.786 709.092 999.537 708.847 999.696 708.547C999.855 708.247 1000.36 708.001 1000.83 708.001C1001.29 708.001 1001.54 708.247 1001.38 708.547ZM1053.42 710.33C1053.42 711.157 1051.83 711.768 1051.46 711.082C1051.3 710.769 1051.48 710.363 1051.87 710.181C1052.98 709.659 1053.42 709.7 1053.42 710.33ZM1007.19 711.45C1007 711.667 1006.52 711.691 1006.11 711.501C1005.66 711.293 1005.8 711.138 1006.45 711.106C1007.04 711.078 1007.37 711.232 1007.19 711.45ZM999.473 711.966C999.473 712.107 999.081 712.398 998.601 712.613C998.101 712.836 997.876 712.726 998.072 712.356C998.402 711.734 999.473 711.436 999.473 711.966ZM290.583 713.126C290.424 713.426 289.914 713.671 289.451 713.671C288.987 713.671 288.738 713.426 288.897 713.126C289.056 712.826 289.566 712.581 290.03 712.581C290.493 712.581 290.742 712.826 290.583 713.126ZM865.461 713.671C865.27 714.031 864.861 714.326 864.552 714.326C864.243 714.326 864.146 714.031 864.337 713.671C864.528 713.312 864.937 713.017 865.246 713.017C865.555 713.017 865.652 713.312 865.461 713.671ZM787.357 735.259C787.166 735.619 786.709 735.909 786.341 735.904C785.939 735.897 786.008 735.64 786.515 735.259C787.594 734.447 787.788 734.447 787.357 735.259ZM797.6 735.655C797.414 735.872 796.929 735.895 796.524 735.706C796.075 735.498 796.208 735.343 796.863 735.311C797.455 735.283 797.787 735.437 797.6 735.655ZM1411.7 737.023C1411.09 737.73 1409.66 737.829 1409.66 737.165C1409.66 736.836 1410.21 736.568 1410.88 736.568C1411.54 736.568 1411.92 736.773 1411.7 737.023ZM829.5 746.381C829.309 746.74 828.899 747.035 828.59 747.035C828.281 747.035 828.185 746.74 828.376 746.381C828.567 746.021 828.976 745.726 829.285 745.726C829.594 745.726 829.691 746.021 829.5 746.381ZM1318.87 753.508C1319.2 754.126 1317.96 754.885 1316.62 754.885C1315.49 754.885 1315.63 753.731 1316.8 753.373C1318.41 752.886 1318.55 752.896 1318.87 753.508ZM1015.77 761.427C1015.77 761.787 1015.2 762.077 1014.5 762.071C1013.48 762.063 1013.4 761.94 1014.08 761.427C1015.17 760.607 1015.77 760.607 1015.77 761.427ZM1106.23 769.861C1106.23 770.587 1104.51 771.408 1104.06 770.892C1103.88 770.684 1104.11 770.241 1104.56 769.906C1105.61 769.132 1106.23 769.116 1106.23 769.861ZM1426.35 777.84C1425.64 779.161 1424.47 779.424 1423.26 778.531C1422.66 778.09 1422.66 777.872 1423.26 777.321C1425.25 775.487 1427.42 775.851 1426.35 777.84ZM1157.37 779.09C1156.9 779.439 1156.14 779.724 1155.68 779.724C1154.93 779.724 1154.93 779.654 1155.68 779.09C1156.14 778.741 1156.9 778.456 1157.37 778.456C1158.12 778.456 1158.12 778.526 1157.37 779.09ZM942.722 786.543C942.722 786.684 942.342 786.97 941.879 787.177C941.415 787.384 941.036 787.268 941.036 786.92C941.036 786.571 941.415 786.286 941.879 786.286C942.342 786.286 942.722 786.402 942.722 786.543ZM773.872 790.211C773.681 790.571 773.223 790.861 772.855 790.855C772.453 790.849 772.523 790.592 773.029 790.211C774.108 789.398 774.303 789.398 773.872 790.211ZM1254.29 796.753C1254.1 797.113 1253.39 797.403 1252.71 797.397C1251.71 797.389 1251.64 797.268 1252.33 796.753C1253.43 795.92 1254.74 795.92 1254.29 796.753ZM1134.33 802.243C1134.33 802.385 1133.94 802.676 1133.46 802.891C1132.96 803.114 1132.73 803.004 1132.93 802.633C1133.26 802.011 1134.33 801.714 1134.33 802.243ZM1328.64 810.236C1328.08 810.889 1327.31 811.119 1326.59 810.852C1325.14 810.318 1325.58 808.692 1327.25 808.369C1329 808.03 1329.72 808.986 1328.64 810.236ZM1422.02 810.491C1420.92 811.319 1420.18 811.319 1420.61 810.491C1420.81 810.131 1421.39 809.841 1421.91 809.846C1422.73 809.855 1422.75 809.945 1422.02 810.491ZM1252.02 824.836C1252.39 825.54 1250.17 826.519 1249.63 825.888C1249.43 825.656 1249.64 825.192 1250.1 824.857C1251.15 824.082 1251.62 824.077 1252.02 824.836ZM1354.87 826.191C1354.68 826.551 1354.22 826.841 1353.86 826.836C1353.45 826.829 1353.52 826.572 1354.03 826.191C1355.11 825.379 1355.3 825.379 1354.87 826.191ZM1259.49 830.28C1259.21 831.266 1256.82 831.789 1256.82 830.864C1256.82 830.292 1257.76 829.78 1259.26 829.538C1259.51 829.496 1259.62 829.83 1259.49 830.28ZM1032.06 836.915C1032.06 837.057 1031.68 837.342 1031.22 837.549C1030.76 837.756 1030.38 837.64 1030.38 837.292C1030.38 836.943 1030.76 836.658 1031.22 836.658C1031.68 836.658 1032.06 836.774 1032.06 836.915ZM1062.15 837.923C1061.66 838.843 1060.16 838.822 1060.16 837.897C1060.16 837.498 1060.54 837.342 1061 837.549C1061.46 837.756 1061.84 837.591 1061.84 837.183C1061.84 836.775 1062 836.617 1062.18 836.833C1062.37 837.049 1062.35 837.539 1062.15 837.923ZM1056.22 839.532C1056.22 839.673 1055.85 839.959 1055.38 840.166C1054.92 840.373 1054.54 840.257 1054.54 839.909C1054.54 839.56 1054.92 839.275 1055.38 839.275C1055.85 839.275 1056.22 839.391 1056.22 839.532ZM1100.05 839.526C1100.05 839.664 1099.55 839.931 1098.93 840.119C1098.31 840.307 1097.81 840.194 1097.81 839.868C1097.81 839.542 1098.31 839.275 1098.93 839.275C1099.55 839.275 1100.05 839.388 1100.05 839.526ZM1297.6 840.002C1298.16 841.059 1296.73 841.882 1294.47 841.806C1293.39 841.769 1292.94 841.605 1293.49 841.441C1294.03 841.276 1294.47 840.89 1294.47 840.583C1294.47 840.104 1295.36 839.636 1296.82 839.351C1297.04 839.309 1297.39 839.602 1297.6 840.002ZM989.921 844.508C989.921 844.868 989.352 845.158 988.657 845.153C987.635 845.144 987.554 845.021 988.235 844.508C989.325 843.689 989.921 843.689 989.921 844.508ZM1236.87 845.163C1236.68 845.522 1236.27 845.817 1235.97 845.817C1235.66 845.817 1235.56 845.522 1235.75 845.163C1235.94 844.803 1236.35 844.508 1236.66 844.508C1236.97 844.508 1237.07 844.803 1236.87 845.163ZM1283.23 846.471C1283.23 846.831 1282.66 847.104 1281.97 847.079C1280.76 847.036 1280.75 847.007 1281.83 846.471C1282.44 846.161 1283.01 845.888 1283.09 845.863C1283.17 845.838 1283.23 846.111 1283.23 846.471ZM1404.04 846.067C1404.04 846.205 1403.53 846.472 1402.91 846.661C1402.3 846.849 1401.79 846.736 1401.79 846.409C1401.79 846.084 1402.3 845.817 1402.91 845.817C1403.53 845.817 1404.04 845.93 1404.04 846.067ZM1041.05 849.742C1039.96 850.562 1039.37 850.562 1039.37 849.742C1039.37 849.382 1039.94 849.092 1040.63 849.097C1041.65 849.106 1041.74 849.229 1041.05 849.742ZM1241.37 850.396C1241.18 850.756 1240.59 851.046 1240.07 851.041C1239.25 851.031 1239.24 850.942 1239.96 850.396C1241.07 849.568 1241.81 849.568 1241.37 850.396ZM1409.1 852.483C1408.39 852.79 1407.66 852.872 1407.49 852.664C1406.96 852.049 1408.64 851.14 1409.56 851.548C1410.2 851.835 1410.09 852.058 1409.1 852.483ZM1178.59 853.141C1178.39 853.823 1175.35 855.23 1175.35 854.638C1175.35 854.516 1175.74 853.952 1176.23 853.386C1177.27 852.18 1178.91 852.009 1178.59 853.141ZM1107.08 854.321C1106.89 854.681 1106.3 854.955 1105.78 854.93C1105 854.892 1105.04 854.78 1105.95 854.321C1107.46 853.569 1107.48 853.569 1107.08 854.321ZM1279.86 858.9C1279.86 859.26 1279.29 859.534 1278.6 859.509C1277.39 859.465 1277.38 859.437 1278.45 858.9C1279.07 858.591 1279.64 858.318 1279.72 858.292C1279.8 858.267 1279.86 858.541 1279.86 858.9ZM1125.9 859.555C1125.9 859.914 1125.33 860.188 1124.64 860.163C1123.43 860.119 1123.42 860.091 1124.5 859.555C1125.11 859.245 1125.68 858.972 1125.76 858.946C1125.84 858.921 1125.9 859.195 1125.9 859.555ZM1307.95 859.843C1307.95 860.533 1306.88 860.824 1306.56 860.219C1306.36 859.854 1306.6 859.555 1307.08 859.555C1307.56 859.555 1307.95 859.684 1307.95 859.843ZM1025.6 860.863C1025.41 861.223 1024.87 861.517 1024.41 861.517C1023.95 861.517 1023.72 861.223 1023.92 860.863C1024.11 860.503 1024.64 860.209 1025.11 860.209C1025.57 860.209 1025.79 860.503 1025.6 860.863ZM1236.59 869.618C1236.59 869.756 1236.09 870.023 1235.47 870.211C1234.85 870.4 1234.49 870.287 1234.66 869.961C1234.96 869.391 1236.59 869.102 1236.59 869.618ZM1335.49 874.29C1335.49 875.092 1333.46 876.563 1332.36 876.563C1331.51 876.563 1332.34 874.453 1333.38 873.967C1335.19 873.122 1335.49 873.168 1335.49 874.29ZM1220.28 877.243C1219.22 878.024 1218.61 878.032 1218.61 877.265C1218.61 876.644 1220.37 875.957 1220.84 876.392C1220.99 876.526 1220.74 876.908 1220.28 877.243ZM1381.55 882.477C1380.64 883.143 1379.32 883.309 1379.32 882.757C1379.32 882.271 1381.78 881.232 1382.11 881.582C1382.25 881.739 1382 882.142 1381.55 882.477ZM1352.09 896.145C1351.63 897.002 1350.1 897.073 1350.1 896.237C1350.1 895.904 1350.54 895.516 1351.08 895.376C1352.31 895.059 1352.56 895.253 1352.09 896.145ZM1381.56 907.888C1381.56 908.206 1381.06 908.62 1380.44 908.808C1379.22 909.179 1378.87 908.284 1380.02 907.743C1381.12 907.223 1381.56 907.264 1381.56 907.888ZM1224.22 932.195C1223.16 932.975 1222.55 932.984 1222.55 932.217C1222.55 931.596 1224.3 930.909 1224.78 931.344C1224.92 931.477 1224.67 931.86 1224.22 932.195ZM1432.7 943.547C1432.7 943.689 1432.3 943.98 1431.82 944.195C1431.32 944.418 1431.1 944.308 1431.29 943.938C1431.62 943.315 1432.7 943.018 1432.7 943.547ZM1420.47 965.312C1420.09 965.494 1419.46 965.494 1419.07 965.312C1418.68 965.13 1419 964.982 1419.77 964.982C1420.54 964.982 1420.86 965.13 1420.47 965.312Z" fill="#D6E1F1"/>
<defs>
<linearGradient id="paint0_linear" x1="720" y1="0" x2="720" y2="1320" gradientUnits="userSpaceOnUse">
<stop stop-color="#2D3640"/>
<stop offset="1" stop-color="#4D5966"/>
</linearGradient>
</defs>
</svg>
