<svg width="550" height="600" viewBox="0 0 550 600" fill="none" xmlns="http://www.w3.org/2000/svg">
  <path fill-rule="evenodd" clip-rule="evenodd" d="M272.376 103.679C204.94 92.8629 130.656 52.3851 75.575 92.5253C19.3628 133.49 20.1942 216.252 22.8967 285.488C25.2857 346.693 53.2577 399.851 89.5047 449.393C131.02 506.136 171.543 574.664 241.467 584.227C313.886 594.131 382.386 548.792 432.988 496.368C479.448 448.236 500.589 382.634 500.446 315.926C500.314 253.734 477.929 192.241 432.249 149.731C390.143 110.546 329.317 112.811 272.376 103.679Z" fill="#F2F2F2"/>
  <path d="M415.035 466.217C415.028 474.502 418.809 477.644 421.216 481.216C423.623 484.788 426.507 481.586 425.387 480.132C424.267 478.678 423.45 476.999 422.912 475.241C422.346 473.371 422.046 471.415 422.044 469.463C422.043 466.129 422.911 462.811 424.802 459.981L424.943 459.772C428.754 454.209 434.48 450.435 440.447 447.465C448.308 443.552 456.351 439.9 462.229 433.181C468.127 426.441 471.089 417.82 472.254 409.063C472.691 405.767 472.966 402.393 472.965 399.043C472.961 391.255 471.46 383.584 467.011 377.26C457.298 363.423 441.393 358.855 421.466 359.67C401.54 360.485 371.241 356.409 351.587 344.997C331.934 333.584 313.918 292.825 311.462 287.934C309.005 294.456 294.101 315.161 254.139 332.769C228.754 340.106 200.093 345.812 181.258 335.215C183.611 366.2 212.602 415.256 249.761 433.181C263.683 439.897 308.721 453.057 344.753 433.181C360.458 424.517 379.429 410.211 391.695 399.987C400.457 392.684 416.669 386.559 430.353 386.559C432.335 386.559 434.316 386.682 436.303 386.938C441.451 387.608 446.673 389.271 450.334 392.934C454.137 396.743 455.547 401.782 455.547 407.151C455.547 412.932 453.909 419.096 451.864 424.517C449.654 430.375 445.894 435.79 441.059 439.897C435.741 444.417 428.922 446.34 423.571 450.815C420.615 453.261 417.88 456.317 416.329 459.938C415.408 462.076 415.036 464.192 415.035 466.217Z" fill="#3A70A6"/>
  <path fill-rule="evenodd" clip-rule="evenodd" d="M526.242 539.068C520.261 537.664 511.927 549.328 508.856 554.008C507.839 550.096 506.189 544.111 504.168 538.07C501.932 531.331 499.22 524.525 496.39 520.435C498.067 520.055 500.488 519.29 502.101 517.83C504.793 515.4 507.034 503.321 505.165 502.405C503.296 501.487 496.907 505.595 494.39 510.2C492.774 513.165 493.275 516.675 493.848 518.811C490.255 518.901 479.811 519.062 471.689 518.01C468.575 517.614 465.798 517.042 463.883 516.204C459.53 514.318 451.127 504.982 443.09 496.053C436.283 488.49 429.738 481.22 426.142 479.017C423.296 478.523 420.893 478.561 417.917 479.272C419.471 481.158 421.011 483.036 422.528 484.955C426.604 490.118 430.43 495.741 433.602 501.604C435.434 504.994 436.966 508.518 438.498 512.044C439.71 514.833 440.923 517.623 442.284 520.347C447.626 531.045 454.045 543.172 463.122 551.757C460.946 551.701 457.172 551.911 454.548 553.686C454.548 553.686 449.831 551.511 448.4 553.037C446.973 554.55 448.66 562.562 464.06 571.617C479.45 580.665 485.613 576.547 485.595 574.47C485.589 572.477 481.301 569.357 481.301 569.357C481.301 569.357 481.37 564.891 480.757 561.781L480.753 561.759C486.421 563.136 491.917 563.034 496.586 562.364C504.25 561.268 509.678 558.632 509.963 558.492L509.967 558.491C512.721 557.859 517.832 558.751 523.506 559.742C533.743 561.53 545.81 563.638 549.163 557.687C554.394 548.433 533.702 540.821 526.242 539.068ZM525.86 542.797C520.56 541.235 510.707 555.89 510.707 555.89C512.103 555.42 516.809 555.91 522.256 556.476C531.507 557.439 542.897 558.623 543.848 555.709C545.366 551.068 531.167 544.347 525.86 542.797Z" fill="#FFBF40"/>
  <path fill-rule="evenodd" clip-rule="evenodd" d="M481.301 569.357C481.301 569.357 475.385 568.437 467.606 563.954C463.559 561.621 459.022 558.329 454.548 553.686C456.942 552.065 460.295 551.749 462.517 551.749C462.773 551.749 463.014 551.752 463.236 551.76C465.408 553.283 474.765 559.713 480.671 561.745L480.757 561.781C481.257 564.321 481.303 567.764 481.303 568.943C481.303 569.207 481.301 569.357 481.301 569.357Z" fill="#FF9F40"/>
  <path d="M493.848 518.811C492.676 518.84 490.774 518.876 488.46 518.876C483.686 518.876 477.161 518.718 471.689 518.011C475.836 522.595 486.843 534.249 504.168 538.07C501.932 531.331 499.22 524.525 496.39 520.435C498.067 520.055 500.488 519.29 502.101 517.83C504.102 516.023 505.853 508.89 505.853 504.968C505.853 503.613 505.645 502.64 505.165 502.405C504.987 502.317 504.767 502.276 504.515 502.276C502.114 502.276 496.667 506.034 494.39 510.199C493.575 511.695 493.298 513.327 493.298 514.851C493.296 516.354 493.563 517.751 493.848 518.811Z" fill="#FF9F40"/>
  <path fill-rule="evenodd" clip-rule="evenodd" d="M359.498 250.748L405.893 295.803C419.392 301.535 430.453 307.864 439.075 314.791C441.014 317.119 443.125 321.58 434.002 319.584C424.879 317.588 415.193 315.896 413.479 318.85C411.764 321.803 416.816 326.329 413.648 330.194C411.535 332.771 404.43 324.574 392.333 305.605L344.089 277.29L359.498 250.748ZM132.628 209.972L168.491 210.106C141.176 298.2 126.677 344.325 124.993 348.48C121.203 357.829 129.222 372.068 132.652 379.72C121.482 384.696 122.672 366.269 108.582 372.795C95.721 378.751 85.9377 389.544 71.0787 380.417C69.2519 379.295 67.2499 375.07 72.0868 371.768C84.1372 363.543 101.503 349.147 103.849 344.408C107.048 337.947 116.641 293.134 132.628 209.972Z" fill="#E6B795"/>
  <path fill-rule="evenodd" clip-rule="evenodd" d="M241.909 108.698L256.071 106.28C278.381 184.784 393.007 238.296 400.043 267.643C402.624 278.406 394.843 283.846 398.862 287.124L380.454 300.538C377.337 296.918 370.685 303.541 356.793 298.908C342.901 294.275 241.909 201.654 241.909 108.698Z" fill="#C2C7CC"/>
  <path fill-rule="evenodd" clip-rule="evenodd" d="M269.878 24.938C278.43 44.6349 292.375 89.6654 285.989 97.9576L238.978 104.695C238.962 104.612 238.945 104.53 238.928 104.448C221.226 105.026 205.548 92.2616 202.965 74.4046L198.065 40.5165C195.293 21.355 208.651 3.58529 227.9 0.826807L231.142 0.362185C248.623 -2.14289 264.95 8.59334 269.878 24.938Z" fill="#333230"/>
  <path fill-rule="evenodd" clip-rule="evenodd" d="M220.286 65.3174C211.554 57.6597 204.952 47.6876 204.063 35.5808C201.503 0.697608 250.894 1.37414 262.808 17.4579C274.723 33.5417 280 77.9143 268.31 82.7693C263.648 84.7055 252.894 83.1404 241.486 78.3461L254.785 123.806L215.88 129.381L220.286 65.3174Z" fill="#E6B795"/>
  <path fill-rule="evenodd" clip-rule="evenodd" d="M265.731 119.135C264.099 223.069 324.454 249.581 311.01 291.275C299.909 325.706 193.647 362.718 175.259 328.968C167.816 315.307 164.439 298.784 164.056 280.82C159.356 294.621 155.64 306.502 152.905 316.463C148.189 333.647 129.903 336.378 129.903 342.998L105.812 336.378C107.446 327.385 96.0888 323.006 99.134 302.914C112.778 212.89 149.437 147.634 209.111 107.147L209.729 98.3584C209.981 94.7655 213.111 92.0566 216.721 92.3078L260.833 95.3785C264.442 95.6297 267.164 98.746 266.911 102.339L265.731 119.135Z" fill="#DAE0E6"/>
  <path fill-rule="evenodd" clip-rule="evenodd" d="M229.96 57.9761C234.524 76.887 236.972 98.8791 232.381 104.841L185.37 111.578C176.199 66.65 204.05 80.5657 197.882 37.9117C199.238 36.1505 200.51 34.4174 201.796 32.8957L201.562 31.6487C207.304 13.8923 216.432 4.11744 228.946 2.32399C247.718 -0.366175 254.901 7.47994 261.014 14.1393C259.105 27.5657 244.741 31.5744 232.894 41.4706C231.181 40.4502 229.118 39.9871 226.989 40.2923C222.065 40.9979 218.648 45.5437 219.356 50.4455C220.065 55.3472 224.632 58.7489 229.556 58.0432C229.692 58.0237 229.826 58.0014 229.96 57.9761Z" fill="#333230"/>
</svg>
