<svg width="858" height="58" viewBox="0 0 858 58" fill="none" xmlns="http://www.w3.org/2000/svg">
<g filter="url(#filter0_d)">
<path d="M10 13C10 8.58172 13.5817 5 18 5H144C148.418 5 152 8.58172 152 13V35C152 39.4183 148.418 43 144 43H18C13.5817 43 10 39.4183 10 35V13Z" fill="#1F1F1F"/>
<path d="M55.844 28.336C55.9613 28.3467 56.116 28.3573 56.308 28.368C56.5 28.368 56.7613 28.368 57.092 28.368C58.4467 28.368 59.4547 28.0267 60.116 27.344C60.788 26.6507 61.124 25.6853 61.124 24.448C61.124 23.1893 60.7987 22.224 60.148 21.552C59.4973 20.88 58.4893 20.544 57.124 20.544C56.5267 20.544 56.1 20.56 55.844 20.592V28.336ZM63.236 24.448C63.236 25.408 63.0867 26.2453 62.788 26.96C62.4893 27.664 62.0627 28.256 61.508 28.736C60.964 29.2053 60.3027 29.5573 59.524 29.792C58.756 30.016 57.9027 30.128 56.964 30.128C56.516 30.128 56.0093 30.1067 55.444 30.064C54.8787 30.032 54.34 29.9573 53.828 29.84V19.072C54.34 18.9547 54.884 18.88 55.46 18.848C56.036 18.816 56.548 18.8 56.996 18.8C57.924 18.8 58.772 18.912 59.54 19.136C60.308 19.3493 60.964 19.6907 61.508 20.16C62.0627 20.6187 62.4893 21.2053 62.788 21.92C63.0867 22.624 63.236 23.4667 63.236 24.448ZM64.8774 25.856C64.8774 25.12 64.984 24.4747 65.1974 23.92C65.4214 23.3653 65.7147 22.9067 66.0774 22.544C66.44 22.1707 66.856 21.8933 67.3254 21.712C67.7947 21.52 68.2747 21.424 68.7654 21.424C69.9174 21.424 70.8134 21.7813 71.4534 22.496C72.104 23.2107 72.4294 24.2773 72.4294 25.696C72.4294 25.8027 72.424 25.9253 72.4134 26.064C72.4134 26.192 72.408 26.3093 72.3974 26.416H66.8774C66.9307 27.088 67.1654 27.6107 67.5814 27.984C68.008 28.3467 68.6214 28.528 69.4214 28.528C69.8907 28.528 70.3174 28.4853 70.7014 28.4C71.096 28.3147 71.4054 28.224 71.6294 28.128L71.8854 29.712C71.7787 29.7653 71.6294 29.824 71.4374 29.888C71.256 29.9413 71.0427 29.9893 70.7974 30.032C70.5627 30.0853 70.3067 30.128 70.0294 30.16C69.752 30.192 69.4694 30.208 69.1814 30.208C68.4454 30.208 67.8054 30.1013 67.2614 29.888C66.7174 29.664 66.2694 29.36 65.9174 28.976C65.5654 28.5813 65.304 28.1227 65.1334 27.6C64.9627 27.0667 64.8774 26.4853 64.8774 25.856ZM70.4934 24.992C70.4934 24.7253 70.456 24.4747 70.3814 24.24C70.3067 23.9947 70.1947 23.7867 70.0454 23.616C69.9067 23.4347 69.7307 23.296 69.5174 23.2C69.3147 23.0933 69.0694 23.04 68.7814 23.04C68.4827 23.04 68.2214 23.0987 67.9974 23.216C67.7734 23.3227 67.5814 23.4667 67.4214 23.648C67.272 23.8293 67.1547 24.0373 67.0694 24.272C66.984 24.5067 66.9254 24.7467 66.8934 24.992H70.4934ZM77.89 17.584C78.338 17.584 78.7327 17.6267 79.074 17.712C79.4153 17.7867 79.6713 17.856 79.842 17.92L79.474 19.52C79.2927 19.4347 79.0793 19.3653 78.834 19.312C78.5993 19.2587 78.3433 19.232 78.066 19.232C77.7567 19.232 77.4953 19.28 77.282 19.376C77.0687 19.4613 76.898 19.584 76.77 19.744C76.642 19.904 76.5513 20.1013 76.498 20.336C76.4447 20.56 76.418 20.8053 76.418 21.072V21.632H79.458V23.248H76.418V30H74.482V21.04C74.482 19.9627 74.7647 19.12 75.33 18.512C75.8953 17.8933 76.7487 17.584 77.89 17.584ZM83.8323 28.64C84.4296 28.64 84.8829 28.608 85.1923 28.544V26.4C85.0856 26.368 84.9309 26.336 84.7283 26.304C84.5256 26.272 84.3016 26.256 84.0563 26.256C83.8429 26.256 83.6243 26.272 83.4003 26.304C83.1869 26.336 82.9896 26.3947 82.8083 26.48C82.6376 26.5653 82.4989 26.688 82.3923 26.848C82.2856 26.9973 82.2323 27.1893 82.2323 27.424C82.2323 27.8827 82.3763 28.2027 82.6643 28.384C82.9523 28.5547 83.3416 28.64 83.8323 28.64ZM83.6723 21.424C84.3123 21.424 84.8509 21.504 85.2883 21.664C85.7256 21.824 86.0723 22.048 86.3283 22.336C86.5949 22.624 86.7816 22.976 86.8883 23.392C87.0056 23.7973 87.0643 24.2453 87.0643 24.736V29.808C86.7656 29.872 86.3123 29.9467 85.7043 30.032C85.1069 30.128 84.4296 30.176 83.6723 30.176C83.1709 30.176 82.7123 30.128 82.2963 30.032C81.8803 29.936 81.5229 29.7813 81.2243 29.568C80.9363 29.3547 80.7069 29.0773 80.5363 28.736C80.3763 28.3947 80.2963 27.9733 80.2963 27.472C80.2963 26.992 80.3869 26.5867 80.5683 26.256C80.7603 25.9253 81.0163 25.6587 81.3363 25.456C81.6563 25.2427 82.0243 25.0933 82.4403 25.008C82.8669 24.912 83.3096 24.864 83.7682 24.864C83.9816 24.864 84.2056 24.88 84.4403 24.912C84.6749 24.9333 84.9256 24.976 85.1923 25.04V24.72C85.1923 24.496 85.1656 24.2827 85.1123 24.08C85.0589 23.8773 84.9629 23.7013 84.8243 23.552C84.6963 23.392 84.5203 23.2693 84.2963 23.184C84.0829 23.0987 83.8109 23.056 83.4803 23.056C83.0323 23.056 82.6216 23.088 82.2483 23.152C81.8749 23.216 81.5709 23.2907 81.3363 23.376L81.0963 21.808C81.3416 21.7227 81.6989 21.6373 82.1683 21.552C82.6376 21.4667 83.1389 21.424 83.6723 21.424ZM96.2991 29.744C95.9258 29.84 95.4405 29.936 94.8431 30.032C94.2458 30.1387 93.5898 30.192 92.8751 30.192C92.2031 30.192 91.6378 30.096 91.1791 29.904C90.7311 29.712 90.3685 29.4453 90.0911 29.104C89.8245 28.7627 89.6325 28.3573 89.5151 27.888C89.3978 27.408 89.3391 26.8853 89.3391 26.32V21.632H91.2751V26.016C91.2751 26.912 91.4031 27.552 91.6591 27.936C91.9258 28.32 92.3845 28.512 93.0351 28.512C93.2698 28.512 93.5151 28.5013 93.7711 28.48C94.0378 28.4587 94.2351 28.432 94.3631 28.4V21.632H96.2991V29.744ZM101.675 30.16C101.099 30.1493 100.619 30.0853 100.235 29.968C99.8619 29.8507 99.5633 29.6853 99.3393 29.472C99.1153 29.248 98.9553 28.976 98.8593 28.656C98.7739 28.3253 98.7313 27.952 98.7313 27.536V17.904L100.667 17.584V27.168C100.667 27.4027 100.683 27.6 100.715 27.76C100.758 27.92 100.827 28.0587 100.923 28.176C101.019 28.2827 101.147 28.368 101.307 28.432C101.478 28.4853 101.691 28.528 101.947 28.56L101.675 30.16ZM103.417 19.424L105.353 19.104V21.632H108.329V23.248H105.353V26.656C105.353 27.328 105.46 27.808 105.673 28.096C105.887 28.384 106.249 28.528 106.761 28.528C107.113 28.528 107.423 28.4907 107.689 28.416C107.967 28.3413 108.185 28.272 108.345 28.208L108.665 29.744C108.441 29.84 108.148 29.936 107.785 30.032C107.423 30.1387 106.996 30.192 106.505 30.192C105.908 30.192 105.407 30.112 105.001 29.952C104.607 29.792 104.292 29.5627 104.057 29.264C103.823 28.9547 103.657 28.5867 103.561 28.16C103.465 27.7227 103.417 27.2267 103.417 26.672V19.424Z" fill="white"/>
<path d="M18 6H144V4H18V6ZM151 13V35H153V13H151ZM144 42H18V44H144V42ZM11 35V13H9V35H11ZM18 42C14.134 42 11 38.866 11 35H9C9 39.9706 13.0294 44 18 44V42ZM151 35C151 38.866 147.866 42 144 42V44C148.971 44 153 39.9706 153 35H151ZM144 6C147.866 6 151 9.13401 151 13H153C153 8.02944 148.971 4 144 4V6ZM18 4C13.0294 4 9 8.02944 9 13H11C11 9.13401 14.134 6 18 6V4Z" fill="#1F1F1F"/>
</g>
<g filter="url(#filter1_d)">
<path d="M184 13C184 8.58172 187.582 5 192 5H318C322.418 5 326 8.58172 326 13V35C326 39.4183 322.418 43 318 43H192C187.582 43 184 39.4183 184 35V13Z" fill="#00BFBF"/>
<path d="M239.188 30C239.039 29.5627 238.884 29.1307 238.724 28.704C238.564 28.2773 238.409 27.84 238.26 27.392H233.588C233.439 27.84 233.284 28.2827 233.124 28.72C232.975 29.1467 232.825 29.5733 232.676 30H230.58C230.996 28.816 231.391 27.7227 231.764 26.72C232.137 25.7173 232.5 24.768 232.852 23.872C233.215 22.976 233.572 22.1227 233.924 21.312C234.276 20.5013 234.639 19.7013 235.012 18.912H236.916C237.289 19.7013 237.652 20.5013 238.004 21.312C238.356 22.1227 238.708 22.976 239.06 23.872C239.423 24.768 239.791 25.7173 240.164 26.72C240.548 27.7227 240.948 28.816 241.364 30H239.188ZM235.924 21.056C235.679 21.6213 235.396 22.3093 235.076 23.12C234.767 23.9307 234.441 24.8107 234.1 25.76H237.748C237.407 24.8107 237.076 23.9253 236.756 23.104C236.436 22.2827 236.159 21.6 235.924 21.056ZM241.987 25.824C241.987 25.2053 242.083 24.6293 242.275 24.096C242.467 23.552 242.739 23.0827 243.091 22.688C243.453 22.2933 243.891 21.984 244.403 21.76C244.915 21.536 245.491 21.424 246.131 21.424C246.92 21.424 247.667 21.568 248.371 21.856L247.955 23.44C247.731 23.344 247.475 23.264 247.187 23.2C246.909 23.136 246.611 23.104 246.291 23.104C245.533 23.104 244.957 23.344 244.563 23.824C244.168 24.2933 243.971 24.96 243.971 25.824C243.971 26.656 244.157 27.3173 244.531 27.808C244.904 28.288 245.533 28.528 246.419 28.528C246.749 28.528 247.075 28.496 247.395 28.432C247.715 28.368 247.992 28.288 248.227 28.192L248.499 29.792C248.285 29.8987 247.96 29.9947 247.523 30.08C247.096 30.1653 246.653 30.208 246.195 30.208C245.48 30.208 244.856 30.1013 244.323 29.888C243.8 29.664 243.363 29.36 243.011 28.976C242.669 28.5813 242.413 28.1173 242.243 27.584C242.072 27.04 241.987 26.4533 241.987 25.824ZM249.902 19.424L251.838 19.104V21.632H254.814V23.248H251.838V26.656C251.838 27.328 251.944 27.808 252.158 28.096C252.371 28.384 252.734 28.528 253.246 28.528C253.598 28.528 253.907 28.4907 254.174 28.416C254.451 28.3413 254.67 28.272 254.83 28.208L255.15 29.744C254.926 29.84 254.632 29.936 254.27 30.032C253.907 30.1387 253.48 30.192 252.99 30.192C252.392 30.192 251.891 30.112 251.486 29.952C251.091 29.792 250.776 29.5627 250.542 29.264C250.307 28.9547 250.142 28.5867 250.046 28.16C249.95 27.7227 249.902 27.2267 249.902 26.672V19.424ZM258.637 30H256.701V21.632H258.637V30ZM258.845 19.184C258.845 19.5467 258.728 19.8347 258.493 20.048C258.258 20.2613 257.981 20.368 257.661 20.368C257.33 20.368 257.048 20.2613 256.813 20.048C256.578 19.8347 256.461 19.5467 256.461 19.184C256.461 18.8107 256.578 18.5173 256.813 18.304C257.048 18.0907 257.33 17.984 257.661 17.984C257.981 17.984 258.258 18.0907 258.493 18.304C258.728 18.5173 258.845 18.8107 258.845 19.184ZM268.675 25.808C268.675 26.4693 268.579 27.072 268.387 27.616C268.195 28.16 267.923 28.624 267.571 29.008C267.219 29.392 266.792 29.6907 266.291 29.904C265.8 30.1173 265.256 30.224 264.659 30.224C264.062 30.224 263.518 30.1173 263.027 29.904C262.536 29.6907 262.115 29.392 261.763 29.008C261.411 28.624 261.134 28.16 260.931 27.616C260.739 27.072 260.643 26.4693 260.643 25.808C260.643 25.1467 260.739 24.5493 260.931 24.016C261.134 23.472 261.411 23.008 261.763 22.624C262.126 22.24 262.552 21.9467 263.043 21.744C263.534 21.5307 264.072 21.424 264.659 21.424C265.246 21.424 265.784 21.5307 266.275 21.744C266.776 21.9467 267.203 22.24 267.555 22.624C267.907 23.008 268.179 23.472 268.371 24.016C268.574 24.5493 268.675 25.1467 268.675 25.808ZM266.691 25.808C266.691 24.976 266.51 24.32 266.147 23.84C265.795 23.3493 265.299 23.104 264.659 23.104C264.019 23.104 263.518 23.3493 263.155 23.84C262.803 24.32 262.627 24.976 262.627 25.808C262.627 26.6507 262.803 27.3173 263.155 27.808C263.518 28.2987 264.019 28.544 264.659 28.544C265.299 28.544 265.795 28.2987 266.147 27.808C266.51 27.3173 266.691 26.6507 266.691 25.808ZM270.67 21.904C271.043 21.7973 271.528 21.696 272.126 21.6C272.723 21.504 273.384 21.456 274.11 21.456C274.792 21.456 275.363 21.552 275.822 21.744C276.28 21.9253 276.643 22.1867 276.91 22.528C277.187 22.8587 277.379 23.264 277.486 23.744C277.603 24.2133 277.661 24.7307 277.661 25.296V30H275.726V25.6C275.726 25.152 275.694 24.7733 275.63 24.464C275.576 24.144 275.48 23.888 275.342 23.696C275.214 23.4933 275.032 23.3493 274.798 23.264C274.574 23.168 274.296 23.12 273.966 23.12C273.72 23.12 273.464 23.136 273.198 23.168C272.931 23.2 272.734 23.2267 272.606 23.248V30H270.67V21.904Z" fill="white"/>
<path d="M192 6H318V4H192V6ZM325 13V35H327V13H325ZM318 42H192V44H318V42ZM185 35V13H183V35H185ZM192 42C188.134 42 185 38.866 185 35H183C183 39.9706 187.029 44 192 44V42ZM325 35C325 38.866 321.866 42 318 42V44C322.971 44 327 39.9706 327 35H325ZM318 6C321.866 6 325 9.13401 325 13H327C327 8.02944 322.971 4 318 4V6ZM192 4C187.029 4 183 8.02944 183 13H185C185 9.13401 188.134 6 192 6V4Z" fill="#00BFBF"/>
</g>
<g filter="url(#filter2_d)">
<path d="M532 13C532 8.58172 535.582 5 540 5H666C670.418 5 674 8.58172 674 13V35C674 39.4183 670.418 43 666 43H540C535.582 43 532 39.4183 532 35V13Z" fill="white"/>
<path d="M574.828 18.912H576.844V30H574.828V18.912ZM579.404 21.904C579.777 21.7973 580.263 21.696 580.86 21.6C581.457 21.504 582.119 21.456 582.844 21.456C583.527 21.456 584.097 21.552 584.556 21.744C585.015 21.9253 585.377 22.1867 585.644 22.528C585.921 22.8587 586.113 23.264 586.22 23.744C586.337 24.2133 586.396 24.7307 586.396 25.296V30H584.46V25.6C584.46 25.152 584.428 24.7733 584.364 24.464C584.311 24.144 584.215 23.888 584.076 23.696C583.948 23.4933 583.767 23.3493 583.532 23.264C583.308 23.168 583.031 23.12 582.7 23.12C582.455 23.12 582.199 23.136 581.932 23.168C581.665 23.2 581.468 23.2267 581.34 23.248V30H579.404V21.904ZM591.707 28.64C592.305 28.64 592.758 28.608 593.067 28.544V26.4C592.961 26.368 592.806 26.336 592.603 26.304C592.401 26.272 592.177 26.256 591.931 26.256C591.718 26.256 591.499 26.272 591.275 26.304C591.062 26.336 590.865 26.3947 590.683 26.48C590.513 26.5653 590.374 26.688 590.267 26.848C590.161 26.9973 590.107 27.1893 590.107 27.424C590.107 27.8827 590.251 28.2027 590.539 28.384C590.827 28.5547 591.217 28.64 591.707 28.64ZM591.547 21.424C592.187 21.424 592.726 21.504 593.163 21.664C593.601 21.824 593.947 22.048 594.203 22.336C594.47 22.624 594.657 22.976 594.763 23.392C594.881 23.7973 594.939 24.2453 594.939 24.736V29.808C594.641 29.872 594.187 29.9467 593.579 30.032C592.982 30.128 592.305 30.176 591.547 30.176C591.046 30.176 590.587 30.128 590.171 30.032C589.755 29.936 589.398 29.7813 589.099 29.568C588.811 29.3547 588.582 29.0773 588.411 28.736C588.251 28.3947 588.171 27.9733 588.171 27.472C588.171 26.992 588.262 26.5867 588.443 26.256C588.635 25.9253 588.891 25.6587 589.211 25.456C589.531 25.2427 589.899 25.0933 590.315 25.008C590.742 24.912 591.185 24.864 591.643 24.864C591.857 24.864 592.081 24.88 592.315 24.912C592.55 24.9333 592.801 24.976 593.067 25.04V24.72C593.067 24.496 593.041 24.2827 592.987 24.08C592.934 23.8773 592.838 23.7013 592.699 23.552C592.571 23.392 592.395 23.2693 592.171 23.184C591.958 23.0987 591.686 23.056 591.355 23.056C590.907 23.056 590.497 23.088 590.123 23.152C589.75 23.216 589.446 23.2907 589.211 23.376L588.971 21.808C589.217 21.7227 589.574 21.6373 590.043 21.552C590.513 21.4667 591.014 21.424 591.547 21.424ZM596.846 25.824C596.846 25.2053 596.942 24.6293 597.134 24.096C597.326 23.552 597.598 23.0827 597.95 22.688C598.313 22.2933 598.75 21.984 599.262 21.76C599.774 21.536 600.35 21.424 600.99 21.424C601.779 21.424 602.526 21.568 603.23 21.856L602.814 23.44C602.59 23.344 602.334 23.264 602.046 23.2C601.769 23.136 601.47 23.104 601.15 23.104C600.393 23.104 599.817 23.344 599.422 23.824C599.027 24.2933 598.83 24.96 598.83 25.824C598.83 26.656 599.017 27.3173 599.39 27.808C599.763 28.288 600.393 28.528 601.278 28.528C601.609 28.528 601.934 28.496 602.254 28.432C602.574 28.368 602.851 28.288 603.086 28.192L603.358 29.792C603.145 29.8987 602.819 29.9947 602.382 30.08C601.955 30.1653 601.513 30.208 601.054 30.208C600.339 30.208 599.715 30.1013 599.182 29.888C598.659 29.664 598.222 29.36 597.87 28.976C597.529 28.5813 597.273 28.1173 597.102 27.584C596.931 27.04 596.846 26.4533 596.846 25.824ZM604.761 19.424L606.697 19.104V21.632H609.673V23.248H606.697V26.656C606.697 27.328 606.804 27.808 607.017 28.096C607.23 28.384 607.593 28.528 608.105 28.528C608.457 28.528 608.766 28.4907 609.033 28.416C609.31 28.3413 609.529 28.272 609.689 28.208L610.009 29.744C609.785 29.84 609.492 29.936 609.129 30.032C608.766 30.1387 608.34 30.192 607.849 30.192C607.252 30.192 606.75 30.112 606.345 29.952C605.95 29.792 605.636 29.5627 605.401 29.264C605.166 28.9547 605.001 28.5867 604.905 28.16C604.809 27.7227 604.761 27.2267 604.761 26.672V19.424ZM613.497 30H611.561V21.632H613.497V30ZM613.705 19.184C613.705 19.5467 613.587 19.8347 613.353 20.048C613.118 20.2613 612.841 20.368 612.521 20.368C612.19 20.368 611.907 20.2613 611.673 20.048C611.438 19.8347 611.321 19.5467 611.321 19.184C611.321 18.8107 611.438 18.5173 611.673 18.304C611.907 18.0907 612.19 17.984 612.521 17.984C612.841 17.984 613.118 18.0907 613.353 18.304C613.587 18.5173 613.705 18.8107 613.705 19.184ZM618.11 30C617.577 28.9013 617.028 27.6427 616.462 26.224C615.908 24.7947 615.401 23.264 614.942 21.632H617.006C617.124 22.1013 617.257 22.608 617.406 23.152C617.566 23.6853 617.732 24.224 617.902 24.768C618.084 25.3013 618.265 25.824 618.446 26.336C618.638 26.8373 618.814 27.2907 618.974 27.696C619.134 27.2907 619.305 26.8373 619.486 26.336C619.668 25.824 619.844 25.3013 620.014 24.768C620.196 24.224 620.366 23.6853 620.526 23.152C620.686 22.608 620.825 22.1013 620.942 21.632H622.942C622.484 23.264 621.972 24.7947 621.406 26.224C620.852 27.6427 620.308 28.9013 619.774 30H618.11ZM623.737 25.856C623.737 25.12 623.843 24.4747 624.057 23.92C624.281 23.3653 624.574 22.9067 624.937 22.544C625.299 22.1707 625.715 21.8933 626.185 21.712C626.654 21.52 627.134 21.424 627.625 21.424C628.777 21.424 629.673 21.7813 630.313 22.496C630.963 23.2107 631.289 24.2773 631.289 25.696C631.289 25.8027 631.283 25.9253 631.273 26.064C631.273 26.192 631.267 26.3093 631.257 26.416H625.737C625.79 27.088 626.025 27.6107 626.441 27.984C626.867 28.3467 627.481 28.528 628.281 28.528C628.75 28.528 629.177 28.4853 629.561 28.4C629.955 28.3147 630.265 28.224 630.489 28.128L630.745 29.712C630.638 29.7653 630.489 29.824 630.297 29.888C630.115 29.9413 629.902 29.9893 629.657 30.032C629.422 30.0853 629.166 30.128 628.889 30.16C628.611 30.192 628.329 30.208 628.041 30.208C627.305 30.208 626.665 30.1013 626.121 29.888C625.577 29.664 625.129 29.36 624.777 28.976C624.425 28.5813 624.163 28.1227 623.993 27.6C623.822 27.0667 623.737 26.4853 623.737 25.856ZM629.353 24.992C629.353 24.7253 629.315 24.4747 629.241 24.24C629.166 23.9947 629.054 23.7867 628.905 23.616C628.766 23.4347 628.59 23.296 628.377 23.2C628.174 23.0933 627.929 23.04 627.641 23.04C627.342 23.04 627.081 23.0987 626.857 23.216C626.633 23.3227 626.441 23.4667 626.281 23.648C626.131 23.8293 626.014 24.0373 625.929 24.272C625.843 24.5067 625.785 24.7467 625.753 24.992H629.353Z" fill="#999999"/>
<path d="M540 6H666V4H540V6ZM673 13V35H675V13H673ZM666 42H540V44H666V42ZM533 35V13H531V35H533ZM540 42C536.134 42 533 38.866 533 35H531C531 39.9706 535.029 44 540 44V42ZM673 35C673 38.866 669.866 42 666 42V44C670.971 44 675 39.9706 675 35H673ZM666 6C669.866 6 673 9.13401 673 13H675C675 8.02944 670.971 4 666 4V6ZM540 4C535.029 4 531 8.02944 531 13H533C533 9.13401 536.134 6 540 6V4Z" fill="#999999"/>
</g>
<g filter="url(#filter3_d)">
<path d="M706 13C706 8.58172 709.582 5 714 5H840C844.418 5 848 8.58172 848 13V35C848 39.4183 844.418 43 840 43H714C709.582 43 706 39.4183 706 35V13Z" fill="#999999"/>
<path d="M751.964 18.8C753.575 18.8 754.807 19.0933 755.66 19.68C756.524 20.2667 756.956 21.184 756.956 22.432C756.956 23.0827 756.839 23.6427 756.604 24.112C756.38 24.5707 756.049 24.9493 755.612 25.248C755.175 25.536 754.641 25.7493 754.012 25.888C753.383 26.0267 752.663 26.096 751.852 26.096H750.844V30H748.828V19.072C749.297 18.9653 749.815 18.896 750.38 18.864C750.956 18.8213 751.484 18.8 751.964 18.8ZM752.108 20.544C751.596 20.544 751.175 20.56 750.844 20.592V24.368H751.82C752.791 24.368 753.537 24.2347 754.06 23.968C754.583 23.6907 754.844 23.1733 754.844 22.416C754.844 22.0533 754.775 21.7493 754.636 21.504C754.497 21.2587 754.305 21.0667 754.06 20.928C753.815 20.7893 753.521 20.6933 753.18 20.64C752.849 20.576 752.492 20.544 752.108 20.544ZM763.469 23.376C763.309 23.3227 763.085 23.2693 762.797 23.216C762.519 23.152 762.194 23.12 761.821 23.12C761.607 23.12 761.378 23.1413 761.133 23.184C760.898 23.2267 760.733 23.264 760.637 23.296V30H758.701V22.032C759.074 21.8933 759.538 21.7653 760.093 21.648C760.658 21.52 761.282 21.456 761.965 21.456C762.093 21.456 762.242 21.4667 762.413 21.488C762.583 21.4987 762.754 21.52 762.925 21.552C763.095 21.5733 763.261 21.6053 763.421 21.648C763.581 21.68 763.709 21.712 763.805 21.744L763.469 23.376ZM764.69 25.856C764.69 25.12 764.797 24.4747 765.01 23.92C765.234 23.3653 765.527 22.9067 765.89 22.544C766.253 22.1707 766.669 21.8933 767.138 21.712C767.607 21.52 768.087 21.424 768.578 21.424C769.73 21.424 770.626 21.7813 771.266 22.496C771.917 23.2107 772.242 24.2773 772.242 25.696C772.242 25.8027 772.237 25.9253 772.226 26.064C772.226 26.192 772.221 26.3093 772.21 26.416H766.69C766.743 27.088 766.978 27.6107 767.394 27.984C767.821 28.3467 768.434 28.528 769.234 28.528C769.703 28.528 770.13 28.4853 770.514 28.4C770.909 28.3147 771.218 28.224 771.442 28.128L771.698 29.712C771.591 29.7653 771.442 29.824 771.25 29.888C771.069 29.9413 770.855 29.9893 770.61 30.032C770.375 30.0853 770.119 30.128 769.842 30.16C769.565 30.192 769.282 30.208 768.994 30.208C768.258 30.208 767.618 30.1013 767.074 29.888C766.53 29.664 766.082 29.36 765.73 28.976C765.378 28.5813 765.117 28.1227 764.946 27.6C764.775 27.0667 764.69 26.4853 764.69 25.856ZM770.306 24.992C770.306 24.7253 770.269 24.4747 770.194 24.24C770.119 23.9947 770.007 23.7867 769.858 23.616C769.719 23.4347 769.543 23.296 769.33 23.2C769.127 23.0933 768.882 23.04 768.594 23.04C768.295 23.04 768.034 23.0987 767.81 23.216C767.586 23.3227 767.394 23.4667 767.234 23.648C767.085 23.8293 766.967 24.0373 766.882 24.272C766.797 24.5067 766.738 24.7467 766.706 24.992H770.306ZM776.391 28.608C776.903 28.608 777.276 28.5493 777.511 28.432C777.745 28.304 777.863 28.0907 777.863 27.792C777.863 27.5147 777.735 27.2853 777.479 27.104C777.233 26.9227 776.823 26.7253 776.247 26.512C775.895 26.384 775.569 26.2507 775.271 26.112C774.983 25.9627 774.732 25.792 774.519 25.6C774.305 25.408 774.135 25.1787 774.007 24.912C773.889 24.6347 773.831 24.2987 773.831 23.904C773.831 23.136 774.113 22.5333 774.679 22.096C775.244 21.648 776.012 21.424 776.983 21.424C777.473 21.424 777.943 21.472 778.391 21.568C778.839 21.6533 779.175 21.7387 779.399 21.824L779.047 23.392C778.833 23.296 778.561 23.2107 778.231 23.136C777.9 23.0507 777.516 23.008 777.079 23.008C776.684 23.008 776.364 23.0773 776.119 23.216C775.873 23.344 775.751 23.5467 775.751 23.824C775.751 23.9627 775.772 24.0853 775.815 24.192C775.868 24.2987 775.953 24.4 776.071 24.496C776.188 24.5813 776.343 24.672 776.535 24.768C776.727 24.8533 776.961 24.944 777.239 25.04C777.697 25.2107 778.087 25.3813 778.407 25.552C778.727 25.712 778.988 25.8987 779.191 26.112C779.404 26.3147 779.559 26.5493 779.655 26.816C779.751 27.0827 779.799 27.4027 779.799 27.776C779.799 28.576 779.5 29.184 778.903 29.6C778.316 30.0053 777.473 30.208 776.375 30.208C775.639 30.208 775.047 30.144 774.599 30.016C774.151 29.8987 773.836 29.8027 773.655 29.728L773.991 28.112C774.279 28.2293 774.62 28.3413 775.015 28.448C775.42 28.5547 775.879 28.608 776.391 28.608ZM783.703 28.608C784.215 28.608 784.588 28.5493 784.823 28.432C785.058 28.304 785.175 28.0907 785.175 27.792C785.175 27.5147 785.047 27.2853 784.791 27.104C784.546 26.9227 784.135 26.7253 783.559 26.512C783.207 26.384 782.882 26.2507 782.583 26.112C782.295 25.9627 782.044 25.792 781.831 25.6C781.618 25.408 781.447 25.1787 781.319 24.912C781.202 24.6347 781.143 24.2987 781.143 23.904C781.143 23.136 781.426 22.5333 781.991 22.096C782.556 21.648 783.324 21.424 784.295 21.424C784.786 21.424 785.255 21.472 785.703 21.568C786.151 21.6533 786.487 21.7387 786.711 21.824L786.359 23.392C786.146 23.296 785.874 23.2107 785.543 23.136C785.212 23.0507 784.828 23.008 784.391 23.008C783.996 23.008 783.676 23.0773 783.431 23.216C783.186 23.344 783.063 23.5467 783.063 23.824C783.063 23.9627 783.084 24.0853 783.127 24.192C783.18 24.2987 783.266 24.4 783.383 24.496C783.5 24.5813 783.655 24.672 783.847 24.768C784.039 24.8533 784.274 24.944 784.551 25.04C785.01 25.2107 785.399 25.3813 785.719 25.552C786.039 25.712 786.3 25.8987 786.503 26.112C786.716 26.3147 786.871 26.5493 786.967 26.816C787.063 27.0827 787.111 27.4027 787.111 27.776C787.111 28.576 786.812 29.184 786.215 29.6C785.628 30.0053 784.786 30.208 783.687 30.208C782.951 30.208 782.359 30.144 781.911 30.016C781.463 29.8987 781.148 29.8027 780.967 29.728L781.303 28.112C781.591 28.2293 781.932 28.3413 782.327 28.448C782.732 28.5547 783.191 28.608 783.703 28.608ZM788.456 25.856C788.456 25.12 788.562 24.4747 788.776 23.92C789 23.3653 789.293 22.9067 789.656 22.544C790.018 22.1707 790.434 21.8933 790.904 21.712C791.373 21.52 791.853 21.424 792.344 21.424C793.496 21.424 794.392 21.7813 795.032 22.496C795.682 23.2107 796.008 24.2773 796.008 25.696C796.008 25.8027 796.002 25.9253 795.992 26.064C795.992 26.192 795.986 26.3093 795.976 26.416H790.456C790.509 27.088 790.744 27.6107 791.16 27.984C791.586 28.3467 792.2 28.528 793 28.528C793.469 28.528 793.896 28.4853 794.28 28.4C794.674 28.3147 794.984 28.224 795.208 28.128L795.464 29.712C795.357 29.7653 795.208 29.824 795.016 29.888C794.834 29.9413 794.621 29.9893 794.376 30.032C794.141 30.0853 793.885 30.128 793.608 30.16C793.33 30.192 793.048 30.208 792.76 30.208C792.024 30.208 791.384 30.1013 790.84 29.888C790.296 29.664 789.848 29.36 789.496 28.976C789.144 28.5813 788.882 28.1227 788.712 27.6C788.541 27.0667 788.456 26.4853 788.456 25.856ZM794.072 24.992C794.072 24.7253 794.034 24.4747 793.96 24.24C793.885 23.9947 793.773 23.7867 793.624 23.616C793.485 23.4347 793.309 23.296 793.096 23.2C792.893 23.0933 792.648 23.04 792.36 23.04C792.061 23.04 791.8 23.0987 791.576 23.216C791.352 23.3227 791.16 23.4667 791 23.648C790.85 23.8293 790.733 24.0373 790.648 24.272C790.562 24.5067 790.504 24.7467 790.472 24.992H794.072ZM799.58 25.792C799.58 26.6453 799.783 27.3173 800.188 27.808C800.593 28.288 801.153 28.528 801.868 28.528C802.177 28.528 802.439 28.5173 802.652 28.496C802.876 28.464 803.057 28.432 803.196 28.4V23.6C803.025 23.4827 802.796 23.376 802.508 23.28C802.231 23.1733 801.932 23.12 801.612 23.12C800.908 23.12 800.391 23.36 800.06 23.84C799.74 24.32 799.58 24.9707 799.58 25.792ZM805.132 29.744C804.748 29.8613 804.263 29.968 803.676 30.064C803.1 30.16 802.492 30.208 801.852 30.208C801.191 30.208 800.599 30.1067 800.076 29.904C799.553 29.7013 799.105 29.4133 798.732 29.04C798.369 28.656 798.087 28.1973 797.884 27.664C797.692 27.12 797.596 26.512 797.596 25.84C797.596 25.1787 797.676 24.5813 797.836 24.048C798.007 23.504 798.252 23.04 798.572 22.656C798.892 22.272 799.281 21.9787 799.74 21.776C800.199 21.5627 800.727 21.456 801.324 21.456C801.729 21.456 802.087 21.504 802.396 21.6C802.705 21.696 802.972 21.8027 803.196 21.92V17.904L805.132 17.584V29.744Z" fill="white"/>
<path d="M714 6H840V4H714V6ZM847 13V35H849V13H847ZM840 42H714V44H840V42ZM707 35V13H705V35H707ZM714 42C710.134 42 707 38.866 707 35H705C705 39.9706 709.029 44 714 44V42ZM847 35C847 38.866 843.866 42 840 42V44C844.971 44 849 39.9706 849 35H847ZM840 6C843.866 6 847 9.13401 847 13H849C849 8.02944 844.971 4 840 4V6ZM714 4C709.029 4 705 8.02944 705 13H707C707 9.13401 710.134 6 714 6V4Z" fill="#999999"/>
</g>
<g filter="url(#filter4_d)">
<path d="M358 13C358 8.58172 361.582 5 366 5H492C496.418 5 500 8.58172 500 13V35C500 39.4183 496.418 43 492 43H366C361.582 43 358 39.4183 358 35V13Z" fill="white"/>
<path d="M394.016 28.496C394.741 28.496 395.269 28.3733 395.6 28.128C395.931 27.8827 396.096 27.536 396.096 27.088C396.096 26.8213 396.037 26.592 395.92 26.4C395.813 26.208 395.653 26.0373 395.44 25.888C395.237 25.728 394.987 25.584 394.688 25.456C394.389 25.3173 394.048 25.184 393.664 25.056C393.28 24.9173 392.907 24.768 392.544 24.608C392.192 24.4373 391.877 24.2293 391.6 23.984C391.333 23.7387 391.115 23.4453 390.944 23.104C390.784 22.7627 390.704 22.352 390.704 21.872C390.704 20.8693 391.051 20.0853 391.744 19.52C392.437 18.944 393.381 18.656 394.576 18.656C395.269 18.656 395.883 18.736 396.416 18.896C396.96 19.0453 397.387 19.2107 397.696 19.392L397.072 21.024C396.709 20.8213 396.309 20.6667 395.872 20.56C395.445 20.4533 395.003 20.4 394.544 20.4C394 20.4 393.573 20.512 393.264 20.736C392.965 20.96 392.816 21.2747 392.816 21.68C392.816 21.9253 392.864 22.1387 392.96 22.32C393.067 22.4907 393.211 22.6453 393.392 22.784C393.584 22.9227 393.803 23.0507 394.048 23.168C394.304 23.2853 394.581 23.3973 394.88 23.504C395.403 23.696 395.867 23.8933 396.272 24.096C396.688 24.288 397.035 24.5227 397.312 24.8C397.6 25.0667 397.819 25.3867 397.968 25.76C398.117 26.1227 398.192 26.5653 398.192 27.088C398.192 28.0907 397.835 28.8693 397.12 29.424C396.416 29.968 395.381 30.24 394.016 30.24C393.557 30.24 393.136 30.208 392.752 30.144C392.379 30.0907 392.043 30.0213 391.744 29.936C391.456 29.8507 391.205 29.7653 390.992 29.68C390.779 29.584 390.608 29.4987 390.48 29.424L391.072 27.776C391.36 27.936 391.749 28.096 392.24 28.256C392.731 28.416 393.323 28.496 394.016 28.496ZM399.409 25.856C399.409 25.12 399.515 24.4747 399.729 23.92C399.953 23.3653 400.246 22.9067 400.609 22.544C400.971 22.1707 401.387 21.8933 401.857 21.712C402.326 21.52 402.806 21.424 403.297 21.424C404.449 21.424 405.345 21.7813 405.985 22.496C406.635 23.2107 406.961 24.2773 406.961 25.696C406.961 25.8027 406.955 25.9253 406.945 26.064C406.945 26.192 406.939 26.3093 406.929 26.416H401.409C401.462 27.088 401.697 27.6107 402.113 27.984C402.539 28.3467 403.153 28.528 403.953 28.528C404.422 28.528 404.849 28.4853 405.233 28.4C405.627 28.3147 405.937 28.224 406.161 28.128L406.417 29.712C406.31 29.7653 406.161 29.824 405.969 29.888C405.787 29.9413 405.574 29.9893 405.329 30.032C405.094 30.0853 404.838 30.128 404.561 30.16C404.283 30.192 404.001 30.208 403.713 30.208C402.977 30.208 402.337 30.1013 401.793 29.888C401.249 29.664 400.801 29.36 400.449 28.976C400.097 28.5813 399.835 28.1227 399.665 27.6C399.494 27.0667 399.409 26.4853 399.409 25.856ZM405.025 24.992C405.025 24.7253 404.987 24.4747 404.913 24.24C404.838 23.9947 404.726 23.7867 404.577 23.616C404.438 23.4347 404.262 23.296 404.049 23.2C403.846 23.0933 403.601 23.04 403.313 23.04C403.014 23.04 402.753 23.0987 402.529 23.216C402.305 23.3227 402.113 23.4667 401.953 23.648C401.803 23.8293 401.686 24.0373 401.601 24.272C401.515 24.5067 401.457 24.7467 401.425 24.992H405.025ZM408.549 25.824C408.549 25.2053 408.645 24.6293 408.837 24.096C409.029 23.552 409.301 23.0827 409.653 22.688C410.016 22.2933 410.453 21.984 410.965 21.76C411.477 21.536 412.053 21.424 412.693 21.424C413.483 21.424 414.229 21.568 414.933 21.856L414.517 23.44C414.293 23.344 414.037 23.264 413.749 23.2C413.472 23.136 413.173 23.104 412.853 23.104C412.096 23.104 411.52 23.344 411.125 23.824C410.731 24.2933 410.533 24.96 410.533 25.824C410.533 26.656 410.72 27.3173 411.093 27.808C411.467 28.288 412.096 28.528 412.981 28.528C413.312 28.528 413.637 28.496 413.957 28.432C414.277 28.368 414.555 28.288 414.789 28.192L415.061 29.792C414.848 29.8987 414.523 29.9947 414.085 30.08C413.659 30.1653 413.216 30.208 412.757 30.208C412.043 30.208 411.419 30.1013 410.885 29.888C410.363 29.664 409.925 29.36 409.573 28.976C409.232 28.5813 408.976 28.1173 408.805 27.584C408.635 27.04 408.549 26.4533 408.549 25.824ZM423.956 25.808C423.956 26.4693 423.86 27.072 423.668 27.616C423.476 28.16 423.204 28.624 422.852 29.008C422.5 29.392 422.074 29.6907 421.572 29.904C421.082 30.1173 420.538 30.224 419.94 30.224C419.343 30.224 418.799 30.1173 418.308 29.904C417.818 29.6907 417.396 29.392 417.044 29.008C416.692 28.624 416.415 28.16 416.212 27.616C416.02 27.072 415.924 26.4693 415.924 25.808C415.924 25.1467 416.02 24.5493 416.212 24.016C416.415 23.472 416.692 23.008 417.044 22.624C417.407 22.24 417.834 21.9467 418.324 21.744C418.815 21.5307 419.354 21.424 419.94 21.424C420.527 21.424 421.066 21.5307 421.556 21.744C422.058 21.9467 422.484 22.24 422.836 22.624C423.188 23.008 423.46 23.472 423.652 24.016C423.855 24.5493 423.956 25.1467 423.956 25.808ZM421.972 25.808C421.972 24.976 421.791 24.32 421.428 23.84C421.076 23.3493 420.58 23.104 419.94 23.104C419.3 23.104 418.799 23.3493 418.436 23.84C418.084 24.32 417.908 24.976 417.908 25.808C417.908 26.6507 418.084 27.3173 418.436 27.808C418.799 28.2987 419.3 28.544 419.94 28.544C420.58 28.544 421.076 28.2987 421.428 27.808C421.791 27.3173 421.972 26.6507 421.972 25.808ZM425.951 21.904C426.324 21.7973 426.809 21.696 427.407 21.6C428.004 21.504 428.665 21.456 429.391 21.456C430.073 21.456 430.644 21.552 431.103 21.744C431.561 21.9253 431.924 22.1867 432.191 22.528C432.468 22.8587 432.66 23.264 432.767 23.744C432.884 24.2133 432.943 24.7307 432.943 25.296V30H431.007V25.6C431.007 25.152 430.975 24.7733 430.911 24.464C430.857 24.144 430.761 23.888 430.623 23.696C430.495 23.4933 430.313 23.3493 430.079 23.264C429.855 23.168 429.577 23.12 429.247 23.12C429.001 23.12 428.745 23.136 428.479 23.168C428.212 23.2 428.015 23.2267 427.887 23.248V30H425.951V21.904ZM436.83 25.792C436.83 26.6453 437.033 27.3173 437.438 27.808C437.843 28.288 438.403 28.528 439.118 28.528C439.427 28.528 439.689 28.5173 439.902 28.496C440.126 28.464 440.307 28.432 440.446 28.4V23.6C440.275 23.4827 440.046 23.376 439.758 23.28C439.481 23.1733 439.182 23.12 438.862 23.12C438.158 23.12 437.641 23.36 437.31 23.84C436.99 24.32 436.83 24.9707 436.83 25.792ZM442.382 29.744C441.998 29.8613 441.513 29.968 440.926 30.064C440.35 30.16 439.742 30.208 439.102 30.208C438.441 30.208 437.849 30.1067 437.326 29.904C436.803 29.7013 436.355 29.4133 435.982 29.04C435.619 28.656 435.337 28.1973 435.134 27.664C434.942 27.12 434.846 26.512 434.846 25.84C434.846 25.1787 434.926 24.5813 435.086 24.048C435.257 23.504 435.502 23.04 435.822 22.656C436.142 22.272 436.531 21.9787 436.99 21.776C437.449 21.5627 437.977 21.456 438.574 21.456C438.979 21.456 439.337 21.504 439.646 21.6C439.955 21.696 440.222 21.8027 440.446 21.92V17.904L442.382 17.584V29.744ZM447.785 28.64C448.383 28.64 448.836 28.608 449.145 28.544V26.4C449.039 26.368 448.884 26.336 448.681 26.304C448.479 26.272 448.255 26.256 448.009 26.256C447.796 26.256 447.577 26.272 447.353 26.304C447.14 26.336 446.943 26.3947 446.761 26.48C446.591 26.5653 446.452 26.688 446.345 26.848C446.239 26.9973 446.185 27.1893 446.185 27.424C446.185 27.8827 446.329 28.2027 446.617 28.384C446.905 28.5547 447.295 28.64 447.785 28.64ZM447.625 21.424C448.265 21.424 448.804 21.504 449.241 21.664C449.679 21.824 450.025 22.048 450.281 22.336C450.548 22.624 450.735 22.976 450.841 23.392C450.959 23.7973 451.017 24.2453 451.017 24.736V29.808C450.719 29.872 450.265 29.9467 449.657 30.032C449.06 30.128 448.383 30.176 447.625 30.176C447.124 30.176 446.665 30.128 446.249 30.032C445.833 29.936 445.476 29.7813 445.177 29.568C444.889 29.3547 444.66 29.0773 444.489 28.736C444.329 28.3947 444.249 27.9733 444.249 27.472C444.249 26.992 444.34 26.5867 444.521 26.256C444.713 25.9253 444.969 25.6587 445.289 25.456C445.609 25.2427 445.977 25.0933 446.393 25.008C446.82 24.912 447.263 24.864 447.721 24.864C447.935 24.864 448.159 24.88 448.393 24.912C448.628 24.9333 448.879 24.976 449.145 25.04V24.72C449.145 24.496 449.119 24.2827 449.065 24.08C449.012 23.8773 448.916 23.7013 448.777 23.552C448.649 23.392 448.473 23.2693 448.249 23.184C448.036 23.0987 447.764 23.056 447.433 23.056C446.985 23.056 446.575 23.088 446.201 23.152C445.828 23.216 445.524 23.2907 445.289 23.376L445.049 21.808C445.295 21.7227 445.652 21.6373 446.121 21.552C446.591 21.4667 447.092 21.424 447.625 21.424ZM458.156 23.376C457.996 23.3227 457.772 23.2693 457.484 23.216C457.207 23.152 456.882 23.12 456.508 23.12C456.295 23.12 456.066 23.1413 455.82 23.184C455.586 23.2267 455.42 23.264 455.324 23.296V30H453.388V22.032C453.762 21.8933 454.226 21.7653 454.78 21.648C455.346 21.52 455.97 21.456 456.652 21.456C456.78 21.456 456.93 21.4667 457.1 21.488C457.271 21.4987 457.442 21.52 457.612 21.552C457.783 21.5733 457.948 21.6053 458.108 21.648C458.268 21.68 458.396 21.712 458.492 21.744L458.156 23.376ZM466.955 21.632C466.091 24.8107 465.088 27.6907 463.947 30.272C463.733 30.752 463.515 31.1627 463.291 31.504C463.067 31.8453 462.816 32.128 462.539 32.352C462.261 32.576 461.952 32.736 461.611 32.832C461.269 32.9387 460.875 32.992 460.427 32.992C460.128 32.992 459.829 32.96 459.531 32.896C459.243 32.832 459.024 32.7627 458.875 32.688L459.227 31.136C459.611 31.2853 459.989 31.36 460.363 31.36C460.864 31.36 461.253 31.2373 461.531 30.992C461.819 30.7573 462.069 30.3893 462.283 29.888C461.675 28.7147 461.088 27.4347 460.523 26.048C459.968 24.6613 459.472 23.1893 459.035 21.632H461.099C461.205 22.08 461.333 22.5653 461.483 23.088C461.643 23.6107 461.813 24.144 461.995 24.688C462.176 25.2213 462.368 25.7547 462.571 26.288C462.773 26.8213 462.976 27.3173 463.179 27.776C463.52 26.8267 463.84 25.8187 464.139 24.752C464.437 23.6747 464.709 22.6347 464.955 21.632H466.955Z" fill="#1F1F1F"/>
<path d="M366 6H492V4H366V6ZM499 13V35H501V13H499ZM492 42H366V44H492V42ZM359 35V13H357V35H359ZM366 42C362.134 42 359 38.866 359 35H357C357 39.9706 361.029 44 366 44V42ZM499 35C499 38.866 495.866 42 492 42V44C496.971 44 501 39.9706 501 35H499ZM492 6C495.866 6 499 9.13401 499 13H501C501 8.02944 496.971 4 492 4V6ZM366 4C361.029 4 357 8.02944 357 13H359C359 9.13401 362.134 6 366 6V4Z" fill="#1F1F1F"/>
</g>
<defs>
<filter id="filter0_d" x="0" y="0" width="162" height="58" filterUnits="userSpaceOnUse" color-interpolation-filters="sRGB">
<feFlood flood-opacity="0" result="BackgroundImageFix"/>
<feColorMatrix in="SourceAlpha" type="matrix" values="0 0 0 0 0 0 0 0 0 0 0 0 0 0 0 0 0 0 127 0" result="hardAlpha"/>
<feOffset dy="5"/>
<feGaussianBlur stdDeviation="5"/>
<feColorMatrix type="matrix" values="0 0 0 0 0 0 0 0 0 0 0 0 0 0 0 0 0 0 0.1 0"/>
<feBlend mode="normal" in2="BackgroundImageFix" result="effect1_dropShadow"/>
<feBlend mode="normal" in="SourceGraphic" in2="effect1_dropShadow" result="shape"/>
</filter>
<filter id="filter1_d" x="174" y="0" width="162" height="58" filterUnits="userSpaceOnUse" color-interpolation-filters="sRGB">
<feFlood flood-opacity="0" result="BackgroundImageFix"/>
<feColorMatrix in="SourceAlpha" type="matrix" values="0 0 0 0 0 0 0 0 0 0 0 0 0 0 0 0 0 0 127 0" result="hardAlpha"/>
<feOffset dy="5"/>
<feGaussianBlur stdDeviation="5"/>
<feColorMatrix type="matrix" values="0 0 0 0 0 0 0 0 0 0 0 0 0 0 0 0 0 0 0.1 0"/>
<feBlend mode="normal" in2="BackgroundImageFix" result="effect1_dropShadow"/>
<feBlend mode="normal" in="SourceGraphic" in2="effect1_dropShadow" result="shape"/>
</filter>
<filter id="filter2_d" x="522" y="0" width="162" height="58" filterUnits="userSpaceOnUse" color-interpolation-filters="sRGB">
<feFlood flood-opacity="0" result="BackgroundImageFix"/>
<feColorMatrix in="SourceAlpha" type="matrix" values="0 0 0 0 0 0 0 0 0 0 0 0 0 0 0 0 0 0 127 0" result="hardAlpha"/>
<feOffset dy="5"/>
<feGaussianBlur stdDeviation="5"/>
<feColorMatrix type="matrix" values="0 0 0 0 0 0 0 0 0 0 0 0 0 0 0 0 0 0 0.1 0"/>
<feBlend mode="normal" in2="BackgroundImageFix" result="effect1_dropShadow"/>
<feBlend mode="normal" in="SourceGraphic" in2="effect1_dropShadow" result="shape"/>
</filter>
<filter id="filter3_d" x="696" y="0" width="162" height="58" filterUnits="userSpaceOnUse" color-interpolation-filters="sRGB">
<feFlood flood-opacity="0" result="BackgroundImageFix"/>
<feColorMatrix in="SourceAlpha" type="matrix" values="0 0 0 0 0 0 0 0 0 0 0 0 0 0 0 0 0 0 127 0" result="hardAlpha"/>
<feOffset dy="5"/>
<feGaussianBlur stdDeviation="5"/>
<feColorMatrix type="matrix" values="0 0 0 0 0 0 0 0 0 0 0 0 0 0 0 0 0 0 0.1 0"/>
<feBlend mode="normal" in2="BackgroundImageFix" result="effect1_dropShadow"/>
<feBlend mode="normal" in="SourceGraphic" in2="effect1_dropShadow" result="shape"/>
</filter>
<filter id="filter4_d" x="348" y="0" width="162" height="58" filterUnits="userSpaceOnUse" color-interpolation-filters="sRGB">
<feFlood flood-opacity="0" result="BackgroundImageFix"/>
<feColorMatrix in="SourceAlpha" type="matrix" values="0 0 0 0 0 0 0 0 0 0 0 0 0 0 0 0 0 0 127 0" result="hardAlpha"/>
<feOffset dy="5"/>
<feGaussianBlur stdDeviation="5"/>
<feColorMatrix type="matrix" values="0 0 0 0 0 0 0 0 0 0 0 0 0 0 0 0 0 0 0.1 0"/>
<feBlend mode="normal" in2="BackgroundImageFix" result="effect1_dropShadow"/>
<feBlend mode="normal" in="SourceGraphic" in2="effect1_dropShadow" result="shape"/>
</filter>
</defs>
</svg>
