<svg width="798" height="160" viewBox="0 0 798 160" fill="none" xmlns="http://www.w3.org/2000/svg">
<g filter="url(#filter0_d)">
<path d="M20 54C20 49.5817 23.5817 46 28 46H127C131.418 46 135 49.5817 135 54V118C135 122.418 131.418 126 127 126H28C23.5817 126 20 122.418 20 118V54Z" fill="#1F1F1F"/>
</g>
<path d="M24.7706 148.84H27.3626L27.9226 145.912H29.2666L28.7066 148.84H30.1146V150.024H28.4666L27.9226 152.888H30.1146V154.072H27.6986L27.1386 157H25.7946L26.3546 154.072H23.7626L23.2026 157H21.8586L22.4186 154.072H21.0106V152.888H22.6426L23.1866 150.024H21.0106V148.84H23.4266L23.9866 145.912H25.3306L24.7706 148.84ZM23.9866 152.888H26.5786L27.1386 150.024H24.5466L23.9866 152.888ZM32.3864 148.2C32.9944 147.965 33.5864 147.667 34.1624 147.304C34.7384 146.931 35.2664 146.467 35.7464 145.912H36.8024V157H35.3144V147.976C35.1864 148.093 35.0264 148.216 34.8344 148.344C34.6531 148.472 34.4504 148.595 34.2264 148.712C34.0131 148.829 33.7838 148.941 33.5384 149.048C33.3038 149.155 33.0744 149.245 32.8504 149.32L32.3864 148.2ZM41.3057 157V145.912H47.9937V147.24H42.8577V150.584H47.4177V151.896H42.8577V157H41.3057ZM50.0114 148.2C50.6194 147.965 51.2114 147.667 51.7874 147.304C52.3634 146.931 52.8914 146.467 53.3714 145.912H54.4274V157H52.9394V147.976C52.8114 148.093 52.6514 148.216 52.4594 148.344C52.2781 148.472 52.0754 148.595 51.8514 148.712C51.6381 148.829 51.4088 148.941 51.1634 149.048C50.9288 149.155 50.6994 149.245 50.4754 149.32L50.0114 148.2ZM58.9307 157V145.912H65.6187V147.24H60.4827V150.584H65.0427V151.896H60.4827V157H58.9307ZM67.6364 148.2C68.2444 147.965 68.8364 147.667 69.4124 147.304C69.9884 146.931 70.5164 146.467 70.9964 145.912H72.0524V157H70.5644V147.976C70.4364 148.093 70.2764 148.216 70.0844 148.344C69.9031 148.472 69.7004 148.595 69.4764 148.712C69.2631 148.829 69.0338 148.941 68.7884 149.048C68.5538 149.155 68.3244 149.245 68.1004 149.32L67.6364 148.2ZM76.5557 157V145.912H83.2437V147.24H78.1077V150.584H82.6677V151.896H78.1077V157H76.5557Z" fill="#8D9399"/>
<g filter="url(#filter1_d)">
<path d="M167 54C167 49.5817 170.582 46 175 46H274C278.418 46 282 49.5817 282 54V118C282 122.418 278.418 126 274 126H175C170.582 126 167 122.418 167 118V54Z" fill="#00BFBF"/>
</g>
<path d="M171.802 148.84H174.394L174.954 145.912H176.298L175.738 148.84H177.146V150.024H175.498L174.954 152.888H177.146V154.072H174.73L174.17 157H172.826L173.386 154.072H170.794L170.234 157H168.89L169.45 154.072H168.042V152.888H169.674L170.218 150.024H168.042V148.84H170.458L171.018 145.912H172.362L171.802 148.84ZM171.018 152.888H173.61L174.17 150.024H171.578L171.018 152.888ZM178.73 151.448C178.73 149.592 179.055 148.163 179.706 147.16C180.367 146.157 181.279 145.656 182.442 145.656C183.604 145.656 184.511 146.157 185.162 147.16C185.823 148.163 186.154 149.592 186.154 151.448C186.154 153.304 185.823 154.733 185.162 155.736C184.511 156.739 183.604 157.24 182.442 157.24C181.279 157.24 180.367 156.739 179.706 155.736C179.055 154.733 178.73 153.304 178.73 151.448ZM184.586 151.448C184.586 150.84 184.548 150.264 184.474 149.72C184.41 149.176 184.292 148.701 184.122 148.296C183.962 147.891 183.743 147.571 183.466 147.336C183.188 147.091 182.847 146.968 182.442 146.968C182.036 146.968 181.695 147.091 181.418 147.336C181.14 147.571 180.916 147.891 180.746 148.296C180.586 148.701 180.468 149.176 180.394 149.72C180.33 150.264 180.298 150.84 180.298 151.448C180.298 152.056 180.33 152.632 180.394 153.176C180.468 153.72 180.586 154.195 180.746 154.6C180.916 155.005 181.14 155.331 181.418 155.576C181.695 155.811 182.036 155.928 182.442 155.928C182.847 155.928 183.188 155.811 183.466 155.576C183.743 155.331 183.962 155.005 184.122 154.6C184.292 154.195 184.41 153.72 184.474 153.176C184.548 152.632 184.586 152.056 184.586 151.448ZM187.761 151.448C187.761 149.592 188.086 148.163 188.737 147.16C189.398 146.157 190.31 145.656 191.473 145.656C192.636 145.656 193.542 146.157 194.193 147.16C194.854 148.163 195.185 149.592 195.185 151.448C195.185 153.304 194.854 154.733 194.193 155.736C193.542 156.739 192.636 157.24 191.473 157.24C190.31 157.24 189.398 156.739 188.737 155.736C188.086 154.733 187.761 153.304 187.761 151.448ZM193.617 151.448C193.617 150.84 193.58 150.264 193.505 149.72C193.441 149.176 193.324 148.701 193.153 148.296C192.993 147.891 192.774 147.571 192.497 147.336C192.22 147.091 191.878 146.968 191.473 146.968C191.068 146.968 190.726 147.091 190.449 147.336C190.172 147.571 189.948 147.891 189.777 148.296C189.617 148.701 189.5 149.176 189.425 149.72C189.361 150.264 189.329 150.84 189.329 151.448C189.329 152.056 189.361 152.632 189.425 153.176C189.5 153.72 189.617 154.195 189.777 154.6C189.948 155.005 190.172 155.331 190.449 155.576C190.726 155.811 191.068 155.928 191.473 155.928C191.878 155.928 192.22 155.811 192.497 155.576C192.774 155.331 192.993 155.005 193.153 154.6C193.324 154.195 193.441 153.72 193.505 153.176C193.58 152.632 193.617 152.056 193.617 151.448ZM200.36 157.096C200.136 157.096 199.891 157.091 199.624 157.08C199.368 157.069 199.107 157.053 198.84 157.032C198.584 157.011 198.328 156.984 198.072 156.952C197.816 156.92 197.582 156.877 197.368 156.824V146.072C197.582 146.019 197.816 145.976 198.072 145.944C198.328 145.912 198.584 145.885 198.84 145.864C199.107 145.843 199.368 145.827 199.624 145.816C199.88 145.805 200.12 145.8 200.344 145.8C200.984 145.8 201.582 145.848 202.136 145.944C202.702 146.04 203.187 146.205 203.592 146.44C204.008 146.664 204.334 146.963 204.568 147.336C204.803 147.709 204.92 148.168 204.92 148.712C204.92 149.32 204.776 149.821 204.488 150.216C204.2 150.6 203.816 150.888 203.336 151.08C203.987 151.272 204.504 151.576 204.888 151.992C205.272 152.408 205.464 152.995 205.464 153.752C205.464 154.861 205.054 155.699 204.232 156.264C203.422 156.819 202.131 157.096 200.36 157.096ZM198.904 151.832V155.736C199.022 155.747 199.16 155.757 199.32 155.768C199.459 155.779 199.619 155.789 199.8 155.8C199.992 155.8 200.211 155.8 200.456 155.8C200.915 155.8 201.347 155.773 201.752 155.72C202.168 155.656 202.531 155.549 202.84 155.4C203.15 155.251 203.395 155.043 203.576 154.776C203.768 154.509 203.864 154.173 203.864 153.768C203.864 153.405 203.795 153.101 203.656 152.856C203.518 152.6 203.315 152.397 203.048 152.248C202.792 152.099 202.483 151.992 202.12 151.928C201.758 151.864 201.352 151.832 200.904 151.832H198.904ZM198.904 150.584H200.536C200.92 150.584 201.283 150.557 201.624 150.504C201.966 150.451 202.259 150.355 202.504 150.216C202.76 150.077 202.958 149.896 203.096 149.672C203.246 149.448 203.32 149.165 203.32 148.824C203.32 148.504 203.246 148.237 203.096 148.024C202.947 147.8 202.739 147.624 202.472 147.496C202.216 147.357 201.912 147.256 201.56 147.192C201.208 147.128 200.835 147.096 200.44 147.096C200.046 147.096 199.736 147.101 199.512 147.112C199.288 147.123 199.086 147.139 198.904 147.16V150.584ZM207.649 157V145.912H214.337V147.24H209.201V150.584H213.761V151.896H209.201V157H207.649ZM219.235 157.096C219.011 157.096 218.766 157.091 218.499 157.08C218.243 157.069 217.982 157.053 217.715 157.032C217.459 157.011 217.203 156.984 216.947 156.952C216.691 156.92 216.457 156.877 216.243 156.824V146.072C216.457 146.019 216.691 145.976 216.947 145.944C217.203 145.912 217.459 145.885 217.715 145.864C217.982 145.843 218.243 145.827 218.499 145.816C218.755 145.805 218.995 145.8 219.219 145.8C219.859 145.8 220.457 145.848 221.011 145.944C221.577 146.04 222.062 146.205 222.467 146.44C222.883 146.664 223.209 146.963 223.443 147.336C223.678 147.709 223.795 148.168 223.795 148.712C223.795 149.32 223.651 149.821 223.363 150.216C223.075 150.6 222.691 150.888 222.211 151.08C222.862 151.272 223.379 151.576 223.763 151.992C224.147 152.408 224.339 152.995 224.339 153.752C224.339 154.861 223.929 155.699 223.107 156.264C222.297 156.819 221.006 157.096 219.235 157.096ZM217.779 151.832V155.736C217.897 155.747 218.035 155.757 218.195 155.768C218.334 155.779 218.494 155.789 218.675 155.8C218.867 155.8 219.086 155.8 219.331 155.8C219.79 155.8 220.222 155.773 220.627 155.72C221.043 155.656 221.406 155.549 221.715 155.4C222.025 155.251 222.27 155.043 222.451 154.776C222.643 154.509 222.739 154.173 222.739 153.768C222.739 153.405 222.67 153.101 222.531 152.856C222.393 152.6 222.19 152.397 221.923 152.248C221.667 152.099 221.358 151.992 220.995 151.928C220.633 151.864 220.227 151.832 219.779 151.832H217.779ZM217.779 150.584H219.411C219.795 150.584 220.158 150.557 220.499 150.504C220.841 150.451 221.134 150.355 221.379 150.216C221.635 150.077 221.833 149.896 221.971 149.672C222.121 149.448 222.195 149.165 222.195 148.824C222.195 148.504 222.121 148.237 221.971 148.024C221.822 147.8 221.614 147.624 221.347 147.496C221.091 147.357 220.787 147.256 220.435 147.192C220.083 147.128 219.71 147.096 219.315 147.096C218.921 147.096 218.611 147.101 218.387 147.112C218.163 147.123 217.961 147.139 217.779 147.16V150.584ZM226.524 157V145.912H233.212V147.24H228.076V150.584H232.636V151.896H228.076V157H226.524Z" fill="#8D9399"/>
<path d="M25.4 8C27.3467 8 28.84 8.37333 29.88 9.12C30.9333 9.85333 31.46 10.9533 31.46 12.42C31.46 13.22 31.3133 13.9067 31.02 14.48C30.74 15.04 30.3267 15.5 29.78 15.86C29.2467 16.2067 28.5933 16.46 27.82 16.62C27.0467 16.78 26.1733 16.86 25.2 16.86H23.66V22H21.72V8.34C22.2667 8.20667 22.8733 8.12 23.54 8.08C24.22 8.02667 24.84 8 25.4 8ZM25.56 9.7C24.7333 9.7 24.1 9.72 23.66 9.76V15.2H25.12C25.7867 15.2 26.3867 15.16 26.92 15.08C27.4533 14.9867 27.9 14.84 28.26 14.64C28.6333 14.4267 28.92 14.14 29.12 13.78C29.32 13.42 29.42 12.96 29.42 12.4C29.42 11.8667 29.3133 11.4267 29.1 11.08C28.9 10.7333 28.62 10.46 28.26 10.26C27.9133 10.0467 27.5067 9.9 27.04 9.82C26.5733 9.74 26.08 9.7 25.56 9.7ZM37.608 11.38C37.768 11.38 37.948 11.3933 38.148 11.42C38.3613 11.4333 38.568 11.46 38.768 11.5C38.968 11.5267 39.148 11.56 39.308 11.6C39.4813 11.6267 39.608 11.6533 39.688 11.68L39.368 13.3C39.2213 13.2467 38.9746 13.1867 38.628 13.12C38.2946 13.04 37.8613 13 37.328 13C36.9813 13 36.6346 13.04 36.288 13.12C35.9546 13.1867 35.7346 13.2333 35.628 13.26V22H33.768V12.04C34.208 11.88 34.7546 11.7333 35.408 11.6C36.0613 11.4533 36.7946 11.38 37.608 11.38ZM43.3428 22H41.4828V11.6H43.3428V22ZM42.4028 9.72C42.0695 9.72 41.7828 9.61333 41.5428 9.4C41.3161 9.17333 41.2028 8.87333 41.2028 8.5C41.2028 8.12667 41.3161 7.83333 41.5428 7.62C41.7828 7.39333 42.0695 7.28 42.4028 7.28C42.7361 7.28 43.0161 7.39333 43.2428 7.62C43.4828 7.83333 43.6028 8.12667 43.6028 8.5C43.6028 8.87333 43.4828 9.17333 43.2428 9.4C43.0161 9.61333 42.7361 9.72 42.4028 9.72ZM46.5414 11.9C46.9681 11.7933 47.5281 11.68 48.2214 11.56C48.9281 11.44 49.7414 11.38 50.6614 11.38C51.3281 11.38 51.8881 11.4733 52.3414 11.66C52.7947 11.8333 53.1747 12.0933 53.4814 12.44C53.5747 12.3733 53.7214 12.28 53.9214 12.16C54.1214 12.04 54.3681 11.9267 54.6614 11.82C54.9547 11.7 55.2814 11.6 55.6414 11.52C56.0014 11.4267 56.3881 11.38 56.8014 11.38C57.6014 11.38 58.2547 11.5 58.7614 11.74C59.2681 11.9667 59.6614 12.2933 59.9414 12.72C60.2347 13.1467 60.4281 13.6533 60.5214 14.24C60.6281 14.8267 60.6814 15.4667 60.6814 16.16V22H58.8214V16.56C58.8214 15.9467 58.7881 15.42 58.7214 14.98C58.6681 14.54 58.5547 14.1733 58.3814 13.88C58.2214 13.5867 57.9947 13.3733 57.7014 13.24C57.4214 13.0933 57.0547 13.02 56.6014 13.02C55.9747 13.02 55.4547 13.1067 55.0414 13.28C54.6414 13.44 54.3681 13.5867 54.2214 13.72C54.3281 14.0667 54.4081 14.4467 54.4614 14.86C54.5147 15.2733 54.5414 15.7067 54.5414 16.16V22H52.6814V16.56C52.6814 15.9467 52.6481 15.42 52.5814 14.98C52.5147 14.54 52.3947 14.1733 52.2214 13.88C52.0614 13.5867 51.8347 13.3733 51.5414 13.24C51.2614 13.0933 50.9014 13.02 50.4614 13.02C50.2747 13.02 50.0747 13.0267 49.8614 13.04C49.6481 13.0533 49.4414 13.0733 49.2414 13.1C49.0547 13.1133 48.8814 13.1333 48.7214 13.16C48.5614 13.1867 48.4547 13.2067 48.4014 13.22V22H46.5414V11.9ZM67.288 20.66C67.728 20.66 68.1146 20.6533 68.448 20.64C68.7946 20.6133 69.0813 20.5733 69.308 20.52V17.42C69.1746 17.3533 68.9546 17.3 68.648 17.26C68.3546 17.2067 67.9946 17.18 67.568 17.18C67.288 17.18 66.988 17.2 66.668 17.24C66.3613 17.28 66.0746 17.3667 65.808 17.5C65.5546 17.62 65.3413 17.7933 65.168 18.02C64.9946 18.2333 64.908 18.52 64.908 18.88C64.908 19.5467 65.1213 20.0133 65.548 20.28C65.9746 20.5333 66.5546 20.66 67.288 20.66ZM67.128 11.34C67.8746 11.34 68.5013 11.44 69.008 11.64C69.528 11.8267 69.9413 12.1 70.248 12.46C70.568 12.8067 70.7946 13.2267 70.928 13.72C71.0613 14.2 71.128 14.7333 71.128 15.32V21.82C70.968 21.8467 70.7413 21.8867 70.448 21.94C70.168 21.98 69.848 22.02 69.488 22.06C69.128 22.1 68.7346 22.1333 68.308 22.16C67.8946 22.2 67.4813 22.22 67.068 22.22C66.4813 22.22 65.9413 22.16 65.448 22.04C64.9546 21.92 64.528 21.7333 64.168 21.48C63.808 21.2133 63.528 20.8667 63.328 20.44C63.128 20.0133 63.028 19.5 63.028 18.9C63.028 18.3267 63.1413 17.8333 63.368 17.42C63.608 17.0067 63.928 16.6733 64.328 16.42C64.728 16.1667 65.1946 15.98 65.728 15.86C66.2613 15.74 66.8213 15.68 67.408 15.68C67.5946 15.68 67.788 15.6933 67.988 15.72C68.188 15.7333 68.3746 15.76 68.548 15.8C68.7346 15.8267 68.8946 15.8533 69.028 15.88C69.1613 15.9067 69.2546 15.9267 69.308 15.94V15.42C69.308 15.1133 69.2746 14.8133 69.208 14.52C69.1413 14.2133 69.0213 13.9467 68.848 13.72C68.6746 13.48 68.4346 13.2933 68.128 13.16C67.8346 13.0133 67.448 12.94 66.968 12.94C66.3546 12.94 65.8146 12.9867 65.348 13.08C64.8946 13.16 64.5546 13.2467 64.328 13.34L64.108 11.8C64.348 11.6933 64.748 11.5933 65.308 11.5C65.868 11.3933 66.4746 11.34 67.128 11.34ZM78.0572 11.38C78.2172 11.38 78.3972 11.3933 78.5972 11.42C78.8105 11.4333 79.0172 11.46 79.2172 11.5C79.4172 11.5267 79.5972 11.56 79.7572 11.6C79.9305 11.6267 80.0572 11.6533 80.1372 11.68L79.8172 13.3C79.6705 13.2467 79.4239 13.1867 79.0772 13.12C78.7439 13.04 78.3105 13 77.7772 13C77.4305 13 77.0839 13.04 76.7372 13.12C76.4039 13.1867 76.1839 13.2333 76.0772 13.26V22H74.2172V12.04C74.6572 11.88 75.2039 11.7333 75.8572 11.6C76.5105 11.4533 77.2439 11.38 78.0572 11.38ZM81.1417 23.94C81.2884 24.0067 81.4751 24.0667 81.7017 24.12C81.9417 24.1867 82.1751 24.22 82.4017 24.22C83.1351 24.22 83.7084 24.0533 84.1217 23.72C84.5351 23.4 84.9084 22.8733 85.2417 22.14C84.4017 20.54 83.6151 18.8467 82.8817 17.06C82.1617 15.26 81.5617 13.44 81.0817 11.6H83.0817C83.2284 12.2 83.4017 12.8467 83.6017 13.54C83.8151 14.2333 84.0484 14.9467 84.3017 15.68C84.5551 16.4133 84.8284 17.1467 85.1217 17.88C85.4151 18.6133 85.7217 19.32 86.0417 20C86.5484 18.6 86.9884 17.2133 87.3617 15.84C87.7351 14.4667 88.0884 13.0533 88.4217 11.6H90.3417C89.8617 13.56 89.3284 15.4467 88.7417 17.26C88.1551 19.06 87.5217 20.7467 86.8417 22.32C86.5751 22.92 86.2951 23.4333 86.0017 23.86C85.7217 24.3 85.4084 24.66 85.0617 24.94C84.7151 25.22 84.3217 25.4267 83.8817 25.56C83.4551 25.6933 82.9684 25.76 82.4217 25.76C82.2751 25.76 82.1217 25.7467 81.9617 25.72C81.8017 25.7067 81.6417 25.68 81.4817 25.64C81.3351 25.6133 81.1951 25.58 81.0617 25.54C80.9417 25.5 80.8551 25.4667 80.8017 25.44L81.1417 23.94Z" fill="#403F3D"/>
<g filter="url(#filter2_d)">
<path d="M369 54C369 49.5817 372.582 46 377 46H476C480.418 46 484 49.5817 484 54V118C484 122.418 480.418 126 476 126H377C372.582 126 369 122.418 369 118V54Z" fill="#999999"/>
</g>
<g filter="url(#filter3_d)">
<path d="M516 54C516 49.5817 519.582 46 524 46H623C627.418 46 631 49.5817 631 54V118C631 122.418 627.418 126 623 126H524C519.582 126 516 122.418 516 118V54Z" fill="#D9D9D9"/>
</g>
<g filter="url(#filter4_d)">
<path d="M663 54C663 49.5817 666.582 46 671 46H770C774.418 46 778 49.5817 778 54V118C778 122.418 774.418 126 770 126H671C666.582 126 663 122.418 663 118V54Z" fill="#F2F2F2"/>
</g>
<path d="M373.614 148.84H376.206L376.766 145.912H378.11L377.55 148.84H378.958V150.024H377.31L376.766 152.888H378.958V154.072H376.542L375.982 157H374.638L375.198 154.072H372.606L372.046 157H370.702L371.262 154.072H369.854V152.888H371.486L372.03 150.024H369.854V148.84H372.27L372.83 145.912H374.174L373.614 148.84ZM372.83 152.888H375.422L375.982 150.024H373.39L372.83 152.888ZM387.758 150.344C387.758 152.541 387.209 154.205 386.11 155.336C385.022 156.456 383.401 157.021 381.246 157.032L381.198 155.784C381.87 155.784 382.473 155.72 383.006 155.592C383.55 155.464 384.025 155.261 384.43 154.984C384.836 154.696 385.172 154.328 385.438 153.88C385.716 153.432 385.918 152.883 386.046 152.232C385.769 152.36 385.454 152.467 385.102 152.552C384.75 152.627 384.388 152.664 384.014 152.664C383.385 152.664 382.852 152.573 382.414 152.392C381.977 152.2 381.62 151.949 381.342 151.64C381.065 151.32 380.862 150.957 380.734 150.552C380.617 150.136 380.558 149.704 380.558 149.256C380.558 148.861 380.628 148.451 380.766 148.024C380.905 147.597 381.113 147.208 381.39 146.856C381.678 146.504 382.041 146.216 382.478 145.992C382.916 145.768 383.433 145.656 384.03 145.656C384.638 145.656 385.172 145.763 385.63 145.976C386.1 146.189 386.489 146.499 386.798 146.904C387.118 147.309 387.358 147.805 387.518 148.392C387.678 148.968 387.758 149.619 387.758 150.344ZM384.174 151.448C384.548 151.448 384.9 151.416 385.23 151.352C385.561 151.277 385.881 151.171 386.19 151.032C386.201 150.915 386.206 150.803 386.206 150.696C386.206 150.579 386.206 150.461 386.206 150.344C386.206 149.885 386.174 149.448 386.11 149.032C386.046 148.605 385.929 148.237 385.758 147.928C385.598 147.608 385.38 147.357 385.102 147.176C384.825 146.984 384.473 146.888 384.046 146.888C383.694 146.888 383.396 146.963 383.15 147.112C382.905 147.261 382.702 147.453 382.542 147.688C382.382 147.912 382.265 148.163 382.19 148.44C382.126 148.707 382.094 148.968 382.094 149.224C382.094 149.949 382.265 150.504 382.606 150.888C382.958 151.261 383.481 151.448 384.174 151.448ZM396.789 150.344C396.789 152.541 396.24 154.205 395.141 155.336C394.053 156.456 392.432 157.021 390.277 157.032L390.229 155.784C390.901 155.784 391.504 155.72 392.037 155.592C392.581 155.464 393.056 155.261 393.461 154.984C393.867 154.696 394.203 154.328 394.469 153.88C394.747 153.432 394.949 152.883 395.077 152.232C394.8 152.36 394.485 152.467 394.133 152.552C393.781 152.627 393.419 152.664 393.045 152.664C392.416 152.664 391.883 152.573 391.445 152.392C391.008 152.2 390.651 151.949 390.373 151.64C390.096 151.32 389.893 150.957 389.765 150.552C389.648 150.136 389.589 149.704 389.589 149.256C389.589 148.861 389.659 148.451 389.797 148.024C389.936 147.597 390.144 147.208 390.421 146.856C390.709 146.504 391.072 146.216 391.509 145.992C391.947 145.768 392.464 145.656 393.061 145.656C393.669 145.656 394.203 145.763 394.661 145.976C395.131 146.189 395.52 146.499 395.829 146.904C396.149 147.309 396.389 147.805 396.549 148.392C396.709 148.968 396.789 149.619 396.789 150.344ZM393.205 151.448C393.579 151.448 393.931 151.416 394.261 151.352C394.592 151.277 394.912 151.171 395.221 151.032C395.232 150.915 395.237 150.803 395.237 150.696C395.237 150.579 395.237 150.461 395.237 150.344C395.237 149.885 395.205 149.448 395.141 149.032C395.077 148.605 394.96 148.237 394.789 147.928C394.629 147.608 394.411 147.357 394.133 147.176C393.856 146.984 393.504 146.888 393.077 146.888C392.725 146.888 392.427 146.963 392.181 147.112C391.936 147.261 391.733 147.453 391.573 147.688C391.413 147.912 391.296 148.163 391.221 148.44C391.157 148.707 391.125 148.968 391.125 149.224C391.125 149.949 391.296 150.504 391.637 150.888C391.989 151.261 392.512 151.448 393.205 151.448ZM405.821 150.344C405.821 152.541 405.271 154.205 404.173 155.336C403.085 156.456 401.463 157.021 399.309 157.032L399.261 155.784C399.933 155.784 400.535 155.72 401.069 155.592C401.613 155.464 402.087 155.261 402.493 154.984C402.898 154.696 403.234 154.328 403.501 153.88C403.778 153.432 403.981 152.883 404.109 152.232C403.831 152.36 403.517 152.467 403.165 152.552C402.813 152.627 402.45 152.664 402.077 152.664C401.447 152.664 400.914 152.573 400.477 152.392C400.039 152.2 399.682 151.949 399.405 151.64C399.127 151.32 398.925 150.957 398.797 150.552C398.679 150.136 398.621 149.704 398.621 149.256C398.621 148.861 398.69 148.451 398.829 148.024C398.967 147.597 399.175 147.208 399.453 146.856C399.741 146.504 400.103 146.216 400.541 145.992C400.978 145.768 401.495 145.656 402.093 145.656C402.701 145.656 403.234 145.763 403.693 145.976C404.162 146.189 404.551 146.499 404.861 146.904C405.181 147.309 405.421 147.805 405.581 148.392C405.741 148.968 405.821 149.619 405.821 150.344ZM402.237 151.448C402.61 151.448 402.962 151.416 403.293 151.352C403.623 151.277 403.943 151.171 404.253 151.032C404.263 150.915 404.269 150.803 404.269 150.696C404.269 150.579 404.269 150.461 404.269 150.344C404.269 149.885 404.237 149.448 404.173 149.032C404.109 148.605 403.991 148.237 403.821 147.928C403.661 147.608 403.442 147.357 403.165 147.176C402.887 146.984 402.535 146.888 402.109 146.888C401.757 146.888 401.458 146.963 401.213 147.112C400.967 147.261 400.765 147.453 400.605 147.688C400.445 147.912 400.327 148.163 400.253 148.44C400.189 148.707 400.157 148.968 400.157 149.224C400.157 149.949 400.327 150.504 400.669 150.888C401.021 151.261 401.543 151.448 402.237 151.448ZM414.852 150.344C414.852 152.541 414.303 154.205 413.204 155.336C412.116 156.456 410.495 157.021 408.34 157.032L408.292 155.784C408.964 155.784 409.567 155.72 410.1 155.592C410.644 155.464 411.119 155.261 411.524 154.984C411.929 154.696 412.265 154.328 412.532 153.88C412.809 153.432 413.012 152.883 413.14 152.232C412.863 152.36 412.548 152.467 412.196 152.552C411.844 152.627 411.481 152.664 411.108 152.664C410.479 152.664 409.945 152.573 409.508 152.392C409.071 152.2 408.713 151.949 408.436 151.64C408.159 151.32 407.956 150.957 407.828 150.552C407.711 150.136 407.652 149.704 407.652 149.256C407.652 148.861 407.721 148.451 407.86 148.024C407.999 147.597 408.207 147.208 408.484 146.856C408.772 146.504 409.135 146.216 409.572 145.992C410.009 145.768 410.527 145.656 411.124 145.656C411.732 145.656 412.265 145.763 412.724 145.976C413.193 146.189 413.583 146.499 413.892 146.904C414.212 147.309 414.452 147.805 414.612 148.392C414.772 148.968 414.852 149.619 414.852 150.344ZM411.268 151.448C411.641 151.448 411.993 151.416 412.324 151.352C412.655 151.277 412.975 151.171 413.284 151.032C413.295 150.915 413.3 150.803 413.3 150.696C413.3 150.579 413.3 150.461 413.3 150.344C413.3 149.885 413.268 149.448 413.204 149.032C413.14 148.605 413.023 148.237 412.852 147.928C412.692 147.608 412.473 147.357 412.196 147.176C411.919 146.984 411.567 146.888 411.14 146.888C410.788 146.888 410.489 146.963 410.244 147.112C409.999 147.261 409.796 147.453 409.636 147.688C409.476 147.912 409.359 148.163 409.284 148.44C409.22 148.707 409.188 148.968 409.188 149.224C409.188 149.949 409.359 150.504 409.7 150.888C410.052 151.261 410.575 151.448 411.268 151.448ZM423.883 150.344C423.883 152.541 423.334 154.205 422.235 155.336C421.147 156.456 419.526 157.021 417.371 157.032L417.323 155.784C417.995 155.784 418.598 155.72 419.131 155.592C419.675 155.464 420.15 155.261 420.555 154.984C420.961 154.696 421.297 154.328 421.563 153.88C421.841 153.432 422.043 152.883 422.171 152.232C421.894 152.36 421.579 152.467 421.227 152.552C420.875 152.627 420.513 152.664 420.139 152.664C419.51 152.664 418.977 152.573 418.539 152.392C418.102 152.2 417.745 151.949 417.467 151.64C417.19 151.32 416.987 150.957 416.859 150.552C416.742 150.136 416.683 149.704 416.683 149.256C416.683 148.861 416.753 148.451 416.891 148.024C417.03 147.597 417.238 147.208 417.515 146.856C417.803 146.504 418.166 146.216 418.603 145.992C419.041 145.768 419.558 145.656 420.155 145.656C420.763 145.656 421.297 145.763 421.755 145.976C422.225 146.189 422.614 146.499 422.923 146.904C423.243 147.309 423.483 147.805 423.643 148.392C423.803 148.968 423.883 149.619 423.883 150.344ZM420.299 151.448C420.673 151.448 421.025 151.416 421.355 151.352C421.686 151.277 422.006 151.171 422.315 151.032C422.326 150.915 422.331 150.803 422.331 150.696C422.331 150.579 422.331 150.461 422.331 150.344C422.331 149.885 422.299 149.448 422.235 149.032C422.171 148.605 422.054 148.237 421.883 147.928C421.723 147.608 421.505 147.357 421.227 147.176C420.95 146.984 420.598 146.888 420.171 146.888C419.819 146.888 419.521 146.963 419.275 147.112C419.03 147.261 418.827 147.453 418.667 147.688C418.507 147.912 418.39 148.163 418.315 148.44C418.251 148.707 418.219 148.968 418.219 149.224C418.219 149.949 418.39 150.504 418.731 150.888C419.083 151.261 419.606 151.448 420.299 151.448ZM432.914 150.344C432.914 152.541 432.365 154.205 431.266 155.336C430.178 156.456 428.557 157.021 426.402 157.032L426.354 155.784C427.026 155.784 427.629 155.72 428.162 155.592C428.706 155.464 429.181 155.261 429.586 154.984C429.992 154.696 430.328 154.328 430.594 153.88C430.872 153.432 431.074 152.883 431.202 152.232C430.925 152.36 430.61 152.467 430.258 152.552C429.906 152.627 429.544 152.664 429.17 152.664C428.541 152.664 428.008 152.573 427.57 152.392C427.133 152.2 426.776 151.949 426.498 151.64C426.221 151.32 426.018 150.957 425.89 150.552C425.773 150.136 425.714 149.704 425.714 149.256C425.714 148.861 425.784 148.451 425.922 148.024C426.061 147.597 426.269 147.208 426.546 146.856C426.834 146.504 427.197 146.216 427.634 145.992C428.072 145.768 428.589 145.656 429.186 145.656C429.794 145.656 430.328 145.763 430.786 145.976C431.256 146.189 431.645 146.499 431.954 146.904C432.274 147.309 432.514 147.805 432.674 148.392C432.834 148.968 432.914 149.619 432.914 150.344ZM429.33 151.448C429.704 151.448 430.056 151.416 430.386 151.352C430.717 151.277 431.037 151.171 431.346 151.032C431.357 150.915 431.362 150.803 431.362 150.696C431.362 150.579 431.362 150.461 431.362 150.344C431.362 149.885 431.33 149.448 431.266 149.032C431.202 148.605 431.085 148.237 430.914 147.928C430.754 147.608 430.536 147.357 430.258 147.176C429.981 146.984 429.629 146.888 429.202 146.888C428.85 146.888 428.552 146.963 428.306 147.112C428.061 147.261 427.858 147.453 427.698 147.688C427.538 147.912 427.421 148.163 427.346 148.44C427.282 148.707 427.25 148.968 427.25 149.224C427.25 149.949 427.421 150.504 427.762 150.888C428.114 151.261 428.637 151.448 429.33 151.448Z" fill="#8D9399"/>
<path d="M520.552 148.84H523.144L523.704 145.912H525.048L524.488 148.84H525.896V150.024H524.248L523.704 152.888H525.896V154.072H523.48L522.92 157H521.576L522.136 154.072H519.544L518.984 157H517.64L518.2 154.072H516.792V152.888H518.424L518.968 150.024H516.792V148.84H519.208L519.768 145.912H521.112L520.552 148.84ZM519.768 152.888H522.36L522.92 150.024H520.328L519.768 152.888ZM537.16 151.448C537.16 152.408 537.01 153.245 536.712 153.96C536.413 154.664 535.992 155.251 535.448 155.72C534.904 156.179 534.253 156.525 533.496 156.76C532.738 156.984 531.906 157.096 531 157.096C530.552 157.096 530.056 157.075 529.512 157.032C528.978 157 528.493 156.931 528.056 156.824V146.072C528.493 145.965 528.978 145.896 529.512 145.864C530.056 145.821 530.552 145.8 531 145.8C531.906 145.8 532.738 145.917 533.496 146.152C534.253 146.376 534.904 146.723 535.448 147.192C535.992 147.651 536.413 148.237 536.712 148.952C537.01 149.656 537.16 150.488 537.16 151.448ZM531.128 155.736C532.6 155.736 533.698 155.363 534.424 154.616C535.149 153.859 535.512 152.803 535.512 151.448C535.512 150.093 535.149 149.043 534.424 148.296C533.698 147.539 532.6 147.16 531.128 147.16C530.69 147.16 530.349 147.165 530.104 147.176C529.869 147.187 529.704 147.197 529.608 147.208V155.688C529.704 155.699 529.869 155.709 530.104 155.72C530.349 155.731 530.69 155.736 531.128 155.736ZM546.102 150.344C546.102 152.541 545.553 154.205 544.454 155.336C543.366 156.456 541.745 157.021 539.59 157.032L539.542 155.784C540.214 155.784 540.817 155.72 541.35 155.592C541.894 155.464 542.369 155.261 542.774 154.984C543.179 154.696 543.515 154.328 543.782 153.88C544.059 153.432 544.262 152.883 544.39 152.232C544.113 152.36 543.798 152.467 543.446 152.552C543.094 152.627 542.731 152.664 542.358 152.664C541.729 152.664 541.195 152.573 540.758 152.392C540.321 152.2 539.963 151.949 539.686 151.64C539.409 151.32 539.206 150.957 539.078 150.552C538.961 150.136 538.902 149.704 538.902 149.256C538.902 148.861 538.971 148.451 539.11 148.024C539.249 147.597 539.457 147.208 539.734 146.856C540.022 146.504 540.385 146.216 540.822 145.992C541.259 145.768 541.777 145.656 542.374 145.656C542.982 145.656 543.515 145.763 543.974 145.976C544.443 146.189 544.833 146.499 545.142 146.904C545.462 147.309 545.702 147.805 545.862 148.392C546.022 148.968 546.102 149.619 546.102 150.344ZM542.518 151.448C542.891 151.448 543.243 151.416 543.574 151.352C543.905 151.277 544.225 151.171 544.534 151.032C544.545 150.915 544.55 150.803 544.55 150.696C544.55 150.579 544.55 150.461 544.55 150.344C544.55 149.885 544.518 149.448 544.454 149.032C544.39 148.605 544.273 148.237 544.102 147.928C543.942 147.608 543.723 147.357 543.446 147.176C543.169 146.984 542.817 146.888 542.39 146.888C542.038 146.888 541.739 146.963 541.494 147.112C541.249 147.261 541.046 147.453 540.886 147.688C540.726 147.912 540.609 148.163 540.534 148.44C540.47 148.707 540.438 148.968 540.438 149.224C540.438 149.949 540.609 150.504 540.95 150.888C541.302 151.261 541.825 151.448 542.518 151.448ZM557.597 151.448C557.597 152.408 557.448 153.245 557.149 153.96C556.851 154.664 556.429 155.251 555.885 155.72C555.341 156.179 554.691 156.525 553.933 156.76C553.176 156.984 552.344 157.096 551.437 157.096C550.989 157.096 550.493 157.075 549.949 157.032C549.416 157 548.931 156.931 548.493 156.824V146.072C548.931 145.965 549.416 145.896 549.949 145.864C550.493 145.821 550.989 145.8 551.437 145.8C552.344 145.8 553.176 145.917 553.933 146.152C554.691 146.376 555.341 146.723 555.885 147.192C556.429 147.651 556.851 148.237 557.149 148.952C557.448 149.656 557.597 150.488 557.597 151.448ZM551.565 155.736C553.037 155.736 554.136 155.363 554.861 154.616C555.587 153.859 555.949 152.803 555.949 151.448C555.949 150.093 555.587 149.043 554.861 148.296C554.136 147.539 553.037 147.16 551.565 147.16C551.128 147.16 550.787 147.165 550.541 147.176C550.307 147.187 550.141 147.197 550.045 147.208V155.688C550.141 155.699 550.307 155.709 550.541 155.72C550.787 155.731 551.128 155.736 551.565 155.736ZM566.539 150.344C566.539 152.541 565.99 154.205 564.891 155.336C563.803 156.456 562.182 157.021 560.027 157.032L559.979 155.784C560.651 155.784 561.254 155.72 561.787 155.592C562.331 155.464 562.806 155.261 563.211 154.984C563.617 154.696 563.953 154.328 564.219 153.88C564.497 153.432 564.699 152.883 564.827 152.232C564.55 152.36 564.235 152.467 563.883 152.552C563.531 152.627 563.169 152.664 562.795 152.664C562.166 152.664 561.633 152.573 561.195 152.392C560.758 152.2 560.401 151.949 560.123 151.64C559.846 151.32 559.643 150.957 559.515 150.552C559.398 150.136 559.339 149.704 559.339 149.256C559.339 148.861 559.409 148.451 559.547 148.024C559.686 147.597 559.894 147.208 560.171 146.856C560.459 146.504 560.822 146.216 561.259 145.992C561.697 145.768 562.214 145.656 562.811 145.656C563.419 145.656 563.953 145.763 564.411 145.976C564.881 146.189 565.27 146.499 565.579 146.904C565.899 147.309 566.139 147.805 566.299 148.392C566.459 148.968 566.539 149.619 566.539 150.344ZM562.955 151.448C563.329 151.448 563.681 151.416 564.011 151.352C564.342 151.277 564.662 151.171 564.971 151.032C564.982 150.915 564.987 150.803 564.987 150.696C564.987 150.579 564.987 150.461 564.987 150.344C564.987 149.885 564.955 149.448 564.891 149.032C564.827 148.605 564.71 148.237 564.539 147.928C564.379 147.608 564.161 147.357 563.883 147.176C563.606 146.984 563.254 146.888 562.827 146.888C562.475 146.888 562.177 146.963 561.931 147.112C561.686 147.261 561.483 147.453 561.323 147.688C561.163 147.912 561.046 148.163 560.971 148.44C560.907 148.707 560.875 148.968 560.875 149.224C560.875 149.949 561.046 150.504 561.387 150.888C561.739 151.261 562.262 151.448 562.955 151.448ZM578.035 151.448C578.035 152.408 577.885 153.245 577.587 153.96C577.288 154.664 576.867 155.251 576.323 155.72C575.779 156.179 575.128 156.525 574.371 156.76C573.613 156.984 572.781 157.096 571.875 157.096C571.427 157.096 570.931 157.075 570.387 157.032C569.853 157 569.368 156.931 568.931 156.824V146.072C569.368 145.965 569.853 145.896 570.387 145.864C570.931 145.821 571.427 145.8 571.875 145.8C572.781 145.8 573.613 145.917 574.371 146.152C575.128 146.376 575.779 146.723 576.323 147.192C576.867 147.651 577.288 148.237 577.587 148.952C577.885 149.656 578.035 150.488 578.035 151.448ZM572.003 155.736C573.475 155.736 574.573 155.363 575.299 154.616C576.024 153.859 576.387 152.803 576.387 151.448C576.387 150.093 576.024 149.043 575.299 148.296C574.573 147.539 573.475 147.16 572.003 147.16C571.565 147.16 571.224 147.165 570.979 147.176C570.744 147.187 570.579 147.197 570.483 147.208V155.688C570.579 155.699 570.744 155.709 570.979 155.72C571.224 155.731 571.565 155.736 572.003 155.736ZM586.977 150.344C586.977 152.541 586.428 154.205 585.329 155.336C584.241 156.456 582.62 157.021 580.465 157.032L580.417 155.784C581.089 155.784 581.692 155.72 582.225 155.592C582.769 155.464 583.244 155.261 583.649 154.984C584.054 154.696 584.39 154.328 584.657 153.88C584.934 153.432 585.137 152.883 585.265 152.232C584.988 152.36 584.673 152.467 584.321 152.552C583.969 152.627 583.606 152.664 583.233 152.664C582.604 152.664 582.07 152.573 581.633 152.392C581.196 152.2 580.838 151.949 580.561 151.64C580.284 151.32 580.081 150.957 579.953 150.552C579.836 150.136 579.777 149.704 579.777 149.256C579.777 148.861 579.846 148.451 579.985 148.024C580.124 147.597 580.332 147.208 580.609 146.856C580.897 146.504 581.26 146.216 581.697 145.992C582.134 145.768 582.652 145.656 583.249 145.656C583.857 145.656 584.39 145.763 584.849 145.976C585.318 146.189 585.708 146.499 586.017 146.904C586.337 147.309 586.577 147.805 586.737 148.392C586.897 148.968 586.977 149.619 586.977 150.344ZM583.393 151.448C583.766 151.448 584.118 151.416 584.449 151.352C584.78 151.277 585.1 151.171 585.409 151.032C585.42 150.915 585.425 150.803 585.425 150.696C585.425 150.579 585.425 150.461 585.425 150.344C585.425 149.885 585.393 149.448 585.329 149.032C585.265 148.605 585.148 148.237 584.977 147.928C584.817 147.608 584.598 147.357 584.321 147.176C584.044 146.984 583.692 146.888 583.265 146.888C582.913 146.888 582.614 146.963 582.369 147.112C582.124 147.261 581.921 147.453 581.761 147.688C581.601 147.912 581.484 148.163 581.409 148.44C581.345 148.707 581.313 148.968 581.313 149.224C581.313 149.949 581.484 150.504 581.825 150.888C582.177 151.261 582.7 151.448 583.393 151.448Z" fill="#8D9399"/>
<path d="M667.771 148.84H670.363L670.923 145.912H672.267L671.707 148.84H673.115V150.024H671.467L670.923 152.888H673.115V154.072H670.699L670.139 157H668.795L669.355 154.072H666.763L666.203 157H664.859L665.419 154.072H664.011V152.888H665.643L666.187 150.024H664.011V148.84H666.427L666.987 145.912H668.331L667.771 148.84ZM666.987 152.888H669.579L670.139 150.024H667.547L666.987 152.888ZM675.274 157V145.912H681.962V147.24H676.826V150.584H681.386V151.896H676.826V157H675.274ZM689.964 148.744C689.964 149.128 689.884 149.501 689.724 149.864C689.575 150.216 689.372 150.568 689.116 150.92C688.86 151.261 688.572 151.603 688.252 151.944C687.932 152.275 687.612 152.6 687.292 152.92C687.111 153.101 686.898 153.315 686.652 153.56C686.418 153.805 686.194 154.061 685.98 154.328C685.767 154.595 685.586 154.851 685.436 155.096C685.298 155.341 685.228 155.555 685.228 155.736H690.332V157H683.612C683.602 156.936 683.596 156.872 683.596 156.808C683.596 156.744 683.596 156.685 683.596 156.632C683.596 156.131 683.676 155.667 683.836 155.24C684.007 154.803 684.226 154.392 684.492 154.008C684.759 153.624 685.058 153.261 685.388 152.92C685.719 152.579 686.044 152.248 686.364 151.928C686.631 151.672 686.882 151.421 687.116 151.176C687.362 150.92 687.575 150.669 687.756 150.424C687.948 150.168 688.098 149.907 688.204 149.64C688.322 149.373 688.38 149.091 688.38 148.792C688.38 148.472 688.327 148.2 688.22 147.976C688.124 147.752 687.991 147.565 687.82 147.416C687.65 147.267 687.447 147.16 687.212 147.096C686.988 147.021 686.748 146.984 686.492 146.984C686.183 146.984 685.9 147.027 685.644 147.112C685.388 147.197 685.159 147.299 684.956 147.416C684.754 147.523 684.583 147.64 684.444 147.768C684.306 147.885 684.199 147.976 684.124 148.04L683.388 146.984C683.484 146.877 683.628 146.749 683.82 146.6C684.012 146.44 684.242 146.291 684.508 146.152C684.775 146.013 685.074 145.896 685.404 145.8C685.735 145.704 686.092 145.656 686.476 145.656C687.639 145.656 688.508 145.928 689.084 146.472C689.671 147.005 689.964 147.763 689.964 148.744ZM692.899 157V145.912H699.587V147.24H694.451V150.584H699.011V151.896H694.451V157H692.899ZM707.589 148.744C707.589 149.128 707.509 149.501 707.349 149.864C707.2 150.216 706.997 150.568 706.741 150.92C706.485 151.261 706.197 151.603 705.877 151.944C705.557 152.275 705.237 152.6 704.917 152.92C704.736 153.101 704.523 153.315 704.277 153.56C704.043 153.805 703.819 154.061 703.605 154.328C703.392 154.595 703.211 154.851 703.061 155.096C702.923 155.341 702.853 155.555 702.853 155.736H707.957V157H701.237C701.227 156.936 701.221 156.872 701.221 156.808C701.221 156.744 701.221 156.685 701.221 156.632C701.221 156.131 701.301 155.667 701.461 155.24C701.632 154.803 701.851 154.392 702.117 154.008C702.384 153.624 702.683 153.261 703.013 152.92C703.344 152.579 703.669 152.248 703.989 151.928C704.256 151.672 704.507 151.421 704.741 151.176C704.987 150.92 705.2 150.669 705.381 150.424C705.573 150.168 705.723 149.907 705.829 149.64C705.947 149.373 706.005 149.091 706.005 148.792C706.005 148.472 705.952 148.2 705.845 147.976C705.749 147.752 705.616 147.565 705.445 147.416C705.275 147.267 705.072 147.16 704.837 147.096C704.613 147.021 704.373 146.984 704.117 146.984C703.808 146.984 703.525 147.027 703.269 147.112C703.013 147.197 702.784 147.299 702.581 147.416C702.379 147.523 702.208 147.64 702.069 147.768C701.931 147.885 701.824 147.976 701.749 148.04L701.013 146.984C701.109 146.877 701.253 146.749 701.445 146.6C701.637 146.44 701.867 146.291 702.133 146.152C702.4 146.013 702.699 145.896 703.029 145.8C703.36 145.704 703.717 145.656 704.101 145.656C705.264 145.656 706.133 145.928 706.709 146.472C707.296 147.005 707.589 147.763 707.589 148.744ZM710.524 157V145.912H717.212V147.24H712.076V150.584H716.636V151.896H712.076V157H710.524ZM725.214 148.744C725.214 149.128 725.134 149.501 724.974 149.864C724.825 150.216 724.622 150.568 724.366 150.92C724.11 151.261 723.822 151.603 723.502 151.944C723.182 152.275 722.862 152.6 722.542 152.92C722.361 153.101 722.148 153.315 721.902 153.56C721.668 153.805 721.444 154.061 721.23 154.328C721.017 154.595 720.836 154.851 720.686 155.096C720.548 155.341 720.478 155.555 720.478 155.736H725.582V157H718.862C718.852 156.936 718.846 156.872 718.846 156.808C718.846 156.744 718.846 156.685 718.846 156.632C718.846 156.131 718.926 155.667 719.086 155.24C719.257 154.803 719.476 154.392 719.742 154.008C720.009 153.624 720.308 153.261 720.638 152.92C720.969 152.579 721.294 152.248 721.614 151.928C721.881 151.672 722.132 151.421 722.366 151.176C722.612 150.92 722.825 150.669 723.006 150.424C723.198 150.168 723.348 149.907 723.454 149.64C723.572 149.373 723.63 149.091 723.63 148.792C723.63 148.472 723.577 148.2 723.47 147.976C723.374 147.752 723.241 147.565 723.07 147.416C722.9 147.267 722.697 147.16 722.462 147.096C722.238 147.021 721.998 146.984 721.742 146.984C721.433 146.984 721.15 147.027 720.894 147.112C720.638 147.197 720.409 147.299 720.206 147.416C720.004 147.523 719.833 147.64 719.694 147.768C719.556 147.885 719.449 147.976 719.374 148.04L718.638 146.984C718.734 146.877 718.878 146.749 719.07 146.6C719.262 146.44 719.492 146.291 719.758 146.152C720.025 146.013 720.324 145.896 720.654 145.8C720.985 145.704 721.342 145.656 721.726 145.656C722.889 145.656 723.758 145.928 724.334 146.472C724.921 147.005 725.214 147.763 725.214 148.744Z" fill="#8D9399"/>
<path d="M380.22 22C379.927 21.5067 379.587 20.9533 379.2 20.34C378.827 19.7267 378.42 19.0933 377.98 18.44C377.54 17.7733 377.08 17.1 376.6 16.42C376.133 15.74 375.667 15.0867 375.2 14.46C374.733 13.82 374.28 13.22 373.84 12.66C373.4 12.1 372.993 11.6067 372.62 11.18V22H370.72V8.14H372.26C372.887 8.80667 373.553 9.58667 374.26 10.48C374.98 11.36 375.687 12.2733 376.38 13.22C377.087 14.1533 377.747 15.0733 378.36 15.98C378.987 16.8867 379.513 17.6933 379.94 18.4V8.14H381.84V22H380.22ZM384.571 16.82C384.571 15.9 384.704 15.1 384.971 14.42C385.237 13.7267 385.591 13.1533 386.031 12.7C386.471 12.2467 386.977 11.9067 387.551 11.68C388.124 11.4533 388.711 11.34 389.311 11.34C390.711 11.34 391.784 11.78 392.531 12.66C393.277 13.5267 393.651 14.8533 393.651 16.64C393.651 16.72 393.651 16.8267 393.651 16.96C393.651 17.08 393.644 17.1933 393.631 17.3H386.511C386.591 18.38 386.904 19.2 387.451 19.76C387.997 20.32 388.851 20.6 390.011 20.6C390.664 20.6 391.211 20.5467 391.651 20.44C392.104 20.32 392.444 20.2067 392.671 20.1L392.931 21.66C392.704 21.78 392.304 21.9067 391.731 22.04C391.171 22.1733 390.531 22.24 389.811 22.24C388.904 22.24 388.117 22.1067 387.451 21.84C386.797 21.56 386.257 21.18 385.831 20.7C385.404 20.22 385.084 19.6533 384.871 19C384.671 18.3333 384.571 17.6067 384.571 16.82ZM391.711 15.8C391.724 14.96 391.511 14.2733 391.071 13.74C390.644 13.1933 390.051 12.92 389.291 12.92C388.864 12.92 388.484 13.0067 388.151 13.18C387.831 13.34 387.557 13.5533 387.331 13.82C387.104 14.0867 386.924 14.3933 386.791 14.74C386.671 15.0867 386.591 15.44 386.551 15.8H391.711ZM404.603 21.7C404.176 21.8067 403.609 21.92 402.903 22.04C402.209 22.16 401.403 22.22 400.483 22.22C399.683 22.22 399.009 22.1067 398.463 21.88C397.916 21.64 397.476 21.3067 397.143 20.88C396.809 20.4533 396.569 19.9533 396.423 19.38C396.276 18.7933 396.203 18.1467 396.203 17.44V11.6H398.063V17.04C398.063 18.3067 398.263 19.2133 398.663 19.76C399.063 20.3067 399.736 20.58 400.683 20.58C400.883 20.58 401.089 20.5733 401.303 20.56C401.516 20.5467 401.716 20.5333 401.903 20.52C402.089 20.4933 402.256 20.4733 402.403 20.46C402.563 20.4333 402.676 20.4067 402.743 20.38V11.6H404.603V21.7ZM409.547 11.6H413.487V13.16H409.547V17.96C409.547 18.48 409.587 18.9133 409.667 19.26C409.747 19.5933 409.867 19.86 410.027 20.06C410.187 20.2467 410.387 20.38 410.627 20.46C410.867 20.54 411.147 20.58 411.467 20.58C412.027 20.58 412.474 20.52 412.807 20.4C413.154 20.2667 413.394 20.1733 413.527 20.12L413.887 21.66C413.7 21.7533 413.374 21.8667 412.907 22C412.44 22.1467 411.907 22.22 411.307 22.22C410.6 22.22 410.014 22.1333 409.547 21.96C409.094 21.7733 408.727 21.5 408.447 21.14C408.167 20.78 407.967 20.34 407.847 19.82C407.74 19.2867 407.687 18.6733 407.687 17.98V8.7L409.547 8.38V11.6ZM419.694 11.38C419.854 11.38 420.034 11.3933 420.234 11.42C420.447 11.4333 420.654 11.46 420.854 11.5C421.054 11.5267 421.234 11.56 421.394 11.6C421.567 11.6267 421.694 11.6533 421.774 11.68L421.454 13.3C421.307 13.2467 421.061 13.1867 420.714 13.12C420.381 13.04 419.947 13 419.414 13C419.067 13 418.721 13.04 418.374 13.12C418.041 13.1867 417.821 13.2333 417.714 13.26V22H415.854V12.04C416.294 11.88 416.841 11.7333 417.494 11.6C418.147 11.4533 418.881 11.38 419.694 11.38ZM427.089 20.66C427.529 20.66 427.915 20.6533 428.249 20.64C428.595 20.6133 428.882 20.5733 429.109 20.52V17.42C428.975 17.3533 428.755 17.3 428.449 17.26C428.155 17.2067 427.795 17.18 427.369 17.18C427.089 17.18 426.789 17.2 426.469 17.24C426.162 17.28 425.875 17.3667 425.609 17.5C425.355 17.62 425.142 17.7933 424.969 18.02C424.795 18.2333 424.709 18.52 424.709 18.88C424.709 19.5467 424.922 20.0133 425.349 20.28C425.775 20.5333 426.355 20.66 427.089 20.66ZM426.929 11.34C427.675 11.34 428.302 11.44 428.809 11.64C429.329 11.8267 429.742 12.1 430.049 12.46C430.369 12.8067 430.595 13.2267 430.729 13.72C430.862 14.2 430.929 14.7333 430.929 15.32V21.82C430.769 21.8467 430.542 21.8867 430.249 21.94C429.969 21.98 429.649 22.02 429.289 22.06C428.929 22.1 428.535 22.1333 428.109 22.16C427.695 22.2 427.282 22.22 426.869 22.22C426.282 22.22 425.742 22.16 425.249 22.04C424.755 21.92 424.329 21.7333 423.969 21.48C423.609 21.2133 423.329 20.8667 423.129 20.44C422.929 20.0133 422.829 19.5 422.829 18.9C422.829 18.3267 422.942 17.8333 423.169 17.42C423.409 17.0067 423.729 16.6733 424.129 16.42C424.529 16.1667 424.995 15.98 425.529 15.86C426.062 15.74 426.622 15.68 427.209 15.68C427.395 15.68 427.589 15.6933 427.789 15.72C427.989 15.7333 428.175 15.76 428.349 15.8C428.535 15.8267 428.695 15.8533 428.829 15.88C428.962 15.9067 429.055 15.9267 429.109 15.94V15.42C429.109 15.1133 429.075 14.8133 429.009 14.52C428.942 14.2133 428.822 13.9467 428.649 13.72C428.475 13.48 428.235 13.2933 427.929 13.16C427.635 13.0133 427.249 12.94 426.769 12.94C426.155 12.94 425.615 12.9867 425.149 13.08C424.695 13.16 424.355 13.2467 424.129 13.34L423.909 11.8C424.149 11.6933 424.549 11.5933 425.109 11.5C425.669 11.3933 426.275 11.34 426.929 11.34ZM437.138 22.2C435.991 22.1733 435.178 21.9267 434.698 21.46C434.218 20.9933 433.978 20.2667 433.978 19.28V6.8L435.838 6.48V18.98C435.838 19.2867 435.865 19.54 435.918 19.74C435.971 19.94 436.058 20.1 436.178 20.22C436.298 20.34 436.458 20.4333 436.658 20.5C436.858 20.5533 437.105 20.6 437.398 20.64L437.138 22.2Z" fill="#403F3D"/>
<defs>
<filter id="filter0_d" x="0" y="36" width="155" height="120" filterUnits="userSpaceOnUse" color-interpolation-filters="sRGB">
<feFlood flood-opacity="0" result="BackgroundImageFix"/>
<feColorMatrix in="SourceAlpha" type="matrix" values="0 0 0 0 0 0 0 0 0 0 0 0 0 0 0 0 0 0 127 0" result="hardAlpha"/>
<feOffset dy="10"/>
<feGaussianBlur stdDeviation="10"/>
<feColorMatrix type="matrix" values="0 0 0 0 0 0 0 0 0 0 0 0 0 0 0 0 0 0 0.08 0"/>
<feBlend mode="normal" in2="BackgroundImageFix" result="effect1_dropShadow"/>
<feBlend mode="normal" in="SourceGraphic" in2="effect1_dropShadow" result="shape"/>
</filter>
<filter id="filter1_d" x="147" y="36" width="155" height="120" filterUnits="userSpaceOnUse" color-interpolation-filters="sRGB">
<feFlood flood-opacity="0" result="BackgroundImageFix"/>
<feColorMatrix in="SourceAlpha" type="matrix" values="0 0 0 0 0 0 0 0 0 0 0 0 0 0 0 0 0 0 127 0" result="hardAlpha"/>
<feOffset dy="10"/>
<feGaussianBlur stdDeviation="10"/>
<feColorMatrix type="matrix" values="0 0 0 0 0 0 0 0 0 0 0 0 0 0 0 0 0 0 0.08 0"/>
<feBlend mode="normal" in2="BackgroundImageFix" result="effect1_dropShadow"/>
<feBlend mode="normal" in="SourceGraphic" in2="effect1_dropShadow" result="shape"/>
</filter>
<filter id="filter2_d" x="349" y="36" width="155" height="120" filterUnits="userSpaceOnUse" color-interpolation-filters="sRGB">
<feFlood flood-opacity="0" result="BackgroundImageFix"/>
<feColorMatrix in="SourceAlpha" type="matrix" values="0 0 0 0 0 0 0 0 0 0 0 0 0 0 0 0 0 0 127 0" result="hardAlpha"/>
<feOffset dy="10"/>
<feGaussianBlur stdDeviation="10"/>
<feColorMatrix type="matrix" values="0 0 0 0 0 0 0 0 0 0 0 0 0 0 0 0 0 0 0.15 0"/>
<feBlend mode="normal" in2="BackgroundImageFix" result="effect1_dropShadow"/>
<feBlend mode="normal" in="SourceGraphic" in2="effect1_dropShadow" result="shape"/>
</filter>
<filter id="filter3_d" x="496" y="36" width="155" height="120" filterUnits="userSpaceOnUse" color-interpolation-filters="sRGB">
<feFlood flood-opacity="0" result="BackgroundImageFix"/>
<feColorMatrix in="SourceAlpha" type="matrix" values="0 0 0 0 0 0 0 0 0 0 0 0 0 0 0 0 0 0 127 0" result="hardAlpha"/>
<feOffset dy="10"/>
<feGaussianBlur stdDeviation="10"/>
<feColorMatrix type="matrix" values="0 0 0 0 0 0 0 0 0 0 0 0 0 0 0 0 0 0 0.08 0"/>
<feBlend mode="normal" in2="BackgroundImageFix" result="effect1_dropShadow"/>
<feBlend mode="normal" in="SourceGraphic" in2="effect1_dropShadow" result="shape"/>
</filter>
<filter id="filter4_d" x="643" y="36" width="155" height="120" filterUnits="userSpaceOnUse" color-interpolation-filters="sRGB">
<feFlood flood-opacity="0" result="BackgroundImageFix"/>
<feColorMatrix in="SourceAlpha" type="matrix" values="0 0 0 0 0 0 0 0 0 0 0 0 0 0 0 0 0 0 127 0" result="hardAlpha"/>
<feOffset dy="10"/>
<feGaussianBlur stdDeviation="10"/>
<feColorMatrix type="matrix" values="0 0 0 0 0 0 0 0 0 0 0 0 0 0 0 0 0 0 0.08 0"/>
<feBlend mode="normal" in2="BackgroundImageFix" result="effect1_dropShadow"/>
<feBlend mode="normal" in="SourceGraphic" in2="effect1_dropShadow" result="shape"/>
</filter>
</defs>
</svg>
