<svg width="528" height="186" viewBox="0 0 528 186" fill="none"
  xmlns="http://www.w3.org/2000/svg">
  <path d="M2.72 6.02C3.10667 5.91333 3.62667 5.79333 4.28 5.66C4.93333 5.52667 5.73333 5.46 6.68 5.46C7.46667 5.46 8.12 5.57333 8.64 5.8C9.17333 6.02667 9.59333 6.35333 9.9 6.78C10.22 7.19333 10.4467 7.69333 10.58 8.28C10.7133 8.86667 10.78 9.51333 10.78 10.22V16H9.48V10.64C9.48 9.90667 9.42667 9.28667 9.32 8.78C9.22667 8.27333 9.06 7.86 8.82 7.54C8.59333 7.22 8.28667 6.99333 7.9 6.86C7.52667 6.71333 7.05333 6.64 6.48 6.64C5.86667 6.64 5.33333 6.67333 4.88 6.74C4.44 6.80667 4.15333 6.86667 4.02 6.92V16H2.72V6.02ZM13.4867 10.82C13.4867 9.91333 13.6134 9.12667 13.8667 8.46C14.1334 7.78 14.4734 7.21333 14.8867 6.76C15.3134 6.30667 15.7934 5.97333 16.3267 5.76C16.8734 5.53333 17.4334 5.42 18.0067 5.42C19.2734 5.42 20.2801 5.83333 21.0267 6.66C21.7867 7.48667 22.1667 8.76 22.1667 10.48C22.1667 10.5867 22.1601 10.6933 22.1467 10.8C22.1467 10.9067 22.1401 11.0067 22.1267 11.1H14.8667C14.9067 12.3667 15.2201 13.34 15.8067 14.02C16.3934 14.7 17.3267 15.04 18.6067 15.04C19.3134 15.04 19.8734 14.9733 20.2867 14.84C20.7001 14.7067 21.0001 14.5933 21.1867 14.5L21.4267 15.62C21.2401 15.7267 20.8867 15.8533 20.3667 16C19.8601 16.1467 19.2601 16.22 18.5667 16.22C17.6601 16.22 16.8867 16.0867 16.2467 15.82C15.6067 15.5533 15.0801 15.18 14.6667 14.7C14.2534 14.22 13.9534 13.6533 13.7667 13C13.5801 12.3333 13.4867 11.6067 13.4867 10.82ZM20.8267 10C20.8001 8.92 20.5467 8.08 20.0667 7.48C19.5867 6.88 18.9067 6.58 18.0267 6.58C17.5601 6.58 17.1401 6.67333 16.7667 6.86C16.4067 7.04667 16.0867 7.3 15.8067 7.62C15.5401 7.92667 15.3267 8.28667 15.1667 8.7C15.0201 9.11333 14.9334 9.54667 14.9067 10H20.8267ZM31.7238 5.66C31.8438 6.32667 31.9971 7.04 32.1838 7.8C32.3838 8.54667 32.5971 9.31333 32.8238 10.1C33.0638 10.8733 33.3104 11.64 33.5638 12.4C33.8304 13.16 34.0971 13.8733 34.3637 14.54C34.5904 14.0333 34.8304 13.42 35.0838 12.7C35.3371 11.9667 35.5904 11.2 35.8438 10.4C36.0971 9.58667 36.3304 8.77333 36.5438 7.96C36.7704 7.13333 36.9571 6.36667 37.1038 5.66H38.3838C37.9038 7.68667 37.3771 9.54 36.8038 11.22C36.2438 12.9 35.6238 14.4933 34.9438 16H33.7238C33.5238 15.5333 33.3104 15.0133 33.0838 14.44C32.8704 13.8533 32.6438 13.2333 32.4038 12.58C32.1771 11.9133 31.9504 11.22 31.7238 10.5C31.5104 9.76667 31.3038 9.02 31.1038 8.26C30.9038 9.02 30.6904 9.76667 30.4638 10.5C30.2504 11.22 30.0238 11.9133 29.7838 12.58C29.5571 13.2333 29.3304 13.8533 29.1038 14.44C28.8904 15.0133 28.6838 15.5333 28.4837 16H27.2438C26.5638 14.4933 25.9371 12.9 25.3638 11.22C24.8038 9.54 24.2838 7.68667 23.8038 5.66H25.1838C25.3304 6.36667 25.5104 7.13333 25.7238 7.96C25.9504 8.77333 26.1904 9.58667 26.4438 10.4C26.6971 11.2 26.9504 11.96 27.2038 12.68C27.4704 13.4 27.7171 14.0133 27.9438 14.52C28.1971 13.8533 28.4504 13.14 28.7038 12.38C28.9704 11.62 29.2171 10.8533 29.4438 10.08C29.6704 9.30667 29.8838 8.54667 30.0838 7.8C30.2838 7.04 30.4571 6.32667 30.6038 5.66H31.7238ZM53.3423 15.68C52.9557 15.8133 52.4623 15.94 51.8623 16.06C51.2623 16.18 50.5023 16.24 49.5823 16.24C48.8223 16.24 48.129 16.12 47.5023 15.88C46.889 15.6267 46.3557 15.2667 45.9023 14.8C45.4623 14.3333 45.1157 13.7667 44.8623 13.1C44.6223 12.4333 44.5023 11.68 44.5023 10.84C44.5023 10.0533 44.6023 9.33333 44.8023 8.68C45.0157 8.01333 45.3223 7.44 45.7223 6.96C46.1223 6.48 46.609 6.10667 47.1823 5.84C47.769 5.57333 48.4357 5.44 49.1823 5.44C49.8623 5.44 50.449 5.54 50.9423 5.74C51.449 5.92667 51.8157 6.10667 52.0423 6.28V0.719999L53.3423 0.48V15.68ZM52.0423 7.54C51.9223 7.44667 51.769 7.34667 51.5823 7.24C51.409 7.13333 51.2023 7.03333 50.9623 6.94C50.7223 6.84667 50.4623 6.77333 50.1823 6.72C49.9023 6.65333 49.609 6.62 49.3023 6.62C48.6623 6.62 48.1223 6.73333 47.6823 6.96C47.2557 7.18667 46.909 7.49333 46.6423 7.88C46.3757 8.25333 46.1823 8.7 46.0623 9.22C45.9423 9.72667 45.8823 10.2667 45.8823 10.84C45.8823 12.2 46.2223 13.2467 46.9023 13.98C47.5823 14.7 48.4823 15.06 49.6023 15.06C50.2423 15.06 50.7557 15.0333 51.1423 14.98C51.5423 14.9133 51.8423 14.8467 52.0423 14.78V7.54ZM65.6025 10.84C65.6025 11.6533 65.4825 12.3933 65.2425 13.06C65.0158 13.7267 64.6892 14.2933 64.2625 14.76C63.8492 15.2267 63.3558 15.5933 62.7825 15.86C62.2092 16.1133 61.5758 16.24 60.8825 16.24C60.1892 16.24 59.5558 16.1133 58.9825 15.86C58.4092 15.5933 57.9092 15.2267 57.4825 14.76C57.0692 14.2933 56.7425 13.7267 56.5025 13.06C56.2758 12.3933 56.1625 11.6533 56.1625 10.84C56.1625 10.0267 56.2758 9.28667 56.5025 8.62C56.7425 7.95333 57.0692 7.38667 57.4825 6.92C57.9092 6.44 58.4092 6.07333 58.9825 5.82C59.5558 5.55333 60.1892 5.42 60.8825 5.42C61.5758 5.42 62.2092 5.55333 62.7825 5.82C63.3558 6.07333 63.8492 6.44 64.2625 6.92C64.6892 7.38667 65.0158 7.95333 65.2425 8.62C65.4825 9.28667 65.6025 10.0267 65.6025 10.84ZM64.2225 10.84C64.2225 9.54667 63.9225 8.52 63.3225 7.76C62.7225 6.98667 61.9092 6.6 60.8825 6.6C59.8558 6.6 59.0425 6.98667 58.4425 7.76C57.8425 8.52 57.5425 9.54667 57.5425 10.84C57.5425 12.1333 57.8425 13.16 58.4425 13.92C59.0425 14.68 59.8558 15.06 60.8825 15.06C61.9092 15.06 62.7225 14.68 63.3225 13.92C63.9225 13.16 64.2225 12.1333 64.2225 10.84ZM68.4231 6.02C68.8098 5.91333 69.3298 5.79333 69.9831 5.66C70.6365 5.52667 71.4365 5.46 72.3831 5.46C73.1698 5.46 73.8231 5.57333 74.3431 5.8C74.8765 6.02667 75.2965 6.35333 75.6031 6.78C75.9231 7.19333 76.1498 7.69333 76.2831 8.28C76.4165 8.86667 76.4831 9.51333 76.4831 10.22V16H75.1831V10.64C75.1831 9.90667 75.1298 9.28667 75.0231 8.78C74.9298 8.27333 74.7631 7.86 74.5231 7.54C74.2965 7.22 73.9898 6.99333 73.6031 6.86C73.2298 6.71333 72.7565 6.64 72.1831 6.64C71.5698 6.64 71.0365 6.67333 70.5831 6.74C70.1431 6.80667 69.8565 6.86667 69.7231 6.92V16H68.4231V6.02ZM83.0698 15.06C83.5765 15.06 84.0165 15.0467 84.3898 15.02C84.7765 14.98 85.1032 14.9333 85.3698 14.88V11.24C85.2232 11.1733 84.9898 11.1067 84.6698 11.04C84.3498 10.96 83.9098 10.92 83.3498 10.92C83.0298 10.92 82.6965 10.9467 82.3498 11C82.0032 11.04 81.6832 11.14 81.3898 11.3C81.0965 11.4467 80.8565 11.6533 80.6698 11.92C80.4832 12.1867 80.3898 12.54 80.3898 12.98C80.3898 13.3667 80.4498 13.6933 80.5698 13.96C80.7032 14.2267 80.8832 14.44 81.1098 14.6C81.3498 14.76 81.6298 14.88 81.9498 14.96C82.2832 15.0267 82.6565 15.06 83.0698 15.06ZM82.9498 5.42C83.6298 5.42 84.2032 5.52 84.6698 5.72C85.1498 5.90667 85.5365 6.17333 85.8298 6.52C86.1232 6.85333 86.3365 7.25333 86.4698 7.72C86.6032 8.18667 86.6698 8.69333 86.6698 9.24V15.76C86.5365 15.8 86.3432 15.8467 86.0898 15.9C85.8365 15.94 85.5432 15.9867 85.2098 16.04C84.8765 16.0933 84.5032 16.1333 84.0898 16.16C83.6898 16.2 83.2765 16.22 82.8498 16.22C82.3032 16.22 81.7965 16.16 81.3298 16.04C80.8765 15.92 80.4765 15.7333 80.1298 15.48C79.7965 15.2133 79.5298 14.88 79.3298 14.48C79.1432 14.0667 79.0498 13.5667 79.0498 12.98C79.0498 12.42 79.1565 11.94 79.3698 11.54C79.5832 11.14 79.8832 10.8133 80.2698 10.56C80.6565 10.2933 81.1165 10.1 81.6498 9.98C82.1832 9.86 82.7632 9.8 83.3898 9.8C83.5765 9.8 83.7698 9.81333 83.9698 9.84C84.1832 9.85333 84.3832 9.88 84.5698 9.92C84.7698 9.94667 84.9365 9.98 85.0698 10.02C85.2165 10.0467 85.3165 10.0733 85.3698 10.1V9.46C85.3698 9.1 85.3432 8.75333 85.2898 8.42C85.2365 8.07333 85.1165 7.76667 84.9298 7.5C84.7565 7.22 84.5032 7 84.1698 6.84C83.8498 6.66667 83.4232 6.58 82.8898 6.58C82.1298 6.58 81.5632 6.63333 81.1898 6.74C80.8165 6.84667 80.5432 6.93333 80.3698 7L80.1898 5.86C80.4165 5.75333 80.7632 5.65333 81.2298 5.56C81.7098 5.46667 82.2832 5.42 82.9498 5.42ZM91.2056 5.66H95.3256V6.76H91.2056V12.26C91.2056 12.8467 91.2523 13.3267 91.3456 13.7C91.4523 14.06 91.599 14.34 91.7856 14.54C91.9723 14.74 92.199 14.8733 92.4656 14.94C92.7323 15.0067 93.0256 15.04 93.3456 15.04C93.8923 15.04 94.3323 14.98 94.6656 14.86C94.999 14.7267 95.259 14.6067 95.4456 14.5L95.7656 15.58C95.579 15.7 95.2523 15.84 94.7856 16C94.319 16.1467 93.8123 16.22 93.2656 16.22C92.6256 16.22 92.0856 16.14 91.6456 15.98C91.219 15.8067 90.8723 15.5533 90.6056 15.22C90.3523 14.8733 90.1723 14.4467 90.0656 13.94C89.959 13.4333 89.9056 12.8333 89.9056 12.14V2.62L91.2056 2.38V5.66ZM99.02 16H97.72V5.66H99.02V16ZM99.32 2.54C99.32 2.84667 99.2267 3.09333 99.04 3.28C98.8533 3.45333 98.6267 3.54 98.36 3.54C98.0933 3.54 97.8667 3.45333 97.68 3.28C97.4933 3.09333 97.4 2.84667 97.4 2.54C97.4 2.23333 97.4933 1.99333 97.68 1.82C97.8667 1.63333 98.0933 1.54 98.36 1.54C98.6267 1.54 98.8533 1.63333 99.04 1.82C99.2267 1.99333 99.32 2.23333 99.32 2.54ZM111.286 10.84C111.286 11.6533 111.166 12.3933 110.926 13.06C110.699 13.7267 110.373 14.2933 109.946 14.76C109.533 15.2267 109.039 15.5933 108.466 15.86C107.893 16.1133 107.259 16.24 106.566 16.24C105.873 16.24 105.239 16.1133 104.666 15.86C104.093 15.5933 103.593 15.2267 103.166 14.76C102.753 14.2933 102.426 13.7267 102.186 13.06C101.959 12.3933 101.846 11.6533 101.846 10.84C101.846 10.0267 101.959 9.28667 102.186 8.62C102.426 7.95333 102.753 7.38667 103.166 6.92C103.593 6.44 104.093 6.07333 104.666 5.82C105.239 5.55333 105.873 5.42 106.566 5.42C107.259 5.42 107.893 5.55333 108.466 5.82C109.039 6.07333 109.533 6.44 109.946 6.92C110.373 7.38667 110.699 7.95333 110.926 8.62C111.166 9.28667 111.286 10.0267 111.286 10.84ZM109.906 10.84C109.906 9.54667 109.606 8.52 109.006 7.76C108.406 6.98667 107.593 6.6 106.566 6.6C105.539 6.6 104.726 6.98667 104.126 7.76C103.526 8.52 103.226 9.54667 103.226 10.84C103.226 12.1333 103.526 13.16 104.126 13.92C104.726 14.68 105.539 15.06 106.566 15.06C107.593 15.06 108.406 14.68 109.006 13.92C109.606 13.16 109.906 12.1333 109.906 10.84ZM114.107 6.02C114.493 5.91333 115.013 5.79333 115.667 5.66C116.32 5.52667 117.12 5.46 118.067 5.46C118.853 5.46 119.507 5.57333 120.027 5.8C120.56 6.02667 120.98 6.35333 121.287 6.78C121.607 7.19333 121.833 7.69333 121.967 8.28C122.1 8.86667 122.167 9.51333 122.167 10.22V16H120.867V10.64C120.867 9.90667 120.813 9.28667 120.707 8.78C120.613 8.27333 120.447 7.86 120.207 7.54C119.98 7.22 119.673 6.99333 119.287 6.86C118.913 6.71333 118.44 6.64 117.867 6.64C117.253 6.64 116.72 6.67333 116.267 6.74C115.827 6.80667 115.54 6.86667 115.407 6.92V16H114.107V6.02ZM129.424 10.82C129.424 9.91333 129.551 9.12667 129.804 8.46C130.071 7.78 130.411 7.21333 130.824 6.76C131.251 6.30667 131.731 5.97333 132.264 5.76C132.811 5.53333 133.371 5.42 133.944 5.42C135.211 5.42 136.218 5.83333 136.964 6.66C137.724 7.48667 138.104 8.76 138.104 10.48C138.104 10.5867 138.098 10.6933 138.084 10.8C138.084 10.9067 138.078 11.0067 138.064 11.1H130.804C130.844 12.3667 131.158 13.34 131.744 14.02C132.331 14.7 133.264 15.04 134.544 15.04C135.251 15.04 135.811 14.9733 136.224 14.84C136.638 14.7067 136.938 14.5933 137.124 14.5L137.364 15.62C137.178 15.7267 136.824 15.8533 136.304 16C135.798 16.1467 135.198 16.22 134.504 16.22C133.598 16.22 132.824 16.0867 132.184 15.82C131.544 15.5533 131.018 15.18 130.604 14.7C130.191 14.22 129.891 13.6533 129.704 13C129.518 12.3333 129.424 11.6067 129.424 10.82ZM136.764 10C136.738 8.92 136.484 8.08 136.004 7.48C135.524 6.88 134.844 6.58 133.964 6.58C133.498 6.58 133.078 6.67333 132.704 6.86C132.344 7.04667 132.024 7.3 131.744 7.62C131.478 7.92667 131.264 8.28667 131.104 8.7C130.958 9.11333 130.871 9.54667 130.844 10H136.764ZM144.241 11.32C143.948 11.7067 143.655 12.1133 143.361 12.54C143.068 12.9667 142.781 13.3867 142.501 13.8C142.235 14.2133 141.988 14.6133 141.761 15C141.535 15.3733 141.341 15.7067 141.181 16H139.841C140.388 14.9733 140.961 14.02 141.561 13.14C142.161 12.2467 142.775 11.3733 143.401 10.52L140.041 5.66H141.561L144.241 9.62L146.961 5.66H148.381L145.081 10.44C145.361 10.8133 145.661 11.22 145.981 11.66C146.301 12.1 146.621 12.56 146.941 13.04C147.261 13.5067 147.568 13.9933 147.861 14.5C148.168 15.0067 148.448 15.5067 148.701 16H147.301C147.141 15.7067 146.948 15.3733 146.721 15C146.495 14.6133 146.241 14.2133 145.961 13.8C145.695 13.3867 145.408 12.9667 145.101 12.54C144.808 12.1133 144.521 11.7067 144.241 11.32ZM152.282 14.14C152.402 14.2333 152.548 14.3333 152.722 14.44C152.908 14.5467 153.122 14.6467 153.362 14.74C153.602 14.8333 153.862 14.9133 154.142 14.98C154.422 15.0333 154.715 15.06 155.022 15.06C155.662 15.06 156.195 14.9533 156.622 14.74C157.062 14.5133 157.415 14.2133 157.682 13.84C157.948 13.4533 158.142 13.0067 158.262 12.5C158.382 11.98 158.442 11.4333 158.442 10.86C158.442 9.5 158.102 8.46 157.422 7.74C156.742 7.00667 155.842 6.64 154.722 6.64C154.082 6.64 153.562 6.67333 153.162 6.74C152.775 6.79333 152.482 6.85333 152.282 6.92V14.14ZM152.282 19.7H150.982V6.02C151.368 5.88667 151.862 5.76 152.462 5.64C153.062 5.52 153.822 5.46 154.742 5.46C155.502 5.46 156.188 5.58667 156.802 5.84C157.428 6.08 157.962 6.43333 158.402 6.9C158.855 7.36667 159.202 7.93333 159.442 8.6C159.695 9.26667 159.822 10.02 159.822 10.86C159.822 11.6467 159.715 12.3733 159.502 13.04C159.302 13.6933 159.002 14.26 158.602 14.74C158.202 15.2067 157.708 15.5733 157.122 15.84C156.548 16.1067 155.888 16.24 155.142 16.24C154.462 16.24 153.868 16.1467 153.362 15.96C152.868 15.76 152.508 15.5733 152.282 15.4V19.7ZM162.022 10.82C162.022 9.91333 162.149 9.12667 162.402 8.46C162.669 7.78 163.009 7.21333 163.422 6.76C163.849 6.30667 164.329 5.97333 164.862 5.76C165.409 5.53333 165.969 5.42 166.542 5.42C167.809 5.42 168.815 5.83333 169.562 6.66C170.322 7.48667 170.702 8.76 170.702 10.48C170.702 10.5867 170.695 10.6933 170.682 10.8C170.682 10.9067 170.675 11.0067 170.662 11.1H163.402C163.442 12.3667 163.755 13.34 164.342 14.02C164.929 14.7 165.862 15.04 167.142 15.04C167.849 15.04 168.409 14.9733 168.822 14.84C169.235 14.7067 169.535 14.5933 169.722 14.5L169.962 15.62C169.775 15.7267 169.422 15.8533 168.902 16C168.395 16.1467 167.795 16.22 167.102 16.22C166.195 16.22 165.422 16.0867 164.782 15.82C164.142 15.5533 163.615 15.18 163.202 14.7C162.789 14.22 162.489 13.6533 162.302 13C162.115 12.3333 162.022 11.6067 162.022 10.82ZM169.362 10C169.335 8.92 169.082 8.08 168.602 7.48C168.122 6.88 167.442 6.58 166.562 6.58C166.095 6.58 165.675 6.67333 165.302 6.86C164.942 7.04667 164.622 7.3 164.342 7.62C164.075 7.92667 163.862 8.28667 163.702 8.7C163.555 9.11333 163.469 9.54667 163.442 10H169.362ZM177.119 5.46C177.546 5.46 177.946 5.49333 178.319 5.56C178.706 5.62667 178.972 5.69333 179.119 5.76L178.859 6.88C178.752 6.82667 178.532 6.77333 178.199 6.72C177.879 6.65333 177.452 6.62 176.919 6.62C176.359 6.62 175.906 6.66 175.559 6.74C175.226 6.82 175.006 6.88667 174.899 6.94V16H173.599V6.14C173.932 5.99333 174.392 5.84667 174.979 5.7C175.566 5.54 176.279 5.46 177.119 5.46ZM182.379 16H181.079V5.66H182.379V16ZM182.679 2.54C182.679 2.84667 182.586 3.09333 182.399 3.28C182.213 3.45333 181.986 3.54 181.719 3.54C181.453 3.54 181.226 3.45333 181.039 3.28C180.853 3.09333 180.759 2.84667 180.759 2.54C180.759 2.23333 180.853 1.99333 181.039 1.82C181.226 1.63333 181.453 1.54 181.719 1.54C181.986 1.54 182.213 1.63333 182.399 1.82C182.586 1.99333 182.679 2.23333 182.679 2.54ZM185.205 10.82C185.205 9.91333 185.332 9.12667 185.585 8.46C185.852 7.78 186.192 7.21333 186.605 6.76C187.032 6.30667 187.512 5.97333 188.045 5.76C188.592 5.53333 189.152 5.42 189.725 5.42C190.992 5.42 191.999 5.83333 192.745 6.66C193.505 7.48667 193.885 8.76 193.885 10.48C193.885 10.5867 193.879 10.6933 193.865 10.8C193.865 10.9067 193.859 11.0067 193.845 11.1H186.585C186.625 12.3667 186.939 13.34 187.525 14.02C188.112 14.7 189.045 15.04 190.325 15.04C191.032 15.04 191.592 14.9733 192.005 14.84C192.419 14.7067 192.719 14.5933 192.905 14.5L193.145 15.62C192.959 15.7267 192.605 15.8533 192.085 16C191.579 16.1467 190.979 16.22 190.285 16.22C189.379 16.22 188.605 16.0867 187.965 15.82C187.325 15.5533 186.799 15.18 186.385 14.7C185.972 14.22 185.672 13.6533 185.485 13C185.299 12.3333 185.205 11.6067 185.205 10.82ZM192.545 10C192.519 8.92 192.265 8.08 191.785 7.48C191.305 6.88 190.625 6.58 189.745 6.58C189.279 6.58 188.859 6.67333 188.485 6.86C188.125 7.04667 187.805 7.3 187.525 7.62C187.259 7.92667 187.045 8.28667 186.885 8.7C186.739 9.11333 186.652 9.54667 186.625 10H192.545ZM196.783 6.02C197.169 5.91333 197.689 5.79333 198.343 5.66C198.996 5.52667 199.796 5.46 200.743 5.46C201.529 5.46 202.183 5.57333 202.703 5.8C203.236 6.02667 203.656 6.35333 203.963 6.78C204.283 7.19333 204.509 7.69333 204.643 8.28C204.776 8.86667 204.843 9.51333 204.843 10.22V16H203.543V10.64C203.543 9.90667 203.489 9.28667 203.383 8.78C203.289 8.27333 203.123 7.86 202.883 7.54C202.656 7.22 202.349 6.99333 201.963 6.86C201.589 6.71333 201.116 6.64 200.543 6.64C199.929 6.64 199.396 6.67333 198.943 6.74C198.503 6.80667 198.216 6.86667 198.083 6.92V16H196.783V6.02ZM212.449 16.22C211.649 16.22 210.943 16.0933 210.329 15.84C209.716 15.5867 209.203 15.2267 208.789 14.76C208.389 14.28 208.083 13.7133 207.869 13.06C207.656 12.3933 207.549 11.66 207.549 10.86C207.549 10.0467 207.656 9.30667 207.869 8.64C208.096 7.97333 208.416 7.4 208.829 6.92C209.243 6.44 209.743 6.07333 210.329 5.82C210.916 5.55333 211.576 5.42 212.309 5.42C212.869 5.42 213.389 5.46667 213.869 5.56C214.363 5.65333 214.743 5.77333 215.009 5.92L214.669 7.04C214.403 6.90667 214.103 6.8 213.769 6.72C213.436 6.64 212.989 6.6 212.429 6.6C211.283 6.6 210.409 6.97333 209.809 7.72C209.223 8.45333 208.929 9.5 208.929 10.86C208.929 11.4733 208.996 12.04 209.129 12.56C209.263 13.0667 209.476 13.5067 209.769 13.88C210.076 14.24 210.463 14.5267 210.929 14.74C211.409 14.94 211.989 15.04 212.669 15.04C213.229 15.04 213.696 14.98 214.069 14.86C214.456 14.7267 214.736 14.6133 214.909 14.52L215.189 15.64C214.949 15.7733 214.569 15.9 214.049 16.02C213.543 16.1533 213.009 16.22 212.449 16.22ZM216.748 10.82C216.748 9.91333 216.875 9.12667 217.128 8.46C217.395 7.78 217.735 7.21333 218.148 6.76C218.575 6.30667 219.055 5.97333 219.588 5.76C220.135 5.53333 220.695 5.42 221.268 5.42C222.535 5.42 223.542 5.83333 224.288 6.66C225.048 7.48667 225.428 8.76 225.428 10.48C225.428 10.5867 225.422 10.6933 225.408 10.8C225.408 10.9067 225.402 11.0067 225.388 11.1H218.128C218.168 12.3667 218.482 13.34 219.068 14.02C219.655 14.7 220.588 15.04 221.868 15.04C222.575 15.04 223.135 14.9733 223.548 14.84C223.962 14.7067 224.262 14.5933 224.448 14.5L224.688 15.62C224.502 15.7267 224.148 15.8533 223.628 16C223.122 16.1467 222.522 16.22 221.828 16.22C220.922 16.22 220.148 16.0867 219.508 15.82C218.868 15.5533 218.342 15.18 217.928 14.7C217.515 14.22 217.215 13.6533 217.028 13C216.842 12.3333 216.748 11.6067 216.748 10.82ZM224.088 10C224.062 8.92 223.808 8.08 223.328 7.48C222.848 6.88 222.168 6.58 221.288 6.58C220.822 6.58 220.402 6.67333 220.028 6.86C219.668 7.04667 219.348 7.3 219.068 7.62C218.802 7.92667 218.588 8.28667 218.428 8.7C218.282 9.11333 218.195 9.54667 218.168 10H224.088Z" fill="#2C2C2C"/>
  <rect y="66" width="158" height="120" rx="8" fill="#3A70A6"/>
  <rect x="185" y="66" width="158" height="120" rx="8" fill="#3A70A6"/>
  <rect x="370" y="66" width="158" height="120" rx="8" fill="#3A70A6"/>
  <path d="M244.63 105.584C245.003 105.584 245.323 105.611 245.59 105.664C245.856 105.707 246.048 105.749 246.166 105.792L245.958 107.072C245.84 107.029 245.68 106.987 245.478 106.944C245.275 106.891 245.03 106.864 244.742 106.864C244.048 106.864 243.563 107.056 243.286 107.44C243.008 107.813 242.87 108.32 242.87 108.96V109.68H246.07V110.928H242.87V118H241.382V108.928C241.382 107.861 241.643 107.04 242.166 106.464C242.688 105.877 243.51 105.584 244.63 105.584ZM249.11 118H247.622V109.68H249.11V118ZM248.358 108.176C248.091 108.176 247.862 108.091 247.67 107.92C247.488 107.739 247.398 107.499 247.398 107.2C247.398 106.901 247.488 106.667 247.67 106.496C247.862 106.315 248.091 106.224 248.358 106.224C248.624 106.224 248.848 106.315 249.03 106.496C249.222 106.667 249.318 106.901 249.318 107.2C249.318 107.499 249.222 107.739 249.03 107.92C248.848 108.091 248.624 108.176 248.358 108.176ZM254.159 118.16C253.241 118.139 252.591 117.941 252.207 117.568C251.823 117.195 251.631 116.613 251.631 115.824V105.84L253.119 105.584V115.584C253.119 115.829 253.14 116.032 253.183 116.192C253.225 116.352 253.295 116.48 253.391 116.576C253.487 116.672 253.615 116.747 253.775 116.8C253.935 116.843 254.132 116.88 254.367 116.912L254.159 118.16ZM258.534 118.16C257.616 118.139 256.966 117.941 256.582 117.568C256.198 117.195 256.006 116.613 256.006 115.824V105.84L257.494 105.584V115.584C257.494 115.829 257.515 116.032 257.558 116.192C257.6 116.352 257.67 116.48 257.766 116.576C257.862 116.672 257.99 116.747 258.15 116.8C258.31 116.843 258.507 116.88 258.742 116.912L258.534 118.16ZM271.46 113.84C271.46 114.501 271.364 115.099 271.172 115.632C270.98 116.165 270.708 116.624 270.356 117.008C270.015 117.392 269.604 117.691 269.124 117.904C268.644 118.107 268.121 118.208 267.556 118.208C266.991 118.208 266.468 118.107 265.988 117.904C265.508 117.691 265.092 117.392 264.74 117.008C264.399 116.624 264.132 116.165 263.94 115.632C263.748 115.099 263.652 114.501 263.652 113.84C263.652 113.189 263.748 112.597 263.94 112.064C264.132 111.52 264.399 111.056 264.74 110.672C265.092 110.288 265.508 109.995 265.988 109.792C266.468 109.579 266.991 109.472 267.556 109.472C268.121 109.472 268.644 109.579 269.124 109.792C269.604 109.995 270.015 110.288 270.356 110.672C270.708 111.056 270.98 111.52 271.172 112.064C271.364 112.597 271.46 113.189 271.46 113.84ZM269.908 113.84C269.908 112.901 269.695 112.16 269.268 111.616C268.852 111.061 268.281 110.784 267.556 110.784C266.831 110.784 266.255 111.061 265.828 111.616C265.412 112.16 265.204 112.901 265.204 113.84C265.204 114.779 265.412 115.525 265.828 116.08C266.255 116.624 266.831 116.896 267.556 116.896C268.281 116.896 268.852 116.624 269.268 116.08C269.695 115.525 269.908 114.779 269.908 113.84ZM280.177 117.76C279.836 117.845 279.383 117.936 278.817 118.032C278.263 118.128 277.617 118.176 276.881 118.176C276.241 118.176 275.703 118.085 275.265 117.904C274.828 117.712 274.476 117.445 274.209 117.104C273.943 116.763 273.751 116.363 273.633 115.904C273.516 115.435 273.457 114.917 273.457 114.352V109.68H274.945V114.032C274.945 115.045 275.105 115.771 275.425 116.208C275.745 116.645 276.284 116.864 277.041 116.864C277.201 116.864 277.367 116.859 277.537 116.848C277.708 116.837 277.868 116.827 278.017 116.816C278.167 116.795 278.3 116.779 278.417 116.768C278.545 116.747 278.636 116.725 278.689 116.704V109.68H280.177V117.76ZM284.133 109.68H287.285V110.928H284.133V114.768C284.133 115.184 284.165 115.531 284.229 115.808C284.293 116.075 284.389 116.288 284.517 116.448C284.645 116.597 284.805 116.704 284.997 116.768C285.189 116.832 285.413 116.864 285.669 116.864C286.117 116.864 286.474 116.816 286.741 116.72C287.018 116.613 287.21 116.539 287.317 116.496L287.605 117.728C287.456 117.803 287.194 117.893 286.821 118C286.448 118.117 286.021 118.176 285.541 118.176C284.976 118.176 284.506 118.107 284.133 117.968C283.77 117.819 283.477 117.6 283.253 117.312C283.029 117.024 282.869 116.672 282.773 116.256C282.688 115.829 282.645 115.339 282.645 114.784V107.36L284.133 107.104V109.68ZM234.781 137.68H237.933V138.928H234.781V142.768C234.781 143.184 234.813 143.531 234.877 143.808C234.941 144.075 235.037 144.288 235.165 144.448C235.293 144.597 235.453 144.704 235.645 144.768C235.837 144.832 236.061 144.864 236.317 144.864C236.765 144.864 237.123 144.816 237.389 144.72C237.667 144.613 237.859 144.539 237.965 144.496L238.253 145.728C238.104 145.803 237.843 145.893 237.469 146C237.096 146.117 236.669 146.176 236.189 146.176C235.624 146.176 235.155 146.107 234.781 145.968C234.419 145.819 234.125 145.6 233.901 145.312C233.677 145.024 233.517 144.672 233.421 144.256C233.336 143.829 233.293 143.339 233.293 142.784V135.36L234.781 135.104V137.68ZM239.827 146V133.84L241.315 133.584V137.84C241.592 137.733 241.886 137.653 242.195 137.6C242.515 137.536 242.83 137.504 243.139 137.504C243.8 137.504 244.35 137.6 244.787 137.792C245.224 137.973 245.571 138.235 245.827 138.576C246.094 138.907 246.28 139.307 246.387 139.776C246.494 140.245 246.547 140.763 246.547 141.328V146H245.059V141.648C245.059 141.136 245.022 140.699 244.947 140.336C244.883 139.973 244.771 139.68 244.611 139.456C244.451 139.232 244.238 139.072 243.971 138.976C243.704 138.869 243.374 138.816 242.979 138.816C242.819 138.816 242.654 138.827 242.483 138.848C242.312 138.869 242.147 138.896 241.987 138.928C241.838 138.949 241.699 138.976 241.571 139.008C241.454 139.04 241.368 139.067 241.315 139.088V146H239.827ZM248.504 141.856C248.504 141.12 248.61 140.48 248.824 139.936C249.037 139.381 249.32 138.923 249.672 138.56C250.024 138.197 250.429 137.925 250.888 137.744C251.346 137.563 251.816 137.472 252.296 137.472C253.416 137.472 254.274 137.824 254.872 138.528C255.469 139.221 255.767 140.283 255.767 141.712C255.767 141.776 255.767 141.861 255.767 141.968C255.767 142.064 255.762 142.155 255.752 142.24H250.056C250.12 143.104 250.37 143.76 250.808 144.208C251.245 144.656 251.928 144.88 252.856 144.88C253.378 144.88 253.816 144.837 254.168 144.752C254.53 144.656 254.802 144.565 254.984 144.48L255.192 145.728C255.01 145.824 254.69 145.925 254.232 146.032C253.784 146.139 253.272 146.192 252.696 146.192C251.97 146.192 251.341 146.085 250.808 145.872C250.285 145.648 249.853 145.344 249.512 144.96C249.17 144.576 248.914 144.123 248.743 143.6C248.584 143.067 248.504 142.485 248.504 141.856ZM254.216 141.04C254.226 140.368 254.056 139.819 253.704 139.392C253.362 138.955 252.888 138.736 252.28 138.736C251.938 138.736 251.634 138.805 251.368 138.944C251.112 139.072 250.893 139.243 250.712 139.456C250.53 139.669 250.386 139.915 250.28 140.192C250.184 140.469 250.12 140.752 250.088 141.04H254.216ZM264.856 133.584C265.293 133.584 265.667 133.616 265.976 133.68C266.296 133.744 266.52 133.803 266.648 133.856L266.376 135.136C266.248 135.072 266.067 135.013 265.832 134.96C265.597 134.896 265.309 134.864 264.968 134.864C264.275 134.864 263.789 135.056 263.512 135.44C263.235 135.813 263.096 136.32 263.096 136.96V137.68H266.296V138.928H263.096V146H261.608V136.928C261.608 135.861 261.869 135.04 262.392 134.464C262.915 133.877 263.736 133.584 264.856 133.584ZM275.124 141.84C275.124 142.501 275.028 143.099 274.836 143.632C274.644 144.165 274.372 144.624 274.02 145.008C273.679 145.392 273.268 145.691 272.788 145.904C272.308 146.107 271.785 146.208 271.22 146.208C270.655 146.208 270.132 146.107 269.652 145.904C269.172 145.691 268.756 145.392 268.404 145.008C268.063 144.624 267.796 144.165 267.604 143.632C267.412 143.099 267.316 142.501 267.316 141.84C267.316 141.189 267.412 140.597 267.604 140.064C267.796 139.52 268.063 139.056 268.404 138.672C268.756 138.288 269.172 137.995 269.652 137.792C270.132 137.579 270.655 137.472 271.22 137.472C271.785 137.472 272.308 137.579 272.788 137.792C273.268 137.995 273.679 138.288 274.02 138.672C274.372 139.056 274.644 139.52 274.836 140.064C275.028 140.597 275.124 141.189 275.124 141.84ZM273.572 141.84C273.572 140.901 273.359 140.16 272.932 139.616C272.516 139.061 271.945 138.784 271.22 138.784C270.495 138.784 269.919 139.061 269.492 139.616C269.076 140.16 268.868 140.901 268.868 141.84C268.868 142.779 269.076 143.525 269.492 144.08C269.919 144.624 270.495 144.896 271.22 144.896C271.945 144.896 272.516 144.624 272.932 144.08C273.359 143.525 273.572 142.779 273.572 141.84ZM280.29 137.504C280.418 137.504 280.562 137.515 280.722 137.536C280.892 137.547 281.058 137.568 281.218 137.6C281.378 137.621 281.522 137.648 281.65 137.68C281.788 137.701 281.89 137.723 281.954 137.744L281.698 139.04C281.58 138.997 281.383 138.949 281.106 138.896C280.839 138.832 280.492 138.8 280.066 138.8C279.788 138.8 279.511 138.832 279.234 138.896C278.967 138.949 278.791 138.987 278.706 139.008V146H277.218V138.032C277.57 137.904 278.007 137.787 278.53 137.68C279.052 137.563 279.639 137.504 280.29 137.504ZM283.389 137.92C283.731 137.835 284.179 137.744 284.733 137.648C285.299 137.552 285.949 137.504 286.685 137.504C287.219 137.504 287.667 137.579 288.029 137.728C288.392 137.867 288.696 138.075 288.941 138.352C289.016 138.299 289.133 138.224 289.293 138.128C289.453 138.032 289.651 137.941 289.885 137.856C290.12 137.76 290.381 137.68 290.669 137.616C290.957 137.541 291.267 137.504 291.597 137.504C292.237 137.504 292.76 137.6 293.165 137.792C293.571 137.973 293.885 138.235 294.109 138.576C294.344 138.917 294.499 139.323 294.573 139.792C294.659 140.261 294.701 140.773 294.701 141.328V146H293.213V141.648C293.213 141.157 293.187 140.736 293.133 140.384C293.091 140.032 293 139.739 292.861 139.504C292.733 139.269 292.552 139.099 292.317 138.992C292.093 138.875 291.8 138.816 291.437 138.816C290.936 138.816 290.52 138.885 290.189 139.024C289.869 139.152 289.651 139.269 289.533 139.376C289.619 139.653 289.683 139.957 289.725 140.288C289.768 140.619 289.789 140.965 289.789 141.328V146H288.301V141.648C288.301 141.157 288.275 140.736 288.221 140.384C288.168 140.032 288.072 139.739 287.933 139.504C287.805 139.269 287.624 139.099 287.389 138.992C287.165 138.875 286.877 138.816 286.525 138.816C286.376 138.816 286.216 138.821 286.045 138.832C285.875 138.843 285.709 138.859 285.549 138.88C285.4 138.891 285.261 138.907 285.133 138.928C285.005 138.949 284.92 138.965 284.877 138.976V146H283.389V137.92Z" fill="white"/>
  <path d="M49.7185 111.44C49.5372 111.291 49.2758 111.147 48.9345 111.008C48.5932 110.869 48.2198 110.8 47.8145 110.8C47.3878 110.8 47.0198 110.88 46.7105 111.04C46.4118 111.189 46.1665 111.403 45.9745 111.68C45.7825 111.947 45.6438 112.267 45.5585 112.64C45.4732 113.013 45.4305 113.413 45.4305 113.84C45.4305 114.811 45.6705 115.563 46.1505 116.096C46.6305 116.619 47.2705 116.88 48.0705 116.88C48.4758 116.88 48.8118 116.864 49.0785 116.832C49.3558 116.789 49.5692 116.747 49.7185 116.704V111.44ZM49.7185 105.84L51.2065 105.584V117.76C50.8652 117.856 50.4278 117.952 49.8945 118.048C49.3612 118.144 48.7478 118.192 48.0545 118.192C47.4145 118.192 46.8385 118.091 46.3265 117.888C45.8145 117.685 45.3772 117.397 45.0145 117.024C44.6518 116.651 44.3692 116.197 44.1665 115.664C43.9745 115.12 43.8785 114.512 43.8785 113.84C43.8785 113.2 43.9585 112.613 44.1185 112.08C44.2892 111.547 44.5345 111.088 44.8545 110.704C45.1745 110.32 45.5638 110.021 46.0225 109.808C46.4918 109.595 47.0252 109.488 47.6225 109.488C48.1025 109.488 48.5238 109.552 48.8865 109.68C49.2598 109.808 49.5372 109.931 49.7185 110.048V105.84ZM61.1084 113.84C61.1084 114.501 61.0124 115.099 60.8204 115.632C60.6284 116.165 60.3564 116.624 60.0044 117.008C59.663 117.392 59.2524 117.691 58.7724 117.904C58.2924 118.107 57.7697 118.208 57.2044 118.208C56.639 118.208 56.1164 118.107 55.6364 117.904C55.1564 117.691 54.7404 117.392 54.3884 117.008C54.047 116.624 53.7804 116.165 53.5884 115.632C53.3964 115.099 53.3004 114.501 53.3004 113.84C53.3004 113.189 53.3964 112.597 53.5884 112.064C53.7804 111.52 54.047 111.056 54.3884 110.672C54.7404 110.288 55.1564 109.995 55.6364 109.792C56.1164 109.579 56.639 109.472 57.2044 109.472C57.7697 109.472 58.2924 109.579 58.7724 109.792C59.2524 109.995 59.663 110.288 60.0044 110.672C60.3564 111.056 60.6284 111.52 60.8204 112.064C61.0124 112.597 61.1084 113.189 61.1084 113.84ZM59.5564 113.84C59.5564 112.901 59.343 112.16 58.9164 111.616C58.5004 111.061 57.9297 110.784 57.2044 110.784C56.479 110.784 55.903 111.061 55.4764 111.616C55.0604 112.16 54.8524 112.901 54.8524 113.84C54.8524 114.779 55.0604 115.525 55.4764 116.08C55.903 116.624 56.479 116.896 57.2044 116.896C57.9297 116.896 58.5004 116.624 58.9164 116.08C59.343 115.525 59.5564 114.779 59.5564 113.84ZM69.7987 118C69.5001 117.232 69.1801 116.357 68.8388 115.376C68.5081 114.384 68.2041 113.355 67.9268 112.288C67.6494 113.355 67.3454 114.384 67.0148 115.376C66.6841 116.357 66.3694 117.232 66.0708 118H64.7748C64.2841 116.901 63.8041 115.648 63.3348 114.24C62.8654 112.832 62.4228 111.312 62.0068 109.68H63.6068C63.7134 110.181 63.8414 110.725 63.9908 111.312C64.1401 111.899 64.2948 112.485 64.4548 113.072C64.6254 113.659 64.8014 114.224 64.9828 114.768C65.1641 115.312 65.3348 115.787 65.4948 116.192C65.6761 115.691 65.8521 115.163 66.0228 114.608C66.2041 114.043 66.3748 113.477 66.5348 112.912C66.6948 112.336 66.8441 111.776 66.9828 111.232C67.1321 110.677 67.2601 110.16 67.3668 109.68H68.5988C68.6948 110.16 68.8121 110.677 68.9508 111.232C69.0894 111.776 69.2388 112.336 69.3988 112.912C69.5588 113.477 69.7241 114.043 69.8948 114.608C70.0761 115.163 70.2574 115.691 70.4388 116.192C70.5988 115.787 70.7641 115.312 70.9348 114.768C71.1161 114.224 71.2921 113.659 71.4628 113.072C71.6334 112.485 71.7934 111.899 71.9428 111.312C72.0921 110.725 72.2201 110.181 72.3268 109.68H73.8628C73.4468 111.312 73.0041 112.832 72.5348 114.24C72.0654 115.648 71.5854 116.901 71.0948 118H69.7987ZM75.4363 109.92C75.7776 109.835 76.2309 109.744 76.7963 109.648C77.3616 109.552 78.0123 109.504 78.7483 109.504C79.4096 109.504 79.9589 109.6 80.3963 109.792C80.8336 109.973 81.1803 110.235 81.4363 110.576C81.7029 110.907 81.8896 111.307 81.9963 111.776C82.1029 112.245 82.1562 112.763 82.1562 113.328V118H80.6683V113.648C80.6683 113.136 80.6309 112.699 80.5563 112.336C80.4923 111.973 80.3803 111.68 80.2203 111.456C80.0603 111.232 79.8469 111.072 79.5803 110.976C79.3136 110.869 78.9829 110.816 78.5883 110.816C78.4283 110.816 78.2629 110.821 78.0923 110.832C77.9216 110.843 77.7563 110.859 77.5963 110.88C77.4469 110.891 77.3083 110.907 77.1803 110.928C77.0629 110.949 76.9776 110.965 76.9243 110.976V118H75.4363V109.92ZM87.1198 118.16C86.2024 118.139 85.5518 117.941 85.1678 117.568C84.7838 117.195 84.5918 116.613 84.5918 115.824V105.84L86.0798 105.584V115.584C86.0798 115.829 86.1011 116.032 86.1438 116.192C86.1864 116.352 86.2558 116.48 86.3518 116.576C86.4478 116.672 86.5758 116.747 86.7358 116.8C86.8958 116.843 87.0931 116.88 87.3278 116.912L87.1198 118.16ZM96.3428 113.84C96.3428 114.501 96.2468 115.099 96.0548 115.632C95.8628 116.165 95.5908 116.624 95.2388 117.008C94.8974 117.392 94.4868 117.691 94.0068 117.904C93.5268 118.107 93.0041 118.208 92.4388 118.208C91.8734 118.208 91.3508 118.107 90.8708 117.904C90.3908 117.691 89.9748 117.392 89.6228 117.008C89.2814 116.624 89.0148 116.165 88.8228 115.632C88.6308 115.099 88.5348 114.501 88.5348 113.84C88.5348 113.189 88.6308 112.597 88.8228 112.064C89.0148 111.52 89.2814 111.056 89.6228 110.672C89.9748 110.288 90.3908 109.995 90.8708 109.792C91.3508 109.579 91.8734 109.472 92.4388 109.472C93.0041 109.472 93.5268 109.579 94.0068 109.792C94.4868 109.995 94.8974 110.288 95.2388 110.672C95.5908 111.056 95.8628 111.52 96.0548 112.064C96.2468 112.597 96.3428 113.189 96.3428 113.84ZM94.7908 113.84C94.7908 112.901 94.5774 112.16 94.1508 111.616C93.7348 111.061 93.1641 110.784 92.4388 110.784C91.7134 110.784 91.1374 111.061 90.7108 111.616C90.2948 112.16 90.0868 112.901 90.0868 113.84C90.0868 114.779 90.2948 115.525 90.7108 116.08C91.1374 116.624 91.7134 116.896 92.4388 116.896C93.1641 116.896 93.7348 116.624 94.1508 116.08C94.5774 115.525 94.7908 114.779 94.7908 113.84ZM101.252 116.928C101.604 116.928 101.914 116.923 102.18 116.912C102.458 116.891 102.687 116.859 102.868 116.816V114.336C102.762 114.283 102.586 114.24 102.34 114.208C102.106 114.165 101.818 114.144 101.476 114.144C101.252 114.144 101.012 114.16 100.756 114.192C100.511 114.224 100.282 114.293 100.068 114.4C99.8656 114.496 99.6949 114.635 99.5563 114.816C99.4176 114.987 99.3483 115.216 99.3483 115.504C99.3483 116.037 99.5189 116.411 99.8603 116.624C100.202 116.827 100.666 116.928 101.252 116.928ZM101.124 109.472C101.722 109.472 102.223 109.552 102.628 109.712C103.044 109.861 103.375 110.08 103.62 110.368C103.876 110.645 104.058 110.981 104.164 111.376C104.271 111.76 104.324 112.187 104.324 112.656V117.856C104.196 117.877 104.015 117.909 103.78 117.952C103.556 117.984 103.3 118.016 103.012 118.048C102.724 118.08 102.41 118.107 102.068 118.128C101.738 118.16 101.407 118.176 101.076 118.176C100.607 118.176 100.175 118.128 99.7803 118.032C99.3856 117.936 99.0443 117.787 98.7563 117.584C98.4683 117.371 98.2443 117.093 98.0843 116.752C97.9243 116.411 97.8443 116 97.8443 115.52C97.8443 115.061 97.9349 114.667 98.1163 114.336C98.3083 114.005 98.5643 113.739 98.8843 113.536C99.2043 113.333 99.5776 113.184 100.004 113.088C100.431 112.992 100.879 112.944 101.348 112.944C101.498 112.944 101.652 112.955 101.812 112.976C101.972 112.987 102.122 113.008 102.26 113.04C102.41 113.061 102.538 113.083 102.644 113.104C102.751 113.125 102.826 113.141 102.868 113.152V112.736C102.868 112.491 102.842 112.251 102.788 112.016C102.735 111.771 102.639 111.557 102.5 111.376C102.362 111.184 102.17 111.035 101.924 110.928C101.69 110.811 101.38 110.752 100.996 110.752C100.506 110.752 100.074 110.789 99.7003 110.864C99.3376 110.928 99.0656 110.997 98.8843 111.072L98.7083 109.84C98.9003 109.755 99.2203 109.675 99.6683 109.6C100.116 109.515 100.602 109.472 101.124 109.472ZM112.172 111.44C111.99 111.291 111.729 111.147 111.388 111.008C111.046 110.869 110.673 110.8 110.268 110.8C109.841 110.8 109.473 110.88 109.164 111.04C108.865 111.189 108.62 111.403 108.428 111.68C108.236 111.947 108.097 112.267 108.012 112.64C107.926 113.013 107.884 113.413 107.884 113.84C107.884 114.811 108.124 115.563 108.604 116.096C109.084 116.619 109.724 116.88 110.524 116.88C110.929 116.88 111.265 116.864 111.532 116.832C111.809 116.789 112.022 116.747 112.172 116.704V111.44ZM112.172 105.84L113.66 105.584V117.76C113.318 117.856 112.881 117.952 112.348 118.048C111.814 118.144 111.201 118.192 110.508 118.192C109.868 118.192 109.292 118.091 108.78 117.888C108.268 117.685 107.83 117.397 107.468 117.024C107.105 116.651 106.822 116.197 106.62 115.664C106.428 115.12 106.332 114.512 106.332 113.84C106.332 113.2 106.412 112.613 106.572 112.08C106.742 111.547 106.988 111.088 107.308 110.704C107.628 110.32 108.017 110.021 108.476 109.808C108.945 109.595 109.478 109.488 110.076 109.488C110.556 109.488 110.977 109.552 111.34 109.68C111.713 109.808 111.99 109.931 112.172 110.048V105.84ZM69.4944 144.928C69.8464 144.928 70.1558 144.923 70.4224 144.912C70.6998 144.891 70.9291 144.859 71.1104 144.816V142.336C71.0038 142.283 70.8278 142.24 70.5824 142.208C70.3478 142.165 70.0598 142.144 69.7184 142.144C69.4944 142.144 69.2544 142.16 68.9984 142.192C68.7531 142.224 68.5238 142.293 68.3104 142.4C68.1078 142.496 67.9371 142.635 67.7984 142.816C67.6598 142.987 67.5904 143.216 67.5904 143.504C67.5904 144.037 67.7611 144.411 68.1024 144.624C68.4438 144.827 68.9078 144.928 69.4944 144.928ZM69.3664 137.472C69.9638 137.472 70.4651 137.552 70.8704 137.712C71.2864 137.861 71.6171 138.08 71.8624 138.368C72.1184 138.645 72.2998 138.981 72.4064 139.376C72.5131 139.76 72.5664 140.187 72.5664 140.656V145.856C72.4384 145.877 72.2571 145.909 72.0224 145.952C71.7984 145.984 71.5424 146.016 71.2544 146.048C70.9664 146.08 70.6518 146.107 70.3104 146.128C69.9798 146.16 69.6491 146.176 69.3184 146.176C68.8491 146.176 68.4171 146.128 68.0224 146.032C67.6278 145.936 67.2864 145.787 66.9984 145.584C66.7104 145.371 66.4864 145.093 66.3264 144.752C66.1664 144.411 66.0864 144 66.0864 143.52C66.0864 143.061 66.1771 142.667 66.3584 142.336C66.5504 142.005 66.8064 141.739 67.1264 141.536C67.4464 141.333 67.8198 141.184 68.2464 141.088C68.6731 140.992 69.1211 140.944 69.5904 140.944C69.7398 140.944 69.8944 140.955 70.0544 140.976C70.2144 140.987 70.3638 141.008 70.5024 141.04C70.6518 141.061 70.7798 141.083 70.8864 141.104C70.9931 141.125 71.0678 141.141 71.1104 141.152V140.736C71.1104 140.491 71.0838 140.251 71.0304 140.016C70.9771 139.771 70.8811 139.557 70.7424 139.376C70.6038 139.184 70.4118 139.035 70.1664 138.928C69.9318 138.811 69.6224 138.752 69.2384 138.752C68.7478 138.752 68.3158 138.789 67.9424 138.864C67.5798 138.928 67.3078 138.997 67.1264 139.072L66.9504 137.84C67.1424 137.755 67.4624 137.675 67.9104 137.6C68.3584 137.515 68.8438 137.472 69.3664 137.472ZM80.8138 141.856C80.8138 140.885 80.5738 140.139 80.0938 139.616C79.6138 139.093 78.9738 138.832 78.1738 138.832C77.7258 138.832 77.3738 138.848 77.1178 138.88C76.8725 138.912 76.6751 138.949 76.5258 138.992V144.24C76.7071 144.389 76.9685 144.533 77.3098 144.672C77.6511 144.811 78.0245 144.88 78.4298 144.88C78.8565 144.88 79.2191 144.805 79.5178 144.656C79.8271 144.496 80.0778 144.283 80.2698 144.016C80.4618 143.739 80.6005 143.419 80.6858 143.056C80.7711 142.683 80.8138 142.283 80.8138 141.856ZM82.3658 141.856C82.3658 142.485 82.2805 143.067 82.1098 143.6C81.9498 144.133 81.7098 144.592 81.3898 144.976C81.0698 145.36 80.6751 145.659 80.2058 145.872C79.7471 146.085 79.2191 146.192 78.6218 146.192C78.1418 146.192 77.7151 146.128 77.3418 146C76.9791 145.872 76.7071 145.749 76.5258 145.632V148.96H75.0378V137.936C75.3898 137.851 75.8271 137.76 76.3498 137.664C76.8831 137.557 77.4965 137.504 78.1898 137.504C78.8298 137.504 79.4058 137.605 79.9178 137.808C80.4298 138.011 80.8671 138.299 81.2298 138.672C81.5925 139.045 81.8698 139.504 82.0618 140.048C82.2645 140.581 82.3658 141.184 82.3658 141.856ZM90.2357 141.856C90.2357 140.885 89.9957 140.139 89.5157 139.616C89.0357 139.093 88.3957 138.832 87.5957 138.832C87.1477 138.832 86.7957 138.848 86.5397 138.88C86.2944 138.912 86.097 138.949 85.9477 138.992V144.24C86.129 144.389 86.3904 144.533 86.7317 144.672C87.073 144.811 87.4464 144.88 87.8517 144.88C88.2784 144.88 88.641 144.805 88.9397 144.656C89.249 144.496 89.4997 144.283 89.6917 144.016C89.8837 143.739 90.0224 143.419 90.1077 143.056C90.193 142.683 90.2357 142.283 90.2357 141.856ZM91.7877 141.856C91.7877 142.485 91.7024 143.067 91.5317 143.6C91.3717 144.133 91.1317 144.592 90.8117 144.976C90.4917 145.36 90.097 145.659 89.6277 145.872C89.169 146.085 88.641 146.192 88.0437 146.192C87.5637 146.192 87.137 146.128 86.7637 146C86.401 145.872 86.129 145.749 85.9477 145.632V148.96H84.4597V137.936C84.8117 137.851 85.249 137.76 85.7717 137.664C86.305 137.557 86.9184 137.504 87.6117 137.504C88.2517 137.504 88.8277 137.605 89.3397 137.808C89.8517 138.011 90.289 138.299 90.6517 138.672C91.0144 139.045 91.2917 139.504 91.4837 140.048C91.6864 140.581 91.7877 141.184 91.7877 141.856Z" fill="white"/>
  <path d="M389.404 118.928C390.012 118.928 390.46 118.848 390.748 118.688C391.046 118.528 391.196 118.272 391.196 117.92C391.196 117.557 391.052 117.269 390.764 117.056C390.476 116.843 390.001 116.603 389.34 116.336C389.02 116.208 388.71 116.08 388.412 115.952C388.124 115.813 387.873 115.653 387.66 115.472C387.446 115.291 387.276 115.072 387.148 114.816C387.02 114.56 386.956 114.245 386.956 113.872C386.956 113.136 387.228 112.555 387.772 112.128C388.316 111.691 389.057 111.472 389.996 111.472C390.23 111.472 390.465 111.488 390.7 111.52C390.934 111.541 391.153 111.573 391.356 111.616C391.558 111.648 391.734 111.685 391.884 111.728C392.044 111.771 392.166 111.808 392.252 111.84L391.98 113.12C391.82 113.035 391.569 112.949 391.228 112.864C390.886 112.768 390.476 112.72 389.996 112.72C389.58 112.72 389.217 112.805 388.908 112.976C388.598 113.136 388.444 113.392 388.444 113.744C388.444 113.925 388.476 114.085 388.539 114.224C388.614 114.363 388.721 114.491 388.86 114.608C389.009 114.715 389.19 114.816 389.404 114.912C389.617 115.008 389.873 115.109 390.172 115.216C390.566 115.365 390.918 115.515 391.228 115.664C391.537 115.803 391.798 115.968 392.012 116.16C392.236 116.352 392.406 116.587 392.524 116.864C392.641 117.131 392.7 117.461 392.7 117.856C392.7 118.624 392.412 119.205 391.836 119.6C391.27 119.995 390.46 120.192 389.404 120.192C388.668 120.192 388.092 120.128 387.676 120C387.26 119.883 386.977 119.792 386.828 119.728L387.1 118.448C387.27 118.512 387.542 118.608 387.916 118.736C388.289 118.864 388.785 118.928 389.404 118.928ZM398.224 120.192C397.552 120.192 396.96 120.085 396.448 119.872C395.947 119.659 395.52 119.36 395.168 118.976C394.827 118.592 394.571 118.139 394.4 117.616C394.229 117.083 394.144 116.496 394.144 115.856C394.144 115.216 394.235 114.629 394.416 114.096C394.608 113.563 394.875 113.104 395.216 112.72C395.557 112.325 395.973 112.021 396.464 111.808C396.965 111.584 397.52 111.472 398.128 111.472C398.501 111.472 398.875 111.504 399.248 111.568C399.621 111.632 399.979 111.733 400.32 111.872L399.984 113.136C399.76 113.029 399.499 112.944 399.2 112.88C398.912 112.816 398.603 112.784 398.272 112.784C397.44 112.784 396.8 113.045 396.352 113.568C395.915 114.091 395.696 114.853 395.696 115.856C395.696 116.304 395.744 116.715 395.84 117.088C395.947 117.461 396.107 117.781 396.32 118.048C396.544 118.315 396.827 118.523 397.168 118.672C397.509 118.811 397.925 118.88 398.416 118.88C398.811 118.88 399.168 118.843 399.488 118.768C399.808 118.693 400.059 118.613 400.24 118.528L400.448 119.776C400.363 119.829 400.24 119.883 400.08 119.936C399.92 119.979 399.739 120.016 399.536 120.048C399.333 120.091 399.115 120.123 398.88 120.144C398.656 120.176 398.437 120.192 398.224 120.192ZM402.046 120V107.84L403.534 107.584V111.84C403.811 111.733 404.104 111.653 404.414 111.6C404.734 111.536 405.048 111.504 405.358 111.504C406.019 111.504 406.568 111.6 407.006 111.792C407.443 111.973 407.79 112.235 408.046 112.576C408.312 112.907 408.499 113.307 408.606 113.776C408.712 114.245 408.766 114.763 408.766 115.328V120H407.278V115.648C407.278 115.136 407.24 114.699 407.166 114.336C407.102 113.973 406.99 113.68 406.83 113.456C406.67 113.232 406.456 113.072 406.19 112.976C405.923 112.869 405.592 112.816 405.198 112.816C405.038 112.816 404.872 112.827 404.702 112.848C404.531 112.869 404.366 112.896 404.206 112.928C404.056 112.949 403.918 112.976 403.79 113.008C403.672 113.04 403.587 113.067 403.534 113.088V120H402.046ZM410.722 115.856C410.722 115.12 410.829 114.48 411.042 113.936C411.256 113.381 411.538 112.923 411.89 112.56C412.242 112.197 412.648 111.925 413.106 111.744C413.565 111.563 414.034 111.472 414.514 111.472C415.634 111.472 416.493 111.824 417.09 112.528C417.688 113.221 417.986 114.283 417.986 115.712C417.986 115.776 417.986 115.861 417.986 115.968C417.986 116.064 417.981 116.155 417.97 116.24H412.274C412.338 117.104 412.589 117.76 413.026 118.208C413.464 118.656 414.146 118.88 415.074 118.88C415.597 118.88 416.034 118.837 416.386 118.752C416.749 118.656 417.021 118.565 417.202 118.48L417.41 119.728C417.229 119.824 416.909 119.925 416.45 120.032C416.002 120.139 415.49 120.192 414.914 120.192C414.189 120.192 413.56 120.085 413.026 119.872C412.504 119.648 412.072 119.344 411.73 118.96C411.389 118.576 411.133 118.123 410.962 117.6C410.802 117.067 410.722 116.485 410.722 115.856ZM416.434 115.04C416.445 114.368 416.274 113.819 415.922 113.392C415.581 112.955 415.106 112.736 414.498 112.736C414.157 112.736 413.853 112.805 413.586 112.944C413.33 113.072 413.112 113.243 412.93 113.456C412.749 113.669 412.605 113.915 412.498 114.192C412.402 114.469 412.338 114.752 412.306 115.04H416.434ZM425.5 113.44C425.318 113.291 425.057 113.147 424.716 113.008C424.374 112.869 424.001 112.8 423.596 112.8C423.169 112.8 422.801 112.88 422.492 113.04C422.193 113.189 421.948 113.403 421.756 113.68C421.564 113.947 421.425 114.267 421.34 114.64C421.254 115.013 421.212 115.413 421.212 115.84C421.212 116.811 421.452 117.563 421.932 118.096C422.412 118.619 423.052 118.88 423.852 118.88C424.257 118.88 424.593 118.864 424.86 118.832C425.137 118.789 425.35 118.747 425.5 118.704V113.44ZM425.5 107.84L426.988 107.584V119.76C426.646 119.856 426.209 119.952 425.676 120.048C425.142 120.144 424.529 120.192 423.836 120.192C423.196 120.192 422.62 120.091 422.108 119.888C421.596 119.685 421.158 119.397 420.796 119.024C420.433 118.651 420.15 118.197 419.948 117.664C419.756 117.12 419.66 116.512 419.66 115.84C419.66 115.2 419.74 114.613 419.9 114.08C420.07 113.547 420.316 113.088 420.636 112.704C420.956 112.32 421.345 112.021 421.804 111.808C422.273 111.595 422.806 111.488 423.404 111.488C423.884 111.488 424.305 111.552 424.668 111.68C425.041 111.808 425.318 111.931 425.5 112.048V107.84ZM436.17 119.76C435.828 119.845 435.375 119.936 434.81 120.032C434.255 120.128 433.61 120.176 432.874 120.176C432.234 120.176 431.695 120.085 431.258 119.904C430.82 119.712 430.468 119.445 430.202 119.104C429.935 118.763 429.743 118.363 429.626 117.904C429.508 117.435 429.45 116.917 429.45 116.352V111.68H430.938V116.032C430.938 117.045 431.098 117.771 431.418 118.208C431.738 118.645 432.276 118.864 433.034 118.864C433.194 118.864 433.359 118.859 433.53 118.848C433.7 118.837 433.86 118.827 434.01 118.816C434.159 118.795 434.292 118.779 434.41 118.768C434.538 118.747 434.628 118.725 434.682 118.704V111.68H436.17V119.76ZM441.229 120.16C440.312 120.139 439.661 119.941 439.277 119.568C438.893 119.195 438.701 118.613 438.701 117.824V107.84L440.189 107.584V117.584C440.189 117.829 440.21 118.032 440.253 118.192C440.296 118.352 440.365 118.48 440.461 118.576C440.557 118.672 440.685 118.747 440.845 118.8C441.005 118.843 441.202 118.88 441.437 118.912L441.229 120.16ZM442.644 115.856C442.644 115.12 442.751 114.48 442.964 113.936C443.177 113.381 443.46 112.923 443.812 112.56C444.164 112.197 444.569 111.925 445.028 111.744C445.487 111.563 445.956 111.472 446.436 111.472C447.556 111.472 448.415 111.824 449.012 112.528C449.609 113.221 449.908 114.283 449.908 115.712C449.908 115.776 449.908 115.861 449.908 115.968C449.908 116.064 449.903 116.155 449.892 116.24H444.196C444.26 117.104 444.511 117.76 444.948 118.208C445.385 118.656 446.068 118.88 446.996 118.88C447.519 118.88 447.956 118.837 448.308 118.752C448.671 118.656 448.943 118.565 449.124 118.48L449.332 119.728C449.151 119.824 448.831 119.925 448.372 120.032C447.924 120.139 447.412 120.192 446.836 120.192C446.111 120.192 445.481 120.085 444.948 119.872C444.425 119.648 443.993 119.344 443.652 118.96C443.311 118.576 443.055 118.123 442.884 117.6C442.724 117.067 442.644 116.485 442.644 115.856ZM448.356 115.04C448.367 114.368 448.196 113.819 447.844 113.392C447.503 112.955 447.028 112.736 446.42 112.736C446.079 112.736 445.775 112.805 445.508 112.944C445.252 113.072 445.033 113.243 444.852 113.456C444.671 113.669 444.527 113.915 444.42 114.192C444.324 114.469 444.26 114.752 444.228 115.04H448.356ZM457.141 111.68H460.293V112.928H457.141V116.768C457.141 117.184 457.173 117.531 457.237 117.808C457.301 118.075 457.397 118.288 457.525 118.448C457.653 118.597 457.813 118.704 458.005 118.768C458.197 118.832 458.421 118.864 458.677 118.864C459.125 118.864 459.482 118.816 459.749 118.72C460.026 118.613 460.218 118.539 460.325 118.496L460.613 119.728C460.463 119.803 460.202 119.893 459.829 120C459.455 120.117 459.029 120.176 458.549 120.176C457.983 120.176 457.514 120.107 457.141 119.968C456.778 119.819 456.485 119.6 456.261 119.312C456.037 119.024 455.877 118.672 455.781 118.256C455.695 117.829 455.653 117.339 455.653 116.784V109.36L457.141 109.104V111.68ZM463.674 120H462.186V111.68H463.674V120ZM462.922 110.176C462.656 110.176 462.426 110.091 462.234 109.92C462.053 109.739 461.962 109.499 461.962 109.2C461.962 108.901 462.053 108.667 462.234 108.496C462.426 108.315 462.656 108.224 462.922 108.224C463.189 108.224 463.413 108.315 463.594 108.496C463.786 108.667 463.882 108.901 463.882 109.2C463.882 109.499 463.786 109.739 463.594 109.92C463.413 110.091 463.189 110.176 462.922 110.176ZM466.233 111.92C466.574 111.835 467.022 111.744 467.577 111.648C468.142 111.552 468.793 111.504 469.529 111.504C470.062 111.504 470.51 111.579 470.873 111.728C471.236 111.867 471.54 112.075 471.785 112.352C471.86 112.299 471.977 112.224 472.137 112.128C472.297 112.032 472.494 111.941 472.729 111.856C472.964 111.76 473.225 111.68 473.513 111.616C473.801 111.541 474.11 111.504 474.441 111.504C475.081 111.504 475.604 111.6 476.009 111.792C476.414 111.973 476.729 112.235 476.953 112.576C477.188 112.917 477.342 113.323 477.417 113.792C477.502 114.261 477.545 114.773 477.545 115.328V120H476.057V115.648C476.057 115.157 476.03 114.736 475.977 114.384C475.934 114.032 475.844 113.739 475.705 113.504C475.577 113.269 475.396 113.099 475.161 112.992C474.937 112.875 474.644 112.816 474.281 112.816C473.78 112.816 473.364 112.885 473.033 113.024C472.713 113.152 472.494 113.269 472.377 113.376C472.462 113.653 472.526 113.957 472.569 114.288C472.612 114.619 472.633 114.965 472.633 115.328V120H471.145V115.648C471.145 115.157 471.118 114.736 471.065 114.384C471.012 114.032 470.916 113.739 470.777 113.504C470.649 113.269 470.468 113.099 470.233 112.992C470.009 112.875 469.721 112.816 469.369 112.816C469.22 112.816 469.06 112.821 468.889 112.832C468.718 112.843 468.553 112.859 468.393 112.88C468.244 112.891 468.105 112.907 467.977 112.928C467.849 112.949 467.764 112.965 467.721 112.976V120H466.233V111.92ZM479.55 115.856C479.55 115.12 479.657 114.48 479.87 113.936C480.084 113.381 480.366 112.923 480.718 112.56C481.07 112.197 481.476 111.925 481.934 111.744C482.393 111.563 482.862 111.472 483.342 111.472C484.462 111.472 485.321 111.824 485.918 112.528C486.516 113.221 486.814 114.283 486.814 115.712C486.814 115.776 486.814 115.861 486.814 115.968C486.814 116.064 486.809 116.155 486.798 116.24H481.102C481.166 117.104 481.417 117.76 481.854 118.208C482.292 118.656 482.974 118.88 483.902 118.88C484.425 118.88 484.862 118.837 485.214 118.752C485.577 118.656 485.849 118.565 486.03 118.48L486.238 119.728C486.057 119.824 485.737 119.925 485.278 120.032C484.83 120.139 484.318 120.192 483.742 120.192C483.017 120.192 482.388 120.085 481.854 119.872C481.332 119.648 480.9 119.344 480.558 118.96C480.217 118.576 479.961 118.123 479.79 117.6C479.63 117.067 479.55 116.485 479.55 115.856ZM485.262 115.04C485.273 114.368 485.102 113.819 484.75 113.392C484.409 112.955 483.934 112.736 483.326 112.736C482.985 112.736 482.681 112.805 482.414 112.944C482.158 113.072 481.94 113.243 481.758 113.456C481.577 113.669 481.433 113.915 481.326 114.192C481.23 114.469 481.166 114.752 481.134 115.04H485.262ZM499.151 111.68C498.735 113.237 498.244 114.731 497.679 116.16C497.124 117.589 496.586 118.869 496.063 120H494.719C494.196 118.869 493.652 117.589 493.087 116.16C492.532 114.731 492.047 113.237 491.631 111.68H493.231C493.359 112.203 493.508 112.763 493.679 113.36C493.86 113.947 494.047 114.533 494.239 115.12C494.442 115.696 494.644 116.256 494.847 116.8C495.05 117.344 495.242 117.829 495.423 118.256C495.604 117.829 495.796 117.344 495.999 116.8C496.202 116.256 496.399 115.696 496.591 115.12C496.794 114.533 496.98 113.947 497.151 113.36C497.332 112.763 497.487 112.203 497.615 111.68H499.151ZM502.174 120H500.686V111.68H502.174V120ZM501.422 110.176C501.156 110.176 500.926 110.091 500.734 109.92C500.553 109.739 500.462 109.499 500.462 109.2C500.462 108.901 500.553 108.667 500.734 108.496C500.926 108.315 501.156 108.224 501.422 108.224C501.689 108.224 501.913 108.315 502.094 108.496C502.286 108.667 502.382 108.901 502.382 109.2C502.382 109.499 502.286 109.739 502.094 109.92C501.913 110.091 501.689 110.176 501.422 110.176ZM507.549 118.928C507.901 118.928 508.21 118.923 508.477 118.912C508.754 118.891 508.984 118.859 509.165 118.816V116.336C509.058 116.283 508.882 116.24 508.637 116.208C508.402 116.165 508.114 116.144 507.773 116.144C507.549 116.144 507.309 116.16 507.053 116.192C506.808 116.224 506.578 116.293 506.365 116.4C506.162 116.496 505.992 116.635 505.853 116.816C505.714 116.987 505.645 117.216 505.645 117.504C505.645 118.037 505.816 118.411 506.157 118.624C506.498 118.827 506.962 118.928 507.549 118.928ZM507.421 111.472C508.018 111.472 508.52 111.552 508.925 111.712C509.341 111.861 509.672 112.08 509.917 112.368C510.173 112.645 510.354 112.981 510.461 113.376C510.568 113.76 510.621 114.187 510.621 114.656V119.856C510.493 119.877 510.312 119.909 510.077 119.952C509.853 119.984 509.597 120.016 509.309 120.048C509.021 120.08 508.706 120.107 508.365 120.128C508.034 120.16 507.704 120.176 507.373 120.176C506.904 120.176 506.472 120.128 506.077 120.032C505.682 119.936 505.341 119.787 505.053 119.584C504.765 119.371 504.541 119.093 504.381 118.752C504.221 118.411 504.141 118 504.141 117.52C504.141 117.061 504.232 116.667 504.413 116.336C504.605 116.005 504.861 115.739 505.181 115.536C505.501 115.333 505.874 115.184 506.301 115.088C506.728 114.992 507.176 114.944 507.645 114.944C507.794 114.944 507.949 114.955 508.109 114.976C508.269 114.987 508.418 115.008 508.557 115.04C508.706 115.061 508.834 115.083 508.941 115.104C509.048 115.125 509.122 115.141 509.165 115.152V114.736C509.165 114.491 509.138 114.251 509.085 114.016C509.032 113.771 508.936 113.557 508.797 113.376C508.658 113.184 508.466 113.035 508.221 112.928C507.986 112.811 507.677 112.752 507.293 112.752C506.802 112.752 506.37 112.789 505.997 112.864C505.634 112.928 505.362 112.997 505.181 113.072L505.005 111.84C505.197 111.755 505.517 111.675 505.965 111.6C506.413 111.515 506.898 111.472 507.421 111.472ZM411.945 135.68H415.097V136.928H411.945V140.768C411.945 141.184 411.977 141.531 412.041 141.808C412.105 142.075 412.201 142.288 412.329 142.448C412.457 142.597 412.617 142.704 412.809 142.768C413.001 142.832 413.225 142.864 413.481 142.864C413.929 142.864 414.287 142.816 414.553 142.72C414.831 142.613 415.023 142.539 415.129 142.496L415.417 143.728C415.268 143.803 415.007 143.893 414.633 144C414.26 144.117 413.833 144.176 413.353 144.176C412.788 144.176 412.319 144.107 411.945 143.968C411.583 143.819 411.289 143.6 411.065 143.312C410.841 143.024 410.681 142.672 410.585 142.256C410.5 141.829 410.457 141.339 410.457 140.784V133.36L411.945 133.104V135.68ZM416.991 144V131.84L418.479 131.584V135.84C418.756 135.733 419.05 135.653 419.359 135.6C419.679 135.536 419.994 135.504 420.303 135.504C420.964 135.504 421.514 135.6 421.951 135.792C422.388 135.973 422.735 136.235 422.991 136.576C423.258 136.907 423.444 137.307 423.551 137.776C423.658 138.245 423.711 138.763 423.711 139.328V144H422.223V139.648C422.223 139.136 422.186 138.699 422.111 138.336C422.047 137.973 421.935 137.68 421.775 137.456C421.615 137.232 421.402 137.072 421.135 136.976C420.868 136.869 420.538 136.816 420.143 136.816C419.983 136.816 419.818 136.827 419.647 136.848C419.476 136.869 419.311 136.896 419.151 136.928C419.002 136.949 418.863 136.976 418.735 137.008C418.618 137.04 418.532 137.067 418.479 137.088V144H416.991ZM425.668 139.856C425.668 139.12 425.774 138.48 425.988 137.936C426.201 137.381 426.484 136.923 426.836 136.56C427.188 136.197 427.593 135.925 428.052 135.744C428.51 135.563 428.98 135.472 429.46 135.472C430.58 135.472 431.438 135.824 432.036 136.528C432.633 137.221 432.932 138.283 432.932 139.712C432.932 139.776 432.932 139.861 432.932 139.968C432.932 140.064 432.926 140.155 432.916 140.24H427.22C427.284 141.104 427.534 141.76 427.972 142.208C428.409 142.656 429.092 142.88 430.02 142.88C430.542 142.88 430.98 142.837 431.332 142.752C431.694 142.656 431.966 142.565 432.148 142.48L432.356 143.728C432.174 143.824 431.854 143.925 431.396 144.032C430.948 144.139 430.436 144.192 429.86 144.192C429.134 144.192 428.505 144.085 427.972 143.872C427.449 143.648 427.017 143.344 426.676 142.96C426.334 142.576 426.078 142.123 425.908 141.6C425.748 141.067 425.668 140.485 425.668 139.856ZM431.38 139.04C431.39 138.368 431.22 137.819 430.868 137.392C430.526 136.955 430.052 136.736 429.444 136.736C429.102 136.736 428.798 136.805 428.532 136.944C428.276 137.072 428.057 137.243 427.876 137.456C427.694 137.669 427.55 137.915 427.444 138.192C427.348 138.469 427.284 138.752 427.252 139.04H431.38ZM440.708 142.928C441.316 142.928 441.764 142.848 442.052 142.688C442.351 142.528 442.5 142.272 442.5 141.92C442.5 141.557 442.356 141.269 442.068 141.056C441.78 140.843 441.306 140.603 440.644 140.336C440.324 140.208 440.015 140.08 439.716 139.952C439.428 139.813 439.178 139.653 438.964 139.472C438.751 139.291 438.58 139.072 438.452 138.816C438.324 138.56 438.26 138.245 438.26 137.872C438.26 137.136 438.532 136.555 439.076 136.128C439.62 135.691 440.362 135.472 441.3 135.472C441.535 135.472 441.77 135.488 442.004 135.52C442.239 135.541 442.458 135.573 442.66 135.616C442.863 135.648 443.039 135.685 443.188 135.728C443.348 135.771 443.471 135.808 443.556 135.84L443.284 137.12C443.124 137.035 442.874 136.949 442.532 136.864C442.191 136.768 441.78 136.72 441.3 136.72C440.884 136.72 440.522 136.805 440.212 136.976C439.903 137.136 439.748 137.392 439.748 137.744C439.748 137.925 439.78 138.085 439.844 138.224C439.919 138.363 440.026 138.491 440.164 138.608C440.314 138.715 440.495 138.816 440.708 138.912C440.922 139.008 441.178 139.109 441.476 139.216C441.871 139.365 442.223 139.515 442.532 139.664C442.842 139.803 443.103 139.968 443.316 140.16C443.54 140.352 443.711 140.587 443.828 140.864C443.946 141.131 444.004 141.461 444.004 141.856C444.004 142.624 443.716 143.205 443.14 143.6C442.575 143.995 441.764 144.192 440.708 144.192C439.972 144.192 439.396 144.128 438.98 144C438.564 143.883 438.282 143.792 438.132 143.728L438.404 142.448C438.575 142.512 438.847 142.608 439.22 142.736C439.594 142.864 440.09 142.928 440.708 142.928ZM444.937 145.552C445.054 145.605 445.203 145.653 445.385 145.696C445.577 145.749 445.763 145.776 445.945 145.776C446.531 145.776 446.99 145.643 447.321 145.376C447.651 145.12 447.95 144.699 448.217 144.112C447.545 142.832 446.915 141.477 446.329 140.048C445.753 138.608 445.273 137.152 444.889 135.68H446.489C446.606 136.16 446.745 136.677 446.905 137.232C447.075 137.787 447.262 138.357 447.465 138.944C447.667 139.531 447.886 140.117 448.121 140.704C448.355 141.291 448.601 141.856 448.857 142.4C449.262 141.28 449.614 140.171 449.913 139.072C450.211 137.973 450.494 136.843 450.761 135.68H452.297C451.913 137.248 451.486 138.757 451.017 140.208C450.547 141.648 450.041 142.997 449.497 144.256C449.283 144.736 449.059 145.147 448.825 145.488C448.601 145.84 448.35 146.128 448.073 146.352C447.795 146.576 447.481 146.741 447.129 146.848C446.787 146.955 446.398 147.008 445.961 147.008C445.843 147.008 445.721 146.997 445.593 146.976C445.465 146.965 445.337 146.944 445.209 146.912C445.091 146.891 444.979 146.864 444.873 146.832C444.777 146.8 444.707 146.773 444.665 146.752L444.937 145.552ZM455.802 142.928C456.41 142.928 456.858 142.848 457.146 142.688C457.445 142.528 457.594 142.272 457.594 141.92C457.594 141.557 457.45 141.269 457.162 141.056C456.874 140.843 456.399 140.603 455.738 140.336C455.418 140.208 455.109 140.08 454.81 139.952C454.522 139.813 454.271 139.653 454.058 139.472C453.845 139.291 453.674 139.072 453.546 138.816C453.418 138.56 453.354 138.245 453.354 137.872C453.354 137.136 453.626 136.555 454.17 136.128C454.714 135.691 455.455 135.472 456.394 135.472C456.629 135.472 456.863 135.488 457.098 135.52C457.333 135.541 457.551 135.573 457.754 135.616C457.957 135.648 458.133 135.685 458.282 135.728C458.442 135.771 458.565 135.808 458.65 135.84L458.378 137.12C458.218 137.035 457.967 136.949 457.626 136.864C457.285 136.768 456.874 136.72 456.394 136.72C455.978 136.72 455.615 136.805 455.306 136.976C454.997 137.136 454.842 137.392 454.842 137.744C454.842 137.925 454.874 138.085 454.938 138.224C455.013 138.363 455.119 138.491 455.258 138.608C455.407 138.715 455.589 138.816 455.802 138.912C456.015 139.008 456.271 139.109 456.57 139.216C456.965 139.365 457.317 139.515 457.626 139.664C457.935 139.803 458.197 139.968 458.41 140.16C458.634 140.352 458.805 140.587 458.922 140.864C459.039 141.131 459.098 141.461 459.098 141.856C459.098 142.624 458.81 143.205 458.234 143.6C457.669 143.995 456.858 144.192 455.802 144.192C455.066 144.192 454.49 144.128 454.074 144C453.658 143.883 453.375 143.792 453.226 143.728L453.498 142.448C453.669 142.512 453.941 142.608 454.314 142.736C454.687 142.864 455.183 142.928 455.802 142.928ZM462.399 135.68H465.551V136.928H462.399V140.768C462.399 141.184 462.431 141.531 462.495 141.808C462.559 142.075 462.655 142.288 462.783 142.448C462.911 142.597 463.071 142.704 463.263 142.768C463.455 142.832 463.679 142.864 463.935 142.864C464.383 142.864 464.74 142.816 465.007 142.72C465.284 142.613 465.476 142.539 465.583 142.496L465.871 143.728C465.721 143.803 465.46 143.893 465.087 144C464.713 144.117 464.287 144.176 463.807 144.176C463.241 144.176 462.772 144.107 462.399 143.968C462.036 143.819 461.743 143.6 461.519 143.312C461.295 143.024 461.135 142.672 461.039 142.256C460.953 141.829 460.911 141.339 460.911 140.784V133.36L462.399 133.104V135.68ZM466.824 139.856C466.824 139.12 466.93 138.48 467.144 137.936C467.357 137.381 467.64 136.923 467.992 136.56C468.344 136.197 468.749 135.925 469.208 135.744C469.666 135.563 470.136 135.472 470.616 135.472C471.736 135.472 472.594 135.824 473.192 136.528C473.789 137.221 474.088 138.283 474.088 139.712C474.088 139.776 474.088 139.861 474.088 139.968C474.088 140.064 474.082 140.155 474.072 140.24H468.376C468.44 141.104 468.69 141.76 469.128 142.208C469.565 142.656 470.248 142.88 471.176 142.88C471.698 142.88 472.136 142.837 472.488 142.752C472.85 142.656 473.122 142.565 473.304 142.48L473.512 143.728C473.33 143.824 473.01 143.925 472.552 144.032C472.104 144.139 471.592 144.192 471.016 144.192C470.29 144.192 469.661 144.085 469.128 143.872C468.605 143.648 468.173 143.344 467.832 142.96C467.49 142.576 467.234 142.123 467.064 141.6C466.904 141.067 466.824 140.485 466.824 139.856ZM472.536 139.04C472.546 138.368 472.376 137.819 472.024 137.392C471.682 136.955 471.208 136.736 470.6 136.736C470.258 136.736 469.954 136.805 469.688 136.944C469.432 137.072 469.213 137.243 469.032 137.456C468.85 137.669 468.706 137.915 468.6 138.192C468.504 138.469 468.44 138.752 468.408 139.04H472.536ZM476.225 135.92C476.567 135.835 477.015 135.744 477.569 135.648C478.135 135.552 478.785 135.504 479.521 135.504C480.055 135.504 480.503 135.579 480.865 135.728C481.228 135.867 481.532 136.075 481.777 136.352C481.852 136.299 481.969 136.224 482.129 136.128C482.289 136.032 482.487 135.941 482.721 135.856C482.956 135.76 483.217 135.68 483.505 135.616C483.793 135.541 484.103 135.504 484.433 135.504C485.073 135.504 485.596 135.6 486.001 135.792C486.407 135.973 486.721 136.235 486.945 136.576C487.18 136.917 487.335 137.323 487.409 137.792C487.495 138.261 487.537 138.773 487.537 139.328V144H486.049V139.648C486.049 139.157 486.023 138.736 485.969 138.384C485.927 138.032 485.836 137.739 485.697 137.504C485.569 137.269 485.388 137.099 485.153 136.992C484.929 136.875 484.636 136.816 484.273 136.816C483.772 136.816 483.356 136.885 483.025 137.024C482.705 137.152 482.487 137.269 482.369 137.376C482.455 137.653 482.519 137.957 482.561 138.288C482.604 138.619 482.625 138.965 482.625 139.328V144H481.137V139.648C481.137 139.157 481.111 138.736 481.057 138.384C481.004 138.032 480.908 137.739 480.769 137.504C480.641 137.269 480.46 137.099 480.225 136.992C480.001 136.875 479.713 136.816 479.361 136.816C479.212 136.816 479.052 136.821 478.881 136.832C478.711 136.843 478.545 136.859 478.385 136.88C478.236 136.891 478.097 136.907 477.969 136.928C477.841 136.949 477.756 136.965 477.713 136.976V144H476.225V135.92Z" fill="white"/>
  <path d="M231.156 55V43.912H238.276V45.624H233.172V48.36H237.716V50.04H233.172V53.288H238.66V55H231.156ZM240.435 46.904C240.808 46.7973 241.294 46.696 241.891 46.6C242.488 46.504 243.15 46.456 243.875 46.456C244.558 46.456 245.128 46.552 245.587 46.744C246.046 46.9253 246.408 47.1867 246.675 47.528C246.952 47.8587 247.144 48.264 247.251 48.744C247.368 49.2133 247.427 49.7307 247.427 50.296V55H245.491V50.6C245.491 50.152 245.459 49.7733 245.395 49.464C245.342 49.144 245.246 48.888 245.107 48.696C244.979 48.4933 244.798 48.3493 244.563 48.264C244.339 48.168 244.062 48.12 243.731 48.12C243.486 48.12 243.23 48.136 242.963 48.168C242.696 48.2 242.499 48.2267 242.371 48.248V55H240.435V46.904ZM251.315 50.856C251.315 51.6667 251.475 52.312 251.795 52.792C252.125 53.272 252.643 53.512 253.347 53.512C253.667 53.512 253.965 53.464 254.243 53.368C254.531 53.2613 254.76 53.1493 254.931 53.032V48.248C254.792 48.216 254.616 48.1893 254.403 48.168C254.2 48.136 253.933 48.12 253.603 48.12C252.888 48.12 252.328 48.3653 251.923 48.856C251.517 49.336 251.315 50.0027 251.315 50.856ZM249.331 50.824C249.331 50.1627 249.427 49.5653 249.618 49.032C249.821 48.488 250.104 48.0293 250.467 47.656C250.84 47.272 251.288 46.9787 251.811 46.776C252.333 46.5627 252.925 46.456 253.587 46.456C254.248 46.456 254.867 46.504 255.443 46.6C256.019 46.696 256.493 46.7973 256.867 46.904V57.96H254.931V54.712C254.707 54.8293 254.429 54.936 254.099 55.032C253.779 55.128 253.421 55.176 253.027 55.176C252.429 55.176 251.901 55.0747 251.443 54.872C250.984 54.6587 250.6 54.36 250.291 53.976C249.981 53.592 249.741 53.1333 249.571 52.6C249.411 52.0667 249.331 51.4747 249.331 50.824ZM266.19 54.744C265.816 54.84 265.331 54.936 264.734 55.032C264.136 55.1387 263.48 55.192 262.766 55.192C262.094 55.192 261.528 55.096 261.07 54.904C260.622 54.712 260.259 54.4453 259.982 54.104C259.715 53.7627 259.523 53.3573 259.406 52.888C259.288 52.408 259.23 51.8853 259.23 51.32V46.632H261.166V51.016C261.166 51.912 261.294 52.552 261.55 52.936C261.816 53.32 262.275 53.512 262.926 53.512C263.16 53.512 263.406 53.5013 263.662 53.48C263.928 53.4587 264.126 53.432 264.254 53.4V46.632H266.19V54.744ZM270.606 55H268.67V46.632H270.606V55ZM270.814 44.184C270.814 44.5467 270.697 44.8347 270.462 45.048C270.227 45.2613 269.95 45.368 269.63 45.368C269.299 45.368 269.017 45.2613 268.782 45.048C268.547 44.8347 268.43 44.5467 268.43 44.184C268.43 43.8107 268.547 43.5173 268.782 43.304C269.017 43.0907 269.299 42.984 269.63 42.984C269.95 42.984 270.227 43.0907 270.462 43.304C270.697 43.5173 270.814 43.8107 270.814 44.184ZM277.844 48.376C277.684 48.3227 277.46 48.2693 277.172 48.216C276.894 48.152 276.569 48.12 276.196 48.12C275.982 48.12 275.753 48.1413 275.508 48.184C275.273 48.2267 275.108 48.264 275.012 48.296V55H273.076V47.032C273.449 46.8933 273.913 46.7653 274.468 46.648C275.033 46.52 275.657 46.456 276.34 46.456C276.468 46.456 276.617 46.4667 276.788 46.488C276.958 46.4987 277.129 46.52 277.3 46.552C277.47 46.5733 277.636 46.6053 277.796 46.648C277.956 46.68 278.084 46.712 278.18 46.744L277.844 48.376ZM281.481 55H279.545V46.632H281.481V55ZM281.689 44.184C281.689 44.5467 281.572 44.8347 281.337 45.048C281.102 45.2613 280.825 45.368 280.505 45.368C280.174 45.368 279.892 45.2613 279.657 45.048C279.422 44.8347 279.305 44.5467 279.305 44.184C279.305 43.8107 279.422 43.5173 279.657 43.304C279.892 43.0907 280.174 42.984 280.505 42.984C280.825 42.984 281.102 43.0907 281.337 43.304C281.572 43.5173 281.689 43.8107 281.689 44.184ZM283.487 50.856C283.487 50.12 283.593 49.4747 283.807 48.92C284.031 48.3653 284.324 47.9067 284.687 47.544C285.049 47.1707 285.465 46.8933 285.935 46.712C286.404 46.52 286.884 46.424 287.375 46.424C288.527 46.424 289.423 46.7813 290.063 47.496C290.713 48.2107 291.039 49.2773 291.039 50.696C291.039 50.8027 291.033 50.9253 291.023 51.064C291.023 51.192 291.017 51.3093 291.007 51.416H285.487C285.54 52.088 285.775 52.6107 286.191 52.984C286.617 53.3467 287.231 53.528 288.031 53.528C288.5 53.528 288.927 53.4853 289.311 53.4C289.705 53.3147 290.015 53.224 290.239 53.128L290.495 54.712C290.388 54.7653 290.239 54.824 290.047 54.888C289.865 54.9413 289.652 54.9893 289.407 55.032C289.172 55.0853 288.916 55.128 288.639 55.16C288.361 55.192 288.079 55.208 287.791 55.208C287.055 55.208 286.415 55.1013 285.871 54.888C285.327 54.664 284.879 54.36 284.527 53.976C284.175 53.5813 283.913 53.1227 283.743 52.6C283.572 52.0667 283.487 51.4853 283.487 50.856ZM289.103 49.992C289.103 49.7253 289.065 49.4747 288.991 49.24C288.916 48.9947 288.804 48.7867 288.655 48.616C288.516 48.4347 288.34 48.296 288.127 48.2C287.924 48.0933 287.679 48.04 287.391 48.04C287.092 48.04 286.831 48.0987 286.607 48.216C286.383 48.3227 286.191 48.4667 286.031 48.648C285.881 48.8293 285.764 49.0373 285.679 49.272C285.593 49.5067 285.535 49.7467 285.503 49.992H289.103ZM295.187 53.608C295.699 53.608 296.073 53.5493 296.307 53.432C296.542 53.304 296.659 53.0907 296.659 52.792C296.659 52.5147 296.531 52.2853 296.275 52.104C296.03 51.9227 295.619 51.7253 295.043 51.512C294.691 51.384 294.366 51.2507 294.067 51.112C293.779 50.9627 293.529 50.792 293.315 50.6C293.102 50.408 292.931 50.1787 292.803 49.912C292.686 49.6347 292.627 49.2987 292.627 48.904C292.627 48.136 292.91 47.5333 293.475 47.096C294.041 46.648 294.809 46.424 295.779 46.424C296.27 46.424 296.739 46.472 297.187 46.568C297.635 46.6533 297.971 46.7387 298.195 46.824L297.843 48.392C297.63 48.296 297.358 48.2107 297.027 48.136C296.697 48.0507 296.313 48.008 295.875 48.008C295.481 48.008 295.161 48.0773 294.915 48.216C294.67 48.344 294.547 48.5467 294.547 48.824C294.547 48.9627 294.569 49.0853 294.611 49.192C294.665 49.2987 294.75 49.4 294.867 49.496C294.985 49.5813 295.139 49.672 295.331 49.768C295.523 49.8533 295.758 49.944 296.035 50.04C296.494 50.2107 296.883 50.3813 297.203 50.552C297.523 50.712 297.785 50.8987 297.987 51.112C298.201 51.3147 298.355 51.5493 298.451 51.816C298.547 52.0827 298.595 52.4027 298.595 52.776C298.595 53.576 298.297 54.184 297.699 54.6C297.113 55.0053 296.27 55.208 295.171 55.208C294.435 55.208 293.843 55.144 293.395 55.016C292.947 54.8987 292.633 54.8027 292.451 54.728L292.787 53.112C293.075 53.2293 293.417 53.3413 293.811 53.448C294.217 53.5547 294.675 53.608 295.187 53.608Z" fill="#2C2C2C"/>
  <path d="M40.9417 45.432C39.8004 45.432 38.9257 45.7893 38.3177 46.504C37.7204 47.208 37.4217 48.1893 37.4217 49.448C37.4217 50.0453 37.491 50.5947 37.6297 51.096C37.779 51.5867 37.9924 52.008 38.2697 52.36C38.5577 52.712 38.9097 52.9893 39.3257 53.192C39.7524 53.384 40.2484 53.48 40.8137 53.48C41.1657 53.48 41.4697 53.4693 41.7257 53.448C41.9817 53.416 42.1844 53.3787 42.3337 53.336V49.352H44.3497V54.68C44.0724 54.7867 43.603 54.904 42.9417 55.032C42.2804 55.16 41.5177 55.224 40.6537 55.224C39.8537 55.224 39.123 55.096 38.4617 54.84C37.8004 54.584 37.235 54.2107 36.7657 53.72C36.307 53.2293 35.9497 52.6267 35.6937 51.912C35.4377 51.1973 35.3097 50.376 35.3097 49.448C35.3097 48.52 35.4484 47.6987 35.7257 46.984C36.0137 46.2693 36.403 45.6667 36.8937 45.176C37.3844 44.6747 37.9604 44.296 38.6217 44.04C39.283 43.784 39.987 43.656 40.7337 43.656C41.2457 43.656 41.699 43.6933 42.0937 43.768C42.499 43.832 42.8457 43.9067 43.1337 43.992C43.4217 44.0773 43.6564 44.168 43.8377 44.264C44.0297 44.36 44.163 44.4293 44.2377 44.472L43.6297 46.12C43.3097 45.928 42.9097 45.768 42.4297 45.64C41.9604 45.5013 41.4644 45.432 40.9417 45.432ZM46.1196 50.856C46.1196 50.12 46.2262 49.4747 46.4396 48.92C46.6636 48.3653 46.9569 47.9067 47.3196 47.544C47.6822 47.1707 48.0982 46.8933 48.5676 46.712C49.0369 46.52 49.5169 46.424 50.0076 46.424C51.1596 46.424 52.0556 46.7813 52.6956 47.496C53.3462 48.2107 53.6716 49.2773 53.6716 50.696C53.6716 50.8027 53.6662 50.9253 53.6556 51.064C53.6556 51.192 53.6502 51.3093 53.6396 51.416H48.1196C48.1729 52.088 48.4076 52.6107 48.8236 52.984C49.2502 53.3467 49.8636 53.528 50.6636 53.528C51.1329 53.528 51.5596 53.4853 51.9436 53.4C52.3382 53.3147 52.6476 53.224 52.8716 53.128L53.1276 54.712C53.0209 54.7653 52.8716 54.824 52.6796 54.888C52.4982 54.9413 52.2849 54.9893 52.0396 55.032C51.8049 55.0853 51.5489 55.128 51.2716 55.16C50.9942 55.192 50.7116 55.208 50.4236 55.208C49.6876 55.208 49.0476 55.1013 48.5036 54.888C47.9596 54.664 47.5116 54.36 47.1596 53.976C46.8076 53.5813 46.5462 53.1227 46.3756 52.6C46.2049 52.0667 46.1196 51.4853 46.1196 50.856ZM51.7356 49.992C51.7356 49.7253 51.6982 49.4747 51.6236 49.24C51.5489 48.9947 51.4369 48.7867 51.2876 48.616C51.1489 48.4347 50.9729 48.296 50.7596 48.2C50.5569 48.0933 50.3116 48.04 50.0236 48.04C49.7249 48.04 49.4636 48.0987 49.2396 48.216C49.0156 48.3227 48.8236 48.4667 48.6636 48.648C48.5142 48.8293 48.3969 49.0373 48.3116 49.272C48.2262 49.5067 48.1676 49.7467 48.1356 49.992H51.7356ZM55.6282 44.424L57.5642 44.104V46.632H60.5402V48.248H57.5642V51.656C57.5642 52.328 57.6709 52.808 57.8842 53.096C58.0975 53.384 58.4602 53.528 58.9722 53.528C59.3242 53.528 59.6335 53.4907 59.9002 53.416C60.1775 53.3413 60.3962 53.272 60.5562 53.208L60.8762 54.744C60.6522 54.84 60.3589 54.936 59.9962 55.032C59.6335 55.1387 59.2069 55.192 58.7162 55.192C58.1189 55.192 57.6175 55.112 57.2122 54.952C56.8175 54.792 56.5029 54.5627 56.2682 54.264C56.0335 53.9547 55.8682 53.5867 55.7722 53.16C55.6762 52.7227 55.6282 52.2267 55.6282 51.672V44.424ZM68.0981 55H66.1621V46.632H68.0981V55ZM68.3061 44.184C68.3061 44.5467 68.1887 44.8347 67.9541 45.048C67.7194 45.2613 67.4421 45.368 67.1221 45.368C66.7914 45.368 66.5087 45.2613 66.2741 45.048C66.0394 44.8347 65.9221 44.5467 65.9221 44.184C65.9221 43.8107 66.0394 43.5173 66.2741 43.304C66.5087 43.0907 66.7914 42.984 67.1221 42.984C67.4421 42.984 67.7194 43.0907 67.9541 43.304C68.1887 43.5173 68.3061 43.8107 68.3061 44.184ZM70.5679 46.904C70.9413 46.7973 71.4266 46.696 72.0239 46.6C72.6213 46.504 73.2826 46.456 74.0079 46.456C74.6906 46.456 75.2613 46.552 75.7199 46.744C76.1786 46.9253 76.5413 47.1867 76.8079 47.528C77.0853 47.8587 77.2773 48.264 77.3839 48.744C77.5013 49.2133 77.5599 49.7307 77.5599 50.296V55H75.6239V50.6C75.6239 50.152 75.5919 49.7733 75.5279 49.464C75.4746 49.144 75.3786 48.888 75.2399 48.696C75.1119 48.4933 74.9306 48.3493 74.6959 48.264C74.4719 48.168 74.1946 48.12 73.8639 48.12C73.6186 48.12 73.3626 48.136 73.0959 48.168C72.8293 48.2 72.6319 48.2267 72.5039 48.248V55H70.5679V46.904ZM91.4857 43.912V45.656H88.0777V55H86.0457V45.656H82.6377V43.912H91.4857ZM99.6203 50.808C99.6203 51.4693 99.5243 52.072 99.3323 52.616C99.1403 53.16 98.8683 53.624 98.5163 54.008C98.1643 54.392 97.7376 54.6907 97.2363 54.904C96.7456 55.1173 96.2016 55.224 95.6043 55.224C95.007 55.224 94.463 55.1173 93.9723 54.904C93.4816 54.6907 93.0603 54.392 92.7083 54.008C92.3563 53.624 92.079 53.16 91.8763 52.616C91.6843 52.072 91.5883 51.4693 91.5883 50.808C91.5883 50.1467 91.6843 49.5493 91.8763 49.016C92.079 48.472 92.3563 48.008 92.7083 47.624C93.071 47.24 93.4976 46.9467 93.9883 46.744C94.479 46.5307 95.0176 46.424 95.6043 46.424C96.191 46.424 96.7296 46.5307 97.2203 46.744C97.7216 46.9467 98.1483 47.24 98.5003 47.624C98.8523 48.008 99.1243 48.472 99.3163 49.016C99.519 49.5493 99.6203 50.1467 99.6203 50.808ZM97.6363 50.808C97.6363 49.976 97.455 49.32 97.0923 48.84C96.7403 48.3493 96.2443 48.104 95.6043 48.104C94.9643 48.104 94.463 48.3493 94.1003 48.84C93.7483 49.32 93.5723 49.976 93.5723 50.808C93.5723 51.6507 93.7483 52.3173 94.1003 52.808C94.463 53.2987 94.9643 53.544 95.6043 53.544C96.2443 53.544 96.7403 53.2987 97.0923 52.808C97.455 52.3173 97.6363 51.6507 97.6363 50.808ZM108.479 54.744C108.105 54.84 107.62 54.936 107.023 55.032C106.425 55.1387 105.769 55.192 105.055 55.192C104.383 55.192 103.817 55.096 103.359 54.904C102.911 54.712 102.548 54.4453 102.271 54.104C102.004 53.7627 101.812 53.3573 101.695 52.888C101.577 52.408 101.519 51.8853 101.519 51.32V46.632H103.455V51.016C103.455 51.912 103.583 52.552 103.839 52.936C104.105 53.32 104.564 53.512 105.215 53.512C105.449 53.512 105.695 53.5013 105.951 53.48C106.217 53.4587 106.415 53.432 106.543 53.4V46.632H108.479V54.744ZM110.479 50.824C110.479 50.2053 110.575 49.6293 110.767 49.096C110.959 48.552 111.231 48.0827 111.583 47.688C111.946 47.2933 112.383 46.984 112.895 46.76C113.407 46.536 113.983 46.424 114.623 46.424C115.412 46.424 116.159 46.568 116.863 46.856L116.447 48.44C116.223 48.344 115.967 48.264 115.679 48.2C115.402 48.136 115.103 48.104 114.783 48.104C114.026 48.104 113.45 48.344 113.055 48.824C112.66 49.2933 112.463 49.96 112.463 50.824C112.463 51.656 112.65 52.3173 113.023 52.808C113.396 53.288 114.026 53.528 114.911 53.528C115.242 53.528 115.567 53.496 115.887 53.432C116.207 53.368 116.484 53.288 116.719 53.192L116.991 54.792C116.778 54.8987 116.452 54.9947 116.015 55.08C115.588 55.1653 115.146 55.208 114.687 55.208C113.972 55.208 113.348 55.1013 112.815 54.888C112.292 54.664 111.855 54.36 111.503 53.976C111.162 53.5813 110.906 53.1173 110.735 52.584C110.564 52.04 110.479 51.4533 110.479 50.824ZM118.49 55V42.904L120.426 42.584V46.728C120.639 46.6533 120.884 46.5893 121.162 46.536C121.45 46.4827 121.732 46.456 122.01 46.456C122.682 46.456 123.236 46.552 123.674 46.744C124.122 46.9253 124.479 47.1867 124.746 47.528C125.012 47.8587 125.199 48.2587 125.306 48.728C125.423 49.1973 125.482 49.72 125.482 50.296V55H123.546V50.6C123.546 50.152 123.514 49.7733 123.45 49.464C123.396 49.144 123.3 48.888 123.162 48.696C123.034 48.4933 122.858 48.3493 122.634 48.264C122.41 48.168 122.132 48.12 121.802 48.12C121.546 48.12 121.284 48.1467 121.018 48.2C120.751 48.2533 120.554 48.3013 120.426 48.344V55H118.49Z" fill="#2C2C2C"/>
  <path d="M383.664 53.496C384.39 53.496 384.918 53.3733 385.248 53.128C385.579 52.8827 385.744 52.536 385.744 52.088C385.744 51.8213 385.686 51.592 385.568 51.4C385.462 51.208 385.302 51.0373 385.088 50.888C384.886 50.728 384.635 50.584 384.336 50.456C384.038 50.3173 383.696 50.184 383.312 50.056C382.928 49.9173 382.555 49.768 382.192 49.608C381.84 49.4373 381.526 49.2293 381.248 48.984C380.982 48.7387 380.763 48.4453 380.592 48.104C380.432 47.7627 380.352 47.352 380.352 46.872C380.352 45.8693 380.699 45.0853 381.392 44.52C382.086 43.944 383.03 43.656 384.224 43.656C384.918 43.656 385.531 43.736 386.064 43.896C386.608 44.0453 387.035 44.2107 387.344 44.392L386.72 46.024C386.358 45.8213 385.958 45.6667 385.52 45.56C385.094 45.4533 384.651 45.4 384.192 45.4C383.648 45.4 383.222 45.512 382.912 45.736C382.614 45.96 382.464 46.2747 382.464 46.68C382.464 46.9253 382.512 47.1387 382.608 47.32C382.715 47.4907 382.859 47.6453 383.04 47.784C383.232 47.9227 383.451 48.0507 383.696 48.168C383.952 48.2853 384.23 48.3973 384.528 48.504C385.051 48.696 385.515 48.8933 385.92 49.096C386.336 49.288 386.683 49.5227 386.96 49.8C387.248 50.0667 387.467 50.3867 387.616 50.76C387.766 51.1227 387.84 51.5653 387.84 52.088C387.84 53.0907 387.483 53.8693 386.768 54.424C386.064 54.968 385.03 55.24 383.664 55.24C383.206 55.24 382.784 55.208 382.4 55.144C382.027 55.0907 381.691 55.0213 381.392 54.936C381.104 54.8507 380.854 54.7653 380.64 54.68C380.427 54.584 380.256 54.4987 380.128 54.424L380.72 52.776C381.008 52.936 381.398 53.096 381.888 53.256C382.379 53.416 382.971 53.496 383.664 53.496ZM389.057 50.824C389.057 50.2053 389.153 49.6293 389.345 49.096C389.537 48.552 389.809 48.0827 390.161 47.688C390.524 47.2933 390.961 46.984 391.473 46.76C391.985 46.536 392.561 46.424 393.201 46.424C393.99 46.424 394.737 46.568 395.441 46.856L395.025 48.44C394.801 48.344 394.545 48.264 394.257 48.2C393.98 48.136 393.681 48.104 393.361 48.104C392.604 48.104 392.028 48.344 391.633 48.824C391.238 49.2933 391.041 49.96 391.041 50.824C391.041 51.656 391.228 52.3173 391.601 52.808C391.974 53.288 392.604 53.528 393.489 53.528C393.82 53.528 394.145 53.496 394.465 53.432C394.785 53.368 395.062 53.288 395.297 53.192L395.569 54.792C395.356 54.8987 395.03 54.9947 394.593 55.08C394.166 55.1653 393.724 55.208 393.265 55.208C392.55 55.208 391.926 55.1013 391.393 54.888C390.87 54.664 390.433 54.36 390.081 53.976C389.74 53.5813 389.484 53.1173 389.313 52.584C389.142 52.04 389.057 51.4533 389.057 50.824ZM397.068 55V42.904L399.004 42.584V46.728C399.217 46.6533 399.463 46.5893 399.74 46.536C400.028 46.4827 400.311 46.456 400.588 46.456C401.26 46.456 401.815 46.552 402.252 46.744C402.7 46.9253 403.057 47.1867 403.324 47.528C403.591 47.8587 403.777 48.2587 403.884 48.728C404.001 49.1973 404.06 49.72 404.06 50.296V55H402.124V50.6C402.124 50.152 402.092 49.7733 402.028 49.464C401.975 49.144 401.879 48.888 401.74 48.696C401.612 48.4933 401.436 48.3493 401.212 48.264C400.988 48.168 400.711 48.12 400.38 48.12C400.124 48.12 399.863 48.1467 399.596 48.2C399.329 48.2533 399.132 48.3013 399.004 48.344V55H397.068ZM405.916 50.856C405.916 50.12 406.023 49.4747 406.236 48.92C406.46 48.3653 406.754 47.9067 407.116 47.544C407.479 47.1707 407.895 46.8933 408.364 46.712C408.834 46.52 409.314 46.424 409.804 46.424C410.956 46.424 411.852 46.7813 412.492 47.496C413.143 48.2107 413.468 49.2773 413.468 50.696C413.468 50.8027 413.463 50.9253 413.452 51.064C413.452 51.192 413.447 51.3093 413.436 51.416H407.916C407.97 52.088 408.204 52.6107 408.62 52.984C409.047 53.3467 409.66 53.528 410.46 53.528C410.93 53.528 411.356 53.4853 411.74 53.4C412.135 53.3147 412.444 53.224 412.668 53.128L412.924 54.712C412.818 54.7653 412.668 54.824 412.476 54.888C412.295 54.9413 412.082 54.9893 411.836 55.032C411.602 55.0853 411.346 55.128 411.068 55.16C410.791 55.192 410.508 55.208 410.22 55.208C409.484 55.208 408.844 55.1013 408.3 54.888C407.756 54.664 407.308 54.36 406.956 53.976C406.604 53.5813 406.343 53.1227 406.172 52.6C406.002 52.0667 405.916 51.4853 405.916 50.856ZM411.532 49.992C411.532 49.7253 411.495 49.4747 411.42 49.24C411.346 48.9947 411.234 48.7867 411.084 48.616C410.946 48.4347 410.77 48.296 410.556 48.2C410.354 48.0933 410.108 48.04 409.82 48.04C409.522 48.04 409.26 48.0987 409.036 48.216C408.812 48.3227 408.62 48.4667 408.46 48.648C408.311 48.8293 408.194 49.0373 408.108 49.272C408.023 49.5067 407.964 49.7467 407.932 49.992H411.532ZM417.041 50.792C417.041 51.6453 417.244 52.3173 417.649 52.808C418.054 53.288 418.614 53.528 419.329 53.528C419.638 53.528 419.9 53.5173 420.113 53.496C420.337 53.464 420.518 53.432 420.657 53.4V48.6C420.486 48.4827 420.257 48.376 419.969 48.28C419.692 48.1733 419.393 48.12 419.073 48.12C418.369 48.12 417.852 48.36 417.521 48.84C417.201 49.32 417.041 49.9707 417.041 50.792ZM422.593 54.744C422.209 54.8613 421.724 54.968 421.137 55.064C420.561 55.16 419.953 55.208 419.313 55.208C418.652 55.208 418.06 55.1067 417.537 54.904C417.014 54.7013 416.566 54.4133 416.193 54.04C415.83 53.656 415.548 53.1973 415.345 52.664C415.153 52.12 415.057 51.512 415.057 50.84C415.057 50.1787 415.137 49.5813 415.297 49.048C415.468 48.504 415.713 48.04 416.033 47.656C416.353 47.272 416.742 46.9787 417.201 46.776C417.66 46.5627 418.188 46.456 418.785 46.456C419.19 46.456 419.548 46.504 419.857 46.6C420.166 46.696 420.433 46.8027 420.657 46.92V42.904L422.593 42.584V54.744ZM431.916 54.744C431.543 54.84 431.058 54.936 430.46 55.032C429.863 55.1387 429.207 55.192 428.492 55.192C427.82 55.192 427.255 55.096 426.796 54.904C426.348 54.712 425.986 54.4453 425.708 54.104C425.442 53.7627 425.25 53.3573 425.132 52.888C425.015 52.408 424.956 51.8853 424.956 51.32V46.632H426.892V51.016C426.892 51.912 427.02 52.552 427.276 52.936C427.543 53.32 428.002 53.512 428.652 53.512C428.887 53.512 429.132 53.5013 429.388 53.48C429.655 53.4587 429.852 53.432 429.98 53.4V46.632H431.916V54.744ZM437.292 55.16C436.716 55.1493 436.236 55.0853 435.852 54.968C435.479 54.8507 435.18 54.6853 434.956 54.472C434.732 54.248 434.572 53.976 434.476 53.656C434.391 53.3253 434.348 52.952 434.348 52.536V42.904L436.284 42.584V52.168C436.284 52.4027 436.3 52.6 436.332 52.76C436.375 52.92 436.444 53.0587 436.54 53.176C436.636 53.2827 436.764 53.368 436.924 53.432C437.095 53.4853 437.308 53.528 437.564 53.56L437.292 55.16ZM438.666 50.856C438.666 50.12 438.773 49.4747 438.986 48.92C439.21 48.3653 439.504 47.9067 439.866 47.544C440.229 47.1707 440.645 46.8933 441.114 46.712C441.584 46.52 442.064 46.424 442.554 46.424C443.706 46.424 444.602 46.7813 445.242 47.496C445.893 48.2107 446.218 49.2773 446.218 50.696C446.218 50.8027 446.213 50.9253 446.202 51.064C446.202 51.192 446.197 51.3093 446.186 51.416H440.666C440.72 52.088 440.954 52.6107 441.37 52.984C441.797 53.3467 442.41 53.528 443.21 53.528C443.68 53.528 444.106 53.4853 444.49 53.4C444.885 53.3147 445.194 53.224 445.418 53.128L445.674 54.712C445.568 54.7653 445.418 54.824 445.226 54.888C445.045 54.9413 444.832 54.9893 444.586 55.032C444.352 55.0853 444.096 55.128 443.818 55.16C443.541 55.192 443.258 55.208 442.97 55.208C442.234 55.208 441.594 55.1013 441.05 54.888C440.506 54.664 440.058 54.36 439.706 53.976C439.354 53.5813 439.093 53.1227 438.922 52.6C438.752 52.0667 438.666 51.4853 438.666 50.856ZM444.282 49.992C444.282 49.7253 444.245 49.4747 444.17 49.24C444.096 48.9947 443.984 48.7867 443.834 48.616C443.696 48.4347 443.52 48.296 443.306 48.2C443.104 48.0933 442.858 48.04 442.57 48.04C442.272 48.04 442.01 48.0987 441.786 48.216C441.562 48.3227 441.37 48.4667 441.21 48.648C441.061 48.8293 440.944 49.0373 440.858 49.272C440.773 49.5067 440.714 49.7467 440.682 49.992H444.282ZM454.117 53.336C454.235 53.3467 454.389 53.3573 454.581 53.368C454.773 53.368 455.035 53.368 455.365 53.368C456.72 53.368 457.728 53.0267 458.389 52.344C459.061 51.6507 459.397 50.6853 459.397 49.448C459.397 48.1893 459.072 47.224 458.421 46.552C457.771 45.88 456.763 45.544 455.397 45.544C454.8 45.544 454.373 45.56 454.117 45.592V53.336ZM461.509 49.448C461.509 50.408 461.36 51.2453 461.061 51.96C460.763 52.664 460.336 53.256 459.781 53.736C459.237 54.2053 458.576 54.5573 457.797 54.792C457.029 55.016 456.176 55.128 455.237 55.128C454.789 55.128 454.283 55.1067 453.717 55.064C453.152 55.032 452.613 54.9573 452.101 54.84V44.072C452.613 43.9547 453.157 43.88 453.733 43.848C454.309 43.816 454.821 43.8 455.269 43.8C456.197 43.8 457.045 43.912 457.813 44.136C458.581 44.3493 459.237 44.6907 459.781 45.16C460.336 45.6187 460.763 46.2053 461.061 46.92C461.36 47.624 461.509 48.4667 461.509 49.448ZM468.383 48.376C468.223 48.3227 467.999 48.2693 467.711 48.216C467.433 48.152 467.108 48.12 466.735 48.12C466.521 48.12 466.292 48.1413 466.047 48.184C465.812 48.2267 465.647 48.264 465.551 48.296V55H463.615V47.032C463.988 46.8933 464.452 46.7653 465.007 46.648C465.572 46.52 466.196 46.456 466.879 46.456C467.007 46.456 467.156 46.4667 467.327 46.488C467.497 46.4987 467.668 46.52 467.839 46.552C468.009 46.5733 468.175 46.6053 468.335 46.648C468.495 46.68 468.623 46.712 468.719 46.744L468.383 48.376ZM477.636 50.808C477.636 51.4693 477.54 52.072 477.348 52.616C477.156 53.16 476.884 53.624 476.532 54.008C476.18 54.392 475.753 54.6907 475.252 54.904C474.761 55.1173 474.217 55.224 473.62 55.224C473.023 55.224 472.479 55.1173 471.988 54.904C471.497 54.6907 471.076 54.392 470.724 54.008C470.372 53.624 470.095 53.16 469.892 52.616C469.7 52.072 469.604 51.4693 469.604 50.808C469.604 50.1467 469.7 49.5493 469.892 49.016C470.095 48.472 470.372 48.008 470.724 47.624C471.087 47.24 471.513 46.9467 472.004 46.744C472.495 46.5307 473.033 46.424 473.62 46.424C474.207 46.424 474.745 46.5307 475.236 46.744C475.737 46.9467 476.164 47.24 476.516 47.624C476.868 48.008 477.14 48.472 477.332 49.016C477.535 49.5493 477.636 50.1467 477.636 50.808ZM475.652 50.808C475.652 49.976 475.471 49.32 475.108 48.84C474.756 48.3493 474.26 48.104 473.62 48.104C472.98 48.104 472.479 48.3493 472.116 48.84C471.764 49.32 471.588 49.976 471.588 50.808C471.588 51.6507 471.764 52.3173 472.116 52.808C472.479 53.2987 472.98 53.544 473.62 53.544C474.26 53.544 474.756 53.2987 475.108 52.808C475.471 52.3173 475.652 51.6507 475.652 50.808ZM485.182 50.856C485.182 49.992 484.985 49.32 484.59 48.84C484.206 48.36 483.582 48.12 482.718 48.12C482.537 48.12 482.345 48.1307 482.142 48.152C481.95 48.1627 481.758 48.1947 481.566 48.248V53.032C481.737 53.1493 481.961 53.2613 482.238 53.368C482.526 53.464 482.83 53.512 483.15 53.512C483.854 53.512 484.366 53.272 484.686 52.792C485.017 52.312 485.182 51.6667 485.182 50.856ZM487.166 50.824C487.166 51.464 487.081 52.0507 486.91 52.584C486.75 53.1173 486.516 53.576 486.206 53.96C485.897 54.344 485.508 54.6427 485.038 54.856C484.58 55.0693 484.057 55.176 483.47 55.176C483.076 55.176 482.713 55.128 482.382 55.032C482.052 54.936 481.78 54.8293 481.566 54.712V57.96H479.63V46.904C480.025 46.7973 480.51 46.696 481.086 46.6C481.662 46.504 482.27 46.456 482.91 46.456C483.572 46.456 484.164 46.5573 484.686 46.76C485.209 46.9627 485.652 47.256 486.014 47.64C486.388 48.0133 486.67 48.472 486.862 49.016C487.065 49.5493 487.166 50.152 487.166 50.824ZM488.298 49.544H492.602V51.32H488.298V49.544ZM495.953 49.448C495.953 50.056 496.027 50.6107 496.177 51.112C496.326 51.6027 496.539 52.024 496.817 52.376C497.105 52.7173 497.451 52.984 497.857 53.176C498.262 53.368 498.721 53.464 499.233 53.464C499.734 53.464 500.187 53.368 500.593 53.176C500.998 52.984 501.339 52.7173 501.617 52.376C501.905 52.024 502.123 51.6027 502.273 51.112C502.422 50.6107 502.497 50.056 502.497 49.448C502.497 48.84 502.422 48.2907 502.273 47.8C502.123 47.2987 501.905 46.8773 501.617 46.536C501.339 46.184 500.998 45.912 500.593 45.72C500.187 45.528 499.734 45.432 499.233 45.432C498.721 45.432 498.262 45.528 497.857 45.72C497.451 45.912 497.105 46.184 496.817 46.536C496.539 46.888 496.326 47.3093 496.177 47.8C496.027 48.2907 495.953 48.84 495.953 49.448ZM504.609 49.448C504.609 50.3973 504.465 51.2347 504.177 51.96C503.899 52.6853 503.515 53.2933 503.025 53.784C502.545 54.264 501.979 54.6267 501.329 54.872C500.678 55.1173 499.985 55.24 499.249 55.24C498.513 55.24 497.814 55.1173 497.153 54.872C496.502 54.6267 495.931 54.264 495.441 53.784C494.961 53.2933 494.577 52.6853 494.289 51.96C494.001 51.2347 493.857 50.3973 493.857 49.448C493.857 48.4987 494.001 47.6667 494.289 46.952C494.577 46.2267 494.966 45.6187 495.457 45.128C495.958 44.6373 496.534 44.2693 497.185 44.024C497.835 43.7787 498.523 43.656 499.249 43.656C499.974 43.656 500.662 43.7787 501.313 44.024C501.963 44.2693 502.529 44.6373 503.009 45.128C503.499 45.6187 503.889 46.2267 504.177 46.952C504.465 47.6667 504.609 48.4987 504.609 49.448ZM516.596 42.584C517.044 42.584 517.439 42.6267 517.78 42.712C518.122 42.7867 518.378 42.856 518.548 42.92L518.18 44.52C517.999 44.4347 517.786 44.3653 517.54 44.312C517.306 44.2587 517.05 44.232 516.772 44.232C516.463 44.232 516.202 44.28 515.988 44.376C515.775 44.4613 515.604 44.584 515.476 44.744C515.348 44.904 515.258 45.1013 515.204 45.336C515.151 45.56 515.124 45.8053 515.124 46.072V46.632H518.164V48.248H515.124V55H513.188V46.04C513.188 44.9627 513.471 44.12 514.036 43.512C514.602 42.8933 515.455 42.584 516.596 42.584ZM510.132 42.584C510.58 42.584 510.975 42.6267 511.316 42.712C511.658 42.7867 511.914 42.856 512.084 42.92L511.716 44.52C511.535 44.4347 511.322 44.3653 511.076 44.312C510.842 44.2587 510.586 44.232 510.308 44.232C509.999 44.232 509.738 44.28 509.524 44.376C509.311 44.4613 509.14 44.584 509.012 44.744C508.884 44.904 508.794 45.1013 508.74 45.336C508.687 45.56 508.66 45.8053 508.66 46.072V46.632H511.7V48.248H508.66V55H506.724V46.04C506.724 44.9627 507.007 44.12 507.572 43.512C508.138 42.8933 508.991 42.584 510.132 42.584Z" fill="#2C2C2C"/>
  <path d="M170.045 132.92L176.466 126.5L170.045 120.08L168.455 121.67L173.284 126.5L168.455 131.33L170.045 132.92Z" fill="#3A70A6"/>
  <path d="M355.045 132.92L361.466 126.5L355.045 120.08L353.455 121.67L358.284 126.5L353.455 131.33L355.045 132.92Z" fill="#3A70A6"/>
</svg>
