<svg width="572" height="658" viewBox="0 0 572 658" fill="none"
  xmlns="http://www.w3.org/2000/svg">
  <path fill-rule="evenodd" clip-rule="evenodd" d="M258.214 592.073C196.027 595.666 141.827 570.854 96.8495 527.76C53.2306 485.967 22.1189 442.101 12.3094 375.3C2.49999 308.5 8.15073 246.777 52.5001 197.489C96.8495 148.2 165.155 145.694 230.738 148.2C286.956 150.348 350.263 168.332 398.377 197.489C457.534 233.338 495.639 273.208 497.075 342.365C498.502 411.077 464.499 478.298 414.963 525.938C370.401 568.795 319.937 588.506 258.214 592.073Z" fill="white" fill-opacity="0.3"/>
  <g filter="url(#filter0_d_1424_2809)">
    <path d="M397.035 486.216C397.029 494.502 400.809 497.643 403.216 501.216C405.623 504.788 408.508 501.586 407.388 500.131C406.267 498.677 405.45 496.998 404.913 495.24C404.346 493.37 404.046 491.414 404.045 489.462C404.043 486.128 404.911 482.81 406.803 479.98L406.944 479.772C410.755 474.209 416.48 470.434 422.447 467.464C430.308 463.551 438.351 459.899 444.229 453.18C450.127 446.441 453.09 437.819 454.254 429.063C454.692 425.766 454.967 422.393 454.965 419.042C454.962 411.254 453.46 403.583 449.012 397.259C439.298 383.422 423.394 378.854 403.467 379.669C383.54 380.484 353.241 376.409 333.588 364.996C313.934 353.584 295.919 312.825 293.462 307.934C291.005 314.455 276.102 335.161 236.14 352.768C210.754 360.105 182.093 365.811 163.259 355.214C165.612 386.199 194.602 435.255 231.762 453.18C245.683 459.896 290.722 473.056 326.753 453.18C342.459 444.517 361.43 430.21 373.695 419.986C382.457 412.683 398.67 406.559 412.353 406.559C414.335 406.559 416.317 406.681 418.303 406.937C423.451 407.607 428.674 409.27 432.334 412.933C436.137 416.742 437.547 421.781 437.547 427.15C437.547 432.931 435.909 439.096 433.864 444.517C431.655 450.375 427.894 455.789 423.059 459.896C417.742 464.417 410.922 466.339 405.571 470.814C402.615 473.26 399.88 476.317 398.329 479.938C397.409 482.075 397.037 484.191 397.035 486.216Z" fill="#3A70A6"/>
    <path fill-rule="evenodd" clip-rule="evenodd" d="M508.242 559.068C502.262 557.664 493.927 569.327 490.857 574.008C489.839 570.096 488.189 564.111 486.168 558.07C483.933 551.33 481.22 544.525 478.39 540.434C480.067 540.054 482.488 539.29 484.101 537.829C486.794 535.4 489.034 523.32 487.166 522.404C485.297 521.486 478.908 525.595 476.391 530.199C474.774 533.164 475.275 536.675 475.848 538.81C472.255 538.9 461.811 539.061 453.689 538.01C450.576 537.614 447.798 537.041 445.884 536.203C441.531 534.317 433.127 524.981 425.09 516.052C418.283 508.49 411.739 501.219 408.143 499.017C405.296 498.523 402.894 498.56 399.918 499.271C401.472 501.157 403.011 503.035 404.528 504.954C408.605 510.118 412.43 515.741 415.603 521.604C417.434 524.993 418.966 528.518 420.498 532.043C421.711 534.832 422.923 537.622 424.285 540.346C429.627 551.044 436.045 563.172 445.122 571.757C442.947 571.7 439.173 571.91 436.548 573.685C436.548 573.685 431.832 571.51 430.4 573.036C428.974 574.549 430.661 582.561 446.061 591.616C461.451 600.664 467.614 596.546 467.596 594.469C467.589 592.477 463.302 589.356 463.302 589.356C463.302 589.356 463.37 584.891 462.758 581.78L462.753 581.759C468.421 583.135 473.918 583.033 478.587 582.364C486.25 581.267 491.678 578.631 491.964 578.491L491.968 578.49C494.721 577.858 499.833 578.751 505.507 579.742C515.743 581.529 527.81 583.637 531.163 577.686C536.394 568.432 515.702 560.82 508.242 559.068ZM507.861 562.796C502.561 561.234 492.708 575.89 492.708 575.89C494.103 575.419 498.809 575.909 504.256 576.476C513.507 577.438 524.897 578.623 525.848 575.709C527.367 571.067 513.167 564.347 507.861 562.796Z" fill="#FFBF40"/>
    <path fill-rule="evenodd" clip-rule="evenodd" d="M463.301 589.356C463.301 589.356 457.386 588.437 449.606 583.953C445.559 581.62 441.023 578.328 436.548 573.685C438.943 572.065 442.295 571.748 444.518 571.748C444.773 571.748 445.014 571.752 445.237 571.76C447.408 573.283 456.765 579.713 462.671 581.744L462.758 581.78C463.257 584.32 463.303 587.763 463.303 588.942C463.303 589.206 463.301 589.356 463.301 589.356Z" fill="#FF9F40"/>
    <path d="M475.849 538.81C474.676 538.84 472.774 538.876 470.46 538.876C465.686 538.876 459.161 538.717 453.689 538.01C457.836 542.594 468.844 554.248 486.168 558.07C483.933 551.33 481.221 544.525 478.39 540.434C480.068 540.054 482.488 539.29 484.102 537.829C486.103 536.022 487.854 528.89 487.854 524.967C487.854 523.612 487.646 522.639 487.166 522.404C486.987 522.316 486.768 522.275 486.516 522.275C484.115 522.275 478.667 526.033 476.391 530.199C475.575 531.694 475.298 533.326 475.298 534.85C475.297 536.353 475.564 537.751 475.849 538.81Z" fill="#FF9F40"/>
    <path fill-rule="evenodd" clip-rule="evenodd" d="M341.499 270.747L387.894 315.802C401.393 321.534 412.453 327.863 421.076 334.79C423.015 337.118 425.125 341.579 416.003 339.583C406.88 337.587 397.194 335.896 395.479 338.849C393.764 341.802 398.817 346.328 395.648 350.193C393.535 352.77 386.431 344.574 374.334 325.604L326.089 297.289L341.499 270.747ZM114.628 229.971L150.491 230.105C123.177 318.199 108.677 364.324 106.993 368.479C103.203 377.829 111.223 392.068 114.652 399.719C103.483 404.695 104.673 386.269 90.5824 392.794C77.7214 398.751 67.9381 409.543 53.079 400.416C51.2522 399.294 49.2503 395.069 54.0872 391.767C66.1375 383.542 83.5029 369.146 85.8492 364.408C89.0488 357.946 98.6418 313.134 114.628 229.971Z" fill="#E6B795"/>
    <path fill-rule="evenodd" clip-rule="evenodd" d="M223.909 128.697L238.071 126.279C260.381 204.784 375.007 258.296 382.044 287.643C384.624 298.405 376.843 303.845 380.863 307.123L362.455 320.538C359.337 316.917 352.685 323.54 338.793 318.907C324.902 314.275 223.909 221.653 223.909 128.697Z" fill="#C2C7CC"/>
    <path fill-rule="evenodd" clip-rule="evenodd" d="M251.878 44.9373C260.43 64.6342 274.375 109.665 267.99 117.957L220.979 124.694C220.962 124.612 220.945 124.529 220.929 124.448C203.227 125.025 187.548 112.261 184.966 94.4039L180.065 60.5158C177.294 41.3543 190.652 23.5846 209.9 20.8261L213.142 20.3615C230.623 17.8564 246.95 28.5927 251.878 44.9373Z" fill="#333230"/>
    <path fill-rule="evenodd" clip-rule="evenodd" d="M202.287 85.3167C193.555 77.659 186.952 67.687 186.064 55.5801C183.504 20.6969 232.894 21.3735 244.809 37.4573C256.723 53.541 262.001 97.9136 250.311 102.769C245.649 104.705 234.894 103.14 223.486 98.3455L236.786 143.805L197.88 149.38L202.287 85.3167Z" fill="#E6B795"/>
    <path fill-rule="evenodd" clip-rule="evenodd" d="M247.732 139.134C246.099 243.068 306.455 269.58 293.011 311.274C281.909 345.705 175.648 382.717 157.26 348.967C149.816 335.306 146.439 318.783 146.056 300.82C141.357 314.62 137.64 326.501 134.906 336.462C130.189 353.646 111.903 356.378 111.903 362.998L87.8123 356.378C89.4463 347.384 78.0892 343.005 81.1343 322.913C94.7784 232.889 131.437 167.634 191.112 127.146L191.729 118.358C191.981 114.765 195.112 112.056 198.721 112.307L242.833 115.378C246.443 115.629 249.164 118.745 248.912 122.338L247.732 139.134Z" fill="#DAE0E6"/>
    <path fill-rule="evenodd" clip-rule="evenodd" d="M211.96 77.9755C216.525 96.8863 218.972 118.878 214.381 124.84L167.37 131.577C158.199 86.6494 186.051 100.565 179.882 57.9111C181.239 56.1498 182.51 54.4168 183.796 52.895L183.563 51.6481C189.304 33.8917 198.432 24.1168 210.947 22.3233C229.719 19.6332 236.901 27.4793 243.014 34.1387C241.105 47.565 226.741 51.5737 214.894 61.4699C213.181 60.4495 211.119 59.9864 208.989 60.2916C204.065 60.9973 200.648 65.543 201.357 70.4448C202.066 75.3466 206.632 78.7482 211.556 78.0425C211.692 78.0231 211.827 78.0007 211.96 77.9755Z" fill="#333230"/>
  </g>
  <defs>
    <filter id="filter0_d_1424_2809" x="11.0707" y="-0.000671387" width="560.93" height="657.228" filterUnits="userSpaceOnUse" color-interpolation-filters="sRGB">
      <feFlood flood-opacity="0" result="BackgroundImageFix"/>
      <feColorMatrix in="SourceAlpha" type="matrix" values="0 0 0 0 0 0 0 0 0 0 0 0 0 0 0 0 0 0 127 0" result="hardAlpha"/>
      <feOffset dy="20"/>
      <feGaussianBlur stdDeviation="20"/>
      <feColorMatrix type="matrix" values="0 0 0 0 0 0 0 0 0 0 0 0 0 0 0 0 0 0 0.15 0"/>
      <feBlend mode="normal" in2="BackgroundImageFix" result="effect1_dropShadow_1424_2809"/>
      <feBlend mode="normal" in="SourceGraphic" in2="effect1_dropShadow_1424_2809" result="shape"/>
    </filter>
  </defs>
</svg>
