<svg xmlns="http://www.w3.org/2000/svg" xmlns:xlink="http://www.w3.org/1999/xlink" xmlns:lucid="lucid" width="1399" height="1380"><g transform="translate(-61 -220)" lucid:page-tab-id="0_0"><path d="M820 260c22.1 0 40 17.9 40 40s-17.9 40-40 40H700c-22.1 0-40-17.9-40-40s17.9-40 40-40z" stroke="#3a70a6" stroke-width="3" fill="#3a70a6"/><use xlink:href="#a" transform="matrix(1,0,0,1,665,265) translate(53.70499999999999 29.461111111111112)"/><use xlink:href="#b" transform="matrix(1,0,0,1,665,265) translate(42.58277777777777 55.238888888888894)"/><path d="M680 406c0-3.3 2.7-6 6-6h148c3.3 0 6 2.7 6 6v68c0 3.3-2.7 6-6 6H686c-3.3 0-6-2.7-6-6z" stroke="#5e5e5e" stroke-width="3" fill="#fff"/><use xlink:href="#c" transform="matrix(1,0,0,1,692,412) translate(33.97777777777778 20.711111111111112)"/><use xlink:href="#d" transform="matrix(1,0,0,1,692,412) translate(37.28888888888889 46.488888888888894)"/><path d="M760 343v34.88" stroke="#5e5e5e" stroke-width="3" fill="none"/><path d="M761.5 343.04h-3v-1.54h3z" fill="#5e5e5e"/><path d="M760 393.65l-4.64-14.27h9.28z" stroke="#5e5e5e" stroke-width="3" fill="#5e5e5e"/><path d="M680 546c0-3.3 2.7-6 6-6h148c3.3 0 6 2.7 6 6v68c0 3.3-2.7 6-6 6H686c-3.3 0-6-2.7-6-6z" stroke="#5e5e5e" stroke-width="3" fill="#fff"/><use xlink:href="#e" transform="matrix(1,0,0,1,692,552) translate(10.5 20.711111111111112)"/><use xlink:href="#f" transform="matrix(1,0,0,1,692,552) translate(64.94444444444444 20.711111111111112)"/><use xlink:href="#g" transform="matrix(1,0,0,1,692,552) translate(7.266666666666659 46.488888888888894)"/><path d="M760 483v34.88" stroke="#5e5e5e" stroke-width="3" fill="none"/><path d="M761.5 483.04h-3v-1.54h3z" fill="#5e5e5e"/><path d="M760 533.65l-4.64-14.27h9.28z" stroke="#5e5e5e" stroke-width="3" fill="#5e5e5e"/><path d="M843 580h114.88" stroke="#5e5e5e" stroke-width="3" fill="none"/><path d="M843.04 581.5h-1.54v-3h1.54z" fill="#5e5e5e"/><path d="M973.65 580l-14.27 4.64v-9.28z" stroke="#5e5e5e" stroke-width="3" fill="#5e5e5e"/><path d="M980 546c0-3.3 2.7-6 6-6h148c3.3 0 6 2.7 6 6v68c0 3.3-2.7 6-6 6H986c-3.3 0-6-2.7-6-6z" stroke="#5e5e5e" stroke-width="3" fill="#fff"/><use xlink:href="#h" transform="matrix(1,0,0,1,992,552) translate(3.8444444444444343 34.71111111111111)"/><use xlink:href="#i" transform="matrix(1,0,0,1,992,552) translate(62.04444444444444 34.71111111111111)"/><path d="M1065.06 623v98.1c0 .02 0 .03-.03.03-.02 0-.03 0-.03.03v78.98" stroke="#5e5e5e" stroke-width="3" fill="none"/><path d="M1066.56 623.04h-3v-1.54h3z" fill="#5e5e5e"/><path d="M1065 815.9l-4.64-14.26h9.28z" stroke="#5e5e5e" stroke-width="3" fill="#5e5e5e"/><path d="M1060.3 823.75c2.6-2.07 6.8-2.07 9.4 0l90.6 72.5c2.6 2.07 2.6 5.43 0 7.5l-90.6 72.5c-2.6 2.07-6.8 2.07-9.4 0l-90.6-72.5c-2.6-2.07-2.6-5.43 0-7.5z" stroke="#333" stroke-width="3" fill="#333"/><use xlink:href="#j" transform="matrix(1,0,0,1,970,825) translate(56.059666666666665 57.382666666666665)"/><use xlink:href="#k" transform="matrix(1,0,0,1,970,825) translate(61.073 57.382666666666665)"/><use xlink:href="#l" transform="matrix(1,0,0,1,970,825) translate(41.40499999999999 82.12933333333334)"/><use xlink:href="#m" transform="matrix(1,0,0,1,970,825) translate(115.66633333333334 82.12933333333334)"/><use xlink:href="#n" transform="matrix(1,0,0,1,970,825) translate(61.170333333333325 106.876)"/><path d="M1189.97 901.5h-24.75v-3h24.75zm47.9 0h-23.67v-3h23.68z" fill="#ef8d22"/><path d="M1165.26 901.5h-1.84l.37-1.13-.37-1.87h1.83zM1253.65 900l-14.27 4.64v-9.28z" fill="#ef8d22"/><path d="M1258.5 900l-20.62 6.7v-13.4zm-17.62 2.57l7.9-2.57-7.9-2.57z" fill="#ef8d22"/><use xlink:href="#o" transform="matrix(1,0,0,1,1189.9666860022041,890.0355555555556) translate(0 16.56888888888889)"/><path d="M1260 866c0-3.3 2.7-6 6-6h148c3.3 0 6 2.7 6 6v68c0 3.3-2.7 6-6 6h-148c-3.3 0-6-2.7-6-6z" stroke="#5e5e5e" stroke-width="3" fill="#fff"/><use xlink:href="#p" transform="matrix(1,0,0,1,1272,872) translate(13.033333333333331 20.711111111111112)"/><use xlink:href="#q" transform="matrix(1,0,0,1,1272,872) translate(114.34444444444445 20.711111111111112)"/><use xlink:href="#r" transform="matrix(1,0,0,1,1272,872) translate(10.62222222222222 46.488888888888894)"/><use xlink:href="#s" transform="matrix(1,0,0,1,1272,872) translate(70.6 46.488888888888894)"/><use xlink:href="#t" transform="matrix(1,0,0,1,1272,872) translate(87.5111111111111 46.488888888888894)"/><path d="M1066.5 1104.87l-.98 3.6-2.7 2.72-3.62.97H862.12v-3h196.68l2.45-.67 1.6-1.58.65-2.45v-80.86h3zm0-101.2h-3v-22.93h3z" fill="#3a70a6"/><path d="M1066.5 980.78h-3v-1.6l2.38.1.62-.14zM860.62 1115.3l-14.27-4.63 14.27-4.64z" fill="#3a70a6"/><path d="M862.12 1117.37l-20.62-6.7 20.62-6.7zm-10.9-6.7l7.9 2.57v-5.14z" fill="#3a70a6"/><use xlink:href="#u" transform="matrix(1,0,0,1,1050.4044444444444,1003.682177963447) translate(0 16.56888888888889)"/><path d="M760 623v34.88" stroke="#5e5e5e" stroke-width="3" fill="none"/><path d="M761.5 623.04h-3v-1.54h3z" fill="#5e5e5e"/><path d="M760 673.65l-4.64-14.27h9.28z" stroke="#5e5e5e" stroke-width="3" fill="#5e5e5e"/><path d="M680 686c0-3.3 2.7-6 6-6h148c3.3 0 6 2.7 6 6v68c0 3.3-2.7 6-6 6H686c-3.3 0-6-2.7-6-6z" stroke="#5e5e5e" stroke-width="3" fill="#fff"/><use xlink:href="#v" transform="matrix(1,0,0,1,692,692) translate(17.67777777777777 34.96111111111111)"/><path d="M760 763v37.14" stroke="#5e5e5e" stroke-width="3" fill="none"/><path d="M761.5 763.04h-3v-1.54h3z" fill="#5e5e5e"/><path d="M760 815.9l-4.64-14.26h9.28z" stroke="#5e5e5e" stroke-width="3" fill="#5e5e5e"/><path d="M755.3 823.75c2.6-2.07 6.8-2.07 9.4 0l90.6 72.5c2.6 2.07 2.6 5.43 0 7.5l-90.6 72.5c-2.6 2.07-6.8 2.07-9.4 0l-90.6-72.5c-2.6-2.07-2.6-5.43 0-7.5z" stroke="#333" stroke-width="3" fill="#333"/><use xlink:href="#w" transform="matrix(1,0,0,1,665,825) translate(76.305 58.21111111111111)"/><use xlink:href="#x" transform="matrix(1,0,0,1,665,825) translate(41.81611111111111 83.9888888888889)"/><use xlink:href="#y" transform="matrix(1,0,0,1,665,825) translate(95.005 109.76666666666667)"/><path d="M761.5 1037.88h-3v-13.8h3zm0-33.73h-3v-23.4h3z" fill="#3a70a6"/><path d="M761.5 980.78h-3v-1.6l2.38.1.62-.14zM760 1053.65l-4.64-14.27h9.28z" fill="#3a70a6"/><path d="M760 1058.5l-6.7-20.62h13.4zm-2.57-17.62l2.57 7.9 2.57-7.9z" fill="#3a70a6"/><use xlink:href="#u" transform="matrix(1,0,0,1,745.4044444444445,1004.147798074445) translate(0 16.56888888888889)"/><path d="M680 1066c0-3.3 2.7-6 6-6h148c3.3 0 6 2.7 6 6v89.33c0 3.32-2.7 6-6 6H686c-3.3 0-6-2.68-6-6z" stroke="#5e5e5e" stroke-width="3" fill="#fff"/><use xlink:href="#z" transform="matrix(1,0,0,1,692,1072) translate(-1.1555555555555657 33.93333333333334)"/><use xlink:href="#A" transform="matrix(1,0,0,1,692,1072) translate(35.75555555555555 59.71111111111111)"/><path d="M760 1164.33v35.8" stroke="#5e5e5e" stroke-width="3" fill="none"/><path d="M761.5 1164.37h-3v-1.54h3z" fill="#5e5e5e"/><path d="M760 1215.9l-4.64-14.26h9.28z" stroke="#5e5e5e" stroke-width="3" fill="#5e5e5e"/><path d="M755.3 1223.75c2.6-2.07 6.8-2.07 9.4 0l90.6 72.5c2.6 2.07 2.6 5.43 0 7.5l-90.6 72.5c-2.6 2.07-6.8 2.07-9.4 0l-90.6-72.5c-2.6-2.07-2.6-5.43 0-7.5z" stroke="#333" stroke-width="3" fill="#333"/><use xlink:href="#B" transform="matrix(1,0,0,1,665,1225) translate(51.73833333333333 72.27361111111111)"/><use xlink:href="#C" transform="matrix(1,0,0,1,665,1225) translate(56.52722222222222 98.05138888888888)"/><path d="M596.76 901.5h-34.64v-3h34.64zm63.02 0h-38.8v-3h38.8z" fill="#ef8d22"/><path d="M661.2 899.63l.37 1.87h-1.83v-3h1.84zM560.62 904.64L546.35 900l14.27-4.64z" fill="#ef8d22"/><path d="M562.12 906.7L541.5 900l20.62-6.7zm-10.9-6.7l7.9 2.57v-5.14z" fill="#ef8d22"/><use xlink:href="#o" transform="matrix(1,0,0,1,596.7609434028305,890.0355555555556) translate(0 16.56888888888889)"/><path d="M320 853.33c0-3.3 2.7-6 6-6h208c3.3 0 6 2.7 6 6v93.34c0 3.3-2.7 6-6 6H326c-3.3 0-6-2.7-6-6z" stroke="#333" stroke-width="3" fill="#fff"/><use xlink:href="#D" transform="matrix(1,0,0,1,332,859.3333333333333) translate(4.377777777777766 36.08611111111111)"/><use xlink:href="#E" transform="matrix(1,0,0,1,332,859.3333333333333) translate(70.15555555555555 36.08611111111111)"/><use xlink:href="#F" transform="matrix(1,0,0,1,332,859.3333333333333) translate(17.422222222222217 61.863888888888894)"/><use xlink:href="#G" transform="matrix(1,0,0,1,332,859.3333333333333) translate(78.57777777777778 61.863888888888894)"/><use xlink:href="#H" transform="matrix(1,0,0,1,332,859.3333333333333) translate(96.42222222222223 61.863888888888894)"/><path d="M761.5 1453.3h-3v-26.35h3zm0-46.28h-3v-26.28h3z" fill="#3a70a6"/><path d="M761.5 1380.78h-3v-1.6l2.38.1.62-.14zM760 1469.05l-4.64-14.26h9.28z" fill="#3a70a6"/><path d="M760 1473.9l-6.7-20.6h13.4zm-2.57-17.6l2.57 7.9 2.57-7.9z" fill="#3a70a6"/><g><use xlink:href="#u" transform="matrix(1,0,0,1,745.4044444444445,1407.0180383593372) translate(0 16.56888888888889)"/></g><path d="M820 1475.4c22.1 0 40 18.94 40 42.3 0 23.36-17.9 42.3-40 42.3H700c-22.1 0-40-18.94-40-42.3 0-23.36 17.9-42.3 40-42.3z" stroke="#3a70a6" stroke-width="3" fill="#3a70a6"/><g><use xlink:href="#I" transform="matrix(1,0,0,1,672,1487.4080776245046) translate(53.97777777777778 20.711111111111112)"/><use xlink:href="#J" transform="matrix(1,0,0,1,672,1487.4080776245046) translate(8.766666666666652 46.488888888888894)"/><use xlink:href="#K" transform="matrix(1,0,0,1,672,1487.4080776245046) translate(96.58888888888889 46.488888888888894)"/></g><path d="M596.76 1301.5h-34.64v-3h34.64zm63.02 0h-38.8v-3h38.8z" fill="#ef8d22"/><path d="M661.2 1299.63l.37 1.87h-1.83v-3h1.84zM560.62 1304.64l-14.27-4.64 14.27-4.64z" fill="#ef8d22"/><path d="M562.12 1306.7l-20.62-6.7 20.62-6.7zm-10.9-6.7l7.9 2.57v-5.14z" fill="#ef8d22"/><g><use xlink:href="#o" transform="matrix(1,0,0,1,596.7609434028305,1290.0355555555554) translate(0 16.56888888888889)"/></g><path d="M320 1253.33c0-3.3 2.7-6 6-6h208c3.3 0 6 2.7 6 6v93.34c0 3.3-2.7 6-6 6H326c-3.3 0-6-2.7-6-6z" stroke="#333" stroke-width="3" fill="#fff"/><g><use xlink:href="#L" transform="matrix(1,0,0,1,332,1259.3333333333335) translate(18.27777777777777 36.08611111111111)"/><use xlink:href="#M" transform="matrix(1,0,0,1,332,1259.3333333333335) translate(102.98888888888888 36.08611111111111)"/><use xlink:href="#N" transform="matrix(1,0,0,1,332,1259.3333333333335) translate(11.111111111111114 61.863888888888894)"/><use xlink:href="#O" transform="matrix(1,0,0,1,332,1259.3333333333335) translate(72.26666666666668 61.863888888888894)"/><use xlink:href="#P" transform="matrix(1,0,0,1,332,1259.3333333333335) translate(102.73333333333335 61.863888888888894)"/></g><path d="M430 1244.33v-127.66c0-3.32 2.7-6 6-6h221.88" stroke="#5e5e5e" stroke-width="3" fill="none"/><path d="M431.5 1245.83h-3v-1.54h3z" fill="#5e5e5e"/><path d="M673.65 1110.67l-14.27 4.63v-9.27z" stroke="#5e5e5e" stroke-width="3" fill="#5e5e5e"/><path d="M430 844.33V586c0-3.3 2.7-6 6-6h221.88" stroke="#5e5e5e" stroke-width="3" fill="none"/><path d="M431.5 845.83h-3v-1.54h3z" fill="#5e5e5e"/><path d="M673.65 580l-14.27 4.64v-9.28z" stroke="#5e5e5e" stroke-width="3" fill="#5e5e5e"/><defs><path fill="#fff" d="M88-693h97V0H88v-693" id="Q"/><path fill="#fff" d="M279-449c-36 1-74 4-104 10V0H82v-505c55-13 130-26 207-26 153 0 213 87 213 239V0h-93v-272c1-107-22-180-130-177" id="R"/><path fill="#fff" d="M447-14c-35 17-88 26-139 26C139 12 53-90 53-259c0-187 118-299 319-268 23 4 46 10 67 19l-21 79c-28-13-66-22-107-22-111 1-162 75-161 192 1 118 51 189 170 189 43 1 87-10 114-22" id="S"/><path fill="#fff" d="M175 0H82v-520h93V0zm13-675c0 35-26 61-60 61s-60-26-60-61 26-61 60-61 60 26 60 61" id="T"/><path fill="#fff" d="M315-70c41 0 75-4 103-11v-329c-24-19-73-42-119-40-110 2-147 80-149 190-2 113 59 189 165 190zm-28-462c51-2 103 18 131 35v-263l93-16v761C458-1 388 13 314 12 145 7 53-90 53-260c0-162 75-266 234-272" id="U"/><path fill="#fff" d="M315 12C141 9 53-87 53-259c0-164 81-274 237-274 163 0 227 118 216 298H150c9 108 58 165 175 165 54 0 101-11 133-25l13 78c-33 16-99 31-156 29zm95-322c8-101-82-177-178-132-47 22-73 71-80 132h258" id="V"/><path fill="#fff" d="M257 11C121 11 76-66 76-201v-464l93-16v161h197v78H169v240c-1 80 17 131 96 131 43 0 79-13 103-23l18 77c-27 12-82 28-129 28" id="W"/><g id="a"><use transform="matrix(0.022222222222222223,0,0,0.022222222222222223,0,0)" xlink:href="#Q"/><use transform="matrix(0.022222222222222223,0,0,0.022222222222222223,6.066666666666667,0)" xlink:href="#R"/><use transform="matrix(0.022222222222222223,0,0,0.022222222222222223,18.91111111111111,0)" xlink:href="#S"/><use transform="matrix(0.022222222222222223,0,0,0.022222222222222223,29.333333333333336,0)" xlink:href="#T"/><use transform="matrix(0.022222222222222223,0,0,0.022222222222222223,35.044444444444444,0)" xlink:href="#U"/><use transform="matrix(0.022222222222222223,0,0,0.022222222222222223,48.22222222222222,0)" xlink:href="#V"/><use transform="matrix(0.022222222222222223,0,0,0.022222222222222223,60.733333333333334,0)" xlink:href="#R"/><use transform="matrix(0.022222222222222223,0,0,0.022222222222222223,73.57777777777778,0)" xlink:href="#W"/></g><path fill="#fff" d="M524-693h97V0h-97v-320H185V0H88v-693h97v289h339v-289" id="X"/><path fill="#fff" d="M139-156c0 106 132 93 220 82v-155c-78-22-220-23-220 73zm-94 1c-2-152 173-180 314-148 5-94-26-150-117-150-50 0-101 8-132 20l-11-77c32-13 99-23 151-23 135 0 201 66 200 199V-9C390 1 319 11 247 11 126 11 46-34 45-155" id="Y"/><path fill="#fff" d="M294-70c109-2 147-79 149-189 2-113-59-188-165-189-45 0-73 2-103 10v328c24 19 73 42 119 40zm-15-461c169 5 261 102 261 272C540-98 465 6 306 12c-51 2-103-18-131-35v208H82v-689c54-12 122-29 197-27" id="Z"/><g id="b"><use transform="matrix(0.022222222222222223,0,0,0.022222222222222223,0,0)" xlink:href="#X"/><use transform="matrix(0.022222222222222223,0,0,0.022222222222222223,15.755555555555556,0)" xlink:href="#Y"/><use transform="matrix(0.022222222222222223,0,0,0.022222222222222223,27.444444444444446,0)" xlink:href="#Z"/><use transform="matrix(0.022222222222222223,0,0,0.022222222222222223,40.62222222222223,0)" xlink:href="#Z"/><use transform="matrix(0.022222222222222223,0,0,0.022222222222222223,53.800000000000004,0)" xlink:href="#V"/><use transform="matrix(0.022222222222222223,0,0,0.022222222222222223,66.31111111111112,0)" xlink:href="#R"/><use transform="matrix(0.022222222222222223,0,0,0.022222222222222223,79.15555555555557,0)" xlink:href="#V"/><use transform="matrix(0.022222222222222223,0,0,0.022222222222222223,91.66666666666667,0)" xlink:href="#U"/></g><path fill="#333" d="M597-29C545 0 469 15 386 15 168 15 67-125 60-347c-8-284 240-432 510-326 11 4 18 9 22 12l-28 80c-42-23-98-43-163-43-163 0-238 111-238 277 0 165 69 273 232 277 73 3 134-19 177-39" id="aa"/><path fill="#333" d="M82-498c73-28 204-47 296-18l-16 81c-44-19-138-19-187-2V0H82v-498" id="ab"/><path fill="#333" d="M315 12C141 9 53-87 53-259c0-164 81-274 237-274 163 0 227 118 216 298H150c9 108 58 165 175 165 54 0 101-11 133-25l13 78c-33 16-99 31-156 29zm95-322c8-101-82-177-178-132-47 22-73 71-80 132h258" id="ac"/><path fill="#333" d="M139-156c0 106 132 93 220 82v-155c-78-22-220-23-220 73zm-94 1c-2-152 173-180 314-148 5-94-26-150-117-150-50 0-101 8-132 20l-11-77c32-13 99-23 151-23 135 0 201 66 200 199V-9C390 1 319 11 247 11 126 11 46-34 45-155" id="ad"/><path fill="#333" d="M257 11C121 11 76-66 76-201v-464l93-16v161h197v78H169v240c-1 80 17 131 96 131 43 0 79-13 103-23l18 77c-27 12-82 28-129 28" id="ae"/><g id="c"><use transform="matrix(0.022222222222222223,0,0,0.022222222222222223,0,0)" xlink:href="#aa"/><use transform="matrix(0.022222222222222223,0,0,0.022222222222222223,13.866666666666667,0)" xlink:href="#ab"/><use transform="matrix(0.022222222222222223,0,0,0.022222222222222223,22.533333333333335,0)" xlink:href="#ac"/><use transform="matrix(0.022222222222222223,0,0,0.022222222222222223,35.044444444444444,0)" xlink:href="#ad"/><use transform="matrix(0.022222222222222223,0,0,0.022222222222222223,46.733333333333334,0)" xlink:href="#ae"/><use transform="matrix(0.022222222222222223,0,0,0.022222222222222223,55.53333333333334,0)" xlink:href="#ac"/></g><path fill="#333" d="M551-693v84H333V0h-97v-609H18v-84h533" id="af"/><path fill="#333" d="M175 0H82v-520h93V0zm13-675c0 35-26 61-60 61s-60-26-60-61 26-61 60-61 60 26 60 61" id="ag"/><path fill="#333" d="M447-14c-35 17-88 26-139 26C139 12 53-90 53-259c0-187 118-299 319-268 23 4 46 10 67 19l-21 79c-28-13-66-22-107-22-111 1-162 75-161 192 1 118 51 189 170 189 43 1 87-10 114-22" id="ah"/><path fill="#333" d="M490-520c-69 78-147 159-220 234 93 75 176 181 240 286H401c-59-95-136-186-226-250V0H82v-760l93-16v474c70-69 142-144 206-218h109" id="ai"/><g id="d"><use transform="matrix(0.022222222222222223,0,0,0.022222222222222223,0,0)" xlink:href="#af"/><use transform="matrix(0.022222222222222223,0,0,0.022222222222222223,12.644444444444446,0)" xlink:href="#ag"/><use transform="matrix(0.022222222222222223,0,0,0.022222222222222223,18.355555555555558,0)" xlink:href="#ah"/><use transform="matrix(0.022222222222222223,0,0,0.022222222222222223,28.77777777777778,0)" xlink:href="#ai"/><use transform="matrix(0.022222222222222223,0,0,0.022222222222222223,39.888888888888886,0)" xlink:href="#ac"/><use transform="matrix(0.022222222222222223,0,0,0.022222222222222223,52.4,0)" xlink:href="#ae"/></g><path fill="#333" d="M88-683c49-13 125-17 184-17 175 0 303 59 303 221 0 202-179 229-390 222V0H88v-683zm385 203c0-140-156-141-288-132v272c146 2 288 4 288-140" id="aj"/><path fill="#333" d="M300-71c36 0 74-3 103-10v-439h93v505C441-2 367 11 290 11 138 11 76-78 76-228v-292h93v272c2 116 24 177 131 177" id="ak"/><path fill="#333" d="M59-97c36 13 83 32 144 30 63-2 112-9 112-63 0-99-160-93-221-153-24-24-44-52-44-100 0-151 196-178 331-127l-17 80c-60-35-257-49-214 69 69 92 264 59 259 227-2 107-89 146-206 146C133 12 82-2 42-17" id="al"/><path fill="#333" d="M279-449c-38 1-76 8-104 17V0H82v-760l93-16v266c32-12 72-21 114-21 153-1 213 87 213 239V0h-93v-272c1-107-22-181-130-177" id="am"/><g id="e"><use transform="matrix(0.022222222222222223,0,0,0.022222222222222223,0,0)" xlink:href="#aj"/><use transform="matrix(0.022222222222222223,0,0,0.022222222222222223,13.6,0)" xlink:href="#ak"/><use transform="matrix(0.022222222222222223,0,0,0.022222222222222223,26.44444444444444,0)" xlink:href="#al"/><use transform="matrix(0.022222222222222223,0,0,0.022222222222222223,36.44444444444444,0)" xlink:href="#am"/></g><path fill="#333" d="M10 0c89-244 173-472 279-693h89C484-472 568-243 657 0H551c-23-60-41-116-63-177H174L111 0H10zm450-257c-42-112-82-221-129-325-48 103-88 212-129 325h258" id="an"/><path fill="#333" d="M173-151c-3 59 26 79 78 83l-13 78C129 7 80-30 80-136v-624l93-16v625" id="ao"/><path fill="#333" d="M278-449c-36 0-74 4-103 10V0H82v-505c94-23 290-55 347 27 41-28 96-52 166-53 149-3 194 91 194 239V0h-93v-272c0-100-11-177-111-177-50 0-96 17-119 35 30 114 10 276 16 414h-93v-272c0-99-12-179-111-177" id="ap"/><g id="f"><use transform="matrix(0.022222222222222223,0,0,0.022222222222222223,0,0)" xlink:href="#an"/><use transform="matrix(0.022222222222222223,0,0,0.022222222222222223,14.822222222222223,0)" xlink:href="#ao"/><use transform="matrix(0.022222222222222223,0,0,0.022222222222222223,20.977777777777778,0)" xlink:href="#ad"/><use transform="matrix(0.022222222222222223,0,0,0.022222222222222223,32.66666666666667,0)" xlink:href="#ab"/><use transform="matrix(0.022222222222222223,0,0,0.022222222222222223,41.33333333333334,0)" xlink:href="#ap"/></g><path fill="#333" d="M563 0C450-189 321-377 183-541V0H88v-693h77c137 151 274 337 384 513v-513h95V0h-81" id="aq"/><path fill="#333" d="M297-533c160 0 244 110 244 273S457 13 297 13 53-97 53-260s84-273 244-273zm0 464c98 0 147-85 147-191s-49-191-147-191-147 85-147 191S199-69 297-69" id="ar"/><path fill="#333" d="M82-567C68-745 227-812 397-759l-17 80c-21-10-52-17-88-17-102 0-122 72-117 176h200v78H175V0H82v-567" id="as"/><path fill="#333" d="M279-449c-36 1-74 4-104 10V0H82v-505c55-13 130-26 207-26 153 0 213 87 213 239V0h-93v-272c1-107-22-180-130-177" id="at"/><g id="g"><use transform="matrix(0.022222222222222223,0,0,0.022222222222222223,0,0)" xlink:href="#aq"/><use transform="matrix(0.022222222222222223,0,0,0.022222222222222223,16.266666666666666,0)" xlink:href="#ar"/><use transform="matrix(0.022222222222222223,0,0,0.022222222222222223,29.46666666666667,0)" xlink:href="#ae"/><use transform="matrix(0.022222222222222223,0,0,0.022222222222222223,38.488888888888894,0)" xlink:href="#ag"/><use transform="matrix(0.022222222222222223,0,0,0.022222222222222223,44.2,0)" xlink:href="#as"/><use transform="matrix(0.022222222222222223,0,0,0.022222222222222223,52.86666666666668,0)" xlink:href="#ag"/><use transform="matrix(0.022222222222222223,0,0,0.022222222222222223,58.57777777777778,0)" xlink:href="#ah"/><use transform="matrix(0.022222222222222223,0,0,0.022222222222222223,69,0)" xlink:href="#ad"/><use transform="matrix(0.022222222222222223,0,0,0.022222222222222223,80.6888888888889,0)" xlink:href="#ae"/><use transform="matrix(0.022222222222222223,0,0,0.022222222222222223,89.71111111111112,0)" xlink:href="#ag"/><use transform="matrix(0.022222222222222223,0,0,0.022222222222222223,95.42222222222223,0)" xlink:href="#ar"/><use transform="matrix(0.022222222222222223,0,0,0.022222222222222223,108.62222222222222,0)" xlink:href="#at"/></g><path fill="#333" d="M315-70c41 0 75-4 103-11v-329c-24-19-73-42-119-40-110 2-147 80-149 190-2 113 59 189 165 190zm-28-462c51-2 103 18 131 35v-263l93-16v761C458-1 388 13 314 12 145 7 53-90 53-260c0-162 75-266 234-272" id="au"/><g id="h"><use transform="matrix(0.022222222222222223,0,0,0.022222222222222223,0,0)" xlink:href="#af"/><use transform="matrix(0.022222222222222223,0,0,0.022222222222222223,12.644444444444446,0)" xlink:href="#am"/><use transform="matrix(0.022222222222222223,0,0,0.022222222222222223,25.422222222222224,0)" xlink:href="#ag"/><use transform="matrix(0.022222222222222223,0,0,0.022222222222222223,31.133333333333333,0)" xlink:href="#ab"/><use transform="matrix(0.022222222222222223,0,0,0.022222222222222223,39.800000000000004,0)" xlink:href="#au"/></g><g id="i"><use transform="matrix(0.022222222222222223,0,0,0.022222222222222223,0,0)" xlink:href="#aj"/><use transform="matrix(0.022222222222222223,0,0,0.022222222222222223,12.88888888888889,0)" xlink:href="#ac"/><use transform="matrix(0.022222222222222223,0,0,0.022222222222222223,25.400000000000002,0)" xlink:href="#ab"/><use transform="matrix(0.022222222222222223,0,0,0.022222222222222223,34.06666666666666,0)" xlink:href="#al"/><use transform="matrix(0.022222222222222223,0,0,0.022222222222222223,44.06666666666666,0)" xlink:href="#ar"/><use transform="matrix(0.022222222222222223,0,0,0.022222222222222223,57.266666666666666,0)" xlink:href="#at"/></g><path fill="#fff" d="M10 0c89-244 173-472 279-693h89C484-472 568-243 657 0H551c-23-60-41-116-63-177H174L111 0H10zm450-257c-42-112-82-221-129-325-48 103-88 212-129 325h258" id="av"/><path fill="#fff" d="M266-100c50-137 84-270 119-420h96C435-330 371-148 306 16 261 129 164 226 4 172l17-75c41 21 118 16 149-11 20-17 39-42 56-79C145-149 66-333 18-520h100c37 148 89 293 148 420" id="aw"/><path fill="#fff" d="M297-533c160 0 244 110 244 273S457 13 297 13 53-97 53-260s84-273 244-273zm0 464c98 0 147-85 147-191s-49-191-147-191-147 85-147 191S199-69 297-69" id="ax"/><g id="k"><use transform="matrix(0.021333333333333336,0,0,0.021333333333333336,0,0)" xlink:href="#av"/><use transform="matrix(0.021333333333333336,0,0,0.021333333333333336,14.229333333333335,0)" xlink:href="#R"/><use transform="matrix(0.021333333333333336,0,0,0.021333333333333336,26.176000000000002,0)" xlink:href="#aw"/><use transform="matrix(0.021333333333333336,0,0,0.021333333333333336,36.864000000000004,0)" xlink:href="#ax"/><use transform="matrix(0.021333333333333336,0,0,0.021333333333333336,49.53600000000001,0)" xlink:href="#R"/><use transform="matrix(0.021333333333333336,0,0,0.021333333333333336,61.866666666666674,0)" xlink:href="#V"/></g><path fill="#fff" d="M173-151c-3 59 26 79 78 83l-13 78C129 7 80-30 80-136v-624l93-16v625" id="ay"/><g id="l"><use transform="matrix(0.021333333333333336,0,0,0.021333333333333336,0,0)" xlink:href="#X"/><use transform="matrix(0.021333333333333336,0,0,0.021333333333333336,15.125333333333336,0)" xlink:href="#Y"/><use transform="matrix(0.021333333333333336,0,0,0.021333333333333336,26.34666666666667,0)" xlink:href="#R"/><use transform="matrix(0.021333333333333336,0,0,0.021333333333333336,38.67733333333334,0)" xlink:href="#U"/><use transform="matrix(0.021333333333333336,0,0,0.021333333333333336,51.32800000000001,0)" xlink:href="#ay"/><use transform="matrix(0.021333333333333336,0,0,0.021333333333333336,57.23733333333334,0)" xlink:href="#V"/></g><path fill="#fff" d="M279-449c-38 1-76 8-104 17V0H82v-760l93-16v266c32-12 72-21 114-21 153-1 213 87 213 239V0h-93v-272c1-107-22-181-130-177" id="az"/><g id="m"><use transform="matrix(0.021333333333333336,0,0,0.021333333333333336,0,0)" xlink:href="#W"/><use transform="matrix(0.021333333333333336,0,0,0.021333333333333336,8.661333333333335,0)" xlink:href="#az"/><use transform="matrix(0.021333333333333336,0,0,0.021333333333333336,20.928000000000004,0)" xlink:href="#V"/></g><path fill="#fff" d="M551-693v84H333V0h-97v-609H18v-84h533" id="aA"/><path fill="#fff" d="M490-520c-69 78-147 159-220 234 93 75 176 181 240 286H401c-59-95-136-186-226-250V0H82v-760l93-16v474c70-69 142-144 206-218h109" id="aB"/><path fill="#fff" d="M270-488c37-70-11-143-94-143-44 0-87 11-129 34l-26-72c44-23 101-40 167-40 118 1 191 54 191 165 0 157-182 159-173 328h-78c-26-143 94-180 142-272zm-98 367c39 0 67 30 67 67s-28 67-67 67-67-30-67-67 28-67 67-67" id="aC"/><g id="n"><use transform="matrix(0.021333333333333336,0,0,0.021333333333333336,0,0)" xlink:href="#aA"/><use transform="matrix(0.021333333333333336,0,0,0.021333333333333336,12.138666666666667,0)" xlink:href="#T"/><use transform="matrix(0.021333333333333336,0,0,0.021333333333333336,17.621333333333336,0)" xlink:href="#S"/><use transform="matrix(0.021333333333333336,0,0,0.021333333333333336,27.62666666666667,0)" xlink:href="#aB"/><use transform="matrix(0.021333333333333336,0,0,0.021333333333333336,38.293333333333344,0)" xlink:href="#V"/><use transform="matrix(0.021333333333333336,0,0,0.021333333333333336,50.304000000000016,0)" xlink:href="#W"/><use transform="matrix(0.021333333333333336,0,0,0.021333333333333336,58.96533333333335,0)" xlink:href="#aC"/></g><path fill="#ef8d22" d="M545 0c-90-159-195-319-311-454V0H80v-693h127c114 118 220 269 314 409v-409h155V0H545" id="aD"/><path fill="#ef8d22" d="M304-540c166 0 258 108 258 276 0 170-90 278-258 278S45-95 45-264c0-168 94-276 259-276zm0 426c75 0 106-68 106-150s-31-148-106-148-107 66-107 148 32 150 107 150" id="aE"/><g id="o"><use transform="matrix(0.017777777777777778,0,0,0.017777777777777778,0,0)" xlink:href="#aD"/><use transform="matrix(0.017777777777777778,0,0,0.017777777777777778,13.44,0)" xlink:href="#aE"/></g><path fill="#333" d="M252 108c114 0 161-44 156-160-25 15-79 35-127 33-151-6-228-96-228-252 0-162 90-254 252-260 75-2 141 15 195 27v464c0 164-85 227-250 228-62 1-124-12-168-27l17-81c38 15 98 28 153 28zm38-207c46 2 92-16 117-35v-304c-29-7-58-11-101-11-102-1-157 76-156 179 2 102 44 167 140 171" id="aF"/><g id="p"><use transform="matrix(0.022222222222222223,0,0,0.022222222222222223,0,0)" xlink:href="#aj"/><use transform="matrix(0.022222222222222223,0,0,0.022222222222222223,12.88888888888889,0)" xlink:href="#ac"/><use transform="matrix(0.022222222222222223,0,0,0.022222222222222223,25.400000000000002,0)" xlink:href="#at"/><use transform="matrix(0.022222222222222223,0,0,0.022222222222222223,38.24444444444444,0)" xlink:href="#au"/><use transform="matrix(0.022222222222222223,0,0,0.022222222222222223,51.42222222222222,0)" xlink:href="#au"/><use transform="matrix(0.022222222222222223,0,0,0.022222222222222223,64.6,0)" xlink:href="#ag"/><use transform="matrix(0.022222222222222223,0,0,0.022222222222222223,70.3111111111111,0)" xlink:href="#at"/><use transform="matrix(0.022222222222222223,0,0,0.022222222222222223,83.15555555555555,0)" xlink:href="#aF"/></g><path fill="#333" d="M73 185h-95l339-968h93" id="aG"/><use transform="matrix(0.022222222222222223,0,0,0.022222222222222223,0,0)" xlink:href="#aG" id="q"/><path fill="#333" d="M682-533C610-400 540-239 477-96h-78c-63-145-132-302-205-437-15 163-23 356-30 533H69c10-236 25-474 51-693h85c86 143 163 321 233 480 71-159 147-337 233-480h85c23 223 40 454 51 693h-95c-7-177-15-370-30-533" id="aH"/><g id="r"><use transform="matrix(0.022222222222222223,0,0,0.022222222222222223,0,0)" xlink:href="#aH"/><use transform="matrix(0.022222222222222223,0,0,0.022222222222222223,19.444444444444446,0)" xlink:href="#ad"/><use transform="matrix(0.022222222222222223,0,0,0.022222222222222223,31.133333333333333,0)" xlink:href="#ai"/><use transform="matrix(0.022222222222222223,0,0,0.022222222222222223,42.24444444444445,0)" xlink:href="#ac"/></g><use transform="matrix(0.022222222222222223,0,0,0.022222222222222223,0,0)" xlink:href="#ad" id="s"/><g id="t"><use transform="matrix(0.022222222222222223,0,0,0.022222222222222223,0,0)" xlink:href="#aa"/><use transform="matrix(0.022222222222222223,0,0,0.022222222222222223,13.866666666666667,0)" xlink:href="#ad"/><use transform="matrix(0.022222222222222223,0,0,0.022222222222222223,25.555555555555557,0)" xlink:href="#ao"/><use transform="matrix(0.022222222222222223,0,0,0.022222222222222223,31.711111111111112,0)" xlink:href="#ao"/></g><path fill="#3a70a6" d="M656-693c-77 152-157 287-247 428V0H253v-263C163-403 82-541 5-693h181c44 99 94 193 148 285 54-92 106-186 150-285h172" id="aI"/><path fill="#3a70a6" d="M323 14C144 14 45-83 45-259c0-170 90-275 252-281 176-6 262 133 239 326H198c8 66 67 100 145 100 51 0 111-11 145-26l20 121C460 2 393 14 323 14zm72-330c13-111-157-138-187-38-4 12-8 25-10 38h197" id="aJ"/><path fill="#3a70a6" d="M64-139c45 18 98 32 157 32 46 0 72-1 75-39-14-53-105-62-152-89-51-30-89-66-91-145-5-167 225-188 368-133l-26 116c-36-12-75-23-125-23-84 0-86 59-30 82 96 39 207 59 204 194-2 116-97 158-224 158C148 14 81-2 39-18" id="aK"/><g id="u"><use transform="matrix(0.017777777777777778,0,0,0.017777777777777778,0,0)" xlink:href="#aI"/><use transform="matrix(0.017777777777777778,0,0,0.017777777777777778,10.186666666666667,0)" xlink:href="#aJ"/><use transform="matrix(0.017777777777777778,0,0,0.017777777777777778,20.56888888888889,0)" xlink:href="#aK"/></g><g id="v"><use transform="matrix(0.022222222222222223,0,0,0.022222222222222223,0,0)" xlink:href="#af"/><use transform="matrix(0.022222222222222223,0,0,0.022222222222222223,11.422222222222226,0)" xlink:href="#ac"/><use transform="matrix(0.022222222222222223,0,0,0.022222222222222223,23.93333333333334,0)" xlink:href="#ah"/><use transform="matrix(0.022222222222222223,0,0,0.022222222222222223,34.35555555555556,0)" xlink:href="#am"/><use transform="matrix(0.022222222222222223,0,0,0.022222222222222223,47.13333333333333,0)" xlink:href="#at"/><use transform="matrix(0.022222222222222223,0,0,0.022222222222222223,59.97777777777779,0)" xlink:href="#ag"/><use transform="matrix(0.022222222222222223,0,0,0.022222222222222223,65.6888888888889,0)" xlink:href="#ah"/><use transform="matrix(0.022222222222222223,0,0,0.022222222222222223,76.11111111111111,0)" xlink:href="#ad"/><use transform="matrix(0.022222222222222223,0,0,0.022222222222222223,87.80000000000001,0)" xlink:href="#at"/></g><g id="w"><use transform="matrix(0.022222222222222223,0,0,0.022222222222222223,0,0)" xlink:href="#av"/><use transform="matrix(0.022222222222222223,0,0,0.022222222222222223,14.822222222222223,0)" xlink:href="#R"/><use transform="matrix(0.022222222222222223,0,0,0.022222222222222223,27.26666666666667,0)" xlink:href="#aw"/></g><path fill="#fff" d="M571-481c0 104-59 163-144 191 67 84 137 186 186 290H507c-51-97-115-192-181-272-45 2-94 0-141 1V0H88v-683c49-13 125-17 184-17 175 0 299 58 299 219zm-102-1c0-139-153-139-284-130v261c140 0 284 11 284-131" id="aL"/><path fill="#fff" d="M59-97c36 13 83 32 144 30 63-2 112-9 112-63 0-99-160-93-221-153-24-24-44-52-44-100 0-151 196-178 331-127l-17 80c-60-35-257-49-214 69 69 92 264 59 259 227-2 107-89 146-206 146C133 12 82-2 42-17" id="aM"/><g id="x"><use transform="matrix(0.022222222222222223,0,0,0.022222222222222223,0,0)" xlink:href="#aL"/><use transform="matrix(0.022222222222222223,0,0,0.022222222222222223,14.066666666666666,0)" xlink:href="#V"/><use transform="matrix(0.022222222222222223,0,0,0.022222222222222223,26.577777777777772,0)" xlink:href="#aM"/><use transform="matrix(0.022222222222222223,0,0,0.022222222222222223,36.577777777777776,0)" xlink:href="#Z"/><use transform="matrix(0.022222222222222223,0,0,0.022222222222222223,49.75555555555556,0)" xlink:href="#ax"/><use transform="matrix(0.022222222222222223,0,0,0.022222222222222223,62.955555555555556,0)" xlink:href="#R"/><use transform="matrix(0.022222222222222223,0,0,0.022222222222222223,75.8,0)" xlink:href="#aM"/><use transform="matrix(0.022222222222222223,0,0,0.022222222222222223,85.8,0)" xlink:href="#V"/><use transform="matrix(0.022222222222222223,0,0,0.022222222222222223,98.31111111111109,0)" xlink:href="#aC"/></g><path fill="#333" d="M609-258C606-86 520 15 346 15S83-86 83-258v-435h97v424c-3 125 55 198 166 198 117 0 165-77 166-198v-424h97v435" id="aN"/><path fill="#333" d="M294-70c109-2 147-79 149-189 2-113-59-188-165-189-45 0-73 2-103 10v328c24 19 73 42 119 40zm-15-461c169 5 261 102 261 272C540-98 465 6 306 12c-51 2-103-18-131-35v208H82v-689c54-12 122-29 197-27" id="aO"/><path fill="#333" d="M64-114c42 22 110 45 185 45 127 0 189-72 139-159-74-129-329-76-337-288-8-203 271-234 423-150l-31 79c-73-47-295-73-292 60 2 88 82 103 147 131 102 44 200 79 205 222C510 40 191 50 35-34" id="aP"/><path fill="#333" d="M761-520C714-334 656-153 588 0h-81c-40-105-86-236-117-357-31 122-76 252-116 357h-81C125-153 67-334 20-520h100c31 138 71 286 118 407 45-126 85-269 117-407h77c30 140 70 281 115 407 46-123 88-268 118-407h96" id="aQ"/><g id="z"><use transform="matrix(0.022222222222222223,0,0,0.022222222222222223,0,0)" xlink:href="#aN"/><use transform="matrix(0.022222222222222223,0,0,0.022222222222222223,15.377777777777778,0)" xlink:href="#aO"/><use transform="matrix(0.022222222222222223,0,0,0.022222222222222223,28.555555555555557,0)" xlink:href="#au"/><use transform="matrix(0.022222222222222223,0,0,0.022222222222222223,41.733333333333334,0)" xlink:href="#ad"/><use transform="matrix(0.022222222222222223,0,0,0.022222222222222223,53.422222222222224,0)" xlink:href="#ae"/><use transform="matrix(0.022222222222222223,0,0,0.022222222222222223,62.22222222222222,0)" xlink:href="#ac"/><use transform="matrix(0.022222222222222223,0,0,0.022222222222222223,74.73333333333333,0)" xlink:href="#aG"/><use transform="matrix(0.022222222222222223,0,0,0.022222222222222223,83.35555555555555,0)" xlink:href="#aP"/><use transform="matrix(0.022222222222222223,0,0,0.022222222222222223,95.26666666666667,0)" xlink:href="#am"/><use transform="matrix(0.022222222222222223,0,0,0.022222222222222223,108.04444444444445,0)" xlink:href="#ar"/><use transform="matrix(0.022222222222222223,0,0,0.022222222222222223,120.95555555555556,0)" xlink:href="#aQ"/></g><g id="A"><use transform="matrix(0.022222222222222223,0,0,0.022222222222222223,0,0)" xlink:href="#aP"/><use transform="matrix(0.022222222222222223,0,0,0.022222222222222223,11.911111111111111,0)" xlink:href="#ae"/><use transform="matrix(0.022222222222222223,0,0,0.022222222222222223,20.933333333333334,0)" xlink:href="#ad"/><use transform="matrix(0.022222222222222223,0,0,0.022222222222222223,32.62222222222222,0)" xlink:href="#ae"/><use transform="matrix(0.022222222222222223,0,0,0.022222222222222223,41.644444444444446,0)" xlink:href="#ak"/><use transform="matrix(0.022222222222222223,0,0,0.022222222222222223,54.488888888888894,0)" xlink:href="#al"/></g><path fill="#fff" d="M88-683c49-13 125-17 184-17 175 0 303 59 303 221 0 202-179 229-390 222V0H88v-683zm385 203c0-140-156-141-288-132v272c146 2 288 4 288-140" id="aR"/><path fill="#fff" d="M82-498c73-28 204-47 296-18l-16 81c-44-19-138-19-187-2V0H82v-498" id="aS"/><path fill="#fff" d="M279 12C204 13 135-1 82-15v-745l93-16v279c28-17 80-37 131-35 159 6 234 110 234 272C540-90 448 7 279 12zm15-462c-46-2-95 21-119 40v329c28 7 62 11 103 11 106 0 167-77 165-190-2-110-39-188-149-190" id="aT"/><path fill="#fff" d="M278-449c-36 0-74 4-103 10V0H82v-505c94-23 290-55 347 27 41-28 96-52 166-53 149-3 194 91 194 239V0h-93v-272c0-100-11-177-111-177-50 0-96 17-119 35 30 114 10 276 16 414h-93v-272c0-99-12-179-111-177" id="aU"/><g id="B"><use transform="matrix(0.022222222222222223,0,0,0.022222222222222223,0,0)" xlink:href="#aR"/><use transform="matrix(0.022222222222222223,0,0,0.022222222222222223,13.6,0)" xlink:href="#aS"/><use transform="matrix(0.022222222222222223,0,0,0.022222222222222223,22.266666666666666,0)" xlink:href="#ax"/><use transform="matrix(0.022222222222222223,0,0,0.022222222222222223,35.46666666666667,0)" xlink:href="#aT"/><use transform="matrix(0.022222222222222223,0,0,0.022222222222222223,48.644444444444446,0)" xlink:href="#ay"/><use transform="matrix(0.022222222222222223,0,0,0.022222222222222223,54.800000000000004,0)" xlink:href="#V"/><use transform="matrix(0.022222222222222223,0,0,0.022222222222222223,67.31111111111112,0)" xlink:href="#aU"/></g><path fill="#fff" d="M64-114c42 22 110 45 185 45 127 0 189-72 139-159-74-129-329-76-337-288-8-203 271-234 423-150l-31 79c-73-47-295-73-292 60 2 88 82 103 147 131 102 44 200 79 205 222C510 40 191 50 35-34" id="aV"/><path fill="#fff" d="M255-109c52-125 101-269 137-411h96C441-339 364-151 295 0h-84C142-151 64-339 18-520h100c36 142 85 286 137 411" id="aW"/><g id="C"><use transform="matrix(0.022222222222222223,0,0,0.022222222222222223,0,0)" xlink:href="#aV"/><use transform="matrix(0.022222222222222223,0,0,0.022222222222222223,11.911111111111111,0)" xlink:href="#ax"/><use transform="matrix(0.022222222222222223,0,0,0.022222222222222223,25.11111111111111,0)" xlink:href="#ay"/><use transform="matrix(0.022222222222222223,0,0,0.022222222222222223,31.26666666666667,0)" xlink:href="#aW"/><use transform="matrix(0.022222222222222223,0,0,0.022222222222222223,42.2,0)" xlink:href="#V"/><use transform="matrix(0.022222222222222223,0,0,0.022222222222222223,54.711111111111116,0)" xlink:href="#U"/><use transform="matrix(0.022222222222222223,0,0,0.022222222222222223,67.8888888888889,0)" xlink:href="#aC"/></g><g id="D"><use transform="matrix(0.022222222222222223,0,0,0.022222222222222223,0,0)" xlink:href="#an"/><use transform="matrix(0.022222222222222223,0,0,0.022222222222222223,14.822222222222223,0)" xlink:href="#ao"/><use transform="matrix(0.022222222222222223,0,0,0.022222222222222223,20.977777777777778,0)" xlink:href="#ad"/><use transform="matrix(0.022222222222222223,0,0,0.022222222222222223,32.66666666666667,0)" xlink:href="#ab"/><use transform="matrix(0.022222222222222223,0,0,0.022222222222222223,41.33333333333334,0)" xlink:href="#ap"/></g><g id="E"><use transform="matrix(0.022222222222222223,0,0,0.022222222222222223,0,0)" xlink:href="#aq"/><use transform="matrix(0.022222222222222223,0,0,0.022222222222222223,16.266666666666666,0)" xlink:href="#ar"/><use transform="matrix(0.022222222222222223,0,0,0.022222222222222223,29.46666666666667,0)" xlink:href="#ae"/><use transform="matrix(0.022222222222222223,0,0,0.022222222222222223,38.488888888888894,0)" xlink:href="#ag"/><use transform="matrix(0.022222222222222223,0,0,0.022222222222222223,44.2,0)" xlink:href="#as"/><use transform="matrix(0.022222222222222223,0,0,0.022222222222222223,52.86666666666668,0)" xlink:href="#ag"/><use transform="matrix(0.022222222222222223,0,0,0.022222222222222223,58.57777777777778,0)" xlink:href="#ah"/><use transform="matrix(0.022222222222222223,0,0,0.022222222222222223,69,0)" xlink:href="#ad"/><use transform="matrix(0.022222222222222223,0,0,0.022222222222222223,80.6888888888889,0)" xlink:href="#ae"/><use transform="matrix(0.022222222222222223,0,0,0.022222222222222223,89.71111111111112,0)" xlink:href="#ag"/><use transform="matrix(0.022222222222222223,0,0,0.022222222222222223,95.42222222222223,0)" xlink:href="#ar"/><use transform="matrix(0.022222222222222223,0,0,0.022222222222222223,108.62222222222222,0)" xlink:href="#at"/></g><path fill="#333" d="M88 0v-693h423v83H185v206h290v81H185v240h351V0H88" id="aX"/><path fill="#333" d="M255-109c52-125 101-269 137-411h96C441-339 364-151 295 0h-84C142-151 64-339 18-520h100c36 142 85 286 137 411" id="aY"/><path fill="#333" d="M266-100c50-137 84-270 119-420h96C435-330 371-148 306 16 261 129 164 226 4 172l17-75c41 21 118 16 149-11 20-17 39-42 56-79C145-149 66-333 18-520h100c37 148 89 293 148 420" id="aZ"/><g id="F"><use transform="matrix(0.022222222222222223,0,0,0.022222222222222223,0,0)" xlink:href="#aX"/><use transform="matrix(0.022222222222222223,0,0,0.022222222222222223,12.222222222222223,0)" xlink:href="#aY"/><use transform="matrix(0.022222222222222223,0,0,0.022222222222222223,23.155555555555555,0)" xlink:href="#ac"/><use transform="matrix(0.022222222222222223,0,0,0.022222222222222223,35.66666666666667,0)" xlink:href="#ab"/><use transform="matrix(0.022222222222222223,0,0,0.022222222222222223,44.80000000000001,0)" xlink:href="#aZ"/></g><path fill="#333" d="M75-102c35 15 93 34 153 34 105 0 166-38 166-129 0-111-97-136-213-134v-76c101 4 183-19 183-115 0-72-48-104-120-105-60-1-104 22-138 43l-36-71c46-28 103-54 177-54 130 0 210 57 213 182 2 76-53 126-106 151 79 25 134 80 137 181C500 17 234 52 57-21" id="ba"/><use transform="matrix(0.022222222222222223,0,0,0.022222222222222223,0,0)" xlink:href="#ba" id="G"/><g id="H"><use transform="matrix(0.022222222222222223,0,0,0.022222222222222223,0,0)" xlink:href="#aH"/><use transform="matrix(0.022222222222222223,0,0,0.022222222222222223,19.444444444444446,0)" xlink:href="#ag"/><use transform="matrix(0.022222222222222223,0,0,0.022222222222222223,25.155555555555555,0)" xlink:href="#at"/><use transform="matrix(0.022222222222222223,0,0,0.022222222222222223,38,0)" xlink:href="#ak"/><use transform="matrix(0.022222222222222223,0,0,0.022222222222222223,50.84444444444445,0)" xlink:href="#ae"/><use transform="matrix(0.022222222222222223,0,0,0.022222222222222223,59.644444444444446,0)" xlink:href="#ac"/><use transform="matrix(0.022222222222222223,0,0,0.022222222222222223,72.15555555555555,0)" xlink:href="#al"/></g><path fill="#fff" d="M597-29C545 0 469 15 386 15 168 15 67-125 60-347c-8-284 240-432 510-326 11 4 18 9 22 12l-28 80c-42-23-98-43-163-43-163 0-238 111-238 277 0 165 69 273 232 277 73 3 134-19 177-39" id="bb"/><g id="I"><use transform="matrix(0.022222222222222223,0,0,0.022222222222222223,0,0)" xlink:href="#bb"/><use transform="matrix(0.022222222222222223,0,0,0.022222222222222223,13.866666666666667,0)" xlink:href="#aS"/><use transform="matrix(0.022222222222222223,0,0,0.022222222222222223,22.533333333333335,0)" xlink:href="#V"/><use transform="matrix(0.022222222222222223,0,0,0.022222222222222223,35.044444444444444,0)" xlink:href="#Y"/><use transform="matrix(0.022222222222222223,0,0,0.022222222222222223,46.733333333333334,0)" xlink:href="#W"/><use transform="matrix(0.022222222222222223,0,0,0.022222222222222223,55.53333333333334,0)" xlink:href="#V"/></g><g id="J"><use transform="matrix(0.022222222222222223,0,0,0.022222222222222223,0,0)" xlink:href="#Q"/><use transform="matrix(0.022222222222222223,0,0,0.022222222222222223,6.066666666666667,0)" xlink:href="#R"/><use transform="matrix(0.022222222222222223,0,0,0.022222222222222223,18.91111111111111,0)" xlink:href="#S"/><use transform="matrix(0.022222222222222223,0,0,0.022222222222222223,29.333333333333336,0)" xlink:href="#T"/><use transform="matrix(0.022222222222222223,0,0,0.022222222222222223,35.044444444444444,0)" xlink:href="#U"/><use transform="matrix(0.022222222222222223,0,0,0.022222222222222223,48.22222222222222,0)" xlink:href="#V"/><use transform="matrix(0.022222222222222223,0,0,0.022222222222222223,60.733333333333334,0)" xlink:href="#R"/><use transform="matrix(0.022222222222222223,0,0,0.022222222222222223,73.57777777777778,0)" xlink:href="#W"/></g><g id="K"><use transform="matrix(0.022222222222222223,0,0,0.022222222222222223,0,0)" xlink:href="#aL"/><use transform="matrix(0.022222222222222223,0,0,0.022222222222222223,14.066666666666666,0)" xlink:href="#V"/><use transform="matrix(0.022222222222222223,0,0,0.022222222222222223,26.577777777777772,0)" xlink:href="#Z"/><use transform="matrix(0.022222222222222223,0,0,0.022222222222222223,39.75555555555555,0)" xlink:href="#ax"/><use transform="matrix(0.022222222222222223,0,0,0.022222222222222223,52.955555555555556,0)" xlink:href="#aS"/><use transform="matrix(0.022222222222222223,0,0,0.022222222222222223,61.62222222222223,0)" xlink:href="#W"/></g><path fill="#333" d="M571-481c0 104-59 163-144 191 67 84 137 186 186 290H507c-51-97-115-192-181-272-45 2-94 0-141 1V0H88v-683c49-13 125-17 184-17 175 0 299 58 299 219zm-102-1c0-139-153-139-284-130v261c140 0 284 11 284-131" id="bc"/><path fill="#333" d="M315-448c-106 1-167 76-165 189 2 110 40 187 149 189 46 2 95-21 119-40v-328c-30-8-58-10-103-10zM287 12C128 6 53-98 53-259c0-170 92-267 261-272 75-2 143 15 197 27v689h-93V-23c-28 17-80 37-131 35" id="bd"/><g id="L"><use transform="matrix(0.022222222222222223,0,0,0.022222222222222223,0,0)" xlink:href="#bc"/><use transform="matrix(0.022222222222222223,0,0,0.022222222222222223,14.066666666666666,0)" xlink:href="#ac"/><use transform="matrix(0.022222222222222223,0,0,0.022222222222222223,26.577777777777772,0)" xlink:href="#bd"/><use transform="matrix(0.022222222222222223,0,0,0.022222222222222223,39.75555555555555,0)" xlink:href="#ak"/><use transform="matrix(0.022222222222222223,0,0,0.022222222222222223,52.599999999999994,0)" xlink:href="#ag"/><use transform="matrix(0.022222222222222223,0,0,0.022222222222222223,58.3111111111111,0)" xlink:href="#ab"/><use transform="matrix(0.022222222222222223,0,0,0.022222222222222223,66.97777777777777,0)" xlink:href="#ac"/></g><g id="M"><use transform="matrix(0.022222222222222223,0,0,0.022222222222222223,0,0)" xlink:href="#aN"/><use transform="matrix(0.022222222222222223,0,0,0.022222222222222223,15.377777777777778,0)" xlink:href="#aO"/><use transform="matrix(0.022222222222222223,0,0,0.022222222222222223,28.555555555555557,0)" xlink:href="#au"/><use transform="matrix(0.022222222222222223,0,0,0.022222222222222223,41.733333333333334,0)" xlink:href="#ad"/><use transform="matrix(0.022222222222222223,0,0,0.022222222222222223,53.422222222222224,0)" xlink:href="#ae"/><use transform="matrix(0.022222222222222223,0,0,0.022222222222222223,62.22222222222222,0)" xlink:href="#ac"/></g><g id="N"><use transform="matrix(0.022222222222222223,0,0,0.022222222222222223,0,0)" xlink:href="#aX"/><use transform="matrix(0.022222222222222223,0,0,0.022222222222222223,12.222222222222223,0)" xlink:href="#aY"/><use transform="matrix(0.022222222222222223,0,0,0.022222222222222223,23.155555555555555,0)" xlink:href="#ac"/><use transform="matrix(0.022222222222222223,0,0,0.022222222222222223,35.66666666666667,0)" xlink:href="#ab"/><use transform="matrix(0.022222222222222223,0,0,0.022222222222222223,44.80000000000001,0)" xlink:href="#aZ"/></g><path fill="#333" d="M284 15C113 15 52-150 52-347s61-362 232-362 232 165 232 362S455 15 284 15zm64-105c75-64 80-230 64-365-11-87-37-172-128-172-152 0-143 232-128 388 8 87 37 172 128 172 25 0 47-8 64-23" id="be"/><g id="O"><use transform="matrix(0.022222222222222223,0,0,0.022222222222222223,0,0)" xlink:href="#ba"/><use transform="matrix(0.022222222222222223,0,0,0.022222222222222223,12.622222222222224,0)" xlink:href="#be"/></g><g id="P"><use transform="matrix(0.022222222222222223,0,0,0.022222222222222223,0,0)" xlink:href="#aH"/><use transform="matrix(0.022222222222222223,0,0,0.022222222222222223,19.444444444444446,0)" xlink:href="#ag"/><use transform="matrix(0.022222222222222223,0,0,0.022222222222222223,25.155555555555555,0)" xlink:href="#at"/><use transform="matrix(0.022222222222222223,0,0,0.022222222222222223,38,0)" xlink:href="#ak"/><use transform="matrix(0.022222222222222223,0,0,0.022222222222222223,50.84444444444445,0)" xlink:href="#ae"/><use transform="matrix(0.022222222222222223,0,0,0.022222222222222223,59.644444444444446,0)" xlink:href="#ac"/><use transform="matrix(0.022222222222222223,0,0,0.022222222222222223,72.15555555555555,0)" xlink:href="#al"/></g></defs></g></svg>