<svg width="139" height="74" viewBox="0 0 139 74" fill="none" xmlns="http://www.w3.org/2000/svg">
<path fill-rule="evenodd" clip-rule="evenodd" d="M46.3375 15.4664C37.2108 10.5219 24.8025 7.22148 6 7.22148V4.22412C25.1579 4.22412 38.0906 7.58885 47.7675 12.8315C57.4357 18.0695 63.7213 25.1159 69.6425 32.1793C70.1647 32.8022 70.6837 33.4248 71.2018 34.0462C76.5839 40.502 81.8575 46.8275 89.4172 52.038C97.4042 57.5429 108.02 61.8437 124.079 63.4685L124.373 56.4025L139 65.67L123.653 73.6928L123.954 66.4684C107.373 64.8146 96.208 60.3599 87.7137 54.5052C79.7984 49.0497 74.2695 42.4138 68.9179 35.9907C68.3918 35.3592 67.8674 34.7299 67.3426 34.1039C61.4535 27.0788 55.473 20.4158 46.3375 15.4664Z" fill="#FF9F40"/>
<path d="M12.0433 6C12.0433 2.68629 9.34733 0 6.02166 0C2.69599 0 0 2.68629 0 6C0 9.31371 2.69599 12 6.02166 12C9.34733 12 12.0433 9.31371 12.0433 6Z" fill="white"/>
<path fill-rule="evenodd" clip-rule="evenodd" d="M6.02166 3C7.6845 3 9.03249 4.34315 9.03249 6C9.03249 7.65685 7.6845 9 6.02166 9C4.35883 9 3.01083 7.65685 3.01083 6C3.01083 4.34315 4.35883 3 6.02166 3ZM6.02166 0C9.34733 0 12.0433 2.68629 12.0433 6C12.0433 9.31371 9.34733 12 6.02166 12C2.69599 12 0 9.31371 0 6C0 2.68629 2.69599 0 6.02166 0Z" fill="#FF9F40"/>
</svg>
