<svg width="490" height="758" viewBox="0 0 490 758" fill="none" xmlns="http://www.w3.org/2000/svg">
<path d="M246 70C246 69.4477 245.552 69 245 69C244.448 69 244 69.4477 244 70H246ZM245 122.5L250.774 112.5H239.226L245 122.5ZM244 70V113.5H246V70H244Z" fill="white"/>
<path d="M246 354C246 353.448 245.552 353 245 353C244.448 353 244 353.448 244 354H246ZM245 406.5L250.774 396.5H239.226L245 406.5ZM244 354V397.5H246V354H244Z" fill="white"/>
<path d="M355 328C355.552 328 356 327.552 356 327C356 326.448 355.552 326 355 326V328ZM305 327L315 332.774V321.226L305 327ZM355 326H314V328H355V326Z" fill="white"/>
<path d="M246 532C246 531.448 245.552 531 245 531C244.448 531 244 531.448 244 532H246ZM245 688L250.774 678H239.226L245 688ZM244 532V679H246V532H244Z" fill="white"/>
<path d="M246 248C246 247.448 245.552 247 245 247C244.448 247 244 247.448 244 248H246ZM245 300.5L250.774 290.5H239.226L245 300.5ZM244 248V291.5H246V248H244Z" fill="white"/>
<path d="M174 187C174.552 187 175 186.552 175 186C175 185.448 174.552 185 174 185V187ZM245 688L250.773 678H239.227L245 688ZM174 185H107V187H174V185ZM74 218V631.025H76V218H74ZM107 664.025H229V662.025H107V664.025ZM229 664.025C237.284 664.025 244 670.741 244 679.025H246C246 669.636 238.389 662.025 229 662.025V664.025ZM74 631.025C74 649.25 88.7746 664.025 107 664.025V662.025C89.8792 662.025 76 648.146 76 631.025H74ZM107 185C88.7746 185 74 199.775 74 218H76C76 200.879 89.8792 187 107 187V185Z" fill="white"/>
<path d="M245 688L239.227 678H250.773L245 688ZM416 598V631H414V598H416ZM383 664H261V662H383V664ZM261 664C252.716 664 246 670.716 246 679H244C244 669.611 251.611 662 261 662V664ZM416 631C416 649.225 401.225 664 383 664V662C400.121 662 414 648.121 414 631H416Z" fill="white"/>
<path d="M316 468C315.448 468 315 468.448 315 469C315 469.552 315.448 470 316 470V468ZM415 354L409.227 364H420.774L415 354ZM316 470H383V468H316V470ZM416 437V363H414V437H416ZM383 470C401.225 470 416 455.225 416 437H414C414 454.121 400.121 468 383 468V470Z" fill="white"/>
<path d="M316 470C315.448 470 315 469.552 315 469C315 468.448 315.448 468 316 468V470ZM415 544L409.226 534H420.774L415 544ZM316 468H383V470H316V468ZM416 501V535H414V501H416ZM383 468C401.225 468 416 482.775 416 501H414C414 483.879 400.121 470 383 470V468Z" fill="white"/>
<path d="M185 43C185 28.0883 197.088 16 212 16H278C292.912 16 305 28.0883 305 43C305 57.9117 292.912 70 278 70H212C197.088 70 185 57.9117 185 43Z" fill="#FF9F40"/>
<path d="M235.453 49.128C234.867 49.128 234.275 49.1067 233.677 49.064C233.08 49.032 232.557 48.9573 232.109 48.84V38.072C232.344 38.0293 232.595 37.992 232.861 37.96C233.128 37.9173 233.4 37.8853 233.677 37.864C233.955 37.8427 234.227 37.8267 234.493 37.816C234.771 37.8053 235.032 37.8 235.277 37.8C235.949 37.8 236.573 37.8533 237.149 37.96C237.725 38.056 238.221 38.2213 238.637 38.456C239.064 38.6907 239.395 39 239.629 39.384C239.864 39.768 239.981 40.2427 239.981 40.808C239.981 41.3307 239.853 41.7787 239.597 42.152C239.352 42.5253 239.005 42.824 238.557 43.048C239.229 43.272 239.725 43.6027 240.045 44.04C240.365 44.4773 240.525 45.032 240.525 45.704C240.525 46.8453 240.109 47.704 239.277 48.28C238.445 48.8453 237.171 49.128 235.453 49.128ZM234.093 44.008V47.384C234.317 47.4053 234.557 47.4213 234.813 47.432C235.069 47.4427 235.304 47.448 235.517 47.448C235.933 47.448 236.317 47.4213 236.669 47.368C237.032 47.3147 237.341 47.224 237.597 47.096C237.864 46.9573 238.072 46.776 238.221 46.552C238.381 46.328 238.461 46.04 238.461 45.688C238.461 45.0587 238.232 44.6213 237.773 44.376C237.315 44.1307 236.68 44.008 235.869 44.008H234.093ZM234.093 42.424H235.517C236.285 42.424 236.888 42.3173 237.325 42.104C237.763 41.88 237.981 41.4853 237.981 40.92C237.981 40.3867 237.752 40.008 237.293 39.784C236.845 39.56 236.259 39.448 235.533 39.448C235.224 39.448 234.947 39.4533 234.701 39.464C234.467 39.4747 234.264 39.4907 234.093 39.512V42.424ZM245.473 47.64C246.07 47.64 246.524 47.608 246.833 47.544V45.4C246.726 45.368 246.572 45.336 246.369 45.304C246.166 45.272 245.942 45.256 245.697 45.256C245.484 45.256 245.265 45.272 245.041 45.304C244.828 45.336 244.63 45.3947 244.449 45.48C244.278 45.5653 244.14 45.688 244.033 45.848C243.926 45.9973 243.873 46.1893 243.873 46.424C243.873 46.8827 244.017 47.2027 244.305 47.384C244.593 47.5547 244.982 47.64 245.473 47.64ZM245.313 40.424C245.953 40.424 246.492 40.504 246.929 40.664C247.366 40.824 247.713 41.048 247.969 41.336C248.236 41.624 248.422 41.976 248.529 42.392C248.646 42.7973 248.705 43.2453 248.705 43.736V48.808C248.406 48.872 247.953 48.9467 247.345 49.032C246.748 49.128 246.07 49.176 245.313 49.176C244.812 49.176 244.353 49.128 243.937 49.032C243.521 48.936 243.164 48.7813 242.865 48.568C242.577 48.3547 242.348 48.0773 242.177 47.736C242.017 47.3947 241.937 46.9733 241.937 46.472C241.937 45.992 242.028 45.5867 242.209 45.256C242.401 44.9253 242.657 44.6587 242.977 44.456C243.297 44.2427 243.665 44.0933 244.081 44.008C244.508 43.912 244.95 43.864 245.409 43.864C245.622 43.864 245.846 43.88 246.081 43.912C246.316 43.9333 246.566 43.976 246.833 44.04V43.72C246.833 43.496 246.806 43.2827 246.753 43.08C246.7 42.8773 246.604 42.7013 246.465 42.552C246.337 42.392 246.161 42.2693 245.937 42.184C245.724 42.0987 245.452 42.056 245.121 42.056C244.673 42.056 244.262 42.088 243.889 42.152C243.516 42.216 243.212 42.2907 242.977 42.376L242.737 40.808C242.982 40.7227 243.34 40.6373 243.809 40.552C244.278 40.4667 244.78 40.424 245.313 40.424ZM252.596 44.6C252.596 45.4213 252.772 46.024 253.124 46.408C253.486 46.7813 253.95 46.968 254.516 46.968C254.825 46.968 255.113 46.9253 255.38 46.84C255.657 46.7547 255.881 46.6533 256.052 46.536V42.2C255.913 42.168 255.742 42.1413 255.54 42.12C255.337 42.088 255.081 42.072 254.772 42.072C254.068 42.072 253.529 42.3067 253.156 42.776C252.782 43.2347 252.596 43.8427 252.596 44.6ZM257.988 48.152C257.988 49.4853 257.646 50.4613 256.964 51.08C256.292 51.6987 255.257 52.008 253.86 52.008C253.348 52.008 252.846 51.9653 252.356 51.88C251.876 51.7947 251.438 51.6827 251.044 51.544L251.396 49.896C251.726 50.0347 252.1 50.1467 252.516 50.232C252.942 50.3173 253.401 50.36 253.892 50.36C254.67 50.36 255.225 50.2 255.556 49.88C255.886 49.56 256.052 49.0853 256.052 48.456V48.136C255.86 48.232 255.604 48.328 255.284 48.424C254.974 48.52 254.617 48.568 254.212 48.568C253.678 48.568 253.188 48.4827 252.74 48.312C252.302 48.1413 251.924 47.8907 251.604 47.56C251.294 47.2293 251.049 46.8187 250.868 46.328C250.697 45.8267 250.612 45.2507 250.612 44.6C250.612 43.992 250.702 43.432 250.884 42.92C251.076 42.408 251.348 41.9707 251.7 41.608C252.062 41.2453 252.5 40.9627 253.012 40.76C253.524 40.5573 254.105 40.456 254.756 40.456C255.385 40.456 255.982 40.504 256.548 40.6C257.113 40.696 257.593 40.7973 257.988 40.904V48.152Z" fill="white"/>
<path d="M185 715C185 700.088 197.088 688 212 688H278C292.912 688 305 700.088 305 715C305 729.912 292.912 742 278 742H212C197.088 742 185 729.912 185 715Z" fill="#FF9F40"/>
<path d="M216.17 721.24C215.338 721.24 214.591 721.112 213.93 720.856C213.269 720.6 212.709 720.227 212.25 719.736C211.791 719.235 211.439 718.627 211.194 717.912C210.949 717.197 210.826 716.376 210.826 715.448C210.826 714.52 210.965 713.699 211.242 712.984C211.53 712.269 211.919 711.667 212.41 711.176C212.901 710.675 213.477 710.296 214.138 710.04C214.799 709.784 215.509 709.656 216.266 709.656C216.725 709.656 217.141 709.693 217.514 709.768C217.887 709.832 218.213 709.907 218.49 709.992C218.767 710.077 218.997 710.168 219.178 710.264C219.359 710.36 219.487 710.429 219.562 710.472L218.97 712.12C218.714 711.96 218.346 711.811 217.866 711.672C217.397 711.523 216.885 711.448 216.33 711.448C215.85 711.448 215.402 711.533 214.986 711.704C214.57 711.864 214.207 712.109 213.898 712.44C213.599 712.771 213.365 713.187 213.194 713.688C213.023 714.189 212.938 714.771 212.938 715.432C212.938 716.019 213.002 716.557 213.13 717.048C213.269 717.539 213.477 717.965 213.754 718.328C214.031 718.68 214.383 718.957 214.81 719.16C215.237 719.352 215.749 719.448 216.346 719.448C217.061 719.448 217.642 719.379 218.09 719.24C218.538 719.091 218.885 718.952 219.13 718.824L219.674 720.472C219.546 720.557 219.37 720.643 219.146 720.728C218.933 720.813 218.677 720.899 218.378 720.984C218.079 721.059 217.743 721.117 217.37 721.16C216.997 721.213 216.597 721.24 216.17 721.24ZM221.349 721V708.904L223.285 708.584V712.728C223.499 712.653 223.744 712.589 224.021 712.536C224.309 712.483 224.592 712.456 224.869 712.456C225.541 712.456 226.096 712.552 226.533 712.744C226.981 712.925 227.339 713.187 227.605 713.528C227.872 713.859 228.059 714.259 228.165 714.728C228.283 715.197 228.341 715.72 228.341 716.296V721H226.405V716.6C226.405 716.152 226.373 715.773 226.309 715.464C226.256 715.144 226.16 714.888 226.021 714.696C225.893 714.493 225.717 714.349 225.493 714.264C225.269 714.168 224.992 714.12 224.661 714.12C224.405 714.12 224.144 714.147 223.877 714.2C223.611 714.253 223.413 714.301 223.285 714.344V721H221.349ZM230.198 716.856C230.198 716.12 230.304 715.475 230.518 714.92C230.742 714.365 231.035 713.907 231.398 713.544C231.76 713.171 232.176 712.893 232.646 712.712C233.115 712.52 233.595 712.424 234.086 712.424C235.238 712.424 236.134 712.781 236.774 713.496C237.424 714.211 237.75 715.277 237.75 716.696C237.75 716.803 237.744 716.925 237.734 717.064C237.734 717.192 237.728 717.309 237.718 717.416H232.198C232.251 718.088 232.486 718.611 232.902 718.984C233.328 719.347 233.942 719.528 234.742 719.528C235.211 719.528 235.638 719.485 236.022 719.4C236.416 719.315 236.726 719.224 236.95 719.128L237.206 720.712C237.099 720.765 236.95 720.824 236.758 720.888C236.576 720.941 236.363 720.989 236.118 721.032C235.883 721.085 235.627 721.128 235.35 721.16C235.072 721.192 234.79 721.208 234.502 721.208C233.766 721.208 233.126 721.101 232.582 720.888C232.038 720.664 231.59 720.36 231.238 719.976C230.886 719.581 230.624 719.123 230.454 718.6C230.283 718.067 230.198 717.485 230.198 716.856ZM235.814 715.992C235.814 715.725 235.776 715.475 235.702 715.24C235.627 714.995 235.515 714.787 235.366 714.616C235.227 714.435 235.051 714.296 234.838 714.2C234.635 714.093 234.39 714.04 234.102 714.04C233.803 714.04 233.542 714.099 233.318 714.216C233.094 714.323 232.902 714.467 232.742 714.648C232.592 714.829 232.475 715.037 232.39 715.272C232.304 715.507 232.246 715.747 232.214 715.992H235.814ZM239.338 716.824C239.338 716.205 239.434 715.629 239.626 715.096C239.818 714.552 240.09 714.083 240.442 713.688C240.805 713.293 241.242 712.984 241.754 712.76C242.266 712.536 242.842 712.424 243.482 712.424C244.272 712.424 245.018 712.568 245.722 712.856L245.306 714.44C245.082 714.344 244.826 714.264 244.538 714.2C244.261 714.136 243.962 714.104 243.642 714.104C242.885 714.104 242.309 714.344 241.914 714.824C241.52 715.293 241.322 715.96 241.322 716.824C241.322 717.656 241.509 718.317 241.882 718.808C242.256 719.288 242.885 719.528 243.77 719.528C244.101 719.528 244.426 719.496 244.746 719.432C245.066 719.368 245.344 719.288 245.578 719.192L245.85 720.792C245.637 720.899 245.312 720.995 244.874 721.08C244.448 721.165 244.005 721.208 243.546 721.208C242.832 721.208 242.208 721.101 241.674 720.888C241.152 720.664 240.714 720.36 240.362 719.976C240.021 719.581 239.765 719.117 239.594 718.584C239.424 718.04 239.338 717.453 239.338 716.824ZM249.285 715.896C249.531 715.64 249.792 715.368 250.069 715.08C250.347 714.781 250.619 714.488 250.885 714.2C251.152 713.901 251.403 713.619 251.637 713.352C251.883 713.075 252.091 712.835 252.261 712.632H254.549C254.016 713.229 253.451 713.848 252.853 714.488C252.267 715.128 251.675 715.752 251.077 716.36C251.397 716.627 251.733 716.952 252.085 717.336C252.437 717.709 252.779 718.109 253.109 718.536C253.44 718.963 253.749 719.389 254.037 719.816C254.325 720.243 254.565 720.637 254.757 721H252.517C252.325 720.669 252.101 720.323 251.845 719.96C251.6 719.597 251.333 719.245 251.045 718.904C250.757 718.563 250.464 718.243 250.165 717.944C249.867 717.635 249.573 717.373 249.285 717.16V721H247.349V708.904L249.285 708.584V715.896ZM263.308 716.808C263.308 717.469 263.212 718.072 263.02 718.616C262.828 719.16 262.556 719.624 262.204 720.008C261.852 720.392 261.425 720.691 260.924 720.904C260.433 721.117 259.889 721.224 259.292 721.224C258.694 721.224 258.15 721.117 257.66 720.904C257.169 720.691 256.748 720.392 256.396 720.008C256.044 719.624 255.766 719.16 255.564 718.616C255.372 718.072 255.276 717.469 255.276 716.808C255.276 716.147 255.372 715.549 255.564 715.016C255.766 714.472 256.044 714.008 256.396 713.624C256.758 713.24 257.185 712.947 257.676 712.744C258.166 712.531 258.705 712.424 259.292 712.424C259.878 712.424 260.417 712.531 260.908 712.744C261.409 712.947 261.836 713.24 262.188 713.624C262.54 714.008 262.812 714.472 263.004 715.016C263.206 715.549 263.308 716.147 263.308 716.808ZM261.324 716.808C261.324 715.976 261.142 715.32 260.78 714.84C260.428 714.349 259.932 714.104 259.292 714.104C258.652 714.104 258.15 714.349 257.788 714.84C257.436 715.32 257.26 715.976 257.26 716.808C257.26 717.651 257.436 718.317 257.788 718.808C258.15 719.299 258.652 719.544 259.292 719.544C259.932 719.544 260.428 719.299 260.78 718.808C261.142 718.317 261.324 717.651 261.324 716.808ZM272.166 720.744C271.793 720.84 271.308 720.936 270.71 721.032C270.113 721.139 269.457 721.192 268.742 721.192C268.07 721.192 267.505 721.096 267.046 720.904C266.598 720.712 266.236 720.445 265.958 720.104C265.692 719.763 265.5 719.357 265.382 718.888C265.265 718.408 265.206 717.885 265.206 717.32V712.632H267.142V717.016C267.142 717.912 267.27 718.552 267.526 718.936C267.793 719.32 268.252 719.512 268.902 719.512C269.137 719.512 269.382 719.501 269.638 719.48C269.905 719.459 270.102 719.432 270.23 719.4V712.632H272.166V720.744ZM274.534 710.424L276.47 710.104V712.632H279.446V714.248H276.47V717.656C276.47 718.328 276.577 718.808 276.79 719.096C277.004 719.384 277.366 719.528 277.878 719.528C278.23 719.528 278.54 719.491 278.806 719.416C279.084 719.341 279.302 719.272 279.462 719.208L279.782 720.744C279.558 720.84 279.265 720.936 278.902 721.032C278.54 721.139 278.113 721.192 277.622 721.192C277.025 721.192 276.524 721.112 276.118 720.952C275.724 720.792 275.409 720.563 275.174 720.264C274.94 719.955 274.774 719.587 274.678 719.16C274.582 718.723 274.534 718.227 274.534 717.672V710.424Z" fill="white"/>
<path d="M185 308C185 303.582 188.582 300 193 300H297C301.418 300 305 303.582 305 308V346C305 350.418 301.418 354 297 354H193C188.582 354 185 350.418 185 346V308Z" fill="white"/>
<path d="M195.164 333V321.912H202.284V323.624H197.18V326.36H201.724V328.04H197.18V331.288H202.668V333H195.164ZM204.443 324.904C204.816 324.797 205.302 324.696 205.899 324.6C206.496 324.504 207.158 324.456 207.883 324.456C208.566 324.456 209.136 324.552 209.595 324.744C210.054 324.925 210.416 325.187 210.683 325.528C210.96 325.859 211.152 326.264 211.259 326.744C211.376 327.213 211.435 327.731 211.435 328.296V333H209.499V328.6C209.499 328.152 209.467 327.773 209.403 327.464C209.35 327.144 209.254 326.888 209.115 326.696C208.987 326.493 208.806 326.349 208.571 326.264C208.347 326.168 208.07 326.12 207.739 326.12C207.494 326.12 207.238 326.136 206.971 326.168C206.704 326.2 206.507 326.227 206.379 326.248V333H204.443V324.904ZM213.706 322.424L215.642 322.104V324.632H218.618V326.248H215.642V329.656C215.642 330.328 215.749 330.808 215.962 331.096C216.176 331.384 216.538 331.528 217.05 331.528C217.402 331.528 217.712 331.491 217.978 331.416C218.256 331.341 218.474 331.272 218.634 331.208L218.954 332.744C218.73 332.84 218.437 332.936 218.074 333.032C217.712 333.139 217.285 333.192 216.794 333.192C216.197 333.192 215.696 333.112 215.29 332.952C214.896 332.792 214.581 332.563 214.346 332.264C214.112 331.955 213.946 331.587 213.85 331.16C213.754 330.723 213.706 330.227 213.706 329.672V322.424ZM219.885 328.856C219.885 328.12 219.992 327.475 220.205 326.92C220.429 326.365 220.723 325.907 221.085 325.544C221.448 325.171 221.864 324.893 222.333 324.712C222.803 324.52 223.283 324.424 223.773 324.424C224.925 324.424 225.821 324.781 226.461 325.496C227.112 326.211 227.437 327.277 227.437 328.696C227.437 328.803 227.432 328.925 227.421 329.064C227.421 329.192 227.416 329.309 227.405 329.416H221.885C221.939 330.088 222.173 330.611 222.589 330.984C223.016 331.347 223.629 331.528 224.429 331.528C224.899 331.528 225.325 331.485 225.709 331.4C226.104 331.315 226.413 331.224 226.637 331.128L226.893 332.712C226.787 332.765 226.637 332.824 226.445 332.888C226.264 332.941 226.051 332.989 225.805 333.032C225.571 333.085 225.315 333.128 225.037 333.16C224.76 333.192 224.477 333.208 224.189 333.208C223.453 333.208 222.813 333.101 222.269 332.888C221.725 332.664 221.277 332.36 220.925 331.976C220.573 331.581 220.312 331.123 220.141 330.6C219.971 330.067 219.885 329.485 219.885 328.856ZM225.501 327.992C225.501 327.725 225.464 327.475 225.389 327.24C225.315 326.995 225.203 326.787 225.053 326.616C224.915 326.435 224.739 326.296 224.525 326.2C224.323 326.093 224.077 326.04 223.789 326.04C223.491 326.04 223.229 326.099 223.005 326.216C222.781 326.323 222.589 326.467 222.429 326.648C222.28 326.829 222.163 327.037 222.077 327.272C221.992 327.507 221.933 327.747 221.901 327.992H225.501ZM234.258 326.376C234.098 326.323 233.874 326.269 233.586 326.216C233.308 326.152 232.983 326.12 232.61 326.12C232.396 326.12 232.167 326.141 231.922 326.184C231.687 326.227 231.522 326.264 231.426 326.296V333H229.49V325.032C229.863 324.893 230.327 324.765 230.882 324.648C231.447 324.52 232.071 324.456 232.754 324.456C232.882 324.456 233.031 324.467 233.202 324.488C233.372 324.499 233.543 324.52 233.714 324.552C233.884 324.573 234.05 324.605 234.21 324.648C234.37 324.68 234.498 324.712 234.594 324.744L234.258 326.376ZM239.133 330.056C239.133 329.651 239.192 329.283 239.309 328.952C239.437 328.621 239.603 328.323 239.805 328.056C240.019 327.789 240.259 327.555 240.525 327.352C240.803 327.149 241.091 326.968 241.389 326.808C241.069 326.467 240.808 326.104 240.605 325.72C240.413 325.336 240.317 324.931 240.317 324.504C240.317 323.608 240.589 322.909 241.133 322.408C241.688 321.907 242.413 321.656 243.309 321.656C243.768 321.656 244.173 321.72 244.525 321.848C244.888 321.976 245.187 322.152 245.421 322.376C245.656 322.6 245.832 322.867 245.949 323.176C246.077 323.475 246.141 323.795 246.141 324.136C246.141 324.477 246.083 324.797 245.965 325.096C245.859 325.395 245.709 325.672 245.517 325.928C245.325 326.173 245.101 326.403 244.845 326.616C244.6 326.819 244.333 327 244.045 327.16L246.237 329.368C246.387 329.091 246.509 328.781 246.605 328.44C246.701 328.088 246.776 327.747 246.829 327.416L248.445 327.624C248.392 328.051 248.28 328.525 248.109 329.048C247.939 329.56 247.715 330.051 247.437 330.52C247.789 330.915 248.125 331.325 248.445 331.752C248.776 332.168 249.048 332.584 249.261 333H247.245C247.139 332.819 247 332.621 246.829 332.408C246.669 332.195 246.499 331.997 246.317 331.816C245.88 332.211 245.379 332.531 244.813 332.776C244.248 333.021 243.608 333.144 242.893 333.144C242.179 333.144 241.581 333.048 241.101 332.856C240.621 332.664 240.232 332.419 239.933 332.12C239.645 331.821 239.437 331.491 239.309 331.128C239.192 330.765 239.133 330.408 239.133 330.056ZM240.989 329.928C240.989 330.109 241.021 330.296 241.085 330.488C241.16 330.68 241.272 330.861 241.421 331.032C241.581 331.192 241.784 331.325 242.029 331.432C242.285 331.539 242.589 331.592 242.941 331.592C243.421 331.592 243.853 331.517 244.237 331.368C244.632 331.219 244.968 331.005 245.245 330.728L242.429 327.864C242.269 327.949 242.104 328.051 241.933 328.168C241.763 328.285 241.608 328.429 241.469 328.6C241.331 328.76 241.213 328.952 241.117 329.176C241.032 329.389 240.989 329.64 240.989 329.928ZM244.461 324.216C244.461 323.907 244.36 323.645 244.157 323.432C243.955 323.208 243.661 323.096 243.277 323.096C242.872 323.096 242.563 323.219 242.349 323.464C242.136 323.709 242.029 324.019 242.029 324.392C242.029 324.701 242.115 325.011 242.285 325.32C242.456 325.619 242.691 325.907 242.989 326.184C243.192 326.077 243.379 325.96 243.549 325.832C243.731 325.704 243.885 325.56 244.013 325.4C244.152 325.24 244.259 325.064 244.333 324.872C244.419 324.68 244.461 324.461 244.461 324.216ZM261.805 333C261.656 332.563 261.501 332.131 261.341 331.704C261.181 331.277 261.027 330.84 260.877 330.392H256.205C256.056 330.84 255.901 331.283 255.741 331.72C255.592 332.147 255.443 332.573 255.293 333H253.197C253.613 331.816 254.008 330.723 254.381 329.72C254.755 328.717 255.117 327.768 255.469 326.872C255.832 325.976 256.189 325.123 256.541 324.312C256.893 323.501 257.256 322.701 257.629 321.912H259.533C259.907 322.701 260.269 323.501 260.621 324.312C260.973 325.123 261.325 325.976 261.677 326.872C262.04 327.768 262.408 328.717 262.781 329.72C263.165 330.723 263.565 331.816 263.981 333H261.805ZM258.541 324.056C258.296 324.621 258.013 325.309 257.693 326.12C257.384 326.931 257.059 327.811 256.717 328.76H260.365C260.024 327.811 259.693 326.925 259.373 326.104C259.053 325.283 258.776 324.6 258.541 324.056ZM270.839 328.856C270.839 327.992 270.641 327.32 270.247 326.84C269.863 326.36 269.239 326.12 268.375 326.12C268.193 326.12 268.001 326.131 267.799 326.152C267.607 326.163 267.415 326.195 267.223 326.248V331.032C267.393 331.149 267.617 331.261 267.895 331.368C268.183 331.464 268.487 331.512 268.807 331.512C269.511 331.512 270.023 331.272 270.343 330.792C270.673 330.312 270.839 329.667 270.839 328.856ZM272.823 328.824C272.823 329.464 272.737 330.051 272.567 330.584C272.407 331.117 272.172 331.576 271.863 331.96C271.553 332.344 271.164 332.643 270.695 332.856C270.236 333.069 269.713 333.176 269.127 333.176C268.732 333.176 268.369 333.128 268.039 333.032C267.708 332.936 267.436 332.829 267.223 332.712V335.96H265.287V324.904C265.681 324.797 266.167 324.696 266.743 324.6C267.319 324.504 267.927 324.456 268.567 324.456C269.228 324.456 269.82 324.557 270.343 324.76C270.865 324.963 271.308 325.256 271.671 325.64C272.044 326.013 272.327 326.472 272.519 327.016C272.721 327.549 272.823 328.152 272.823 328.824ZM280.37 328.856C280.37 327.992 280.173 327.32 279.778 326.84C279.394 326.36 278.77 326.12 277.906 326.12C277.725 326.12 277.533 326.131 277.33 326.152C277.138 326.163 276.946 326.195 276.754 326.248V331.032C276.925 331.149 277.149 331.261 277.426 331.368C277.714 331.464 278.018 331.512 278.338 331.512C279.042 331.512 279.554 331.272 279.874 330.792C280.205 330.312 280.37 329.667 280.37 328.856ZM282.354 328.824C282.354 329.464 282.269 330.051 282.098 330.584C281.938 331.117 281.703 331.576 281.394 331.96C281.085 332.344 280.695 332.643 280.226 332.856C279.767 333.069 279.245 333.176 278.658 333.176C278.263 333.176 277.901 333.128 277.57 333.032C277.239 332.936 276.967 332.829 276.754 332.712V335.96H274.818V324.904C275.213 324.797 275.698 324.696 276.274 324.6C276.85 324.504 277.458 324.456 278.098 324.456C278.759 324.456 279.351 324.557 279.874 324.76C280.397 324.963 280.839 325.256 281.202 325.64C281.575 326.013 281.858 326.472 282.05 327.016C282.253 327.549 282.354 328.152 282.354 328.824ZM287.261 333.16C286.685 333.149 286.205 333.085 285.821 332.968C285.448 332.851 285.149 332.685 284.925 332.472C284.701 332.248 284.541 331.976 284.445 331.656C284.36 331.325 284.317 330.952 284.317 330.536V320.904L286.253 320.584V330.168C286.253 330.403 286.269 330.6 286.301 330.76C286.344 330.92 286.413 331.059 286.509 331.176C286.605 331.283 286.733 331.368 286.893 331.432C287.064 331.485 287.277 331.528 287.533 331.56L287.261 333.16ZM295.931 324.632C295.067 327.811 294.065 330.691 292.923 333.272C292.71 333.752 292.491 334.163 292.267 334.504C292.043 334.845 291.793 335.128 291.515 335.352C291.238 335.576 290.929 335.736 290.587 335.832C290.246 335.939 289.851 335.992 289.403 335.992C289.105 335.992 288.806 335.96 288.507 335.896C288.219 335.832 288.001 335.763 287.851 335.688L288.203 334.136C288.587 334.285 288.966 334.36 289.339 334.36C289.841 334.36 290.23 334.237 290.507 333.992C290.795 333.757 291.046 333.389 291.259 332.888C290.651 331.715 290.065 330.435 289.499 329.048C288.945 327.661 288.449 326.189 288.011 324.632H290.075C290.182 325.08 290.31 325.565 290.459 326.088C290.619 326.611 290.79 327.144 290.971 327.688C291.153 328.221 291.345 328.755 291.547 329.288C291.75 329.821 291.953 330.317 292.155 330.776C292.497 329.827 292.817 328.819 293.115 327.752C293.414 326.675 293.686 325.635 293.931 324.632H295.931Z" fill="#2C2C2C"/>
<path d="M355 308C355 303.582 358.582 300 363 300H467C471.418 300 475 303.582 475 308V346C475 350.418 471.418 354 467 354H363C358.582 354 355 350.418 355 346V308Z" fill="white"/>
<path d="M374.155 324.24C373.397 324.24 372.747 324.133 372.203 323.92C371.659 323.696 371.205 323.387 370.843 322.992C370.491 322.597 370.229 322.133 370.059 321.6C369.888 321.067 369.803 320.48 369.803 319.84V312.912H371.835V319.648C371.835 320.149 371.888 320.581 371.995 320.944C372.112 321.296 372.272 321.584 372.475 321.808C372.688 322.032 372.933 322.197 373.211 322.304C373.499 322.411 373.819 322.464 374.171 322.464C374.523 322.464 374.843 322.411 375.131 322.304C375.419 322.197 375.664 322.032 375.867 321.808C376.08 321.584 376.24 321.296 376.347 320.944C376.464 320.581 376.523 320.149 376.523 319.648V312.912H378.555V319.84C378.555 320.48 378.464 321.067 378.283 321.6C378.112 322.133 377.845 322.597 377.483 322.992C377.131 323.387 376.677 323.696 376.123 323.92C375.568 324.133 374.912 324.24 374.155 324.24ZM383.133 322.608C383.645 322.608 384.018 322.549 384.253 322.432C384.487 322.304 384.605 322.091 384.605 321.792C384.605 321.515 384.477 321.285 384.221 321.104C383.975 320.923 383.565 320.725 382.989 320.512C382.637 320.384 382.311 320.251 382.013 320.112C381.725 319.963 381.474 319.792 381.261 319.6C381.047 319.408 380.877 319.179 380.749 318.912C380.631 318.635 380.573 318.299 380.573 317.904C380.573 317.136 380.855 316.533 381.421 316.096C381.986 315.648 382.754 315.424 383.725 315.424C384.215 315.424 384.685 315.472 385.133 315.568C385.581 315.653 385.917 315.739 386.141 315.824L385.789 317.392C385.575 317.296 385.303 317.211 384.973 317.136C384.642 317.051 384.258 317.008 383.821 317.008C383.426 317.008 383.106 317.077 382.861 317.216C382.615 317.344 382.493 317.547 382.493 317.824C382.493 317.963 382.514 318.085 382.557 318.192C382.61 318.299 382.695 318.4 382.813 318.496C382.93 318.581 383.085 318.672 383.277 318.768C383.469 318.853 383.703 318.944 383.981 319.04C384.439 319.211 384.829 319.381 385.149 319.552C385.469 319.712 385.73 319.899 385.933 320.112C386.146 320.315 386.301 320.549 386.397 320.816C386.493 321.083 386.541 321.403 386.541 321.776C386.541 322.576 386.242 323.184 385.645 323.6C385.058 324.005 384.215 324.208 383.117 324.208C382.381 324.208 381.789 324.144 381.341 324.016C380.893 323.899 380.578 323.803 380.397 323.728L380.733 322.112C381.021 322.229 381.362 322.341 381.757 322.448C382.162 322.555 382.621 322.608 383.133 322.608ZM387.885 319.856C387.885 319.12 387.992 318.475 388.205 317.92C388.429 317.365 388.723 316.907 389.085 316.544C389.448 316.171 389.864 315.893 390.333 315.712C390.803 315.52 391.283 315.424 391.773 315.424C392.925 315.424 393.821 315.781 394.461 316.496C395.112 317.211 395.437 318.277 395.437 319.696C395.437 319.803 395.432 319.925 395.421 320.064C395.421 320.192 395.416 320.309 395.405 320.416H389.885C389.939 321.088 390.173 321.611 390.589 321.984C391.016 322.347 391.629 322.528 392.429 322.528C392.899 322.528 393.325 322.485 393.709 322.4C394.104 322.315 394.413 322.224 394.637 322.128L394.893 323.712C394.787 323.765 394.637 323.824 394.445 323.888C394.264 323.941 394.051 323.989 393.805 324.032C393.571 324.085 393.315 324.128 393.037 324.16C392.76 324.192 392.477 324.208 392.189 324.208C391.453 324.208 390.813 324.101 390.269 323.888C389.725 323.664 389.277 323.36 388.925 322.976C388.573 322.581 388.312 322.123 388.141 321.6C387.971 321.067 387.885 320.485 387.885 319.856ZM393.501 318.992C393.501 318.725 393.464 318.475 393.389 318.24C393.315 317.995 393.203 317.787 393.053 317.616C392.915 317.435 392.739 317.296 392.525 317.2C392.323 317.093 392.077 317.04 391.789 317.04C391.491 317.04 391.229 317.099 391.005 317.216C390.781 317.323 390.589 317.467 390.429 317.648C390.28 317.829 390.163 318.037 390.077 318.272C389.992 318.507 389.933 318.747 389.901 318.992H393.501ZM408.68 324C408.531 323.563 408.376 323.131 408.216 322.704C408.056 322.277 407.902 321.84 407.752 321.392H403.08C402.931 321.84 402.776 322.283 402.616 322.72C402.467 323.147 402.318 323.573 402.168 324H400.072C400.488 322.816 400.883 321.723 401.256 320.72C401.63 319.717 401.992 318.768 402.344 317.872C402.707 316.976 403.064 316.123 403.416 315.312C403.768 314.501 404.131 313.701 404.504 312.912H406.408C406.782 313.701 407.144 314.501 407.496 315.312C407.848 316.123 408.2 316.976 408.552 317.872C408.915 318.768 409.283 319.717 409.656 320.72C410.04 321.723 410.44 322.816 410.856 324H408.68ZM405.416 315.056C405.171 315.621 404.888 316.309 404.568 317.12C404.259 317.931 403.934 318.811 403.592 319.76H407.24C406.899 318.811 406.568 317.925 406.248 317.104C405.928 316.283 405.651 315.6 405.416 315.056ZM412.162 315.904C412.535 315.797 413.02 315.696 413.618 315.6C414.215 315.504 414.876 315.456 415.602 315.456C416.284 315.456 416.855 315.552 417.314 315.744C417.772 315.925 418.135 316.187 418.402 316.528C418.679 316.859 418.871 317.264 418.978 317.744C419.095 318.213 419.154 318.731 419.154 319.296V324H417.218V319.6C417.218 319.152 417.186 318.773 417.122 318.464C417.068 318.144 416.972 317.888 416.834 317.696C416.706 317.493 416.524 317.349 416.29 317.264C416.066 317.168 415.788 317.12 415.458 317.12C415.212 317.12 414.956 317.136 414.69 317.168C414.423 317.2 414.226 317.227 414.098 317.248V324H412.162V315.904ZM429.089 319.808C429.089 320.469 428.993 321.072 428.801 321.616C428.609 322.16 428.337 322.624 427.985 323.008C427.633 323.392 427.206 323.691 426.705 323.904C426.214 324.117 425.67 324.224 425.073 324.224C424.476 324.224 423.932 324.117 423.441 323.904C422.95 323.691 422.529 323.392 422.177 323.008C421.825 322.624 421.548 322.16 421.345 321.616C421.153 321.072 421.057 320.469 421.057 319.808C421.057 319.147 421.153 318.549 421.345 318.016C421.548 317.472 421.825 317.008 422.177 316.624C422.54 316.24 422.966 315.947 423.457 315.744C423.948 315.531 424.486 315.424 425.073 315.424C425.66 315.424 426.198 315.531 426.689 315.744C427.19 315.947 427.617 316.24 427.969 316.624C428.321 317.008 428.593 317.472 428.785 318.016C428.988 318.549 429.089 319.147 429.089 319.808ZM427.105 319.808C427.105 318.976 426.924 318.32 426.561 317.84C426.209 317.349 425.713 317.104 425.073 317.104C424.433 317.104 423.932 317.349 423.569 317.84C423.217 318.32 423.041 318.976 423.041 319.808C423.041 320.651 423.217 321.317 423.569 321.808C423.932 322.299 424.433 322.544 425.073 322.544C425.713 322.544 426.209 322.299 426.561 321.808C426.924 321.317 427.105 320.651 427.105 319.808ZM430.988 313.424L432.924 313.104V315.632H435.9V317.248H432.924V320.656C432.924 321.328 433.03 321.808 433.244 322.096C433.457 322.384 433.82 322.528 434.332 322.528C434.684 322.528 434.993 322.491 435.26 322.416C435.537 322.341 435.756 322.272 435.916 322.208L436.236 323.744C436.012 323.84 435.718 323.936 435.356 324.032C434.993 324.139 434.566 324.192 434.076 324.192C433.478 324.192 432.977 324.112 432.572 323.952C432.177 323.792 431.862 323.563 431.628 323.264C431.393 322.955 431.228 322.587 431.132 322.16C431.036 321.723 430.988 321.227 430.988 320.672V313.424ZM437.771 324V311.904L439.707 311.584V315.728C439.92 315.653 440.166 315.589 440.443 315.536C440.731 315.483 441.014 315.456 441.291 315.456C441.963 315.456 442.518 315.552 442.955 315.744C443.403 315.925 443.76 316.187 444.027 316.528C444.294 316.859 444.48 317.259 444.587 317.728C444.704 318.197 444.763 318.72 444.763 319.296V324H442.827V319.6C442.827 319.152 442.795 318.773 442.731 318.464C442.678 318.144 442.582 317.888 442.443 317.696C442.315 317.493 442.139 317.349 441.915 317.264C441.691 317.168 441.414 317.12 441.083 317.12C440.827 317.12 440.566 317.147 440.299 317.2C440.032 317.253 439.835 317.301 439.707 317.344V324H437.771ZM446.62 319.856C446.62 319.12 446.726 318.475 446.94 317.92C447.164 317.365 447.457 316.907 447.82 316.544C448.182 316.171 448.598 315.893 449.068 315.712C449.537 315.52 450.017 315.424 450.508 315.424C451.66 315.424 452.556 315.781 453.196 316.496C453.846 317.211 454.172 318.277 454.172 319.696C454.172 319.803 454.166 319.925 454.156 320.064C454.156 320.192 454.15 320.309 454.14 320.416H448.62C448.673 321.088 448.908 321.611 449.324 321.984C449.75 322.347 450.364 322.528 451.164 322.528C451.633 322.528 452.06 322.485 452.444 322.4C452.838 322.315 453.148 322.224 453.372 322.128L453.628 323.712C453.521 323.765 453.372 323.824 453.18 323.888C452.998 323.941 452.785 323.989 452.54 324.032C452.305 324.085 452.049 324.128 451.772 324.16C451.494 324.192 451.212 324.208 450.924 324.208C450.188 324.208 449.548 324.101 449.004 323.888C448.46 323.664 448.012 323.36 447.66 322.976C447.308 322.581 447.046 322.123 446.876 321.6C446.705 321.067 446.62 320.485 446.62 319.856ZM452.236 318.992C452.236 318.725 452.198 318.475 452.124 318.24C452.049 317.995 451.937 317.787 451.788 317.616C451.649 317.435 451.473 317.296 451.26 317.2C451.057 317.093 450.812 317.04 450.524 317.04C450.225 317.04 449.964 317.099 449.74 317.216C449.516 317.323 449.324 317.467 449.164 317.648C449.014 317.829 448.897 318.037 448.812 318.272C448.726 318.507 448.668 318.747 448.636 318.992H452.236ZM460.992 317.376C460.832 317.323 460.608 317.269 460.32 317.216C460.043 317.152 459.718 317.12 459.344 317.12C459.131 317.12 458.902 317.141 458.656 317.184C458.422 317.227 458.256 317.264 458.16 317.296V324H456.224V316.032C456.598 315.893 457.062 315.765 457.616 315.648C458.182 315.52 458.806 315.456 459.488 315.456C459.616 315.456 459.766 315.467 459.936 315.488C460.107 315.499 460.278 315.52 460.448 315.552C460.619 315.573 460.784 315.605 460.944 315.648C461.104 315.68 461.232 315.712 461.328 315.744L460.992 317.376ZM388.684 342C387.884 340.272 387.11 338.464 386.364 336.576C385.628 334.688 384.94 332.8 384.3 330.912H386.524C386.78 331.659 387.041 332.421 387.308 333.2C387.574 333.979 387.841 334.747 388.108 335.504C388.374 336.251 388.641 336.976 388.908 337.68C389.174 338.384 389.436 339.029 389.692 339.616C389.937 339.029 390.193 338.389 390.46 337.696C390.726 336.992 390.993 336.261 391.26 335.504C391.537 334.747 391.809 333.979 392.076 333.2C392.342 332.421 392.598 331.659 392.844 330.912H395.004C394.353 332.8 393.66 334.688 392.924 336.576C392.188 338.464 391.42 340.272 390.62 342H388.684ZM403.269 337.808C403.269 338.469 403.173 339.072 402.981 339.616C402.789 340.16 402.517 340.624 402.165 341.008C401.813 341.392 401.386 341.691 400.885 341.904C400.394 342.117 399.85 342.224 399.253 342.224C398.655 342.224 398.111 342.117 397.621 341.904C397.13 341.691 396.709 341.392 396.357 341.008C396.005 340.624 395.727 340.16 395.525 339.616C395.333 339.072 395.237 338.469 395.237 337.808C395.237 337.147 395.333 336.549 395.525 336.016C395.727 335.472 396.005 335.008 396.357 334.624C396.719 334.24 397.146 333.947 397.637 333.744C398.127 333.531 398.666 333.424 399.253 333.424C399.839 333.424 400.378 333.531 400.869 333.744C401.37 333.947 401.797 334.24 402.149 334.624C402.501 335.008 402.773 335.472 402.965 336.016C403.167 336.549 403.269 337.147 403.269 337.808ZM401.285 337.808C401.285 336.976 401.103 336.32 400.741 335.84C400.389 335.349 399.893 335.104 399.253 335.104C398.613 335.104 398.111 335.349 397.749 335.84C397.397 336.32 397.221 336.976 397.221 337.808C397.221 338.651 397.397 339.317 397.749 339.808C398.111 340.299 398.613 340.544 399.253 340.544C399.893 340.544 400.389 340.299 400.741 339.808C401.103 339.317 401.285 338.651 401.285 337.808ZM412.127 341.744C411.754 341.84 411.269 341.936 410.671 342.032C410.074 342.139 409.418 342.192 408.703 342.192C408.031 342.192 407.466 342.096 407.007 341.904C406.559 341.712 406.197 341.445 405.919 341.104C405.653 340.763 405.461 340.357 405.343 339.888C405.226 339.408 405.167 338.885 405.167 338.32V333.632H407.103V338.016C407.103 338.912 407.231 339.552 407.487 339.936C407.754 340.32 408.213 340.512 408.863 340.512C409.098 340.512 409.343 340.501 409.599 340.48C409.866 340.459 410.063 340.432 410.191 340.4V333.632H412.127V341.744ZM414.127 337.824C414.127 337.205 414.223 336.629 414.415 336.096C414.607 335.552 414.879 335.083 415.231 334.688C415.594 334.293 416.031 333.984 416.543 333.76C417.055 333.536 417.631 333.424 418.271 333.424C419.061 333.424 419.807 333.568 420.511 333.856L420.095 335.44C419.871 335.344 419.615 335.264 419.327 335.2C419.05 335.136 418.751 335.104 418.431 335.104C417.674 335.104 417.098 335.344 416.703 335.824C416.309 336.293 416.111 336.96 416.111 337.824C416.111 338.656 416.298 339.317 416.671 339.808C417.045 340.288 417.674 340.528 418.559 340.528C418.89 340.528 419.215 340.496 419.535 340.432C419.855 340.368 420.133 340.288 420.367 340.192L420.639 341.792C420.426 341.899 420.101 341.995 419.663 342.08C419.237 342.165 418.794 342.208 418.335 342.208C417.621 342.208 416.997 342.101 416.463 341.888C415.941 341.664 415.503 341.36 415.151 340.976C414.81 340.581 414.554 340.117 414.383 339.584C414.213 339.04 414.127 338.453 414.127 337.824ZM422.138 342V329.904L424.074 329.584V333.728C424.288 333.653 424.533 333.589 424.81 333.536C425.098 333.483 425.381 333.456 425.658 333.456C426.33 333.456 426.885 333.552 427.322 333.744C427.77 333.925 428.128 334.187 428.394 334.528C428.661 334.859 428.848 335.259 428.954 335.728C429.072 336.197 429.13 336.72 429.13 337.296V342H427.194V337.6C427.194 337.152 427.162 336.773 427.098 336.464C427.045 336.144 426.949 335.888 426.81 335.696C426.682 335.493 426.506 335.349 426.282 335.264C426.058 335.168 425.781 335.12 425.45 335.12C425.194 335.12 424.933 335.147 424.666 335.2C424.4 335.253 424.202 335.301 424.074 335.344V342H422.138ZM430.987 337.856C430.987 337.12 431.093 336.475 431.307 335.92C431.531 335.365 431.824 334.907 432.187 334.544C432.549 334.171 432.965 333.893 433.435 333.712C433.904 333.52 434.384 333.424 434.875 333.424C436.027 333.424 436.923 333.781 437.563 334.496C438.213 335.211 438.539 336.277 438.539 337.696C438.539 337.803 438.533 337.925 438.523 338.064C438.523 338.192 438.517 338.309 438.507 338.416H432.987C433.04 339.088 433.275 339.611 433.691 339.984C434.117 340.347 434.731 340.528 435.531 340.528C436 340.528 436.427 340.485 436.811 340.4C437.205 340.315 437.515 340.224 437.739 340.128L437.995 341.712C437.888 341.765 437.739 341.824 437.547 341.888C437.365 341.941 437.152 341.989 436.907 342.032C436.672 342.085 436.416 342.128 436.139 342.16C435.861 342.192 435.579 342.208 435.291 342.208C434.555 342.208 433.915 342.101 433.371 341.888C432.827 341.664 432.379 341.36 432.027 340.976C431.675 340.581 431.413 340.123 431.243 339.6C431.072 339.067 430.987 338.485 430.987 337.856ZM436.603 336.992C436.603 336.725 436.565 336.475 436.491 336.24C436.416 335.995 436.304 335.787 436.155 335.616C436.016 335.435 435.84 335.296 435.627 335.2C435.424 335.093 435.179 335.04 434.891 335.04C434.592 335.04 434.331 335.099 434.107 335.216C433.883 335.323 433.691 335.467 433.531 335.648C433.381 335.829 433.264 336.037 433.179 336.272C433.093 336.507 433.035 336.747 433.003 336.992H436.603ZM445.359 335.376C445.199 335.323 444.975 335.269 444.687 335.216C444.41 335.152 444.085 335.12 443.711 335.12C443.498 335.12 443.269 335.141 443.023 335.184C442.789 335.227 442.623 335.264 442.527 335.296V342H440.591V334.032C440.965 333.893 441.429 333.765 441.983 333.648C442.549 333.52 443.173 333.456 443.855 333.456C443.983 333.456 444.133 333.467 444.303 333.488C444.474 333.499 444.645 333.52 444.815 333.552C444.986 333.573 445.151 333.605 445.311 333.648C445.471 333.68 445.599 333.712 445.695 333.744L445.359 335.376Z" fill="#2C2C2C"/>
<path d="M355 552C355 547.582 358.582 544 363 544H467C471.418 544 475 547.582 475 552V590C475 594.418 471.418 598 467 598H363C358.582 598 355 594.418 355 590V552Z" fill="white"/>
<path d="M374.962 556.8C376.562 556.8 377.783 557.093 378.626 557.68C379.479 558.267 379.906 559.163 379.906 560.368C379.906 561.872 379.165 562.891 377.682 563.424C377.885 563.669 378.114 563.968 378.37 564.32C378.626 564.672 378.887 565.056 379.154 565.472C379.421 565.877 379.677 566.299 379.922 566.736C380.167 567.163 380.386 567.584 380.578 568H378.322C378.119 567.616 377.901 567.232 377.666 566.848C377.431 566.453 377.191 566.075 376.946 565.712C376.711 565.339 376.477 564.992 376.242 564.672C376.007 564.341 375.789 564.048 375.586 563.792C375.437 563.803 375.309 563.808 375.202 563.808C375.095 563.808 374.994 563.808 374.898 563.808H373.922V568H371.906V557.072C372.397 556.965 372.919 556.896 373.474 556.864C374.029 556.821 374.525 556.8 374.962 556.8ZM375.106 558.544C374.679 558.544 374.285 558.56 373.922 558.592V562.176H374.802C375.293 562.176 375.725 562.149 376.098 562.096C376.471 562.043 376.781 561.947 377.026 561.808C377.282 561.669 377.474 561.483 377.602 561.248C377.73 561.013 377.794 560.715 377.794 560.352C377.794 560.011 377.73 559.723 377.602 559.488C377.474 559.253 377.287 559.067 377.042 558.928C376.807 558.789 376.525 558.693 376.194 558.64C375.863 558.576 375.501 558.544 375.106 558.544ZM381.581 563.856C381.581 563.12 381.687 562.475 381.901 561.92C382.125 561.365 382.418 560.907 382.781 560.544C383.143 560.171 383.559 559.893 384.029 559.712C384.498 559.52 384.978 559.424 385.469 559.424C386.621 559.424 387.517 559.781 388.157 560.496C388.807 561.211 389.133 562.277 389.133 563.696C389.133 563.803 389.127 563.925 389.117 564.064C389.117 564.192 389.111 564.309 389.101 564.416H383.581C383.634 565.088 383.869 565.611 384.285 565.984C384.711 566.347 385.325 566.528 386.125 566.528C386.594 566.528 387.021 566.485 387.405 566.4C387.799 566.315 388.109 566.224 388.333 566.128L388.589 567.712C388.482 567.765 388.333 567.824 388.141 567.888C387.959 567.941 387.746 567.989 387.501 568.032C387.266 568.085 387.01 568.128 386.733 568.16C386.455 568.192 386.173 568.208 385.885 568.208C385.149 568.208 384.509 568.101 383.965 567.888C383.421 567.664 382.973 567.36 382.621 566.976C382.269 566.581 382.007 566.123 381.837 565.6C381.666 565.067 381.581 564.485 381.581 563.856ZM387.197 562.992C387.197 562.725 387.159 562.475 387.085 562.24C387.01 561.995 386.898 561.787 386.749 561.616C386.61 561.435 386.434 561.296 386.221 561.2C386.018 561.093 385.773 561.04 385.485 561.04C385.186 561.04 384.925 561.099 384.701 561.216C384.477 561.323 384.285 561.467 384.125 561.648C383.975 561.829 383.858 562.037 383.773 562.272C383.687 562.507 383.629 562.747 383.597 562.992H387.197ZM395.953 563.6C395.953 562.725 395.841 562.096 395.617 561.712C395.404 561.317 394.998 561.12 394.401 561.12C394.188 561.12 393.953 561.136 393.697 561.168C393.441 561.2 393.249 561.227 393.121 561.248V568H391.185V559.904C391.558 559.797 392.044 559.696 392.641 559.6C393.249 559.504 393.889 559.456 394.561 559.456C395.137 559.456 395.606 559.531 395.969 559.68C396.342 559.829 396.652 560.027 396.897 560.272C397.014 560.187 397.164 560.096 397.345 560C397.526 559.904 397.729 559.819 397.953 559.744C398.177 559.659 398.412 559.589 398.657 559.536C398.913 559.483 399.169 559.456 399.425 559.456C400.076 559.456 400.609 559.552 401.025 559.744C401.452 559.925 401.782 560.187 402.017 560.528C402.262 560.859 402.428 561.264 402.513 561.744C402.609 562.213 402.657 562.731 402.657 563.296V568H400.721V563.6C400.721 562.725 400.614 562.096 400.401 561.712C400.188 561.317 399.777 561.12 399.169 561.12C398.86 561.12 398.566 561.173 398.289 561.28C398.012 561.376 397.804 561.472 397.665 561.568C397.75 561.835 397.809 562.117 397.841 562.416C397.873 562.715 397.889 563.035 397.889 563.376V568H395.953V563.6ZM412.597 563.808C412.597 564.469 412.501 565.072 412.309 565.616C412.117 566.16 411.845 566.624 411.493 567.008C411.141 567.392 410.714 567.691 410.213 567.904C409.722 568.117 409.178 568.224 408.581 568.224C407.984 568.224 407.44 568.117 406.949 567.904C406.458 567.691 406.037 567.392 405.685 567.008C405.333 566.624 405.056 566.16 404.853 565.616C404.661 565.072 404.565 564.469 404.565 563.808C404.565 563.147 404.661 562.549 404.853 562.016C405.056 561.472 405.333 561.008 405.685 560.624C406.048 560.24 406.474 559.947 406.965 559.744C407.456 559.531 407.994 559.424 408.581 559.424C409.168 559.424 409.706 559.531 410.197 559.744C410.698 559.947 411.125 560.24 411.477 560.624C411.829 561.008 412.101 561.472 412.293 562.016C412.496 562.549 412.597 563.147 412.597 563.808ZM410.613 563.808C410.613 562.976 410.432 562.32 410.069 561.84C409.717 561.349 409.221 561.104 408.581 561.104C407.941 561.104 407.44 561.349 407.077 561.84C406.725 562.32 406.549 562.976 406.549 563.808C406.549 564.651 406.725 565.317 407.077 565.808C407.44 566.299 407.941 566.544 408.581 566.544C409.221 566.544 409.717 566.299 410.069 565.808C410.432 565.317 410.613 564.651 410.613 563.808ZM416.548 568C416.015 566.901 415.465 565.643 414.9 564.224C414.345 562.795 413.839 561.264 413.38 559.632H415.444C415.561 560.101 415.695 560.608 415.844 561.152C416.004 561.685 416.169 562.224 416.34 562.768C416.521 563.301 416.703 563.824 416.884 564.336C417.076 564.837 417.252 565.291 417.412 565.696C417.572 565.291 417.743 564.837 417.924 564.336C418.105 563.824 418.281 563.301 418.452 562.768C418.633 562.224 418.804 561.685 418.964 561.152C419.124 560.608 419.263 560.101 419.38 559.632H421.38C420.921 561.264 420.409 562.795 419.844 564.224C419.289 565.643 418.745 566.901 418.212 568H416.548ZM422.174 563.856C422.174 563.12 422.281 562.475 422.494 561.92C422.718 561.365 423.012 560.907 423.374 560.544C423.737 560.171 424.153 559.893 424.622 559.712C425.092 559.52 425.572 559.424 426.062 559.424C427.214 559.424 428.11 559.781 428.75 560.496C429.401 561.211 429.726 562.277 429.726 563.696C429.726 563.803 429.721 563.925 429.71 564.064C429.71 564.192 429.705 564.309 429.694 564.416H424.174C424.228 565.088 424.462 565.611 424.878 565.984C425.305 566.347 425.918 566.528 426.718 566.528C427.188 566.528 427.614 566.485 427.998 566.4C428.393 566.315 428.702 566.224 428.926 566.128L429.182 567.712C429.076 567.765 428.926 567.824 428.734 567.888C428.553 567.941 428.34 567.989 428.094 568.032C427.86 568.085 427.604 568.128 427.326 568.16C427.049 568.192 426.766 568.208 426.478 568.208C425.742 568.208 425.102 568.101 424.558 567.888C424.014 567.664 423.566 567.36 423.214 566.976C422.862 566.581 422.601 566.123 422.43 565.6C422.26 565.067 422.174 564.485 422.174 563.856ZM427.79 562.992C427.79 562.725 427.753 562.475 427.678 562.24C427.604 561.995 427.492 561.787 427.342 561.616C427.204 561.435 427.028 561.296 426.814 561.2C426.612 561.093 426.366 561.04 426.078 561.04C425.78 561.04 425.518 561.099 425.294 561.216C425.07 561.323 424.878 561.467 424.718 561.648C424.569 561.829 424.452 562.037 424.366 562.272C424.281 562.507 424.222 562.747 424.19 562.992H427.79ZM435.417 557.424L437.353 557.104V559.632H440.329V561.248H437.353V564.656C437.353 565.328 437.46 565.808 437.673 566.096C437.887 566.384 438.249 566.528 438.761 566.528C439.113 566.528 439.423 566.491 439.689 566.416C439.967 566.341 440.185 566.272 440.345 566.208L440.665 567.744C440.441 567.84 440.148 567.936 439.785 568.032C439.423 568.139 438.996 568.192 438.505 568.192C437.908 568.192 437.407 568.112 437.001 567.952C436.607 567.792 436.292 567.563 436.057 567.264C435.823 566.955 435.657 566.587 435.561 566.16C435.465 565.723 435.417 565.227 435.417 564.672V557.424ZM442.201 568V555.904L444.137 555.584V559.728C444.35 559.653 444.595 559.589 444.873 559.536C445.161 559.483 445.443 559.456 445.721 559.456C446.393 559.456 446.947 559.552 447.385 559.744C447.833 559.925 448.19 560.187 448.457 560.528C448.723 560.859 448.91 561.259 449.017 561.728C449.134 562.197 449.193 562.72 449.193 563.296V568H447.257V563.6C447.257 563.152 447.225 562.773 447.161 562.464C447.107 562.144 447.011 561.888 446.873 561.696C446.745 561.493 446.569 561.349 446.345 561.264C446.121 561.168 445.843 561.12 445.513 561.12C445.257 561.12 444.995 561.147 444.729 561.2C444.462 561.253 444.265 561.301 444.137 561.344V568H442.201ZM451.049 563.856C451.049 563.12 451.156 562.475 451.369 561.92C451.593 561.365 451.887 560.907 452.249 560.544C452.612 560.171 453.028 559.893 453.497 559.712C453.967 559.52 454.447 559.424 454.937 559.424C456.089 559.424 456.985 559.781 457.625 560.496C458.276 561.211 458.601 562.277 458.601 563.696C458.601 563.803 458.596 563.925 458.585 564.064C458.585 564.192 458.58 564.309 458.569 564.416H453.049C453.103 565.088 453.337 565.611 453.753 565.984C454.18 566.347 454.793 566.528 455.593 566.528C456.063 566.528 456.489 566.485 456.873 566.4C457.268 566.315 457.577 566.224 457.801 566.128L458.057 567.712C457.951 567.765 457.801 567.824 457.609 567.888C457.428 567.941 457.215 567.989 456.969 568.032C456.735 568.085 456.479 568.128 456.201 568.16C455.924 568.192 455.641 568.208 455.353 568.208C454.617 568.208 453.977 568.101 453.433 567.888C452.889 567.664 452.441 567.36 452.089 566.976C451.737 566.581 451.476 566.123 451.305 565.6C451.135 565.067 451.049 564.485 451.049 563.856ZM456.665 562.992C456.665 562.725 456.628 562.475 456.553 562.24C456.479 561.995 456.367 561.787 456.217 561.616C456.079 561.435 455.903 561.296 455.689 561.2C455.487 561.093 455.241 561.04 454.953 561.04C454.655 561.04 454.393 561.099 454.169 561.216C453.945 561.323 453.753 561.467 453.593 561.648C453.444 561.829 453.327 562.037 453.241 562.272C453.156 562.507 453.097 562.747 453.065 562.992H456.665ZM388.684 586C387.884 584.272 387.11 582.464 386.364 580.576C385.628 578.688 384.94 576.8 384.3 574.912H386.524C386.78 575.659 387.041 576.421 387.308 577.2C387.574 577.979 387.841 578.747 388.108 579.504C388.374 580.251 388.641 580.976 388.908 581.68C389.174 582.384 389.436 583.029 389.692 583.616C389.937 583.029 390.193 582.389 390.46 581.696C390.726 580.992 390.993 580.261 391.26 579.504C391.537 578.747 391.809 577.979 392.076 577.2C392.342 576.421 392.598 575.659 392.844 574.912H395.004C394.353 576.8 393.66 578.688 392.924 580.576C392.188 582.464 391.42 584.272 390.62 586H388.684ZM403.269 581.808C403.269 582.469 403.173 583.072 402.981 583.616C402.789 584.16 402.517 584.624 402.165 585.008C401.813 585.392 401.386 585.691 400.885 585.904C400.394 586.117 399.85 586.224 399.253 586.224C398.655 586.224 398.111 586.117 397.621 585.904C397.13 585.691 396.709 585.392 396.357 585.008C396.005 584.624 395.727 584.16 395.525 583.616C395.333 583.072 395.237 582.469 395.237 581.808C395.237 581.147 395.333 580.549 395.525 580.016C395.727 579.472 396.005 579.008 396.357 578.624C396.719 578.24 397.146 577.947 397.637 577.744C398.127 577.531 398.666 577.424 399.253 577.424C399.839 577.424 400.378 577.531 400.869 577.744C401.37 577.947 401.797 578.24 402.149 578.624C402.501 579.008 402.773 579.472 402.965 580.016C403.167 580.549 403.269 581.147 403.269 581.808ZM401.285 581.808C401.285 580.976 401.103 580.32 400.741 579.84C400.389 579.349 399.893 579.104 399.253 579.104C398.613 579.104 398.111 579.349 397.749 579.84C397.397 580.32 397.221 580.976 397.221 581.808C397.221 582.651 397.397 583.317 397.749 583.808C398.111 584.299 398.613 584.544 399.253 584.544C399.893 584.544 400.389 584.299 400.741 583.808C401.103 583.317 401.285 582.651 401.285 581.808ZM412.127 585.744C411.754 585.84 411.269 585.936 410.671 586.032C410.074 586.139 409.418 586.192 408.703 586.192C408.031 586.192 407.466 586.096 407.007 585.904C406.559 585.712 406.197 585.445 405.919 585.104C405.653 584.763 405.461 584.357 405.343 583.888C405.226 583.408 405.167 582.885 405.167 582.32V577.632H407.103V582.016C407.103 582.912 407.231 583.552 407.487 583.936C407.754 584.32 408.213 584.512 408.863 584.512C409.098 584.512 409.343 584.501 409.599 584.48C409.866 584.459 410.063 584.432 410.191 584.4V577.632H412.127V585.744ZM414.127 581.824C414.127 581.205 414.223 580.629 414.415 580.096C414.607 579.552 414.879 579.083 415.231 578.688C415.594 578.293 416.031 577.984 416.543 577.76C417.055 577.536 417.631 577.424 418.271 577.424C419.061 577.424 419.807 577.568 420.511 577.856L420.095 579.44C419.871 579.344 419.615 579.264 419.327 579.2C419.05 579.136 418.751 579.104 418.431 579.104C417.674 579.104 417.098 579.344 416.703 579.824C416.309 580.293 416.111 580.96 416.111 581.824C416.111 582.656 416.298 583.317 416.671 583.808C417.045 584.288 417.674 584.528 418.559 584.528C418.89 584.528 419.215 584.496 419.535 584.432C419.855 584.368 420.133 584.288 420.367 584.192L420.639 585.792C420.426 585.899 420.101 585.995 419.663 586.08C419.237 586.165 418.794 586.208 418.335 586.208C417.621 586.208 416.997 586.101 416.463 585.888C415.941 585.664 415.503 585.36 415.151 584.976C414.81 584.581 414.554 584.117 414.383 583.584C414.213 583.04 414.127 582.453 414.127 581.824ZM422.138 586V573.904L424.074 573.584V577.728C424.288 577.653 424.533 577.589 424.81 577.536C425.098 577.483 425.381 577.456 425.658 577.456C426.33 577.456 426.885 577.552 427.322 577.744C427.77 577.925 428.128 578.187 428.394 578.528C428.661 578.859 428.848 579.259 428.954 579.728C429.072 580.197 429.13 580.72 429.13 581.296V586H427.194V581.6C427.194 581.152 427.162 580.773 427.098 580.464C427.045 580.144 426.949 579.888 426.81 579.696C426.682 579.493 426.506 579.349 426.282 579.264C426.058 579.168 425.781 579.12 425.45 579.12C425.194 579.12 424.933 579.147 424.666 579.2C424.4 579.253 424.202 579.301 424.074 579.344V586H422.138ZM430.987 581.856C430.987 581.12 431.093 580.475 431.307 579.92C431.531 579.365 431.824 578.907 432.187 578.544C432.549 578.171 432.965 577.893 433.435 577.712C433.904 577.52 434.384 577.424 434.875 577.424C436.027 577.424 436.923 577.781 437.563 578.496C438.213 579.211 438.539 580.277 438.539 581.696C438.539 581.803 438.533 581.925 438.523 582.064C438.523 582.192 438.517 582.309 438.507 582.416H432.987C433.04 583.088 433.275 583.611 433.691 583.984C434.117 584.347 434.731 584.528 435.531 584.528C436 584.528 436.427 584.485 436.811 584.4C437.205 584.315 437.515 584.224 437.739 584.128L437.995 585.712C437.888 585.765 437.739 585.824 437.547 585.888C437.365 585.941 437.152 585.989 436.907 586.032C436.672 586.085 436.416 586.128 436.139 586.16C435.861 586.192 435.579 586.208 435.291 586.208C434.555 586.208 433.915 586.101 433.371 585.888C432.827 585.664 432.379 585.36 432.027 584.976C431.675 584.581 431.413 584.123 431.243 583.6C431.072 583.067 430.987 582.485 430.987 581.856ZM436.603 580.992C436.603 580.725 436.565 580.475 436.491 580.24C436.416 579.995 436.304 579.787 436.155 579.616C436.016 579.435 435.84 579.296 435.627 579.2C435.424 579.093 435.179 579.04 434.891 579.04C434.592 579.04 434.331 579.099 434.107 579.216C433.883 579.323 433.691 579.467 433.531 579.648C433.381 579.829 433.264 580.037 433.179 580.272C433.093 580.507 433.035 580.747 433.003 580.992H436.603ZM445.359 579.376C445.199 579.323 444.975 579.269 444.687 579.216C444.41 579.152 444.085 579.12 443.711 579.12C443.498 579.12 443.269 579.141 443.023 579.184C442.789 579.227 442.623 579.264 442.527 579.296V586H440.591V578.032C440.965 577.893 441.429 577.765 441.983 577.648C442.549 577.52 443.173 577.456 443.855 577.456C443.983 577.456 444.133 577.467 444.303 577.488C444.474 577.499 444.645 577.52 444.815 577.552C444.986 577.573 445.151 577.605 445.311 577.648C445.471 577.68 445.599 577.712 445.695 577.744L445.359 579.376Z" fill="#2C2C2C"/>
<path d="M239.761 124.541C242.767 121.935 247.233 121.935 250.239 124.541L313.024 178.954C316.705 182.144 316.705 187.856 313.024 191.046L250.239 245.459C247.233 248.065 242.767 248.065 239.761 245.459L176.976 191.046C173.295 187.856 173.295 182.144 176.976 178.954L239.761 124.541Z" fill="#FF9F40"/>
<path d="M236.748 177.24C235.991 177.24 235.34 177.133 234.796 176.92C234.252 176.696 233.799 176.387 233.436 175.992C233.084 175.597 232.823 175.133 232.652 174.6C232.482 174.067 232.396 173.48 232.396 172.84V165.912H234.428V172.648C234.428 173.149 234.482 173.581 234.588 173.944C234.706 174.296 234.866 174.584 235.068 174.808C235.282 175.032 235.527 175.197 235.804 175.304C236.092 175.411 236.412 175.464 236.764 175.464C237.116 175.464 237.436 175.411 237.724 175.304C238.012 175.197 238.258 175.032 238.46 174.808C238.674 174.584 238.834 174.296 238.94 173.944C239.058 173.581 239.116 173.149 239.116 172.648V165.912H241.148V172.84C241.148 173.48 241.058 174.067 240.876 174.6C240.706 175.133 240.439 175.597 240.076 175.992C239.724 176.387 239.271 176.696 238.716 176.92C238.162 177.133 237.506 177.24 236.748 177.24ZM245.726 175.608C246.238 175.608 246.612 175.549 246.846 175.432C247.081 175.304 247.198 175.091 247.198 174.792C247.198 174.515 247.07 174.285 246.814 174.104C246.569 173.923 246.158 173.725 245.582 173.512C245.23 173.384 244.905 173.251 244.606 173.112C244.318 172.963 244.068 172.792 243.854 172.6C243.641 172.408 243.47 172.179 243.342 171.912C243.225 171.635 243.166 171.299 243.166 170.904C243.166 170.136 243.449 169.533 244.014 169.096C244.58 168.648 245.348 168.424 246.318 168.424C246.809 168.424 247.278 168.472 247.726 168.568C248.174 168.653 248.51 168.739 248.734 168.824L248.382 170.392C248.169 170.296 247.897 170.211 247.566 170.136C247.236 170.051 246.852 170.008 246.414 170.008C246.02 170.008 245.7 170.077 245.454 170.216C245.209 170.344 245.086 170.547 245.086 170.824C245.086 170.963 245.108 171.085 245.15 171.192C245.204 171.299 245.289 171.4 245.406 171.496C245.524 171.581 245.678 171.672 245.87 171.768C246.062 171.853 246.297 171.944 246.574 172.04C247.033 172.211 247.422 172.381 247.742 172.552C248.062 172.712 248.324 172.899 248.526 173.112C248.74 173.315 248.894 173.549 248.99 173.816C249.086 174.083 249.134 174.403 249.134 174.776C249.134 175.576 248.836 176.184 248.238 176.6C247.652 177.005 246.809 177.208 245.71 177.208C244.974 177.208 244.382 177.144 243.934 177.016C243.486 176.899 243.172 176.803 242.99 176.728L243.326 175.112C243.614 175.229 243.956 175.341 244.35 175.448C244.756 175.555 245.214 175.608 245.726 175.608ZM250.479 172.856C250.479 172.12 250.586 171.475 250.799 170.92C251.023 170.365 251.316 169.907 251.679 169.544C252.042 169.171 252.458 168.893 252.927 168.712C253.396 168.52 253.876 168.424 254.367 168.424C255.519 168.424 256.415 168.781 257.055 169.496C257.706 170.211 258.031 171.277 258.031 172.696C258.031 172.803 258.026 172.925 258.015 173.064C258.015 173.192 258.01 173.309 257.999 173.416H252.479C252.532 174.088 252.767 174.611 253.183 174.984C253.61 175.347 254.223 175.528 255.023 175.528C255.492 175.528 255.919 175.485 256.303 175.4C256.698 175.315 257.007 175.224 257.231 175.128L257.487 176.712C257.38 176.765 257.231 176.824 257.039 176.888C256.858 176.941 256.644 176.989 256.399 177.032C256.164 177.085 255.908 177.128 255.631 177.16C255.354 177.192 255.071 177.208 254.783 177.208C254.047 177.208 253.407 177.101 252.863 176.888C252.319 176.664 251.871 176.36 251.519 175.976C251.167 175.581 250.906 175.123 250.735 174.6C250.564 174.067 250.479 173.485 250.479 172.856ZM256.095 171.992C256.095 171.725 256.058 171.475 255.983 171.24C255.908 170.995 255.796 170.787 255.647 170.616C255.508 170.435 255.332 170.296 255.119 170.2C254.916 170.093 254.671 170.04 254.383 170.04C254.084 170.04 253.823 170.099 253.599 170.216C253.375 170.323 253.183 170.467 253.023 170.648C252.874 170.829 252.756 171.037 252.671 171.272C252.586 171.507 252.527 171.747 252.495 171.992H256.095ZM211.637 197C210.837 195.272 210.063 193.464 209.317 191.576C208.581 189.688 207.893 187.8 207.253 185.912H209.477C209.733 186.659 209.994 187.421 210.261 188.2C210.527 188.979 210.794 189.747 211.061 190.504C211.327 191.251 211.594 191.976 211.861 192.68C212.127 193.384 212.389 194.029 212.645 194.616C212.89 194.029 213.146 193.389 213.413 192.696C213.679 191.992 213.946 191.261 214.213 190.504C214.49 189.747 214.762 188.979 215.029 188.2C215.295 187.421 215.551 186.659 215.797 185.912H217.957C217.306 187.8 216.613 189.688 215.877 191.576C215.141 193.464 214.373 195.272 213.573 197H211.637ZM226.222 192.808C226.222 193.469 226.126 194.072 225.934 194.616C225.742 195.16 225.47 195.624 225.118 196.008C224.766 196.392 224.339 196.691 223.838 196.904C223.347 197.117 222.803 197.224 222.206 197.224C221.609 197.224 221.065 197.117 220.574 196.904C220.083 196.691 219.662 196.392 219.31 196.008C218.958 195.624 218.681 195.16 218.478 194.616C218.286 194.072 218.19 193.469 218.19 192.808C218.19 192.147 218.286 191.549 218.478 191.016C218.681 190.472 218.958 190.008 219.31 189.624C219.673 189.24 220.099 188.947 220.59 188.744C221.081 188.531 221.619 188.424 222.206 188.424C222.793 188.424 223.331 188.531 223.822 188.744C224.323 188.947 224.75 189.24 225.102 189.624C225.454 190.008 225.726 190.472 225.918 191.016C226.121 191.549 226.222 192.147 226.222 192.808ZM224.238 192.808C224.238 191.976 224.057 191.32 223.694 190.84C223.342 190.349 222.846 190.104 222.206 190.104C221.566 190.104 221.065 190.349 220.702 190.84C220.35 191.32 220.174 191.976 220.174 192.808C220.174 193.651 220.35 194.317 220.702 194.808C221.065 195.299 221.566 195.544 222.206 195.544C222.846 195.544 223.342 195.299 223.694 194.808C224.057 194.317 224.238 193.651 224.238 192.808ZM235.08 196.744C234.707 196.84 234.222 196.936 233.624 197.032C233.027 197.139 232.371 197.192 231.656 197.192C230.984 197.192 230.419 197.096 229.96 196.904C229.512 196.712 229.15 196.445 228.872 196.104C228.606 195.763 228.414 195.357 228.296 194.888C228.179 194.408 228.12 193.885 228.12 193.32V188.632H230.056V193.016C230.056 193.912 230.184 194.552 230.44 194.936C230.707 195.32 231.166 195.512 231.816 195.512C232.051 195.512 232.296 195.501 232.552 195.48C232.819 195.459 233.016 195.432 233.144 195.4V188.632H235.08V196.744ZM237.081 192.824C237.081 192.205 237.177 191.629 237.368 191.096C237.561 190.552 237.833 190.083 238.185 189.688C238.547 189.293 238.985 188.984 239.497 188.76C240.009 188.536 240.585 188.424 241.225 188.424C242.014 188.424 242.761 188.568 243.465 188.856L243.049 190.44C242.825 190.344 242.569 190.264 242.281 190.2C242.003 190.136 241.705 190.104 241.385 190.104C240.627 190.104 240.051 190.344 239.657 190.824C239.262 191.293 239.065 191.96 239.065 192.824C239.065 193.656 239.251 194.317 239.625 194.808C239.998 195.288 240.627 195.528 241.513 195.528C241.843 195.528 242.169 195.496 242.489 195.432C242.809 195.368 243.086 195.288 243.321 195.192L243.593 196.792C243.379 196.899 243.054 196.995 242.617 197.08C242.19 197.165 241.747 197.208 241.289 197.208C240.574 197.208 239.95 197.101 239.417 196.888C238.894 196.664 238.457 196.36 238.105 195.976C237.763 195.581 237.507 195.117 237.337 194.584C237.166 194.04 237.081 193.453 237.081 192.824ZM245.091 197V184.904L247.027 184.584V188.728C247.241 188.653 247.486 188.589 247.763 188.536C248.051 188.483 248.334 188.456 248.611 188.456C249.283 188.456 249.838 188.552 250.275 188.744C250.723 188.925 251.081 189.187 251.347 189.528C251.614 189.859 251.801 190.259 251.907 190.728C252.025 191.197 252.083 191.72 252.083 192.296V197H250.147V192.6C250.147 192.152 250.115 191.773 250.051 191.464C249.998 191.144 249.902 190.888 249.763 190.696C249.635 190.493 249.459 190.349 249.235 190.264C249.011 190.168 248.734 190.12 248.403 190.12C248.147 190.12 247.886 190.147 247.619 190.2C247.353 190.253 247.155 190.301 247.027 190.344V197H245.091ZM253.94 192.856C253.94 192.12 254.047 191.475 254.26 190.92C254.484 190.365 254.777 189.907 255.14 189.544C255.503 189.171 255.919 188.893 256.388 188.712C256.857 188.52 257.337 188.424 257.828 188.424C258.98 188.424 259.876 188.781 260.516 189.496C261.167 190.211 261.492 191.277 261.492 192.696C261.492 192.803 261.487 192.925 261.476 193.064C261.476 193.192 261.471 193.309 261.46 193.416H255.94C255.993 194.088 256.228 194.611 256.644 194.984C257.071 195.347 257.684 195.528 258.484 195.528C258.953 195.528 259.38 195.485 259.764 195.4C260.159 195.315 260.468 195.224 260.692 195.128L260.948 196.712C260.841 196.765 260.692 196.824 260.5 196.888C260.319 196.941 260.105 196.989 259.86 197.032C259.625 197.085 259.369 197.128 259.092 197.16C258.815 197.192 258.532 197.208 258.244 197.208C257.508 197.208 256.868 197.101 256.324 196.888C255.78 196.664 255.332 196.36 254.98 195.976C254.628 195.581 254.367 195.123 254.196 194.6C254.025 194.067 253.94 193.485 253.94 192.856ZM259.556 191.992C259.556 191.725 259.519 191.475 259.444 191.24C259.369 190.995 259.257 190.787 259.108 190.616C258.969 190.435 258.793 190.296 258.58 190.2C258.377 190.093 258.132 190.04 257.844 190.04C257.545 190.04 257.284 190.099 257.06 190.216C256.836 190.323 256.644 190.467 256.484 190.648C256.335 190.829 256.217 191.037 256.132 191.272C256.047 191.507 255.988 191.747 255.956 191.992H259.556ZM268.313 190.376C268.153 190.323 267.929 190.269 267.641 190.216C267.363 190.152 267.038 190.12 266.665 190.12C266.451 190.12 266.222 190.141 265.977 190.184C265.742 190.227 265.577 190.264 265.481 190.296V197H263.545V189.032C263.918 188.893 264.382 188.765 264.937 188.648C265.502 188.52 266.126 188.456 266.809 188.456C266.937 188.456 267.086 188.467 267.257 188.488C267.427 188.499 267.598 188.52 267.769 188.552C267.939 188.573 268.105 188.605 268.265 188.648C268.425 188.68 268.553 188.712 268.649 188.744L268.313 190.376ZM272.094 195.608C272.606 195.608 272.979 195.549 273.214 195.432C273.448 195.304 273.566 195.091 273.566 194.792C273.566 194.515 273.438 194.285 273.182 194.104C272.936 193.923 272.526 193.725 271.95 193.512C271.598 193.384 271.272 193.251 270.974 193.112C270.686 192.963 270.435 192.792 270.222 192.6C270.008 192.408 269.838 192.179 269.71 191.912C269.592 191.635 269.534 191.299 269.534 190.904C269.534 190.136 269.816 189.533 270.382 189.096C270.947 188.648 271.715 188.424 272.686 188.424C273.176 188.424 273.646 188.472 274.094 188.568C274.542 188.653 274.878 188.739 275.102 188.824L274.75 190.392C274.536 190.296 274.264 190.211 273.934 190.136C273.603 190.051 273.219 190.008 272.782 190.008C272.387 190.008 272.067 190.077 271.822 190.216C271.576 190.344 271.454 190.547 271.454 190.824C271.454 190.963 271.475 191.085 271.518 191.192C271.571 191.299 271.656 191.4 271.774 191.496C271.891 191.581 272.046 191.672 272.238 191.768C272.43 191.853 272.664 191.944 272.942 192.04C273.4 192.211 273.79 192.381 274.11 192.552C274.43 192.712 274.691 192.899 274.894 193.112C275.107 193.315 275.262 193.549 275.358 193.816C275.454 194.083 275.502 194.403 275.502 194.776C275.502 195.576 275.203 196.184 274.606 196.6C274.019 197.005 273.176 197.208 272.078 197.208C271.342 197.208 270.75 197.144 270.302 197.016C269.854 196.899 269.539 196.803 269.358 196.728L269.694 195.112C269.982 195.229 270.323 195.341 270.718 195.448C271.123 195.555 271.582 195.608 272.094 195.608ZM279.022 187.304C278.649 187.304 278.291 187.352 277.95 187.448C277.609 187.533 277.251 187.677 276.878 187.88L276.334 186.392C276.729 186.168 277.177 185.992 277.678 185.864C278.19 185.725 278.713 185.656 279.246 185.656C279.886 185.656 280.414 185.747 280.83 185.928C281.246 186.099 281.577 186.317 281.822 186.584C282.067 186.851 282.238 187.144 282.334 187.464C282.43 187.784 282.478 188.093 282.478 188.392C282.478 188.755 282.409 189.08 282.27 189.368C282.142 189.656 281.977 189.923 281.774 190.168C281.571 190.413 281.353 190.648 281.118 190.872C280.883 191.085 280.665 191.309 280.462 191.544C280.259 191.768 280.089 192.008 279.95 192.264C279.822 192.52 279.758 192.808 279.758 193.128C279.758 193.181 279.758 193.245 279.758 193.32C279.758 193.384 279.763 193.448 279.774 193.512H278.11C278.089 193.405 278.073 193.293 278.062 193.176C278.051 193.048 278.046 192.931 278.046 192.824C278.046 192.472 278.105 192.157 278.222 191.88C278.339 191.603 278.489 191.347 278.67 191.112C278.851 190.877 279.043 190.659 279.246 190.456C279.459 190.253 279.657 190.051 279.838 189.848C280.019 189.645 280.169 189.437 280.286 189.224C280.403 189.011 280.462 188.776 280.462 188.52C280.462 188.168 280.339 187.88 280.094 187.656C279.859 187.421 279.502 187.304 279.022 187.304ZM280.27 195.944C280.27 196.317 280.147 196.621 279.902 196.856C279.657 197.091 279.353 197.208 278.99 197.208C278.638 197.208 278.334 197.091 278.078 196.856C277.833 196.621 277.71 196.317 277.71 195.944C277.71 195.571 277.833 195.267 278.078 195.032C278.334 194.787 278.638 194.664 278.99 194.664C279.353 194.664 279.657 194.787 279.902 195.032C280.147 195.267 280.27 195.571 280.27 195.944Z" fill="white"/>
<path d="M239.761 408.541C242.767 405.935 247.233 405.935 250.239 408.541L313.024 462.954C316.705 466.144 316.705 471.856 313.024 475.046L250.239 529.459C247.233 532.065 242.767 532.065 239.761 529.459L176.976 475.046C173.295 471.856 173.295 466.144 176.976 462.954L239.761 408.541Z" fill="#FF9F40"/>
<path d="M229.551 439.912H231.567V451H229.551V446.088H224.735V451H222.719V439.912H224.735V444.344H229.551V439.912ZM237.067 449.64C237.664 449.64 238.117 449.608 238.427 449.544V447.4C238.32 447.368 238.165 447.336 237.963 447.304C237.76 447.272 237.536 447.256 237.291 447.256C237.077 447.256 236.859 447.272 236.635 447.304C236.421 447.336 236.224 447.395 236.043 447.48C235.872 447.565 235.733 447.688 235.627 447.848C235.52 447.997 235.467 448.189 235.467 448.424C235.467 448.883 235.611 449.203 235.899 449.384C236.187 449.555 236.576 449.64 237.067 449.64ZM236.907 442.424C237.547 442.424 238.085 442.504 238.523 442.664C238.96 442.824 239.307 443.048 239.563 443.336C239.829 443.624 240.016 443.976 240.123 444.392C240.24 444.797 240.299 445.245 240.299 445.736V450.808C240 450.872 239.547 450.947 238.939 451.032C238.341 451.128 237.664 451.176 236.907 451.176C236.405 451.176 235.947 451.128 235.531 451.032C235.115 450.936 234.757 450.781 234.459 450.568C234.171 450.355 233.941 450.077 233.771 449.736C233.611 449.395 233.531 448.973 233.531 448.472C233.531 447.992 233.621 447.587 233.803 447.256C233.995 446.925 234.251 446.659 234.571 446.456C234.891 446.243 235.259 446.093 235.675 446.008C236.101 445.912 236.544 445.864 237.003 445.864C237.216 445.864 237.44 445.88 237.675 445.912C237.909 445.933 238.16 445.976 238.427 446.04V445.72C238.427 445.496 238.4 445.283 238.347 445.08C238.293 444.877 238.197 444.701 238.059 444.552C237.931 444.392 237.755 444.269 237.531 444.184C237.317 444.099 237.045 444.056 236.715 444.056C236.267 444.056 235.856 444.088 235.483 444.152C235.109 444.216 234.805 444.291 234.571 444.376L234.331 442.808C234.576 442.723 234.933 442.637 235.403 442.552C235.872 442.467 236.373 442.424 236.907 442.424ZM248.222 446.856C248.222 445.992 248.024 445.32 247.63 444.84C247.246 444.36 246.622 444.12 245.758 444.12C245.576 444.12 245.384 444.131 245.182 444.152C244.99 444.163 244.798 444.195 244.606 444.248V449.032C244.776 449.149 245 449.261 245.278 449.368C245.566 449.464 245.87 449.512 246.19 449.512C246.894 449.512 247.406 449.272 247.726 448.792C248.056 448.312 248.222 447.667 248.222 446.856ZM250.206 446.824C250.206 447.464 250.12 448.051 249.95 448.584C249.79 449.117 249.555 449.576 249.246 449.96C248.936 450.344 248.547 450.643 248.078 450.856C247.619 451.069 247.096 451.176 246.51 451.176C246.115 451.176 245.752 451.128 245.422 451.032C245.091 450.936 244.819 450.829 244.606 450.712V453.96H242.67V442.904C243.064 442.797 243.55 442.696 244.126 442.6C244.702 442.504 245.31 442.456 245.95 442.456C246.611 442.456 247.203 442.557 247.726 442.76C248.248 442.963 248.691 443.256 249.054 443.64C249.427 444.013 249.71 444.472 249.902 445.016C250.104 445.549 250.206 446.152 250.206 446.824ZM257.753 446.856C257.753 445.992 257.555 445.32 257.161 444.84C256.777 444.36 256.153 444.12 255.289 444.12C255.107 444.12 254.915 444.131 254.713 444.152C254.521 444.163 254.329 444.195 254.137 444.248V449.032C254.307 449.149 254.531 449.261 254.809 449.368C255.097 449.464 255.401 449.512 255.721 449.512C256.425 449.512 256.937 449.272 257.257 448.792C257.587 448.312 257.753 447.667 257.753 446.856ZM259.737 446.824C259.737 447.464 259.651 448.051 259.481 448.584C259.321 449.117 259.086 449.576 258.777 449.96C258.467 450.344 258.078 450.643 257.609 450.856C257.15 451.069 256.627 451.176 256.041 451.176C255.646 451.176 255.283 451.128 254.953 451.032C254.622 450.936 254.35 450.829 254.137 450.712V453.96H252.201V442.904C252.595 442.797 253.081 442.696 253.657 442.6C254.233 442.504 254.841 442.456 255.481 442.456C256.142 442.456 256.734 442.557 257.257 442.76C257.779 442.963 258.222 443.256 258.585 443.64C258.958 444.013 259.241 444.472 259.433 445.016C259.635 445.549 259.737 446.152 259.737 446.824ZM268.377 442.632C267.513 445.811 266.51 448.691 265.369 451.272C265.155 451.752 264.937 452.163 264.713 452.504C264.489 452.845 264.238 453.128 263.961 453.352C263.683 453.576 263.374 453.736 263.033 453.832C262.691 453.939 262.297 453.992 261.849 453.992C261.55 453.992 261.251 453.96 260.953 453.896C260.665 453.832 260.446 453.763 260.296 453.688L260.649 452.136C261.033 452.285 261.411 452.36 261.785 452.36C262.286 452.36 262.675 452.237 262.953 451.992C263.241 451.757 263.491 451.389 263.705 450.888C263.097 449.715 262.51 448.435 261.945 447.048C261.39 445.661 260.894 444.189 260.457 442.632H262.521C262.627 443.08 262.755 443.565 262.905 444.088C263.065 444.611 263.235 445.144 263.417 445.688C263.598 446.221 263.79 446.755 263.993 447.288C264.195 447.821 264.398 448.317 264.601 448.776C264.942 447.827 265.262 446.819 265.561 445.752C265.859 444.675 266.131 443.635 266.377 442.632H268.377ZM220.333 465.736C220.088 466.675 219.821 467.592 219.533 468.488C219.256 469.373 218.979 470.211 218.701 471H217.117C216.904 470.509 216.68 469.949 216.445 469.32C216.211 468.691 215.976 468.019 215.741 467.304C215.507 466.589 215.272 465.837 215.037 465.048C214.803 464.259 214.573 463.453 214.349 462.632H216.397C216.493 463.08 216.605 463.565 216.733 464.088C216.861 464.6 216.995 465.128 217.133 465.672C217.272 466.205 217.416 466.728 217.565 467.24C217.715 467.752 217.864 468.221 218.013 468.648C218.173 468.157 218.328 467.651 218.477 467.128C218.637 466.605 218.787 466.083 218.925 465.56C219.064 465.037 219.192 464.531 219.309 464.04C219.437 463.539 219.549 463.069 219.645 462.632H221.133C221.229 463.069 221.336 463.539 221.453 464.04C221.571 464.531 221.693 465.037 221.821 465.56C221.96 466.083 222.104 466.605 222.253 467.128C222.413 467.651 222.573 468.157 222.733 468.648C222.872 468.221 223.016 467.752 223.165 467.24C223.315 466.728 223.459 466.205 223.597 465.672C223.747 465.128 223.885 464.6 224.013 464.088C224.141 463.565 224.253 463.08 224.349 462.632H226.349C226.125 463.453 225.896 464.259 225.661 465.048C225.427 465.837 225.192 466.589 224.957 467.304C224.723 468.019 224.488 468.691 224.253 469.32C224.019 469.949 223.789 470.509 223.565 471H221.997C221.72 470.211 221.432 469.373 221.133 468.488C220.845 467.592 220.579 466.675 220.333 465.736ZM229.778 471H227.842V462.632H229.778V471ZM229.986 460.184C229.986 460.547 229.868 460.835 229.634 461.048C229.399 461.261 229.122 461.368 228.802 461.368C228.471 461.368 228.188 461.261 227.954 461.048C227.719 460.835 227.602 460.547 227.602 460.184C227.602 459.811 227.719 459.517 227.954 459.304C228.188 459.091 228.471 458.984 228.802 458.984C229.122 458.984 229.399 459.091 229.634 459.304C229.868 459.517 229.986 459.811 229.986 460.184ZM232.152 460.424L234.088 460.104V462.632H237.064V464.248H234.088V467.656C234.088 468.328 234.194 468.808 234.408 469.096C234.621 469.384 234.984 469.528 235.496 469.528C235.848 469.528 236.157 469.491 236.424 469.416C236.701 469.341 236.92 469.272 237.08 469.208L237.4 470.744C237.176 470.84 236.882 470.936 236.52 471.032C236.157 471.139 235.73 471.192 235.24 471.192C234.642 471.192 234.141 471.112 233.736 470.952C233.341 470.792 233.026 470.563 232.792 470.264C232.557 469.955 232.392 469.587 232.296 469.16C232.2 468.723 232.152 468.227 232.152 467.672V460.424ZM238.935 471V458.904L240.871 458.584V462.728C241.084 462.653 241.33 462.589 241.607 462.536C241.895 462.483 242.178 462.456 242.455 462.456C243.127 462.456 243.682 462.552 244.119 462.744C244.567 462.925 244.924 463.187 245.191 463.528C245.458 463.859 245.644 464.259 245.751 464.728C245.868 465.197 245.927 465.72 245.927 466.296V471H243.991V466.6C243.991 466.152 243.959 465.773 243.895 465.464C243.842 465.144 243.746 464.888 243.607 464.696C243.479 464.493 243.303 464.349 243.079 464.264C242.855 464.168 242.578 464.12 242.247 464.12C241.991 464.12 241.73 464.147 241.463 464.2C241.196 464.253 240.999 464.301 240.871 464.344V471H238.935ZM251.886 460.424L253.822 460.104V462.632H256.798V464.248H253.822V467.656C253.822 468.328 253.929 468.808 254.142 469.096C254.355 469.384 254.718 469.528 255.23 469.528C255.582 469.528 255.891 469.491 256.158 469.416C256.435 469.341 256.654 469.272 256.814 469.208L257.134 470.744C256.91 470.84 256.617 470.936 256.254 471.032C255.891 471.139 255.465 471.192 254.974 471.192C254.377 471.192 253.875 471.112 253.47 470.952C253.075 470.792 252.761 470.563 252.526 470.264C252.291 469.955 252.126 469.587 252.03 469.16C251.934 468.723 251.886 468.227 251.886 467.672V460.424ZM258.67 471V458.904L260.606 458.584V462.728C260.819 462.653 261.064 462.589 261.342 462.536C261.63 462.483 261.912 462.456 262.19 462.456C262.862 462.456 263.416 462.552 263.854 462.744C264.302 462.925 264.659 463.187 264.926 463.528C265.192 463.859 265.379 464.259 265.486 464.728C265.603 465.197 265.661 465.72 265.661 466.296V471H263.726V466.6C263.726 466.152 263.694 465.773 263.63 465.464C263.576 465.144 263.48 464.888 263.342 464.696C263.214 464.493 263.038 464.349 262.814 464.264C262.59 464.168 262.312 464.12 261.982 464.12C261.726 464.12 261.464 464.147 261.198 464.2C260.931 464.253 260.734 464.301 260.606 464.344V471H258.67ZM267.518 466.856C267.518 466.12 267.625 465.475 267.838 464.92C268.062 464.365 268.355 463.907 268.718 463.544C269.081 463.171 269.497 462.893 269.966 462.712C270.435 462.52 270.915 462.424 271.406 462.424C272.558 462.424 273.454 462.781 274.094 463.496C274.745 464.211 275.07 465.277 275.07 466.696C275.07 466.803 275.065 466.925 275.054 467.064C275.054 467.192 275.049 467.309 275.038 467.416H269.518C269.571 468.088 269.806 468.611 270.222 468.984C270.649 469.347 271.262 469.528 272.062 469.528C272.531 469.528 272.958 469.485 273.342 469.4C273.737 469.315 274.046 469.224 274.27 469.128L274.526 470.712C274.419 470.765 274.27 470.824 274.078 470.888C273.897 470.941 273.683 470.989 273.438 471.032C273.203 471.085 272.947 471.128 272.67 471.16C272.393 471.192 272.11 471.208 271.822 471.208C271.086 471.208 270.446 471.101 269.902 470.888C269.358 470.664 268.91 470.36 268.558 469.976C268.206 469.581 267.945 469.123 267.774 468.6C267.603 468.067 267.518 467.485 267.518 466.856ZM273.134 465.992C273.134 465.725 273.097 465.475 273.022 465.24C272.947 464.995 272.835 464.787 272.686 464.616C272.547 464.435 272.371 464.296 272.158 464.2C271.955 464.093 271.71 464.04 271.422 464.04C271.123 464.04 270.862 464.099 270.638 464.216C270.414 464.323 270.222 464.467 270.062 464.648C269.913 464.829 269.795 465.037 269.71 465.272C269.625 465.507 269.566 465.747 269.534 465.992H273.134ZM215.598 491C214.798 489.272 214.024 487.464 213.278 485.576C212.542 483.688 211.854 481.8 211.214 479.912H213.438C213.694 480.659 213.955 481.421 214.222 482.2C214.488 482.979 214.755 483.747 215.022 484.504C215.288 485.251 215.555 485.976 215.822 486.68C216.088 487.384 216.35 488.029 216.606 488.616C216.851 488.029 217.107 487.389 217.374 486.696C217.64 485.992 217.907 485.261 218.174 484.504C218.451 483.747 218.723 482.979 218.99 482.2C219.256 481.421 219.512 480.659 219.758 479.912H221.918C221.267 481.8 220.574 483.688 219.838 485.576C219.102 487.464 218.334 489.272 217.534 491H215.598ZM230.183 486.808C230.183 487.469 230.087 488.072 229.895 488.616C229.703 489.16 229.431 489.624 229.079 490.008C228.727 490.392 228.3 490.691 227.799 490.904C227.308 491.117 226.764 491.224 226.167 491.224C225.569 491.224 225.025 491.117 224.535 490.904C224.044 490.691 223.623 490.392 223.271 490.008C222.919 489.624 222.641 489.16 222.439 488.616C222.247 488.072 222.151 487.469 222.151 486.808C222.151 486.147 222.247 485.549 222.439 485.016C222.641 484.472 222.919 484.008 223.271 483.624C223.633 483.24 224.06 482.947 224.551 482.744C225.041 482.531 225.58 482.424 226.167 482.424C226.753 482.424 227.292 482.531 227.783 482.744C228.284 482.947 228.711 483.24 229.063 483.624C229.415 484.008 229.687 484.472 229.879 485.016C230.081 485.549 230.183 486.147 230.183 486.808ZM228.199 486.808C228.199 485.976 228.017 485.32 227.655 484.84C227.303 484.349 226.807 484.104 226.167 484.104C225.527 484.104 225.025 484.349 224.663 484.84C224.311 485.32 224.135 485.976 224.135 486.808C224.135 487.651 224.311 488.317 224.663 488.808C225.025 489.299 225.527 489.544 226.167 489.544C226.807 489.544 227.303 489.299 227.655 488.808C228.017 488.317 228.199 487.651 228.199 486.808ZM239.041 490.744C238.668 490.84 238.183 490.936 237.585 491.032C236.988 491.139 236.332 491.192 235.617 491.192C234.945 491.192 234.38 491.096 233.921 490.904C233.473 490.712 233.111 490.445 232.833 490.104C232.567 489.763 232.375 489.357 232.257 488.888C232.14 488.408 232.081 487.885 232.081 487.32V482.632H234.017V487.016C234.017 487.912 234.145 488.552 234.401 488.936C234.668 489.32 235.127 489.512 235.777 489.512C236.012 489.512 236.257 489.501 236.513 489.48C236.78 489.459 236.977 489.432 237.105 489.4V482.632H239.041V490.744ZM241.041 486.824C241.041 486.205 241.137 485.629 241.329 485.096C241.521 484.552 241.793 484.083 242.145 483.688C242.508 483.293 242.945 482.984 243.457 482.76C243.969 482.536 244.545 482.424 245.185 482.424C245.975 482.424 246.721 482.568 247.425 482.856L247.009 484.44C246.785 484.344 246.529 484.264 246.241 484.2C245.964 484.136 245.665 484.104 245.345 484.104C244.588 484.104 244.012 484.344 243.617 484.824C243.223 485.293 243.025 485.96 243.025 486.824C243.025 487.656 243.212 488.317 243.585 488.808C243.959 489.288 244.588 489.528 245.473 489.528C245.804 489.528 246.129 489.496 246.449 489.432C246.769 489.368 247.047 489.288 247.281 489.192L247.553 490.792C247.34 490.899 247.015 490.995 246.577 491.08C246.151 491.165 245.708 491.208 245.249 491.208C244.535 491.208 243.911 491.101 243.377 490.888C242.855 490.664 242.417 490.36 242.065 489.976C241.724 489.581 241.468 489.117 241.297 488.584C241.127 488.04 241.041 487.453 241.041 486.824ZM249.052 491V478.904L250.988 478.584V482.728C251.202 482.653 251.447 482.589 251.724 482.536C252.012 482.483 252.295 482.456 252.572 482.456C253.244 482.456 253.799 482.552 254.236 482.744C254.684 482.925 255.042 483.187 255.308 483.528C255.575 483.859 255.762 484.259 255.868 484.728C255.986 485.197 256.044 485.72 256.044 486.296V491H254.108V486.6C254.108 486.152 254.076 485.773 254.012 485.464C253.959 485.144 253.863 484.888 253.724 484.696C253.596 484.493 253.42 484.349 253.196 484.264C252.972 484.168 252.695 484.12 252.364 484.12C252.108 484.12 251.847 484.147 251.58 484.2C251.314 484.253 251.116 484.301 250.988 484.344V491H249.052ZM257.901 486.856C257.901 486.12 258.007 485.475 258.221 484.92C258.445 484.365 258.738 483.907 259.101 483.544C259.463 483.171 259.879 482.893 260.349 482.712C260.818 482.52 261.298 482.424 261.789 482.424C262.941 482.424 263.837 482.781 264.477 483.496C265.127 484.211 265.453 485.277 265.453 486.696C265.453 486.803 265.447 486.925 265.437 487.064C265.437 487.192 265.431 487.309 265.421 487.416H259.901C259.954 488.088 260.189 488.611 260.605 488.984C261.031 489.347 261.645 489.528 262.445 489.528C262.914 489.528 263.341 489.485 263.725 489.4C264.119 489.315 264.429 489.224 264.653 489.128L264.909 490.712C264.802 490.765 264.653 490.824 264.461 490.888C264.279 490.941 264.066 490.989 263.821 491.032C263.586 491.085 263.33 491.128 263.053 491.16C262.775 491.192 262.493 491.208 262.205 491.208C261.469 491.208 260.829 491.101 260.285 490.888C259.741 490.664 259.293 490.36 258.941 489.976C258.589 489.581 258.327 489.123 258.157 488.6C257.986 488.067 257.901 487.485 257.901 486.856ZM263.517 485.992C263.517 485.725 263.479 485.475 263.405 485.24C263.33 484.995 263.218 484.787 263.069 484.616C262.93 484.435 262.754 484.296 262.541 484.2C262.338 484.093 262.093 484.04 261.805 484.04C261.506 484.04 261.245 484.099 261.021 484.216C260.797 484.323 260.605 484.467 260.445 484.648C260.295 484.829 260.178 485.037 260.093 485.272C260.007 485.507 259.949 485.747 259.917 485.992H263.517ZM272.273 484.376C272.113 484.323 271.889 484.269 271.601 484.216C271.324 484.152 270.999 484.12 270.625 484.12C270.412 484.12 270.183 484.141 269.937 484.184C269.703 484.227 269.537 484.264 269.441 484.296V491H267.505V483.032C267.879 482.893 268.343 482.765 268.897 482.648C269.463 482.52 270.087 482.456 270.769 482.456C270.897 482.456 271.047 482.467 271.217 482.488C271.388 482.499 271.559 482.52 271.729 482.552C271.9 482.573 272.065 482.605 272.225 482.648C272.385 482.68 272.513 482.712 272.609 482.744L272.273 484.376ZM275.061 481.304C274.688 481.304 274.331 481.352 273.989 481.448C273.648 481.533 273.291 481.677 272.917 481.88L272.373 480.392C272.768 480.168 273.216 479.992 273.717 479.864C274.229 479.725 274.752 479.656 275.285 479.656C275.925 479.656 276.453 479.747 276.869 479.928C277.285 480.099 277.616 480.317 277.861 480.584C278.107 480.851 278.277 481.144 278.373 481.464C278.469 481.784 278.517 482.093 278.517 482.392C278.517 482.755 278.448 483.08 278.309 483.368C278.181 483.656 278.016 483.923 277.813 484.168C277.611 484.413 277.392 484.648 277.157 484.872C276.923 485.085 276.704 485.309 276.501 485.544C276.299 485.768 276.128 486.008 275.989 486.264C275.861 486.52 275.797 486.808 275.797 487.128C275.797 487.181 275.797 487.245 275.797 487.32C275.797 487.384 275.803 487.448 275.813 487.512H274.149C274.128 487.405 274.112 487.293 274.101 487.176C274.091 487.048 274.085 486.931 274.085 486.824C274.085 486.472 274.144 486.157 274.261 485.88C274.379 485.603 274.528 485.347 274.709 485.112C274.891 484.877 275.083 484.659 275.285 484.456C275.499 484.253 275.696 484.051 275.877 483.848C276.059 483.645 276.208 483.437 276.325 483.224C276.443 483.011 276.501 482.776 276.501 482.52C276.501 482.168 276.379 481.88 276.133 481.656C275.899 481.421 275.541 481.304 275.061 481.304ZM276.309 489.944C276.309 490.317 276.187 490.621 275.941 490.856C275.696 491.091 275.392 491.208 275.029 491.208C274.677 491.208 274.373 491.091 274.117 490.856C273.872 490.621 273.749 490.317 273.749 489.944C273.749 489.571 273.872 489.267 274.117 489.032C274.373 488.787 274.677 488.664 275.029 488.664C275.392 488.664 275.696 488.787 275.941 489.032C276.187 489.267 276.309 489.571 276.309 489.944Z" fill="white"/>
<path d="M336 467C336 462.582 339.582 459 344 459H358C362.418 459 366 462.582 366 467V471C366 475.418 362.418 479 358 479H344C339.582 479 336 475.418 336 471V467Z" fill="#2C2C2C"/>
<path d="M349.097 475C348.734 474.392 348.329 473.741 347.881 473.048C347.433 472.344 346.969 471.64 346.489 470.936C346.009 470.221 345.518 469.533 345.017 468.872C344.526 468.2 344.057 467.597 343.609 467.064V475H341.625V463.912H343.273C343.7 464.36 344.158 464.893 344.649 465.512C345.14 466.12 345.63 466.755 346.121 467.416C346.622 468.077 347.102 468.744 347.561 469.416C348.03 470.077 348.446 470.696 348.809 471.272V463.912H350.809V475H349.097ZM360.941 470.808C360.941 471.469 360.845 472.072 360.653 472.616C360.461 473.16 360.189 473.624 359.837 474.008C359.485 474.392 359.058 474.691 358.557 474.904C358.066 475.117 357.522 475.224 356.925 475.224C356.327 475.224 355.783 475.117 355.293 474.904C354.802 474.691 354.381 474.392 354.029 474.008C353.677 473.624 353.399 473.16 353.197 472.616C353.005 472.072 352.909 471.469 352.909 470.808C352.909 470.147 353.005 469.549 353.197 469.016C353.399 468.472 353.677 468.008 354.029 467.624C354.391 467.24 354.818 466.947 355.309 466.744C355.799 466.531 356.338 466.424 356.925 466.424C357.511 466.424 358.05 466.531 358.541 466.744C359.042 466.947 359.469 467.24 359.821 467.624C360.173 468.008 360.445 468.472 360.637 469.016C360.839 469.549 360.941 470.147 360.941 470.808ZM358.957 470.808C358.957 469.976 358.775 469.32 358.413 468.84C358.061 468.349 357.565 468.104 356.925 468.104C356.285 468.104 355.783 468.349 355.421 468.84C355.069 469.32 354.893 469.976 354.893 470.808C354.893 471.651 355.069 472.317 355.421 472.808C355.783 473.299 356.285 473.544 356.925 473.544C357.565 473.544 358.061 473.299 358.413 472.808C358.775 472.317 358.957 471.651 358.957 470.808Z" fill="white"/>
<path d="M228 267C228 262.582 231.582 259 236 259H254C258.418 259 262 262.582 262 267V271C262 275.418 258.418 279 254 279H236C231.582 279 228 275.418 228 271V267Z" fill="#2C2C2C"/>
<path d="M237.236 268.824C237.716 268.024 238.185 267.213 238.644 266.392C239.102 265.571 239.518 264.744 239.892 263.912H242.132C241.534 265.043 240.91 266.168 240.26 267.288C239.62 268.397 238.932 269.517 238.196 270.648V275H236.18V270.68C235.444 269.539 234.75 268.408 234.1 267.288C233.449 266.168 232.825 265.043 232.228 263.912H234.596C234.969 264.744 235.38 265.571 235.828 266.392C236.276 267.213 236.745 268.024 237.236 268.824ZM242.135 270.856C242.135 270.12 242.242 269.475 242.455 268.92C242.679 268.365 242.973 267.907 243.335 267.544C243.698 267.171 244.114 266.893 244.583 266.712C245.053 266.52 245.533 266.424 246.023 266.424C247.175 266.424 248.071 266.781 248.711 267.496C249.362 268.211 249.687 269.277 249.687 270.696C249.687 270.803 249.682 270.925 249.671 271.064C249.671 271.192 249.666 271.309 249.655 271.416H244.135C244.189 272.088 244.423 272.611 244.839 272.984C245.266 273.347 245.879 273.528 246.679 273.528C247.149 273.528 247.575 273.485 247.959 273.4C248.354 273.315 248.663 273.224 248.887 273.128L249.143 274.712C249.037 274.765 248.887 274.824 248.695 274.888C248.514 274.941 248.301 274.989 248.055 275.032C247.821 275.085 247.565 275.128 247.287 275.16C247.01 275.192 246.727 275.208 246.439 275.208C245.703 275.208 245.063 275.101 244.519 274.888C243.975 274.664 243.527 274.36 243.175 273.976C242.823 273.581 242.562 273.123 242.391 272.6C242.221 272.067 242.135 271.485 242.135 270.856ZM247.751 269.992C247.751 269.725 247.714 269.475 247.639 269.24C247.565 268.995 247.453 268.787 247.303 268.616C247.165 268.435 246.989 268.296 246.775 268.2C246.573 268.093 246.327 268.04 246.039 268.04C245.741 268.04 245.479 268.099 245.255 268.216C245.031 268.323 244.839 268.467 244.679 268.648C244.53 268.829 244.413 269.037 244.327 269.272C244.242 269.507 244.183 269.747 244.151 269.992H247.751ZM253.836 273.608C254.348 273.608 254.721 273.549 254.956 273.432C255.19 273.304 255.308 273.091 255.308 272.792C255.308 272.515 255.18 272.285 254.924 272.104C254.678 271.923 254.268 271.725 253.692 271.512C253.34 271.384 253.014 271.251 252.716 271.112C252.428 270.963 252.177 270.792 251.964 270.6C251.75 270.408 251.58 270.179 251.452 269.912C251.334 269.635 251.276 269.299 251.276 268.904C251.276 268.136 251.558 267.533 252.124 267.096C252.689 266.648 253.457 266.424 254.428 266.424C254.918 266.424 255.388 266.472 255.836 266.568C256.284 266.653 256.62 266.739 256.844 266.824L256.492 268.392C256.278 268.296 256.006 268.211 255.676 268.136C255.345 268.051 254.961 268.008 254.524 268.008C254.129 268.008 253.809 268.077 253.564 268.216C253.318 268.344 253.196 268.547 253.196 268.824C253.196 268.963 253.217 269.085 253.26 269.192C253.313 269.299 253.398 269.4 253.516 269.496C253.633 269.581 253.788 269.672 253.98 269.768C254.172 269.853 254.406 269.944 254.684 270.04C255.142 270.211 255.532 270.381 255.852 270.552C256.172 270.712 256.433 270.899 256.636 271.112C256.849 271.315 257.004 271.549 257.1 271.816C257.196 272.083 257.244 272.403 257.244 272.776C257.244 273.576 256.945 274.184 256.348 274.6C255.761 275.005 254.918 275.208 253.82 275.208C253.084 275.208 252.492 275.144 252.044 275.016C251.596 274.899 251.281 274.803 251.1 274.728L251.436 273.112C251.724 273.229 252.065 273.341 252.46 273.448C252.865 273.555 253.324 273.608 253.836 273.608Z" fill="white"/>
<path d="M228 572C228 567.582 231.582 564 236 564H254C258.418 564 262 567.582 262 572V576C262 580.418 258.418 584 254 584H236C231.582 584 228 580.418 228 576V572Z" fill="#2C2C2C"/>
<path d="M237.236 573.824C237.716 573.024 238.185 572.213 238.644 571.392C239.102 570.571 239.518 569.744 239.892 568.912H242.132C241.534 570.043 240.91 571.168 240.26 572.288C239.62 573.397 238.932 574.517 238.196 575.648V580H236.18V575.68C235.444 574.539 234.75 573.408 234.1 572.288C233.449 571.168 232.825 570.043 232.228 568.912H234.596C234.969 569.744 235.38 570.571 235.828 571.392C236.276 572.213 236.745 573.024 237.236 573.824ZM242.135 575.856C242.135 575.12 242.242 574.475 242.455 573.92C242.679 573.365 242.973 572.907 243.335 572.544C243.698 572.171 244.114 571.893 244.583 571.712C245.053 571.52 245.533 571.424 246.023 571.424C247.175 571.424 248.071 571.781 248.711 572.496C249.362 573.211 249.687 574.277 249.687 575.696C249.687 575.803 249.682 575.925 249.671 576.064C249.671 576.192 249.666 576.309 249.655 576.416H244.135C244.189 577.088 244.423 577.611 244.839 577.984C245.266 578.347 245.879 578.528 246.679 578.528C247.149 578.528 247.575 578.485 247.959 578.4C248.354 578.315 248.663 578.224 248.887 578.128L249.143 579.712C249.037 579.765 248.887 579.824 248.695 579.888C248.514 579.941 248.301 579.989 248.055 580.032C247.821 580.085 247.565 580.128 247.287 580.16C247.01 580.192 246.727 580.208 246.439 580.208C245.703 580.208 245.063 580.101 244.519 579.888C243.975 579.664 243.527 579.36 243.175 578.976C242.823 578.581 242.562 578.123 242.391 577.6C242.221 577.067 242.135 576.485 242.135 575.856ZM247.751 574.992C247.751 574.725 247.714 574.475 247.639 574.24C247.565 573.995 247.453 573.787 247.303 573.616C247.165 573.435 246.989 573.296 246.775 573.2C246.573 573.093 246.327 573.04 246.039 573.04C245.741 573.04 245.479 573.099 245.255 573.216C245.031 573.323 244.839 573.467 244.679 573.648C244.53 573.829 244.413 574.037 244.327 574.272C244.242 574.507 244.183 574.747 244.151 574.992H247.751ZM253.836 578.608C254.348 578.608 254.721 578.549 254.956 578.432C255.19 578.304 255.308 578.091 255.308 577.792C255.308 577.515 255.18 577.285 254.924 577.104C254.678 576.923 254.268 576.725 253.692 576.512C253.34 576.384 253.014 576.251 252.716 576.112C252.428 575.963 252.177 575.792 251.964 575.6C251.75 575.408 251.58 575.179 251.452 574.912C251.334 574.635 251.276 574.299 251.276 573.904C251.276 573.136 251.558 572.533 252.124 572.096C252.689 571.648 253.457 571.424 254.428 571.424C254.918 571.424 255.388 571.472 255.836 571.568C256.284 571.653 256.62 571.739 256.844 571.824L256.492 573.392C256.278 573.296 256.006 573.211 255.676 573.136C255.345 573.051 254.961 573.008 254.524 573.008C254.129 573.008 253.809 573.077 253.564 573.216C253.318 573.344 253.196 573.547 253.196 573.824C253.196 573.963 253.217 574.085 253.26 574.192C253.313 574.299 253.398 574.4 253.516 574.496C253.633 574.581 253.788 574.672 253.98 574.768C254.172 574.853 254.406 574.944 254.684 575.04C255.142 575.211 255.532 575.381 255.852 575.552C256.172 575.712 256.433 575.899 256.636 576.112C256.849 576.315 257.004 576.549 257.1 576.816C257.196 577.083 257.244 577.403 257.244 577.776C257.244 578.576 256.945 579.184 256.348 579.6C255.761 580.005 254.918 580.208 253.82 580.208C253.084 580.208 252.492 580.144 252.044 580.016C251.596 579.899 251.281 579.803 251.1 579.728L251.436 578.112C251.724 578.229 252.065 578.341 252.46 578.448C252.865 578.555 253.324 578.608 253.836 578.608Z" fill="white"/>
<path d="M120 184C120 179.582 123.582 176 128 176H142C146.418 176 150 179.582 150 184V188C150 192.418 146.418 196 142 196H128C123.582 196 120 192.418 120 188V184Z" fill="#2C2C2C"/>
<path d="M133.097 192C132.734 191.392 132.329 190.741 131.881 190.048C131.433 189.344 130.969 188.64 130.489 187.936C130.009 187.221 129.518 186.533 129.017 185.872C128.526 185.2 128.057 184.597 127.609 184.064V192H125.625V180.912H127.273C127.7 181.36 128.158 181.893 128.649 182.512C129.14 183.12 129.63 183.755 130.121 184.416C130.622 185.077 131.102 185.744 131.561 186.416C132.03 187.077 132.446 187.696 132.809 188.272V180.912H134.809V192H133.097ZM144.941 187.808C144.941 188.469 144.845 189.072 144.653 189.616C144.461 190.16 144.189 190.624 143.837 191.008C143.485 191.392 143.058 191.691 142.557 191.904C142.066 192.117 141.522 192.224 140.925 192.224C140.327 192.224 139.783 192.117 139.293 191.904C138.802 191.691 138.381 191.392 138.029 191.008C137.677 190.624 137.399 190.16 137.197 189.616C137.005 189.072 136.909 188.469 136.909 187.808C136.909 187.147 137.005 186.549 137.197 186.016C137.399 185.472 137.677 185.008 138.029 184.624C138.391 184.24 138.818 183.947 139.309 183.744C139.799 183.531 140.338 183.424 140.925 183.424C141.511 183.424 142.05 183.531 142.541 183.744C143.042 183.947 143.469 184.24 143.821 184.624C144.173 185.008 144.445 185.472 144.637 186.016C144.839 186.549 144.941 187.147 144.941 187.808ZM142.957 187.808C142.957 186.976 142.775 186.32 142.413 185.84C142.061 185.349 141.565 185.104 140.925 185.104C140.285 185.104 139.783 185.349 139.421 185.84C139.069 186.32 138.893 186.976 138.893 187.808C138.893 188.651 139.069 189.317 139.421 189.808C139.783 190.299 140.285 190.544 140.925 190.544C141.565 190.544 142.061 190.299 142.413 189.808C142.775 189.317 142.957 188.651 142.957 187.808Z" fill="white"/>
</svg>
