<svg width="976" height="274" viewBox="0 0 976 274" fill="none"
  xmlns="http://www.w3.org/2000/svg">
  <rect width="976" height="32" rx="8" fill="#FBEACA"/>
  <rect y="40" width="976" height="32" rx="8" fill="#FBEACA"/>
  <rect y="80" width="976" height="32" rx="8" fill="#FBEACA"/>
  <rect y="120" width="976" height="32" rx="8" fill="#FBEACA"/>
  <rect y="160" width="976" height="32" rx="8" fill="#FBEACA"/>
  <rect y="200" width="976" height="32" rx="8" fill="#FBEACA"/>
  <path d="M66 76L159.875 116L253.75 148L347.624 156L441.499 196L540.5 75" stroke="#478FD7" stroke-width="5" stroke-linecap="round"/>
  <path d="M346 116L441.211 196L535.169 116L630.379 196L724.337 155.5L819.548 36H911" stroke="#47D778" stroke-width="5" stroke-linecap="round"/>
  <path d="M534.5 156.5L629.548 196H723.49L818.684 37L865.5 41L912 37" stroke="#FFB9B9" stroke-width="5" stroke-linecap="round"/>
  <path d="M66 91C74.2843 91 81 84.2843 81 76C81 67.7157 74.2843 61 66 61C57.7157 61 51 67.7157 51 76C51 84.2843 57.7157 91 66 91Z" fill="#FFDD67"/>
  <path d="M60 76C61.3807 76 62.5 74.8807 62.5 73.5C62.5 72.1193 61.3807 71 60 71C58.6193 71 57.5 72.1193 57.5 73.5C57.5 74.8807 58.6193 76 60 76Z" fill="#664E27"/>
  <path d="M72 76C73.3807 76 74.5 74.8807 74.5 73.5C74.5 72.1193 73.3807 71 72 71C70.6193 71 69.5 72.1193 69.5 73.5C69.5 74.8807 70.6193 76 72 76Z" fill="#664E27"/>
  <path d="M75.1001 68.5C73.5001 67.15 71.3501 66.55 69.2501 66.95C68.9501 67 68.7001 65.95 69.0501 65.85C71.4501 65.4 73.9501 66.1 75.8001 67.65C76.1001 67.9 75.3001 68.7 75.1001 68.5ZM62.7501 66.9C60.6501 66.55 58.5001 67.1 56.9001 68.45C56.7001 68.65 55.9001 67.85 56.2001 67.6C58.0501 66 60.5501 65.35 62.9501 65.8C63.3001 65.85 63.0501 66.95 62.7501 66.9Z" fill="#917524"/>
  <path d="M66 86.5C67.3807 86.5 68.5 85.3807 68.5 84C68.5 82.6193 67.3807 81.5 66 81.5C64.6193 81.5 63.5 82.6193 63.5 84C63.5 85.3807 64.6193 86.5 66 86.5Z" fill="#664E27"/>
  <path d="M216 151C224.284 151 231 144.284 231 136C231 127.716 224.284 121 216 121C207.716 121 201 127.716 201 136C201 144.284 207.716 151 216 151Z" fill="#FFDD67"/>
  <path d="M210.25 136.75C211.631 136.75 212.75 135.631 212.75 134.25C212.75 132.869 211.631 131.75 210.25 131.75C208.869 131.75 207.75 132.869 207.75 134.25C207.75 135.631 208.869 136.75 210.25 136.75Z" fill="#664E27"/>
  <path d="M221.75 136.75C223.131 136.75 224.25 135.631 224.25 134.25C224.25 132.869 223.131 131.75 221.75 131.75C220.369 131.75 219.25 132.869 219.25 134.25C219.25 135.631 220.369 136.75 221.75 136.75Z" fill="#664E27"/>
  <path d="M442 211C450.284 211 457 204.284 457 196C457 187.716 450.284 181 442 181C433.716 181 427 187.716 427 196C427 204.284 433.716 211 442 211Z" fill="#FFDD67"/>
  <path d="M436.25 194.8C437.631 194.8 438.75 193.681 438.75 192.3C438.75 190.919 437.631 189.8 436.25 189.8C434.869 189.8 433.75 190.919 433.75 192.3C433.75 193.681 434.869 194.8 436.25 194.8Z" fill="#664E27"/>
  <path d="M447.75 194.8C449.131 194.8 450.25 193.681 450.25 192.3C450.25 190.919 449.131 189.8 447.75 189.8C446.369 189.8 445.25 190.919 445.25 192.3C445.25 193.681 446.369 194.8 447.75 194.8Z" fill="#664E27"/>
  <path d="M435.7 202.9C439.75 200.05 444.25 200.1 448.3 202.9C448.8 203.25 449.2 202.65 448.9 202.1C447.65 200.1 445.2 198.25 442 198.25C438.8 198.25 436.35 200.05 435.1 202.1C434.8 202.65 435.2 203.25 435.7 202.9Z" fill="#664E27"/>
  <path d="M522 115C522 122.75 528.25 129 536 129C543.75 129 550 122.75 550 115C550 107.25 543.75 101 536 101C528.25 101 522 107.25 522 115Z" fill="#FFDD67"/>
  <path d="M527.1 106C528.8 105 530.85 104.85 532.75 105.5C533 105.6 533.4 104.65 533.1 104.55C530.95 103.75 528.6 103.95 526.6 105.1C526.3 105.25 526.85 106.15 527.1 106ZM539.1 107.5C540.8 106.5 542.85 106.35 544.75 107C545 107.1 545.4 106.15 545.1 106.05C542.95 105.25 540.6 105.45 538.6 106.6C538.3 106.75 538.85 107.6 539.1 107.5Z" fill="#917524"/>
  <path d="M532.05 117.35C534.6 116.7 537.4 117.15 539.55 118.65C540.1 119 539.1 120.4 538.55 120C537.1 119.05 534.85 118.35 532.5 118.95C531.9 119.1 531.4 117.55 532.05 117.35Z" fill="#664E27"/>
  <path d="M541.4 114.55C539.35 114.55 537.65 112.85 537.65 110.8C537.65 109.95 537.95 109.15 538.4 108.55C539.25 108.3 540.2 108.2 541.2 108.2C542.4 108.2 543.55 108.4 544.55 108.75C544.95 109.35 545.2 110.05 545.2 110.85C545.15 112.9 543.5 114.55 541.4 114.55Z" fill="white"/>
  <path d="M541.9 108.2C542.1 108.5 542.25 108.85 542.25 109.25C542.25 110.3 541.4 111.15 540.35 111.15C539.3 111.15 538.5 110.3 538.5 109.3C538.5 109 538.55 108.75 538.7 108.5C539.45 108.3 540.3 108.2 541.2 108.2H541.9Z" fill="#664E27"/>
  <path d="M530.6 114.55C528.55 114.55 526.85 112.85 526.85 110.8C526.85 109.95 527.15 109.15 527.6 108.55C528.45 108.3 529.4 108.2 530.4 108.2C531.6 108.2 532.75 108.4 533.75 108.75C534.15 109.35 534.4 110.05 534.4 110.85C534.35 112.9 532.65 114.55 530.6 114.55Z" fill="white"/>
  <path d="M531.1 108.2C531.3 108.5 531.45 108.85 531.45 109.25C531.45 110.3 530.6 111.15 529.55 111.15C528.5 111.15 527.65 110.3 527.65 109.25C527.65 108.95 527.7 108.7 527.85 108.45C528.6 108.25 529.45 108.15 530.35 108.15C530.65 108.2 530.85 108.2 531.1 108.2Z" fill="#664E27"/>
  <path d="M536.3 122C534.2 122.5 528.85 123.15 527.9 122.15C527.45 121.7 527.55 121.05 527.7 119.9C527.85 118.75 526.75 117.55 525.95 117.45C525 117.35 524.45 118.05 524.8 119.05C525.5 121.3 524.1 122 524 123.65C523.95 124.6 523.65 126.2 525.1 128.25C526.75 130.55 529.6 130.6 530.6 130.55C531.75 130.5 532.25 130.45 532.5 129.95C532.8 129.35 532.65 129.2 532.8 129C533.05 128.55 533.2 128.6 533.35 128.05C533.5 127.5 533.1 127.15 533.2 126.9C533.4 126.3 533.9 126.4 533.4 125C535.1 124.75 536.2 124.5 537.2 123.9C539.05 122.9 537.45 121.75 536.3 122Z" fill="white"/>
  <path d="M528.75 130.85C527.05 130.55 525.65 129.7 524.75 128.45C523.35 126.5 523.45 124.95 523.55 123.9V123.55C523.6 122.85 523.8 122.3 524.05 121.75C524.4 120.95 524.7 120.3 524.3 119.1C524.1 118.5 524.15 117.9 524.55 117.5C524.9 117.15 525.4 116.95 526 117.05H526.05C527.1 117.25 528.3 118.65 528.15 120C528 121.1 527.95 121.6 528.25 121.9C528.3 121.95 528.45 122.1 529 122.15C530.9 122.5 534.65 121.95 536.2 121.6C536.45 121.55 536.75 121.55 537.05 121.6C537.8 121.75 538.35 122.2 538.5 122.75C538.55 123.1 538.55 123.75 537.5 124.35C536.5 124.9 535.45 125.2 534 125.4C534.4 126.4 533.45 126.75 533.65 127.15C533.9 127.7 533.85 128.15 533.3 128.7C532.9 129.05 533.4 129.5 533 130.2C532.55 130.95 531.8 131 530.7 131.05C529.95 131 529.35 131 528.75 130.85ZM524.95 118.6C525.3 120.25 525.4 120.85 524.8 122.2C523.9 124 523.55 129.1 528.9 130.05C532.15 130.65 532.65 129.85 532.5 129C532.4 128.45 532.85 128.25 533 128.05C533.35 127.45 532.85 127.15 532.85 126.9C532.85 126.45 533.3 126.45 533.4 126C533.55 125.2 532.55 124.9 533.4 124.85C535.05 124.75 536.15 124.45 537.1 123.8C538 123.2 537.35 121.95 536.15 122.2C533.35 122.8 529.15 123.5 527.75 122.2C527.1 121.6 527.6 120.9 527.55 119.55C527.45 117.75 524.6 117.05 524.95 118.6Z" fill="#CCCFD4"/>
  <path d="M346 131C354.284 131 361 124.284 361 116C361 107.716 354.284 101 346 101C337.716 101 331 107.716 331 116C331 124.284 337.716 131 346 131Z" fill="#FFDD67"/>
  <path d="M340.25 116.3C341.631 116.3 342.75 115.181 342.75 113.8C342.75 112.419 341.631 111.3 340.25 111.3C338.869 111.3 337.75 112.419 337.75 113.8C337.75 115.181 338.869 116.3 340.25 116.3Z" fill="#664E27"/>
  <path d="M351.75 116.3C353.131 116.3 354.25 115.181 354.25 113.8C354.25 112.419 353.131 111.3 351.75 111.3C350.369 111.3 349.25 112.419 349.25 113.8C349.25 115.181 350.369 116.3 351.75 116.3Z" fill="#664E27"/>
  <path d="M349.45 124H342.55C341.8 124 341.8 122 342.55 122H349.4C350.2 122 350.2 124 349.45 124Z" fill="#664E27"/>
  <path d="M633 211C641.284 211 648 204.284 648 196C648 187.716 641.284 181 633 181C624.716 181 618 187.716 618 196C618 204.284 624.716 211 633 211Z" fill="#FFDD67"/>
  <path d="M636.2 185.6C637.8 186.95 639.95 187.55 642.05 187.15C642.35 187.1 642.6 188.15 642.25 188.25C639.85 188.7 637.35 188 635.5 186.45C635.25 186.2 636 185.45 636.2 185.6ZM623.95 187.1C626.05 187.45 628.2 186.9 629.8 185.55C630 185.35 630.8 186.15 630.5 186.4C628.65 188 626.15 188.65 623.75 188.2C623.4 188.1 623.65 187.05 623.95 187.1Z" fill="#917524"/>
  <path d="M633 196C628.6 195.95 625.05 198.7 625 202.15C625 204.05 625.65 206.9 627.8 206.9C629.35 206.9 631.05 205 633 205C634.95 205 636.55 207 638.1 207C640 207 641 204.15 641 202.25C641.05 198.85 637.4 196.05 633 196Z" fill="#664E27"/>
  <path d="M636.5 201.6C636.5 200.05 635 199.15 634.1 199.15C633.75 199.15 633.25 199.45 633.45 200.2C633.55 200.6 634.15 201.05 634.15 201.7C634.15 202.95 631.95 202.95 631.95 201.7C631.95 201.05 632.55 200.6 632.65 200.2C632.85 199.45 632.3 199.15 632 199.15C631.1 199.15 629.6 200.1 629.6 201.6C629.6 202.55 630.1 203.3 630.85 203.9H635.35C636 203.3 636.5 202.55 636.5 201.6Z" fill="#4C3526"/>
  <path d="M633 203C630 203 629 205.5 629 205.5C629 205.5 631 204 633 204C635 204 637 205.5 637 205.5C637 205.5 636 203 633 203Z" fill="#FF717F"/>
  <path d="M637.9 198.5C636.65 197.55 635.05 197 633 197C630.95 197 629.35 197.6 628.1 198.5C627.9 198.65 627.9 199 628.25 199H637.65C638.05 199 638.05 198.65 637.9 198.5Z" fill="white"/>
  <path d="M642.85 190.55C643.15 190.7 643 191.05 642.75 191.1C641.4 191.3 640 191.55 638.6 192.3C640.6 192.65 642.2 193.65 643.1 194.7C643.3 194.95 643.05 195.25 642.85 195.2C640.45 194.35 638 193.85 634.95 194.2C634.7 194.2 634.5 194.1 634.55 193.85C635.35 190.2 640 188.85 642.85 190.55ZM623.15 190.55C622.85 190.7 623 191.05 623.25 191.1C624.6 191.3 626 191.55 627.4 192.3C625.4 192.65 623.8 193.65 622.9 194.7C622.7 194.95 622.95 195.25 623.15 195.2C625.55 194.35 628 193.85 631.05 194.2C631.3 194.2 631.5 194.1 631.45 193.85C630.65 190.2 626 188.85 623.15 190.55Z" fill="#664E27"/>
  <path d="M912 49C919.732 49 926 42.732 926 35C926 27.268 919.732 21 912 21C904.268 21 898 27.268 898 35C898 42.732 904.268 49 912 49Z" fill="#FFDD67"/>
  <path opacity="0.8" d="M925.005 31.8787C925.441 30.2516 923.978 28.446 921.737 27.8457C919.497 27.2454 917.327 28.0777 916.891 29.7048C916.455 31.3319 917.918 33.1375 920.158 33.7378C922.399 34.3382 924.569 33.5058 925.005 31.8787Z" fill="#FF717F"/>
  <path opacity="0.8" d="M903.899 36.5889C905.8 35.2586 906.557 33.0615 905.591 31.6816C904.625 30.3017 902.301 30.2615 900.401 31.5918C898.501 32.9221 897.744 35.1191 898.71 36.4991C899.676 37.879 901.999 37.9192 903.899 36.5889Z" fill="#FF717F"/>
  <path d="M909.35 29.1001C908.1 26.9501 906.7 26.0501 905.45 26.3001C904.2 26.5001 903.15 27.8501 902.75 30.3001C902.7 30.5501 903.2 30.9001 903.4 30.6001C904.05 29.6001 904.95 29.1001 905.95 28.9501C906.95 28.7501 907.95 28.9501 908.9 29.6501C909.15 29.8001 909.5 29.3001 909.35 29.1001ZM919.1 27.3501C917.85 25.2501 916.45 24.3001 915.2 24.5501C913.95 24.7501 912.9 26.1501 912.5 28.5501C912.45 28.8001 912.95 29.1501 913.15 28.8501C913.8 27.8501 914.7 27.3501 915.7 27.2001C916.7 27.0001 917.7 27.2001 918.65 27.9001C918.85 28.0501 919.2 27.6001 919.1 27.3501ZM917.45 33.2501C914.3 36.4001 910.3 37.1001 906.25 35.2001C905.75 34.9501 905.45 35.5501 905.85 36.0001C907.25 37.6001 909.75 38.8001 912.55 38.3001C915.35 37.8001 917.3 35.8001 918.05 33.8001C918.3 33.3501 917.85 32.9001 917.45 33.2501Z" fill="#664E27"/>
  <path d="M909.6 43.3999C909.6 43.3999 910.5 43.0999 910.15 41.8999C909.8 40.6499 906.7 41.8999 905.15 41.2999C905.15 41.2999 906.4 40.8999 906 39.8499C905.6 38.8999 902.2 38.5499 898.85 41.1499C895.5 43.7499 897.65 49.7499 901.8 50.4999C904.7 50.9999 909.1 50.9499 909.65 49.6999C910.1 48.6999 908.7 48.3499 908.7 48.3499C908.7 48.3499 910.45 48.3499 910.45 46.9999C910.45 46.1999 909.8 46.1999 909.8 46.1999C909.8 46.1999 911.25 45.9999 911.25 44.6499C911.3 43.4999 909.6 43.3999 909.6 43.3999Z" fill="white"/>
  <path d="M910.2 43.45C911.3 42.7 910.35 40.9 909 41.1C907.85 41.3 905.85 41.3 905.85 41.3C905.85 41.3 906.5 41.05 906.35 40.2C906.2 39.35 905 38.1 900.2 40.05C898.4 40.8 897.25 42.3 897.05 44.15C896.85 46.15 897.75 48.5 899.2 49.55C900.8 50.75 904.55 51.45 908.15 50.75C910.55 50.3 910.3 48.75 909.3 48.5C910.95 48.2 911.1 46.8 910.3 46.4C912.15 45.8 911.65 43.5 910.2 43.45ZM908.9 46C907.95 46.1 905.4 46.3 905.4 46.3C905.4 46.3 907.15 46.65 909 46.35C910.65 46.1 910.55 47.75 908.25 48.05C907.15 48.2 905.4 48.25 905.4 48.25C905.4 48.25 907 48.5 907.85 48.4C910.05 48.1 909.8 49.75 907.75 50.05C904.1 50.55 901.15 50.05 899.7 49C897.65 47.5 896.45 42.5 900.45 40.65C902.25 39.8 905.2 39.05 905.65 40.05C906.25 41.5 903.55 41.65 903.55 41.65C903.55 41.65 905.75 41.95 908.9 41.6C909.75 41.5 910.4 42.55 909.35 43.15C908.45 43.7 905.4 43.9 905.4 43.9C905.4 43.9 907.05 43.95 909.35 43.75C911.2 43.6 911.35 45.7 908.9 46Z" fill="#CCCFD4"/>
  <path d="M914.4 43.3999C914.4 43.3999 913.5 43.0999 913.85 41.8999C914.2 40.6499 917.3 41.8999 918.85 41.2999C918.85 41.2999 917.6 40.8999 918 39.8499C918.4 38.8999 921.8 38.5499 925.15 41.1499C928.5 43.7499 926.3 49.7499 922.2 50.4499C919.3 50.9499 914.9 50.8999 914.35 49.6499C913.9 48.6499 915.3 48.2999 915.3 48.2999C915.3 48.2999 913.55 48.2999 913.55 46.9499C913.55 46.1499 914.2 46.1499 914.2 46.1499C914.2 46.1499 912.75 45.9499 912.75 44.5999C912.7 43.4999 914.4 43.3999 914.4 43.3999Z" fill="white"/>
  <path d="M913.7 46.3499C912.95 46.7499 913.1 48.1499 914.7 48.4499C913.7 48.6999 913.45 50.2499 915.85 50.6999C919.5 51.3999 923.2 50.7499 924.8 49.4999C926.2 48.4499 927.15 46.0999 926.95 44.0999C926.75 42.2499 925.6 40.7499 923.8 39.9999C918.95 38.0499 917.8 39.2499 917.65 40.1499C917.5 40.9999 918.15 41.2499 918.15 41.2499C918.15 41.2499 916.15 41.2499 915 41.0499C913.65 40.7999 912.7 42.6499 913.8 43.3999C912.35 43.4999 911.85 45.7999 913.7 46.3499ZM914.65 43.7499C916.95 43.9499 918.6 43.8999 918.6 43.8999C918.6 43.8999 915.55 43.6999 914.65 43.1499C913.6 42.5499 914.25 41.4999 915.1 41.5999C918.3 41.9999 920.45 41.6499 920.45 41.6499C920.45 41.6499 917.75 41.4499 918.35 40.0499C918.8 39.0499 921.75 39.7999 923.55 40.6499C927.55 42.5499 926.3 47.4999 924.3 48.9999C922.9 50.0499 919.9 50.5999 916.25 50.0499C914.15 49.7499 913.9 48.0999 916.15 48.3999C917 48.4999 918.6 48.2499 918.6 48.2499C918.6 48.2499 916.85 48.1999 915.75 48.0499C913.45 47.7499 913.35 46.0999 915 46.3499C916.8 46.5999 918.6 46.2999 918.6 46.2999C918.6 46.2999 916.05 46.1499 915.1 45.9999C912.65 45.6999 912.8 43.5999 914.65 43.7499Z" fill="#CCCFD4"/>
  <path d="M817 51C825.284 51 832 44.2843 832 36C832 27.7157 825.284 21 817 21C808.716 21 802 27.7157 802 36C802 44.2843 808.716 51 817 51Z" fill="#FFDD67"/>
  <path d="M811.25 34.75C812.631 34.75 813.75 33.6307 813.75 32.25C813.75 30.8693 812.631 29.75 811.25 29.75C809.869 29.75 808.75 30.8693 808.75 32.25C808.75 33.6307 809.869 34.75 811.25 34.75Z" fill="#664E27"/>
  <path d="M822.75 34.75C824.131 34.75 825.25 33.6307 825.25 32.25C825.25 30.8693 824.131 29.75 822.75 29.75C821.369 29.75 820.25 30.8693 820.25 32.25C820.25 33.6307 821.369 34.75 822.75 34.75Z" fill="#664E27"/>
  <path d="M825.5 39C825.5 38.6 825.25 38.1001 824.6 37.9501C822.85 37.6001 820.3 37.3 817 37.3C813.7 37.3 811.15 37.6501 809.4 37.9501C808.75 38.1001 808.5 38.6 808.5 39C808.5 42.65 811.3 46.3 817 46.3C822.7 46.3 825.5 42.65 825.5 39Z" fill="#664E27"/>
  <path d="M823.35 39.1499C822.25 38.9499 819.95 38.6499 817 38.6499C814.05 38.6499 811.75 38.9499 810.65 39.1499C810 39.2499 809.95 39.4999 810 39.8999C810.05 40.0999 810.05 40.3999 810.15 40.6999C810.2 40.9999 810.3 41.1499 810.8 41.0999C811.75 40.9999 822.3 40.9999 823.25 41.0999C823.75 41.1499 823.8 40.9999 823.9 40.6999C823.95 40.3999 824 40.1499 824.05 39.8999C824.05 39.4999 824 39.2499 823.35 39.1499Z" fill="white"/>
  <path d="M721 211C729.284 211 736 204.284 736 196C736 187.716 729.284 181 721 181C712.716 181 706 187.716 706 196C706 204.284 712.716 211 721 211Z" fill="#FFDD67"/>
  <path d="M717.75 194.2C718.45 195.65 717.55 197.5 715.8 198.35C714.05 199.15 712.05 198.65 711.35 197.2C710.95 196.25 717.35 193.25 717.75 194.2ZM724.25 194.2C723.55 195.65 724.45 197.5 726.2 198.35C727.95 199.15 729.95 198.65 730.65 197.2C731.05 196.25 724.65 193.25 724.25 194.2Z" fill="#664E27"/>
  <path d="M716.35 189.9C715 191.55 711.75 193.05 709.6 193.05C709.3 193.05 709.25 194.15 709.6 194.15C712.05 194.15 715.6 192.5 717.2 190.6C717.45 190.35 716.55 189.7 716.35 189.9ZM725.65 189.9C727 191.55 730.25 193.05 732.4 193.05C732.7 193.05 732.75 194.15 732.4 194.15C729.95 194.15 726.4 192.5 724.8 190.6C724.55 190.35 725.45 189.7 725.65 189.9Z" fill="#917524"/>
  <path d="M725.3 203.2C722.6 201.95 719.4 201.95 716.7 203.2C716.05 203.5 716.85 205.3 717.55 204.95C719.35 204.1 722 203.8 724.5 204.95C725.15 205.25 726 203.55 725.3 203.2Z" fill="#664E27"/>
  <path d="M369 264H401" stroke="#478FD7" stroke-width="6" stroke-linecap="round"/>
  <path d="M445.8 263.06C445.8 264.247 445.613 265.28 445.24 266.16C444.867 267.04 444.34 267.773 443.66 268.36C442.993 268.947 442.193 269.387 441.26 269.68C440.327 269.973 439.3 270.12 438.18 270.12C437.62 270.12 437.033 270.087 436.42 270.02C435.807 269.967 435.267 269.88 434.8 269.76V256.4C435.267 256.267 435.807 256.173 436.42 256.12C437.033 256.053 437.62 256.02 438.18 256.02C439.3 256.02 440.327 256.167 441.26 256.46C442.193 256.753 442.993 257.193 443.66 257.78C444.34 258.367 444.867 259.1 445.24 259.98C445.613 260.86 445.8 261.887 445.8 263.06ZM436.16 268.8C436.24 268.813 436.44 268.84 436.76 268.88C437.093 268.92 437.62 268.94 438.34 268.94C439.34 268.94 440.213 268.807 440.96 268.54C441.707 268.26 442.333 267.867 442.84 267.36C443.347 266.853 443.727 266.24 443.98 265.52C444.233 264.787 444.36 263.967 444.36 263.06C444.36 262.153 444.233 261.34 443.98 260.62C443.727 259.9 443.347 259.287 442.84 258.78C442.333 258.273 441.707 257.887 440.96 257.62C440.213 257.34 439.34 257.2 438.34 257.2C437.62 257.2 437.093 257.22 436.76 257.26C436.44 257.3 436.24 257.327 436.16 257.34V268.8ZM457.583 264.84C457.583 265.653 457.463 266.393 457.223 267.06C456.996 267.727 456.67 268.293 456.243 268.76C455.83 269.227 455.336 269.593 454.763 269.86C454.19 270.113 453.556 270.24 452.863 270.24C452.17 270.24 451.536 270.113 450.963 269.86C450.39 269.593 449.89 269.227 449.463 268.76C449.05 268.293 448.723 267.727 448.483 267.06C448.256 266.393 448.143 265.653 448.143 264.84C448.143 264.027 448.256 263.287 448.483 262.62C448.723 261.953 449.05 261.387 449.463 260.92C449.89 260.44 450.39 260.073 450.963 259.82C451.536 259.553 452.17 259.42 452.863 259.42C453.556 259.42 454.19 259.553 454.763 259.82C455.336 260.073 455.83 260.44 456.243 260.92C456.67 261.387 456.996 261.953 457.223 262.62C457.463 263.287 457.583 264.027 457.583 264.84ZM456.203 264.84C456.203 263.547 455.903 262.52 455.303 261.76C454.703 260.987 453.89 260.6 452.863 260.6C451.836 260.6 451.023 260.987 450.423 261.76C449.823 262.52 449.523 263.547 449.523 264.84C449.523 266.133 449.823 267.16 450.423 267.92C451.023 268.68 451.836 269.06 452.863 269.06C453.89 269.06 454.703 268.68 455.303 267.92C455.903 267.16 456.203 266.133 456.203 264.84ZM460.404 260.02C460.79 259.913 461.31 259.793 461.964 259.66C462.617 259.527 463.417 259.46 464.364 259.46C465.15 259.46 465.804 259.573 466.324 259.8C466.857 260.027 467.277 260.353 467.584 260.78C467.904 261.193 468.13 261.693 468.264 262.28C468.397 262.867 468.464 263.513 468.464 264.22V270H467.164V264.64C467.164 263.907 467.11 263.287 467.004 262.78C466.91 262.273 466.744 261.86 466.504 261.54C466.277 261.22 465.97 260.993 465.584 260.86C465.21 260.713 464.737 260.64 464.164 260.64C463.55 260.64 463.017 260.673 462.564 260.74C462.124 260.807 461.837 260.867 461.704 260.92V270H460.404V260.02ZM480.61 264.84C480.61 265.653 480.49 266.393 480.25 267.06C480.024 267.727 479.697 268.293 479.27 268.76C478.857 269.227 478.364 269.593 477.79 269.86C477.217 270.113 476.584 270.24 475.89 270.24C475.197 270.24 474.564 270.113 473.99 269.86C473.417 269.593 472.917 269.227 472.49 268.76C472.077 268.293 471.75 267.727 471.51 267.06C471.284 266.393 471.17 265.653 471.17 264.84C471.17 264.027 471.284 263.287 471.51 262.62C471.75 261.953 472.077 261.387 472.49 260.92C472.917 260.44 473.417 260.073 473.99 259.82C474.564 259.553 475.197 259.42 475.89 259.42C476.584 259.42 477.217 259.553 477.79 259.82C478.364 260.073 478.857 260.44 479.27 260.92C479.697 261.387 480.024 261.953 480.25 262.62C480.49 263.287 480.61 264.027 480.61 264.84ZM479.23 264.84C479.23 263.547 478.93 262.52 478.33 261.76C477.73 260.987 476.917 260.6 475.89 260.6C474.864 260.6 474.05 260.987 473.45 261.76C472.85 262.52 472.55 263.547 472.55 264.84C472.55 266.133 472.85 267.16 473.45 267.92C474.05 268.68 474.864 269.06 475.89 269.06C476.917 269.06 477.73 268.68 478.33 267.92C478.93 267.16 479.23 266.133 479.23 264.84ZM486.951 259.46C487.378 259.46 487.778 259.493 488.151 259.56C488.538 259.627 488.804 259.693 488.951 259.76L488.691 260.88C488.584 260.827 488.364 260.773 488.031 260.72C487.711 260.653 487.284 260.62 486.751 260.62C486.191 260.62 485.738 260.66 485.391 260.74C485.058 260.82 484.838 260.887 484.731 260.94V270H483.431V260.14C483.764 259.993 484.224 259.847 484.811 259.7C485.398 259.54 486.111 259.46 486.951 259.46Z" fill="#2C2C2C"/>
  <path d="M554 264H586" stroke="#47D778" stroke-width="6" stroke-linecap="round"/>
  <path d="M619.72 256.14C620.12 257.327 620.507 258.453 620.88 259.52C621.253 260.573 621.62 261.6 621.98 262.6C622.34 263.587 622.707 264.56 623.08 265.52C623.453 266.467 623.853 267.427 624.28 268.4C624.693 267.44 625.087 266.487 625.46 265.54C625.847 264.58 626.22 263.607 626.58 262.62C626.953 261.62 627.32 260.587 627.68 259.52C628.053 258.453 628.44 257.327 628.84 256.14H630.28C629.667 257.887 629.113 259.42 628.62 260.74C628.14 262.06 627.687 263.253 627.26 264.32C626.847 265.387 626.447 266.373 626.06 267.28C625.687 268.173 625.293 269.08 624.88 270H623.62C623.207 269.08 622.807 268.173 622.42 267.28C622.033 266.373 621.627 265.387 621.2 264.32C620.787 263.253 620.333 262.06 619.84 260.74C619.36 259.42 618.813 257.887 618.2 256.14H619.72ZM640.337 264.84C640.337 265.653 640.217 266.393 639.977 267.06C639.75 267.727 639.424 268.293 638.997 268.76C638.584 269.227 638.09 269.593 637.517 269.86C636.944 270.113 636.31 270.24 635.617 270.24C634.924 270.24 634.29 270.113 633.717 269.86C633.144 269.593 632.644 269.227 632.217 268.76C631.804 268.293 631.477 267.727 631.237 267.06C631.01 266.393 630.897 265.653 630.897 264.84C630.897 264.027 631.01 263.287 631.237 262.62C631.477 261.953 631.804 261.387 632.217 260.92C632.644 260.44 633.144 260.073 633.717 259.82C634.29 259.553 634.924 259.42 635.617 259.42C636.31 259.42 636.944 259.553 637.517 259.82C638.09 260.073 638.584 260.44 638.997 260.92C639.424 261.387 639.75 261.953 639.977 262.62C640.217 263.287 640.337 264.027 640.337 264.84ZM638.957 264.84C638.957 263.547 638.657 262.52 638.057 261.76C637.457 260.987 636.644 260.6 635.617 260.6C634.59 260.6 633.777 260.987 633.177 261.76C632.577 262.52 632.277 263.547 632.277 264.84C632.277 266.133 632.577 267.16 633.177 267.92C633.777 268.68 634.59 269.06 635.617 269.06C636.644 269.06 637.457 268.68 638.057 267.92C638.657 267.16 638.957 266.133 638.957 264.84ZM645.778 270.18C645.338 270.167 644.951 270.107 644.618 270C644.298 269.907 644.024 269.76 643.798 269.56C643.584 269.347 643.418 269.08 643.298 268.76C643.191 268.427 643.138 268.013 643.138 267.52V254.72L644.438 254.48V267.48C644.438 267.8 644.464 268.06 644.518 268.26C644.584 268.447 644.678 268.6 644.798 268.72C644.918 268.827 645.071 268.907 645.258 268.96C645.458 269.013 645.691 269.06 645.958 269.1L645.778 270.18ZM656.195 269.64C655.808 269.747 655.288 269.867 654.635 270C653.982 270.133 653.182 270.2 652.235 270.2C651.462 270.2 650.815 270.087 650.295 269.86C649.775 269.633 649.355 269.313 649.035 268.9C648.715 268.487 648.482 267.987 648.335 267.4C648.202 266.813 648.135 266.167 648.135 265.46V259.66H649.435V265.04C649.435 265.773 649.488 266.393 649.595 266.9C649.702 267.407 649.875 267.82 650.115 268.14C650.355 268.447 650.662 268.673 651.035 268.82C651.422 268.953 651.888 269.02 652.435 269.02C653.048 269.02 653.582 268.987 654.035 268.92C654.488 268.853 654.775 268.793 654.895 268.74V259.66H656.195V269.64ZM659.642 260.02C660.029 259.913 660.549 259.793 661.202 259.66C661.855 259.527 662.655 259.46 663.602 259.46C664.389 259.46 665.042 259.573 665.562 259.8C666.095 260.027 666.515 260.353 666.822 260.78C667.142 261.193 667.369 261.693 667.502 262.28C667.635 262.867 667.702 263.513 667.702 264.22V270H666.402V264.64C666.402 263.907 666.349 263.287 666.242 262.78C666.149 262.273 665.982 261.86 665.742 261.54C665.515 261.22 665.209 260.993 664.822 260.86C664.449 260.713 663.975 260.64 663.402 260.64C662.789 260.64 662.255 260.673 661.802 260.74C661.362 260.807 661.075 260.867 660.942 260.92V270H659.642V260.02ZM672.249 259.66H676.369V260.76H672.249V266.26C672.249 266.847 672.295 267.327 672.389 267.7C672.495 268.06 672.642 268.34 672.829 268.54C673.015 268.74 673.242 268.873 673.509 268.94C673.775 269.007 674.069 269.04 674.389 269.04C674.935 269.04 675.375 268.98 675.709 268.86C676.042 268.727 676.302 268.607 676.489 268.5L676.809 269.58C676.622 269.7 676.295 269.84 675.829 270C675.362 270.147 674.855 270.22 674.309 270.22C673.669 270.22 673.129 270.14 672.689 269.98C672.262 269.807 671.915 269.553 671.649 269.22C671.395 268.873 671.215 268.447 671.109 267.94C671.002 267.433 670.949 266.833 670.949 266.14V256.62L672.249 256.38V259.66ZM678.143 264.82C678.143 263.913 678.27 263.127 678.523 262.46C678.79 261.78 679.13 261.213 679.543 260.76C679.97 260.307 680.45 259.973 680.983 259.76C681.53 259.533 682.09 259.42 682.663 259.42C683.93 259.42 684.936 259.833 685.683 260.66C686.443 261.487 686.823 262.76 686.823 264.48C686.823 264.587 686.816 264.693 686.803 264.8C686.803 264.907 686.796 265.007 686.783 265.1H679.523C679.563 266.367 679.876 267.34 680.463 268.02C681.05 268.7 681.983 269.04 683.263 269.04C683.97 269.04 684.53 268.973 684.943 268.84C685.356 268.707 685.656 268.593 685.843 268.5L686.083 269.62C685.896 269.727 685.543 269.853 685.023 270C684.516 270.147 683.916 270.22 683.223 270.22C682.316 270.22 681.543 270.087 680.903 269.82C680.263 269.553 679.736 269.18 679.323 268.7C678.91 268.22 678.61 267.653 678.423 267C678.236 266.333 678.143 265.607 678.143 264.82ZM685.483 264C685.456 262.92 685.203 262.08 684.723 261.48C684.243 260.88 683.563 260.58 682.683 260.58C682.216 260.58 681.796 260.673 681.423 260.86C681.063 261.047 680.743 261.3 680.463 261.62C680.196 261.927 679.983 262.287 679.823 262.7C679.676 263.113 679.59 263.547 679.563 264H685.483ZM689.1 264.82C689.1 263.913 689.227 263.127 689.48 262.46C689.747 261.78 690.087 261.213 690.5 260.76C690.927 260.307 691.407 259.973 691.94 259.76C692.487 259.533 693.047 259.42 693.62 259.42C694.887 259.42 695.893 259.833 696.64 260.66C697.4 261.487 697.78 262.76 697.78 264.48C697.78 264.587 697.773 264.693 697.76 264.8C697.76 264.907 697.753 265.007 697.74 265.1H690.48C690.52 266.367 690.833 267.34 691.42 268.02C692.007 268.7 692.94 269.04 694.22 269.04C694.927 269.04 695.487 268.973 695.9 268.84C696.313 268.707 696.613 268.593 696.8 268.5L697.04 269.62C696.853 269.727 696.5 269.853 695.98 270C695.473 270.147 694.873 270.22 694.18 270.22C693.273 270.22 692.5 270.087 691.86 269.82C691.22 269.553 690.693 269.18 690.28 268.7C689.867 268.22 689.567 267.653 689.38 267C689.193 266.333 689.1 265.607 689.1 264.82ZM696.44 264C696.413 262.92 696.16 262.08 695.68 261.48C695.2 260.88 694.52 260.58 693.64 260.58C693.173 260.58 692.753 260.673 692.38 260.86C692.02 261.047 691.7 261.3 691.42 261.62C691.153 261.927 690.94 262.287 690.78 262.7C690.633 263.113 690.547 263.547 690.52 264H696.44ZM704.197 259.46C704.624 259.46 705.024 259.493 705.397 259.56C705.784 259.627 706.05 259.693 706.197 259.76L705.937 260.88C705.83 260.827 705.61 260.773 705.277 260.72C704.957 260.653 704.53 260.62 703.997 260.62C703.437 260.62 702.984 260.66 702.637 260.74C702.304 260.82 702.084 260.887 701.977 260.94V270H700.677V260.14C701.01 259.993 701.47 259.847 702.057 259.7C702.644 259.54 703.357 259.46 704.197 259.46Z" fill="#2C2C2C"/>
  <path d="M771 264H803" stroke="#FFB9B9" stroke-width="6" stroke-linecap="round"/>
  <path d="M843.02 268C842.887 267.667 842.693 267.227 842.44 266.68C842.2 266.133 841.927 265.54 841.62 264.9C841.313 264.247 841 263.58 840.68 262.9C840.36 262.207 840.053 261.56 839.76 260.96C839.467 260.36 839.207 259.833 838.98 259.38C838.753 258.927 838.587 258.607 838.48 258.42C838.307 260.087 838.167 261.9 838.06 263.86C837.967 265.807 837.88 267.853 837.8 270H836.46C836.58 267.48 836.713 265.067 836.86 262.76C837.02 260.453 837.213 258.247 837.44 256.14H838.64C839.04 256.807 839.467 257.58 839.92 258.46C840.373 259.327 840.82 260.233 841.26 261.18C841.713 262.113 842.147 263.04 842.56 263.96C842.987 264.867 843.36 265.687 843.68 266.42C844 265.687 844.367 264.867 844.78 263.96C845.207 263.04 845.64 262.113 846.08 261.18C846.533 260.233 846.987 259.327 847.44 258.46C847.893 257.58 848.32 256.807 848.72 256.14H849.86C850.087 258.247 850.273 260.453 850.42 262.76C850.58 265.067 850.72 267.48 850.84 270H849.46C849.38 267.853 849.287 265.807 849.18 263.86C849.087 261.9 848.953 260.087 848.78 258.42C848.673 258.607 848.507 258.927 848.28 259.38C848.053 259.833 847.793 260.36 847.5 260.96C847.207 261.56 846.9 262.207 846.58 262.9C846.26 263.58 845.947 264.247 845.64 264.9C845.333 265.54 845.053 266.133 844.8 266.68C844.56 267.227 844.373 267.667 844.24 268H843.02ZM855.325 270H854.025V259.66H855.325V270ZM855.625 256.54C855.625 256.847 855.531 257.093 855.345 257.28C855.158 257.453 854.931 257.54 854.665 257.54C854.398 257.54 854.171 257.453 853.985 257.28C853.798 257.093 853.705 256.847 853.705 256.54C853.705 256.233 853.798 255.993 853.985 255.82C854.171 255.633 854.398 255.54 854.665 255.54C854.931 255.54 855.158 255.633 855.345 255.82C855.531 255.993 855.625 256.233 855.625 256.54ZM865.511 268.8C865.431 268.867 865.311 268.947 865.151 269.04C864.991 269.12 864.791 269.207 864.551 269.3C864.324 269.393 864.057 269.473 863.751 269.54C863.457 269.593 863.124 269.62 862.751 269.62C862.151 269.62 861.571 269.527 861.011 269.34C860.451 269.153 859.957 268.86 859.531 268.46C859.117 268.06 858.784 267.547 858.531 266.92C858.277 266.28 858.151 265.507 858.151 264.6C858.151 263.867 858.264 263.187 858.491 262.56C858.717 261.933 859.037 261.393 859.451 260.94C859.877 260.473 860.391 260.113 860.991 259.86C861.604 259.593 862.291 259.46 863.051 259.46C864.011 259.46 864.777 259.527 865.351 259.66C865.937 259.78 866.417 259.9 866.791 260.02V269.46C866.791 271.007 866.391 272.107 865.591 272.76C864.791 273.427 863.584 273.76 861.971 273.76C861.304 273.76 860.697 273.707 860.151 273.6C859.617 273.507 859.157 273.393 858.771 273.26L859.031 272.08C859.351 272.227 859.784 272.353 860.331 272.46C860.891 272.567 861.451 272.62 862.011 272.62C863.237 272.62 864.124 272.38 864.671 271.9C865.231 271.433 865.511 270.627 865.511 269.48V268.8ZM865.491 260.92C865.264 260.853 864.971 260.793 864.611 260.74C864.251 260.673 863.737 260.64 863.071 260.64C862.511 260.64 862.011 260.74 861.571 260.94C861.144 261.127 860.777 261.4 860.471 261.76C860.164 262.107 859.931 262.527 859.771 263.02C859.611 263.5 859.531 264.033 859.531 264.62C859.531 265.3 859.624 265.887 859.811 266.38C859.997 266.86 860.237 267.253 860.531 267.56C860.837 267.867 861.184 268.093 861.571 268.24C861.957 268.373 862.351 268.44 862.751 268.44C863.337 268.44 863.871 268.353 864.351 268.18C864.844 268.007 865.224 267.807 865.491 267.58V260.92ZM873.756 259.46C874.182 259.46 874.582 259.493 874.956 259.56C875.342 259.627 875.609 259.693 875.756 259.76L875.496 260.88C875.389 260.827 875.169 260.773 874.836 260.72C874.516 260.653 874.089 260.62 873.556 260.62C872.996 260.62 872.542 260.66 872.196 260.74C871.862 260.82 871.642 260.887 871.536 260.94V270H870.236V260.14C870.569 259.993 871.029 259.847 871.616 259.7C872.202 259.54 872.916 259.46 873.756 259.46ZM880.976 269.06C881.483 269.06 881.923 269.047 882.296 269.02C882.683 268.98 883.009 268.933 883.276 268.88V265.24C883.129 265.173 882.896 265.107 882.576 265.04C882.256 264.96 881.816 264.92 881.256 264.92C880.936 264.92 880.603 264.947 880.256 265C879.909 265.04 879.589 265.14 879.296 265.3C879.003 265.447 878.763 265.653 878.576 265.92C878.389 266.187 878.296 266.54 878.296 266.98C878.296 267.367 878.356 267.693 878.476 267.96C878.609 268.227 878.789 268.44 879.016 268.6C879.256 268.76 879.536 268.88 879.856 268.96C880.189 269.027 880.563 269.06 880.976 269.06ZM880.856 259.42C881.536 259.42 882.109 259.52 882.576 259.72C883.056 259.907 883.443 260.173 883.736 260.52C884.029 260.853 884.243 261.253 884.376 261.72C884.509 262.187 884.576 262.693 884.576 263.24V269.76C884.443 269.8 884.249 269.847 883.996 269.9C883.743 269.94 883.449 269.987 883.116 270.04C882.783 270.093 882.409 270.133 881.996 270.16C881.596 270.2 881.183 270.22 880.756 270.22C880.209 270.22 879.703 270.16 879.236 270.04C878.783 269.92 878.383 269.733 878.036 269.48C877.703 269.213 877.436 268.88 877.236 268.48C877.049 268.067 876.956 267.567 876.956 266.98C876.956 266.42 877.063 265.94 877.276 265.54C877.489 265.14 877.789 264.813 878.176 264.56C878.563 264.293 879.023 264.1 879.556 263.98C880.089 263.86 880.669 263.8 881.296 263.8C881.483 263.8 881.676 263.813 881.876 263.84C882.089 263.853 882.289 263.88 882.476 263.92C882.676 263.947 882.843 263.98 882.976 264.02C883.123 264.047 883.223 264.073 883.276 264.1V263.46C883.276 263.1 883.249 262.753 883.196 262.42C883.143 262.073 883.023 261.767 882.836 261.5C882.663 261.22 882.409 261 882.076 260.84C881.756 260.667 881.329 260.58 880.796 260.58C880.036 260.58 879.469 260.633 879.096 260.74C878.723 260.847 878.449 260.933 878.276 261L878.096 259.86C878.323 259.753 878.669 259.653 879.136 259.56C879.616 259.467 880.189 259.42 880.856 259.42ZM887.892 260.02C888.279 259.913 888.799 259.793 889.452 259.66C890.105 259.527 890.905 259.46 891.852 259.46C892.639 259.46 893.292 259.573 893.812 259.8C894.345 260.027 894.765 260.353 895.072 260.78C895.392 261.193 895.619 261.693 895.752 262.28C895.885 262.867 895.952 263.513 895.952 264.22V270H894.652V264.64C894.652 263.907 894.599 263.287 894.492 262.78C894.399 262.273 894.232 261.86 893.992 261.54C893.765 261.22 893.459 260.993 893.072 260.86C892.699 260.713 892.225 260.64 891.652 260.64C891.039 260.64 890.505 260.673 890.052 260.74C889.612 260.807 889.325 260.867 889.192 260.92V270H887.892V260.02ZM900.499 259.66H904.619V260.76H900.499V266.26C900.499 266.847 900.545 267.327 900.639 267.7C900.745 268.06 900.892 268.34 901.079 268.54C901.265 268.74 901.492 268.873 901.759 268.94C902.025 269.007 902.319 269.04 902.639 269.04C903.185 269.04 903.625 268.98 903.959 268.86C904.292 268.727 904.552 268.607 904.739 268.5L905.059 269.58C904.872 269.7 904.545 269.84 904.079 270C903.612 270.147 903.105 270.22 902.559 270.22C901.919 270.22 901.379 270.14 900.939 269.98C900.512 269.807 900.165 269.553 899.899 269.22C899.645 268.873 899.465 268.447 899.359 267.94C899.252 267.433 899.199 266.833 899.199 266.14V256.62L900.499 256.38V259.66ZM919.664 257.84C920.304 259.987 920.944 261.933 921.584 263.68C922.237 265.413 922.87 267.007 923.484 268.46C923.95 266.887 924.41 265.033 924.864 262.9C925.33 260.767 925.777 258.513 926.204 256.14H927.544C927.304 257.567 927.057 258.907 926.804 260.16C926.564 261.4 926.31 262.587 926.044 263.72C925.777 264.84 925.497 265.92 925.204 266.96C924.91 267.987 924.59 269 924.244 270H922.784C922.464 269.24 922.144 268.48 921.824 267.72C921.517 266.96 921.21 266.18 920.904 265.38C920.597 264.567 920.29 263.72 919.984 262.84C919.677 261.96 919.364 261.027 919.044 260.04C918.724 261.027 918.404 261.96 918.084 262.84C917.777 263.72 917.47 264.567 917.164 265.38C916.857 266.18 916.544 266.96 916.224 267.72C915.917 268.48 915.604 269.24 915.284 270H913.844C913.484 269 913.15 267.987 912.844 266.96C912.55 265.92 912.27 264.84 912.004 263.72C911.75 262.587 911.504 261.4 911.264 260.16C911.037 258.907 910.804 257.567 910.564 256.14H911.964C912.164 257.313 912.37 258.467 912.584 259.6C912.797 260.72 913.017 261.807 913.244 262.86C913.484 263.913 913.724 264.913 913.964 265.86C914.217 266.793 914.464 267.66 914.704 268.46C915.277 266.98 915.89 265.38 916.544 263.66C917.197 261.927 917.844 259.987 918.484 257.84H919.664ZM938.587 264.84C938.587 265.653 938.467 266.393 938.227 267.06C938 267.727 937.674 268.293 937.247 268.76C936.834 269.227 936.34 269.593 935.767 269.86C935.194 270.113 934.56 270.24 933.867 270.24C933.174 270.24 932.54 270.113 931.967 269.86C931.394 269.593 930.894 269.227 930.467 268.76C930.054 268.293 929.727 267.727 929.487 267.06C929.26 266.393 929.147 265.653 929.147 264.84C929.147 264.027 929.26 263.287 929.487 262.62C929.727 261.953 930.054 261.387 930.467 260.92C930.894 260.44 931.394 260.073 931.967 259.82C932.54 259.553 933.174 259.42 933.867 259.42C934.56 259.42 935.194 259.553 935.767 259.82C936.34 260.073 936.834 260.44 937.247 260.92C937.674 261.387 938 261.953 938.227 262.62C938.467 263.287 938.587 264.027 938.587 264.84ZM937.207 264.84C937.207 263.547 936.907 262.52 936.307 261.76C935.707 260.987 934.894 260.6 933.867 260.6C932.84 260.6 932.027 260.987 931.427 261.76C930.827 262.52 930.527 263.547 930.527 264.84C930.527 266.133 930.827 267.16 931.427 267.92C932.027 268.68 932.84 269.06 933.867 269.06C934.894 269.06 935.707 268.68 936.307 267.92C936.907 267.16 937.207 266.133 937.207 264.84ZM944.928 259.46C945.354 259.46 945.754 259.493 946.128 259.56C946.514 259.627 946.781 259.693 946.928 259.76L946.668 260.88C946.561 260.827 946.341 260.773 946.008 260.72C945.688 260.653 945.261 260.62 944.728 260.62C944.168 260.62 943.714 260.66 943.368 260.74C943.034 260.82 942.814 260.887 942.708 260.94V270H941.408V260.14C941.741 259.993 942.201 259.847 942.788 259.7C943.374 259.54 944.088 259.46 944.928 259.46ZM951.648 264.38C952.061 264.66 952.501 265.02 952.968 265.46C953.448 265.9 953.915 266.38 954.368 266.9C954.835 267.407 955.268 267.933 955.668 268.48C956.081 269.013 956.428 269.52 956.708 270H955.168C954.848 269.467 954.481 268.947 954.068 268.44C953.668 267.92 953.241 267.433 952.788 266.98C952.348 266.527 951.901 266.113 951.448 265.74C951.008 265.367 950.588 265.053 950.188 264.8V270H948.888V254.72L950.188 254.48V264.32C950.521 264 950.895 263.633 951.308 263.22C951.721 262.807 952.135 262.387 952.548 261.96C952.975 261.533 953.375 261.12 953.748 260.72C954.121 260.32 954.441 259.967 954.708 259.66H956.268C955.961 259.98 955.615 260.34 955.228 260.74C954.841 261.14 954.435 261.56 954.008 262C953.595 262.427 953.181 262.847 952.768 263.26C952.355 263.673 951.981 264.047 951.648 264.38ZM957.877 264.82C957.877 263.913 958.004 263.127 958.257 262.46C958.524 261.78 958.864 261.213 959.277 260.76C959.704 260.307 960.184 259.973 960.717 259.76C961.264 259.533 961.824 259.42 962.397 259.42C963.664 259.42 964.671 259.833 965.417 260.66C966.177 261.487 966.557 262.76 966.557 264.48C966.557 264.587 966.551 264.693 966.537 264.8C966.537 264.907 966.531 265.007 966.517 265.1H959.257C959.297 266.367 959.611 267.34 960.197 268.02C960.784 268.7 961.717 269.04 962.997 269.04C963.704 269.04 964.264 268.973 964.677 268.84C965.091 268.707 965.391 268.593 965.577 268.5L965.817 269.62C965.631 269.727 965.277 269.853 964.757 270C964.251 270.147 963.651 270.22 962.957 270.22C962.051 270.22 961.277 270.087 960.637 269.82C959.997 269.553 959.471 269.18 959.057 268.7C958.644 268.22 958.344 267.653 958.157 267C957.971 266.333 957.877 265.607 957.877 264.82ZM965.217 264C965.191 262.92 964.937 262.08 964.457 261.48C963.977 260.88 963.297 260.58 962.417 260.58C961.951 260.58 961.531 260.673 961.157 260.86C960.797 261.047 960.477 261.3 960.197 261.62C959.931 261.927 959.717 262.287 959.557 262.7C959.411 263.113 959.324 263.547 959.297 264H965.217ZM972.974 259.46C973.401 259.46 973.801 259.493 974.174 259.56C974.561 259.627 974.828 259.693 974.974 259.76L974.714 260.88C974.608 260.827 974.388 260.773 974.054 260.72C973.734 260.653 973.308 260.62 972.774 260.62C972.214 260.62 971.761 260.66 971.414 260.74C971.081 260.82 970.861 260.887 970.754 260.94V270H969.454V260.14C969.788 259.993 970.248 259.847 970.834 259.7C971.421 259.54 972.134 259.46 972.974 259.46Z" fill="#2C2C2C"/>
</svg>
