<svg width="435" height="368" viewBox="0 0 435 368" fill="none" xmlns="http://www.w3.org/2000/svg">
<path d="M35.46 14.12C35.18 14.12 34.8733 14.1133 34.54 14.1C34.22 14.0867 33.8933 14.0667 33.56 14.04C33.24 14.0133 32.92 13.98 32.6 13.94C32.28 13.9 31.9867 13.8467 31.72 13.78V0.339999C31.9867 0.273333 32.28 0.219999 32.6 0.179999C32.92 0.14 33.24 0.106666 33.56 0.0799992C33.8933 0.0533329 34.22 0.0333327 34.54 0.0199988C34.86 0.00666563 35.16 -9.53674e-07 35.44 -9.53674e-07C36.24 -9.53674e-07 36.9867 0.0599991 37.68 0.179999C38.3867 0.299999 38.9933 0.506666 39.5 0.799999C40.02 1.08 40.4267 1.45333 40.72 1.92C41.0133 2.38667 41.16 2.96 41.16 3.64C41.16 4.4 40.98 5.02667 40.62 5.52C40.26 6 39.78 6.36 39.18 6.6C39.9933 6.84 40.64 7.22 41.12 7.74C41.6 8.26 41.84 8.99333 41.84 9.94C41.84 11.3267 41.3267 12.3733 40.3 13.08C39.2867 13.7733 37.6733 14.12 35.46 14.12ZM33.64 7.54V12.42C33.7867 12.4333 33.96 12.4467 34.16 12.46C34.3333 12.4733 34.5333 12.4867 34.76 12.5C35 12.5 35.2733 12.5 35.58 12.5C36.1533 12.5 36.6933 12.4667 37.2 12.4C37.72 12.32 38.1733 12.1867 38.56 12C38.9467 11.8133 39.2533 11.5533 39.48 11.22C39.72 10.8867 39.84 10.4667 39.84 9.96C39.84 9.50667 39.7533 9.12667 39.58 8.82C39.4067 8.5 39.1533 8.24667 38.82 8.06C38.5 7.87333 38.1133 7.74 37.66 7.66C37.2067 7.58 36.7 7.54 36.14 7.54H33.64ZM33.64 5.98H35.68C36.16 5.98 36.6133 5.94667 37.04 5.88C37.4667 5.81333 37.8333 5.69333 38.14 5.52C38.46 5.34667 38.7067 5.12 38.88 4.84C39.0667 4.56 39.16 4.20667 39.16 3.78C39.16 3.38 39.0667 3.04667 38.88 2.78C38.6933 2.5 38.4333 2.28 38.1 2.12C37.78 1.94667 37.4 1.82 36.96 1.74C36.52 1.66 36.0533 1.62 35.56 1.62C35.0667 1.62 34.68 1.62667 34.4 1.64C34.12 1.65333 33.8667 1.67333 33.64 1.7V5.98ZM52.7316 13.7C52.3049 13.8067 51.7382 13.92 51.0316 14.04C50.3382 14.16 49.5316 14.22 48.6116 14.22C47.8116 14.22 47.1382 14.1067 46.5916 13.88C46.0449 13.64 45.6049 13.3067 45.2716 12.88C44.9382 12.4533 44.6982 11.9533 44.5516 11.38C44.4049 10.7933 44.3316 10.1467 44.3316 9.44V3.6H46.1916V9.04C46.1916 10.3067 46.3916 11.2133 46.7916 11.76C47.1916 12.3067 47.8649 12.58 48.8116 12.58C49.0116 12.58 49.2182 12.5733 49.4316 12.56C49.6449 12.5467 49.8449 12.5333 50.0316 12.52C50.2182 12.4933 50.3849 12.4733 50.5316 12.46C50.6916 12.4333 50.8049 12.4067 50.8716 12.38V3.6H52.7316V13.7ZM57.6759 3.6H61.6159V5.16H57.6759V9.96C57.6759 10.48 57.7159 10.9133 57.7959 11.26C57.8759 11.5933 57.9959 11.86 58.1559 12.06C58.3159 12.2467 58.5159 12.38 58.7559 12.46C58.9959 12.54 59.2759 12.58 59.5959 12.58C60.1559 12.58 60.6026 12.52 60.9359 12.4C61.2826 12.2667 61.5226 12.1733 61.6559 12.12L62.0159 13.66C61.8293 13.7533 61.5026 13.8667 61.0359 14C60.5693 14.1467 60.0359 14.22 59.4359 14.22C58.7293 14.22 58.1426 14.1333 57.6759 13.96C57.2226 13.7733 56.8559 13.5 56.5759 13.14C56.2959 12.78 56.0959 12.34 55.9759 11.82C55.8693 11.2867 55.8159 10.6733 55.8159 9.98V0.7L57.6759 0.379999V3.6ZM65.7228 3.6H69.6628V5.16H65.7228V9.96C65.7228 10.48 65.7628 10.9133 65.8428 11.26C65.9228 11.5933 66.0428 11.86 66.2028 12.06C66.3628 12.2467 66.5628 12.38 66.8028 12.46C67.0428 12.54 67.3228 12.58 67.6428 12.58C68.2028 12.58 68.6495 12.52 68.9828 12.4C69.3295 12.2667 69.5695 12.1733 69.7028 12.12L70.0628 13.66C69.8761 13.7533 69.5495 13.8667 69.0828 14C68.6161 14.1467 68.0828 14.22 67.4828 14.22C66.7761 14.22 66.1895 14.1333 65.7228 13.96C65.2695 13.7733 64.9028 13.5 64.6228 13.14C64.3428 12.78 64.1428 12.34 64.0228 11.82C63.9161 11.2867 63.8628 10.6733 63.8628 9.98V0.7L65.7228 0.379999V3.6ZM80.9363 8.8C80.9363 9.62667 80.8163 10.3733 80.5763 11.04C80.3363 11.7067 79.9963 12.28 79.5563 12.76C79.1296 13.24 78.6163 13.6133 78.0163 13.88C77.4163 14.1333 76.7629 14.26 76.0563 14.26C75.3496 14.26 74.6963 14.1333 74.0963 13.88C73.4963 13.6133 72.9763 13.24 72.5363 12.76C72.1096 12.28 71.7763 11.7067 71.5363 11.04C71.2963 10.3733 71.1763 9.62667 71.1763 8.8C71.1763 7.98667 71.2963 7.24667 71.5363 6.58C71.7763 5.9 72.1096 5.32 72.5363 4.84C72.9763 4.36 73.4963 3.99333 74.0963 3.74C74.6963 3.47333 75.3496 3.34 76.0563 3.34C76.7629 3.34 77.4163 3.47333 78.0163 3.74C78.6163 3.99333 79.1296 4.36 79.5563 4.84C79.9963 5.32 80.3363 5.9 80.5763 6.58C80.8163 7.24667 80.9363 7.98667 80.9363 8.8ZM78.9963 8.8C78.9963 7.62667 78.7296 6.7 78.1963 6.02C77.6763 5.32667 76.9629 4.98 76.0563 4.98C75.1496 4.98 74.4296 5.32667 73.8963 6.02C73.3763 6.7 73.1163 7.62667 73.1163 8.8C73.1163 9.97333 73.3763 10.9067 73.8963 11.6C74.4296 12.28 75.1496 12.62 76.0563 12.62C76.9629 12.62 77.6763 12.28 78.1963 11.6C78.7296 10.9067 78.9963 9.97333 78.9963 8.8ZM83.5531 3.9C83.9798 3.79333 84.5465 3.68 85.2531 3.56C85.9598 3.44 86.7731 3.38 87.6931 3.38C88.5198 3.38 89.2065 3.5 89.7531 3.74C90.2998 3.96667 90.7331 4.29333 91.0531 4.72C91.3865 5.13333 91.6198 5.63333 91.7531 6.22C91.8865 6.80667 91.9531 7.45333 91.9531 8.16V14H90.0931V8.56C90.0931 7.92 90.0465 7.37333 89.9531 6.92C89.8731 6.46667 89.7331 6.1 89.5331 5.82C89.3331 5.54 89.0665 5.34 88.7331 5.22C88.3998 5.08667 87.9865 5.02 87.4931 5.02C87.2931 5.02 87.0865 5.02667 86.8731 5.04C86.6598 5.05333 86.4531 5.07333 86.2531 5.1C86.0665 5.11333 85.8931 5.13333 85.7331 5.16C85.5865 5.18667 85.4798 5.20667 85.4131 5.22V14H83.5531V3.9ZM97.4575 12.66C98.2175 12.66 98.7775 12.56 99.1375 12.36C99.5108 12.16 99.6975 11.84 99.6975 11.4C99.6975 10.9467 99.5175 10.5867 99.1575 10.32C98.7975 10.0533 98.2042 9.75333 97.3775 9.42C96.9775 9.26 96.5908 9.1 96.2175 8.94C95.8575 8.76667 95.5442 8.56667 95.2775 8.34C95.0108 8.11333 94.7975 7.84 94.6375 7.52C94.4775 7.2 94.3975 6.80667 94.3975 6.34C94.3975 5.42 94.7375 4.69333 95.4175 4.16C96.0975 3.61333 97.0242 3.34 98.1975 3.34C98.4908 3.34 98.7842 3.36 99.0775 3.4C99.3708 3.42667 99.6442 3.46667 99.8975 3.52C100.151 3.56 100.371 3.60667 100.558 3.66C100.758 3.71333 100.911 3.76 101.018 3.8L100.678 5.4C100.478 5.29333 100.164 5.18667 99.7375 5.08C99.3108 4.96 98.7975 4.9 98.1975 4.9C97.6775 4.9 97.2242 5.00667 96.8375 5.22C96.4508 5.42 96.2575 5.74 96.2575 6.18C96.2575 6.40667 96.2975 6.60667 96.3775 6.78C96.4708 6.95333 96.6042 7.11333 96.7775 7.26C96.9642 7.39333 97.1908 7.52 97.4575 7.64C97.7242 7.76 98.0442 7.88667 98.4175 8.02C98.9108 8.20667 99.3508 8.39333 99.7375 8.58C100.124 8.75333 100.451 8.96 100.718 9.2C100.998 9.44 101.211 9.73333 101.358 10.08C101.504 10.4133 101.578 10.8267 101.578 11.32C101.578 12.28 101.218 13.0067 100.498 13.5C99.7908 13.9933 98.7775 14.24 97.4575 14.24C96.5375 14.24 95.8175 14.16 95.2975 14C94.7775 13.8533 94.4242 13.74 94.2375 13.66L94.5775 12.06C94.7908 12.14 95.1308 12.26 95.5975 12.42C96.0642 12.58 96.6842 12.66 97.4575 12.66Z" fill="#333230"/>
<path d="M37.68 156.3C36.7067 156.3 35.82 156.14 35.02 155.82C34.22 155.5 33.5333 155.033 32.96 154.42C32.3867 153.807 31.94 153.053 31.62 152.16C31.3133 151.253 31.16 150.22 31.16 149.06C31.16 147.9 31.3333 146.873 31.68 145.98C32.04 145.073 32.52 144.313 33.12 143.7C33.72 143.087 34.42 142.62 35.22 142.3C36.02 141.98 36.8733 141.82 37.78 141.82C38.3533 141.82 38.8667 141.86 39.32 141.94C39.7867 142.02 40.1867 142.113 40.52 142.22C40.8667 142.327 41.1467 142.433 41.36 142.54C41.5733 142.647 41.72 142.727 41.8 142.78L41.24 144.38C41.12 144.3 40.9467 144.213 40.72 144.12C40.4933 144.027 40.2333 143.933 39.94 143.84C39.66 143.747 39.3467 143.673 39 143.62C38.6667 143.553 38.3267 143.52 37.98 143.52C37.2467 143.52 36.5867 143.647 36 143.9C35.4133 144.153 34.9133 144.52 34.5 145C34.0867 145.48 33.7667 146.067 33.54 146.76C33.3267 147.44 33.22 148.207 33.22 149.06C33.22 149.887 33.3133 150.64 33.5 151.32C33.7 152 33.9933 152.587 34.38 153.08C34.7667 153.56 35.2467 153.933 35.82 154.2C36.4067 154.467 37.0867 154.6 37.86 154.6C38.7533 154.6 39.4933 154.507 40.08 154.32C40.6667 154.133 41.1067 153.967 41.4 153.82L41.9 155.42C41.8067 155.487 41.64 155.573 41.4 155.68C41.16 155.773 40.86 155.867 40.5 155.96C40.14 156.053 39.72 156.133 39.24 156.2C38.76 156.267 38.24 156.3 37.68 156.3ZM47.5223 154.66C47.9623 154.66 48.349 154.653 48.6823 154.64C49.029 154.613 49.3157 154.573 49.5423 154.52V151.42C49.409 151.353 49.189 151.3 48.8823 151.26C48.589 151.207 48.229 151.18 47.8023 151.18C47.5223 151.18 47.2223 151.2 46.9023 151.24C46.5957 151.28 46.309 151.367 46.0423 151.5C45.789 151.62 45.5757 151.793 45.4023 152.02C45.229 152.233 45.1423 152.52 45.1423 152.88C45.1423 153.547 45.3557 154.013 45.7823 154.28C46.209 154.533 46.789 154.66 47.5223 154.66ZM47.3623 145.34C48.109 145.34 48.7357 145.44 49.2423 145.64C49.7623 145.827 50.1757 146.1 50.4823 146.46C50.8023 146.807 51.029 147.227 51.1623 147.72C51.2957 148.2 51.3623 148.733 51.3623 149.32V155.82C51.2023 155.847 50.9757 155.887 50.6823 155.94C50.4023 155.98 50.0823 156.02 49.7223 156.06C49.3623 156.1 48.969 156.133 48.5423 156.16C48.129 156.2 47.7157 156.22 47.3023 156.22C46.7157 156.22 46.1757 156.16 45.6823 156.04C45.189 155.92 44.7623 155.733 44.4023 155.48C44.0423 155.213 43.7623 154.867 43.5623 154.44C43.3623 154.013 43.2623 153.5 43.2623 152.9C43.2623 152.327 43.3757 151.833 43.6023 151.42C43.8423 151.007 44.1623 150.673 44.5623 150.42C44.9623 150.167 45.429 149.98 45.9623 149.86C46.4957 149.74 47.0557 149.68 47.6423 149.68C47.829 149.68 48.0223 149.693 48.2223 149.72C48.4223 149.733 48.609 149.76 48.7823 149.8C48.969 149.827 49.129 149.853 49.2623 149.88C49.3957 149.907 49.489 149.927 49.5423 149.94V149.42C49.5423 149.113 49.509 148.813 49.4423 148.52C49.3757 148.213 49.2557 147.947 49.0823 147.72C48.909 147.48 48.669 147.293 48.3623 147.16C48.069 147.013 47.6823 146.94 47.2023 146.94C46.589 146.94 46.049 146.987 45.5823 147.08C45.129 147.16 44.789 147.247 44.5623 147.34L44.3423 145.8C44.5823 145.693 44.9823 145.593 45.5423 145.5C46.1023 145.393 46.709 145.34 47.3623 145.34ZM58.2916 145.38C58.4516 145.38 58.6316 145.393 58.8316 145.42C59.0449 145.433 59.2516 145.46 59.4516 145.5C59.6516 145.527 59.8316 145.56 59.9916 145.6C60.1649 145.627 60.2916 145.653 60.3716 145.68L60.0516 147.3C59.9049 147.247 59.6582 147.187 59.3116 147.12C58.9782 147.04 58.5449 147 58.0116 147C57.6649 147 57.3182 147.04 56.9716 147.12C56.6382 147.187 56.4182 147.233 56.3116 147.26V156H54.4516V146.04C54.8916 145.88 55.4382 145.733 56.0916 145.6C56.7449 145.453 57.4782 145.38 58.2916 145.38ZM68.8864 147.8C68.6597 147.613 68.3331 147.433 67.9064 147.26C67.4797 147.087 67.0131 147 66.5064 147C65.9731 147 65.5131 147.1 65.1264 147.3C64.7531 147.487 64.4464 147.753 64.2064 148.1C63.9664 148.433 63.7931 148.833 63.6864 149.3C63.5797 149.767 63.5264 150.267 63.5264 150.8C63.5264 152.013 63.8264 152.953 64.4264 153.62C65.0264 154.273 65.8264 154.6 66.8264 154.6C67.3331 154.6 67.7531 154.58 68.0864 154.54C68.4331 154.487 68.6997 154.433 68.8864 154.38V147.8ZM68.8864 140.8L70.7464 140.48V155.7C70.3197 155.82 69.7731 155.94 69.1064 156.06C68.4397 156.18 67.6731 156.24 66.8064 156.24C66.0064 156.24 65.2864 156.113 64.6464 155.86C64.0064 155.607 63.4597 155.247 63.0064 154.78C62.5531 154.313 62.1997 153.747 61.9464 153.08C61.7064 152.4 61.5864 151.64 61.5864 150.8C61.5864 150 61.6864 149.267 61.8864 148.6C62.0997 147.933 62.4064 147.36 62.8064 146.88C63.2064 146.4 63.6931 146.027 64.2664 145.76C64.8531 145.493 65.5197 145.36 66.2664 145.36C66.8664 145.36 67.3931 145.44 67.8464 145.6C68.3131 145.76 68.6597 145.913 68.8864 146.06V140.8ZM76.3638 154.66C77.1238 154.66 77.6838 154.56 78.0438 154.36C78.4171 154.16 78.6038 153.84 78.6038 153.4C78.6038 152.947 78.4238 152.587 78.0638 152.32C77.7038 152.053 77.1104 151.753 76.2838 151.42C75.8838 151.26 75.4971 151.1 75.1238 150.94C74.7638 150.767 74.4504 150.567 74.1838 150.34C73.9171 150.113 73.7038 149.84 73.5438 149.52C73.3838 149.2 73.3038 148.807 73.3038 148.34C73.3038 147.42 73.6438 146.693 74.3238 146.16C75.0038 145.613 75.9304 145.34 77.1038 145.34C77.3971 145.34 77.6904 145.36 77.9838 145.4C78.2771 145.427 78.5504 145.467 78.8038 145.52C79.0571 145.56 79.2771 145.607 79.4638 145.66C79.6638 145.713 79.8171 145.76 79.9238 145.8L79.5838 147.4C79.3838 147.293 79.0704 147.187 78.6438 147.08C78.2171 146.96 77.7038 146.9 77.1038 146.9C76.5838 146.9 76.1304 147.007 75.7438 147.22C75.3571 147.42 75.1638 147.74 75.1638 148.18C75.1638 148.407 75.2038 148.607 75.2837 148.78C75.3771 148.953 75.5104 149.113 75.6838 149.26C75.8704 149.393 76.0971 149.52 76.3638 149.64C76.6304 149.76 76.9504 149.887 77.3238 150.02C77.8171 150.207 78.2571 150.393 78.6438 150.58C79.0304 150.753 79.3571 150.96 79.6238 151.2C79.9038 151.44 80.1171 151.733 80.2638 152.08C80.4104 152.413 80.4838 152.827 80.4838 153.32C80.4838 154.28 80.1238 155.007 79.4038 155.5C78.6971 155.993 77.6838 156.24 76.3638 156.24C75.4438 156.24 74.7238 156.16 74.2038 156C73.6838 155.853 73.3304 155.74 73.1438 155.66L73.4838 154.06C73.6971 154.14 74.0371 154.26 74.5038 154.42C74.9704 154.58 75.5904 154.66 76.3638 154.66Z" fill="#333230"/>
<g filter="url(#filter0_d)">
<rect x="30" y="66" width="110" height="36" rx="10" fill="white"/>
</g>
<path d="M34.368 47.096C34.144 47.096 33.8987 47.0907 33.632 47.08C33.376 47.0693 33.1147 47.0533 32.848 47.032C32.592 47.0107 32.336 46.984 32.08 46.952C31.824 46.92 31.5893 46.8773 31.376 46.824V36.072C31.5893 36.0187 31.824 35.976 32.08 35.944C32.336 35.912 32.592 35.8853 32.848 35.864C33.1147 35.8427 33.376 35.8267 33.632 35.816C33.888 35.8053 34.128 35.8 34.352 35.8C34.992 35.8 35.5893 35.848 36.144 35.944C36.7093 36.04 37.1947 36.2053 37.6 36.44C38.016 36.664 38.3413 36.9627 38.576 37.336C38.8107 37.7093 38.928 38.168 38.928 38.712C38.928 39.32 38.784 39.8213 38.496 40.216C38.208 40.6 37.824 40.888 37.344 41.08C37.9947 41.272 38.512 41.576 38.896 41.992C39.28 42.408 39.472 42.9947 39.472 43.752C39.472 44.8613 39.0613 45.6987 38.24 46.264C37.4293 46.8187 36.1387 47.096 34.368 47.096ZM32.912 41.832V45.736C33.0293 45.7467 33.168 45.7573 33.328 45.768C33.4667 45.7787 33.6267 45.7893 33.808 45.8C34 45.8 34.2187 45.8 34.464 45.8C34.9227 45.8 35.3547 45.7733 35.76 45.72C36.176 45.656 36.5387 45.5493 36.848 45.4C37.1573 45.2507 37.4027 45.0427 37.584 44.776C37.776 44.5093 37.872 44.1733 37.872 43.768C37.872 43.4053 37.8027 43.1013 37.664 42.856C37.5253 42.6 37.3227 42.3973 37.056 42.248C36.8 42.0987 36.4907 41.992 36.128 41.928C35.7653 41.864 35.36 41.832 34.912 41.832H32.912ZM32.912 40.584H34.544C34.928 40.584 35.2907 40.5573 35.632 40.504C35.9733 40.4507 36.2667 40.3547 36.512 40.216C36.768 40.0773 36.9653 39.896 37.104 39.672C37.2533 39.448 37.328 39.1653 37.328 38.824C37.328 38.504 37.2533 38.2373 37.104 38.024C36.9547 37.8 36.7467 37.624 36.48 37.496C36.224 37.3573 35.92 37.256 35.568 37.192C35.216 37.128 34.8427 37.096 34.448 37.096C34.0533 37.096 33.744 37.1013 33.52 37.112C33.296 37.1227 33.0933 37.1387 32.912 37.16V40.584ZM48.1853 46.76C47.8439 46.8453 47.3906 46.936 46.8253 47.032C46.2706 47.128 45.6253 47.176 44.8893 47.176C44.2493 47.176 43.7106 47.0853 43.2733 46.904C42.8359 46.712 42.4839 46.4453 42.2173 46.104C41.9506 45.7627 41.7586 45.3627 41.6413 44.904C41.5239 44.4347 41.4653 43.9173 41.4653 43.352V38.68H42.9533V43.032C42.9533 44.0453 43.1133 44.7707 43.4333 45.208C43.7533 45.6453 44.2919 45.864 45.0493 45.864C45.2093 45.864 45.3746 45.8587 45.5453 45.848C45.7159 45.8373 45.8759 45.8267 46.0253 45.816C46.1746 45.7947 46.3079 45.7787 46.4253 45.768C46.5533 45.7467 46.6439 45.7253 46.6973 45.704V38.68H48.1853V46.76ZM52.1408 38.68H55.2928V39.928H52.1408V43.768C52.1408 44.184 52.1728 44.5307 52.2368 44.808C52.3008 45.0747 52.3968 45.288 52.5248 45.448C52.6528 45.5973 52.8128 45.704 53.0048 45.768C53.1968 45.832 53.4208 45.864 53.6768 45.864C54.1248 45.864 54.4821 45.816 54.7488 45.72C55.0261 45.6133 55.2181 45.5387 55.3248 45.496L55.6128 46.728C55.4634 46.8027 55.2021 46.8933 54.8288 47C54.4554 47.1173 54.0288 47.176 53.5488 47.176C52.9834 47.176 52.5141 47.1067 52.1408 46.968C51.7781 46.8187 51.4848 46.6 51.2608 46.312C51.0368 46.024 50.8768 45.672 50.7808 45.256C50.6954 44.8293 50.6528 44.3387 50.6528 43.784V36.36L52.1408 36.104V38.68ZM58.5783 38.68H61.7303V39.928H58.5783V43.768C58.5783 44.184 58.6103 44.5307 58.6743 44.808C58.7383 45.0747 58.8343 45.288 58.9623 45.448C59.0903 45.5973 59.2503 45.704 59.4423 45.768C59.6343 45.832 59.8583 45.864 60.1143 45.864C60.5623 45.864 60.9196 45.816 61.1863 45.72C61.4636 45.6133 61.6556 45.5387 61.7623 45.496L62.0503 46.728C61.9009 46.8027 61.6396 46.8933 61.2663 47C60.8929 47.1173 60.4663 47.176 59.9863 47.176C59.4209 47.176 58.9516 47.1067 58.5783 46.968C58.2156 46.8187 57.9223 46.6 57.6983 46.312C57.4743 46.024 57.3143 45.672 57.2183 45.256C57.1329 44.8293 57.0903 44.3387 57.0903 43.784V36.36L58.5783 36.104V38.68ZM70.749 42.84C70.749 43.5013 70.653 44.0987 70.461 44.632C70.269 45.1653 69.997 45.624 69.645 46.008C69.3037 46.392 68.893 46.6907 68.413 46.904C67.933 47.1067 67.4103 47.208 66.845 47.208C66.2797 47.208 65.757 47.1067 65.277 46.904C64.797 46.6907 64.381 46.392 64.029 46.008C63.6877 45.624 63.421 45.1653 63.229 44.632C63.037 44.0987 62.941 43.5013 62.941 42.84C62.941 42.1893 63.037 41.5973 63.229 41.064C63.421 40.52 63.6877 40.056 64.029 39.672C64.381 39.288 64.797 38.9947 65.277 38.792C65.757 38.5787 66.2797 38.472 66.845 38.472C67.4103 38.472 67.933 38.5787 68.413 38.792C68.893 38.9947 69.3037 39.288 69.645 39.672C69.997 40.056 70.269 40.52 70.461 41.064C70.653 41.5973 70.749 42.1893 70.749 42.84ZM69.197 42.84C69.197 41.9013 68.9837 41.16 68.557 40.616C68.141 40.0613 67.5703 39.784 66.845 39.784C66.1197 39.784 65.5437 40.0613 65.117 40.616C64.701 41.16 64.493 41.9013 64.493 42.84C64.493 43.7787 64.701 44.5253 65.117 45.08C65.5437 45.624 66.1197 45.896 66.845 45.896C67.5703 45.896 68.141 45.624 68.557 45.08C68.9837 44.5253 69.197 43.7787 69.197 42.84ZM72.8425 38.92C73.1838 38.8347 73.6372 38.744 74.2025 38.648C74.7678 38.552 75.4185 38.504 76.1545 38.504C76.8158 38.504 77.3652 38.6 77.8025 38.792C78.2398 38.9733 78.5865 39.2347 78.8425 39.576C79.1092 39.9067 79.2958 40.3067 79.4025 40.776C79.5092 41.2453 79.5625 41.7627 79.5625 42.328V47H78.0745V42.648C78.0745 42.136 78.0372 41.6987 77.9625 41.336C77.8985 40.9733 77.7865 40.68 77.6265 40.456C77.4665 40.232 77.2532 40.072 76.9865 39.976C76.7198 39.8693 76.3892 39.816 75.9945 39.816C75.8345 39.816 75.6692 39.8213 75.4985 39.832C75.3278 39.8427 75.1625 39.8587 75.0025 39.88C74.8532 39.8907 74.7145 39.9067 74.5865 39.928C74.4692 39.9493 74.3838 39.9653 74.3305 39.976V47H72.8425V38.92ZM88.4051 45.896C90.0265 45.896 90.8371 45.3413 90.8371 44.232C90.8371 43.8907 90.7625 43.6027 90.6131 43.368C90.4745 43.1227 90.2825 42.9147 90.0371 42.744C89.7918 42.5627 89.5091 42.408 89.1891 42.28C88.8798 42.152 88.5491 42.024 88.1971 41.896C87.7918 41.7573 87.4078 41.6027 87.0451 41.432C86.6825 41.2507 86.3678 41.0427 86.1011 40.808C85.8345 40.5627 85.6211 40.2747 85.4611 39.944C85.3118 39.6133 85.2371 39.2133 85.2371 38.744C85.2371 37.7733 85.5678 37.016 86.2291 36.472C86.8905 35.928 87.8025 35.656 88.9651 35.656C89.6371 35.656 90.2451 35.7307 90.7891 35.88C91.3438 36.0187 91.7491 36.1733 92.0051 36.344L91.5091 37.608C91.2851 37.4693 90.9491 37.336 90.5011 37.208C90.0638 37.0693 89.5518 37 88.9651 37C88.6665 37 88.3891 37.032 88.1331 37.096C87.8771 37.16 87.6531 37.256 87.4611 37.384C87.2691 37.512 87.1145 37.6773 86.9971 37.88C86.8905 38.072 86.8371 38.3013 86.8371 38.568C86.8371 38.8667 86.8958 39.1173 87.0131 39.32C87.1305 39.5227 87.2958 39.704 87.5091 39.864C87.7225 40.0133 87.9678 40.152 88.2451 40.28C88.5331 40.408 88.8478 40.536 89.1891 40.664C89.6691 40.856 90.1065 41.048 90.5011 41.24C90.9065 41.432 91.2531 41.6613 91.5411 41.928C91.8398 42.1947 92.0691 42.5147 92.2291 42.888C92.3891 43.2507 92.4691 43.6933 92.4691 44.216C92.4691 45.1867 92.1118 45.9333 91.3971 46.456C90.6931 46.9787 89.6958 47.24 88.4051 47.24C87.9678 47.24 87.5625 47.208 87.1891 47.144C86.8265 47.0907 86.5011 47.0267 86.2131 46.952C85.9251 46.8667 85.6745 46.7813 85.4611 46.696C85.2585 46.6 85.0985 46.52 84.9811 46.456L85.4451 45.176C85.6905 45.3147 86.0638 45.4693 86.5651 45.64C87.0665 45.8107 87.6798 45.896 88.4051 45.896ZM94.2488 47V34.84L95.7368 34.584V38.84C96.0141 38.7333 96.3074 38.6533 96.6168 38.6C96.9368 38.536 97.2514 38.504 97.5608 38.504C98.2221 38.504 98.7714 38.6 99.2088 38.792C99.6461 38.9733 99.9928 39.2347 100.249 39.576C100.515 39.9067 100.702 40.3067 100.809 40.776C100.915 41.2453 100.969 41.7627 100.969 42.328V47H99.4808V42.648C99.4808 42.136 99.4434 41.6987 99.3688 41.336C99.3048 40.9733 99.1928 40.68 99.0328 40.456C98.8728 40.232 98.6594 40.072 98.3928 39.976C98.1261 39.8693 97.7954 39.816 97.4008 39.816C97.2408 39.816 97.0754 39.8267 96.9048 39.848C96.7341 39.8693 96.5688 39.896 96.4088 39.928C96.2594 39.9493 96.1208 39.976 95.9928 40.008C95.8754 40.04 95.7901 40.0667 95.7368 40.088V47H94.2488ZM106.205 45.928C106.557 45.928 106.867 45.9227 107.133 45.912C107.411 45.8907 107.64 45.8587 107.821 45.816V43.336C107.715 43.2827 107.539 43.24 107.293 43.208C107.059 43.1653 106.771 43.144 106.429 43.144C106.205 43.144 105.965 43.16 105.709 43.192C105.464 43.224 105.235 43.2933 105.021 43.4C104.819 43.496 104.648 43.6347 104.509 43.816C104.371 43.9867 104.301 44.216 104.301 44.504C104.301 45.0373 104.472 45.4107 104.813 45.624C105.155 45.8267 105.619 45.928 106.205 45.928ZM106.077 38.472C106.675 38.472 107.176 38.552 107.581 38.712C107.997 38.8613 108.328 39.08 108.573 39.368C108.829 39.6453 109.011 39.9813 109.117 40.376C109.224 40.76 109.277 41.1867 109.277 41.656V46.856C109.149 46.8773 108.968 46.9093 108.733 46.952C108.509 46.984 108.253 47.016 107.965 47.048C107.677 47.08 107.363 47.1067 107.021 47.128C106.691 47.16 106.36 47.176 106.029 47.176C105.56 47.176 105.128 47.128 104.733 47.032C104.339 46.936 103.997 46.7867 103.709 46.584C103.421 46.3707 103.197 46.0933 103.037 45.752C102.877 45.4107 102.797 45 102.797 44.52C102.797 44.0613 102.888 43.6667 103.069 43.336C103.261 43.0053 103.517 42.7387 103.837 42.536C104.157 42.3333 104.531 42.184 104.957 42.088C105.384 41.992 105.832 41.944 106.301 41.944C106.451 41.944 106.605 41.9547 106.765 41.976C106.925 41.9867 107.075 42.008 107.213 42.04C107.363 42.0613 107.491 42.0827 107.597 42.104C107.704 42.1253 107.779 42.1413 107.821 42.152V41.736C107.821 41.4907 107.795 41.2507 107.741 41.016C107.688 40.7707 107.592 40.5573 107.453 40.376C107.315 40.184 107.123 40.0347 106.877 39.928C106.643 39.8107 106.333 39.752 105.949 39.752C105.459 39.752 105.027 39.7893 104.653 39.864C104.291 39.928 104.019 39.9973 103.837 40.072L103.661 38.84C103.853 38.7547 104.173 38.6747 104.621 38.6C105.069 38.5147 105.555 38.472 106.077 38.472ZM117.125 40.44C116.943 40.2907 116.682 40.1467 116.341 40.008C115.999 39.8693 115.626 39.8 115.221 39.8C114.794 39.8 114.426 39.88 114.117 40.04C113.818 40.1893 113.573 40.4027 113.381 40.68C113.189 40.9467 113.05 41.2667 112.965 41.64C112.879 42.0133 112.837 42.4133 112.837 42.84C112.837 43.8107 113.077 44.5627 113.557 45.096C114.037 45.6187 114.677 45.88 115.477 45.88C115.882 45.88 116.218 45.864 116.485 45.832C116.762 45.7893 116.975 45.7467 117.125 45.704V40.44ZM117.125 34.84L118.613 34.584V46.76C118.271 46.856 117.834 46.952 117.301 47.048C116.767 47.144 116.154 47.192 115.461 47.192C114.821 47.192 114.245 47.0907 113.733 46.888C113.221 46.6853 112.783 46.3973 112.421 46.024C112.058 45.6507 111.775 45.1973 111.573 44.664C111.381 44.12 111.285 43.512 111.285 42.84C111.285 42.2 111.365 41.6133 111.525 41.08C111.695 40.5467 111.941 40.088 112.261 39.704C112.581 39.32 112.97 39.0213 113.429 38.808C113.898 38.5947 114.431 38.488 115.029 38.488C115.509 38.488 115.93 38.552 116.293 38.68C116.666 38.808 116.943 38.9307 117.125 39.048V34.84ZM128.515 42.84C128.515 43.5013 128.419 44.0987 128.227 44.632C128.035 45.1653 127.763 45.624 127.411 46.008C127.069 46.392 126.659 46.6907 126.179 46.904C125.699 47.1067 125.176 47.208 124.611 47.208C124.045 47.208 123.523 47.1067 123.043 46.904C122.563 46.6907 122.147 46.392 121.795 46.008C121.453 45.624 121.187 45.1653 120.995 44.632C120.803 44.0987 120.707 43.5013 120.707 42.84C120.707 42.1893 120.803 41.5973 120.995 41.064C121.187 40.52 121.453 40.056 121.795 39.672C122.147 39.288 122.563 38.9947 123.043 38.792C123.523 38.5787 124.045 38.472 124.611 38.472C125.176 38.472 125.699 38.5787 126.179 38.792C126.659 38.9947 127.069 39.288 127.411 39.672C127.763 40.056 128.035 40.52 128.227 41.064C128.419 41.5973 128.515 42.1893 128.515 42.84ZM126.963 42.84C126.963 41.9013 126.749 41.16 126.323 40.616C125.907 40.0613 125.336 39.784 124.611 39.784C123.885 39.784 123.309 40.0613 122.883 40.616C122.467 41.16 122.259 41.9013 122.259 42.84C122.259 43.7787 122.467 44.5253 122.883 45.08C123.309 45.624 123.885 45.896 124.611 45.896C125.336 45.896 125.907 45.624 126.323 45.08C126.749 44.5253 126.963 43.7787 126.963 42.84ZM137.205 47C136.906 46.232 136.586 45.3573 136.245 44.376C135.914 43.384 135.61 42.3547 135.333 41.288C135.056 42.3547 134.752 43.384 134.421 44.376C134.09 45.3573 133.776 46.232 133.477 47H132.181C131.69 45.9013 131.21 44.648 130.741 43.24C130.272 41.832 129.829 40.312 129.413 38.68H131.013C131.12 39.1813 131.248 39.7253 131.397 40.312C131.546 40.8987 131.701 41.4853 131.861 42.072C132.032 42.6587 132.208 43.224 132.389 43.768C132.57 44.312 132.741 44.7867 132.901 45.192C133.082 44.6907 133.258 44.1627 133.429 43.608C133.61 43.0427 133.781 42.4773 133.941 41.912C134.101 41.336 134.25 40.776 134.389 40.232C134.538 39.6773 134.666 39.16 134.773 38.68H136.005C136.101 39.16 136.218 39.6773 136.357 40.232C136.496 40.776 136.645 41.336 136.805 41.912C136.965 42.4773 137.13 43.0427 137.301 43.608C137.482 44.1627 137.664 44.6907 137.845 45.192C138.005 44.7867 138.17 44.312 138.341 43.768C138.522 43.224 138.698 42.6587 138.869 42.072C139.04 41.4853 139.2 40.8987 139.349 40.312C139.498 39.7253 139.626 39.1813 139.733 38.68H141.269C140.853 40.312 140.41 41.832 139.941 43.24C139.472 44.648 138.992 45.9013 138.501 47H137.205ZM146.754 38.2C147.362 37.9653 147.954 37.6667 148.53 37.304C149.106 36.9307 149.634 36.4667 150.114 35.912H151.17V47H149.682V37.976C149.554 38.0933 149.394 38.216 149.202 38.344C149.02 38.472 148.818 38.5947 148.594 38.712C148.38 38.8293 148.151 38.9413 147.906 39.048C147.671 39.1547 147.442 39.2453 147.218 39.32L146.754 38.2Z" fill="#999999"/>
<g filter="url(#filter1_d)">
<rect x="235" y="66" width="110" height="36" rx="10" fill="white"/>
</g>
<path d="M239.368 47.096C239.144 47.096 238.899 47.0907 238.632 47.08C238.376 47.0693 238.115 47.0533 237.848 47.032C237.592 47.0107 237.336 46.984 237.08 46.952C236.824 46.92 236.589 46.8773 236.376 46.824V36.072C236.589 36.0187 236.824 35.976 237.08 35.944C237.336 35.912 237.592 35.8853 237.848 35.864C238.115 35.8427 238.376 35.8267 238.632 35.816C238.888 35.8053 239.128 35.8 239.352 35.8C239.992 35.8 240.589 35.848 241.144 35.944C241.709 36.04 242.195 36.2053 242.6 36.44C243.016 36.664 243.341 36.9627 243.576 37.336C243.811 37.7093 243.928 38.168 243.928 38.712C243.928 39.32 243.784 39.8213 243.496 40.216C243.208 40.6 242.824 40.888 242.344 41.08C242.995 41.272 243.512 41.576 243.896 41.992C244.28 42.408 244.472 42.9947 244.472 43.752C244.472 44.8613 244.061 45.6987 243.24 46.264C242.429 46.8187 241.139 47.096 239.368 47.096ZM237.912 41.832V45.736C238.029 45.7467 238.168 45.7573 238.328 45.768C238.467 45.7787 238.627 45.7893 238.808 45.8C239 45.8 239.219 45.8 239.464 45.8C239.923 45.8 240.355 45.7733 240.76 45.72C241.176 45.656 241.539 45.5493 241.848 45.4C242.157 45.2507 242.403 45.0427 242.584 44.776C242.776 44.5093 242.872 44.1733 242.872 43.768C242.872 43.4053 242.803 43.1013 242.664 42.856C242.525 42.6 242.323 42.3973 242.056 42.248C241.8 42.0987 241.491 41.992 241.128 41.928C240.765 41.864 240.36 41.832 239.912 41.832H237.912ZM237.912 40.584H239.544C239.928 40.584 240.291 40.5573 240.632 40.504C240.973 40.4507 241.267 40.3547 241.512 40.216C241.768 40.0773 241.965 39.896 242.104 39.672C242.253 39.448 242.328 39.1653 242.328 38.824C242.328 38.504 242.253 38.2373 242.104 38.024C241.955 37.8 241.747 37.624 241.48 37.496C241.224 37.3573 240.92 37.256 240.568 37.192C240.216 37.128 239.843 37.096 239.448 37.096C239.053 37.096 238.744 37.1013 238.52 37.112C238.296 37.1227 238.093 37.1387 237.912 37.16V40.584ZM253.185 46.76C252.844 46.8453 252.391 46.936 251.825 47.032C251.271 47.128 250.625 47.176 249.889 47.176C249.249 47.176 248.711 47.0853 248.273 46.904C247.836 46.712 247.484 46.4453 247.217 46.104C246.951 45.7627 246.759 45.3627 246.641 44.904C246.524 44.4347 246.465 43.9173 246.465 43.352V38.68H247.953V43.032C247.953 44.0453 248.113 44.7707 248.433 45.208C248.753 45.6453 249.292 45.864 250.049 45.864C250.209 45.864 250.375 45.8587 250.545 45.848C250.716 45.8373 250.876 45.8267 251.025 45.816C251.175 45.7947 251.308 45.7787 251.425 45.768C251.553 45.7467 251.644 45.7253 251.697 45.704V38.68H253.185V46.76ZM257.141 38.68H260.293V39.928H257.141V43.768C257.141 44.184 257.173 44.5307 257.237 44.808C257.301 45.0747 257.397 45.288 257.525 45.448C257.653 45.5973 257.813 45.704 258.005 45.768C258.197 45.832 258.421 45.864 258.677 45.864C259.125 45.864 259.482 45.816 259.749 45.72C260.026 45.6133 260.218 45.5387 260.325 45.496L260.613 46.728C260.463 46.8027 260.202 46.8933 259.829 47C259.455 47.1173 259.029 47.176 258.549 47.176C257.983 47.176 257.514 47.1067 257.141 46.968C256.778 46.8187 256.485 46.6 256.261 46.312C256.037 46.024 255.877 45.672 255.781 45.256C255.695 44.8293 255.653 44.3387 255.653 43.784V36.36L257.141 36.104V38.68ZM263.578 38.68H266.73V39.928H263.578V43.768C263.578 44.184 263.61 44.5307 263.674 44.808C263.738 45.0747 263.834 45.288 263.962 45.448C264.09 45.5973 264.25 45.704 264.442 45.768C264.634 45.832 264.858 45.864 265.114 45.864C265.562 45.864 265.92 45.816 266.186 45.72C266.464 45.6133 266.656 45.5387 266.762 45.496L267.05 46.728C266.901 46.8027 266.64 46.8933 266.266 47C265.893 47.1173 265.466 47.176 264.986 47.176C264.421 47.176 263.952 47.1067 263.578 46.968C263.216 46.8187 262.922 46.6 262.698 46.312C262.474 46.024 262.314 45.672 262.218 45.256C262.133 44.8293 262.09 44.3387 262.09 43.784V36.36L263.578 36.104V38.68ZM275.749 42.84C275.749 43.5013 275.653 44.0987 275.461 44.632C275.269 45.1653 274.997 45.624 274.645 46.008C274.304 46.392 273.893 46.6907 273.413 46.904C272.933 47.1067 272.41 47.208 271.845 47.208C271.28 47.208 270.757 47.1067 270.277 46.904C269.797 46.6907 269.381 46.392 269.029 46.008C268.688 45.624 268.421 45.1653 268.229 44.632C268.037 44.0987 267.941 43.5013 267.941 42.84C267.941 42.1893 268.037 41.5973 268.229 41.064C268.421 40.52 268.688 40.056 269.029 39.672C269.381 39.288 269.797 38.9947 270.277 38.792C270.757 38.5787 271.28 38.472 271.845 38.472C272.41 38.472 272.933 38.5787 273.413 38.792C273.893 38.9947 274.304 39.288 274.645 39.672C274.997 40.056 275.269 40.52 275.461 41.064C275.653 41.5973 275.749 42.1893 275.749 42.84ZM274.197 42.84C274.197 41.9013 273.984 41.16 273.557 40.616C273.141 40.0613 272.57 39.784 271.845 39.784C271.12 39.784 270.544 40.0613 270.117 40.616C269.701 41.16 269.493 41.9013 269.493 42.84C269.493 43.7787 269.701 44.5253 270.117 45.08C270.544 45.624 271.12 45.896 271.845 45.896C272.57 45.896 273.141 45.624 273.557 45.08C273.984 44.5253 274.197 43.7787 274.197 42.84ZM277.843 38.92C278.184 38.8347 278.637 38.744 279.203 38.648C279.768 38.552 280.419 38.504 281.155 38.504C281.816 38.504 282.365 38.6 282.803 38.792C283.24 38.9733 283.587 39.2347 283.843 39.576C284.109 39.9067 284.296 40.3067 284.403 40.776C284.509 41.2453 284.562 41.7627 284.562 42.328V47H283.075V42.648C283.075 42.136 283.037 41.6987 282.963 41.336C282.899 40.9733 282.787 40.68 282.627 40.456C282.467 40.232 282.253 40.072 281.987 39.976C281.72 39.8693 281.389 39.816 280.995 39.816C280.835 39.816 280.669 39.8213 280.499 39.832C280.328 39.8427 280.163 39.8587 280.003 39.88C279.853 39.8907 279.715 39.9067 279.587 39.928C279.469 39.9493 279.384 39.9653 279.331 39.976V47H277.843V38.92ZM293.405 45.896C295.026 45.896 295.837 45.3413 295.837 44.232C295.837 43.8907 295.762 43.6027 295.613 43.368C295.474 43.1227 295.282 42.9147 295.037 42.744C294.792 42.5627 294.509 42.408 294.189 42.28C293.88 42.152 293.549 42.024 293.197 41.896C292.792 41.7573 292.408 41.6027 292.045 41.432C291.682 41.2507 291.368 41.0427 291.101 40.808C290.834 40.5627 290.621 40.2747 290.461 39.944C290.312 39.6133 290.237 39.2133 290.237 38.744C290.237 37.7733 290.568 37.016 291.229 36.472C291.89 35.928 292.802 35.656 293.965 35.656C294.637 35.656 295.245 35.7307 295.789 35.88C296.344 36.0187 296.749 36.1733 297.005 36.344L296.509 37.608C296.285 37.4693 295.949 37.336 295.501 37.208C295.064 37.0693 294.552 37 293.965 37C293.666 37 293.389 37.032 293.133 37.096C292.877 37.16 292.653 37.256 292.461 37.384C292.269 37.512 292.114 37.6773 291.997 37.88C291.89 38.072 291.837 38.3013 291.837 38.568C291.837 38.8667 291.896 39.1173 292.013 39.32C292.13 39.5227 292.296 39.704 292.509 39.864C292.722 40.0133 292.968 40.152 293.245 40.28C293.533 40.408 293.848 40.536 294.189 40.664C294.669 40.856 295.106 41.048 295.501 41.24C295.906 41.432 296.253 41.6613 296.541 41.928C296.84 42.1947 297.069 42.5147 297.229 42.888C297.389 43.2507 297.469 43.6933 297.469 44.216C297.469 45.1867 297.112 45.9333 296.397 46.456C295.693 46.9787 294.696 47.24 293.405 47.24C292.968 47.24 292.562 47.208 292.189 47.144C291.826 47.0907 291.501 47.0267 291.213 46.952C290.925 46.8667 290.674 46.7813 290.461 46.696C290.258 46.6 290.098 46.52 289.981 46.456L290.445 45.176C290.69 45.3147 291.064 45.4693 291.565 45.64C292.066 45.8107 292.68 45.896 293.405 45.896ZM299.249 47V34.84L300.737 34.584V38.84C301.014 38.7333 301.307 38.6533 301.617 38.6C301.937 38.536 302.251 38.504 302.561 38.504C303.222 38.504 303.771 38.6 304.209 38.792C304.646 38.9733 304.993 39.2347 305.249 39.576C305.515 39.9067 305.702 40.3067 305.809 40.776C305.915 41.2453 305.969 41.7627 305.969 42.328V47H304.481V42.648C304.481 42.136 304.443 41.6987 304.369 41.336C304.305 40.9733 304.193 40.68 304.033 40.456C303.873 40.232 303.659 40.072 303.393 39.976C303.126 39.8693 302.795 39.816 302.401 39.816C302.241 39.816 302.075 39.8267 301.905 39.848C301.734 39.8693 301.569 39.896 301.409 39.928C301.259 39.9493 301.121 39.976 300.993 40.008C300.875 40.04 300.79 40.0667 300.737 40.088V47H299.249ZM311.205 45.928C311.557 45.928 311.867 45.9227 312.133 45.912C312.411 45.8907 312.64 45.8587 312.821 45.816V43.336C312.715 43.2827 312.539 43.24 312.293 43.208C312.059 43.1653 311.771 43.144 311.429 43.144C311.205 43.144 310.965 43.16 310.709 43.192C310.464 43.224 310.235 43.2933 310.021 43.4C309.819 43.496 309.648 43.6347 309.509 43.816C309.371 43.9867 309.301 44.216 309.301 44.504C309.301 45.0373 309.472 45.4107 309.813 45.624C310.155 45.8267 310.619 45.928 311.205 45.928ZM311.077 38.472C311.675 38.472 312.176 38.552 312.581 38.712C312.997 38.8613 313.328 39.08 313.573 39.368C313.829 39.6453 314.011 39.9813 314.117 40.376C314.224 40.76 314.277 41.1867 314.277 41.656V46.856C314.149 46.8773 313.968 46.9093 313.733 46.952C313.509 46.984 313.253 47.016 312.965 47.048C312.677 47.08 312.363 47.1067 312.021 47.128C311.691 47.16 311.36 47.176 311.029 47.176C310.56 47.176 310.128 47.128 309.733 47.032C309.339 46.936 308.997 46.7867 308.709 46.584C308.421 46.3707 308.197 46.0933 308.037 45.752C307.877 45.4107 307.797 45 307.797 44.52C307.797 44.0613 307.888 43.6667 308.069 43.336C308.261 43.0053 308.517 42.7387 308.837 42.536C309.157 42.3333 309.531 42.184 309.957 42.088C310.384 41.992 310.832 41.944 311.301 41.944C311.451 41.944 311.605 41.9547 311.765 41.976C311.925 41.9867 312.075 42.008 312.213 42.04C312.363 42.0613 312.491 42.0827 312.597 42.104C312.704 42.1253 312.779 42.1413 312.821 42.152V41.736C312.821 41.4907 312.795 41.2507 312.741 41.016C312.688 40.7707 312.592 40.5573 312.453 40.376C312.315 40.184 312.123 40.0347 311.877 39.928C311.643 39.8107 311.333 39.752 310.949 39.752C310.459 39.752 310.027 39.7893 309.653 39.864C309.291 39.928 309.019 39.9973 308.837 40.072L308.661 38.84C308.853 38.7547 309.173 38.6747 309.621 38.6C310.069 38.5147 310.555 38.472 311.077 38.472ZM322.125 40.44C321.943 40.2907 321.682 40.1467 321.341 40.008C320.999 39.8693 320.626 39.8 320.221 39.8C319.794 39.8 319.426 39.88 319.117 40.04C318.818 40.1893 318.573 40.4027 318.381 40.68C318.189 40.9467 318.05 41.2667 317.965 41.64C317.879 42.0133 317.837 42.4133 317.837 42.84C317.837 43.8107 318.077 44.5627 318.557 45.096C319.037 45.6187 319.677 45.88 320.477 45.88C320.882 45.88 321.218 45.864 321.485 45.832C321.762 45.7893 321.975 45.7467 322.125 45.704V40.44ZM322.125 34.84L323.613 34.584V46.76C323.271 46.856 322.834 46.952 322.301 47.048C321.767 47.144 321.154 47.192 320.461 47.192C319.821 47.192 319.245 47.0907 318.733 46.888C318.221 46.6853 317.783 46.3973 317.421 46.024C317.058 45.6507 316.775 45.1973 316.573 44.664C316.381 44.12 316.285 43.512 316.285 42.84C316.285 42.2 316.365 41.6133 316.525 41.08C316.695 40.5467 316.941 40.088 317.261 39.704C317.581 39.32 317.97 39.0213 318.429 38.808C318.898 38.5947 319.431 38.488 320.029 38.488C320.509 38.488 320.93 38.552 321.293 38.68C321.666 38.808 321.943 38.9307 322.125 39.048V34.84ZM333.515 42.84C333.515 43.5013 333.419 44.0987 333.227 44.632C333.035 45.1653 332.763 45.624 332.411 46.008C332.069 46.392 331.659 46.6907 331.179 46.904C330.699 47.1067 330.176 47.208 329.611 47.208C329.045 47.208 328.523 47.1067 328.043 46.904C327.563 46.6907 327.147 46.392 326.795 46.008C326.453 45.624 326.187 45.1653 325.995 44.632C325.803 44.0987 325.707 43.5013 325.707 42.84C325.707 42.1893 325.803 41.5973 325.995 41.064C326.187 40.52 326.453 40.056 326.795 39.672C327.147 39.288 327.563 38.9947 328.043 38.792C328.523 38.5787 329.045 38.472 329.611 38.472C330.176 38.472 330.699 38.5787 331.179 38.792C331.659 38.9947 332.069 39.288 332.411 39.672C332.763 40.056 333.035 40.52 333.227 41.064C333.419 41.5973 333.515 42.1893 333.515 42.84ZM331.963 42.84C331.963 41.9013 331.749 41.16 331.323 40.616C330.907 40.0613 330.336 39.784 329.611 39.784C328.885 39.784 328.309 40.0613 327.883 40.616C327.467 41.16 327.259 41.9013 327.259 42.84C327.259 43.7787 327.467 44.5253 327.883 45.08C328.309 45.624 328.885 45.896 329.611 45.896C330.336 45.896 330.907 45.624 331.323 45.08C331.749 44.5253 331.963 43.7787 331.963 42.84ZM342.205 47C341.906 46.232 341.586 45.3573 341.245 44.376C340.914 43.384 340.61 42.3547 340.333 41.288C340.056 42.3547 339.752 43.384 339.421 44.376C339.09 45.3573 338.776 46.232 338.477 47H337.181C336.69 45.9013 336.21 44.648 335.741 43.24C335.272 41.832 334.829 40.312 334.413 38.68H336.013C336.12 39.1813 336.248 39.7253 336.397 40.312C336.546 40.8987 336.701 41.4853 336.861 42.072C337.032 42.6587 337.208 43.224 337.389 43.768C337.57 44.312 337.741 44.7867 337.901 45.192C338.082 44.6907 338.258 44.1627 338.429 43.608C338.61 43.0427 338.781 42.4773 338.941 41.912C339.101 41.336 339.25 40.776 339.389 40.232C339.538 39.6773 339.666 39.16 339.773 38.68H341.005C341.101 39.16 341.218 39.6773 341.357 40.232C341.496 40.776 341.645 41.336 341.805 41.912C341.965 42.4773 342.13 43.0427 342.301 43.608C342.482 44.1627 342.664 44.6907 342.845 45.192C343.005 44.7867 343.17 44.312 343.341 43.768C343.522 43.224 343.698 42.6587 343.869 42.072C344.04 41.4853 344.2 40.8987 344.349 40.312C344.498 39.7253 344.626 39.1813 344.733 38.68H346.269C345.853 40.312 345.41 41.832 344.941 43.24C344.472 44.648 343.992 45.9013 343.501 47H342.205ZM357.738 38.744C357.738 39.128 357.658 39.5013 357.498 39.864C357.348 40.216 357.146 40.568 356.89 40.92C356.634 41.2613 356.346 41.6027 356.026 41.944C355.706 42.2747 355.386 42.6 355.066 42.92C354.884 43.1013 354.671 43.3147 354.426 43.56C354.191 43.8053 353.967 44.0613 353.754 44.328C353.54 44.5947 353.359 44.8507 353.21 45.096C353.071 45.3413 353.002 45.5547 353.002 45.736H358.106V47H351.386C351.375 46.936 351.37 46.872 351.37 46.808C351.37 46.744 351.37 46.6853 351.37 46.632C351.37 46.1307 351.45 45.6667 351.61 45.24C351.78 44.8027 351.999 44.392 352.266 44.008C352.532 43.624 352.831 43.2613 353.162 42.92C353.492 42.5787 353.818 42.248 354.138 41.928C354.404 41.672 354.655 41.4213 354.89 41.176C355.135 40.92 355.348 40.6693 355.53 40.424C355.722 40.168 355.871 39.9067 355.978 39.64C356.095 39.3733 356.154 39.0907 356.154 38.792C356.154 38.472 356.1 38.2 355.994 37.976C355.898 37.752 355.764 37.5653 355.594 37.416C355.423 37.2667 355.22 37.16 354.986 37.096C354.762 37.0213 354.522 36.984 354.266 36.984C353.956 36.984 353.674 37.0267 353.418 37.112C353.162 37.1973 352.932 37.2987 352.73 37.416C352.527 37.5227 352.356 37.64 352.218 37.768C352.079 37.8853 351.972 37.976 351.898 38.04L351.162 36.984C351.258 36.8773 351.402 36.7493 351.594 36.6C351.786 36.44 352.015 36.2907 352.282 36.152C352.548 36.0133 352.847 35.896 353.178 35.8C353.508 35.704 353.866 35.656 354.25 35.656C355.412 35.656 356.282 35.928 356.858 36.472C357.444 37.0053 357.738 37.7627 357.738 38.744Z" fill="#999999"/>
<g filter="url(#filter2_d)">
<rect x="30" y="208" width="160" height="100" rx="10" fill="white"/>
</g>
<g filter="url(#filter3_d)">
<rect x="235" y="208" width="160" height="100" rx="10" fill="white"/>
</g>
<path d="M36.144 189.24C35.3653 189.24 34.656 189.112 34.016 188.856C33.376 188.6 32.8267 188.227 32.368 187.736C31.9093 187.245 31.552 186.643 31.296 185.928C31.0507 185.203 30.928 184.376 30.928 183.448C30.928 182.52 31.0667 181.699 31.344 180.984C31.632 180.259 32.016 179.651 32.496 179.16C32.976 178.669 33.536 178.296 34.176 178.04C34.816 177.784 35.4987 177.656 36.224 177.656C36.6827 177.656 37.0933 177.688 37.456 177.752C37.8293 177.816 38.1493 177.891 38.416 177.976C38.6933 178.061 38.9173 178.147 39.088 178.232C39.2587 178.317 39.376 178.381 39.44 178.424L38.992 179.704C38.896 179.64 38.7573 179.571 38.576 179.496C38.3947 179.421 38.1867 179.347 37.952 179.272C37.728 179.197 37.4773 179.139 37.2 179.096C36.9333 179.043 36.6613 179.016 36.384 179.016C35.7973 179.016 35.2693 179.117 34.8 179.32C34.3307 179.523 33.9307 179.816 33.6 180.2C33.2693 180.584 33.0133 181.053 32.832 181.608C32.6613 182.152 32.576 182.765 32.576 183.448C32.576 184.109 32.6507 184.712 32.8 185.256C32.96 185.8 33.1947 186.269 33.504 186.664C33.8133 187.048 34.1973 187.347 34.656 187.56C35.1253 187.773 35.6693 187.88 36.288 187.88C37.0027 187.88 37.5947 187.805 38.064 187.656C38.5333 187.507 38.8853 187.373 39.12 187.256L39.52 188.536C39.4453 188.589 39.312 188.659 39.12 188.744C38.928 188.819 38.688 188.893 38.4 188.968C38.112 189.043 37.776 189.107 37.392 189.16C37.008 189.213 36.592 189.24 36.144 189.24ZM44.0179 187.928C44.3699 187.928 44.6792 187.923 44.9459 187.912C45.2232 187.891 45.4525 187.859 45.6339 187.816V185.336C45.5272 185.283 45.3512 185.24 45.1059 185.208C44.8712 185.165 44.5832 185.144 44.2419 185.144C44.0179 185.144 43.7779 185.16 43.5219 185.192C43.2765 185.224 43.0472 185.293 42.8339 185.4C42.6312 185.496 42.4605 185.635 42.3219 185.816C42.1832 185.987 42.1139 186.216 42.1139 186.504C42.1139 187.037 42.2845 187.411 42.6259 187.624C42.9672 187.827 43.4312 187.928 44.0179 187.928ZM43.8899 180.472C44.4872 180.472 44.9885 180.552 45.3939 180.712C45.8099 180.861 46.1405 181.08 46.3859 181.368C46.6419 181.645 46.8232 181.981 46.9299 182.376C47.0365 182.76 47.0899 183.187 47.0899 183.656V188.856C46.9619 188.877 46.7805 188.909 46.5459 188.952C46.3219 188.984 46.0659 189.016 45.7779 189.048C45.4899 189.08 45.1752 189.107 44.8339 189.128C44.5032 189.16 44.1725 189.176 43.8419 189.176C43.3725 189.176 42.9405 189.128 42.5459 189.032C42.1512 188.936 41.8099 188.787 41.5219 188.584C41.2339 188.371 41.0099 188.093 40.8499 187.752C40.6899 187.411 40.6099 187 40.6099 186.52C40.6099 186.061 40.7005 185.667 40.8819 185.336C41.0739 185.005 41.3299 184.739 41.6499 184.536C41.9699 184.333 42.3432 184.184 42.7699 184.088C43.1965 183.992 43.6445 183.944 44.1139 183.944C44.2632 183.944 44.4179 183.955 44.5779 183.976C44.7379 183.987 44.8872 184.008 45.0259 184.04C45.1752 184.061 45.3032 184.083 45.4099 184.104C45.5165 184.125 45.5912 184.141 45.6339 184.152V183.736C45.6339 183.491 45.6072 183.251 45.5539 183.016C45.5005 182.771 45.4045 182.557 45.2659 182.376C45.1272 182.184 44.9352 182.035 44.6899 181.928C44.4552 181.811 44.1459 181.752 43.7619 181.752C43.2712 181.752 42.8392 181.789 42.4659 181.864C42.1032 181.928 41.8312 181.997 41.6499 182.072L41.4739 180.84C41.6659 180.755 41.9859 180.675 42.4339 180.6C42.8819 180.515 43.3672 180.472 43.8899 180.472ZM52.6333 180.504C52.7613 180.504 52.9053 180.515 53.0653 180.536C53.2359 180.547 53.4013 180.568 53.5613 180.6C53.7213 180.621 53.8653 180.648 53.9933 180.68C54.1319 180.701 54.2333 180.723 54.2973 180.744L54.0413 182.04C53.9239 181.997 53.7266 181.949 53.4493 181.896C53.1826 181.832 52.8359 181.8 52.4093 181.8C52.1319 181.8 51.8546 181.832 51.5773 181.896C51.3106 181.949 51.1346 181.987 51.0493 182.008V189H49.5613V181.032C49.9133 180.904 50.3506 180.787 50.8733 180.68C51.3959 180.563 51.9826 180.504 52.6333 180.504ZM61.1091 182.44C60.9278 182.291 60.6665 182.147 60.3251 182.008C59.9838 181.869 59.6105 181.8 59.2051 181.8C58.7785 181.8 58.4105 181.88 58.1011 182.04C57.8025 182.189 57.5571 182.403 57.3651 182.68C57.1731 182.947 57.0345 183.267 56.9491 183.64C56.8638 184.013 56.8211 184.413 56.8211 184.84C56.8211 185.811 57.0611 186.563 57.5411 187.096C58.0211 187.619 58.6611 187.88 59.4611 187.88C59.8665 187.88 60.2025 187.864 60.4691 187.832C60.7465 187.789 60.9598 187.747 61.1091 187.704V182.44ZM61.1091 176.84L62.5971 176.584V188.76C62.2558 188.856 61.8185 188.952 61.2851 189.048C60.7518 189.144 60.1385 189.192 59.4451 189.192C58.8051 189.192 58.2291 189.091 57.7171 188.888C57.2051 188.685 56.7678 188.397 56.4051 188.024C56.0425 187.651 55.7598 187.197 55.5571 186.664C55.3651 186.12 55.2691 185.512 55.2691 184.84C55.2691 184.2 55.3491 183.613 55.5091 183.08C55.6798 182.547 55.9251 182.088 56.2451 181.704C56.5651 181.32 56.9545 181.021 57.4131 180.808C57.8825 180.595 58.4158 180.488 59.0131 180.488C59.4931 180.488 59.9145 180.552 60.2771 180.68C60.6505 180.808 60.9278 180.931 61.1091 181.048V176.84ZM71.5301 187.896C73.1515 187.896 73.9621 187.341 73.9621 186.232C73.9621 185.891 73.8875 185.603 73.7381 185.368C73.5995 185.123 73.4075 184.915 73.1621 184.744C72.9168 184.563 72.6341 184.408 72.3141 184.28C72.0048 184.152 71.6741 184.024 71.3221 183.896C70.9168 183.757 70.5328 183.603 70.1701 183.432C69.8075 183.251 69.4928 183.043 69.2261 182.808C68.9595 182.563 68.7461 182.275 68.5861 181.944C68.4368 181.613 68.3621 181.213 68.3621 180.744C68.3621 179.773 68.6928 179.016 69.3541 178.472C70.0155 177.928 70.9275 177.656 72.0901 177.656C72.7621 177.656 73.3701 177.731 73.9141 177.88C74.4688 178.019 74.8741 178.173 75.1301 178.344L74.6341 179.608C74.4101 179.469 74.0741 179.336 73.6261 179.208C73.1888 179.069 72.6768 179 72.0901 179C71.7915 179 71.5141 179.032 71.2581 179.096C71.0021 179.16 70.7781 179.256 70.5861 179.384C70.3941 179.512 70.2395 179.677 70.1221 179.88C70.0155 180.072 69.9621 180.301 69.9621 180.568C69.9621 180.867 70.0208 181.117 70.1381 181.32C70.2555 181.523 70.4208 181.704 70.6341 181.864C70.8475 182.013 71.0928 182.152 71.3701 182.28C71.6581 182.408 71.9728 182.536 72.3141 182.664C72.7941 182.856 73.2315 183.048 73.6261 183.24C74.0315 183.432 74.3781 183.661 74.6661 183.928C74.9648 184.195 75.1941 184.515 75.3541 184.888C75.5141 185.251 75.5941 185.693 75.5941 186.216C75.5941 187.187 75.2368 187.933 74.5221 188.456C73.8181 188.979 72.8208 189.24 71.5301 189.24C71.0928 189.24 70.6875 189.208 70.3141 189.144C69.9515 189.091 69.6261 189.027 69.3381 188.952C69.0501 188.867 68.7995 188.781 68.5861 188.696C68.3835 188.6 68.2235 188.52 68.1061 188.456L68.5701 187.176C68.8155 187.315 69.1888 187.469 69.6901 187.64C70.1915 187.811 70.8048 187.896 71.5301 187.896ZM77.3738 189V176.84L78.8618 176.584V180.84C79.1391 180.733 79.4324 180.653 79.7418 180.6C80.0618 180.536 80.3764 180.504 80.6858 180.504C81.3471 180.504 81.8964 180.6 82.3338 180.792C82.7711 180.973 83.1178 181.235 83.3738 181.576C83.6404 181.907 83.8271 182.307 83.9338 182.776C84.0404 183.245 84.0938 183.763 84.0938 184.328V189H82.6058V184.648C82.6058 184.136 82.5684 183.699 82.4938 183.336C82.4298 182.973 82.3178 182.68 82.1578 182.456C81.9978 182.232 81.7844 182.072 81.5178 181.976C81.2511 181.869 80.9204 181.816 80.5258 181.816C80.3658 181.816 80.2004 181.827 80.0298 181.848C79.8591 181.869 79.6938 181.896 79.5338 181.928C79.3844 181.949 79.2458 181.976 79.1178 182.008C79.0004 182.04 78.9151 182.067 78.8618 182.088V189H77.3738ZM89.3304 187.928C89.6824 187.928 89.9917 187.923 90.2584 187.912C90.5357 187.891 90.765 187.859 90.9464 187.816V185.336C90.8397 185.283 90.6637 185.24 90.4184 185.208C90.1837 185.165 89.8957 185.144 89.5544 185.144C89.3304 185.144 89.0904 185.16 88.8344 185.192C88.589 185.224 88.3597 185.293 88.1464 185.4C87.9437 185.496 87.773 185.635 87.6344 185.816C87.4957 185.987 87.4264 186.216 87.4264 186.504C87.4264 187.037 87.597 187.411 87.9384 187.624C88.2797 187.827 88.7437 187.928 89.3304 187.928ZM89.2024 180.472C89.7997 180.472 90.301 180.552 90.7064 180.712C91.1224 180.861 91.453 181.08 91.6984 181.368C91.9544 181.645 92.1357 181.981 92.2424 182.376C92.349 182.76 92.4024 183.187 92.4024 183.656V188.856C92.2744 188.877 92.093 188.909 91.8584 188.952C91.6344 188.984 91.3784 189.016 91.0904 189.048C90.8024 189.08 90.4877 189.107 90.1464 189.128C89.8157 189.16 89.485 189.176 89.1544 189.176C88.685 189.176 88.253 189.128 87.8584 189.032C87.4637 188.936 87.1224 188.787 86.8344 188.584C86.5464 188.371 86.3224 188.093 86.1624 187.752C86.0024 187.411 85.9224 187 85.9224 186.52C85.9224 186.061 86.013 185.667 86.1944 185.336C86.3864 185.005 86.6424 184.739 86.9624 184.536C87.2824 184.333 87.6557 184.184 88.0824 184.088C88.509 183.992 88.957 183.944 89.4264 183.944C89.5757 183.944 89.7304 183.955 89.8904 183.976C90.0504 183.987 90.1997 184.008 90.3384 184.04C90.4877 184.061 90.6157 184.083 90.7224 184.104C90.829 184.125 90.9037 184.141 90.9464 184.152V183.736C90.9464 183.491 90.9197 183.251 90.8664 183.016C90.813 182.771 90.717 182.557 90.5784 182.376C90.4397 182.184 90.2477 182.035 90.0024 181.928C89.7677 181.811 89.4584 181.752 89.0744 181.752C88.5837 181.752 88.1517 181.789 87.7784 181.864C87.4157 181.928 87.1437 181.997 86.9624 182.072L86.7864 180.84C86.9784 180.755 87.2984 180.675 87.7464 180.6C88.1944 180.515 88.6797 180.472 89.2024 180.472ZM100.25 182.44C100.068 182.291 99.8071 182.147 99.4658 182.008C99.1244 181.869 98.7511 181.8 98.3458 181.8C97.9191 181.8 97.5511 181.88 97.2418 182.04C96.9431 182.189 96.6978 182.403 96.5058 182.68C96.3138 182.947 96.1751 183.267 96.0898 183.64C96.0044 184.013 95.9618 184.413 95.9618 184.84C95.9618 185.811 96.2018 186.563 96.6818 187.096C97.1618 187.619 97.8018 187.88 98.6018 187.88C99.0071 187.88 99.3431 187.864 99.6098 187.832C99.8871 187.789 100.1 187.747 100.25 187.704V182.44ZM100.25 176.84L101.738 176.584V188.76C101.396 188.856 100.959 188.952 100.426 189.048C99.8924 189.144 99.2791 189.192 98.5858 189.192C97.9458 189.192 97.3698 189.091 96.8578 188.888C96.3458 188.685 95.9084 188.397 95.5458 188.024C95.1831 187.651 94.9004 187.197 94.6978 186.664C94.5058 186.12 94.4098 185.512 94.4098 184.84C94.4098 184.2 94.4898 183.613 94.6497 183.08C94.8204 182.547 95.0658 182.088 95.3858 181.704C95.7058 181.32 96.0951 181.021 96.5538 180.808C97.0231 180.595 97.5564 180.488 98.1538 180.488C98.6338 180.488 99.0551 180.552 99.4178 180.68C99.7911 180.808 100.068 180.931 100.25 181.048V176.84ZM111.64 184.84C111.64 185.501 111.544 186.099 111.352 186.632C111.16 187.165 110.888 187.624 110.536 188.008C110.194 188.392 109.784 188.691 109.304 188.904C108.824 189.107 108.301 189.208 107.736 189.208C107.17 189.208 106.648 189.107 106.168 188.904C105.688 188.691 105.272 188.392 104.92 188.008C104.578 187.624 104.312 187.165 104.12 186.632C103.928 186.099 103.832 185.501 103.832 184.84C103.832 184.189 103.928 183.597 104.12 183.064C104.312 182.52 104.578 182.056 104.92 181.672C105.272 181.288 105.688 180.995 106.168 180.792C106.648 180.579 107.17 180.472 107.736 180.472C108.301 180.472 108.824 180.579 109.304 180.792C109.784 180.995 110.194 181.288 110.536 181.672C110.888 182.056 111.16 182.52 111.352 183.064C111.544 183.597 111.64 184.189 111.64 184.84ZM110.088 184.84C110.088 183.901 109.874 183.16 109.448 182.616C109.032 182.061 108.461 181.784 107.736 181.784C107.01 181.784 106.434 182.061 106.008 182.616C105.592 183.16 105.384 183.901 105.384 184.84C105.384 185.779 105.592 186.525 106.008 187.08C106.434 187.624 107.01 187.896 107.736 187.896C108.461 187.896 109.032 187.624 109.448 187.08C109.874 186.525 110.088 185.779 110.088 184.84ZM120.33 189C120.031 188.232 119.711 187.357 119.37 186.376C119.039 185.384 118.735 184.355 118.458 183.288C118.181 184.355 117.877 185.384 117.546 186.376C117.215 187.357 116.901 188.232 116.602 189H115.306C114.815 187.901 114.335 186.648 113.866 185.24C113.397 183.832 112.954 182.312 112.538 180.68H114.138C114.245 181.181 114.373 181.725 114.522 182.312C114.671 182.899 114.826 183.485 114.986 184.072C115.157 184.659 115.333 185.224 115.514 185.768C115.695 186.312 115.866 186.787 116.026 187.192C116.207 186.691 116.383 186.163 116.554 185.608C116.735 185.043 116.906 184.477 117.066 183.912C117.226 183.336 117.375 182.776 117.514 182.232C117.663 181.677 117.791 181.16 117.898 180.68H119.13C119.226 181.16 119.343 181.677 119.482 182.232C119.621 182.776 119.77 183.336 119.93 183.912C120.09 184.477 120.255 185.043 120.426 185.608C120.607 186.163 120.789 186.691 120.97 187.192C121.13 186.787 121.295 186.312 121.466 185.768C121.647 185.224 121.823 184.659 121.994 184.072C122.165 183.485 122.325 182.899 122.474 182.312C122.623 181.725 122.751 181.181 122.858 180.68H124.394C123.978 182.312 123.535 183.832 123.066 185.24C122.597 186.648 122.117 187.901 121.626 189H120.33ZM129.879 180.2C130.487 179.965 131.079 179.667 131.655 179.304C132.231 178.931 132.759 178.467 133.239 177.912H134.295V189H132.807V179.976C132.679 180.093 132.519 180.216 132.327 180.344C132.145 180.472 131.943 180.595 131.719 180.712C131.505 180.829 131.276 180.941 131.031 181.048C130.796 181.155 130.567 181.245 130.343 181.32L129.879 180.2Z" fill="#999999"/>
<path d="M241.144 189.24C240.365 189.24 239.656 189.112 239.016 188.856C238.376 188.6 237.827 188.227 237.368 187.736C236.909 187.245 236.552 186.643 236.296 185.928C236.051 185.203 235.928 184.376 235.928 183.448C235.928 182.52 236.067 181.699 236.344 180.984C236.632 180.259 237.016 179.651 237.496 179.16C237.976 178.669 238.536 178.296 239.176 178.04C239.816 177.784 240.499 177.656 241.224 177.656C241.683 177.656 242.093 177.688 242.456 177.752C242.829 177.816 243.149 177.891 243.416 177.976C243.693 178.061 243.917 178.147 244.088 178.232C244.259 178.317 244.376 178.381 244.44 178.424L243.992 179.704C243.896 179.64 243.757 179.571 243.576 179.496C243.395 179.421 243.187 179.347 242.952 179.272C242.728 179.197 242.477 179.139 242.2 179.096C241.933 179.043 241.661 179.016 241.384 179.016C240.797 179.016 240.269 179.117 239.8 179.32C239.331 179.523 238.931 179.816 238.6 180.2C238.269 180.584 238.013 181.053 237.832 181.608C237.661 182.152 237.576 182.765 237.576 183.448C237.576 184.109 237.651 184.712 237.8 185.256C237.96 185.8 238.195 186.269 238.504 186.664C238.813 187.048 239.197 187.347 239.656 187.56C240.125 187.773 240.669 187.88 241.288 187.88C242.003 187.88 242.595 187.805 243.064 187.656C243.533 187.507 243.885 187.373 244.12 187.256L244.52 188.536C244.445 188.589 244.312 188.659 244.12 188.744C243.928 188.819 243.688 188.893 243.4 188.968C243.112 189.043 242.776 189.107 242.392 189.16C242.008 189.213 241.592 189.24 241.144 189.24ZM249.018 187.928C249.37 187.928 249.679 187.923 249.946 187.912C250.223 187.891 250.453 187.859 250.634 187.816V185.336C250.527 185.283 250.351 185.24 250.106 185.208C249.871 185.165 249.583 185.144 249.242 185.144C249.018 185.144 248.778 185.16 248.522 185.192C248.277 185.224 248.047 185.293 247.834 185.4C247.631 185.496 247.461 185.635 247.322 185.816C247.183 185.987 247.114 186.216 247.114 186.504C247.114 187.037 247.285 187.411 247.626 187.624C247.967 187.827 248.431 187.928 249.018 187.928ZM248.89 180.472C249.487 180.472 249.989 180.552 250.394 180.712C250.81 180.861 251.141 181.08 251.386 181.368C251.642 181.645 251.823 181.981 251.93 182.376C252.037 182.76 252.09 183.187 252.09 183.656V188.856C251.962 188.877 251.781 188.909 251.546 188.952C251.322 188.984 251.066 189.016 250.778 189.048C250.49 189.08 250.175 189.107 249.834 189.128C249.503 189.16 249.173 189.176 248.842 189.176C248.373 189.176 247.941 189.128 247.546 189.032C247.151 188.936 246.81 188.787 246.522 188.584C246.234 188.371 246.01 188.093 245.85 187.752C245.69 187.411 245.61 187 245.61 186.52C245.61 186.061 245.701 185.667 245.882 185.336C246.074 185.005 246.33 184.739 246.65 184.536C246.97 184.333 247.343 184.184 247.77 184.088C248.197 183.992 248.645 183.944 249.114 183.944C249.263 183.944 249.418 183.955 249.578 183.976C249.738 183.987 249.887 184.008 250.026 184.04C250.175 184.061 250.303 184.083 250.41 184.104C250.517 184.125 250.591 184.141 250.634 184.152V183.736C250.634 183.491 250.607 183.251 250.554 183.016C250.501 182.771 250.405 182.557 250.266 182.376C250.127 182.184 249.935 182.035 249.69 181.928C249.455 181.811 249.146 181.752 248.762 181.752C248.271 181.752 247.839 181.789 247.466 181.864C247.103 181.928 246.831 181.997 246.65 182.072L246.474 180.84C246.666 180.755 246.986 180.675 247.434 180.6C247.882 180.515 248.367 180.472 248.89 180.472ZM257.633 180.504C257.761 180.504 257.905 180.515 258.065 180.536C258.236 180.547 258.401 180.568 258.561 180.6C258.721 180.621 258.865 180.648 258.993 180.68C259.132 180.701 259.233 180.723 259.297 180.744L259.041 182.04C258.924 181.997 258.727 181.949 258.449 181.896C258.183 181.832 257.836 181.8 257.409 181.8C257.132 181.8 256.855 181.832 256.577 181.896C256.311 181.949 256.135 181.987 256.049 182.008V189H254.561V181.032C254.913 180.904 255.351 180.787 255.873 180.68C256.396 180.563 256.983 180.504 257.633 180.504ZM266.109 182.44C265.928 182.291 265.666 182.147 265.325 182.008C264.984 181.869 264.61 181.8 264.205 181.8C263.778 181.8 263.41 181.88 263.101 182.04C262.802 182.189 262.557 182.403 262.365 182.68C262.173 182.947 262.034 183.267 261.949 183.64C261.864 184.013 261.821 184.413 261.821 184.84C261.821 185.811 262.061 186.563 262.541 187.096C263.021 187.619 263.661 187.88 264.461 187.88C264.866 187.88 265.202 187.864 265.469 187.832C265.746 187.789 265.96 187.747 266.109 187.704V182.44ZM266.109 176.84L267.597 176.584V188.76C267.256 188.856 266.818 188.952 266.285 189.048C265.752 189.144 265.138 189.192 264.445 189.192C263.805 189.192 263.229 189.091 262.717 188.888C262.205 188.685 261.768 188.397 261.405 188.024C261.042 187.651 260.76 187.197 260.557 186.664C260.365 186.12 260.269 185.512 260.269 184.84C260.269 184.2 260.349 183.613 260.509 183.08C260.68 182.547 260.925 182.088 261.245 181.704C261.565 181.32 261.954 181.021 262.413 180.808C262.882 180.595 263.416 180.488 264.013 180.488C264.493 180.488 264.914 180.552 265.277 180.68C265.65 180.808 265.928 180.931 266.109 181.048V176.84ZM276.53 187.896C278.151 187.896 278.962 187.341 278.962 186.232C278.962 185.891 278.887 185.603 278.738 185.368C278.599 185.123 278.407 184.915 278.162 184.744C277.917 184.563 277.634 184.408 277.314 184.28C277.005 184.152 276.674 184.024 276.322 183.896C275.917 183.757 275.533 183.603 275.17 183.432C274.807 183.251 274.493 183.043 274.226 182.808C273.959 182.563 273.746 182.275 273.586 181.944C273.437 181.613 273.362 181.213 273.362 180.744C273.362 179.773 273.693 179.016 274.354 178.472C275.015 177.928 275.927 177.656 277.09 177.656C277.762 177.656 278.37 177.731 278.914 177.88C279.469 178.019 279.874 178.173 280.13 178.344L279.634 179.608C279.41 179.469 279.074 179.336 278.626 179.208C278.189 179.069 277.677 179 277.09 179C276.791 179 276.514 179.032 276.258 179.096C276.002 179.16 275.778 179.256 275.586 179.384C275.394 179.512 275.239 179.677 275.122 179.88C275.015 180.072 274.962 180.301 274.962 180.568C274.962 180.867 275.021 181.117 275.138 181.32C275.255 181.523 275.421 181.704 275.634 181.864C275.847 182.013 276.093 182.152 276.37 182.28C276.658 182.408 276.973 182.536 277.314 182.664C277.794 182.856 278.231 183.048 278.626 183.24C279.031 183.432 279.378 183.661 279.666 183.928C279.965 184.195 280.194 184.515 280.354 184.888C280.514 185.251 280.594 185.693 280.594 186.216C280.594 187.187 280.237 187.933 279.522 188.456C278.818 188.979 277.821 189.24 276.53 189.24C276.093 189.24 275.687 189.208 275.314 189.144C274.951 189.091 274.626 189.027 274.338 188.952C274.05 188.867 273.799 188.781 273.586 188.696C273.383 188.6 273.223 188.52 273.106 188.456L273.57 187.176C273.815 187.315 274.189 187.469 274.69 187.64C275.191 187.811 275.805 187.896 276.53 187.896ZM282.374 189V176.84L283.862 176.584V180.84C284.139 180.733 284.432 180.653 284.742 180.6C285.062 180.536 285.376 180.504 285.686 180.504C286.347 180.504 286.896 180.6 287.334 180.792C287.771 180.973 288.118 181.235 288.374 181.576C288.64 181.907 288.827 182.307 288.934 182.776C289.04 183.245 289.094 183.763 289.094 184.328V189H287.606V184.648C287.606 184.136 287.568 183.699 287.494 183.336C287.43 182.973 287.318 182.68 287.158 182.456C286.998 182.232 286.784 182.072 286.518 181.976C286.251 181.869 285.92 181.816 285.526 181.816C285.366 181.816 285.2 181.827 285.03 181.848C284.859 181.869 284.694 181.896 284.534 181.928C284.384 181.949 284.246 181.976 284.118 182.008C284 182.04 283.915 182.067 283.862 182.088V189H282.374ZM294.33 187.928C294.682 187.928 294.992 187.923 295.258 187.912C295.536 187.891 295.765 187.859 295.946 187.816V185.336C295.84 185.283 295.664 185.24 295.418 185.208C295.184 185.165 294.896 185.144 294.554 185.144C294.33 185.144 294.09 185.16 293.834 185.192C293.589 185.224 293.36 185.293 293.146 185.4C292.944 185.496 292.773 185.635 292.634 185.816C292.496 185.987 292.426 186.216 292.426 186.504C292.426 187.037 292.597 187.411 292.938 187.624C293.28 187.827 293.744 187.928 294.33 187.928ZM294.202 180.472C294.8 180.472 295.301 180.552 295.706 180.712C296.122 180.861 296.453 181.08 296.698 181.368C296.954 181.645 297.136 181.981 297.242 182.376C297.349 182.76 297.402 183.187 297.402 183.656V188.856C297.274 188.877 297.093 188.909 296.858 188.952C296.634 188.984 296.378 189.016 296.09 189.048C295.802 189.08 295.488 189.107 295.146 189.128C294.816 189.16 294.485 189.176 294.154 189.176C293.685 189.176 293.253 189.128 292.858 189.032C292.464 188.936 292.122 188.787 291.834 188.584C291.546 188.371 291.322 188.093 291.162 187.752C291.002 187.411 290.922 187 290.922 186.52C290.922 186.061 291.013 185.667 291.194 185.336C291.386 185.005 291.642 184.739 291.962 184.536C292.282 184.333 292.656 184.184 293.082 184.088C293.509 183.992 293.957 183.944 294.426 183.944C294.576 183.944 294.73 183.955 294.89 183.976C295.05 183.987 295.2 184.008 295.338 184.04C295.488 184.061 295.616 184.083 295.722 184.104C295.829 184.125 295.904 184.141 295.946 184.152V183.736C295.946 183.491 295.92 183.251 295.866 183.016C295.813 182.771 295.717 182.557 295.578 182.376C295.44 182.184 295.248 182.035 295.002 181.928C294.768 181.811 294.458 181.752 294.074 181.752C293.584 181.752 293.152 181.789 292.778 181.864C292.416 181.928 292.144 181.997 291.962 182.072L291.786 180.84C291.978 180.755 292.298 180.675 292.746 180.6C293.194 180.515 293.68 180.472 294.202 180.472ZM305.25 182.44C305.068 182.291 304.807 182.147 304.466 182.008C304.124 181.869 303.751 181.8 303.346 181.8C302.919 181.8 302.551 181.88 302.242 182.04C301.943 182.189 301.698 182.403 301.506 182.68C301.314 182.947 301.175 183.267 301.09 183.64C301.004 184.013 300.962 184.413 300.962 184.84C300.962 185.811 301.202 186.563 301.682 187.096C302.162 187.619 302.802 187.88 303.602 187.88C304.007 187.88 304.343 187.864 304.61 187.832C304.887 187.789 305.1 187.747 305.25 187.704V182.44ZM305.25 176.84L306.738 176.584V188.76C306.396 188.856 305.959 188.952 305.426 189.048C304.892 189.144 304.279 189.192 303.586 189.192C302.946 189.192 302.37 189.091 301.858 188.888C301.346 188.685 300.908 188.397 300.546 188.024C300.183 187.651 299.9 187.197 299.698 186.664C299.506 186.12 299.41 185.512 299.41 184.84C299.41 184.2 299.49 183.613 299.65 183.08C299.82 182.547 300.066 182.088 300.386 181.704C300.706 181.32 301.095 181.021 301.554 180.808C302.023 180.595 302.556 180.488 303.154 180.488C303.634 180.488 304.055 180.552 304.418 180.68C304.791 180.808 305.068 180.931 305.25 181.048V176.84ZM316.64 184.84C316.64 185.501 316.544 186.099 316.352 186.632C316.16 187.165 315.888 187.624 315.536 188.008C315.194 188.392 314.784 188.691 314.304 188.904C313.824 189.107 313.301 189.208 312.736 189.208C312.17 189.208 311.648 189.107 311.168 188.904C310.688 188.691 310.272 188.392 309.92 188.008C309.578 187.624 309.312 187.165 309.12 186.632C308.928 186.099 308.832 185.501 308.832 184.84C308.832 184.189 308.928 183.597 309.12 183.064C309.312 182.52 309.578 182.056 309.92 181.672C310.272 181.288 310.688 180.995 311.168 180.792C311.648 180.579 312.17 180.472 312.736 180.472C313.301 180.472 313.824 180.579 314.304 180.792C314.784 180.995 315.194 181.288 315.536 181.672C315.888 182.056 316.16 182.52 316.352 183.064C316.544 183.597 316.64 184.189 316.64 184.84ZM315.088 184.84C315.088 183.901 314.874 183.16 314.448 182.616C314.032 182.061 313.461 181.784 312.736 181.784C312.01 181.784 311.434 182.061 311.008 182.616C310.592 183.16 310.384 183.901 310.384 184.84C310.384 185.779 310.592 186.525 311.008 187.08C311.434 187.624 312.01 187.896 312.736 187.896C313.461 187.896 314.032 187.624 314.448 187.08C314.874 186.525 315.088 185.779 315.088 184.84ZM325.33 189C325.031 188.232 324.711 187.357 324.37 186.376C324.039 185.384 323.735 184.355 323.458 183.288C323.181 184.355 322.877 185.384 322.546 186.376C322.215 187.357 321.901 188.232 321.602 189H320.306C319.815 187.901 319.335 186.648 318.866 185.24C318.397 183.832 317.954 182.312 317.538 180.68H319.138C319.245 181.181 319.373 181.725 319.522 182.312C319.671 182.899 319.826 183.485 319.986 184.072C320.157 184.659 320.333 185.224 320.514 185.768C320.695 186.312 320.866 186.787 321.026 187.192C321.207 186.691 321.383 186.163 321.554 185.608C321.735 185.043 321.906 184.477 322.066 183.912C322.226 183.336 322.375 182.776 322.514 182.232C322.663 181.677 322.791 181.16 322.898 180.68H324.13C324.226 181.16 324.343 181.677 324.482 182.232C324.621 182.776 324.77 183.336 324.93 183.912C325.09 184.477 325.255 185.043 325.426 185.608C325.607 186.163 325.789 186.691 325.97 187.192C326.13 186.787 326.295 186.312 326.466 185.768C326.647 185.224 326.823 184.659 326.994 184.072C327.165 183.485 327.325 182.899 327.474 182.312C327.623 181.725 327.751 181.181 327.858 180.68H329.394C328.978 182.312 328.535 183.832 328.066 185.24C327.597 186.648 327.117 187.901 326.626 189H325.33ZM340.863 180.744C340.863 181.128 340.783 181.501 340.623 181.864C340.473 182.216 340.271 182.568 340.015 182.92C339.759 183.261 339.471 183.603 339.151 183.944C338.831 184.275 338.511 184.6 338.191 184.92C338.009 185.101 337.796 185.315 337.551 185.56C337.316 185.805 337.092 186.061 336.879 186.328C336.665 186.595 336.484 186.851 336.335 187.096C336.196 187.341 336.127 187.555 336.127 187.736H341.231V189H334.511C334.5 188.936 334.495 188.872 334.495 188.808C334.495 188.744 334.495 188.685 334.495 188.632C334.495 188.131 334.575 187.667 334.735 187.24C334.905 186.803 335.124 186.392 335.391 186.008C335.657 185.624 335.956 185.261 336.287 184.92C336.617 184.579 336.943 184.248 337.263 183.928C337.529 183.672 337.78 183.421 338.015 183.176C338.26 182.92 338.473 182.669 338.655 182.424C338.847 182.168 338.996 181.907 339.103 181.64C339.22 181.373 339.279 181.091 339.279 180.792C339.279 180.472 339.225 180.2 339.119 179.976C339.023 179.752 338.889 179.565 338.719 179.416C338.548 179.267 338.345 179.16 338.111 179.096C337.887 179.021 337.647 178.984 337.391 178.984C337.081 178.984 336.799 179.027 336.543 179.112C336.287 179.197 336.057 179.299 335.855 179.416C335.652 179.523 335.481 179.64 335.343 179.768C335.204 179.885 335.097 179.976 335.023 180.04L334.287 178.984C334.383 178.877 334.527 178.749 334.719 178.6C334.911 178.44 335.14 178.291 335.407 178.152C335.673 178.013 335.972 177.896 336.303 177.8C336.633 177.704 336.991 177.656 337.375 177.656C338.537 177.656 339.407 177.928 339.983 178.472C340.569 179.005 340.863 179.763 340.863 180.744Z" fill="#999999"/>
<defs>
<filter id="filter0_d" x="20" y="61" width="130" height="56" filterUnits="userSpaceOnUse" color-interpolation-filters="sRGB">
<feFlood flood-opacity="0" result="BackgroundImageFix"/>
<feColorMatrix in="SourceAlpha" type="matrix" values="0 0 0 0 0 0 0 0 0 0 0 0 0 0 0 0 0 0 127 0" result="hardAlpha"/>
<feOffset dy="5"/>
<feGaussianBlur stdDeviation="5"/>
<feColorMatrix type="matrix" values="0 0 0 0 0 0 0 0 0 0 0 0 0 0 0 0 0 0 0.15 0"/>
<feBlend mode="normal" in2="BackgroundImageFix" result="effect1_dropShadow"/>
<feBlend mode="normal" in="SourceGraphic" in2="effect1_dropShadow" result="shape"/>
</filter>
<filter id="filter1_d" x="225" y="61" width="130" height="56" filterUnits="userSpaceOnUse" color-interpolation-filters="sRGB">
<feFlood flood-opacity="0" result="BackgroundImageFix"/>
<feColorMatrix in="SourceAlpha" type="matrix" values="0 0 0 0 0 0 0 0 0 0 0 0 0 0 0 0 0 0 127 0" result="hardAlpha"/>
<feOffset dy="5"/>
<feGaussianBlur stdDeviation="5"/>
<feColorMatrix type="matrix" values="0 0 0 0 0 0 0 0 0 0 0 0 0 0 0 0 0 0 0.1 0"/>
<feBlend mode="normal" in2="BackgroundImageFix" result="effect1_dropShadow"/>
<feBlend mode="normal" in="SourceGraphic" in2="effect1_dropShadow" result="shape"/>
</filter>
<filter id="filter2_d" x="0" y="193" width="220" height="160" filterUnits="userSpaceOnUse" color-interpolation-filters="sRGB">
<feFlood flood-opacity="0" result="BackgroundImageFix"/>
<feColorMatrix in="SourceAlpha" type="matrix" values="0 0 0 0 0 0 0 0 0 0 0 0 0 0 0 0 0 0 127 0" result="hardAlpha"/>
<feOffset dy="15"/>
<feGaussianBlur stdDeviation="15"/>
<feColorMatrix type="matrix" values="0 0 0 0 0 0 0 0 0 0 0 0 0 0 0 0 0 0 0.15 0"/>
<feBlend mode="normal" in2="BackgroundImageFix" result="effect1_dropShadow"/>
<feBlend mode="normal" in="SourceGraphic" in2="effect1_dropShadow" result="shape"/>
</filter>
<filter id="filter3_d" x="195" y="188" width="240" height="180" filterUnits="userSpaceOnUse" color-interpolation-filters="sRGB">
<feFlood flood-opacity="0" result="BackgroundImageFix"/>
<feColorMatrix in="SourceAlpha" type="matrix" values="0 0 0 0 0 0 0 0 0 0 0 0 0 0 0 0 0 0 127 0" result="hardAlpha"/>
<feOffset dy="20"/>
<feGaussianBlur stdDeviation="20"/>
<feColorMatrix type="matrix" values="0 0 0 0 0 0 0 0 0 0 0 0 0 0 0 0 0 0 0.15 0"/>
<feBlend mode="normal" in2="BackgroundImageFix" result="effect1_dropShadow"/>
<feBlend mode="normal" in="SourceGraphic" in2="effect1_dropShadow" result="shape"/>
</filter>
</defs>
</svg>
