<svg width="584" height="135" viewBox="0 0 584 135" fill="none" xmlns="http://www.w3.org/2000/svg">
<g filter="url(#filter0_d)">
<rect x="20" y="41" width="100" height="60" rx="8" fill="#67C6E6"/>
</g>
<path d="M24.544 123.84H27.136L27.696 120.912H29.04L28.48 123.84H29.888V125.024H28.24L27.696 127.888H29.888V129.072H27.472L26.912 132H25.568L26.128 129.072H23.536L22.976 132H21.632L22.192 129.072H20.784V127.888H22.416L22.96 125.024H20.784V123.84H23.2L23.76 120.912H25.104L24.544 123.84ZM23.76 127.888H26.352L26.912 125.024H24.32L23.76 127.888ZM31.6799 127.552C31.6799 126.475 31.8292 125.525 32.1279 124.704C32.4265 123.872 32.8479 123.173 33.3919 122.608C33.9465 122.043 34.6132 121.616 35.3919 121.328C36.1812 121.029 37.0665 120.875 38.0479 120.864L38.1599 122.112C37.5305 122.123 36.9545 122.192 36.4319 122.32C35.9199 122.448 35.4612 122.651 35.0559 122.928C34.6505 123.205 34.3092 123.568 34.0319 124.016C33.7545 124.453 33.5465 124.997 33.4079 125.648C33.6852 125.52 33.9945 125.413 34.3359 125.328C34.6879 125.243 35.0505 125.2 35.4239 125.2C36.0532 125.2 36.5865 125.296 37.0239 125.488C37.4612 125.68 37.8185 125.936 38.0959 126.256C38.3732 126.565 38.5705 126.928 38.6879 127.344C38.8159 127.749 38.8799 128.176 38.8799 128.624C38.8799 129.029 38.8105 129.445 38.6719 129.872C38.5332 130.299 38.3199 130.688 38.0319 131.04C37.7545 131.392 37.3972 131.68 36.9599 131.904C36.5225 132.128 36.0052 132.24 35.4079 132.24C34.1919 132.24 33.2639 131.824 32.6239 130.992C31.9945 130.16 31.6799 129.013 31.6799 127.552ZM35.2639 126.416C34.8905 126.416 34.5439 126.453 34.2239 126.528C33.9039 126.592 33.5839 126.693 33.2639 126.832C33.2532 126.949 33.2425 127.072 33.2319 127.2C33.2319 127.317 33.2319 127.435 33.2319 127.552C33.2319 128.021 33.2639 128.464 33.3279 128.88C33.3919 129.296 33.5039 129.664 33.6639 129.984C33.8345 130.293 34.0585 130.544 34.3359 130.736C34.6132 130.917 34.9652 131.008 35.3919 131.008C35.7439 131.008 36.0425 130.933 36.2879 130.784C36.5332 130.635 36.7359 130.443 36.8959 130.208C37.0559 129.973 37.1679 129.723 37.2319 129.456C37.3065 129.179 37.3439 128.912 37.3439 128.656C37.3439 127.931 37.1679 127.376 36.8159 126.992C36.4745 126.608 35.9572 126.416 35.2639 126.416ZM42.3111 132C42.3751 131.147 42.5245 130.251 42.7591 129.312C43.0045 128.363 43.3031 127.445 43.6551 126.56C44.0071 125.664 44.3911 124.837 44.8071 124.08C45.2338 123.312 45.6498 122.688 46.0551 122.208H40.6631V120.912H47.7191V122.144C47.3671 122.549 46.9778 123.109 46.5511 123.824C46.1245 124.528 45.7191 125.323 45.3351 126.208C44.9618 127.083 44.6365 128.021 44.3591 129.024C44.0925 130.016 43.9271 131.008 43.8631 132H42.3111ZM54.8784 132.24C54.0997 132.24 53.3904 132.112 52.7504 131.856C52.1104 131.6 51.561 131.227 51.1024 130.736C50.6437 130.245 50.2864 129.643 50.0304 128.928C49.785 128.203 49.6624 127.376 49.6624 126.448C49.6624 125.52 49.801 124.699 50.0784 123.984C50.3664 123.259 50.7504 122.651 51.2304 122.16C51.7104 121.669 52.2704 121.296 52.9104 121.04C53.5504 120.784 54.233 120.656 54.9584 120.656C55.417 120.656 55.8277 120.688 56.1904 120.752C56.5637 120.816 56.8837 120.891 57.1504 120.976C57.4277 121.061 57.6517 121.147 57.8224 121.232C57.993 121.317 58.1104 121.381 58.1744 121.424L57.7264 122.704C57.6304 122.64 57.4917 122.571 57.3104 122.496C57.129 122.421 56.921 122.347 56.6864 122.272C56.4624 122.197 56.2117 122.139 55.9344 122.096C55.6677 122.043 55.3957 122.016 55.1184 122.016C54.5317 122.016 54.0037 122.117 53.5344 122.32C53.065 122.523 52.665 122.816 52.3344 123.2C52.0037 123.584 51.7477 124.053 51.5664 124.608C51.3957 125.152 51.3104 125.765 51.3104 126.448C51.3104 127.109 51.385 127.712 51.5344 128.256C51.6944 128.8 51.929 129.269 52.2384 129.664C52.5477 130.048 52.9317 130.347 53.3904 130.56C53.8597 130.773 54.4037 130.88 55.0224 130.88C55.737 130.88 56.329 130.805 56.7984 130.656C57.2677 130.507 57.6197 130.373 57.8544 130.256L58.2544 131.536C58.1797 131.589 58.0464 131.659 57.8544 131.744C57.6624 131.819 57.4224 131.893 57.1344 131.968C56.8464 132.043 56.5104 132.107 56.1264 132.16C55.7424 132.213 55.3264 132.24 54.8784 132.24ZM59.6643 127.552C59.6643 126.475 59.8136 125.525 60.1123 124.704C60.4109 123.872 60.8323 123.173 61.3763 122.608C61.9309 122.043 62.5976 121.616 63.3763 121.328C64.1656 121.029 65.0509 120.875 66.0323 120.864L66.1443 122.112C65.5149 122.123 64.9389 122.192 64.4163 122.32C63.9043 122.448 63.4456 122.651 63.0403 122.928C62.6349 123.205 62.2936 123.568 62.0163 124.016C61.7389 124.453 61.5309 124.997 61.3923 125.648C61.6696 125.52 61.9789 125.413 62.3203 125.328C62.6723 125.243 63.0349 125.2 63.4083 125.2C64.0376 125.2 64.5709 125.296 65.0083 125.488C65.4456 125.68 65.8029 125.936 66.0803 126.256C66.3576 126.565 66.5549 126.928 66.6723 127.344C66.8003 127.749 66.8643 128.176 66.8643 128.624C66.8643 129.029 66.7949 129.445 66.6562 129.872C66.5176 130.299 66.3043 130.688 66.0163 131.04C65.7389 131.392 65.3816 131.68 64.9443 131.904C64.5069 132.128 63.9896 132.24 63.3923 132.24C62.1763 132.24 61.2483 131.824 60.6083 130.992C59.9789 130.16 59.6643 129.013 59.6643 127.552ZM63.2483 126.416C62.8749 126.416 62.5283 126.453 62.2083 126.528C61.8883 126.592 61.5683 126.693 61.2483 126.832C61.2376 126.949 61.2269 127.072 61.2163 127.2C61.2163 127.317 61.2163 127.435 61.2163 127.552C61.2163 128.021 61.2483 128.464 61.3123 128.88C61.3763 129.296 61.4883 129.664 61.6483 129.984C61.8189 130.293 62.0429 130.544 62.3203 130.736C62.5976 130.917 62.9496 131.008 63.3763 131.008C63.7283 131.008 64.0269 130.933 64.2723 130.784C64.5176 130.635 64.7203 130.443 64.8803 130.208C65.0403 129.973 65.1523 129.723 65.2163 129.456C65.2909 129.179 65.3283 128.912 65.3283 128.656C65.3283 127.931 65.1523 127.376 64.8003 126.992C64.4589 126.608 63.9416 126.416 63.2483 126.416ZM69.0635 132V120.912H75.8315V122.24H70.6155V125.536H75.2555V126.832H70.6155V130.672H76.2315V132H69.0635ZM80.0121 125.184C81.6228 125.248 82.8015 125.6 83.5481 126.24C84.3055 126.88 84.6841 127.749 84.6841 128.848C84.6841 129.339 84.5988 129.792 84.4281 130.208C84.2681 130.624 84.0175 130.981 83.6761 131.28C83.3455 131.579 82.9241 131.813 82.4121 131.984C81.9001 132.155 81.2921 132.24 80.5881 132.24C80.3108 132.24 80.0281 132.219 79.7401 132.176C79.4521 132.133 79.1855 132.08 78.9401 132.016C78.6948 131.952 78.4761 131.888 78.2841 131.824C78.0921 131.76 77.9535 131.707 77.8681 131.664L78.1561 130.368C78.3375 130.453 78.6308 130.565 79.0361 130.704C79.4521 130.843 79.9588 130.912 80.5561 130.912C81.0361 130.912 81.4361 130.859 81.7561 130.752C82.0868 130.645 82.3535 130.501 82.5561 130.32C82.7588 130.139 82.9028 129.931 82.9881 129.696C83.0841 129.451 83.1321 129.195 83.1321 128.928C83.1321 128.523 83.0628 128.165 82.9241 127.856C82.7855 127.536 82.5401 127.269 82.1881 127.056C81.8361 126.843 81.3668 126.683 80.7801 126.576C80.1935 126.459 79.4521 126.4 78.5561 126.4C78.6201 125.877 78.6681 125.387 78.7001 124.928C78.7428 124.469 78.7801 124.021 78.8121 123.584C78.8441 123.147 78.8708 122.715 78.8921 122.288C78.9135 121.851 78.9348 121.392 78.9561 120.912H84.3001V122.176H80.2521C80.2415 122.336 80.2255 122.555 80.2041 122.832C80.1828 123.099 80.1615 123.381 80.1401 123.68C80.1188 123.968 80.0975 124.251 80.0761 124.528C80.0548 124.805 80.0335 125.024 80.0121 125.184Z" fill="#8D9399"/>
<g filter="url(#filter1_d)">
<rect x="464" y="41" width="100" height="60" rx="8" fill="#FF6666"/>
</g>
<path d="M468.544 123.84H471.136L471.696 120.912H473.04L472.48 123.84H473.888V125.024H472.24L471.696 127.888H473.888V129.072H471.472L470.912 132H469.568L470.128 129.072H467.536L466.976 132H465.632L466.192 129.072H464.784V127.888H466.416L466.96 125.024H464.784V123.84H467.2L467.76 120.912H469.104L468.544 123.84ZM467.76 127.888H470.352L470.912 125.024H468.32L467.76 127.888ZM476.048 132V120.912H482.736V122.24H477.6V125.584H482.16V126.896H477.6V132H476.048ZM484.642 132V120.912H491.33V122.24H486.194V125.584H490.754V126.896H486.194V132H484.642ZM492.867 127.552C492.867 126.475 493.017 125.525 493.315 124.704C493.614 123.872 494.035 123.173 494.579 122.608C495.134 122.043 495.801 121.616 496.579 121.328C497.369 121.029 498.254 120.875 499.235 120.864L499.347 122.112C498.718 122.123 498.142 122.192 497.619 122.32C497.107 122.448 496.649 122.651 496.243 122.928C495.838 123.205 495.497 123.568 495.219 124.016C494.942 124.453 494.734 124.997 494.595 125.648C494.873 125.52 495.182 125.413 495.523 125.328C495.875 125.243 496.238 125.2 496.611 125.2C497.241 125.2 497.774 125.296 498.211 125.488C498.649 125.68 499.006 125.936 499.283 126.256C499.561 126.565 499.758 126.928 499.875 127.344C500.003 127.749 500.067 128.176 500.067 128.624C500.067 129.029 499.998 129.445 499.859 129.872C499.721 130.299 499.507 130.688 499.219 131.04C498.942 131.392 498.585 131.68 498.147 131.904C497.71 132.128 497.193 132.24 496.595 132.24C495.379 132.24 494.451 131.824 493.811 130.992C493.182 130.16 492.867 129.013 492.867 127.552ZM496.451 126.416C496.078 126.416 495.731 126.453 495.411 126.528C495.091 126.592 494.771 126.693 494.451 126.832C494.441 126.949 494.43 127.072 494.419 127.2C494.419 127.317 494.419 127.435 494.419 127.552C494.419 128.021 494.451 128.464 494.515 128.88C494.579 129.296 494.691 129.664 494.851 129.984C495.022 130.293 495.246 130.544 495.523 130.736C495.801 130.917 496.153 131.008 496.579 131.008C496.931 131.008 497.23 130.933 497.475 130.784C497.721 130.635 497.923 130.443 498.083 130.208C498.243 129.973 498.355 129.723 498.419 129.456C498.494 129.179 498.531 128.912 498.531 128.656C498.531 127.931 498.355 127.376 498.003 126.992C497.662 126.608 497.145 126.416 496.451 126.416ZM501.899 127.552C501.899 126.475 502.048 125.525 502.347 124.704C502.645 123.872 503.067 123.173 503.611 122.608C504.165 122.043 504.832 121.616 505.611 121.328C506.4 121.029 507.285 120.875 508.267 120.864L508.379 122.112C507.749 122.123 507.173 122.192 506.651 122.32C506.139 122.448 505.68 122.651 505.275 122.928C504.869 123.205 504.528 123.568 504.251 124.016C503.973 124.453 503.765 124.997 503.627 125.648C503.904 125.52 504.213 125.413 504.555 125.328C504.907 125.243 505.269 125.2 505.643 125.2C506.272 125.2 506.805 125.296 507.243 125.488C507.68 125.68 508.037 125.936 508.315 126.256C508.592 126.565 508.789 126.928 508.907 127.344C509.035 127.749 509.099 128.176 509.099 128.624C509.099 129.029 509.029 129.445 508.891 129.872C508.752 130.299 508.539 130.688 508.251 131.04C507.973 131.392 507.616 131.68 507.179 131.904C506.741 132.128 506.224 132.24 505.627 132.24C504.411 132.24 503.483 131.824 502.843 130.992C502.213 130.16 501.899 129.013 501.899 127.552ZM505.483 126.416C505.109 126.416 504.763 126.453 504.443 126.528C504.123 126.592 503.803 126.693 503.483 126.832C503.472 126.949 503.461 127.072 503.451 127.2C503.451 127.317 503.451 127.435 503.451 127.552C503.451 128.021 503.483 128.464 503.547 128.88C503.611 129.296 503.723 129.664 503.883 129.984C504.053 130.293 504.277 130.544 504.555 130.736C504.832 130.917 505.184 131.008 505.611 131.008C505.963 131.008 506.261 130.933 506.507 130.784C506.752 130.635 506.955 130.443 507.115 130.208C507.275 129.973 507.387 129.723 507.451 129.456C507.525 129.179 507.563 128.912 507.563 128.656C507.563 127.931 507.387 127.376 507.035 126.992C506.693 126.608 506.176 126.416 505.483 126.416ZM510.93 127.552C510.93 126.475 511.079 125.525 511.378 124.704C511.677 123.872 512.098 123.173 512.642 122.608C513.197 122.043 513.863 121.616 514.642 121.328C515.431 121.029 516.317 120.875 517.298 120.864L517.41 122.112C516.781 122.123 516.205 122.192 515.682 122.32C515.17 122.448 514.711 122.651 514.306 122.928C513.901 123.205 513.559 123.568 513.282 124.016C513.005 124.453 512.797 124.997 512.658 125.648C512.935 125.52 513.245 125.413 513.586 125.328C513.938 125.243 514.301 125.2 514.674 125.2C515.303 125.2 515.837 125.296 516.274 125.488C516.711 125.68 517.069 125.936 517.346 126.256C517.623 126.565 517.821 126.928 517.938 127.344C518.066 127.749 518.13 128.176 518.13 128.624C518.13 129.029 518.061 129.445 517.922 129.872C517.783 130.299 517.57 130.688 517.282 131.04C517.005 131.392 516.647 131.68 516.21 131.904C515.773 132.128 515.255 132.24 514.658 132.24C513.442 132.24 512.514 131.824 511.874 130.992C511.245 130.16 510.93 129.013 510.93 127.552ZM514.514 126.416C514.141 126.416 513.794 126.453 513.474 126.528C513.154 126.592 512.834 126.693 512.514 126.832C512.503 126.949 512.493 127.072 512.482 127.2C512.482 127.317 512.482 127.435 512.482 127.552C512.482 128.021 512.514 128.464 512.578 128.88C512.642 129.296 512.754 129.664 512.914 129.984C513.085 130.293 513.309 130.544 513.586 130.736C513.863 130.917 514.215 131.008 514.642 131.008C514.994 131.008 515.293 130.933 515.538 130.784C515.783 130.635 515.986 130.443 516.146 130.208C516.306 129.973 516.418 129.723 516.482 129.456C516.557 129.179 516.594 128.912 516.594 128.656C516.594 127.931 516.418 127.376 516.066 126.992C515.725 126.608 515.207 126.416 514.514 126.416ZM519.961 127.552C519.961 126.475 520.11 125.525 520.409 124.704C520.708 123.872 521.129 123.173 521.673 122.608C522.228 122.043 522.894 121.616 523.673 121.328C524.462 121.029 525.348 120.875 526.329 120.864L526.441 122.112C525.812 122.123 525.236 122.192 524.713 122.32C524.201 122.448 523.742 122.651 523.337 122.928C522.932 123.205 522.59 123.568 522.313 124.016C522.036 124.453 521.828 124.997 521.689 125.648C521.966 125.52 522.276 125.413 522.617 125.328C522.969 125.243 523.332 125.2 523.705 125.2C524.334 125.2 524.868 125.296 525.305 125.488C525.742 125.68 526.1 125.936 526.377 126.256C526.654 126.565 526.852 126.928 526.969 127.344C527.097 127.749 527.161 128.176 527.161 128.624C527.161 129.029 527.092 129.445 526.953 129.872C526.814 130.299 526.601 130.688 526.313 131.04C526.036 131.392 525.678 131.68 525.241 131.904C524.804 132.128 524.286 132.24 523.689 132.24C522.473 132.24 521.545 131.824 520.905 130.992C520.276 130.16 519.961 129.013 519.961 127.552ZM523.545 126.416C523.172 126.416 522.825 126.453 522.505 126.528C522.185 126.592 521.865 126.693 521.545 126.832C521.534 126.949 521.524 127.072 521.513 127.2C521.513 127.317 521.513 127.435 521.513 127.552C521.513 128.021 521.545 128.464 521.609 128.88C521.673 129.296 521.785 129.664 521.945 129.984C522.116 130.293 522.34 130.544 522.617 130.736C522.894 130.917 523.246 131.008 523.673 131.008C524.025 131.008 524.324 130.933 524.569 130.784C524.814 130.635 525.017 130.443 525.177 130.208C525.337 129.973 525.449 129.723 525.513 129.456C525.588 129.179 525.625 128.912 525.625 128.656C525.625 127.931 525.449 127.376 525.097 126.992C524.756 126.608 524.238 126.416 523.545 126.416Z" fill="#8D9399"/>
<g filter="url(#filter2_d)">
<rect x="168" y="41" width="100" height="60" rx="8" fill="#56D96C"/>
</g>
<g filter="url(#filter3_d)">
<rect x="316" y="41" width="100" height="60" rx="8" fill="#FFCC00"/>
</g>
<path d="M172.544 123.84H175.136L175.696 120.912H177.04L176.48 123.84H177.888V125.024H176.24L175.696 127.888H177.888V129.072H175.472L174.912 132H173.568L174.128 129.072H171.536L170.976 132H169.632L170.192 129.072H168.784V127.888H170.416L170.96 125.024H168.784V123.84H171.2L171.76 120.912H173.104L172.544 123.84ZM171.76 127.888H174.352L174.912 125.024H172.32L171.76 127.888ZM181.856 125.184C183.467 125.248 184.645 125.6 185.392 126.24C186.149 126.88 186.528 127.749 186.528 128.848C186.528 129.339 186.443 129.792 186.272 130.208C186.112 130.624 185.861 130.981 185.52 131.28C185.189 131.579 184.768 131.813 184.256 131.984C183.744 132.155 183.136 132.24 182.432 132.24C182.155 132.24 181.872 132.219 181.584 132.176C181.296 132.133 181.029 132.08 180.784 132.016C180.539 131.952 180.32 131.888 180.128 131.824C179.936 131.76 179.797 131.707 179.712 131.664L180 130.368C180.181 130.453 180.475 130.565 180.88 130.704C181.296 130.843 181.803 130.912 182.4 130.912C182.88 130.912 183.28 130.859 183.6 130.752C183.931 130.645 184.197 130.501 184.4 130.32C184.603 130.139 184.747 129.931 184.832 129.696C184.928 129.451 184.976 129.195 184.976 128.928C184.976 128.523 184.907 128.165 184.768 127.856C184.629 127.536 184.384 127.269 184.032 127.056C183.68 126.843 183.211 126.683 182.624 126.576C182.037 126.459 181.296 126.4 180.4 126.4C180.464 125.877 180.512 125.387 180.544 124.928C180.587 124.469 180.624 124.021 180.656 123.584C180.688 123.147 180.715 122.715 180.736 122.288C180.757 121.851 180.779 121.392 180.8 120.912H186.144V122.176H182.096C182.085 122.336 182.069 122.555 182.048 122.832C182.027 123.099 182.005 123.381 181.984 123.68C181.963 123.968 181.941 124.251 181.92 124.528C181.899 124.805 181.877 125.024 181.856 125.184ZM188.711 127.552C188.711 126.475 188.86 125.525 189.159 124.704C189.458 123.872 189.879 123.173 190.423 122.608C190.978 122.043 191.644 121.616 192.423 121.328C193.212 121.029 194.098 120.875 195.079 120.864L195.191 122.112C194.562 122.123 193.986 122.192 193.463 122.32C192.951 122.448 192.492 122.651 192.087 122.928C191.682 123.205 191.34 123.568 191.063 124.016C190.786 124.453 190.578 124.997 190.439 125.648C190.716 125.52 191.026 125.413 191.367 125.328C191.719 125.243 192.082 125.2 192.455 125.2C193.084 125.2 193.618 125.296 194.055 125.488C194.492 125.68 194.85 125.936 195.127 126.256C195.404 126.565 195.602 126.928 195.719 127.344C195.847 127.749 195.911 128.176 195.911 128.624C195.911 129.029 195.842 129.445 195.703 129.872C195.564 130.299 195.351 130.688 195.063 131.04C194.786 131.392 194.428 131.68 193.991 131.904C193.554 132.128 193.036 132.24 192.439 132.24C191.223 132.24 190.295 131.824 189.655 130.992C189.026 130.16 188.711 129.013 188.711 127.552ZM192.295 126.416C191.922 126.416 191.575 126.453 191.255 126.528C190.935 126.592 190.615 126.693 190.295 126.832C190.284 126.949 190.274 127.072 190.263 127.2C190.263 127.317 190.263 127.435 190.263 127.552C190.263 128.021 190.295 128.464 190.359 128.88C190.423 129.296 190.535 129.664 190.695 129.984C190.866 130.293 191.09 130.544 191.367 130.736C191.644 130.917 191.996 131.008 192.423 131.008C192.775 131.008 193.074 130.933 193.319 130.784C193.564 130.635 193.767 130.443 193.927 130.208C194.087 129.973 194.199 129.723 194.263 129.456C194.338 129.179 194.375 128.912 194.375 128.656C194.375 127.931 194.199 127.376 193.847 126.992C193.506 126.608 192.988 126.416 192.295 126.416ZM207.214 126.448C207.214 127.408 207.065 128.245 206.766 128.96C206.468 129.664 206.046 130.251 205.502 130.72C204.958 131.179 204.308 131.525 203.55 131.76C202.793 131.984 201.961 132.096 201.054 132.096C200.606 132.096 200.11 132.075 199.566 132.032C199.033 132 198.548 131.931 198.11 131.824V121.072C198.548 120.965 199.033 120.896 199.566 120.864C200.11 120.821 200.606 120.8 201.054 120.8C201.961 120.8 202.793 120.917 203.55 121.152C204.308 121.376 204.958 121.723 205.502 122.192C206.046 122.651 206.468 123.237 206.766 123.952C207.065 124.656 207.214 125.488 207.214 126.448ZM201.182 130.736C202.654 130.736 203.753 130.363 204.478 129.616C205.204 128.859 205.566 127.803 205.566 126.448C205.566 125.093 205.204 124.043 204.478 123.296C203.753 122.539 202.654 122.16 201.182 122.16C200.745 122.16 200.404 122.165 200.158 122.176C199.924 122.187 199.758 122.197 199.662 122.208V130.688C199.758 130.699 199.924 130.709 200.158 130.72C200.404 130.731 200.745 130.736 201.182 130.736ZM216.157 125.344C216.157 127.541 215.607 129.205 214.509 130.336C213.421 131.456 211.799 132.021 209.645 132.032L209.597 130.784C210.269 130.784 210.871 130.72 211.405 130.592C211.949 130.464 212.423 130.261 212.829 129.984C213.234 129.696 213.57 129.328 213.837 128.88C214.114 128.432 214.317 127.883 214.445 127.232C214.167 127.36 213.853 127.467 213.501 127.552C213.149 127.627 212.786 127.664 212.413 127.664C211.783 127.664 211.25 127.573 210.813 127.392C210.375 127.2 210.018 126.949 209.741 126.64C209.463 126.32 209.261 125.957 209.133 125.552C209.015 125.136 208.957 124.704 208.957 124.256C208.957 123.861 209.026 123.451 209.165 123.024C209.303 122.597 209.511 122.208 209.789 121.856C210.077 121.504 210.439 121.216 210.877 120.992C211.314 120.768 211.831 120.656 212.429 120.656C213.037 120.656 213.57 120.763 214.029 120.976C214.498 121.189 214.887 121.499 215.197 121.904C215.517 122.309 215.757 122.805 215.917 123.392C216.077 123.968 216.157 124.619 216.157 125.344ZM212.573 126.448C212.946 126.448 213.298 126.416 213.629 126.352C213.959 126.277 214.279 126.171 214.589 126.032C214.599 125.915 214.605 125.803 214.605 125.696C214.605 125.579 214.605 125.461 214.605 125.344C214.605 124.885 214.573 124.448 214.509 124.032C214.445 123.605 214.327 123.237 214.157 122.928C213.997 122.608 213.778 122.357 213.501 122.176C213.223 121.984 212.871 121.888 212.445 121.888C212.093 121.888 211.794 121.963 211.549 122.112C211.303 122.261 211.101 122.453 210.941 122.688C210.781 122.912 210.663 123.163 210.589 123.44C210.525 123.707 210.493 123.968 210.493 124.224C210.493 124.949 210.663 125.504 211.005 125.888C211.357 126.261 211.879 126.448 212.573 126.448ZM218.18 127.552C218.18 126.475 218.329 125.525 218.628 124.704C218.927 123.872 219.348 123.173 219.892 122.608C220.447 122.043 221.113 121.616 221.892 121.328C222.681 121.029 223.567 120.875 224.548 120.864L224.66 122.112C224.031 122.123 223.455 122.192 222.932 122.32C222.42 122.448 221.961 122.651 221.556 122.928C221.151 123.205 220.809 123.568 220.532 124.016C220.255 124.453 220.047 124.997 219.908 125.648C220.185 125.52 220.495 125.413 220.836 125.328C221.188 125.243 221.551 125.2 221.924 125.2C222.553 125.2 223.087 125.296 223.524 125.488C223.961 125.68 224.319 125.936 224.596 126.256C224.873 126.565 225.071 126.928 225.188 127.344C225.316 127.749 225.38 128.176 225.38 128.624C225.38 129.029 225.311 129.445 225.172 129.872C225.033 130.299 224.82 130.688 224.532 131.04C224.255 131.392 223.897 131.68 223.46 131.904C223.023 132.128 222.505 132.24 221.908 132.24C220.692 132.24 219.764 131.824 219.124 130.992C218.495 130.16 218.18 129.013 218.18 127.552ZM221.764 126.416C221.391 126.416 221.044 126.453 220.724 126.528C220.404 126.592 220.084 126.693 219.764 126.832C219.753 126.949 219.743 127.072 219.732 127.2C219.732 127.317 219.732 127.435 219.732 127.552C219.732 128.021 219.764 128.464 219.828 128.88C219.892 129.296 220.004 129.664 220.164 129.984C220.335 130.293 220.559 130.544 220.836 130.736C221.113 130.917 221.465 131.008 221.892 131.008C222.244 131.008 222.543 130.933 222.788 130.784C223.033 130.635 223.236 130.443 223.396 130.208C223.556 129.973 223.668 129.723 223.732 129.456C223.807 129.179 223.844 128.912 223.844 128.656C223.844 127.931 223.668 127.376 223.316 126.992C222.975 126.608 222.457 126.416 221.764 126.416ZM232.347 132.24C231.568 132.24 230.859 132.112 230.219 131.856C229.579 131.6 229.03 131.227 228.571 130.736C228.112 130.245 227.755 129.643 227.499 128.928C227.254 128.203 227.131 127.376 227.131 126.448C227.131 125.52 227.27 124.699 227.547 123.984C227.835 123.259 228.219 122.651 228.699 122.16C229.179 121.669 229.739 121.296 230.379 121.04C231.019 120.784 231.702 120.656 232.427 120.656C232.886 120.656 233.296 120.688 233.659 120.752C234.032 120.816 234.352 120.891 234.619 120.976C234.896 121.061 235.12 121.147 235.291 121.232C235.462 121.317 235.579 121.381 235.643 121.424L235.195 122.704C235.099 122.64 234.96 122.571 234.779 122.496C234.598 122.421 234.39 122.347 234.155 122.272C233.931 122.197 233.68 122.139 233.403 122.096C233.136 122.043 232.864 122.016 232.587 122.016C232 122.016 231.472 122.117 231.003 122.32C230.534 122.523 230.134 122.816 229.803 123.2C229.472 123.584 229.216 124.053 229.035 124.608C228.864 125.152 228.779 125.765 228.779 126.448C228.779 127.109 228.854 127.712 229.003 128.256C229.163 128.8 229.398 129.269 229.707 129.664C230.016 130.048 230.4 130.347 230.859 130.56C231.328 130.773 231.872 130.88 232.491 130.88C233.206 130.88 233.798 130.805 234.267 130.656C234.736 130.507 235.088 130.373 235.323 130.256L235.723 131.536C235.648 131.589 235.515 131.659 235.323 131.744C235.131 131.819 234.891 131.893 234.603 131.968C234.315 132.043 233.979 132.107 233.595 132.16C233.211 132.213 232.795 132.24 232.347 132.24Z" fill="#8D9399"/>
<path d="M320.544 123.84H323.136L323.696 120.912H325.04L324.48 123.84H325.888V125.024H324.24L323.696 127.888H325.888V129.072H323.472L322.912 132H321.568L322.128 129.072H319.536L318.976 132H317.632L318.192 129.072H316.784V127.888H318.416L318.96 125.024H316.784V123.84H319.2L319.76 120.912H321.104L320.544 123.84ZM319.76 127.888H322.352L322.912 125.024H320.32L319.76 127.888ZM328.048 132V120.912H334.736V122.24H329.6V125.584H334.16V126.896H329.6V132H328.048ZM336.642 132V120.912H343.33V122.24H338.194V125.584H342.754V126.896H338.194V132H336.642ZM349.8 132.24C349.022 132.24 348.312 132.112 347.672 131.856C347.032 131.6 346.483 131.227 346.024 130.736C345.566 130.245 345.208 129.643 344.952 128.928C344.707 128.203 344.584 127.376 344.584 126.448C344.584 125.52 344.723 124.699 345 123.984C345.288 123.259 345.672 122.651 346.152 122.16C346.632 121.669 347.192 121.296 347.832 121.04C348.472 120.784 349.155 120.656 349.88 120.656C350.339 120.656 350.75 120.688 351.112 120.752C351.486 120.816 351.806 120.891 352.072 120.976C352.35 121.061 352.574 121.147 352.744 121.232C352.915 121.317 353.032 121.381 353.096 121.424L352.648 122.704C352.552 122.64 352.414 122.571 352.232 122.496C352.051 122.421 351.843 122.347 351.608 122.272C351.384 122.197 351.134 122.139 350.856 122.096C350.59 122.043 350.318 122.016 350.04 122.016C349.454 122.016 348.926 122.117 348.456 122.32C347.987 122.523 347.587 122.816 347.256 123.2C346.926 123.584 346.67 124.053 346.488 124.608C346.318 125.152 346.232 125.765 346.232 126.448C346.232 127.109 346.307 127.712 346.456 128.256C346.616 128.8 346.851 129.269 347.16 129.664C347.47 130.048 347.854 130.347 348.312 130.56C348.782 130.773 349.326 130.88 349.944 130.88C350.659 130.88 351.251 130.805 351.72 130.656C352.19 130.507 352.542 130.373 352.776 130.256L353.176 131.536C353.102 131.589 352.968 131.659 352.776 131.744C352.584 131.819 352.344 131.893 352.056 131.968C351.768 132.043 351.432 132.107 351.048 132.16C350.664 132.213 350.248 132.24 349.8 132.24ZM359.41 132.24C358.631 132.24 357.922 132.112 357.282 131.856C356.642 131.6 356.092 131.227 355.634 130.736C355.175 130.245 354.818 129.643 354.562 128.928C354.316 128.203 354.194 127.376 354.194 126.448C354.194 125.52 354.332 124.699 354.61 123.984C354.898 123.259 355.282 122.651 355.762 122.16C356.242 121.669 356.802 121.296 357.442 121.04C358.082 120.784 358.764 120.656 359.49 120.656C359.948 120.656 360.359 120.688 360.722 120.752C361.095 120.816 361.415 120.891 361.682 120.976C361.959 121.061 362.183 121.147 362.354 121.232C362.524 121.317 362.642 121.381 362.706 121.424L362.258 122.704C362.162 122.64 362.023 122.571 361.842 122.496C361.66 122.421 361.452 122.347 361.218 122.272C360.994 122.197 360.743 122.139 360.466 122.096C360.199 122.043 359.927 122.016 359.65 122.016C359.063 122.016 358.535 122.117 358.066 122.32C357.596 122.523 357.196 122.816 356.866 123.2C356.535 123.584 356.279 124.053 356.098 124.608C355.927 125.152 355.842 125.765 355.842 126.448C355.842 127.109 355.916 127.712 356.066 128.256C356.226 128.8 356.46 129.269 356.77 129.664C357.079 130.048 357.463 130.347 357.922 130.56C358.391 130.773 358.935 130.88 359.554 130.88C360.268 130.88 360.86 130.805 361.33 130.656C361.799 130.507 362.151 130.373 362.386 130.256L362.786 131.536C362.711 131.589 362.578 131.659 362.386 131.744C362.194 131.819 361.954 131.893 361.666 131.968C361.378 132.043 361.042 132.107 360.658 132.16C360.274 132.213 359.858 132.24 359.41 132.24ZM363.988 126.448C363.988 124.592 364.313 123.163 364.964 122.16C365.625 121.157 366.537 120.656 367.7 120.656C368.862 120.656 369.769 121.157 370.42 122.16C371.081 123.163 371.411 124.592 371.411 126.448C371.411 128.304 371.081 129.733 370.42 130.736C369.769 131.739 368.862 132.24 367.7 132.24C366.537 132.24 365.625 131.739 364.964 130.736C364.313 129.733 363.988 128.304 363.988 126.448ZM369.844 126.448C369.844 125.84 369.806 125.264 369.732 124.72C369.668 124.176 369.55 123.701 369.38 123.296C369.22 122.891 369.001 122.571 368.724 122.336C368.446 122.091 368.105 121.968 367.7 121.968C367.294 121.968 366.953 122.091 366.676 122.336C366.398 122.571 366.174 122.891 366.004 123.296C365.844 123.701 365.726 124.176 365.652 124.72C365.588 125.264 365.556 125.84 365.556 126.448C365.556 127.056 365.588 127.632 365.652 128.176C365.726 128.72 365.844 129.195 366.004 129.6C366.174 130.005 366.398 130.331 366.676 130.576C366.953 130.811 367.294 130.928 367.7 130.928C368.105 130.928 368.446 130.811 368.724 130.576C369.001 130.331 369.22 130.005 369.38 129.6C369.55 129.195 369.668 128.72 369.732 128.176C369.806 127.632 369.844 127.056 369.844 126.448ZM373.019 126.448C373.019 124.592 373.344 123.163 373.995 122.16C374.656 121.157 375.568 120.656 376.731 120.656C377.893 120.656 378.8 121.157 379.451 122.16C380.112 123.163 380.443 124.592 380.443 126.448C380.443 128.304 380.112 129.733 379.451 130.736C378.8 131.739 377.893 132.24 376.731 132.24C375.568 132.24 374.656 131.739 373.995 130.736C373.344 129.733 373.019 128.304 373.019 126.448ZM378.875 126.448C378.875 125.84 378.837 125.264 378.763 124.72C378.699 124.176 378.581 123.701 378.411 123.296C378.251 122.891 378.032 122.571 377.755 122.336C377.477 122.091 377.136 121.968 376.731 121.968C376.325 121.968 375.984 122.091 375.707 122.336C375.429 122.571 375.205 122.891 375.035 123.296C374.875 123.701 374.757 124.176 374.683 124.72C374.619 125.264 374.587 125.84 374.587 126.448C374.587 127.056 374.619 127.632 374.683 128.176C374.757 128.72 374.875 129.195 375.035 129.6C375.205 130.005 375.429 130.331 375.707 130.576C375.984 130.811 376.325 130.928 376.731 130.928C377.136 130.928 377.477 130.811 377.755 130.576C378.032 130.331 378.251 130.005 378.411 129.6C378.581 129.195 378.699 128.72 378.763 128.176C378.837 127.632 378.875 127.056 378.875 126.448Z" fill="#8D9399"/>
<path d="M21.66 20V6.14H30.56V8.28H24.18V11.7H29.86V13.8H24.18V17.86H31.04V20H21.66ZM37.175 12.96L39.395 9.54H41.935L38.495 14.48C39.215 15.4133 39.9017 16.36 40.555 17.32C41.2217 18.2667 41.7683 19.16 42.195 20H39.575C39.455 19.7467 39.295 19.46 39.095 19.14C38.9083 18.8067 38.7017 18.4667 38.475 18.12C38.2617 17.76 38.035 17.4067 37.795 17.06C37.555 16.7133 37.3217 16.3867 37.095 16.08C36.6283 16.68 36.1683 17.3467 35.715 18.08C35.275 18.8 34.9083 19.44 34.615 20H32.135C32.335 19.6 32.575 19.1733 32.855 18.72C33.135 18.2667 33.435 17.8067 33.755 17.34C34.075 16.86 34.4017 16.3867 34.735 15.92C35.0817 15.44 35.4217 14.9867 35.755 14.56L32.295 9.54H34.955L37.175 12.96ZM43.8809 6.78L46.3009 6.38V9.54H50.0209V11.56H46.3009V15.82C46.3009 16.66 46.4343 17.26 46.7009 17.62C46.9676 17.98 47.4209 18.16 48.0609 18.16C48.5009 18.16 48.8876 18.1133 49.2209 18.02C49.5676 17.9267 49.8409 17.84 50.0409 17.76L50.4409 19.68C50.1609 19.8 49.7943 19.92 49.3409 20.04C48.8876 20.1733 48.3543 20.24 47.7409 20.24C46.9943 20.24 46.3676 20.14 45.8609 19.94C45.3676 19.74 44.9743 19.4533 44.6809 19.08C44.3876 18.6933 44.1809 18.2333 44.0609 17.7C43.9409 17.1533 43.8809 16.5333 43.8809 15.84V6.78ZM51.6045 14.82C51.6045 13.9 51.7379 13.0933 52.0045 12.4C52.2845 11.7067 52.6512 11.1333 53.1045 10.68C53.5579 10.2133 54.0779 9.86667 54.6645 9.64C55.2512 9.4 55.8512 9.28 56.4645 9.28C57.9045 9.28 59.0245 9.72667 59.8245 10.62C60.6379 11.5133 61.0445 12.8467 61.0445 14.62C61.0445 14.7533 61.0379 14.9067 61.0245 15.08C61.0245 15.24 61.0179 15.3867 61.0045 15.52H54.1045C54.1712 16.36 54.4645 17.0133 54.9845 17.48C55.5179 17.9333 56.2845 18.16 57.2845 18.16C57.8712 18.16 58.4045 18.1067 58.8845 18C59.3779 17.8933 59.7645 17.78 60.0445 17.66L60.3645 19.64C60.2312 19.7067 60.0445 19.78 59.8045 19.86C59.5779 19.9267 59.3112 19.9867 59.0045 20.04C58.7112 20.1067 58.3912 20.16 58.0445 20.2C57.6979 20.24 57.3445 20.26 56.9845 20.26C56.0645 20.26 55.2645 20.1267 54.5845 19.86C53.9045 19.58 53.3445 19.2 52.9045 18.72C52.4645 18.2267 52.1379 17.6533 51.9245 17C51.7112 16.3333 51.6045 15.6067 51.6045 14.82ZM58.6245 13.74C58.6245 13.4067 58.5779 13.0933 58.4845 12.8C58.3912 12.4933 58.2512 12.2333 58.0645 12.02C57.8912 11.7933 57.6712 11.62 57.4045 11.5C57.1512 11.3667 56.8445 11.3 56.4845 11.3C56.1112 11.3 55.7845 11.3733 55.5045 11.52C55.2245 11.6533 54.9845 11.8333 54.7845 12.06C54.5979 12.2867 54.4512 12.5467 54.3445 12.84C54.2379 13.1333 54.1645 13.4333 54.1245 13.74H58.6245ZM63.6103 9.88C64.077 9.74667 64.6836 9.62 65.4303 9.5C66.177 9.38 67.0036 9.32 67.9103 9.32C68.7636 9.32 69.477 9.44 70.0503 9.68C70.6236 9.90667 71.077 10.2333 71.4103 10.66C71.757 11.0733 71.997 11.58 72.1303 12.18C72.277 12.7667 72.3503 13.4133 72.3503 14.12V20H69.9303V14.5C69.9303 13.94 69.8903 13.4667 69.8103 13.08C69.7436 12.68 69.6236 12.36 69.4503 12.12C69.2903 11.8667 69.0636 11.6867 68.7703 11.58C68.4903 11.46 68.1436 11.4 67.7303 11.4C67.4236 11.4 67.1036 11.42 66.7703 11.46C66.437 11.5 66.1903 11.5333 66.0303 11.56V20H63.6103V9.88ZM77.2095 14.74C77.2095 15.8067 77.4629 16.6467 77.9695 17.26C78.4762 17.86 79.1762 18.16 80.0695 18.16C80.4562 18.16 80.7829 18.1467 81.0495 18.12C81.3295 18.08 81.5562 18.04 81.7295 18V12C81.5162 11.8533 81.2295 11.72 80.8695 11.6C80.5229 11.4667 80.1495 11.4 79.7495 11.4C78.8695 11.4 78.2229 11.7 77.8095 12.3C77.4095 12.9 77.2095 13.7133 77.2095 14.74ZM84.1495 19.68C83.6695 19.8267 83.0629 19.96 82.3295 20.08C81.6095 20.2 80.8495 20.26 80.0495 20.26C79.2229 20.26 78.4829 20.1333 77.8295 19.88C77.1762 19.6267 76.6162 19.2667 76.1495 18.8C75.6962 18.32 75.3429 17.7467 75.0895 17.08C74.8495 16.4 74.7295 15.64 74.7295 14.8C74.7295 13.9733 74.8295 13.2267 75.0295 12.56C75.2429 11.88 75.5495 11.3 75.9495 10.82C76.3495 10.34 76.8362 9.97333 77.4095 9.72C77.9829 9.45333 78.6429 9.32 79.3895 9.32C79.8962 9.32 80.3429 9.38 80.7295 9.5C81.1162 9.62 81.4495 9.75333 81.7295 9.9V4.88L84.1495 4.48V19.68ZM86.6436 14.82C86.6436 13.9 86.7769 13.0933 87.0436 12.4C87.3236 11.7067 87.6903 11.1333 88.1436 10.68C88.5969 10.2133 89.1169 9.86667 89.7036 9.64C90.2903 9.4 90.8903 9.28 91.5036 9.28C92.9436 9.28 94.0636 9.72667 94.8636 10.62C95.6769 11.5133 96.0836 12.8467 96.0836 14.62C96.0836 14.7533 96.0769 14.9067 96.0636 15.08C96.0636 15.24 96.0569 15.3867 96.0436 15.52H89.1436C89.2103 16.36 89.5036 17.0133 90.0236 17.48C90.5569 17.9333 91.3236 18.16 92.3236 18.16C92.9103 18.16 93.4436 18.1067 93.9236 18C94.4169 17.8933 94.8036 17.78 95.0836 17.66L95.4036 19.64C95.2703 19.7067 95.0836 19.78 94.8436 19.86C94.6169 19.9267 94.3503 19.9867 94.0436 20.04C93.7503 20.1067 93.4303 20.16 93.0836 20.2C92.7369 20.24 92.3836 20.26 92.0236 20.26C91.1036 20.26 90.3036 20.1267 89.6236 19.86C88.9436 19.58 88.3836 19.2 87.9436 18.72C87.5036 18.2267 87.1769 17.6533 86.9636 17C86.7503 16.3333 86.6436 15.6067 86.6436 14.82ZM93.6636 13.74C93.6636 13.4067 93.6169 13.0933 93.5236 12.8C93.4303 12.4933 93.2903 12.2333 93.1036 12.02C92.9303 11.7933 92.7103 11.62 92.4436 11.5C92.1903 11.3667 91.8836 11.3 91.5236 11.3C91.1503 11.3 90.8236 11.3733 90.5436 11.52C90.2636 11.6533 90.0236 11.8333 89.8236 12.06C89.6369 12.2867 89.4903 12.5467 89.3836 12.84C89.2769 13.1333 89.2036 13.4333 89.1636 13.74H93.6636ZM100.549 14.74C100.549 15.8067 100.803 16.6467 101.309 17.26C101.816 17.86 102.516 18.16 103.409 18.16C103.796 18.16 104.123 18.1467 104.389 18.12C104.669 18.08 104.896 18.04 105.069 18V12C104.856 11.8533 104.569 11.72 104.209 11.6C103.863 11.4667 103.489 11.4 103.089 11.4C102.209 11.4 101.563 11.7 101.149 12.3C100.749 12.9 100.549 13.7133 100.549 14.74ZM107.489 19.68C107.009 19.8267 106.403 19.96 105.669 20.08C104.949 20.2 104.189 20.26 103.389 20.26C102.563 20.26 101.823 20.1333 101.169 19.88C100.516 19.6267 99.956 19.2667 99.4894 18.8C99.036 18.32 98.6827 17.7467 98.4294 17.08C98.1894 16.4 98.0694 15.64 98.0694 14.8C98.0694 13.9733 98.1694 13.2267 98.3694 12.56C98.5827 11.88 98.8894 11.3 99.2894 10.82C99.6894 10.34 100.176 9.97333 100.749 9.72C101.323 9.45333 101.983 9.32 102.729 9.32C103.236 9.32 103.683 9.38 104.069 9.5C104.456 9.62 104.789 9.75333 105.069 9.9V4.88L107.489 4.48V19.68ZM119.271 6C121.285 6 122.825 6.36667 123.891 7.1C124.971 7.83333 125.511 8.98 125.511 10.54C125.511 11.3533 125.365 12.0533 125.071 12.64C124.791 13.2133 124.378 13.6867 123.831 14.06C123.285 14.42 122.618 14.6867 121.831 14.86C121.045 15.0333 120.145 15.12 119.131 15.12H117.871V20H115.351V6.34C115.938 6.20667 116.585 6.12 117.291 6.08C118.011 6.02667 118.671 6 119.271 6ZM119.451 8.18C118.811 8.18 118.285 8.2 117.871 8.24V12.96H119.091C120.305 12.96 121.238 12.7933 121.891 12.46C122.545 12.1133 122.871 11.4667 122.871 10.52C122.871 10.0667 122.785 9.68667 122.611 9.38C122.438 9.07333 122.198 8.83333 121.891 8.66C121.585 8.48667 121.218 8.36667 120.791 8.3C120.378 8.22 119.931 8.18 119.451 8.18ZM131.04 18.3C131.787 18.3 132.354 18.26 132.74 18.18V15.5C132.607 15.46 132.414 15.42 132.16 15.38C131.907 15.34 131.627 15.32 131.32 15.32C131.054 15.32 130.78 15.34 130.5 15.38C130.234 15.42 129.987 15.4933 129.76 15.6C129.547 15.7067 129.374 15.86 129.24 16.06C129.107 16.2467 129.04 16.4867 129.04 16.78C129.04 17.3533 129.22 17.7533 129.58 17.98C129.94 18.1933 130.427 18.3 131.04 18.3ZM130.84 9.28C131.64 9.28 132.314 9.38 132.86 9.58C133.407 9.78 133.84 10.06 134.16 10.42C134.494 10.78 134.727 11.22 134.86 11.74C135.007 12.2467 135.08 12.8067 135.08 13.42V19.76C134.707 19.84 134.14 19.9333 133.38 20.04C132.634 20.16 131.787 20.22 130.84 20.22C130.214 20.22 129.64 20.16 129.12 20.04C128.6 19.92 128.154 19.7267 127.78 19.46C127.42 19.1933 127.134 18.8467 126.92 18.42C126.72 17.9933 126.62 17.4667 126.62 16.84C126.62 16.24 126.734 15.7333 126.96 15.32C127.2 14.9067 127.52 14.5733 127.92 14.32C128.32 14.0533 128.78 13.8667 129.3 13.76C129.834 13.64 130.387 13.58 130.96 13.58C131.227 13.58 131.507 13.6 131.8 13.64C132.094 13.6667 132.407 13.72 132.74 13.8V13.4C132.74 13.12 132.707 12.8533 132.64 12.6C132.574 12.3467 132.454 12.1267 132.28 11.94C132.12 11.74 131.9 11.5867 131.62 11.48C131.354 11.3733 131.014 11.32 130.6 11.32C130.04 11.32 129.527 11.36 129.06 11.44C128.594 11.52 128.214 11.6133 127.92 11.72L127.62 9.76C127.927 9.65333 128.374 9.54667 128.96 9.44C129.547 9.33333 130.174 9.28 130.84 9.28ZM141.684 20.2C140.964 20.1867 140.364 20.1067 139.884 19.96C139.417 19.8133 139.044 19.6067 138.764 19.34C138.484 19.06 138.284 18.72 138.164 18.32C138.057 17.9067 138.004 17.44 138.004 16.92V4.88L140.424 4.48V16.46C140.424 16.7533 140.444 17 140.484 17.2C140.537 17.4 140.624 17.5733 140.744 17.72C140.864 17.8533 141.024 17.96 141.224 18.04C141.437 18.1067 141.704 18.16 142.024 18.2L141.684 20.2ZM143.401 14.82C143.401 13.9 143.535 13.0933 143.801 12.4C144.081 11.7067 144.448 11.1333 144.901 10.68C145.355 10.2133 145.875 9.86667 146.461 9.64C147.048 9.4 147.648 9.28 148.261 9.28C149.701 9.28 150.821 9.72667 151.621 10.62C152.435 11.5133 152.841 12.8467 152.841 14.62C152.841 14.7533 152.835 14.9067 152.821 15.08C152.821 15.24 152.815 15.3867 152.801 15.52H145.901C145.968 16.36 146.261 17.0133 146.781 17.48C147.315 17.9333 148.081 18.16 149.081 18.16C149.668 18.16 150.201 18.1067 150.681 18C151.175 17.8933 151.561 17.78 151.841 17.66L152.161 19.64C152.028 19.7067 151.841 19.78 151.601 19.86C151.375 19.9267 151.108 19.9867 150.801 20.04C150.508 20.1067 150.188 20.16 149.841 20.2C149.495 20.24 149.141 20.26 148.781 20.26C147.861 20.26 147.061 20.1267 146.381 19.86C145.701 19.58 145.141 19.2 144.701 18.72C144.261 18.2267 143.935 17.6533 143.721 17C143.508 16.3333 143.401 15.6067 143.401 14.82ZM150.421 13.74C150.421 13.4067 150.375 13.0933 150.281 12.8C150.188 12.4933 150.048 12.2333 149.861 12.02C149.688 11.7933 149.468 11.62 149.201 11.5C148.948 11.3667 148.641 11.3 148.281 11.3C147.908 11.3 147.581 11.3733 147.301 11.52C147.021 11.6533 146.781 11.8333 146.581 12.06C146.395 12.2867 146.248 12.5467 146.141 12.84C146.035 13.1333 145.961 13.4333 145.921 13.74H150.421ZM155.287 6.78L157.707 6.38V9.54H161.427V11.56H157.707V15.82C157.707 16.66 157.841 17.26 158.107 17.62C158.374 17.98 158.827 18.16 159.467 18.16C159.907 18.16 160.294 18.1133 160.627 18.02C160.974 17.9267 161.247 17.84 161.447 17.76L161.847 19.68C161.567 19.8 161.201 19.92 160.747 20.04C160.294 20.1733 159.761 20.24 159.147 20.24C158.401 20.24 157.774 20.14 157.267 19.94C156.774 19.74 156.381 19.4533 156.087 19.08C155.794 18.6933 155.587 18.2333 155.467 17.7C155.347 17.1533 155.287 16.5333 155.287 15.84V6.78ZM163.647 6.78L166.067 6.38V9.54H169.787V11.56H166.067V15.82C166.067 16.66 166.2 17.26 166.467 17.62C166.733 17.98 167.187 18.16 167.827 18.16C168.267 18.16 168.653 18.1133 168.987 18.02C169.333 17.9267 169.607 17.84 169.807 17.76L170.207 19.68C169.927 19.8 169.56 19.92 169.107 20.04C168.653 20.1733 168.12 20.24 167.507 20.24C166.76 20.24 166.133 20.14 165.627 19.94C165.133 19.74 164.74 19.4533 164.447 19.08C164.153 18.6933 163.947 18.2333 163.827 17.7C163.707 17.1533 163.647 16.5333 163.647 15.84V6.78ZM171.37 14.82C171.37 13.9 171.503 13.0933 171.77 12.4C172.05 11.7067 172.417 11.1333 172.87 10.68C173.323 10.2133 173.843 9.86667 174.43 9.64C175.017 9.4 175.617 9.28 176.23 9.28C177.67 9.28 178.79 9.72667 179.59 10.62C180.403 11.5133 180.81 12.8467 180.81 14.62C180.81 14.7533 180.803 14.9067 180.79 15.08C180.79 15.24 180.783 15.3867 180.77 15.52H173.87C173.937 16.36 174.23 17.0133 174.75 17.48C175.283 17.9333 176.05 18.16 177.05 18.16C177.637 18.16 178.17 18.1067 178.65 18C179.143 17.8933 179.53 17.78 179.81 17.66L180.13 19.64C179.997 19.7067 179.81 19.78 179.57 19.86C179.343 19.9267 179.077 19.9867 178.77 20.04C178.477 20.1067 178.157 20.16 177.81 20.2C177.463 20.24 177.11 20.26 176.75 20.26C175.83 20.26 175.03 20.1267 174.35 19.86C173.67 19.58 173.11 19.2 172.67 18.72C172.23 18.2267 171.903 17.6533 171.69 17C171.477 16.3333 171.37 15.6067 171.37 14.82ZM178.39 13.74C178.39 13.4067 178.343 13.0933 178.25 12.8C178.157 12.4933 178.017 12.2333 177.83 12.02C177.657 11.7933 177.437 11.62 177.17 11.5C176.917 11.3667 176.61 11.3 176.25 11.3C175.877 11.3 175.55 11.3733 175.27 11.52C174.99 11.6533 174.75 11.8333 174.55 12.06C174.363 12.2867 174.217 12.5467 174.11 12.84C174.003 13.1333 173.93 13.4333 173.89 13.74H178.39ZM186.964 13.18H192.344V15.4H186.964V13.18ZM203.32 20.16C202.587 20.16 201.847 20.1333 201.1 20.08C200.354 20.04 199.7 19.9467 199.14 19.8V6.34C199.434 6.28667 199.747 6.24 200.08 6.2C200.414 6.14667 200.754 6.10667 201.1 6.08C201.447 6.05333 201.787 6.03333 202.12 6.02C202.467 6.00667 202.794 6 203.1 6C203.94 6 204.72 6.06667 205.44 6.2C206.16 6.32 206.78 6.52667 207.3 6.82C207.834 7.11333 208.247 7.5 208.54 7.98C208.834 8.46 208.98 9.05333 208.98 9.76C208.98 10.4133 208.82 10.9733 208.5 11.44C208.194 11.9067 207.76 12.28 207.2 12.56C208.04 12.84 208.66 13.2533 209.06 13.8C209.46 14.3467 209.66 15.04 209.66 15.88C209.66 17.3067 209.14 18.38 208.1 19.1C207.06 19.8067 205.467 20.16 203.32 20.16ZM201.62 13.76V17.98C201.9 18.0067 202.2 18.0267 202.52 18.04C202.84 18.0533 203.134 18.06 203.4 18.06C203.92 18.06 204.4 18.0267 204.84 17.96C205.294 17.8933 205.68 17.78 206 17.62C206.334 17.4467 206.594 17.22 206.78 16.94C206.98 16.66 207.08 16.3 207.08 15.86C207.08 15.0733 206.794 14.5267 206.22 14.22C205.647 13.9133 204.854 13.76 203.84 13.76H201.62ZM201.62 11.78H203.4C204.36 11.78 205.114 11.6467 205.66 11.38C206.207 11.1 206.48 10.6067 206.48 9.9C206.48 9.23333 206.194 8.76 205.62 8.48C205.06 8.2 204.327 8.06 203.42 8.06C203.034 8.06 202.687 8.06667 202.38 8.08C202.087 8.09333 201.834 8.11333 201.62 8.14V11.78ZM218.125 11.72C217.925 11.6533 217.645 11.5867 217.285 11.52C216.938 11.44 216.532 11.4 216.065 11.4C215.798 11.4 215.512 11.4267 215.205 11.48C214.912 11.5333 214.705 11.58 214.585 11.62V20H212.165V10.04C212.632 9.86667 213.212 9.70667 213.905 9.56C214.612 9.4 215.392 9.32 216.245 9.32C216.405 9.32 216.592 9.33333 216.805 9.36C217.018 9.37333 217.232 9.4 217.445 9.44C217.658 9.46667 217.865 9.50667 218.065 9.56C218.265 9.6 218.425 9.64 218.545 9.68L218.125 11.72ZM222.671 20H220.251V9.54H222.671V20ZM222.931 6.48C222.931 6.93333 222.785 7.29333 222.491 7.56C222.198 7.82667 221.851 7.96 221.451 7.96C221.038 7.96 220.685 7.82667 220.391 7.56C220.098 7.29333 219.951 6.93333 219.951 6.48C219.951 6.01333 220.098 5.64667 220.391 5.38C220.685 5.11333 221.038 4.98 221.451 4.98C221.851 4.98 222.198 5.11333 222.491 5.38C222.785 5.64667 222.931 6.01333 222.931 6.48ZM227.659 14.5C227.659 15.5267 227.879 16.28 228.319 16.76C228.772 17.2267 229.352 17.46 230.059 17.46C230.445 17.46 230.805 17.4067 231.139 17.3C231.485 17.1933 231.765 17.0667 231.979 16.92V11.5C231.805 11.46 231.592 11.4267 231.339 11.4C231.085 11.36 230.765 11.34 230.379 11.34C229.499 11.34 228.825 11.6333 228.359 12.22C227.892 12.7933 227.659 13.5533 227.659 14.5ZM234.399 18.94C234.399 20.6067 233.972 21.8267 233.119 22.6C232.279 23.3733 230.985 23.76 229.239 23.76C228.599 23.76 227.972 23.7067 227.359 23.6C226.759 23.4933 226.212 23.3533 225.719 23.18L226.159 21.12C226.572 21.2933 227.039 21.4333 227.559 21.54C228.092 21.6467 228.665 21.7 229.279 21.7C230.252 21.7 230.945 21.5 231.359 21.1C231.772 20.7 231.979 20.1067 231.979 19.32V18.92C231.739 19.04 231.419 19.16 231.019 19.28C230.632 19.4 230.185 19.46 229.679 19.46C229.012 19.46 228.399 19.3533 227.839 19.14C227.292 18.9267 226.819 18.6133 226.419 18.2C226.032 17.7867 225.725 17.2733 225.499 16.66C225.285 16.0333 225.179 15.3133 225.179 14.5C225.179 13.74 225.292 13.04 225.519 12.4C225.759 11.76 226.099 11.2133 226.539 10.76C226.992 10.3067 227.539 9.95333 228.179 9.7C228.819 9.44667 229.545 9.32 230.359 9.32C231.145 9.32 231.892 9.38 232.599 9.5C233.305 9.62 233.905 9.74667 234.399 9.88V18.94ZM237.478 20V4.88L239.898 4.48V9.66C240.164 9.56667 240.471 9.48667 240.818 9.42C241.178 9.35333 241.531 9.32 241.878 9.32C242.718 9.32 243.411 9.44 243.958 9.68C244.518 9.90667 244.964 10.2333 245.298 10.66C245.631 11.0733 245.864 11.5733 245.998 12.16C246.144 12.7467 246.217 13.4 246.217 14.12V20H243.798V14.5C243.798 13.94 243.758 13.4667 243.678 13.08C243.611 12.68 243.491 12.36 243.318 12.12C243.158 11.8667 242.938 11.6867 242.658 11.58C242.378 11.46 242.031 11.4 241.618 11.4C241.298 11.4 240.971 11.4333 240.638 11.5C240.304 11.5667 240.058 11.6267 239.898 11.68V20H237.478ZM248.998 6.78L251.418 6.38V9.54H255.138V11.56H251.418V15.82C251.418 16.66 251.551 17.26 251.818 17.62C252.085 17.98 252.538 18.16 253.178 18.16C253.618 18.16 254.005 18.1133 254.338 18.02C254.685 17.9267 254.958 17.84 255.158 17.76L255.558 19.68C255.278 19.8 254.911 19.92 254.458 20.04C254.005 20.1733 253.471 20.24 252.858 20.24C252.111 20.24 251.485 20.14 250.978 19.94C250.485 19.74 250.091 19.4533 249.798 19.08C249.505 18.6933 249.298 18.2333 249.178 17.7C249.058 17.1533 248.998 16.5333 248.998 15.84V6.78Z" fill="#403F3D"/>
<defs>
<filter id="filter0_d" x="0" y="31" width="140" height="100" filterUnits="userSpaceOnUse" color-interpolation-filters="sRGB">
<feFlood flood-opacity="0" result="BackgroundImageFix"/>
<feColorMatrix in="SourceAlpha" type="matrix" values="0 0 0 0 0 0 0 0 0 0 0 0 0 0 0 0 0 0 127 0" result="hardAlpha"/>
<feOffset dy="10"/>
<feGaussianBlur stdDeviation="10"/>
<feColorMatrix type="matrix" values="0 0 0 0 0 0 0 0 0 0 0 0 0 0 0 0 0 0 0.08 0"/>
<feBlend mode="normal" in2="BackgroundImageFix" result="effect1_dropShadow"/>
<feBlend mode="normal" in="SourceGraphic" in2="effect1_dropShadow" result="shape"/>
</filter>
<filter id="filter1_d" x="444" y="31" width="140" height="100" filterUnits="userSpaceOnUse" color-interpolation-filters="sRGB">
<feFlood flood-opacity="0" result="BackgroundImageFix"/>
<feColorMatrix in="SourceAlpha" type="matrix" values="0 0 0 0 0 0 0 0 0 0 0 0 0 0 0 0 0 0 127 0" result="hardAlpha"/>
<feOffset dy="10"/>
<feGaussianBlur stdDeviation="10"/>
<feColorMatrix type="matrix" values="0 0 0 0 0 0 0 0 0 0 0 0 0 0 0 0 0 0 0.08 0"/>
<feBlend mode="normal" in2="BackgroundImageFix" result="effect1_dropShadow"/>
<feBlend mode="normal" in="SourceGraphic" in2="effect1_dropShadow" result="shape"/>
</filter>
<filter id="filter2_d" x="148" y="31" width="140" height="100" filterUnits="userSpaceOnUse" color-interpolation-filters="sRGB">
<feFlood flood-opacity="0" result="BackgroundImageFix"/>
<feColorMatrix in="SourceAlpha" type="matrix" values="0 0 0 0 0 0 0 0 0 0 0 0 0 0 0 0 0 0 127 0" result="hardAlpha"/>
<feOffset dy="10"/>
<feGaussianBlur stdDeviation="10"/>
<feColorMatrix type="matrix" values="0 0 0 0 0 0 0 0 0 0 0 0 0 0 0 0 0 0 0.08 0"/>
<feBlend mode="normal" in2="BackgroundImageFix" result="effect1_dropShadow"/>
<feBlend mode="normal" in="SourceGraphic" in2="effect1_dropShadow" result="shape"/>
</filter>
<filter id="filter3_d" x="296" y="31" width="140" height="100" filterUnits="userSpaceOnUse" color-interpolation-filters="sRGB">
<feFlood flood-opacity="0" result="BackgroundImageFix"/>
<feColorMatrix in="SourceAlpha" type="matrix" values="0 0 0 0 0 0 0 0 0 0 0 0 0 0 0 0 0 0 127 0" result="hardAlpha"/>
<feOffset dy="10"/>
<feGaussianBlur stdDeviation="10"/>
<feColorMatrix type="matrix" values="0 0 0 0 0 0 0 0 0 0 0 0 0 0 0 0 0 0 0.08 0"/>
<feBlend mode="normal" in2="BackgroundImageFix" result="effect1_dropShadow"/>
<feBlend mode="normal" in="SourceGraphic" in2="effect1_dropShadow" result="shape"/>
</filter>
</defs>
</svg>
